<?xml version="1.0" encoding="us-ascii" standalone="no"?><svg xmlns="http://www.w3.org/2000/svg" xmlns:xlink="http://www.w3.org/1999/xlink" contentStyleType="text/css" height="1147px" preserveAspectRatio="none" style="width:947px;height:1147px;background:#FFFFFF;" version="1.1" viewBox="0 0 947 1147" width="947px" zoomAndPan="magnify"><defs/><g><text fill="#000000" font-family="sans-serif" font-size="14" font-weight="bold" lengthAdjust="spacing" textLength="232" x="350.5" y="22.9951">Relationships - Class Diagram</text><!--class CRTP duck type--><g id="elem_CRTP duck type"><rect codeLine="3" fill="#F1F1F1" height="129.4844" id="CRTP duck type" rx="2.5" ry="2.5" style="stroke:#181818;stroke-width:0.5;" width="153" x="287.5" y="128.7769"/><ellipse cx="307.45" cy="144.7769" fill="#E3664A" rx="11" ry="11" style="stroke:#181818;stroke-width:1.0;"/><path d="M309.5281,145.2456 Q309.5281,144.3081 309.1063,143.7769 Q308.6844,143.2456 307.9344,143.2456 Q307.2,143.2456 306.7781,143.7769 Q306.3719,144.3081 306.3719,145.2456 Q306.3719,146.1988 306.7781,146.73 Q307.2,147.2613 307.9344,147.2613 Q308.6844,147.2613 309.1063,146.73 Q309.5281,146.1988 309.5281,145.2456 Z M311.075,148.6519 L309.45,148.6519 L309.45,147.98 Q309.1219,148.4175 308.7,148.6206 Q308.2781,148.8238 307.6688,148.8238 Q306.3094,148.8238 305.4813,147.855 Q304.6531,146.8706 304.6531,145.2456 Q304.6531,143.6519 305.4813,142.6831 Q306.3094,141.6988 307.6688,141.6988 Q308.2625,141.6988 308.7156,141.9019 Q309.1688,142.105 309.45,142.4956 L309.45,142.1519 Q309.45,141.0269 308.825,140.4175 Q308.2,139.7925 307.0594,139.7925 Q305.3406,139.7925 304.2469,141.3238 Q303.1531,142.8394 303.1531,145.2769 Q303.1531,147.8238 304.4031,149.3238 Q305.6688,150.8238 307.7781,150.8238 Q308.4344,150.8238 309.0594,150.6363 Q309.6844,150.4488 310.2625,150.0581 L311.0281,151.5113 Q310.3563,151.9644 309.5594,152.1831 Q308.7625,152.4175 307.8563,152.4175 Q304.95,152.4175 303.2156,150.48 Q301.4969,148.5581 301.4969,145.2769 Q301.4969,142.0581 303.0438,140.1363 Q304.6063,138.1988 307.1688,138.1988 Q308.9656,138.1988 310.0125,139.2925 Q311.075,140.3863 311.075,142.2613 L311.075,148.6519 Z " fill="#000000"/><text fill="#000000" font-family="sans-serif" font-size="14" lengthAdjust="spacing" textLength="110" x="322.55" y="149.6236">CRTP duck type</text><line style="stroke:#181818;stroke-width:0.5;" x1="288.5" x2="439.5" y1="160.7769" y2="160.7769"/><line style="stroke:#181818;stroke-width:0.5;" x1="288.5" x2="439.5" y1="168.7769" y2="168.7769"/><ellipse cx="298.5" cy="182.4253" fill="#84BE84" rx="3" ry="3" style="stroke:#038048;stroke-width:1.0;"/><text fill="#000000" font-family="sans-serif" font-size="14" font-style="italic" lengthAdjust="spacing" textLength="32" x="307.5" y="185.772">set()</text><ellipse cx="298.5" cy="198.7222" fill="#84BE84" rx="3" ry="3" style="stroke:#038048;stroke-width:1.0;"/><text fill="#000000" font-family="sans-serif" font-size="14" font-style="italic" lengthAdjust="spacing" textLength="79" x="307.5" y="202.0689">operator[]()</text><ellipse cx="298.5" cy="215.0191" fill="#84BE84" rx="3" ry="3" style="stroke:#038048;stroke-width:1.0;"/><text fill="#000000" font-family="sans-serif" font-size="14" font-style="italic" lengthAdjust="spacing" textLength="40" x="307.5" y="218.3657">data()</text><ellipse cx="298.5" cy="231.3159" fill="#84BE84" rx="3" ry="3" style="stroke:#038048;stroke-width:1.0;"/><text fill="#000000" font-family="sans-serif" font-size="14" font-style="italic" lengthAdjust="spacing" textLength="80" x="307.5" y="234.6626">sequence()</text><ellipse cx="298.5" cy="247.6128" fill="#84BE84" rx="3" ry="3" style="stroke:#038048;stroke-width:1.0;"/><text fill="#000000" font-family="sans-serif" font-size="14" font-style="italic" lengthAdjust="spacing" textLength="127" x="307.5" y="250.9595">iterator functions()</text></g><g id="elem_GMN3"><path d="M6,173.3869 L6,213.6525 A0,0 0 0 0 6,213.6525 L252,213.6525 A0,0 0 0 0 252,213.6525 L252,197.5169 L287.2,193.5169 L252,189.5169 L252,183.3869 L242,173.3869 L6,173.3869 A0,0 0 0 0 6,173.3869 " fill="#FEFFDD" style="stroke:#181818;stroke-width:0.5;"/><path d="M242,173.3869 L242,183.3869 L252,183.3869 L242,173.3869 " fill="#FEFFDD" style="stroke:#181818;stroke-width:0.5;"/><text fill="#000000" font-family="sans-serif" font-size="13" lengthAdjust="spacing" textLength="197" x="12" y="190.4538">Conceptual interface, not real :</text><text fill="#000000" font-family="sans-serif" font-size="13" lengthAdjust="spacing" textLength="225" x="12" y="205.5866">Could be made into a c++ concept</text></g><!--class vector_base--><g id="elem_vector_base"><rect codeLine="15" fill="#F1F1F1" height="292.4531" id="vector_base" rx="2.5" ry="2.5" style="stroke:#181818;stroke-width:0.5;" width="286" x="562" y="47.2969"/><ellipse cx="577" cy="63.2969" fill="#A9DCDF" rx="11" ry="11" style="stroke:#181818;stroke-width:1.0;"/><path d="M577.1094,58.6406 L575.9531,63.7188 L578.2813,63.7188 L577.1094,58.6406 Z M575.625,56.4063 L578.6094,56.4063 L581.9688,68.7969 L579.5156,68.7969 L578.75,65.7344 L575.4688,65.7344 L574.7188,68.7969 L572.2813,68.7969 L575.625,56.4063 Z " fill="#000000"/><text fill="#000000" font-family="sans-serif" font-size="14" font-style="italic" lengthAdjust="spacing" textLength="84" x="591" y="68.1436">vector_base</text><rect fill="#FFFFFF" height="15.9688" style="stroke:#181818;stroke-width:1.0;stroke-dasharray:2.0,2.0;" width="168" x="683" y="44.2969"/><text fill="#000000" font-family="sans-serif" font-size="12" font-style="italic" lengthAdjust="spacing" textLength="166" x="684" y="56.4355">Writable, T, Count, Derived</text><line style="stroke:#181818;stroke-width:0.5;" x1="563" x2="847" y1="79.2969" y2="79.2969"/><line style="stroke:#181818;stroke-width:0.5;" x1="563" x2="847" y1="87.2969" y2="87.2969"/><ellipse cx="573" cy="100.9453" fill="#84BE84" rx="3" ry="3" style="stroke:#038048;stroke-width:1.0;"/><text fill="#000000" font-family="sans-serif" font-size="14" lengthAdjust="spacing" textLength="74" x="582" y="104.292">CRTP set()</text><ellipse cx="573" cy="117.2422" fill="#84BE84" rx="3" ry="3" style="stroke:#038048;stroke-width:1.0;"/><text fill="#000000" font-family="sans-serif" font-size="14" lengthAdjust="spacing" textLength="121" x="582" y="120.5889">CRTP operator[]()</text><ellipse cx="573" cy="133.5391" fill="#84BE84" rx="3" ry="3" style="stroke:#038048;stroke-width:1.0;"/><text fill="#000000" font-family="sans-serif" font-size="14" lengthAdjust="spacing" textLength="82" x="582" y="136.8857">CRTP data()</text><ellipse cx="573" cy="149.8359" fill="#84BE84" rx="3" ry="3" style="stroke:#038048;stroke-width:1.0;"/><text fill="#000000" font-family="sans-serif" font-size="14" lengthAdjust="spacing" textLength="122" x="582" y="153.1826">CRTP sequence()</text><ellipse cx="573" cy="166.1328" fill="#84BE84" rx="3" ry="3" style="stroke:#038048;stroke-width:1.0;"/><text fill="#000000" font-family="sans-serif" font-size="14" lengthAdjust="spacing" textLength="169" x="582" y="169.4795">CRTP iterator functions()</text><ellipse cx="573" cy="182.4297" fill="#84BE84" rx="3" ry="3" style="stroke:#038048;stroke-width:1.0;"/><text fill="#000000" font-family="sans-serif" font-size="14" lengthAdjust="spacing" textLength="54" x="582" y="185.7764">length()</text><ellipse cx="573" cy="198.7266" fill="#84BE84" rx="3" ry="3" style="stroke:#038048;stroke-width:1.0;"/><text fill="#000000" font-family="sans-serif" font-size="14" lengthAdjust="spacing" textLength="38" x="582" y="202.0732">size()</text><ellipse cx="573" cy="215.0234" fill="#84BE84" rx="3" ry="3" style="stroke:#038048;stroke-width:1.0;"/><text fill="#000000" font-family="sans-serif" font-size="14" lengthAdjust="spacing" textLength="84" x="582" y="218.3701">as_derived()</text><ellipse cx="573" cy="231.3203" fill="#84BE84" rx="3" ry="3" style="stroke:#038048;stroke-width:1.0;"/><text fill="#000000" font-family="sans-serif" font-size="14" lengthAdjust="spacing" textLength="46" x="582" y="234.667">apply()</text><ellipse cx="573" cy="247.6172" fill="#84BE84" rx="3" ry="3" style="stroke:#038048;stroke-width:1.0;"/><text fill="#000000" font-family="sans-serif" font-size="14" lengthAdjust="spacing" textLength="49" x="582" y="250.9639">query()</text><ellipse cx="573" cy="263.9141" fill="#84BE84" rx="3" ry="3" style="stroke:#038048;stroke-width:1.0;"/><text fill="#000000" font-family="sans-serif" font-size="14" lengthAdjust="spacing" textLength="39" x="582" y="267.2607">shift()</text><ellipse cx="573" cy="280.2109" fill="#84BE84" rx="3" ry="3" style="stroke:#038048;stroke-width:1.0;"/><text fill="#000000" font-family="sans-serif" font-size="14" lengthAdjust="spacing" textLength="47" x="582" y="283.5576">cshift()</text><ellipse cx="573" cy="296.5078" fill="#84BE84" rx="3" ry="3" style="stroke:#038048;stroke-width:1.0;"/><text fill="#000000" font-family="sans-serif" font-size="14" lengthAdjust="spacing" textLength="35" x="582" y="299.8545">min()</text><ellipse cx="573" cy="312.8047" fill="#84BE84" rx="3" ry="3" style="stroke:#038048;stroke-width:1.0;"/><text fill="#000000" font-family="sans-serif" font-size="14" lengthAdjust="spacing" textLength="38" x="582" y="316.1514">max()</text><ellipse cx="573" cy="329.1016" fill="#84BE84" rx="3" ry="3" style="stroke:#038048;stroke-width:1.0;"/><text fill="#000000" font-family="sans-serif" font-size="14" lengthAdjust="spacing" textLength="40" x="582" y="332.4482">sum()</text></g><!--class basic_vector--><g id="elem_basic_vector"><rect codeLine="33" fill="#F1F1F1" height="194.6719" id="basic_vector" rx="2.5" ry="2.5" style="stroke:#181818;stroke-width:0.5;" width="284" x="559" y="420.7469"/><ellipse cx="632.25" cy="436.7469" fill="#F1F1F1" rx="11" ry="11" style="stroke:#181818;stroke-width:1.0;"/><path d="M631.7344,437.3094 Q629.875,436.6063 629.2188,435.8406 Q628.5781,435.0594 628.5781,433.7469 Q628.5781,432.0594 629.6563,431.0906 Q630.7344,430.1219 632.6094,430.1219 Q633.4688,430.1219 634.3125,430.325 Q635.1719,430.5125 636.0156,430.9031 L636.0156,433.2938 Q635.2344,432.7313 634.4063,432.45 Q633.5938,432.1531 632.7969,432.1531 Q631.9219,432.1531 631.4375,432.5125 Q630.9688,432.8719 630.9688,433.5281 Q630.9688,434.0438 631.3125,434.3875 Q631.6563,434.7156 632.75,435.1219 L633.8125,435.5281 Q635.2969,436.075 636,436.9813 Q636.7188,437.8875 636.7188,439.2625 Q636.7188,441.1375 635.6094,442.0594 Q634.5,442.9813 632.25,442.9813 Q631.3281,442.9813 630.4063,442.7625 Q629.4844,442.5438 628.625,442.1219 L628.625,439.5906 Q629.5938,440.2781 630.5156,440.6219 Q631.4375,440.9656 632.3281,440.9656 Q633.2344,440.9656 633.7344,440.5594 Q634.2344,440.1375 634.2344,439.4031 Q634.2344,438.8406 633.8906,438.4344 Q633.5625,438.0125 632.9375,437.7625 L631.7344,437.3094 Z " fill="#000000"/><text fill="#000000" font-family="sans-serif" font-size="14" lengthAdjust="spacing" textLength="86" x="652.75" y="441.5936">basic_vector</text><rect fill="#FFFFFF" height="15.9688" style="stroke:#181818;stroke-width:1.0;stroke-dasharray:2.0,2.0;" width="41" x="805" y="417.7469"/><text fill="#000000" font-family="sans-serif" font-size="12" font-style="italic" lengthAdjust="spacing" textLength="39" x="806" y="429.8855">T, Size</text><line style="stroke:#181818;stroke-width:0.5;" x1="560" x2="842" y1="452.7469" y2="452.7469"/><ellipse cx="570" cy="466.3953" fill="none" rx="3" ry="3" style="stroke:#038048;stroke-width:1.0;"/><text fill="#000000" font-family="sans-serif" font-size="14" lengthAdjust="spacing" textLength="39" x="579" y="469.742">union</text><ellipse cx="570" cy="482.6922" fill="none" rx="3" ry="3" style="stroke:#038048;stroke-width:1.0;"/><text fill="#000000" font-family="sans-serif" font-size="14" lengthAdjust="spacing" text-decoration="underline" textLength="258" x="579" y="486.0389">offsets : std::array&lt;std::size_t, Size&gt;</text><line style="stroke:#181818;stroke-width:0.5;" x1="560" x2="842" y1="493.3406" y2="493.3406"/><ellipse cx="570" cy="506.9891" fill="#84BE84" rx="3" ry="3" style="stroke:#038048;stroke-width:1.0;"/><text fill="#000000" font-family="sans-serif" font-size="14" lengthAdjust="spacing" textLength="32" x="579" y="510.3357">set()</text><ellipse cx="570" cy="523.2859" fill="#84BE84" rx="3" ry="3" style="stroke:#038048;stroke-width:1.0;"/><text fill="#000000" font-family="sans-serif" font-size="14" lengthAdjust="spacing" textLength="79" x="579" y="526.6326">operator[]()</text><ellipse cx="570" cy="539.5828" fill="#84BE84" rx="3" ry="3" style="stroke:#038048;stroke-width:1.0;"/><text fill="#000000" font-family="sans-serif" font-size="14" lengthAdjust="spacing" textLength="81" x="579" y="542.9295">operator=()</text><ellipse cx="570" cy="555.8797" fill="#84BE84" rx="3" ry="3" style="stroke:#038048;stroke-width:1.0;"/><text fill="#000000" font-family="sans-serif" font-size="14" lengthAdjust="spacing" textLength="40" x="579" y="559.2264">data()</text><ellipse cx="570" cy="572.1766" fill="#84BE84" rx="3" ry="3" style="stroke:#038048;stroke-width:1.0;"/><text fill="#000000" font-family="sans-serif" font-size="14" lengthAdjust="spacing" textLength="80" x="579" y="575.5232">sequence()</text><ellipse cx="570" cy="588.4734" fill="#84BE84" rx="3" ry="3" style="stroke:#038048;stroke-width:1.0;"/><text fill="#000000" font-family="sans-serif" font-size="14" lengthAdjust="spacing" textLength="127" x="579" y="591.8201">iterator functions()</text><ellipse cx="570" cy="604.7703" fill="#84BE84" rx="3" ry="3" style="stroke:#038048;stroke-width:1.0;"/><text fill="#000000" font-family="sans-serif" font-size="14" lengthAdjust="spacing" textLength="46" x="579" y="608.117">swap()</text></g><!--class basic_vector::anonymous_union--><g id="elem_basic_vector::anonymous_union"><rect codeLine="45" fill="#F1F1F1" height="80.5938" id="basic_vector::anonymous_union" rx="2.5" ry="2.5" style="stroke:#181818;stroke-width:0.5;" width="255" x="239.5" y="747.7469"/><ellipse cx="254.5" cy="763.7469" fill="#E3664A" rx="11" ry="11" style="stroke:#181818;stroke-width:1.0;"/><path d="M256.5781,764.2156 Q256.5781,763.2781 256.1563,762.7469 Q255.7344,762.2156 254.9844,762.2156 Q254.25,762.2156 253.8281,762.7469 Q253.4219,763.2781 253.4219,764.2156 Q253.4219,765.1688 253.8281,765.7 Q254.25,766.2313 254.9844,766.2313 Q255.7344,766.2313 256.1563,765.7 Q256.5781,765.1688 256.5781,764.2156 Z M258.125,767.6219 L256.5,767.6219 L256.5,766.95 Q256.1719,767.3875 255.75,767.5906 Q255.3281,767.7938 254.7188,767.7938 Q253.3594,767.7938 252.5313,766.825 Q251.7031,765.8406 251.7031,764.2156 Q251.7031,762.6219 252.5313,761.6531 Q253.3594,760.6688 254.7188,760.6688 Q255.3125,760.6688 255.7656,760.8719 Q256.2188,761.075 256.5,761.4656 L256.5,761.1219 Q256.5,759.9969 255.875,759.3875 Q255.25,758.7625 254.1094,758.7625 Q252.3906,758.7625 251.2969,760.2938 Q250.2031,761.8094 250.2031,764.2469 Q250.2031,766.7938 251.4531,768.2938 Q252.7188,769.7938 254.8281,769.7938 Q255.4844,769.7938 256.1094,769.6063 Q256.7344,769.4188 257.3125,769.0281 L258.0781,770.4813 Q257.4063,770.9344 256.6094,771.1531 Q255.8125,771.3875 254.9063,771.3875 Q252,771.3875 250.2656,769.45 Q248.5469,767.5281 248.5469,764.2469 Q248.5469,761.0281 250.0938,759.1063 Q251.6563,757.1688 254.2188,757.1688 Q256.0156,757.1688 257.0625,758.2625 Q258.125,759.3563 258.125,761.2313 L258.125,767.6219 Z " fill="#000000"/><text fill="#000000" font-family="sans-serif" font-size="14" lengthAdjust="spacing" textLength="223" x="268.5" y="768.5936">basic_vector::anonymous_union</text><line style="stroke:#181818;stroke-width:0.5;" x1="240.5" x2="493.5" y1="779.7469" y2="779.7469"/><ellipse cx="250.5" cy="793.3953" fill="none" rx="3" ry="3" style="stroke:#038048;stroke-width:1.0;"/><text fill="#000000" font-family="sans-serif" font-size="14" lengthAdjust="spacing" textLength="34" x="259.5" y="796.742">base</text><ellipse cx="250.5" cy="809.6922" fill="none" rx="3" ry="3" style="stroke:#038048;stroke-width:1.0;"/><text fill="#000000" font-family="sans-serif" font-size="14" lengthAdjust="spacing" textLength="58" x="259.5" y="813.0389">swizzles</text><line style="stroke:#181818;stroke-width:0.5;" x1="240.5" x2="493.5" y1="820.3406" y2="820.3406"/></g><!--class storage_wrapper--><g id="elem_storage_wrapper"><rect codeLine="50" fill="#F1F1F1" height="227.2656" id="storage_wrapper" rx="2.5" ry="2.5" style="stroke:#181818;stroke-width:0.5;" width="284" x="219" y="912.6169"/><ellipse cx="277.25" cy="928.6169" fill="#F1F1F1" rx="11" ry="11" style="stroke:#181818;stroke-width:1.0;"/><path d="M276.7344,929.1794 Q274.875,928.4763 274.2188,927.7106 Q273.5781,926.9294 273.5781,925.6169 Q273.5781,923.9294 274.6563,922.9606 Q275.7344,921.9919 277.6094,921.9919 Q278.4688,921.9919 279.3125,922.195 Q280.1719,922.3825 281.0156,922.7731 L281.0156,925.1638 Q280.2344,924.6013 279.4063,924.32 Q278.5938,924.0231 277.7969,924.0231 Q276.9219,924.0231 276.4375,924.3825 Q275.9688,924.7419 275.9688,925.3981 Q275.9688,925.9138 276.3125,926.2575 Q276.6563,926.5856 277.75,926.9919 L278.8125,927.3981 Q280.2969,927.945 281,928.8513 Q281.7188,929.7575 281.7188,931.1325 Q281.7188,933.0075 280.6094,933.9294 Q279.5,934.8513 277.25,934.8513 Q276.3281,934.8513 275.4063,934.6325 Q274.4844,934.4138 273.625,933.9919 L273.625,931.4606 Q274.5938,932.1481 275.5156,932.4919 Q276.4375,932.8356 277.3281,932.8356 Q278.2344,932.8356 278.7344,932.4294 Q279.2344,932.0075 279.2344,931.2731 Q279.2344,930.7106 278.8906,930.3044 Q278.5625,929.8825 277.9375,929.6325 L276.7344,929.1794 Z " fill="#000000"/><text fill="#000000" font-family="sans-serif" font-size="14" lengthAdjust="spacing" textLength="116" x="297.75" y="933.4636">storage_wrapper</text><rect fill="#FFFFFF" height="15.9688" style="stroke:#181818;stroke-width:1.0;stroke-dasharray:2.0,2.0;" width="41" x="465" y="909.6169"/><text fill="#000000" font-family="sans-serif" font-size="12" font-style="italic" lengthAdjust="spacing" textLength="39" x="466" y="921.7555">T, Size</text><line style="stroke:#181818;stroke-width:0.5;" x1="220" x2="502" y1="944.6169" y2="944.6169"/><ellipse cx="230" cy="958.2653" fill="none" rx="3" ry="3" style="stroke:#038048;stroke-width:1.0;"/><text fill="#000000" font-family="sans-serif" font-size="14" lengthAdjust="spacing" textLength="184" x="239" y="961.612">store : std::array&lt;T, Size&gt;</text><ellipse cx="230" cy="974.5622" fill="none" rx="3" ry="3" style="stroke:#038048;stroke-width:1.0;"/><text fill="#000000" font-family="sans-serif" font-size="14" lengthAdjust="spacing" text-decoration="underline" textLength="258" x="239" y="977.9089">offsets : std::array&lt;std::size_t, Size&gt;</text><line style="stroke:#181818;stroke-width:0.5;" x1="220" x2="502" y1="985.2106" y2="985.2106"/><ellipse cx="230" cy="998.8591" fill="#84BE84" rx="3" ry="3" style="stroke:#038048;stroke-width:1.0;"/><text fill="#000000" font-family="sans-serif" font-size="14" lengthAdjust="spacing" textLength="32" x="239" y="1002.2057">set()</text><ellipse cx="230" cy="1015.1559" fill="#84BE84" rx="3" ry="3" style="stroke:#038048;stroke-width:1.0;"/><text fill="#000000" font-family="sans-serif" font-size="14" lengthAdjust="spacing" textLength="79" x="239" y="1018.5026">operator[]()</text><ellipse cx="230" cy="1031.4528" fill="#84BE84" rx="3" ry="3" style="stroke:#038048;stroke-width:1.0;"/><text fill="#000000" font-family="sans-serif" font-size="14" lengthAdjust="spacing" textLength="81" x="239" y="1034.7995">operator=()</text><ellipse cx="230" cy="1047.7497" fill="#84BE84" rx="3" ry="3" style="stroke:#038048;stroke-width:1.0;"/><text fill="#000000" font-family="sans-serif" font-size="14" lengthAdjust="spacing" textLength="40" x="239" y="1051.0964">data()</text><ellipse cx="230" cy="1064.0466" fill="#84BE84" rx="3" ry="3" style="stroke:#038048;stroke-width:1.0;"/><text fill="#000000" font-family="sans-serif" font-size="14" lengthAdjust="spacing" textLength="80" x="239" y="1067.3932">sequence()</text><ellipse cx="230" cy="1080.3434" fill="#84BE84" rx="3" ry="3" style="stroke:#038048;stroke-width:1.0;"/><text fill="#000000" font-family="sans-serif" font-size="14" lengthAdjust="spacing" textLength="127" x="239" y="1083.6901">iterator functions()</text><ellipse cx="230" cy="1096.6403" fill="#84BE84" rx="3" ry="3" style="stroke:#038048;stroke-width:1.0;"/><text fill="#000000" font-family="sans-serif" font-size="14" lengthAdjust="spacing" textLength="54" x="239" y="1099.987">length()</text><ellipse cx="230" cy="1112.9372" fill="#84BE84" rx="3" ry="3" style="stroke:#038048;stroke-width:1.0;"/><text fill="#000000" font-family="sans-serif" font-size="14" lengthAdjust="spacing" textLength="38" x="239" y="1116.2839">size()</text><ellipse cx="230" cy="1129.2341" fill="#84BE84" rx="3" ry="3" style="stroke:#038048;stroke-width:1.0;"/><text fill="#000000" font-family="sans-serif" font-size="14" lengthAdjust="spacing" textLength="46" x="239" y="1132.5807">swap()</text></g><!--class indexed_vector--><g id="elem_indexed_vector"><rect codeLine="64" fill="#F1F1F1" height="178.375" id="indexed_vector" rx="2.5" ry="2.5" style="stroke:#181818;stroke-width:0.5;" width="297" x="218.5" y="428.5569"/><ellipse cx="252.4" cy="444.5569" fill="#F1F1F1" rx="11" ry="11" style="stroke:#181818;stroke-width:1.0;"/><path d="M251.8844,445.1194 Q250.025,444.4163 249.3688,443.6506 Q248.7281,442.8694 248.7281,441.5569 Q248.7281,439.8694 249.8063,438.9006 Q250.8844,437.9319 252.7594,437.9319 Q253.6188,437.9319 254.4625,438.135 Q255.3219,438.3225 256.1656,438.7131 L256.1656,441.1038 Q255.3844,440.5413 254.5563,440.26 Q253.7438,439.9631 252.9469,439.9631 Q252.0719,439.9631 251.5875,440.3225 Q251.1188,440.6819 251.1188,441.3381 Q251.1188,441.8538 251.4625,442.1975 Q251.8063,442.5256 252.9,442.9319 L253.9625,443.3381 Q255.4469,443.885 256.15,444.7913 Q256.8688,445.6975 256.8688,447.0725 Q256.8688,448.9475 255.7594,449.8694 Q254.65,450.7913 252.4,450.7913 Q251.4781,450.7913 250.5563,450.5725 Q249.6344,450.3538 248.775,449.9319 L248.775,447.4006 Q249.7438,448.0881 250.6656,448.4319 Q251.5875,448.7756 252.4781,448.7756 Q253.3844,448.7756 253.8844,448.3694 Q254.3844,447.9475 254.3844,447.2131 Q254.3844,446.6506 254.0406,446.2444 Q253.7125,445.8225 253.0875,445.5725 L251.8844,445.1194 Z " fill="#000000"/><text fill="#000000" font-family="sans-serif" font-size="14" lengthAdjust="spacing" textLength="105" x="270.6" y="449.4036">indexed_vector</text><rect fill="#FFFFFF" height="15.9688" style="stroke:#181818;stroke-width:1.0;stroke-dasharray:2.0,2.0;" width="116" x="402.5" y="425.5569"/><text fill="#000000" font-family="sans-serif" font-size="12" font-style="italic" lengthAdjust="spacing" textLength="114" x="403.5" y="437.6955">T, Size, Count, ...Is</text><line style="stroke:#181818;stroke-width:0.5;" x1="219.5" x2="514.5" y1="460.5569" y2="460.5569"/><ellipse cx="229.5" cy="474.2053" fill="none" rx="3" ry="3" style="stroke:#038048;stroke-width:1.0;"/><text fill="#000000" font-family="sans-serif" font-size="14" lengthAdjust="spacing" textLength="182" x="238.5" y="477.552">base : std::array&lt;T, Size&gt;</text><ellipse cx="229.5" cy="490.5022" fill="none" rx="3" ry="3" style="stroke:#038048;stroke-width:1.0;"/><text fill="#000000" font-family="sans-serif" font-size="14" lengthAdjust="spacing" text-decoration="underline" textLength="271" x="238.5" y="493.8489">offsets : std::array&lt;std::size_t, Count&gt;</text><line style="stroke:#181818;stroke-width:0.5;" x1="219.5" x2="514.5" y1="501.1506" y2="501.1506"/><ellipse cx="229.5" cy="514.7991" fill="#84BE84" rx="3" ry="3" style="stroke:#038048;stroke-width:1.0;"/><text fill="#000000" font-family="sans-serif" font-size="14" lengthAdjust="spacing" textLength="32" x="238.5" y="518.1457">set()</text><ellipse cx="229.5" cy="531.0959" fill="#84BE84" rx="3" ry="3" style="stroke:#038048;stroke-width:1.0;"/><text fill="#000000" font-family="sans-serif" font-size="14" lengthAdjust="spacing" textLength="79" x="238.5" y="534.4426">operator[]()</text><ellipse cx="229.5" cy="547.3928" fill="#84BE84" rx="3" ry="3" style="stroke:#038048;stroke-width:1.0;"/><text fill="#000000" font-family="sans-serif" font-size="14" lengthAdjust="spacing" textLength="81" x="238.5" y="550.7395">operator=()</text><ellipse cx="229.5" cy="563.6897" fill="#84BE84" rx="3" ry="3" style="stroke:#038048;stroke-width:1.0;"/><text fill="#000000" font-family="sans-serif" font-size="14" lengthAdjust="spacing" textLength="40" x="238.5" y="567.0364">data()</text><ellipse cx="229.5" cy="579.9866" fill="#84BE84" rx="3" ry="3" style="stroke:#038048;stroke-width:1.0;"/><text fill="#000000" font-family="sans-serif" font-size="14" lengthAdjust="spacing" textLength="80" x="238.5" y="583.3332">sequence()</text><ellipse cx="229.5" cy="596.2834" fill="#84BE84" rx="3" ry="3" style="stroke:#038048;stroke-width:1.0;"/><text fill="#000000" font-family="sans-serif" font-size="14" lengthAdjust="spacing" textLength="127" x="238.5" y="599.6301">iterator functions()</text></g><!--class basic_matrix--><g id="elem_basic_matrix"><rect codeLine="75" fill="#F1F1F1" height="227.2656" id="basic_matrix" rx="2.5" ry="2.5" style="stroke:#181818;stroke-width:0.5;" width="390" x="546" y="912.7469"/><ellipse cx="652.25" cy="928.7469" fill="#F1F1F1" rx="11" ry="11" style="stroke:#181818;stroke-width:1.0;"/><path d="M651.7344,929.3094 Q649.875,928.6063 649.2188,927.8406 Q648.5781,927.0594 648.5781,925.7469 Q648.5781,924.0594 649.6563,923.0906 Q650.7344,922.1219 652.6094,922.1219 Q653.4688,922.1219 654.3125,922.325 Q655.1719,922.5125 656.0156,922.9031 L656.0156,925.2938 Q655.2344,924.7313 654.4063,924.45 Q653.5938,924.1531 652.7969,924.1531 Q651.9219,924.1531 651.4375,924.5125 Q650.9688,924.8719 650.9688,925.5281 Q650.9688,926.0438 651.3125,926.3875 Q651.6563,926.7156 652.75,927.1219 L653.8125,927.5281 Q655.2969,928.075 656,928.9813 Q656.7188,929.8875 656.7188,931.2625 Q656.7188,933.1375 655.6094,934.0594 Q654.5,934.9813 652.25,934.9813 Q651.3281,934.9813 650.4063,934.7625 Q649.4844,934.5438 648.625,934.1219 L648.625,931.5906 Q649.5938,932.2781 650.5156,932.6219 Q651.4375,932.9656 652.3281,932.9656 Q653.2344,932.9656 653.7344,932.5594 Q654.2344,932.1375 654.2344,931.4031 Q654.2344,930.8406 653.8906,930.4344 Q653.5625,930.0125 652.9375,929.7625 L651.7344,929.3094 Z " fill="#000000"/><text fill="#000000" font-family="sans-serif" font-size="14" lengthAdjust="spacing" textLength="84" x="672.75" y="933.5936">basic_matrix</text><rect fill="#FFFFFF" height="15.9688" style="stroke:#181818;stroke-width:1.0;stroke-dasharray:2.0,2.0;" width="83" x="856" y="909.7469"/><text fill="#000000" font-family="sans-serif" font-size="12" font-style="italic" lengthAdjust="spacing" textLength="81" x="857" y="921.8855">T, Cols, Rows</text><line style="stroke:#181818;stroke-width:0.5;" x1="547" x2="935" y1="944.7469" y2="944.7469"/><ellipse cx="557" cy="958.3953" fill="none" rx="3" ry="3" style="stroke:#038048;stroke-width:1.0;"/><text fill="#000000" font-family="sans-serif" font-size="14" lengthAdjust="spacing" textLength="364" x="566" y="961.742">columns : std::array&lt;basic_vector&lt;T, Rows&gt;, Cols&gt;</text><line style="stroke:#181818;stroke-width:0.5;" x1="547" x2="935" y1="969.0438" y2="969.0438"/><ellipse cx="557" cy="982.6922" fill="#84BE84" rx="3" ry="3" style="stroke:#038048;stroke-width:1.0;"/><text fill="#000000" font-family="sans-serif" font-size="14" lengthAdjust="spacing" textLength="35" x="566" y="986.0389">row()</text><ellipse cx="557" cy="998.9891" fill="#84BE84" rx="3" ry="3" style="stroke:#038048;stroke-width:1.0;"/><text fill="#000000" font-family="sans-serif" font-size="14" lengthAdjust="spacing" textLength="79" x="566" y="1002.3357">operator[]()</text><ellipse cx="557" cy="1015.2859" fill="#84BE84" rx="3" ry="3" style="stroke:#038048;stroke-width:1.0;"/><text fill="#000000" font-family="sans-serif" font-size="14" lengthAdjust="spacing" textLength="81" x="566" y="1018.6326">operator=()</text><ellipse cx="557" cy="1031.5828" fill="#84BE84" rx="3" ry="3" style="stroke:#038048;stroke-width:1.0;"/><text fill="#000000" font-family="sans-serif" font-size="14" lengthAdjust="spacing" textLength="40" x="566" y="1034.9295">data()</text><ellipse cx="557" cy="1047.8797" fill="#84BE84" rx="3" ry="3" style="stroke:#038048;stroke-width:1.0;"/><text fill="#000000" font-family="sans-serif" font-size="14" lengthAdjust="spacing" textLength="127" x="566" y="1051.2264">iterator functions()</text><ellipse cx="557" cy="1064.1766" fill="#84BE84" rx="3" ry="3" style="stroke:#038048;stroke-width:1.0;"/><text fill="#000000" font-family="sans-serif" font-size="14" lengthAdjust="spacing" textLength="54" x="566" y="1067.5232">length()</text><ellipse cx="557" cy="1080.4734" fill="#84BE84" rx="3" ry="3" style="stroke:#038048;stroke-width:1.0;"/><text fill="#000000" font-family="sans-serif" font-size="14" lengthAdjust="spacing" textLength="112" x="566" y="1083.8201">column_length()</text><ellipse cx="557" cy="1096.7703" fill="#84BE84" rx="3" ry="3" style="stroke:#038048;stroke-width:1.0;"/><text fill="#000000" font-family="sans-serif" font-size="14" lengthAdjust="spacing" textLength="38" x="566" y="1100.117">size()</text><ellipse cx="557" cy="1113.0672" fill="#84BE84" rx="3" ry="3" style="stroke:#038048;stroke-width:1.0;"/><text fill="#000000" font-family="sans-serif" font-size="14" lengthAdjust="spacing" textLength="96" x="566" y="1116.4139">column_size()</text><ellipse cx="557" cy="1129.3641" fill="#84BE84" rx="3" ry="3" style="stroke:#038048;stroke-width:1.0;"/><text fill="#000000" font-family="sans-serif" font-size="14" lengthAdjust="spacing" textLength="46" x="566" y="1132.7107">swap()</text></g><!--reverse link vector_base to basic_vector--><g id="link_vector_base_basic_vector"><path codeLine="89" d="M710.7072,358.1568 C710.7572,373.8868 710.52,371.6469 710,386.7469 C709.66,396.5869 709.18,406.8269 708.61,417.0669 " fill="none" id="vector_base-backto-basic_vector" style="stroke:#181818;stroke-width:1.0;"/><polygon fill="none" points="710.65,340.1569,704.7072,358.1759,716.7072,358.1377,710.65,340.1569" style="stroke:#181818;stroke-width:1.0;"/><text fill="#000000" font-family="sans-serif" font-size="13" lengthAdjust="spacing" textLength="83" x="711" y="382.8138">CRTP inherits</text></g><!--reverse link vector_base to indexed_vector--><g id="link_vector_base_indexed_vector"><path codeLine="90" d="M547.3148,297.0993 C513.6648,322.0193 493.73,339.7569 465,369.7469 C448.24,387.2469 432.48,407.9369 418.72,428.1969 " fill="none" id="vector_base-backto-indexed_vector" style="stroke:#181818;stroke-width:1.0;"/><polygon fill="none" points="561.78,286.3869,543.7439,292.2776,550.8856,301.9211,561.78,286.3869" style="stroke:#181818;stroke-width:1.0;"/><text fill="#000000" font-family="sans-serif" font-size="13" lengthAdjust="spacing" textLength="83" x="466" y="382.8138">CRTP inherits</text></g><!--reverse link CRTP duck type to basic_vector--><g id="link_CRTP duck type_basic_vector"><path codeLine="91" d="M450.7893,270.71 C487.5293,303.39 518.95,332.1169 558,369.7469 C573.64,384.8169 589.94,401.0569 605.71,417.0369 " fill="none" id="CRTP duck type-backto-basic_vector" style="stroke:#181818;stroke-width:1.0;stroke-dasharray:7.0,7.0;"/><polygon fill="none" points="437.34,258.7469,446.8016,275.1931,454.777,266.2269,437.34,258.7469" style="stroke:#181818;stroke-width:1.0;"/><text fill="#000000" font-family="sans-serif" font-size="13" lengthAdjust="spacing" textLength="110" x="574" y="382.8138">duck implements</text></g><!--reverse link CRTP duck type to indexed_vector--><g id="link_CRTP duck type_indexed_vector"><path codeLine="92" d="M328.1005,275.5382 C314.4105,312.7182 309,343.6769 317,386.7469 C319.54,400.4169 323.46,414.5069 328.01,428.1369 " fill="none" id="CRTP duck type-backto-indexed_vector" style="stroke:#181818;stroke-width:1.0;stroke-dasharray:7.0,7.0;"/><polygon fill="none" points="334.32,258.6469,322.47,273.465,333.7309,277.6114,334.32,258.6469" style="stroke:#181818;stroke-width:1.0;"/><text fill="#000000" font-family="sans-serif" font-size="13" lengthAdjust="spacing" textLength="110" x="318" y="382.8138">duck implements</text></g><!--reverse link basic_vector::anonymous_union to storage_wrapper--><g id="link_basic_vector::anonymous_union_storage_wrapper"><path codeLine="93" d="M226.5,791.7469 C166.64,791.7469 211.89,852.6569 258.74,912.2569 " fill="none" id="basic_vector::anonymous_union-backto-storage_wrapper" style="stroke:#181818;stroke-width:1.0;"/><polygon fill="#181818" points="238.5,791.7469,232.5,787.7469,226.5,791.7469,232.5,795.7469,238.5,791.7469" style="stroke:#181818;stroke-width:1.0;"/><text fill="#000000" font-family="sans-serif" font-size="13" lengthAdjust="spacing" textLength="31" x="232" y="874.8138">base</text><text fill="#000000" font-family="sans-serif" font-size="13" lengthAdjust="spacing" textLength="8" x="223.668" y="788.6214">1</text><text fill="#000000" font-family="sans-serif" font-size="13" lengthAdjust="spacing" textLength="8" x="243.9327" y="901.5449">1</text></g><!--reverse link basic_vector::anonymous_union to indexed_vector--><g id="link_basic_vector::anonymous_union_indexed_vector"><path codeLine="94" d="M507.5,807.7469 C535.95,807.7469 512.37,765.8769 494.5,743.7469 C457.38,697.7869 401.76,759.9969 365,713.7469 C341.62,684.3269 338.89,643.7569 343.3,607.2469 " fill="none" id="basic_vector::anonymous_union-backto-indexed_vector" style="stroke:#181818;stroke-width:1.0;"/><polygon fill="#181818" points="495.5,807.7469,501.5,811.7469,507.5,807.7469,501.5,803.7469,495.5,807.7469" style="stroke:#181818;stroke-width:1.0;"/><text fill="#000000" font-family="sans-serif" font-size="13" lengthAdjust="spacing" textLength="51" x="366" y="685.8138">swizzles</text><text fill="#000000" font-family="sans-serif" font-size="13" lengthAdjust="spacing" textLength="8" x="502.332" y="805.4464">1</text><text fill="#000000" font-family="sans-serif" font-size="13" lengthAdjust="spacing" textLength="36" x="303.977" y="627.0489">many</text></g><!--reverse link basic_vector to basic_vector::anonymous_union--><g id="link_basic_vector_basic_vector::anonymous_union"><path codeLine="95" d="M546,464.7469 C511.33,464.7469 554.68,591.6969 533,618.7469 C510.55,646.7569 484.93,624.9969 458,648.7469 C433.23,670.5869 439.98,686.0469 422,713.7469 C415.52,723.7269 408.12,734.1269 400.89,743.8469 " fill="none" id="basic_vector-backto-basic_vector::anonymous_union" style="stroke:#181818;stroke-width:1.0;"/><polygon fill="#181818" points="558,464.7469,552,460.7469,546,464.7469,552,468.7469,558,464.7469" style="stroke:#181818;stroke-width:1.0;"/><path d="M463,653.7469 L463,708.7469 L709,708.7469 L709,663.7469 L699,653.7469 L463,653.7469 " fill="#FEFFDD" style="stroke:#181818;stroke-width:0.5;"/><path d="M699,653.7469 L699,663.7469 L709,663.7469 L699,653.7469 " fill="#FEFFDD" style="stroke:#181818;stroke-width:0.5;"/><text fill="#000000" font-family="sans-serif" font-size="13" lengthAdjust="spacing" textLength="206" x="469" y="670.8138">Nested anonymous union where</text><text fill="#000000" font-family="sans-serif" font-size="13" lengthAdjust="spacing" textLength="225" x="469" y="685.9466">all members have a common initial</text><text fill="#000000" font-family="sans-serif" font-size="13" lengthAdjust="spacing" textLength="164" x="469" y="701.0794">sequence with each other</text><text fill="#000000" font-family="sans-serif" font-size="13" lengthAdjust="spacing" textLength="8" x="542.8797" y="458.8702">1</text><text fill="#000000" font-family="sans-serif" font-size="13" lengthAdjust="spacing" textLength="8" x="395.3653" y="736.6381">1</text></g><!--reverse link CRTP duck type to vector_base--><g id="link_CRTP duck type_vector_base"><path codeLine="101" d="M446.95,193.5169 C482.61,193.5169 520.16,193.5169 561.54,193.5169 " fill="none" id="CRTP duck type-backto-vector_base" style="stroke:#181818;stroke-width:1.0;stroke-dasharray:7.0,7.0;"/><polygon fill="#181818" points="440.95,193.5169,449.95,197.5169,445.95,193.5169,449.95,189.5169,440.95,193.5169" style="stroke:#181818;stroke-width:1.0;"/><text fill="#000000" font-family="sans-serif" font-size="13" lengthAdjust="spacing" textLength="85" x="458.75" y="186.5838">Derived CRTP</text></g><!--reverse link basic_matrix to basic_vector--><g id="link_basic_matrix_basic_vector"><path codeLine="102" d="M533,956.7469 C511.66,956.7469 538.25,928.6269 546,908.7469 C587.99,801.0769 677.14,821.8469 718,713.7469 C729.26,683.9469 730,649.8169 726.41,618.5369 " fill="none" id="basic_matrix-backto-basic_vector" style="stroke:#181818;stroke-width:1.0;"/><polygon fill="#181818" points="545,956.7469,539,952.7469,533,956.7469,539,960.7469,545,956.7469" style="stroke:#181818;stroke-width:1.0;"/><text fill="#000000" font-family="sans-serif" font-size="13" lengthAdjust="spacing" textLength="54" x="703" y="792.3138">columns</text><text fill="#000000" font-family="sans-serif" font-size="13" lengthAdjust="spacing" textLength="8" x="529.8125" y="951.0442">1</text><text fill="#000000" font-family="sans-serif" font-size="13" lengthAdjust="spacing" textLength="27" x="699.9497" y="635.4984">Cols</text></g><!--link indexed_vector to basic_vector--><!--link storage_wrapper to basic_matrix--><!--SRC=[pLR9Rjim43rBNp7mfKji0RqAJYx9fPUYI0Fq4AG6BOqi8XIfabGS9ys_TqY9jXQxAOeMwCbSPfxUl5deD-QUIz3AO1nPRWN2DGfckPAcvBM11LmAPWnSSRRHh8eZ9gMotW1cbzStdo5lidkmknfdSVGSHz4PFBEriPfbzWKCshVlneUgHisiqhTtqxkSMJOzDVYzGPdXz8RR5WkAHcQUjhDvYIDYYI2miA2A8qoZIqLujMsO02u9f60Ppe6yG2ETfTwa4Jci4IgMexDIm20xEuEizOqZbBbp8Uq28tZ0ZEYirimWBBzgRjbQ4F3D70XEsZbSeUOFc5y4jJorWqv-Er6evN_GfdCQgEBFZkj1jmBbnfRTnl2duCNCAcyPXOEw5hjkJVWwhAaUYa0owsygBiEAFGRZfkhoGB8q90lfmRDLAywInFX23FOID9A8jfarhhOogf6Y84qCf61idgPCQxPR-gNZlh9x1FUnlNWJtSB1URVlIJXIxwHmPilgBfPUxVVZ8NfIoLsb6hFgGcdZSaNGOV2d9u6chuWXJxR1rLQJuZWLnTtZCFwRVjJ_eLIdQgmdOHSybpa-OZugY7sF94doqLpqPVmxGdZuVwx4kEehPZL_NFeH8CmShjNs45ocH5F94UbnjtYFrhrbhzNs3zZ_Nk9QHgjJoUokZwTtCFr-B1R3Fkb6b2nfu5Xpn7fO5Z1n6Czn-9OaWq-GYx_bLIsmGddIQVAbYTilEpnDFUdPXncy9zxkTzJF1Dcs_oiuOJGSi2ecTxCfmSCC6I9wd06JLsQJVnartvJqD4eGNDx74S0dD1Pps5ktGncs93swUoO4L5YjKHiesGEwfr1L5PbmoIrdmXc5ze0jjoKWoqfGbX3wB-Ka7Sjay6YcuONqoG_HjZsKfg5Tzl6wdfYDQw2p6ae5YzkIvpdAE_UtO5nihcU72Ko2kTSg6JJpJm00]--></g></svg>