<svg xmlns="http://www.w3.org/2000/svg" xmlns:xlink="http://www.w3.org/1999/xlink" contentStyleType="text/css" height="1234px" preserveAspectRatio="none" style="width:2267px;height:1234px;background:#FFFFFF;" version="1.1" viewBox="0 0 2267 1234" width="2267px" zoomAndPan="magnify"><defs/><g><text fill="#000000" font-family="sans-serif" font-size="14" font-weight="bold" lengthAdjust="spacing" textLength="208" x="1022.56" y="24.5332">Relationships - Class Diagram</text><!--class CRTP duck type--><g id="elem_CRTP duck type"><rect codeLine="3" fill="#F1F1F1" height="136.0469" id="CRTP duck type" rx="2.5" ry="2.5" style="stroke:#181818;stroke-width:0.5;" width="135" x="964.12" y="136.6094"/><ellipse cx="979.12" cy="152.6094" fill="#E3664A" rx="11" ry="11" style="stroke:#181818;stroke-width:1.0;"/><path d="M981.4638,150.1875 L981.4638,149.6719 Q981.4638,148.8438 980.9794,148.3438 Q980.5106,147.8438 979.7606,147.8438 Q979.1669,147.8438 978.6356,148.25 Q978.1044,148.6406 977.8388,149.2656 Q977.37,150.3594 977.37,151.4688 L977.37,153.9844 Q977.37,155.9063 978.2294,157.0313 Q978.7919,157.7813 979.8075,157.7813 Q980.3544,157.7813 980.7919,157.6406 Q981.245,157.5 981.495,157.25 Q981.745,157 981.9638,157 Q982.2294,157 982.4169,157.1875 Q982.6044,157.375 982.6044,157.6406 Q982.6044,158.0625 982.0263,158.4531 Q981.1981,159.0156 979.7606,159.0156 Q978.6669,159.0156 977.9481,158.5156 Q977.0263,157.875 976.5731,156.6094 Q976.12,155.3438 976.12,154.1094 L976.12,151.375 Q976.12,149.3906 977.1044,148 Q978.0888,146.5938 979.7294,146.5938 Q980.4794,146.5938 981.12,146.9063 Q981.7763,147.2031 982.245,147.9688 Q982.7138,148.7344 982.7138,149.6719 L982.7138,154.2031 Q983.0731,154.375 983.0731,154.7656 Q983.0731,155.0469 982.87,155.2344 Q982.6825,155.4063 982.2138,155.4063 L981.4638,155.4063 L981.4638,155.3594 Q981.0731,155.4219 980.8856,155.4219 Q979.8856,155.4219 979.1356,154.6875 Q978.4013,153.9375 978.4013,152.9375 Q978.4013,151.875 979.2138,151.0781 Q980.0419,150.2813 981.4638,150.1875 Z M981.4638,151.4688 Q980.5731,151.5625 980.1044,151.9844 Q979.6513,152.4063 979.6513,152.9531 Q979.6513,153.4375 980.0263,153.7813 Q980.4169,154.125 981.0575,154.125 Q981.1825,154.125 981.4638,154.1094 L981.4638,151.4688 Z " fill="#000000"/><text fill="#000000" font-family="sans-serif" font-size="14" lengthAdjust="spacing" textLength="103" x="993.12" y="158.3379">CRTP duck type</text><line style="stroke:#181818;stroke-width:0.5;" x1="965.12" x2="1098.12" y1="168.6094" y2="168.6094"/><line style="stroke:#181818;stroke-width:0.5;" x1="965.12" x2="1098.12" y1="176.6094" y2="176.6094"/><ellipse cx="975.12" cy="190.9141" fill="#84BE84" rx="3" ry="3" style="stroke:#038048;stroke-width:1.0;"/><text fill="#000000" font-family="sans-serif" font-size="14" font-style="italic" lengthAdjust="spacing" textLength="29" x="984.12" y="195.1426">set()</text><ellipse cx="975.12" cy="208.5234" fill="#84BE84" rx="3" ry="3" style="stroke:#038048;stroke-width:1.0;"/><text fill="#000000" font-family="sans-serif" font-size="14" font-style="italic" lengthAdjust="spacing" textLength="72" x="984.12" y="212.752">operator[]()</text><ellipse cx="975.12" cy="226.1328" fill="#84BE84" rx="3" ry="3" style="stroke:#038048;stroke-width:1.0;"/><text fill="#000000" font-family="sans-serif" font-size="14" font-style="italic" lengthAdjust="spacing" textLength="38" x="984.12" y="230.3613">data()</text><ellipse cx="975.12" cy="243.7422" fill="#84BE84" rx="3" ry="3" style="stroke:#038048;stroke-width:1.0;"/><text fill="#000000" font-family="sans-serif" font-size="14" font-style="italic" lengthAdjust="spacing" textLength="72" x="984.12" y="247.9707">sequence()</text><ellipse cx="975.12" cy="261.3516" fill="#84BE84" rx="3" ry="3" style="stroke:#038048;stroke-width:1.0;"/><text fill="#000000" font-family="sans-serif" font-size="14" font-style="italic" lengthAdjust="spacing" textLength="103" x="984.12" y="265.5801">iterator access()</text></g><g id="elem_GMN3"><path d="M708.12,183.1094 L708.12,225.8125 A0,0 0 0 0 708.12,225.8125 L929.12,225.8125 A0,0 0 0 0 929.12,225.8125 L929.12,208.6094 L964.06,204.6094 L929.12,200.6094 L929.12,193.1094 L919.12,183.1094 L708.12,183.1094 A0,0 0 0 0 708.12,183.1094 " fill="#FEFFDD" style="stroke:#181818;stroke-width:0.5;"/><path d="M919.12,183.1094 L919.12,193.1094 L929.12,193.1094 L919.12,183.1094 " fill="#FEFFDD" style="stroke:#181818;stroke-width:0.5;"/><text fill="#000000" font-family="sans-serif" font-size="13" lengthAdjust="spacing" textLength="177" x="714.12" y="201.6045">Conceptual interface, not real :</text><text fill="#000000" font-family="sans-serif" font-size="13" lengthAdjust="spacing" textLength="200" x="714.12" y="217.9561">Could be made into a c++ concept</text></g><!--class vector_base--><g id="elem_vector_base"><rect codeLine="15" fill="#F1F1F1" height="312.1406" id="vector_base" rx="2.5" ry="2.5" style="stroke:#181818;stroke-width:0.5;" width="260" x="1215.62" y="48.6094"/><ellipse cx="1230.62" cy="64.6094" fill="#A9DCDF" rx="11" ry="11" style="stroke:#181818;stroke-width:1.0;"/><path d="M1232.8075,66.375 L1228.6669,66.375 L1228.245,67.4063 L1228.6669,67.4063 Q1229.2763,67.4063 1229.5419,67.6406 Q1229.8075,67.875 1229.8075,68.2656 Q1229.8075,68.6406 1229.5419,68.875 Q1229.2763,69.1094 1228.6669,69.1094 L1226.37,69.1094 Q1225.7606,69.1094 1225.5106,68.875 Q1225.245,68.6406 1225.245,68.25 Q1225.245,67.875 1225.5263,67.6406 Q1225.7919,67.3906 1226.4169,67.4063 L1229.0888,60.75 L1227.9794,60.75 Q1227.37,60.75 1227.1044,60.5156 Q1226.8388,60.2813 1226.8388,59.8906 Q1226.8388,59.5156 1227.1044,59.2813 Q1227.37,59.0469 1227.9794,59.0469 L1231.6513,59.0469 L1235.0419,67.4063 Q1235.6356,67.4063 1235.8231,67.5469 Q1236.2138,67.8125 1236.2138,68.2656 Q1236.2138,68.6406 1235.9481,68.875 Q1235.6981,69.1094 1235.0888,69.1094 L1232.7919,69.1094 Q1232.1825,69.1094 1231.9169,68.875 Q1231.6513,68.6406 1231.6513,68.25 Q1231.6513,67.875 1231.9169,67.6406 Q1232.1825,67.4063 1232.7919,67.4063 L1233.2138,67.4063 L1232.8075,66.375 Z M1232.0888,64.6719 L1230.7294,61.2969 L1229.3544,64.6719 L1232.0888,64.6719 Z " fill="#000000"/><text fill="#000000" font-family="sans-serif" font-size="14" font-style="italic" lengthAdjust="spacing" textLength="77" x="1244.62" y="70.3379">vector_base</text><rect fill="#FFFFFF" height="17.0938" style="stroke:#181818;stroke-width:1.0;stroke-dasharray:2.0,2.0;" width="149" x="1329.62" y="45.6094"/><text fill="#000000" font-family="sans-serif" font-size="12" font-style="italic" lengthAdjust="spacing" textLength="147" x="1330.62" y="59.0664">Writable, T, Count, Derived</text><line style="stroke:#181818;stroke-width:0.5;" x1="1216.62" x2="1474.62" y1="80.6094" y2="80.6094"/><line style="stroke:#181818;stroke-width:0.5;" x1="1216.62" x2="1474.62" y1="88.6094" y2="88.6094"/><ellipse cx="1226.62" cy="102.9141" fill="#84BE84" rx="3" ry="3" style="stroke:#038048;stroke-width:1.0;"/><text fill="#000000" font-family="sans-serif" font-size="14" lengthAdjust="spacing" textLength="71" x="1235.62" y="107.1426">CRTP set()</text><ellipse cx="1226.62" cy="120.5234" fill="#84BE84" rx="3" ry="3" style="stroke:#038048;stroke-width:1.0;"/><text fill="#000000" font-family="sans-serif" font-size="14" lengthAdjust="spacing" textLength="114" x="1235.62" y="124.752">CRTP operator[]()</text><ellipse cx="1226.62" cy="138.1328" fill="#84BE84" rx="3" ry="3" style="stroke:#038048;stroke-width:1.0;"/><text fill="#000000" font-family="sans-serif" font-size="14" lengthAdjust="spacing" textLength="80" x="1235.62" y="142.3613">CRTP data()</text><ellipse cx="1226.62" cy="155.7422" fill="#84BE84" rx="3" ry="3" style="stroke:#038048;stroke-width:1.0;"/><text fill="#000000" font-family="sans-serif" font-size="14" lengthAdjust="spacing" textLength="114" x="1235.62" y="159.9707">CRTP sequence()</text><ellipse cx="1226.62" cy="173.3516" fill="#84BE84" rx="3" ry="3" style="stroke:#038048;stroke-width:1.0;"/><text fill="#000000" font-family="sans-serif" font-size="14" lengthAdjust="spacing" textLength="145" x="1235.62" y="177.5801">CRTP iterator access()</text><ellipse cx="1226.62" cy="190.9609" fill="#84BE84" rx="3" ry="3" style="stroke:#038048;stroke-width:1.0;"/><text fill="#000000" font-family="sans-serif" font-size="14" lengthAdjust="spacing" textLength="49" x="1235.62" y="195.1895">length()</text><ellipse cx="1226.62" cy="208.5703" fill="#84BE84" rx="3" ry="3" style="stroke:#038048;stroke-width:1.0;"/><text fill="#000000" font-family="sans-serif" font-size="14" lengthAdjust="spacing" textLength="34" x="1235.62" y="212.7988">size()</text><ellipse cx="1226.62" cy="226.1797" fill="#84BE84" rx="3" ry="3" style="stroke:#038048;stroke-width:1.0;"/><text fill="#000000" font-family="sans-serif" font-size="14" lengthAdjust="spacing" textLength="80" x="1235.62" y="230.4082">as_derived()</text><ellipse cx="1226.62" cy="243.7891" fill="#84BE84" rx="3" ry="3" style="stroke:#038048;stroke-width:1.0;"/><text fill="#000000" font-family="sans-serif" font-size="14" lengthAdjust="spacing" textLength="44" x="1235.62" y="248.0176">apply()</text><ellipse cx="1226.62" cy="261.3984" fill="#84BE84" rx="3" ry="3" style="stroke:#038048;stroke-width:1.0;"/><text fill="#000000" font-family="sans-serif" font-size="14" lengthAdjust="spacing" textLength="46" x="1235.62" y="265.627">query()</text><ellipse cx="1226.62" cy="279.0078" fill="#84BE84" rx="3" ry="3" style="stroke:#038048;stroke-width:1.0;"/><text fill="#000000" font-family="sans-serif" font-size="14" lengthAdjust="spacing" textLength="36" x="1235.62" y="283.2363">shift()</text><ellipse cx="1226.62" cy="296.6172" fill="#84BE84" rx="3" ry="3" style="stroke:#038048;stroke-width:1.0;"/><text fill="#000000" font-family="sans-serif" font-size="14" lengthAdjust="spacing" textLength="43" x="1235.62" y="300.8457">cshift()</text><ellipse cx="1226.62" cy="314.2266" fill="#84BE84" rx="3" ry="3" style="stroke:#038048;stroke-width:1.0;"/><text fill="#000000" font-family="sans-serif" font-size="14" lengthAdjust="spacing" textLength="32" x="1235.62" y="318.4551">min()</text><ellipse cx="1226.62" cy="331.8359" fill="#84BE84" rx="3" ry="3" style="stroke:#038048;stroke-width:1.0;"/><text fill="#000000" font-family="sans-serif" font-size="14" lengthAdjust="spacing" textLength="35" x="1235.62" y="336.0645">max()</text><ellipse cx="1226.62" cy="349.4453" fill="#84BE84" rx="3" ry="3" style="stroke:#038048;stroke-width:1.0;"/><text fill="#000000" font-family="sans-serif" font-size="14" lengthAdjust="spacing" textLength="36" x="1235.62" y="353.6738">sum()</text></g><!--class indexed_vector_const_iterator--><g id="elem_indexed_vector_const_iterator"><rect codeLine="33" fill="#F1F1F1" height="100.8281" id="indexed_vector_const_iterator" rx="2.5" ry="2.5" style="stroke:#181818;stroke-width:0.5;" width="393" x="1267.12" y="513.1094"/><ellipse cx="1288.42" cy="529.1094" fill="#F1F1F1" rx="11" ry="11" style="stroke:#181818;stroke-width:1.0;"/><path d="M1286.5294,533.6719 Q1286.3106,533.9375 1286.17,534.0156 Q1286.0294,534.0938 1285.8419,534.0938 Q1285.4513,534.0938 1285.2013,533.8281 Q1284.9669,533.5625 1284.9669,532.9688 L1284.9669,531.8125 Q1284.9669,531.2031 1285.2013,530.9531 Q1285.4513,530.6875 1285.8419,530.6875 Q1286.1388,530.6875 1286.3419,530.8438 Q1286.545,531 1286.6544,531.375 Q1286.7638,531.7344 1286.8731,531.875 Q1287.1231,532.125 1287.7325,532.3906 Q1288.3419,532.6563 1289.0763,532.6563 Q1290.2169,532.6563 1290.9356,532.125 Q1291.4044,531.7969 1291.4044,531.3281 Q1291.4044,531.0156 1291.1856,530.7344 Q1290.9669,530.4531 1290.4513,530.2813 Q1290.1231,530.1563 1288.9669,529.9375 Q1287.5763,529.6719 1286.8575,529.3125 Q1286.1388,528.9531 1285.7169,528.2969 Q1285.3106,527.625 1285.3106,526.8438 Q1285.3106,525.625 1286.3263,524.7188 Q1287.3575,523.7969 1288.9981,523.7969 Q1289.6544,523.7969 1290.2013,523.9375 Q1290.7638,524.0781 1291.2325,524.375 Q1291.5606,524.0625 1291.8888,524.0625 Q1292.2638,524.0625 1292.4981,524.3281 Q1292.7325,524.5781 1292.7325,525.1875 L1292.7325,526.4688 Q1292.7325,527.0781 1292.4981,527.3438 Q1292.2638,527.5938 1291.8888,527.5938 Q1291.5763,527.5938 1291.3419,527.4063 Q1291.1544,527.2656 1291.0606,526.8438 Q1290.9825,526.4219 1290.8419,526.2344 Q1290.5919,525.9219 1290.1075,525.7188 Q1289.6388,525.5 1288.9981,525.5 Q1288.0763,525.5 1287.545,525.9219 Q1287.0138,526.3438 1287.0138,526.8125 Q1287.0138,527.125 1287.2325,527.4219 Q1287.4513,527.7188 1287.8731,527.8906 Q1288.1544,528 1289.4513,528.2656 Q1290.7638,528.5156 1291.4669,528.8281 Q1292.17,529.125 1292.6388,529.7813 Q1293.1075,530.4375 1293.1075,531.3438 Q1293.1075,532.6094 1292.2169,533.3594 Q1291.0294,534.3594 1289.2013,534.3594 Q1288.4981,534.3594 1287.8263,534.1875 Q1287.17,534.0156 1286.5294,533.6719 Z " fill="#000000"/><text fill="#000000" font-family="sans-serif" font-size="14" lengthAdjust="spacing" textLength="191" x="1303.82" y="534.8379">indexed_vector_const_iterator</text><rect fill="#FFFFFF" height="17.0938" style="stroke:#181818;stroke-width:1.0;stroke-dasharray:2.0,2.0;" width="154" x="1509.12" y="510.1094"/><text fill="#000000" font-family="sans-serif" font-size="12" font-style="italic" lengthAdjust="spacing" textLength="152" x="1510.12" y="523.5664">Mutable, T, Size, Count, ...Is</text><line style="stroke:#181818;stroke-width:0.5;" x1="1268.12" x2="1659.12" y1="545.1094" y2="545.1094"/><ellipse cx="1278.12" cy="559.4141" fill="none" rx="3" ry="3" style="stroke:#038048;stroke-width:1.0;"/><text fill="#000000" font-family="sans-serif" font-size="14" lengthAdjust="spacing" textLength="367" x="1287.12" y="563.6426">mapper_ptr : const indexed_vector&lt;T, Size, Count, Is ...&gt; *</text><ellipse cx="1278.12" cy="577.0234" fill="none" rx="3" ry="3" style="stroke:#038048;stroke-width:1.0;"/><text fill="#000000" font-family="sans-serif" font-size="14" lengthAdjust="spacing" textLength="176" x="1287.12" y="581.252">mapper_index : std::ptrdiff_t</text><line style="stroke:#181818;stroke-width:0.5;" x1="1268.12" x2="1659.12" y1="588.3281" y2="588.3281"/><ellipse cx="1278.12" cy="602.6328" fill="#84BE84" rx="3" ry="3" style="stroke:#038048;stroke-width:1.0;"/><text fill="#000000" font-family="sans-serif" font-size="14" lengthAdjust="spacing" textLength="116" x="1287.12" y="606.8613">iterator functions()</text></g><!--class indexed_vector_iterator--><g id="elem_indexed_vector_iterator"><rect codeLine="39" fill="#F1F1F1" height="65.6094" id="indexed_vector_iterator" rx="2.5" ry="2.5" style="stroke:#181818;stroke-width:0.5;" width="337" x="1260.12" y="829.6094"/><ellipse cx="1275.12" cy="845.6094" fill="#F1F1F1" rx="11" ry="11" style="stroke:#181818;stroke-width:1.0;"/><path d="M1273.2294,850.1719 Q1273.0106,850.4375 1272.87,850.5156 Q1272.7294,850.5938 1272.5419,850.5938 Q1272.1513,850.5938 1271.9013,850.3281 Q1271.6669,850.0625 1271.6669,849.4688 L1271.6669,848.3125 Q1271.6669,847.7031 1271.9013,847.4531 Q1272.1513,847.1875 1272.5419,847.1875 Q1272.8388,847.1875 1273.0419,847.3438 Q1273.245,847.5 1273.3544,847.875 Q1273.4638,848.2344 1273.5731,848.375 Q1273.8231,848.625 1274.4325,848.8906 Q1275.0419,849.1563 1275.7763,849.1563 Q1276.9169,849.1563 1277.6356,848.625 Q1278.1044,848.2969 1278.1044,847.8281 Q1278.1044,847.5156 1277.8856,847.2344 Q1277.6669,846.9531 1277.1513,846.7813 Q1276.8231,846.6563 1275.6669,846.4375 Q1274.2763,846.1719 1273.5575,845.8125 Q1272.8388,845.4531 1272.4169,844.7969 Q1272.0106,844.125 1272.0106,843.3438 Q1272.0106,842.125 1273.0263,841.2188 Q1274.0575,840.2969 1275.6981,840.2969 Q1276.3544,840.2969 1276.9013,840.4375 Q1277.4638,840.5781 1277.9325,840.875 Q1278.2606,840.5625 1278.5888,840.5625 Q1278.9638,840.5625 1279.1981,840.8281 Q1279.4325,841.0781 1279.4325,841.6875 L1279.4325,842.9688 Q1279.4325,843.5781 1279.1981,843.8438 Q1278.9638,844.0938 1278.5888,844.0938 Q1278.2763,844.0938 1278.0419,843.9063 Q1277.8544,843.7656 1277.7606,843.3438 Q1277.6825,842.9219 1277.5419,842.7344 Q1277.2919,842.4219 1276.8075,842.2188 Q1276.3388,842 1275.6981,842 Q1274.7763,842 1274.245,842.4219 Q1273.7138,842.8438 1273.7138,843.3125 Q1273.7138,843.625 1273.9325,843.9219 Q1274.1513,844.2188 1274.5731,844.3906 Q1274.8544,844.5 1276.1513,844.7656 Q1277.4638,845.0156 1278.1669,845.3281 Q1278.87,845.625 1279.3388,846.2813 Q1279.8075,846.9375 1279.8075,847.8438 Q1279.8075,849.1094 1278.9169,849.8594 Q1277.7294,850.8594 1275.9013,850.8594 Q1275.1981,850.8594 1274.5263,850.6875 Q1273.87,850.5156 1273.2294,850.1719 Z " fill="#000000"/><text fill="#000000" font-family="sans-serif" font-size="14" lengthAdjust="spacing" textLength="149" x="1289.12" y="851.3379">indexed_vector_iterator</text><rect fill="#FFFFFF" height="17.0938" style="stroke:#181818;stroke-width:1.0;stroke-dasharray:2.0,2.0;" width="154" x="1446.12" y="826.6094"/><text fill="#000000" font-family="sans-serif" font-size="12" font-style="italic" lengthAdjust="spacing" textLength="152" x="1447.12" y="840.0664">Mutable, T, Size, Count, ...Is</text><line style="stroke:#181818;stroke-width:0.5;" x1="1261.12" x2="1596.12" y1="861.6094" y2="861.6094"/><line style="stroke:#181818;stroke-width:0.5;" x1="1261.12" x2="1596.12" y1="869.6094" y2="869.6094"/><ellipse cx="1271.12" cy="883.9141" fill="#84BE84" rx="3" ry="3" style="stroke:#038048;stroke-width:1.0;"/><text fill="#000000" font-family="sans-serif" font-size="14" lengthAdjust="spacing" textLength="116" x="1280.12" y="888.1426">iterator functions()</text></g><!--class indexed_view_const_iterator--><g id="elem_indexed_view_const_iterator"><rect codeLine="43" fill="#F1F1F1" height="100.8281" id="indexed_view_const_iterator" rx="2.5" ry="2.5" style="stroke:#181818;stroke-width:0.5;" width="381" x="241.12" y="513.1094"/><ellipse cx="262.42" cy="529.1094" fill="#F1F1F1" rx="11" ry="11" style="stroke:#181818;stroke-width:1.0;"/><path d="M260.5294,533.6719 Q260.3106,533.9375 260.17,534.0156 Q260.0294,534.0938 259.8419,534.0938 Q259.4513,534.0938 259.2013,533.8281 Q258.9669,533.5625 258.9669,532.9688 L258.9669,531.8125 Q258.9669,531.2031 259.2013,530.9531 Q259.4513,530.6875 259.8419,530.6875 Q260.1388,530.6875 260.3419,530.8438 Q260.545,531 260.6544,531.375 Q260.7638,531.7344 260.8731,531.875 Q261.1231,532.125 261.7325,532.3906 Q262.3419,532.6563 263.0763,532.6563 Q264.2169,532.6563 264.9356,532.125 Q265.4044,531.7969 265.4044,531.3281 Q265.4044,531.0156 265.1856,530.7344 Q264.9669,530.4531 264.4513,530.2813 Q264.1231,530.1563 262.9669,529.9375 Q261.5763,529.6719 260.8575,529.3125 Q260.1388,528.9531 259.7169,528.2969 Q259.3106,527.625 259.3106,526.8438 Q259.3106,525.625 260.3263,524.7188 Q261.3575,523.7969 262.9981,523.7969 Q263.6544,523.7969 264.2013,523.9375 Q264.7638,524.0781 265.2325,524.375 Q265.5606,524.0625 265.8888,524.0625 Q266.2638,524.0625 266.4981,524.3281 Q266.7325,524.5781 266.7325,525.1875 L266.7325,526.4688 Q266.7325,527.0781 266.4981,527.3438 Q266.2638,527.5938 265.8888,527.5938 Q265.5763,527.5938 265.3419,527.4063 Q265.1544,527.2656 265.0606,526.8438 Q264.9825,526.4219 264.8419,526.2344 Q264.5919,525.9219 264.1075,525.7188 Q263.6388,525.5 262.9981,525.5 Q262.0763,525.5 261.545,525.9219 Q261.0138,526.3438 261.0138,526.8125 Q261.0138,527.125 261.2325,527.4219 Q261.4513,527.7188 261.8731,527.8906 Q262.1544,528 263.4513,528.2656 Q264.7638,528.5156 265.4669,528.8281 Q266.17,529.125 266.6388,529.7813 Q267.1075,530.4375 267.1075,531.3438 Q267.1075,532.6094 266.2169,533.3594 Q265.0294,534.3594 263.2013,534.3594 Q262.4981,534.3594 261.8263,534.1875 Q261.17,534.0156 260.5294,533.6719 Z " fill="#000000"/><text fill="#000000" font-family="sans-serif" font-size="14" lengthAdjust="spacing" textLength="179" x="277.82" y="534.8379">indexed_view_const_iterator</text><rect fill="#FFFFFF" height="17.0938" style="stroke:#181818;stroke-width:1.0;stroke-dasharray:2.0,2.0;" width="154" x="471.12" y="510.1094"/><text fill="#000000" font-family="sans-serif" font-size="12" font-style="italic" lengthAdjust="spacing" textLength="152" x="472.12" y="523.5664">Mutable, T, Size, Count, ...Is</text><line style="stroke:#181818;stroke-width:0.5;" x1="242.12" x2="621.12" y1="545.1094" y2="545.1094"/><ellipse cx="252.12" cy="559.4141" fill="none" rx="3" ry="3" style="stroke:#038048;stroke-width:1.0;"/><text fill="#000000" font-family="sans-serif" font-size="14" lengthAdjust="spacing" textLength="355" x="261.12" y="563.6426">mapper_ptr : const indexed_view&lt;T, Size, Count, Is ...&gt; *</text><ellipse cx="252.12" cy="577.0234" fill="none" rx="3" ry="3" style="stroke:#038048;stroke-width:1.0;"/><text fill="#000000" font-family="sans-serif" font-size="14" lengthAdjust="spacing" textLength="176" x="261.12" y="581.252">mapper_index : std::ptrdiff_t</text><line style="stroke:#181818;stroke-width:0.5;" x1="242.12" x2="621.12" y1="588.3281" y2="588.3281"/><ellipse cx="252.12" cy="602.6328" fill="#84BE84" rx="3" ry="3" style="stroke:#038048;stroke-width:1.0;"/><text fill="#000000" font-family="sans-serif" font-size="14" lengthAdjust="spacing" textLength="116" x="261.12" y="606.8613">iterator functions()</text></g><!--class indexed_view_iterator--><g id="elem_indexed_view_iterator"><rect codeLine="49" fill="#F1F1F1" height="65.6094" id="indexed_view_iterator" rx="2.5" ry="2.5" style="stroke:#181818;stroke-width:0.5;" width="325" x="146.12" y="829.6094"/><ellipse cx="161.12" cy="845.6094" fill="#F1F1F1" rx="11" ry="11" style="stroke:#181818;stroke-width:1.0;"/><path d="M159.2294,850.1719 Q159.0106,850.4375 158.87,850.5156 Q158.7294,850.5938 158.5419,850.5938 Q158.1513,850.5938 157.9013,850.3281 Q157.6669,850.0625 157.6669,849.4688 L157.6669,848.3125 Q157.6669,847.7031 157.9013,847.4531 Q158.1513,847.1875 158.5419,847.1875 Q158.8388,847.1875 159.0419,847.3438 Q159.245,847.5 159.3544,847.875 Q159.4638,848.2344 159.5731,848.375 Q159.8231,848.625 160.4325,848.8906 Q161.0419,849.1563 161.7763,849.1563 Q162.9169,849.1563 163.6356,848.625 Q164.1044,848.2969 164.1044,847.8281 Q164.1044,847.5156 163.8856,847.2344 Q163.6669,846.9531 163.1513,846.7813 Q162.8231,846.6563 161.6669,846.4375 Q160.2763,846.1719 159.5575,845.8125 Q158.8388,845.4531 158.4169,844.7969 Q158.0106,844.125 158.0106,843.3438 Q158.0106,842.125 159.0263,841.2188 Q160.0575,840.2969 161.6981,840.2969 Q162.3544,840.2969 162.9013,840.4375 Q163.4638,840.5781 163.9325,840.875 Q164.2606,840.5625 164.5888,840.5625 Q164.9638,840.5625 165.1981,840.8281 Q165.4325,841.0781 165.4325,841.6875 L165.4325,842.9688 Q165.4325,843.5781 165.1981,843.8438 Q164.9638,844.0938 164.5888,844.0938 Q164.2763,844.0938 164.0419,843.9063 Q163.8544,843.7656 163.7606,843.3438 Q163.6825,842.9219 163.5419,842.7344 Q163.2919,842.4219 162.8075,842.2188 Q162.3388,842 161.6981,842 Q160.7763,842 160.245,842.4219 Q159.7138,842.8438 159.7138,843.3125 Q159.7138,843.625 159.9325,843.9219 Q160.1513,844.2188 160.5731,844.3906 Q160.8544,844.5 162.1513,844.7656 Q163.4638,845.0156 164.1669,845.3281 Q164.87,845.625 165.3388,846.2813 Q165.8075,846.9375 165.8075,847.8438 Q165.8075,849.1094 164.9169,849.8594 Q163.7294,850.8594 161.9013,850.8594 Q161.1981,850.8594 160.5263,850.6875 Q159.87,850.5156 159.2294,850.1719 Z " fill="#000000"/><text fill="#000000" font-family="sans-serif" font-size="14" lengthAdjust="spacing" textLength="137" x="175.12" y="851.3379">indexed_view_iterator</text><rect fill="#FFFFFF" height="17.0938" style="stroke:#181818;stroke-width:1.0;stroke-dasharray:2.0,2.0;" width="154" x="320.12" y="826.6094"/><text fill="#000000" font-family="sans-serif" font-size="12" font-style="italic" lengthAdjust="spacing" textLength="152" x="321.12" y="840.0664">Mutable, T, Size, Count, ...Is</text><line style="stroke:#181818;stroke-width:0.5;" x1="147.12" x2="470.12" y1="861.6094" y2="861.6094"/><line style="stroke:#181818;stroke-width:0.5;" x1="147.12" x2="470.12" y1="869.6094" y2="869.6094"/><ellipse cx="157.12" cy="883.9141" fill="#84BE84" rx="3" ry="3" style="stroke:#038048;stroke-width:1.0;"/><text fill="#000000" font-family="sans-serif" font-size="14" lengthAdjust="spacing" textLength="116" x="166.12" y="888.1426">iterator functions()</text></g><!--class basic_vector--><g id="elem_basic_vector"><rect codeLine="53" fill="#F1F1F1" height="206.4844" id="basic_vector" rx="2.5" ry="2.5" style="stroke:#181818;stroke-width:0.5;" width="199" x="1711.12" y="460.1094"/><ellipse cx="1746.37" cy="476.1094" fill="#F1F1F1" rx="11" ry="11" style="stroke:#181818;stroke-width:1.0;"/><path d="M1744.4794,480.6719 Q1744.2606,480.9375 1744.12,481.0156 Q1743.9794,481.0938 1743.7919,481.0938 Q1743.4013,481.0938 1743.1513,480.8281 Q1742.9169,480.5625 1742.9169,479.9688 L1742.9169,478.8125 Q1742.9169,478.2031 1743.1513,477.9531 Q1743.4013,477.6875 1743.7919,477.6875 Q1744.0888,477.6875 1744.2919,477.8438 Q1744.495,478 1744.6044,478.375 Q1744.7138,478.7344 1744.8231,478.875 Q1745.0731,479.125 1745.6825,479.3906 Q1746.2919,479.6563 1747.0263,479.6563 Q1748.1669,479.6563 1748.8856,479.125 Q1749.3544,478.7969 1749.3544,478.3281 Q1749.3544,478.0156 1749.1356,477.7344 Q1748.9169,477.4531 1748.4013,477.2813 Q1748.0731,477.1563 1746.9169,476.9375 Q1745.5263,476.6719 1744.8075,476.3125 Q1744.0888,475.9531 1743.6669,475.2969 Q1743.2606,474.625 1743.2606,473.8438 Q1743.2606,472.625 1744.2763,471.7188 Q1745.3075,470.7969 1746.9481,470.7969 Q1747.6044,470.7969 1748.1513,470.9375 Q1748.7138,471.0781 1749.1825,471.375 Q1749.5106,471.0625 1749.8388,471.0625 Q1750.2138,471.0625 1750.4481,471.3281 Q1750.6825,471.5781 1750.6825,472.1875 L1750.6825,473.4688 Q1750.6825,474.0781 1750.4481,474.3438 Q1750.2138,474.5938 1749.8388,474.5938 Q1749.5263,474.5938 1749.2919,474.4063 Q1749.1044,474.2656 1749.0106,473.8438 Q1748.9325,473.4219 1748.7919,473.2344 Q1748.5419,472.9219 1748.0575,472.7188 Q1747.5888,472.5 1746.9481,472.5 Q1746.0263,472.5 1745.495,472.9219 Q1744.9638,473.3438 1744.9638,473.8125 Q1744.9638,474.125 1745.1825,474.4219 Q1745.4013,474.7188 1745.8231,474.8906 Q1746.1044,475 1747.4013,475.2656 Q1748.7138,475.5156 1749.4169,475.8281 Q1750.12,476.125 1750.5888,476.7813 Q1751.0575,477.4375 1751.0575,478.3438 Q1751.0575,479.6094 1750.1669,480.3594 Q1748.9794,481.3594 1747.1513,481.3594 Q1746.4481,481.3594 1745.7763,481.1875 Q1745.12,481.0156 1744.4794,480.6719 Z " fill="#000000"/><text fill="#000000" font-family="sans-serif" font-size="14" lengthAdjust="spacing" textLength="80" x="1764.87" y="481.8379">basic_vector</text><rect fill="#FFFFFF" height="17.0938" style="stroke:#181818;stroke-width:1.0;stroke-dasharray:2.0,2.0;" width="40" x="1873.12" y="457.1094"/><text fill="#000000" font-family="sans-serif" font-size="12" font-style="italic" lengthAdjust="spacing" textLength="38" x="1874.12" y="470.5664">T, Size</text><line style="stroke:#181818;stroke-width:0.5;" x1="1712.12" x2="1909.12" y1="492.1094" y2="492.1094"/><ellipse cx="1722.12" cy="506.4141" fill="none" rx="3" ry="3" style="stroke:#038048;stroke-width:1.0;"/><text fill="#000000" font-family="sans-serif" font-size="14" lengthAdjust="spacing" textLength="35" x="1731.12" y="510.6426">union</text><ellipse cx="1722.12" cy="524.0234" fill="none" rx="3" ry="3" style="stroke:#038048;stroke-width:1.0;"/><text fill="#000000" font-family="sans-serif" font-size="14" lengthAdjust="spacing" text-decoration="underline" textLength="173" x="1731.12" y="528.252">offsets : std::array&lt;T, Size&gt;</text><line style="stroke:#181818;stroke-width:0.5;" x1="1712.12" x2="1909.12" y1="535.3281" y2="535.3281"/><ellipse cx="1722.12" cy="549.6328" fill="#84BE84" rx="3" ry="3" style="stroke:#038048;stroke-width:1.0;"/><text fill="#000000" font-family="sans-serif" font-size="14" lengthAdjust="spacing" textLength="29" x="1731.12" y="553.8613">set()</text><ellipse cx="1722.12" cy="567.2422" fill="#84BE84" rx="3" ry="3" style="stroke:#038048;stroke-width:1.0;"/><text fill="#000000" font-family="sans-serif" font-size="14" lengthAdjust="spacing" textLength="72" x="1731.12" y="571.4707">operator[]()</text><ellipse cx="1722.12" cy="584.8516" fill="#84BE84" rx="3" ry="3" style="stroke:#038048;stroke-width:1.0;"/><text fill="#000000" font-family="sans-serif" font-size="14" lengthAdjust="spacing" textLength="72" x="1731.12" y="589.0801">operator=()</text><ellipse cx="1722.12" cy="602.4609" fill="#84BE84" rx="3" ry="3" style="stroke:#038048;stroke-width:1.0;"/><text fill="#000000" font-family="sans-serif" font-size="14" lengthAdjust="spacing" textLength="38" x="1731.12" y="606.6895">data()</text><ellipse cx="1722.12" cy="620.0703" fill="#84BE84" rx="3" ry="3" style="stroke:#038048;stroke-width:1.0;"/><text fill="#000000" font-family="sans-serif" font-size="14" lengthAdjust="spacing" textLength="72" x="1731.12" y="624.2988">sequence()</text><ellipse cx="1722.12" cy="637.6797" fill="#84BE84" rx="3" ry="3" style="stroke:#038048;stroke-width:1.0;"/><text fill="#000000" font-family="sans-serif" font-size="14" lengthAdjust="spacing" textLength="103" x="1731.12" y="641.9082">iterator access()</text><ellipse cx="1722.12" cy="655.2891" fill="#84BE84" rx="3" ry="3" style="stroke:#038048;stroke-width:1.0;"/><text fill="#000000" font-family="sans-serif" font-size="14" lengthAdjust="spacing" textLength="42" x="1731.12" y="659.5176">swap()</text></g><!--class basic_view--><g id="elem_basic_view"><rect codeLine="65" fill="#F1F1F1" height="241.7031" id="basic_view" rx="2.5" ry="2.5" style="stroke:#181818;stroke-width:0.5;" width="199" x="730.12" y="442.6094"/><ellipse cx="748.27" cy="458.6094" fill="#F1F1F1" rx="11" ry="11" style="stroke:#181818;stroke-width:1.0;"/><path d="M746.3794,463.1719 Q746.1606,463.4375 746.02,463.5156 Q745.8794,463.5938 745.6919,463.5938 Q745.3013,463.5938 745.0513,463.3281 Q744.8169,463.0625 744.8169,462.4688 L744.8169,461.3125 Q744.8169,460.7031 745.0513,460.4531 Q745.3013,460.1875 745.6919,460.1875 Q745.9888,460.1875 746.1919,460.3438 Q746.395,460.5 746.5044,460.875 Q746.6138,461.2344 746.7231,461.375 Q746.9731,461.625 747.5825,461.8906 Q748.1919,462.1563 748.9263,462.1563 Q750.0669,462.1563 750.7856,461.625 Q751.2544,461.2969 751.2544,460.8281 Q751.2544,460.5156 751.0356,460.2344 Q750.8169,459.9531 750.3013,459.7813 Q749.9731,459.6563 748.8169,459.4375 Q747.4263,459.1719 746.7075,458.8125 Q745.9888,458.4531 745.5669,457.7969 Q745.1606,457.125 745.1606,456.3438 Q745.1606,455.125 746.1763,454.2188 Q747.2075,453.2969 748.8481,453.2969 Q749.5044,453.2969 750.0513,453.4375 Q750.6138,453.5781 751.0825,453.875 Q751.4106,453.5625 751.7388,453.5625 Q752.1138,453.5625 752.3481,453.8281 Q752.5825,454.0781 752.5825,454.6875 L752.5825,455.9688 Q752.5825,456.5781 752.3481,456.8438 Q752.1138,457.0938 751.7388,457.0938 Q751.4263,457.0938 751.1919,456.9063 Q751.0044,456.7656 750.9106,456.3438 Q750.8325,455.9219 750.6919,455.7344 Q750.4419,455.4219 749.9575,455.2188 Q749.4888,455 748.8481,455 Q747.9263,455 747.395,455.4219 Q746.8638,455.8438 746.8638,456.3125 Q746.8638,456.625 747.0825,456.9219 Q747.3013,457.2188 747.7231,457.3906 Q748.0044,457.5 749.3013,457.7656 Q750.6138,458.0156 751.3169,458.3281 Q752.02,458.625 752.4888,459.2813 Q752.9575,459.9375 752.9575,460.8438 Q752.9575,462.1094 752.0669,462.8594 Q750.8794,463.8594 749.0513,463.8594 Q748.3481,463.8594 747.6763,463.6875 Q747.02,463.5156 746.3794,463.1719 Z " fill="#000000"/><text fill="#000000" font-family="sans-serif" font-size="14" lengthAdjust="spacing" textLength="68" x="762.97" y="464.3379">basic_view</text><rect fill="#FFFFFF" height="17.0938" style="stroke:#181818;stroke-width:1.0;stroke-dasharray:2.0,2.0;" width="90" x="842.12" y="439.6094"/><text fill="#000000" font-family="sans-serif" font-size="12" font-style="italic" lengthAdjust="spacing" textLength="88" x="843.12" y="453.0664">Mutable, T, Size</text><line style="stroke:#181818;stroke-width:0.5;" x1="731.12" x2="928.12" y1="474.6094" y2="474.6094"/><ellipse cx="741.12" cy="488.9141" fill="none" rx="3" ry="3" style="stroke:#038048;stroke-width:1.0;"/><text fill="#000000" font-family="sans-serif" font-size="14" lengthAdjust="spacing" textLength="35" x="750.12" y="493.1426">union</text><ellipse cx="741.12" cy="506.5234" fill="none" rx="3" ry="3" style="stroke:#038048;stroke-width:1.0;"/><text fill="#000000" font-family="sans-serif" font-size="14" lengthAdjust="spacing" text-decoration="underline" textLength="173" x="750.12" y="510.752">offsets : std::array&lt;T, Size&gt;</text><line style="stroke:#181818;stroke-width:0.5;" x1="731.12" x2="928.12" y1="517.8281" y2="517.8281"/><ellipse cx="741.12" cy="532.1328" fill="#84BE84" rx="3" ry="3" style="stroke:#038048;stroke-width:1.0;"/><text fill="#000000" font-family="sans-serif" font-size="14" lengthAdjust="spacing" textLength="96" x="750.12" y="536.3613">basic_view(T *)</text><ellipse cx="741.12" cy="549.7422" fill="#84BE84" rx="3" ry="3" style="stroke:#038048;stroke-width:1.0;"/><text fill="#000000" font-family="sans-serif" font-size="14" lengthAdjust="spacing" textLength="134" x="750.12" y="553.9707">basic_view(const T *)</text><ellipse cx="741.12" cy="567.3516" fill="#84BE84" rx="3" ry="3" style="stroke:#038048;stroke-width:1.0;"/><text fill="#000000" font-family="sans-serif" font-size="14" lengthAdjust="spacing" textLength="29" x="750.12" y="571.5801">set()</text><ellipse cx="741.12" cy="584.9609" fill="#84BE84" rx="3" ry="3" style="stroke:#038048;stroke-width:1.0;"/><text fill="#000000" font-family="sans-serif" font-size="14" lengthAdjust="spacing" textLength="72" x="750.12" y="589.1895">operator[]()</text><ellipse cx="741.12" cy="602.5703" fill="#84BE84" rx="3" ry="3" style="stroke:#038048;stroke-width:1.0;"/><text fill="#000000" font-family="sans-serif" font-size="14" lengthAdjust="spacing" textLength="72" x="750.12" y="606.7988">operator=()</text><ellipse cx="741.12" cy="620.1797" fill="#84BE84" rx="3" ry="3" style="stroke:#038048;stroke-width:1.0;"/><text fill="#000000" font-family="sans-serif" font-size="14" lengthAdjust="spacing" textLength="38" x="750.12" y="624.4082">data()</text><ellipse cx="741.12" cy="637.7891" fill="#84BE84" rx="3" ry="3" style="stroke:#038048;stroke-width:1.0;"/><text fill="#000000" font-family="sans-serif" font-size="14" lengthAdjust="spacing" textLength="72" x="750.12" y="642.0176">sequence()</text><ellipse cx="741.12" cy="655.3984" fill="#84BE84" rx="3" ry="3" style="stroke:#038048;stroke-width:1.0;"/><text fill="#000000" font-family="sans-serif" font-size="14" lengthAdjust="spacing" textLength="103" x="750.12" y="659.627">iterator access()</text><ellipse cx="741.12" cy="673.0078" fill="#84BE84" rx="3" ry="3" style="stroke:#038048;stroke-width:1.0;"/><text fill="#000000" font-family="sans-serif" font-size="14" lengthAdjust="spacing" textLength="42" x="750.12" y="677.2363">swap()</text></g><!--class basic_vector::anonymous_union--><g id="elem_basic_vector::anonymous_union"><rect codeLine="79" fill="#F1F1F1" height="83.2188" id="basic_vector::anonymous_union" rx="2.5" ry="2.5" style="stroke:#181818;stroke-width:0.5;" width="236" x="1785.62" y="820.6094"/><ellipse cx="1800.62" cy="836.6094" fill="#E3664A" rx="11" ry="11" style="stroke:#181818;stroke-width:1.0;"/><path d="M1802.9638,834.1875 L1802.9638,833.6719 Q1802.9638,832.8438 1802.4794,832.3438 Q1802.0106,831.8438 1801.2606,831.8438 Q1800.6669,831.8438 1800.1356,832.25 Q1799.6044,832.6406 1799.3388,833.2656 Q1798.87,834.3594 1798.87,835.4688 L1798.87,837.9844 Q1798.87,839.9063 1799.7294,841.0313 Q1800.2919,841.7813 1801.3075,841.7813 Q1801.8544,841.7813 1802.2919,841.6406 Q1802.745,841.5 1802.995,841.25 Q1803.245,841 1803.4638,841 Q1803.7294,841 1803.9169,841.1875 Q1804.1044,841.375 1804.1044,841.6406 Q1804.1044,842.0625 1803.5263,842.4531 Q1802.6981,843.0156 1801.2606,843.0156 Q1800.1669,843.0156 1799.4481,842.5156 Q1798.5263,841.875 1798.0731,840.6094 Q1797.62,839.3438 1797.62,838.1094 L1797.62,835.375 Q1797.62,833.3906 1798.6044,832 Q1799.5888,830.5938 1801.2294,830.5938 Q1801.9794,830.5938 1802.62,830.9063 Q1803.2763,831.2031 1803.745,831.9688 Q1804.2138,832.7344 1804.2138,833.6719 L1804.2138,838.2031 Q1804.5731,838.375 1804.5731,838.7656 Q1804.5731,839.0469 1804.37,839.2344 Q1804.1825,839.4063 1803.7138,839.4063 L1802.9638,839.4063 L1802.9638,839.3594 Q1802.5731,839.4219 1802.3856,839.4219 Q1801.3856,839.4219 1800.6356,838.6875 Q1799.9013,837.9375 1799.9013,836.9375 Q1799.9013,835.875 1800.7138,835.0781 Q1801.5419,834.2813 1802.9638,834.1875 Z M1802.9638,835.4688 Q1802.0731,835.5625 1801.6044,835.9844 Q1801.1513,836.4063 1801.1513,836.9531 Q1801.1513,837.4375 1801.5263,837.7813 Q1801.9169,838.125 1802.5575,838.125 Q1802.6825,838.125 1802.9638,838.1094 L1802.9638,835.4688 Z " fill="#000000"/><text fill="#000000" font-family="sans-serif" font-size="14" lengthAdjust="spacing" textLength="204" x="1814.62" y="842.3379">basic_vector::anonymous_union</text><line style="stroke:#181818;stroke-width:0.5;" x1="1786.62" x2="2020.62" y1="852.6094" y2="852.6094"/><ellipse cx="1796.62" cy="866.9141" fill="none" rx="3" ry="3" style="stroke:#038048;stroke-width:1.0;"/><text fill="#000000" font-family="sans-serif" font-size="14" lengthAdjust="spacing" textLength="31" x="1805.62" y="871.1426">base</text><ellipse cx="1796.62" cy="884.5234" fill="none" rx="3" ry="3" style="stroke:#038048;stroke-width:1.0;"/><text fill="#000000" font-family="sans-serif" font-size="14" lengthAdjust="spacing" textLength="49" x="1805.62" y="888.752">swizzles</text><line style="stroke:#181818;stroke-width:0.5;" x1="1786.62" x2="2020.62" y1="895.8281" y2="895.8281"/></g><!--class basic_view::anonymous_union--><g id="elem_basic_view::anonymous_union"><rect codeLine="84" fill="#F1F1F1" height="83.2188" id="basic_view::anonymous_union" rx="2.5" ry="2.5" style="stroke:#181818;stroke-width:0.5;" width="224" x="842.62" y="820.6094"/><ellipse cx="857.62" cy="836.6094" fill="#E3664A" rx="11" ry="11" style="stroke:#181818;stroke-width:1.0;"/><path d="M859.9638,834.1875 L859.9638,833.6719 Q859.9638,832.8438 859.4794,832.3438 Q859.0106,831.8438 858.2606,831.8438 Q857.6669,831.8438 857.1356,832.25 Q856.6044,832.6406 856.3388,833.2656 Q855.87,834.3594 855.87,835.4688 L855.87,837.9844 Q855.87,839.9063 856.7294,841.0313 Q857.2919,841.7813 858.3075,841.7813 Q858.8544,841.7813 859.2919,841.6406 Q859.745,841.5 859.995,841.25 Q860.245,841 860.4638,841 Q860.7294,841 860.9169,841.1875 Q861.1044,841.375 861.1044,841.6406 Q861.1044,842.0625 860.5263,842.4531 Q859.6981,843.0156 858.2606,843.0156 Q857.1669,843.0156 856.4481,842.5156 Q855.5263,841.875 855.0731,840.6094 Q854.62,839.3438 854.62,838.1094 L854.62,835.375 Q854.62,833.3906 855.6044,832 Q856.5888,830.5938 858.2294,830.5938 Q858.9794,830.5938 859.62,830.9063 Q860.2763,831.2031 860.745,831.9688 Q861.2138,832.7344 861.2138,833.6719 L861.2138,838.2031 Q861.5731,838.375 861.5731,838.7656 Q861.5731,839.0469 861.37,839.2344 Q861.1825,839.4063 860.7138,839.4063 L859.9638,839.4063 L859.9638,839.3594 Q859.5731,839.4219 859.3856,839.4219 Q858.3856,839.4219 857.6356,838.6875 Q856.9013,837.9375 856.9013,836.9375 Q856.9013,835.875 857.7138,835.0781 Q858.5419,834.2813 859.9638,834.1875 Z M859.9638,835.4688 Q859.0731,835.5625 858.6044,835.9844 Q858.1513,836.4063 858.1513,836.9531 Q858.1513,837.4375 858.5263,837.7813 Q858.9169,838.125 859.5575,838.125 Q859.6825,838.125 859.9638,838.1094 L859.9638,835.4688 Z " fill="#000000"/><text fill="#000000" font-family="sans-serif" font-size="14" lengthAdjust="spacing" textLength="192" x="871.62" y="842.3379">basic_view::anonymous_union</text><line style="stroke:#181818;stroke-width:0.5;" x1="843.62" x2="1065.62" y1="852.6094" y2="852.6094"/><ellipse cx="853.62" cy="866.9141" fill="none" rx="3" ry="3" style="stroke:#038048;stroke-width:1.0;"/><text fill="#000000" font-family="sans-serif" font-size="14" lengthAdjust="spacing" textLength="31" x="862.62" y="871.1426">base</text><ellipse cx="853.62" cy="884.5234" fill="none" rx="3" ry="3" style="stroke:#038048;stroke-width:1.0;"/><text fill="#000000" font-family="sans-serif" font-size="14" lengthAdjust="spacing" textLength="49" x="862.62" y="888.752">swizzles</text><line style="stroke:#181818;stroke-width:0.5;" x1="843.62" x2="1065.62" y1="895.8281" y2="895.8281"/></g><!--class storage_wrapper--><g id="elem_storage_wrapper"><rect codeLine="89" fill="#F1F1F1" height="224.0938" id="storage_wrapper" rx="2.5" ry="2.5" style="stroke:#181818;stroke-width:0.5;" width="231" x="2025.12" y="994.6094"/><ellipse cx="2040.12" cy="1010.6094" fill="#F1F1F1" rx="11" ry="11" style="stroke:#181818;stroke-width:1.0;"/><path d="M2038.2294,1015.1719 Q2038.0106,1015.4375 2037.87,1015.5156 Q2037.7294,1015.5938 2037.5419,1015.5938 Q2037.1513,1015.5938 2036.9013,1015.3281 Q2036.6669,1015.0625 2036.6669,1014.4688 L2036.6669,1013.3125 Q2036.6669,1012.7031 2036.9013,1012.4531 Q2037.1513,1012.1875 2037.5419,1012.1875 Q2037.8388,1012.1875 2038.0419,1012.3438 Q2038.245,1012.5 2038.3544,1012.875 Q2038.4638,1013.2344 2038.5731,1013.375 Q2038.8231,1013.625 2039.4325,1013.8906 Q2040.0419,1014.1563 2040.7763,1014.1563 Q2041.9169,1014.1563 2042.6356,1013.625 Q2043.1044,1013.2969 2043.1044,1012.8281 Q2043.1044,1012.5156 2042.8856,1012.2344 Q2042.6669,1011.9531 2042.1513,1011.7813 Q2041.8231,1011.6563 2040.6669,1011.4375 Q2039.2763,1011.1719 2038.5575,1010.8125 Q2037.8388,1010.4531 2037.4169,1009.7969 Q2037.0106,1009.125 2037.0106,1008.3438 Q2037.0106,1007.125 2038.0263,1006.2188 Q2039.0575,1005.2969 2040.6981,1005.2969 Q2041.3544,1005.2969 2041.9013,1005.4375 Q2042.4638,1005.5781 2042.9325,1005.875 Q2043.2606,1005.5625 2043.5888,1005.5625 Q2043.9638,1005.5625 2044.1981,1005.8281 Q2044.4325,1006.0781 2044.4325,1006.6875 L2044.4325,1007.9688 Q2044.4325,1008.5781 2044.1981,1008.8438 Q2043.9638,1009.0938 2043.5888,1009.0938 Q2043.2763,1009.0938 2043.0419,1008.9063 Q2042.8544,1008.7656 2042.7606,1008.3438 Q2042.6825,1007.9219 2042.5419,1007.7344 Q2042.2919,1007.4219 2041.8075,1007.2188 Q2041.3388,1007 2040.6981,1007 Q2039.7763,1007 2039.245,1007.4219 Q2038.7138,1007.8438 2038.7138,1008.3125 Q2038.7138,1008.625 2038.9325,1008.9219 Q2039.1513,1009.2188 2039.5731,1009.3906 Q2039.8544,1009.5 2041.1513,1009.7656 Q2042.4638,1010.0156 2043.1669,1010.3281 Q2043.87,1010.625 2044.3388,1011.2813 Q2044.8075,1011.9375 2044.8075,1012.8438 Q2044.8075,1014.1094 2043.9169,1014.8594 Q2042.7294,1015.8594 2040.9013,1015.8594 Q2040.1981,1015.8594 2039.5263,1015.6875 Q2038.87,1015.5156 2038.2294,1015.1719 Z " fill="#000000"/><text fill="#000000" font-family="sans-serif" font-size="14" lengthAdjust="spacing" textLength="107" x="2054.12" y="1016.3379">storage_wrapper</text><rect fill="#FFFFFF" height="17.0938" style="stroke:#181818;stroke-width:1.0;stroke-dasharray:2.0,2.0;" width="90" x="2169.12" y="991.6094"/><text fill="#000000" font-family="sans-serif" font-size="12" font-style="italic" lengthAdjust="spacing" textLength="88" x="2170.12" y="1005.0664">Mutable, T, Size</text><line style="stroke:#181818;stroke-width:0.5;" x1="2026.12" x2="2255.12" y1="1026.6094" y2="1026.6094"/><ellipse cx="2036.12" cy="1040.9141" fill="none" rx="3" ry="3" style="stroke:#038048;stroke-width:1.0;"/><text fill="#000000" font-family="sans-serif" font-size="14" lengthAdjust="spacing" textLength="163" x="2045.12" y="1045.1426">store : std::array&lt;T, Size&gt;</text><ellipse cx="2036.12" cy="1058.5234" fill="none" rx="3" ry="3" style="stroke:#038048;stroke-width:1.0;"/><text fill="#000000" font-family="sans-serif" font-size="14" lengthAdjust="spacing" text-decoration="underline" textLength="173" x="2045.12" y="1062.752">offsets : std::array&lt;T, Size&gt;</text><line style="stroke:#181818;stroke-width:0.5;" x1="2026.12" x2="2255.12" y1="1069.8281" y2="1069.8281"/><ellipse cx="2036.12" cy="1084.1328" fill="#84BE84" rx="3" ry="3" style="stroke:#038048;stroke-width:1.0;"/><text fill="#000000" font-family="sans-serif" font-size="14" lengthAdjust="spacing" textLength="29" x="2045.12" y="1088.3613">set()</text><ellipse cx="2036.12" cy="1101.7422" fill="#84BE84" rx="3" ry="3" style="stroke:#038048;stroke-width:1.0;"/><text fill="#000000" font-family="sans-serif" font-size="14" lengthAdjust="spacing" textLength="72" x="2045.12" y="1105.9707">operator[]()</text><ellipse cx="2036.12" cy="1119.3516" fill="#84BE84" rx="3" ry="3" style="stroke:#038048;stroke-width:1.0;"/><text fill="#000000" font-family="sans-serif" font-size="14" lengthAdjust="spacing" textLength="38" x="2045.12" y="1123.5801">data()</text><ellipse cx="2036.12" cy="1136.9609" fill="#84BE84" rx="3" ry="3" style="stroke:#038048;stroke-width:1.0;"/><text fill="#000000" font-family="sans-serif" font-size="14" lengthAdjust="spacing" textLength="72" x="2045.12" y="1141.1895">sequence()</text><ellipse cx="2036.12" cy="1154.5703" fill="#84BE84" rx="3" ry="3" style="stroke:#038048;stroke-width:1.0;"/><text fill="#000000" font-family="sans-serif" font-size="14" lengthAdjust="spacing" textLength="103" x="2045.12" y="1158.7988">iterator access()</text><ellipse cx="2036.12" cy="1172.1797" fill="#84BE84" rx="3" ry="3" style="stroke:#038048;stroke-width:1.0;"/><text fill="#000000" font-family="sans-serif" font-size="14" lengthAdjust="spacing" textLength="49" x="2045.12" y="1176.4082">length()</text><ellipse cx="2036.12" cy="1189.7891" fill="#84BE84" rx="3" ry="3" style="stroke:#038048;stroke-width:1.0;"/><text fill="#000000" font-family="sans-serif" font-size="14" lengthAdjust="spacing" textLength="34" x="2045.12" y="1194.0176">size()</text><ellipse cx="2036.12" cy="1207.3984" fill="#84BE84" rx="3" ry="3" style="stroke:#038048;stroke-width:1.0;"/><text fill="#000000" font-family="sans-serif" font-size="14" lengthAdjust="spacing" textLength="42" x="2045.12" y="1211.627">swap()</text></g><!--class view_wrapper--><g id="elem_view_wrapper"><rect codeLine="102" fill="#F1F1F1" height="241.7031" id="view_wrapper" rx="2.5" ry="2.5" style="stroke:#181818;stroke-width:0.5;" width="210" x="849.62" y="985.6094"/><ellipse cx="864.62" cy="1001.6094" fill="#F1F1F1" rx="11" ry="11" style="stroke:#181818;stroke-width:1.0;"/><path d="M862.7294,1006.1719 Q862.5106,1006.4375 862.37,1006.5156 Q862.2294,1006.5938 862.0419,1006.5938 Q861.6513,1006.5938 861.4013,1006.3281 Q861.1669,1006.0625 861.1669,1005.4688 L861.1669,1004.3125 Q861.1669,1003.7031 861.4013,1003.4531 Q861.6513,1003.1875 862.0419,1003.1875 Q862.3388,1003.1875 862.5419,1003.3438 Q862.745,1003.5 862.8544,1003.875 Q862.9638,1004.2344 863.0731,1004.375 Q863.3231,1004.625 863.9325,1004.8906 Q864.5419,1005.1563 865.2763,1005.1563 Q866.4169,1005.1563 867.1356,1004.625 Q867.6044,1004.2969 867.6044,1003.8281 Q867.6044,1003.5156 867.3856,1003.2344 Q867.1669,1002.9531 866.6513,1002.7813 Q866.3231,1002.6563 865.1669,1002.4375 Q863.7763,1002.1719 863.0575,1001.8125 Q862.3388,1001.4531 861.9169,1000.7969 Q861.5106,1000.125 861.5106,999.3438 Q861.5106,998.125 862.5263,997.2188 Q863.5575,996.2969 865.1981,996.2969 Q865.8544,996.2969 866.4013,996.4375 Q866.9638,996.5781 867.4325,996.875 Q867.7606,996.5625 868.0888,996.5625 Q868.4638,996.5625 868.6981,996.8281 Q868.9325,997.0781 868.9325,997.6875 L868.9325,998.9688 Q868.9325,999.5781 868.6981,999.8438 Q868.4638,1000.0938 868.0888,1000.0938 Q867.7763,1000.0938 867.5419,999.9063 Q867.3544,999.7656 867.2606,999.3438 Q867.1825,998.9219 867.0419,998.7344 Q866.7919,998.4219 866.3075,998.2188 Q865.8388,998 865.1981,998 Q864.2763,998 863.745,998.4219 Q863.2138,998.8438 863.2138,999.3125 Q863.2138,999.625 863.4325,999.9219 Q863.6513,1000.2188 864.0731,1000.3906 Q864.3544,1000.5 865.6513,1000.7656 Q866.9638,1001.0156 867.6669,1001.3281 Q868.37,1001.625 868.8388,1002.2813 Q869.3075,1002.9375 869.3075,1003.8438 Q869.3075,1005.1094 868.4169,1005.8594 Q867.2294,1006.8594 865.4013,1006.8594 Q864.6981,1006.8594 864.0263,1006.6875 Q863.37,1006.5156 862.7294,1006.1719 Z " fill="#000000"/><text fill="#000000" font-family="sans-serif" font-size="14" lengthAdjust="spacing" textLength="86" x="878.62" y="1007.3379">view_wrapper</text><rect fill="#FFFFFF" height="17.0938" style="stroke:#181818;stroke-width:1.0;stroke-dasharray:2.0,2.0;" width="90" x="972.62" y="982.6094"/><text fill="#000000" font-family="sans-serif" font-size="12" font-style="italic" lengthAdjust="spacing" textLength="88" x="973.62" y="996.0664">Mutable, T, Size</text><line style="stroke:#181818;stroke-width:0.5;" x1="850.62" x2="1058.62" y1="1017.6094" y2="1017.6094"/><ellipse cx="860.62" cy="1031.9141" fill="none" rx="3" ry="3" style="stroke:#038048;stroke-width:1.0;"/><text fill="#000000" font-family="sans-serif" font-size="14" lengthAdjust="spacing" textLength="138" x="869.62" y="1036.1426">store : const T const *</text><ellipse cx="860.62" cy="1049.5234" fill="none" rx="3" ry="3" style="stroke:#038048;stroke-width:1.0;"/><text fill="#000000" font-family="sans-serif" font-size="14" lengthAdjust="spacing" text-decoration="underline" textLength="173" x="869.62" y="1053.752">offsets : std::array&lt;T, Size&gt;</text><line style="stroke:#181818;stroke-width:0.5;" x1="850.62" x2="1058.62" y1="1060.8281" y2="1060.8281"/><ellipse cx="860.62" cy="1075.1328" fill="#84BE84" rx="3" ry="3" style="stroke:#038048;stroke-width:1.0;"/><text fill="#000000" font-family="sans-serif" font-size="14" lengthAdjust="spacing" textLength="152" x="869.62" y="1079.3613">view_wrapper(const T *)</text><ellipse cx="860.62" cy="1092.7422" fill="#84BE84" rx="3" ry="3" style="stroke:#038048;stroke-width:1.0;"/><text fill="#000000" font-family="sans-serif" font-size="14" lengthAdjust="spacing" textLength="29" x="869.62" y="1096.9707">set()</text><ellipse cx="860.62" cy="1110.3516" fill="#84BE84" rx="3" ry="3" style="stroke:#038048;stroke-width:1.0;"/><text fill="#000000" font-family="sans-serif" font-size="14" lengthAdjust="spacing" textLength="72" x="869.62" y="1114.5801">operator[]()</text><ellipse cx="860.62" cy="1127.9609" fill="#84BE84" rx="3" ry="3" style="stroke:#038048;stroke-width:1.0;"/><text fill="#000000" font-family="sans-serif" font-size="14" lengthAdjust="spacing" textLength="38" x="869.62" y="1132.1895">data()</text><ellipse cx="860.62" cy="1145.5703" fill="#84BE84" rx="3" ry="3" style="stroke:#038048;stroke-width:1.0;"/><text fill="#000000" font-family="sans-serif" font-size="14" lengthAdjust="spacing" textLength="72" x="869.62" y="1149.7988">sequence()</text><ellipse cx="860.62" cy="1163.1797" fill="#84BE84" rx="3" ry="3" style="stroke:#038048;stroke-width:1.0;"/><text fill="#000000" font-family="sans-serif" font-size="14" lengthAdjust="spacing" textLength="103" x="869.62" y="1167.4082">iterator access()</text><ellipse cx="860.62" cy="1180.7891" fill="#84BE84" rx="3" ry="3" style="stroke:#038048;stroke-width:1.0;"/><text fill="#000000" font-family="sans-serif" font-size="14" lengthAdjust="spacing" textLength="49" x="869.62" y="1185.0176">length()</text><ellipse cx="860.62" cy="1198.3984" fill="#84BE84" rx="3" ry="3" style="stroke:#038048;stroke-width:1.0;"/><text fill="#000000" font-family="sans-serif" font-size="14" lengthAdjust="spacing" textLength="34" x="869.62" y="1202.627">size()</text><ellipse cx="860.62" cy="1216.0078" fill="#84BE84" rx="3" ry="3" style="stroke:#038048;stroke-width:1.0;"/><text fill="#000000" font-family="sans-serif" font-size="14" lengthAdjust="spacing" textLength="42" x="869.62" y="1220.2363">swap()</text></g><!--class view_vector--><g id="elem_view_vector"><rect codeLine="116" fill="#F1F1F1" height="83.2188" id="view_vector" rx="2.5" ry="2.5" style="stroke:#181818;stroke-width:0.5;" width="148" x="651.62" y="820.6094"/><ellipse cx="666.62" cy="836.6094" fill="#F1F1F1" rx="11" ry="11" style="stroke:#181818;stroke-width:1.0;"/><path d="M664.7294,841.1719 Q664.5106,841.4375 664.37,841.5156 Q664.2294,841.5938 664.0419,841.5938 Q663.6513,841.5938 663.4013,841.3281 Q663.1669,841.0625 663.1669,840.4688 L663.1669,839.3125 Q663.1669,838.7031 663.4013,838.4531 Q663.6513,838.1875 664.0419,838.1875 Q664.3388,838.1875 664.5419,838.3438 Q664.745,838.5 664.8544,838.875 Q664.9638,839.2344 665.0731,839.375 Q665.3231,839.625 665.9325,839.8906 Q666.5419,840.1563 667.2763,840.1563 Q668.4169,840.1563 669.1356,839.625 Q669.6044,839.2969 669.6044,838.8281 Q669.6044,838.5156 669.3856,838.2344 Q669.1669,837.9531 668.6513,837.7813 Q668.3231,837.6563 667.1669,837.4375 Q665.7763,837.1719 665.0575,836.8125 Q664.3388,836.4531 663.9169,835.7969 Q663.5106,835.125 663.5106,834.3438 Q663.5106,833.125 664.5263,832.2188 Q665.5575,831.2969 667.1981,831.2969 Q667.8544,831.2969 668.4013,831.4375 Q668.9638,831.5781 669.4325,831.875 Q669.7606,831.5625 670.0888,831.5625 Q670.4638,831.5625 670.6981,831.8281 Q670.9325,832.0781 670.9325,832.6875 L670.9325,833.9688 Q670.9325,834.5781 670.6981,834.8438 Q670.4638,835.0938 670.0888,835.0938 Q669.7763,835.0938 669.5419,834.9063 Q669.3544,834.7656 669.2606,834.3438 Q669.1825,833.9219 669.0419,833.7344 Q668.7919,833.4219 668.3075,833.2188 Q667.8388,833 667.1981,833 Q666.2763,833 665.745,833.4219 Q665.2138,833.8438 665.2138,834.3125 Q665.2138,834.625 665.4325,834.9219 Q665.6513,835.2188 666.0731,835.3906 Q666.3544,835.5 667.6513,835.7656 Q668.9638,836.0156 669.6669,836.3281 Q670.37,836.625 670.8388,837.2813 Q671.3075,837.9375 671.3075,838.8438 Q671.3075,840.1094 670.4169,840.8594 Q669.2294,841.8594 667.4013,841.8594 Q666.6981,841.8594 666.0263,841.6875 Q665.37,841.5156 664.7294,841.1719 Z " fill="#000000"/><text fill="#000000" font-family="sans-serif" font-size="14" lengthAdjust="spacing" textLength="74" x="680.62" y="842.3379">view_vector</text><rect fill="#FFFFFF" height="17.0938" style="stroke:#181818;stroke-width:1.0;stroke-dasharray:2.0,2.0;" width="40" x="762.62" y="817.6094"/><text fill="#000000" font-family="sans-serif" font-size="12" font-style="italic" lengthAdjust="spacing" textLength="38" x="763.62" y="831.0664">T, Size</text><line style="stroke:#181818;stroke-width:0.5;" x1="652.62" x2="798.62" y1="852.6094" y2="852.6094"/><ellipse cx="662.62" cy="866.9141" fill="none" rx="3" ry="3" style="stroke:#038048;stroke-width:1.0;"/><text fill="#000000" font-family="sans-serif" font-size="14" lengthAdjust="spacing" textLength="87" x="671.62" y="871.1426">store : T[Size]</text><line style="stroke:#181818;stroke-width:0.5;" x1="652.62" x2="798.62" y1="878.2188" y2="878.2188"/><ellipse cx="662.62" cy="892.5234" fill="#84BE84" rx="3" ry="3" style="stroke:#038048;stroke-width:1.0;"/><text fill="#000000" font-family="sans-serif" font-size="14" lengthAdjust="spacing" textLength="72" x="671.62" y="896.752">operator=()</text></g><!--class indexed_vector--><g id="elem_indexed_vector"><rect codeLine="121" fill="#F1F1F1" height="188.875" id="indexed_vector" rx="2.5" ry="2.5" style="stroke:#181818;stroke-width:0.5;" width="284" x="1533.62" y="1012.1094"/><ellipse cx="1548.62" cy="1028.1094" fill="#F1F1F1" rx="11" ry="11" style="stroke:#181818;stroke-width:1.0;"/><path d="M1546.7294,1032.6719 Q1546.5106,1032.9375 1546.37,1033.0156 Q1546.2294,1033.0938 1546.0419,1033.0938 Q1545.6513,1033.0938 1545.4013,1032.8281 Q1545.1669,1032.5625 1545.1669,1031.9688 L1545.1669,1030.8125 Q1545.1669,1030.2031 1545.4013,1029.9531 Q1545.6513,1029.6875 1546.0419,1029.6875 Q1546.3388,1029.6875 1546.5419,1029.8438 Q1546.745,1030 1546.8544,1030.375 Q1546.9638,1030.7344 1547.0731,1030.875 Q1547.3231,1031.125 1547.9325,1031.3906 Q1548.5419,1031.6563 1549.2763,1031.6563 Q1550.4169,1031.6563 1551.1356,1031.125 Q1551.6044,1030.7969 1551.6044,1030.3281 Q1551.6044,1030.0156 1551.3856,1029.7344 Q1551.1669,1029.4531 1550.6513,1029.2813 Q1550.3231,1029.1563 1549.1669,1028.9375 Q1547.7763,1028.6719 1547.0575,1028.3125 Q1546.3388,1027.9531 1545.9169,1027.2969 Q1545.5106,1026.625 1545.5106,1025.8438 Q1545.5106,1024.625 1546.5263,1023.7188 Q1547.5575,1022.7969 1549.1981,1022.7969 Q1549.8544,1022.7969 1550.4013,1022.9375 Q1550.9638,1023.0781 1551.4325,1023.375 Q1551.7606,1023.0625 1552.0888,1023.0625 Q1552.4638,1023.0625 1552.6981,1023.3281 Q1552.9325,1023.5781 1552.9325,1024.1875 L1552.9325,1025.4688 Q1552.9325,1026.0781 1552.6981,1026.3438 Q1552.4638,1026.5938 1552.0888,1026.5938 Q1551.7763,1026.5938 1551.5419,1026.4063 Q1551.3544,1026.2656 1551.2606,1025.8438 Q1551.1825,1025.4219 1551.0419,1025.2344 Q1550.7919,1024.9219 1550.3075,1024.7188 Q1549.8388,1024.5 1549.1981,1024.5 Q1548.2763,1024.5 1547.745,1024.9219 Q1547.2138,1025.3438 1547.2138,1025.8125 Q1547.2138,1026.125 1547.4325,1026.4219 Q1547.6513,1026.7188 1548.0731,1026.8906 Q1548.3544,1027 1549.6513,1027.2656 Q1550.9638,1027.5156 1551.6669,1027.8281 Q1552.37,1028.125 1552.8388,1028.7813 Q1553.3075,1029.4375 1553.3075,1030.3438 Q1553.3075,1031.6094 1552.4169,1032.3594 Q1551.2294,1033.3594 1549.4013,1033.3594 Q1548.6981,1033.3594 1548.0263,1033.1875 Q1547.37,1033.0156 1546.7294,1032.6719 Z " fill="#000000"/><text fill="#000000" font-family="sans-serif" font-size="14" lengthAdjust="spacing" textLength="96" x="1562.62" y="1033.8379">indexed_vector</text><rect fill="#FFFFFF" height="17.0938" style="stroke:#181818;stroke-width:1.0;stroke-dasharray:2.0,2.0;" width="154" x="1666.62" y="1009.1094"/><text fill="#000000" font-family="sans-serif" font-size="12" font-style="italic" lengthAdjust="spacing" textLength="152" x="1667.62" y="1022.5664">Mutable, T, Size, Count, ...Is</text><line style="stroke:#181818;stroke-width:0.5;" x1="1534.62" x2="1816.62" y1="1044.1094" y2="1044.1094"/><ellipse cx="1544.62" cy="1058.4141" fill="none" rx="3" ry="3" style="stroke:#038048;stroke-width:1.0;"/><text fill="#000000" font-family="sans-serif" font-size="14" lengthAdjust="spacing" textLength="162" x="1553.62" y="1062.6426">base : std::array&lt;T, Size&gt;</text><ellipse cx="1544.62" cy="1076.0234" fill="none" rx="3" ry="3" style="stroke:#038048;stroke-width:1.0;"/><text fill="#000000" font-family="sans-serif" font-size="14" lengthAdjust="spacing" text-decoration="underline" textLength="185" x="1553.62" y="1080.252">offsets : std::array&lt;T, Count&gt;</text><line style="stroke:#181818;stroke-width:0.5;" x1="1534.62" x2="1816.62" y1="1087.3281" y2="1087.3281"/><ellipse cx="1544.62" cy="1101.6328" fill="#84BE84" rx="3" ry="3" style="stroke:#038048;stroke-width:1.0;"/><text fill="#000000" font-family="sans-serif" font-size="14" lengthAdjust="spacing" textLength="29" x="1553.62" y="1105.8613">set()</text><ellipse cx="1544.62" cy="1119.2422" fill="#84BE84" rx="3" ry="3" style="stroke:#038048;stroke-width:1.0;"/><text fill="#000000" font-family="sans-serif" font-size="14" lengthAdjust="spacing" textLength="72" x="1553.62" y="1123.4707">operator[]()</text><ellipse cx="1544.62" cy="1136.8516" fill="#84BE84" rx="3" ry="3" style="stroke:#038048;stroke-width:1.0;"/><text fill="#000000" font-family="sans-serif" font-size="14" lengthAdjust="spacing" textLength="72" x="1553.62" y="1141.0801">operator=()</text><ellipse cx="1544.62" cy="1154.4609" fill="#84BE84" rx="3" ry="3" style="stroke:#038048;stroke-width:1.0;"/><text fill="#000000" font-family="sans-serif" font-size="14" lengthAdjust="spacing" textLength="38" x="1553.62" y="1158.6895">data()</text><ellipse cx="1544.62" cy="1172.0703" fill="#84BE84" rx="3" ry="3" style="stroke:#038048;stroke-width:1.0;"/><text fill="#000000" font-family="sans-serif" font-size="14" lengthAdjust="spacing" textLength="72" x="1553.62" y="1176.2988">sequence()</text><ellipse cx="1544.62" cy="1189.6797" fill="#84BE84" rx="3" ry="3" style="stroke:#038048;stroke-width:1.0;"/><text fill="#000000" font-family="sans-serif" font-size="14" lengthAdjust="spacing" textLength="103" x="1553.62" y="1193.9082">iterator access()</text></g><!--class indexed_view--><g id="elem_indexed_view"><rect codeLine="132" fill="#F1F1F1" height="206.4844" id="indexed_view" rx="2.5" ry="2.5" style="stroke:#181818;stroke-width:0.5;" width="272" x="413.62" y="1003.6094"/><ellipse cx="428.62" cy="1019.6094" fill="#F1F1F1" rx="11" ry="11" style="stroke:#181818;stroke-width:1.0;"/><path d="M426.7294,1024.1719 Q426.5106,1024.4375 426.37,1024.5156 Q426.2294,1024.5938 426.0419,1024.5938 Q425.6513,1024.5938 425.4013,1024.3281 Q425.1669,1024.0625 425.1669,1023.4688 L425.1669,1022.3125 Q425.1669,1021.7031 425.4013,1021.4531 Q425.6513,1021.1875 426.0419,1021.1875 Q426.3388,1021.1875 426.5419,1021.3438 Q426.745,1021.5 426.8544,1021.875 Q426.9638,1022.2344 427.0731,1022.375 Q427.3231,1022.625 427.9325,1022.8906 Q428.5419,1023.1563 429.2763,1023.1563 Q430.4169,1023.1563 431.1356,1022.625 Q431.6044,1022.2969 431.6044,1021.8281 Q431.6044,1021.5156 431.3856,1021.2344 Q431.1669,1020.9531 430.6513,1020.7813 Q430.3231,1020.6563 429.1669,1020.4375 Q427.7763,1020.1719 427.0575,1019.8125 Q426.3388,1019.4531 425.9169,1018.7969 Q425.5106,1018.125 425.5106,1017.3438 Q425.5106,1016.125 426.5263,1015.2188 Q427.5575,1014.2969 429.1981,1014.2969 Q429.8544,1014.2969 430.4013,1014.4375 Q430.9638,1014.5781 431.4325,1014.875 Q431.7606,1014.5625 432.0888,1014.5625 Q432.4638,1014.5625 432.6981,1014.8281 Q432.9325,1015.0781 432.9325,1015.6875 L432.9325,1016.9688 Q432.9325,1017.5781 432.6981,1017.8438 Q432.4638,1018.0938 432.0888,1018.0938 Q431.7763,1018.0938 431.5419,1017.9063 Q431.3544,1017.7656 431.2606,1017.3438 Q431.1825,1016.9219 431.0419,1016.7344 Q430.7919,1016.4219 430.3075,1016.2188 Q429.8388,1016 429.1981,1016 Q428.2763,1016 427.745,1016.4219 Q427.2138,1016.8438 427.2138,1017.3125 Q427.2138,1017.625 427.4325,1017.9219 Q427.6513,1018.2188 428.0731,1018.3906 Q428.3544,1018.5 429.6513,1018.7656 Q430.9638,1019.0156 431.6669,1019.3281 Q432.37,1019.625 432.8388,1020.2813 Q433.3075,1020.9375 433.3075,1021.8438 Q433.3075,1023.1094 432.4169,1023.8594 Q431.2294,1024.8594 429.4013,1024.8594 Q428.6981,1024.8594 428.0263,1024.6875 Q427.37,1024.5156 426.7294,1024.1719 Z " fill="#000000"/><text fill="#000000" font-family="sans-serif" font-size="14" lengthAdjust="spacing" textLength="84" x="442.62" y="1025.3379">indexed_view</text><rect fill="#FFFFFF" height="17.0938" style="stroke:#181818;stroke-width:1.0;stroke-dasharray:2.0,2.0;" width="154" x="534.62" y="1000.6094"/><text fill="#000000" font-family="sans-serif" font-size="12" font-style="italic" lengthAdjust="spacing" textLength="152" x="535.62" y="1014.0664">Mutable, T, Size, Count, ...Is</text><line style="stroke:#181818;stroke-width:0.5;" x1="414.62" x2="684.62" y1="1035.6094" y2="1035.6094"/><ellipse cx="424.62" cy="1049.9141" fill="none" rx="3" ry="3" style="stroke:#038048;stroke-width:1.0;"/><text fill="#000000" font-family="sans-serif" font-size="14" lengthAdjust="spacing" textLength="137" x="433.62" y="1054.1426">base : const T const *</text><ellipse cx="424.62" cy="1067.5234" fill="none" rx="3" ry="3" style="stroke:#038048;stroke-width:1.0;"/><text fill="#000000" font-family="sans-serif" font-size="14" lengthAdjust="spacing" text-decoration="underline" textLength="185" x="433.62" y="1071.752">offsets : std::array&lt;T, Count&gt;</text><line style="stroke:#181818;stroke-width:0.5;" x1="414.62" x2="684.62" y1="1078.8281" y2="1078.8281"/><ellipse cx="424.62" cy="1093.1328" fill="#84BE84" rx="3" ry="3" style="stroke:#038048;stroke-width:1.0;"/><text fill="#000000" font-family="sans-serif" font-size="14" lengthAdjust="spacing" textLength="150" x="433.62" y="1097.3613">indexed_view(const T *)</text><ellipse cx="424.62" cy="1110.7422" fill="#84BE84" rx="3" ry="3" style="stroke:#038048;stroke-width:1.0;"/><text fill="#000000" font-family="sans-serif" font-size="14" lengthAdjust="spacing" textLength="29" x="433.62" y="1114.9707">set()</text><ellipse cx="424.62" cy="1128.3516" fill="#84BE84" rx="3" ry="3" style="stroke:#038048;stroke-width:1.0;"/><text fill="#000000" font-family="sans-serif" font-size="14" lengthAdjust="spacing" textLength="72" x="433.62" y="1132.5801">operator[]()</text><ellipse cx="424.62" cy="1145.9609" fill="#84BE84" rx="3" ry="3" style="stroke:#038048;stroke-width:1.0;"/><text fill="#000000" font-family="sans-serif" font-size="14" lengthAdjust="spacing" textLength="72" x="433.62" y="1150.1895">operator=()</text><ellipse cx="424.62" cy="1163.5703" fill="#84BE84" rx="3" ry="3" style="stroke:#038048;stroke-width:1.0;"/><text fill="#000000" font-family="sans-serif" font-size="14" lengthAdjust="spacing" textLength="38" x="433.62" y="1167.7988">data()</text><ellipse cx="424.62" cy="1181.1797" fill="#84BE84" rx="3" ry="3" style="stroke:#038048;stroke-width:1.0;"/><text fill="#000000" font-family="sans-serif" font-size="14" lengthAdjust="spacing" textLength="72" x="433.62" y="1185.4082">sequence()</text><ellipse cx="424.62" cy="1198.7891" fill="#84BE84" rx="3" ry="3" style="stroke:#038048;stroke-width:1.0;"/><text fill="#000000" font-family="sans-serif" font-size="14" lengthAdjust="spacing" textLength="103" x="433.62" y="1203.0176">iterator access()</text></g><!--class basic_matrix--><g id="elem_basic_matrix"><rect codeLine="144" fill="#F1F1F1" height="241.7031" id="basic_matrix" rx="2.5" ry="2.5" style="stroke:#181818;stroke-width:0.5;" width="349" x="1635.12" y="84.1094"/><ellipse cx="1727.37" cy="100.1094" fill="#F1F1F1" rx="11" ry="11" style="stroke:#181818;stroke-width:1.0;"/><path d="M1725.4794,104.6719 Q1725.2606,104.9375 1725.12,105.0156 Q1724.9794,105.0938 1724.7919,105.0938 Q1724.4013,105.0938 1724.1513,104.8281 Q1723.9169,104.5625 1723.9169,103.9688 L1723.9169,102.8125 Q1723.9169,102.2031 1724.1513,101.9531 Q1724.4013,101.6875 1724.7919,101.6875 Q1725.0888,101.6875 1725.2919,101.8438 Q1725.495,102 1725.6044,102.375 Q1725.7138,102.7344 1725.8231,102.875 Q1726.0731,103.125 1726.6825,103.3906 Q1727.2919,103.6563 1728.0263,103.6563 Q1729.1669,103.6563 1729.8856,103.125 Q1730.3544,102.7969 1730.3544,102.3281 Q1730.3544,102.0156 1730.1356,101.7344 Q1729.9169,101.4531 1729.4013,101.2813 Q1729.0731,101.1563 1727.9169,100.9375 Q1726.5263,100.6719 1725.8075,100.3125 Q1725.0888,99.9531 1724.6669,99.2969 Q1724.2606,98.625 1724.2606,97.8438 Q1724.2606,96.625 1725.2763,95.7188 Q1726.3075,94.7969 1727.9481,94.7969 Q1728.6044,94.7969 1729.1513,94.9375 Q1729.7138,95.0781 1730.1825,95.375 Q1730.5106,95.0625 1730.8388,95.0625 Q1731.2138,95.0625 1731.4481,95.3281 Q1731.6825,95.5781 1731.6825,96.1875 L1731.6825,97.4688 Q1731.6825,98.0781 1731.4481,98.3438 Q1731.2138,98.5938 1730.8388,98.5938 Q1730.5263,98.5938 1730.2919,98.4063 Q1730.1044,98.2656 1730.0106,97.8438 Q1729.9325,97.4219 1729.7919,97.2344 Q1729.5419,96.9219 1729.0575,96.7188 Q1728.5888,96.5 1727.9481,96.5 Q1727.0263,96.5 1726.495,96.9219 Q1725.9638,97.3438 1725.9638,97.8125 Q1725.9638,98.125 1726.1825,98.4219 Q1726.4013,98.7188 1726.8231,98.8906 Q1727.1044,99 1728.4013,99.2656 Q1729.7138,99.5156 1730.4169,99.8281 Q1731.12,100.125 1731.5888,100.7813 Q1732.0575,101.4375 1732.0575,102.3438 Q1732.0575,103.6094 1731.1669,104.3594 Q1729.9794,105.3594 1728.1513,105.3594 Q1727.4481,105.3594 1726.7763,105.1875 Q1726.12,105.0156 1725.4794,104.6719 Z " fill="#000000"/><text fill="#000000" font-family="sans-serif" font-size="14" lengthAdjust="spacing" textLength="78" x="1747.87" y="105.8379">basic_matrix</text><rect fill="#FFFFFF" height="17.0938" style="stroke:#181818;stroke-width:1.0;stroke-dasharray:2.0,2.0;" width="76" x="1911.12" y="81.1094"/><text fill="#000000" font-family="sans-serif" font-size="12" font-style="italic" lengthAdjust="spacing" textLength="74" x="1912.12" y="94.5664">T, Cols, Rows</text><line style="stroke:#181818;stroke-width:0.5;" x1="1636.12" x2="1983.12" y1="116.1094" y2="116.1094"/><ellipse cx="1646.12" cy="130.4141" fill="none" rx="3" ry="3" style="stroke:#038048;stroke-width:1.0;"/><text fill="#000000" font-family="sans-serif" font-size="14" lengthAdjust="spacing" textLength="323" x="1655.12" y="134.6426">columns : std::array&lt;basic_vector&lt;T, Rows&gt;, Cols&gt;</text><line style="stroke:#181818;stroke-width:0.5;" x1="1636.12" x2="1983.12" y1="141.7188" y2="141.7188"/><ellipse cx="1646.12" cy="156.0234" fill="#84BE84" rx="3" ry="3" style="stroke:#038048;stroke-width:1.0;"/><text fill="#000000" font-family="sans-serif" font-size="14" lengthAdjust="spacing" textLength="32" x="1655.12" y="160.252">row()</text><ellipse cx="1646.12" cy="173.6328" fill="#84BE84" rx="3" ry="3" style="stroke:#038048;stroke-width:1.0;"/><text fill="#000000" font-family="sans-serif" font-size="14" lengthAdjust="spacing" textLength="72" x="1655.12" y="177.8613">operator[]()</text><ellipse cx="1646.12" cy="191.2422" fill="#84BE84" rx="3" ry="3" style="stroke:#038048;stroke-width:1.0;"/><text fill="#000000" font-family="sans-serif" font-size="14" lengthAdjust="spacing" textLength="72" x="1655.12" y="195.4707">operator=()</text><ellipse cx="1646.12" cy="208.8516" fill="#84BE84" rx="3" ry="3" style="stroke:#038048;stroke-width:1.0;"/><text fill="#000000" font-family="sans-serif" font-size="14" lengthAdjust="spacing" textLength="38" x="1655.12" y="213.0801">data()</text><ellipse cx="1646.12" cy="226.4609" fill="#84BE84" rx="3" ry="3" style="stroke:#038048;stroke-width:1.0;"/><text fill="#000000" font-family="sans-serif" font-size="14" lengthAdjust="spacing" textLength="103" x="1655.12" y="230.6895">iterator access()</text><ellipse cx="1646.12" cy="244.0703" fill="#84BE84" rx="3" ry="3" style="stroke:#038048;stroke-width:1.0;"/><text fill="#000000" font-family="sans-serif" font-size="14" lengthAdjust="spacing" textLength="49" x="1655.12" y="248.2988">length()</text><ellipse cx="1646.12" cy="261.6797" fill="#84BE84" rx="3" ry="3" style="stroke:#038048;stroke-width:1.0;"/><text fill="#000000" font-family="sans-serif" font-size="14" lengthAdjust="spacing" textLength="102" x="1655.12" y="265.9082">column_length()</text><ellipse cx="1646.12" cy="279.2891" fill="#84BE84" rx="3" ry="3" style="stroke:#038048;stroke-width:1.0;"/><text fill="#000000" font-family="sans-serif" font-size="14" lengthAdjust="spacing" textLength="34" x="1655.12" y="283.5176">size()</text><ellipse cx="1646.12" cy="296.8984" fill="#84BE84" rx="3" ry="3" style="stroke:#038048;stroke-width:1.0;"/><text fill="#000000" font-family="sans-serif" font-size="14" lengthAdjust="spacing" textLength="87" x="1655.12" y="301.127">column_size()</text><ellipse cx="1646.12" cy="314.5078" fill="#84BE84" rx="3" ry="3" style="stroke:#038048;stroke-width:1.0;"/><text fill="#000000" font-family="sans-serif" font-size="14" lengthAdjust="spacing" textLength="42" x="1655.12" y="318.7363">swap()</text></g><!--reverse link vector_base to basic_vector--><g id="link_vector_base_basic_vector"><path codeLine="158" d="M1490.9391,296.8596 C1555.9391,339.4196 1619.54,384.0594 1685.62,438.6094 C1692.33,444.1394 1699.09,449.9794 1705.81,455.9694 " fill="none" id="vector_base-backto-basic_vector" style="stroke:#181818;stroke-width:1.0;"/><polygon fill="none" points="1475.88,286.9994,1487.6523,301.8793,1494.2258,291.8399,1475.88,286.9994" style="stroke:#181818;stroke-width:1.0;"/><text fill="#000000" font-family="sans-serif" font-size="13" lengthAdjust="spacing" textLength="80" x="1643.62" y="405.1045">CRTP inherits</text></g><!--reverse link vector_base to basic_view--><g id="link_vector_base_basic_view"><path codeLine="159" d="M1234.1161,374.4399 C1218.9361,391.8899 1214.23,394.7494 1196.62,408.6094 C1119.56,469.2694 1015.07,509.8594 937.29,533.9894 " fill="none" id="vector_base-backto-basic_view" style="stroke:#181818;stroke-width:1.0;"/><polygon fill="none" points="1245.93,360.8594,1229.5892,370.502,1238.6429,378.3779,1245.93,360.8594" style="stroke:#181818;stroke-width:1.0;"/><text fill="#000000" font-family="sans-serif" font-size="13" lengthAdjust="spacing" textLength="80" x="1218.62" y="405.1045">CRTP inherits</text></g><!--reverse link vector_base to indexed_vector--><g id="link_vector_base_indexed_vector"><path codeLine="160" d="M1491.1829,306.9936 C1532.2129,331.6236 1563.47,346.1294 1609.62,360.6094 C1692.13,386.4994 1934.59,331.3994 1997.62,390.6094 C2165.88,548.6594 2166.48,709.7094 2047.62,907.6094 C1997.9,990.3994 1900.55,1040.4594 1817.91,1069.5194 " fill="none" id="vector_base-backto-indexed_vector" style="stroke:#181818;stroke-width:1.0;"/><polygon fill="none" points="1475.75,297.7294,1488.0948,312.1379,1494.271,301.8493,1475.75,297.7294" style="stroke:#181818;stroke-width:1.0;"/><text fill="#000000" font-family="sans-serif" font-size="13" lengthAdjust="spacing" textLength="80" x="2125.62" y="757.6045">CRTP inherits</text></g><!--reverse link vector_base to indexed_view--><g id="link_vector_base_indexed_view"><path codeLine="161" d="M1327.0421,377.7253 C1321.0221,394.9853 1318.73,394.4294 1307.62,408.6094 C1287.75,433.9694 1261.84,413.5194 1241.62,438.6094 C1093.56,622.3694 1300.47,802.8194 1120.62,955.6094 C1071.41,997.4094 894.13,969.4594 831.62,985.6094 C782.68,998.2594 731.23,1018.0394 685.87,1037.9294 " fill="none" id="vector_base-backto-indexed_view" style="stroke:#181818;stroke-width:1.0;"/><polygon fill="none" points="1332.97,360.7294,1321.3768,375.7493,1332.7074,379.7012,1332.97,360.7294" style="stroke:#181818;stroke-width:1.0;"/><text fill="#000000" font-family="sans-serif" font-size="13" lengthAdjust="spacing" textLength="80" x="1200.62" y="757.6045">CRTP inherits</text></g><!--reverse link basic_view to view_vector--><g id="link_basic_view_view_vector"><path codeLine="162" d="M754.9165,704.5568 C750.7365,714.4368 753.91,707.8094 750.62,717.6094 C739.31,751.2894 732.89,791.2294 729.39,820.4094 " fill="none" id="basic_view-backto-view_vector" style="stroke:#181818;stroke-width:1.0;"/><polygon fill="none" points="761.93,687.9794,749.3907,702.2189,760.4423,706.8946,761.93,687.9794" style="stroke:#181818;stroke-width:1.0;"/></g><!--reverse link indexed_vector_const_iterator to indexed_vector_iterator--><g id="link_indexed_vector_const_iterator_indexed_vector_iterator"><path codeLine="163" d="M1455.2556,635.0859 C1448.1856,695.1459 1438.95,773.4494 1432.85,825.2694 " fill="none" id="indexed_vector_const_iterator-backto-indexed_vector_iterator" style="stroke:#181818;stroke-width:1.0;"/><polygon fill="none" points="1457.36,617.2094,1449.2968,634.3845,1461.2145,635.7874,1457.36,617.2094" style="stroke:#181818;stroke-width:1.0;"/><text fill="#000000" font-family="sans-serif" font-size="13" lengthAdjust="spacing" textLength="80" x="1446.62" y="757.6045">const_cast&lt;&gt;</text></g><!--reverse link indexed_view_const_iterator to indexed_view_iterator--><g id="link_indexed_view_const_iterator_indexed_view_iterator"><path codeLine="164" d="M402.7435,633.84 C377.8735,693.9 344.92,773.4494 323.47,825.2694 " fill="none" id="indexed_view_const_iterator-backto-indexed_view_iterator" style="stroke:#181818;stroke-width:1.0;"/><polygon fill="none" points="409.63,617.2094,397.2,631.5445,408.287,636.1355,409.63,617.2094" style="stroke:#181818;stroke-width:1.0;"/><text fill="#000000" font-family="sans-serif" font-size="13" lengthAdjust="spacing" textLength="80" x="367.62" y="757.6045">const_cast&lt;&gt;</text></g><!--reverse link CRTP duck type to basic_vector--><g id="link_CRTP duck type_basic_vector"><path codeLine="165" d="M1032.4432,290.6161 C1035.9732,336.4161 1047.55,376.4794 1087.62,408.6094 C1139.52,450.2294 1624.73,411.7994 1685.62,438.6094 C1696.09,443.2194 1706.18,449.1294 1715.76,455.8594 " fill="none" id="CRTP duck type-backto-basic_vector" style="stroke:#181818;stroke-width:1.0;stroke-dasharray:7.0,7.0;"/><polygon fill="none" points="1031.06,272.6694,1026.461,291.0772,1038.4255,290.1551,1031.06,272.6694" style="stroke:#181818;stroke-width:1.0;"/><text fill="#000000" font-family="sans-serif" font-size="13" lengthAdjust="spacing" textLength="99" x="1088.62" y="405.1045">duck implements</text></g><!--reverse link CRTP duck type to basic_view--><g id="link_CRTP duck type_basic_view"><path codeLine="166" d="M993.822,288.9799 C979.412,317.6299 968.55,334.3394 946.62,360.6094 C933.05,376.8594 922.65,373.9194 909.62,390.6094 C898.3,405.1094 888.1,421.4694 879.08,438.1894 " fill="none" id="CRTP duck type-backto-basic_view" style="stroke:#181818;stroke-width:1.0;stroke-dasharray:7.0,7.0;"/><polygon fill="none" points="1001.91,272.8994,988.4618,286.2839,999.1822,291.6759,1001.91,272.8994" style="stroke:#181818;stroke-width:1.0;"/><text fill="#000000" font-family="sans-serif" font-size="13" lengthAdjust="spacing" textLength="99" x="910.62" y="405.1045">duck implements</text></g><!--reverse link CRTP duck type to indexed_vector--><g id="link_CRTP duck type_indexed_vector"><path codeLine="167" d="M1027.0079,290.6192 C1020.6779,424.1892 1013.71,700.1394 1061.62,786.6094 C1072.99,807.1294 1214.22,896.0294 1234.62,907.6094 C1330.97,962.2894 1445.21,1013.2194 1533.27,1049.7294 " fill="none" id="CRTP duck type-backto-indexed_vector" style="stroke:#181818;stroke-width:1.0;stroke-dasharray:7.0,7.0;"/><polygon fill="none" points="1027.86,272.6394,1021.0146,290.3352,1033.0012,290.9032,1027.86,272.6394" style="stroke:#181818;stroke-width:1.0;"/><text fill="#000000" font-family="sans-serif" font-size="13" lengthAdjust="spacing" textLength="99" x="1062.62" y="757.6045">duck implements</text></g><!--reverse link CRTP duck type to indexed_view--><g id="link_CRTP duck type_indexed_view"><path codeLine="168" d="M1004.3606,289.3046 C991.1306,321.1846 977.4,340.0994 946.62,360.6094 C810.67,451.1894 338.93,331.4494 215.62,438.6094 C55.09,578.1194 6,728.4594 120.62,907.6094 C184.67,1007.7094 313.62,1057.9294 413.5,1082.6594 " fill="none" id="CRTP duck type-backto-indexed_view" style="stroke:#181818;stroke-width:1.0;stroke-dasharray:7.0,7.0;"/><polygon fill="none" points="1011.26,272.6794,998.8189,287.0048,1009.9024,291.6044,1011.26,272.6794" style="stroke:#181818;stroke-width:1.0;"/><text fill="#000000" font-family="sans-serif" font-size="13" lengthAdjust="spacing" textLength="99" x="67.62" y="757.6045">duck implements</text></g><!--reverse link basic_vector::anonymous_union to storage_wrapper--><g id="link_basic_vector::anonymous_union_storage_wrapper"><path codeLine="169" d="M2034.62,866.1094 C2096.73,866.1094 2114.15,931.7294 2128.09,994.2694 " fill="none" id="basic_vector::anonymous_union-backto-storage_wrapper" style="stroke:#181818;stroke-width:1.0;"/><polygon fill="#181818" points="2022.62,866.1094,2028.62,870.1094,2034.62,866.1094,2028.62,862.1094,2022.62,866.1094" style="stroke:#181818;stroke-width:1.0;"/><text fill="#000000" font-family="sans-serif" font-size="13" lengthAdjust="spacing" textLength="28" x="2115.62" y="952.1045">base</text><text fill="#000000" font-family="sans-serif" font-size="13" lengthAdjust="spacing" textLength="7" x="2029.6966" y="863.1251">1</text><text fill="#000000" font-family="sans-serif" font-size="13" lengthAdjust="spacing" textLength="7" x="2120.013" y="983.6878">1</text></g><!--reverse link basic_vector::anonymous_union to indexed_vector--><g id="link_basic_vector::anonymous_union_indexed_vector"><path codeLine="170" d="M1772.62,883.1094 C1742.19,883.1094 1724.1,951.0894 1703.27,1011.8894 " fill="none" id="basic_vector::anonymous_union-backto-indexed_vector" style="stroke:#181818;stroke-width:1.0;"/><polygon fill="#181818" points="1784.62,883.1094,1778.62,879.1094,1772.62,883.1094,1778.62,887.1094,1784.62,883.1094" style="stroke:#181818;stroke-width:1.0;"/><text fill="#000000" font-family="sans-serif" font-size="13" lengthAdjust="spacing" textLength="50" x="1732.62" y="952.1045">swizzles</text><text fill="#000000" font-family="sans-serif" font-size="13" lengthAdjust="spacing" textLength="7" x="1770.538" y="881.3599">1</text><text fill="#000000" font-family="sans-serif" font-size="13" lengthAdjust="spacing" textLength="32" x="1706.7484" y="1001.218">many</text></g><!--reverse link basic_vector to basic_vector::anonymous_union--><g id="link_basic_vector_basic_vector::anonymous_union"><path codeLine="171" d="M1923.62,504.1094 C1997.4,504.1094 1950.47,608.0194 1910.62,670.1094 C1883.61,712.1994 1835.5,675.4394 1808.62,717.6094 C1792.14,743.4694 1795.2,759.0294 1808.62,786.6094 C1814.03,797.7294 1821.99,807.6794 1831.05,816.4094 " fill="none" id="basic_vector-backto-basic_vector::anonymous_union" style="stroke:#181818;stroke-width:1.0;"/><polygon fill="#181818" points="1911.62,504.1094,1917.62,508.1094,1923.62,504.1094,1917.62,500.1094,1911.62,504.1094" style="stroke:#181818;stroke-width:1.0;"/><path d="M1813.62,722.6094 L1813.62,781.6094 L2034.62,781.6094 L2034.62,732.6094 L2024.62,722.6094 L1813.62,722.6094 " fill="#FEFFDD" style="stroke:#181818;stroke-width:0.5;"/><path d="M2024.62,722.6094 L2024.62,732.6094 L2034.62,732.6094 L2024.62,722.6094 " fill="#FEFFDD" style="stroke:#181818;stroke-width:0.5;"/><text fill="#000000" font-family="sans-serif" font-size="13" lengthAdjust="spacing" textLength="185" x="1819.62" y="741.1045">Nested anonymous union where</text><text fill="#000000" font-family="sans-serif" font-size="13" lengthAdjust="spacing" textLength="200" x="1819.62" y="757.4561">all members have a common initial</text><text fill="#000000" font-family="sans-serif" font-size="13" lengthAdjust="spacing" textLength="148" x="1819.62" y="773.8076">sequence with each other</text><text fill="#000000" font-family="sans-serif" font-size="13" lengthAdjust="spacing" textLength="7" x="1917.988" y="497.5176">1</text><text fill="#000000" font-family="sans-serif" font-size="13" lengthAdjust="spacing" textLength="7" x="1818.2259" y="809.7982">1</text></g><!--reverse link indexed_vector_const_iterator to indexed_vector--><g id="link_indexed_vector_const_iterator_indexed_vector"><path codeLine="177" d="M1673.62,557.1094 C1696.1,557.1094 1681.04,855.2794 1677.88,1011.9394 " fill="none" id="indexed_vector_const_iterator-backto-indexed_vector" style="stroke:#181818;stroke-width:1.0;"/><polygon fill="#181818" points="1661.62,557.1094,1667.62,561.1094,1673.62,557.1094,1667.62,553.1094,1661.62,557.1094" style="stroke:#181818;stroke-width:1.0;"/><text fill="#000000" font-family="sans-serif" font-size="13" lengthAdjust="spacing" textLength="65" x="1681.62" y="867.6045">mapper_ptr</text><text fill="#000000" font-family="sans-serif" font-size="13" lengthAdjust="spacing" textLength="7" x="1668.2958" y="553.6034">1</text><text fill="#000000" font-family="sans-serif" font-size="13" lengthAdjust="spacing" textLength="32" x="1644.7851" y="1001.272">many</text></g><!--reverse link indexed_vector_iterator to indexed_vector--><g id="link_indexed_vector_iterator_indexed_vector"><path codeLine="178" d="M1473.3625,907.0367 C1503.7125,936.8367 1539.91,972.3694 1580.38,1012.1094 " fill="none" id="indexed_vector_iterator-backto-indexed_vector" style="stroke:#181818;stroke-width:1.0;"/><polygon fill="#181818" points="1464.8,898.6294,1466.2788,905.6872,1473.3625,907.0367,1471.8837,899.9789,1464.8,898.6294" style="stroke:#181818;stroke-width:1.0;"/><text fill="#000000" font-family="sans-serif" font-size="13" lengthAdjust="spacing" textLength="65" x="1524.62" y="952.1045">mapper_ptr</text><text fill="#000000" font-family="sans-serif" font-size="13" lengthAdjust="spacing" textLength="7" x="1461.1701" y="916.7023">1</text><text fill="#000000" font-family="sans-serif" font-size="13" lengthAdjust="spacing" textLength="32" x="1539.1679" y="1001.1359">many</text></g><!--reverse link indexed_view_const_iterator to indexed_view--><g id="link_indexed_view_const_iterator_indexed_view"><path codeLine="179" d="M635.62,557.1094 C662.29,557.1094 626.48,590.7194 622.62,617.1094 C609.3,708.2394 581.86,725.7894 566.62,816.6094 C556.31,878.0694 552,947.7994 550.3,1003.3594 " fill="none" id="indexed_view_const_iterator-backto-indexed_view" style="stroke:#181818;stroke-width:1.0;"/><polygon fill="#181818" points="623.62,557.1094,629.62,561.1094,635.62,557.1094,629.62,553.1094,623.62,557.1094" style="stroke:#181818;stroke-width:1.0;"/><text fill="#000000" font-family="sans-serif" font-size="13" lengthAdjust="spacing" textLength="65" x="567.62" y="867.6045">mapper_ptr</text><text fill="#000000" font-family="sans-serif" font-size="13" lengthAdjust="spacing" textLength="7" x="629.8739" y="553.6034">1</text><text fill="#000000" font-family="sans-serif" font-size="13" lengthAdjust="spacing" textLength="32" x="517.1749" y="992.6797">many</text></g><!--reverse link indexed_view_iterator to indexed_view--><g id="link_indexed_view_iterator_indexed_view"><path codeLine="180" d="M352.3791,907.1408 C379.8391,934.7708 410.92,966.0394 448.01,1003.3594 " fill="none" id="indexed_view_iterator-backto-indexed_view" style="stroke:#181818;stroke-width:1.0;"/><polygon fill="#181818" points="343.92,898.6294,345.3124,905.7048,352.3791,907.1408,350.9867,900.0654,343.92,898.6294" style="stroke:#181818;stroke-width:1.0;"/><text fill="#000000" font-family="sans-serif" font-size="13" lengthAdjust="spacing" textLength="65" x="401.62" y="952.1045">mapper_ptr</text><text fill="#000000" font-family="sans-serif" font-size="13" lengthAdjust="spacing" textLength="7" x="340.1994" y="916.7023">1</text><text fill="#000000" font-family="sans-serif" font-size="13" lengthAdjust="spacing" textLength="32" x="407.373" y="992.6797">many</text></g><!--reverse link basic_view::anonymous_union to view_wrapper--><g id="link_basic_view::anonymous_union_view_wrapper"><path codeLine="181" d="M1079.62,866.1094 C1138.35,866.1094 1098.33,925.7494 1055.51,985.5094 " fill="none" id="basic_view::anonymous_union-backto-view_wrapper" style="stroke:#181818;stroke-width:1.0;"/><polygon fill="#181818" points="1067.62,866.1094,1073.62,870.1094,1079.62,866.1094,1073.62,862.1094,1067.62,866.1094" style="stroke:#181818;stroke-width:1.0;"/><text fill="#000000" font-family="sans-serif" font-size="13" lengthAdjust="spacing" textLength="28" x="1084.62" y="952.1045">base</text><text fill="#000000" font-family="sans-serif" font-size="13" lengthAdjust="spacing" textLength="7" x="1074.6497" y="863.1005">1</text><text fill="#000000" font-family="sans-serif" font-size="13" lengthAdjust="spacing" textLength="7" x="1054.749" y="974.7548">1</text></g><!--reverse link basic_view::anonymous_union to indexed_view--><g id="link_basic_view::anonymous_union_indexed_view"><path codeLine="182" d="M829.62,883.1094 C814.06,883.1094 828.45,897.5094 816.62,907.6094 C775.48,942.7394 728.66,978.6894 685.84,1010.1594 " fill="none" id="basic_view::anonymous_union-backto-indexed_view" style="stroke:#181818;stroke-width:1.0;"/><polygon fill="#181818" points="841.62,883.1094,835.62,879.1094,829.62,883.1094,835.62,887.1094,841.62,883.1094" style="stroke:#181818;stroke-width:1.0;"/><text fill="#000000" font-family="sans-serif" font-size="13" lengthAdjust="spacing" textLength="50" x="776.62" y="952.1045">swizzles</text><text fill="#000000" font-family="sans-serif" font-size="13" lengthAdjust="spacing" textLength="7" x="827.5208" y="881.4007">1</text><text fill="#000000" font-family="sans-serif" font-size="13" lengthAdjust="spacing" textLength="32" x="693.6888" y="1002.2654">many</text></g><!--reverse link basic_view to basic_view::anonymous_union--><g id="link_basic_view_basic_view::anonymous_union"><path codeLine="183" d="M717.62,487.1094 C628.51,487.1094 700.91,603.5994 730.62,687.6094 C736.31,703.7094 745.29,703.3094 754.62,717.6094 C773.51,746.5794 765.51,762.8294 790.62,786.6094 C803.45,798.7594 818.61,809.1694 834.43,818.0294 " fill="none" id="basic_view-backto-basic_view::anonymous_union" style="stroke:#181818;stroke-width:1.0;"/><polygon fill="#181818" points="729.62,487.1094,723.62,483.1094,717.62,487.1094,723.62,491.1094,729.62,487.1094" style="stroke:#181818;stroke-width:1.0;"/><path d="M795.62,722.6094 L795.62,781.6094 L1016.62,781.6094 L1016.62,732.6094 L1006.62,722.6094 L795.62,722.6094 " fill="#FEFFDD" style="stroke:#181818;stroke-width:0.5;"/><path d="M1006.62,722.6094 L1006.62,732.6094 L1016.62,732.6094 L1006.62,722.6094 " fill="#FEFFDD" style="stroke:#181818;stroke-width:0.5;"/><text fill="#000000" font-family="sans-serif" font-size="13" lengthAdjust="spacing" textLength="185" x="801.62" y="741.1045">Nested anonymous union where</text><text fill="#000000" font-family="sans-serif" font-size="13" lengthAdjust="spacing" textLength="200" x="801.62" y="757.4561">all members have a common initial</text><text fill="#000000" font-family="sans-serif" font-size="13" lengthAdjust="spacing" textLength="148" x="801.62" y="773.8076">sequence with each other</text><text fill="#000000" font-family="sans-serif" font-size="13" lengthAdjust="spacing" textLength="7" x="715.0192" y="478.4228">1</text><text fill="#000000" font-family="sans-serif" font-size="13" lengthAdjust="spacing" textLength="7" x="827.43" y="815.5245">1</text></g><!--reverse link CRTP duck type to vector_base--><g id="link_CRTP duck type_vector_base"><path codeLine="189" d="M1105.37,204.6094 C1139.26,204.6094 1175.47,204.6094 1215.31,204.6094 " fill="none" id="CRTP duck type-backto-vector_base" style="stroke:#181818;stroke-width:1.0;stroke-dasharray:7.0,7.0;"/><polygon fill="#181818" points="1099.37,204.6094,1108.37,208.6094,1104.37,204.6094,1108.37,200.6094,1099.37,204.6094" style="stroke:#181818;stroke-width:1.0;"/><text fill="#000000" font-family="sans-serif" font-size="13" lengthAdjust="spacing" textLength="80" x="1117.37" y="198.1045">Derived CRTP</text></g><!--reverse link basic_matrix to basic_vector--><g id="link_basic_matrix_basic_vector"><path codeLine="190" d="M1997.62,128.6094 C2138.44,128.6094 1996,327.7294 1897.3,456.0594 " fill="none" id="basic_matrix-backto-basic_vector" style="stroke:#181818;stroke-width:1.0;"/><polygon fill="#181818" points="1985.62,128.6094,1991.62,132.6094,1997.62,128.6094,1991.62,124.6094,1985.62,128.6094" style="stroke:#181818;stroke-width:1.0;"/><text fill="#000000" font-family="sans-serif" font-size="13" lengthAdjust="spacing" textLength="49" x="1939.62" y="405.1045">columns</text><text fill="#000000" font-family="sans-serif" font-size="13" lengthAdjust="spacing" textLength="7" x="1992.0708" y="123.0794">1</text><text fill="#000000" font-family="sans-serif" font-size="13" lengthAdjust="spacing" textLength="26" x="1873.9479" y="449.4175">Cols</text></g><!--SRC=[nLXBRziu43xBlsBWIzCy3FGgkBcabnvsKMG3x27e2hGqYeb8b9QauZXf__iEIT6IzV0ZhprP8cS-pNpyPaWw-AJkkG1PA9m4ckiCuHepfdaXr9AN2YxWAcDAmJVExYJB9m4Jej3M0APNrpS_8AdYUz3h4gUJu7aI16Vmp1PAInRhtw1Gdtpk3XObIgOBUVkpFvSmpVgZ2l-jKCJOd-7QOG6BOrJA6FoU11GYGeQfXY8T23EuAWYir1NBW0j2I5cCvq1U8976GcjIPGai47AMeB4gW45yTWQnyvq4A1BZGiJvSE01OuebMZ25CFzRSiqM6G7Vd0F12NqEtr3o1qmkFLKsj8Oa-zgZnyNV45CxRL5YnmR8eAaCnPrUrY-AFtaNfgB4XUC7oZ9Rryy4BlqpAI7r4SRjbvmB_yGUlN6Lruj0d5J42HS9Fc8IrTmGVKf7FjBv7rN3qLyKsuQfsMpsNMruoYasb56f9OHW8Jguywx_TsKWBk6qxMzz247f90m9BE5f6cbhiU4khKHizRypZMCJE1YUu-eTE2BKZsF8fF3M_519yRYprXldIf23wmpAzAQOUaoQKbafdmcJagrRVaQecwhh5PmV-5g_jsglKtR35QTMh1mCton3bv3NPT40dzp0wUVkc9F1PkPZScvj4Urbe_X58TPvKQceplNPnuir1dzwob2De512HsBKx2lwEhl3Q2MjoCUNm1ZY3hRVHbx7KZlMmFioiwLtS9PU7ExtzDWCsnyxGcZldFr8Y_0vtzoQuPzzoOzr-aCRcDtpNw4S2_g-dMcuLH-Pu8j4qqgk_UcFQa_TFfmpBVcZ2onJvt1Th9eyuoAhSj79eRlzM0_dxjAInUe5eH-WU1TED5O5zVHmNMmTHtzTN6otu_hCA9Pq2DHgtDgqtRsssqK3HpWGVD-y-RIpRfNs9DXveXmAfvcizHl5JEdvPGkgV-pgXpaEqxrYm3-psHRPv65dULvccACmEUvoSgGSvjAZ_aYtaM_jtBh3qAxazCiKJeabyzlPP0dIxSbxSFn-tM3bJAod_QoQZNqRqU9iHRBdq64lXvBVBUbsA23ZuduI0Fo9IcC26sjt78CLAHBDFCioo35Ve5ImP0zeReD5dfC95rnpbXaZtufWnVKIaCLBA3GXj2-BEzKRXgrJ_3v66jCUwjlXzGlZ84mdgb74LsBjE10EABDzKEdASXXYhoXTI3r9MhHHGGwVN_zdEVPwmtoszJT6wF-pi2tQP-fsq33qc-KcMxCZJhkjhxRw3m00]--></g></svg>