<svg xmlns="http://www.w3.org/2000/svg" xmlns:xlink="http://www.w3.org/1999/xlink" contentStyleType="text/css" height="1234px" preserveAspectRatio="none" style="width:2139px;height:1234px;background:#FFFFFF;" version="1.1" viewBox="0 0 2139 1234" width="2139px" zoomAndPan="magnify"><defs/><g><text fill="#000000" font-family="sans-serif" font-size="14" font-weight="bold" lengthAdjust="spacing" textLength="208" x="958.99" y="24.5332">Relationships - Class Diagram</text><!--class CRTP duck type--><g id="elem_CRTP duck type"><rect codeLine="3" fill="#F1F1F1" height="136.0469" id="CRTP duck type" rx="2.5" ry="2.5" style="stroke:#181818;stroke-width:0.5;" width="135" x="812.98" y="136.6094"/><ellipse cx="827.98" cy="152.6094" fill="#E3664A" rx="11" ry="11" style="stroke:#181818;stroke-width:1.0;"/><path d="M830.3238,150.1875 L830.3238,149.6719 Q830.3238,148.8438 829.8394,148.3438 Q829.3706,147.8438 828.6206,147.8438 Q828.0269,147.8438 827.4956,148.25 Q826.9644,148.6406 826.6988,149.2656 Q826.23,150.3594 826.23,151.4688 L826.23,153.9844 Q826.23,155.9063 827.0894,157.0313 Q827.6519,157.7813 828.6675,157.7813 Q829.2144,157.7813 829.6519,157.6406 Q830.105,157.5 830.355,157.25 Q830.605,157 830.8238,157 Q831.0894,157 831.2769,157.1875 Q831.4644,157.375 831.4644,157.6406 Q831.4644,158.0625 830.8863,158.4531 Q830.0581,159.0156 828.6206,159.0156 Q827.5269,159.0156 826.8081,158.5156 Q825.8863,157.875 825.4331,156.6094 Q824.98,155.3438 824.98,154.1094 L824.98,151.375 Q824.98,149.3906 825.9644,148 Q826.9488,146.5938 828.5894,146.5938 Q829.3394,146.5938 829.98,146.9063 Q830.6363,147.2031 831.105,147.9688 Q831.5738,148.7344 831.5738,149.6719 L831.5738,154.2031 Q831.9331,154.375 831.9331,154.7656 Q831.9331,155.0469 831.73,155.2344 Q831.5425,155.4063 831.0738,155.4063 L830.3238,155.4063 L830.3238,155.3594 Q829.9331,155.4219 829.7456,155.4219 Q828.7456,155.4219 827.9956,154.6875 Q827.2613,153.9375 827.2613,152.9375 Q827.2613,151.875 828.0738,151.0781 Q828.9019,150.2813 830.3238,150.1875 Z M830.3238,151.4688 Q829.4331,151.5625 828.9644,151.9844 Q828.5113,152.4063 828.5113,152.9531 Q828.5113,153.4375 828.8863,153.7813 Q829.2769,154.125 829.9175,154.125 Q830.0425,154.125 830.3238,154.1094 L830.3238,151.4688 Z " fill="#000000"/><text fill="#000000" font-family="sans-serif" font-size="14" lengthAdjust="spacing" textLength="103" x="841.98" y="158.3379">CRTP duck type</text><line style="stroke:#181818;stroke-width:0.5;" x1="813.98" x2="946.98" y1="168.6094" y2="168.6094"/><line style="stroke:#181818;stroke-width:0.5;" x1="813.98" x2="946.98" y1="176.6094" y2="176.6094"/><ellipse cx="823.98" cy="190.9141" fill="#84BE84" rx="3" ry="3" style="stroke:#038048;stroke-width:1.0;"/><text fill="#000000" font-family="sans-serif" font-size="14" font-style="italic" lengthAdjust="spacing" textLength="29" x="832.98" y="195.1426">set()</text><ellipse cx="823.98" cy="208.5234" fill="#84BE84" rx="3" ry="3" style="stroke:#038048;stroke-width:1.0;"/><text fill="#000000" font-family="sans-serif" font-size="14" font-style="italic" lengthAdjust="spacing" textLength="72" x="832.98" y="212.752">operator[]()</text><ellipse cx="823.98" cy="226.1328" fill="#84BE84" rx="3" ry="3" style="stroke:#038048;stroke-width:1.0;"/><text fill="#000000" font-family="sans-serif" font-size="14" font-style="italic" lengthAdjust="spacing" textLength="38" x="832.98" y="230.3613">data()</text><ellipse cx="823.98" cy="243.7422" fill="#84BE84" rx="3" ry="3" style="stroke:#038048;stroke-width:1.0;"/><text fill="#000000" font-family="sans-serif" font-size="14" font-style="italic" lengthAdjust="spacing" textLength="72" x="832.98" y="247.9707">sequence()</text><ellipse cx="823.98" cy="261.3516" fill="#84BE84" rx="3" ry="3" style="stroke:#038048;stroke-width:1.0;"/><text fill="#000000" font-family="sans-serif" font-size="14" font-style="italic" lengthAdjust="spacing" textLength="103" x="832.98" y="265.5801">iterator access()</text></g><g id="elem_GMN3"><path d="M556.98,183.1094 L556.98,225.8125 A0,0 0 0 0 556.98,225.8125 L777.98,225.8125 A0,0 0 0 0 777.98,225.8125 L777.98,208.6094 L812.92,204.6094 L777.98,200.6094 L777.98,193.1094 L767.98,183.1094 L556.98,183.1094 A0,0 0 0 0 556.98,183.1094 " fill="#FEFFDD" style="stroke:#181818;stroke-width:0.5;"/><path d="M767.98,183.1094 L767.98,193.1094 L777.98,193.1094 L767.98,183.1094 " fill="#FEFFDD" style="stroke:#181818;stroke-width:0.5;"/><text fill="#000000" font-family="sans-serif" font-size="13" lengthAdjust="spacing" textLength="177" x="562.98" y="201.6045">Conceptual interface, not real :</text><text fill="#000000" font-family="sans-serif" font-size="13" lengthAdjust="spacing" textLength="200" x="562.98" y="217.9561">Could be made into a c++ concept</text></g><!--class vector_base--><g id="elem_vector_base"><rect codeLine="15" fill="#F1F1F1" height="312.1406" id="vector_base" rx="2.5" ry="2.5" style="stroke:#181818;stroke-width:0.5;" width="260" x="1064.48" y="48.6094"/><ellipse cx="1079.48" cy="64.6094" fill="#A9DCDF" rx="11" ry="11" style="stroke:#181818;stroke-width:1.0;"/><path d="M1081.6675,66.375 L1077.5269,66.375 L1077.105,67.4063 L1077.5269,67.4063 Q1078.1363,67.4063 1078.4019,67.6406 Q1078.6675,67.875 1078.6675,68.2656 Q1078.6675,68.6406 1078.4019,68.875 Q1078.1363,69.1094 1077.5269,69.1094 L1075.23,69.1094 Q1074.6206,69.1094 1074.3706,68.875 Q1074.105,68.6406 1074.105,68.25 Q1074.105,67.875 1074.3863,67.6406 Q1074.6519,67.3906 1075.2769,67.4063 L1077.9488,60.75 L1076.8394,60.75 Q1076.23,60.75 1075.9644,60.5156 Q1075.6988,60.2813 1075.6988,59.8906 Q1075.6988,59.5156 1075.9644,59.2813 Q1076.23,59.0469 1076.8394,59.0469 L1080.5113,59.0469 L1083.9019,67.4063 Q1084.4956,67.4063 1084.6831,67.5469 Q1085.0738,67.8125 1085.0738,68.2656 Q1085.0738,68.6406 1084.8081,68.875 Q1084.5581,69.1094 1083.9488,69.1094 L1081.6519,69.1094 Q1081.0425,69.1094 1080.7769,68.875 Q1080.5113,68.6406 1080.5113,68.25 Q1080.5113,67.875 1080.7769,67.6406 Q1081.0425,67.4063 1081.6519,67.4063 L1082.0738,67.4063 L1081.6675,66.375 Z M1080.9488,64.6719 L1079.5894,61.2969 L1078.2144,64.6719 L1080.9488,64.6719 Z " fill="#000000"/><text fill="#000000" font-family="sans-serif" font-size="14" font-style="italic" lengthAdjust="spacing" textLength="77" x="1093.48" y="70.3379">vector_base</text><rect fill="#FFFFFF" height="17.0938" style="stroke:#181818;stroke-width:1.0;stroke-dasharray:2.0,2.0;" width="149" x="1178.48" y="45.6094"/><text fill="#000000" font-family="sans-serif" font-size="12" font-style="italic" lengthAdjust="spacing" textLength="147" x="1179.48" y="59.0664">Writable, T, Count, Derived</text><line style="stroke:#181818;stroke-width:0.5;" x1="1065.48" x2="1323.48" y1="80.6094" y2="80.6094"/><line style="stroke:#181818;stroke-width:0.5;" x1="1065.48" x2="1323.48" y1="88.6094" y2="88.6094"/><ellipse cx="1075.48" cy="102.9141" fill="#84BE84" rx="3" ry="3" style="stroke:#038048;stroke-width:1.0;"/><text fill="#000000" font-family="sans-serif" font-size="14" lengthAdjust="spacing" textLength="71" x="1084.48" y="107.1426">CRTP set()</text><ellipse cx="1075.48" cy="120.5234" fill="#84BE84" rx="3" ry="3" style="stroke:#038048;stroke-width:1.0;"/><text fill="#000000" font-family="sans-serif" font-size="14" lengthAdjust="spacing" textLength="114" x="1084.48" y="124.752">CRTP operator[]()</text><ellipse cx="1075.48" cy="138.1328" fill="#84BE84" rx="3" ry="3" style="stroke:#038048;stroke-width:1.0;"/><text fill="#000000" font-family="sans-serif" font-size="14" lengthAdjust="spacing" textLength="80" x="1084.48" y="142.3613">CRTP data()</text><ellipse cx="1075.48" cy="155.7422" fill="#84BE84" rx="3" ry="3" style="stroke:#038048;stroke-width:1.0;"/><text fill="#000000" font-family="sans-serif" font-size="14" lengthAdjust="spacing" textLength="114" x="1084.48" y="159.9707">CRTP sequence()</text><ellipse cx="1075.48" cy="173.3516" fill="#84BE84" rx="3" ry="3" style="stroke:#038048;stroke-width:1.0;"/><text fill="#000000" font-family="sans-serif" font-size="14" lengthAdjust="spacing" textLength="145" x="1084.48" y="177.5801">CRTP iterator access()</text><ellipse cx="1075.48" cy="190.9609" fill="#84BE84" rx="3" ry="3" style="stroke:#038048;stroke-width:1.0;"/><text fill="#000000" font-family="sans-serif" font-size="14" lengthAdjust="spacing" textLength="49" x="1084.48" y="195.1895">length()</text><ellipse cx="1075.48" cy="208.5703" fill="#84BE84" rx="3" ry="3" style="stroke:#038048;stroke-width:1.0;"/><text fill="#000000" font-family="sans-serif" font-size="14" lengthAdjust="spacing" textLength="34" x="1084.48" y="212.7988">size()</text><ellipse cx="1075.48" cy="226.1797" fill="#84BE84" rx="3" ry="3" style="stroke:#038048;stroke-width:1.0;"/><text fill="#000000" font-family="sans-serif" font-size="14" lengthAdjust="spacing" textLength="80" x="1084.48" y="230.4082">as_derived()</text><ellipse cx="1075.48" cy="243.7891" fill="#84BE84" rx="3" ry="3" style="stroke:#038048;stroke-width:1.0;"/><text fill="#000000" font-family="sans-serif" font-size="14" lengthAdjust="spacing" textLength="44" x="1084.48" y="248.0176">apply()</text><ellipse cx="1075.48" cy="261.3984" fill="#84BE84" rx="3" ry="3" style="stroke:#038048;stroke-width:1.0;"/><text fill="#000000" font-family="sans-serif" font-size="14" lengthAdjust="spacing" textLength="46" x="1084.48" y="265.627">query()</text><ellipse cx="1075.48" cy="279.0078" fill="#84BE84" rx="3" ry="3" style="stroke:#038048;stroke-width:1.0;"/><text fill="#000000" font-family="sans-serif" font-size="14" lengthAdjust="spacing" textLength="36" x="1084.48" y="283.2363">shift()</text><ellipse cx="1075.48" cy="296.6172" fill="#84BE84" rx="3" ry="3" style="stroke:#038048;stroke-width:1.0;"/><text fill="#000000" font-family="sans-serif" font-size="14" lengthAdjust="spacing" textLength="43" x="1084.48" y="300.8457">cshift()</text><ellipse cx="1075.48" cy="314.2266" fill="#84BE84" rx="3" ry="3" style="stroke:#038048;stroke-width:1.0;"/><text fill="#000000" font-family="sans-serif" font-size="14" lengthAdjust="spacing" textLength="32" x="1084.48" y="318.4551">min()</text><ellipse cx="1075.48" cy="331.8359" fill="#84BE84" rx="3" ry="3" style="stroke:#038048;stroke-width:1.0;"/><text fill="#000000" font-family="sans-serif" font-size="14" lengthAdjust="spacing" textLength="35" x="1084.48" y="336.0645">max()</text><ellipse cx="1075.48" cy="349.4453" fill="#84BE84" rx="3" ry="3" style="stroke:#038048;stroke-width:1.0;"/><text fill="#000000" font-family="sans-serif" font-size="14" lengthAdjust="spacing" textLength="36" x="1084.48" y="353.6738">sum()</text></g><!--class indexed_vector_const_iterator--><g id="elem_indexed_vector_const_iterator"><rect codeLine="33" fill="#F1F1F1" height="100.8281" id="indexed_vector_const_iterator" rx="2.5" ry="2.5" style="stroke:#181818;stroke-width:0.5;" width="393" x="1198.98" y="504.6094"/><ellipse cx="1242.78" cy="520.6094" fill="#F1F1F1" rx="11" ry="11" style="stroke:#181818;stroke-width:1.0;"/><path d="M1240.8894,525.1719 Q1240.6706,525.4375 1240.53,525.5156 Q1240.3894,525.5938 1240.2019,525.5938 Q1239.8113,525.5938 1239.5613,525.3281 Q1239.3269,525.0625 1239.3269,524.4688 L1239.3269,523.3125 Q1239.3269,522.7031 1239.5613,522.4531 Q1239.8113,522.1875 1240.2019,522.1875 Q1240.4988,522.1875 1240.7019,522.3438 Q1240.905,522.5 1241.0144,522.875 Q1241.1238,523.2344 1241.2331,523.375 Q1241.4831,523.625 1242.0925,523.8906 Q1242.7019,524.1563 1243.4363,524.1563 Q1244.5769,524.1563 1245.2956,523.625 Q1245.7644,523.2969 1245.7644,522.8281 Q1245.7644,522.5156 1245.5456,522.2344 Q1245.3269,521.9531 1244.8113,521.7813 Q1244.4831,521.6563 1243.3269,521.4375 Q1241.9363,521.1719 1241.2175,520.8125 Q1240.4988,520.4531 1240.0769,519.7969 Q1239.6706,519.125 1239.6706,518.3438 Q1239.6706,517.125 1240.6863,516.2188 Q1241.7175,515.2969 1243.3581,515.2969 Q1244.0144,515.2969 1244.5613,515.4375 Q1245.1238,515.5781 1245.5925,515.875 Q1245.9206,515.5625 1246.2488,515.5625 Q1246.6238,515.5625 1246.8581,515.8281 Q1247.0925,516.0781 1247.0925,516.6875 L1247.0925,517.9688 Q1247.0925,518.5781 1246.8581,518.8438 Q1246.6238,519.0938 1246.2488,519.0938 Q1245.9363,519.0938 1245.7019,518.9063 Q1245.5144,518.7656 1245.4206,518.3438 Q1245.3425,517.9219 1245.2019,517.7344 Q1244.9519,517.4219 1244.4675,517.2188 Q1243.9988,517 1243.3581,517 Q1242.4363,517 1241.905,517.4219 Q1241.3738,517.8438 1241.3738,518.3125 Q1241.3738,518.625 1241.5925,518.9219 Q1241.8113,519.2188 1242.2331,519.3906 Q1242.5144,519.5 1243.8113,519.7656 Q1245.1238,520.0156 1245.8269,520.3281 Q1246.53,520.625 1246.9988,521.2813 Q1247.4675,521.9375 1247.4675,522.8438 Q1247.4675,524.1094 1246.5769,524.8594 Q1245.3894,525.8594 1243.5613,525.8594 Q1242.8581,525.8594 1242.1863,525.6875 Q1241.53,525.5156 1240.8894,525.1719 Z " fill="#000000"/><text fill="#000000" font-family="sans-serif" font-size="14" lengthAdjust="spacing" textLength="191" x="1263.18" y="526.3379">indexed_vector_const_iterator</text><rect fill="#FFFFFF" height="17.0938" style="stroke:#181818;stroke-width:1.0;stroke-dasharray:2.0,2.0;" width="104" x="1490.98" y="501.6094"/><text fill="#000000" font-family="sans-serif" font-size="12" font-style="italic" lengthAdjust="spacing" textLength="102" x="1491.98" y="515.0664">T, Size, Count, ...Is</text><line style="stroke:#181818;stroke-width:0.5;" x1="1199.98" x2="1590.98" y1="536.6094" y2="536.6094"/><ellipse cx="1209.98" cy="550.9141" fill="none" rx="3" ry="3" style="stroke:#038048;stroke-width:1.0;"/><text fill="#000000" font-family="sans-serif" font-size="14" lengthAdjust="spacing" textLength="367" x="1218.98" y="555.1426">mapper_ptr : const indexed_vector&lt;T, Size, Count, Is ...&gt; *</text><ellipse cx="1209.98" cy="568.5234" fill="none" rx="3" ry="3" style="stroke:#038048;stroke-width:1.0;"/><text fill="#000000" font-family="sans-serif" font-size="14" lengthAdjust="spacing" textLength="176" x="1218.98" y="572.752">mapper_index : std::ptrdiff_t</text><line style="stroke:#181818;stroke-width:0.5;" x1="1199.98" x2="1590.98" y1="579.8281" y2="579.8281"/><ellipse cx="1209.98" cy="594.1328" fill="#84BE84" rx="3" ry="3" style="stroke:#038048;stroke-width:1.0;"/><text fill="#000000" font-family="sans-serif" font-size="14" lengthAdjust="spacing" textLength="116" x="1218.98" y="598.3613">iterator functions()</text></g><!--class indexed_vector_iterator--><g id="elem_indexed_vector_iterator"><rect codeLine="39" fill="#F1F1F1" height="65.6094" id="indexed_vector_iterator" rx="2.5" ry="2.5" style="stroke:#181818;stroke-width:0.5;" width="287" x="1198.98" y="812.6094"/><ellipse cx="1213.98" cy="828.6094" fill="#F1F1F1" rx="11" ry="11" style="stroke:#181818;stroke-width:1.0;"/><path d="M1212.0894,833.1719 Q1211.8706,833.4375 1211.73,833.5156 Q1211.5894,833.5938 1211.4019,833.5938 Q1211.0113,833.5938 1210.7613,833.3281 Q1210.5269,833.0625 1210.5269,832.4688 L1210.5269,831.3125 Q1210.5269,830.7031 1210.7613,830.4531 Q1211.0113,830.1875 1211.4019,830.1875 Q1211.6988,830.1875 1211.9019,830.3438 Q1212.105,830.5 1212.2144,830.875 Q1212.3238,831.2344 1212.4331,831.375 Q1212.6831,831.625 1213.2925,831.8906 Q1213.9019,832.1563 1214.6363,832.1563 Q1215.7769,832.1563 1216.4956,831.625 Q1216.9644,831.2969 1216.9644,830.8281 Q1216.9644,830.5156 1216.7456,830.2344 Q1216.5269,829.9531 1216.0113,829.7813 Q1215.6831,829.6563 1214.5269,829.4375 Q1213.1363,829.1719 1212.4175,828.8125 Q1211.6988,828.4531 1211.2769,827.7969 Q1210.8706,827.125 1210.8706,826.3438 Q1210.8706,825.125 1211.8863,824.2188 Q1212.9175,823.2969 1214.5581,823.2969 Q1215.2144,823.2969 1215.7613,823.4375 Q1216.3238,823.5781 1216.7925,823.875 Q1217.1206,823.5625 1217.4488,823.5625 Q1217.8238,823.5625 1218.0581,823.8281 Q1218.2925,824.0781 1218.2925,824.6875 L1218.2925,825.9688 Q1218.2925,826.5781 1218.0581,826.8438 Q1217.8238,827.0938 1217.4488,827.0938 Q1217.1363,827.0938 1216.9019,826.9063 Q1216.7144,826.7656 1216.6206,826.3438 Q1216.5425,825.9219 1216.4019,825.7344 Q1216.1519,825.4219 1215.6675,825.2188 Q1215.1988,825 1214.5581,825 Q1213.6363,825 1213.105,825.4219 Q1212.5738,825.8438 1212.5738,826.3125 Q1212.5738,826.625 1212.7925,826.9219 Q1213.0113,827.2188 1213.4331,827.3906 Q1213.7144,827.5 1215.0113,827.7656 Q1216.3238,828.0156 1217.0269,828.3281 Q1217.73,828.625 1218.1988,829.2813 Q1218.6675,829.9375 1218.6675,830.8438 Q1218.6675,832.1094 1217.7769,832.8594 Q1216.5894,833.8594 1214.7613,833.8594 Q1214.0581,833.8594 1213.3863,833.6875 Q1212.73,833.5156 1212.0894,833.1719 Z " fill="#000000"/><text fill="#000000" font-family="sans-serif" font-size="14" lengthAdjust="spacing" textLength="149" x="1227.98" y="834.3379">indexed_vector_iterator</text><rect fill="#FFFFFF" height="17.0938" style="stroke:#181818;stroke-width:1.0;stroke-dasharray:2.0,2.0;" width="104" x="1384.98" y="809.6094"/><text fill="#000000" font-family="sans-serif" font-size="12" font-style="italic" lengthAdjust="spacing" textLength="102" x="1385.98" y="823.0664">T, Size, Count, ...Is</text><line style="stroke:#181818;stroke-width:0.5;" x1="1199.98" x2="1484.98" y1="844.6094" y2="844.6094"/><line style="stroke:#181818;stroke-width:0.5;" x1="1199.98" x2="1484.98" y1="852.6094" y2="852.6094"/><ellipse cx="1209.98" cy="866.9141" fill="#84BE84" rx="3" ry="3" style="stroke:#038048;stroke-width:1.0;"/><text fill="#000000" font-family="sans-serif" font-size="14" lengthAdjust="spacing" textLength="116" x="1218.98" y="871.1426">iterator functions()</text></g><!--class indexed_view_const_iterator--><g id="elem_indexed_view_const_iterator"><rect codeLine="43" fill="#F1F1F1" height="100.8281" id="indexed_view_const_iterator" rx="2.5" ry="2.5" style="stroke:#181818;stroke-width:0.5;" width="381" x="172.98" y="504.6094"/><ellipse cx="216.78" cy="520.6094" fill="#F1F1F1" rx="11" ry="11" style="stroke:#181818;stroke-width:1.0;"/><path d="M214.8894,525.1719 Q214.6706,525.4375 214.53,525.5156 Q214.3894,525.5938 214.2019,525.5938 Q213.8113,525.5938 213.5613,525.3281 Q213.3269,525.0625 213.3269,524.4688 L213.3269,523.3125 Q213.3269,522.7031 213.5613,522.4531 Q213.8113,522.1875 214.2019,522.1875 Q214.4988,522.1875 214.7019,522.3438 Q214.905,522.5 215.0144,522.875 Q215.1238,523.2344 215.2331,523.375 Q215.4831,523.625 216.0925,523.8906 Q216.7019,524.1563 217.4363,524.1563 Q218.5769,524.1563 219.2956,523.625 Q219.7644,523.2969 219.7644,522.8281 Q219.7644,522.5156 219.5456,522.2344 Q219.3269,521.9531 218.8113,521.7813 Q218.4831,521.6563 217.3269,521.4375 Q215.9363,521.1719 215.2175,520.8125 Q214.4988,520.4531 214.0769,519.7969 Q213.6706,519.125 213.6706,518.3438 Q213.6706,517.125 214.6863,516.2188 Q215.7175,515.2969 217.3581,515.2969 Q218.0144,515.2969 218.5613,515.4375 Q219.1238,515.5781 219.5925,515.875 Q219.9206,515.5625 220.2488,515.5625 Q220.6238,515.5625 220.8581,515.8281 Q221.0925,516.0781 221.0925,516.6875 L221.0925,517.9688 Q221.0925,518.5781 220.8581,518.8438 Q220.6238,519.0938 220.2488,519.0938 Q219.9363,519.0938 219.7019,518.9063 Q219.5144,518.7656 219.4206,518.3438 Q219.3425,517.9219 219.2019,517.7344 Q218.9519,517.4219 218.4675,517.2188 Q217.9988,517 217.3581,517 Q216.4363,517 215.905,517.4219 Q215.3738,517.8438 215.3738,518.3125 Q215.3738,518.625 215.5925,518.9219 Q215.8113,519.2188 216.2331,519.3906 Q216.5144,519.5 217.8113,519.7656 Q219.1238,520.0156 219.8269,520.3281 Q220.53,520.625 220.9988,521.2813 Q221.4675,521.9375 221.4675,522.8438 Q221.4675,524.1094 220.5769,524.8594 Q219.3894,525.8594 217.5613,525.8594 Q216.8581,525.8594 216.1863,525.6875 Q215.53,525.5156 214.8894,525.1719 Z " fill="#000000"/><text fill="#000000" font-family="sans-serif" font-size="14" lengthAdjust="spacing" textLength="179" x="237.18" y="526.3379">indexed_view_const_iterator</text><rect fill="#FFFFFF" height="17.0938" style="stroke:#181818;stroke-width:1.0;stroke-dasharray:2.0,2.0;" width="104" x="452.98" y="501.6094"/><text fill="#000000" font-family="sans-serif" font-size="12" font-style="italic" lengthAdjust="spacing" textLength="102" x="453.98" y="515.0664">T, Size, Count, ...Is</text><line style="stroke:#181818;stroke-width:0.5;" x1="173.98" x2="552.98" y1="536.6094" y2="536.6094"/><ellipse cx="183.98" cy="550.9141" fill="none" rx="3" ry="3" style="stroke:#038048;stroke-width:1.0;"/><text fill="#000000" font-family="sans-serif" font-size="14" lengthAdjust="spacing" textLength="355" x="192.98" y="555.1426">mapper_ptr : const indexed_view&lt;T, Size, Count, Is ...&gt; *</text><ellipse cx="183.98" cy="568.5234" fill="none" rx="3" ry="3" style="stroke:#038048;stroke-width:1.0;"/><text fill="#000000" font-family="sans-serif" font-size="14" lengthAdjust="spacing" textLength="176" x="192.98" y="572.752">mapper_index : std::ptrdiff_t</text><line style="stroke:#181818;stroke-width:0.5;" x1="173.98" x2="552.98" y1="579.8281" y2="579.8281"/><ellipse cx="183.98" cy="594.1328" fill="#84BE84" rx="3" ry="3" style="stroke:#038048;stroke-width:1.0;"/><text fill="#000000" font-family="sans-serif" font-size="14" lengthAdjust="spacing" textLength="116" x="192.98" y="598.3613">iterator functions()</text></g><!--class indexed_view_iterator--><g id="elem_indexed_view_iterator"><rect codeLine="49" fill="#F1F1F1" height="65.6094" id="indexed_view_iterator" rx="2.5" ry="2.5" style="stroke:#181818;stroke-width:0.5;" width="275" x="134.98" y="812.6094"/><ellipse cx="149.98" cy="828.6094" fill="#F1F1F1" rx="11" ry="11" style="stroke:#181818;stroke-width:1.0;"/><path d="M148.0894,833.1719 Q147.8706,833.4375 147.73,833.5156 Q147.5894,833.5938 147.4019,833.5938 Q147.0113,833.5938 146.7613,833.3281 Q146.5269,833.0625 146.5269,832.4688 L146.5269,831.3125 Q146.5269,830.7031 146.7613,830.4531 Q147.0113,830.1875 147.4019,830.1875 Q147.6988,830.1875 147.9019,830.3438 Q148.105,830.5 148.2144,830.875 Q148.3238,831.2344 148.4331,831.375 Q148.6831,831.625 149.2925,831.8906 Q149.9019,832.1563 150.6363,832.1563 Q151.7769,832.1563 152.4956,831.625 Q152.9644,831.2969 152.9644,830.8281 Q152.9644,830.5156 152.7456,830.2344 Q152.5269,829.9531 152.0113,829.7813 Q151.6831,829.6563 150.5269,829.4375 Q149.1363,829.1719 148.4175,828.8125 Q147.6988,828.4531 147.2769,827.7969 Q146.8706,827.125 146.8706,826.3438 Q146.8706,825.125 147.8863,824.2188 Q148.9175,823.2969 150.5581,823.2969 Q151.2144,823.2969 151.7613,823.4375 Q152.3238,823.5781 152.7925,823.875 Q153.1206,823.5625 153.4488,823.5625 Q153.8238,823.5625 154.0581,823.8281 Q154.2925,824.0781 154.2925,824.6875 L154.2925,825.9688 Q154.2925,826.5781 154.0581,826.8438 Q153.8238,827.0938 153.4488,827.0938 Q153.1363,827.0938 152.9019,826.9063 Q152.7144,826.7656 152.6206,826.3438 Q152.5425,825.9219 152.4019,825.7344 Q152.1519,825.4219 151.6675,825.2188 Q151.1988,825 150.5581,825 Q149.6363,825 149.105,825.4219 Q148.5738,825.8438 148.5738,826.3125 Q148.5738,826.625 148.7925,826.9219 Q149.0113,827.2188 149.4331,827.3906 Q149.7144,827.5 151.0113,827.7656 Q152.3238,828.0156 153.0269,828.3281 Q153.73,828.625 154.1988,829.2813 Q154.6675,829.9375 154.6675,830.8438 Q154.6675,832.1094 153.7769,832.8594 Q152.5894,833.8594 150.7613,833.8594 Q150.0581,833.8594 149.3863,833.6875 Q148.73,833.5156 148.0894,833.1719 Z " fill="#000000"/><text fill="#000000" font-family="sans-serif" font-size="14" lengthAdjust="spacing" textLength="137" x="163.98" y="834.3379">indexed_view_iterator</text><rect fill="#FFFFFF" height="17.0938" style="stroke:#181818;stroke-width:1.0;stroke-dasharray:2.0,2.0;" width="104" x="308.98" y="809.6094"/><text fill="#000000" font-family="sans-serif" font-size="12" font-style="italic" lengthAdjust="spacing" textLength="102" x="309.98" y="823.0664">T, Size, Count, ...Is</text><line style="stroke:#181818;stroke-width:0.5;" x1="135.98" x2="408.98" y1="844.6094" y2="844.6094"/><line style="stroke:#181818;stroke-width:0.5;" x1="135.98" x2="408.98" y1="852.6094" y2="852.6094"/><ellipse cx="145.98" cy="866.9141" fill="#84BE84" rx="3" ry="3" style="stroke:#038048;stroke-width:1.0;"/><text fill="#000000" font-family="sans-serif" font-size="14" lengthAdjust="spacing" textLength="116" x="154.98" y="871.1426">iterator functions()</text></g><!--class basic_vector--><g id="elem_basic_vector"><rect codeLine="53" fill="#F1F1F1" height="206.4844" id="basic_vector" rx="2.5" ry="2.5" style="stroke:#181818;stroke-width:0.5;" width="199" x="1642.98" y="451.6094"/><ellipse cx="1678.23" cy="467.6094" fill="#F1F1F1" rx="11" ry="11" style="stroke:#181818;stroke-width:1.0;"/><path d="M1676.3394,472.1719 Q1676.1206,472.4375 1675.98,472.5156 Q1675.8394,472.5938 1675.6519,472.5938 Q1675.2613,472.5938 1675.0113,472.3281 Q1674.7769,472.0625 1674.7769,471.4688 L1674.7769,470.3125 Q1674.7769,469.7031 1675.0113,469.4531 Q1675.2613,469.1875 1675.6519,469.1875 Q1675.9488,469.1875 1676.1519,469.3438 Q1676.355,469.5 1676.4644,469.875 Q1676.5738,470.2344 1676.6831,470.375 Q1676.9331,470.625 1677.5425,470.8906 Q1678.1519,471.1563 1678.8863,471.1563 Q1680.0269,471.1563 1680.7456,470.625 Q1681.2144,470.2969 1681.2144,469.8281 Q1681.2144,469.5156 1680.9956,469.2344 Q1680.7769,468.9531 1680.2613,468.7813 Q1679.9331,468.6563 1678.7769,468.4375 Q1677.3863,468.1719 1676.6675,467.8125 Q1675.9488,467.4531 1675.5269,466.7969 Q1675.1206,466.125 1675.1206,465.3438 Q1675.1206,464.125 1676.1363,463.2188 Q1677.1675,462.2969 1678.8081,462.2969 Q1679.4644,462.2969 1680.0113,462.4375 Q1680.5738,462.5781 1681.0425,462.875 Q1681.3706,462.5625 1681.6988,462.5625 Q1682.0738,462.5625 1682.3081,462.8281 Q1682.5425,463.0781 1682.5425,463.6875 L1682.5425,464.9688 Q1682.5425,465.5781 1682.3081,465.8438 Q1682.0738,466.0938 1681.6988,466.0938 Q1681.3863,466.0938 1681.1519,465.9063 Q1680.9644,465.7656 1680.8706,465.3438 Q1680.7925,464.9219 1680.6519,464.7344 Q1680.4019,464.4219 1679.9175,464.2188 Q1679.4488,464 1678.8081,464 Q1677.8863,464 1677.355,464.4219 Q1676.8238,464.8438 1676.8238,465.3125 Q1676.8238,465.625 1677.0425,465.9219 Q1677.2613,466.2188 1677.6831,466.3906 Q1677.9644,466.5 1679.2613,466.7656 Q1680.5738,467.0156 1681.2769,467.3281 Q1681.98,467.625 1682.4488,468.2813 Q1682.9175,468.9375 1682.9175,469.8438 Q1682.9175,471.1094 1682.0269,471.8594 Q1680.8394,472.8594 1679.0113,472.8594 Q1678.3081,472.8594 1677.6363,472.6875 Q1676.98,472.5156 1676.3394,472.1719 Z " fill="#000000"/><text fill="#000000" font-family="sans-serif" font-size="14" lengthAdjust="spacing" textLength="80" x="1696.73" y="473.3379">basic_vector</text><rect fill="#FFFFFF" height="17.0938" style="stroke:#181818;stroke-width:1.0;stroke-dasharray:2.0,2.0;" width="40" x="1804.98" y="448.6094"/><text fill="#000000" font-family="sans-serif" font-size="12" font-style="italic" lengthAdjust="spacing" textLength="38" x="1805.98" y="462.0664">T, Size</text><line style="stroke:#181818;stroke-width:0.5;" x1="1643.98" x2="1840.98" y1="483.6094" y2="483.6094"/><ellipse cx="1653.98" cy="497.9141" fill="none" rx="3" ry="3" style="stroke:#038048;stroke-width:1.0;"/><text fill="#000000" font-family="sans-serif" font-size="14" lengthAdjust="spacing" textLength="35" x="1662.98" y="502.1426">union</text><ellipse cx="1653.98" cy="515.5234" fill="none" rx="3" ry="3" style="stroke:#038048;stroke-width:1.0;"/><text fill="#000000" font-family="sans-serif" font-size="14" lengthAdjust="spacing" text-decoration="underline" textLength="173" x="1662.98" y="519.752">offsets : std::array&lt;T, Size&gt;</text><line style="stroke:#181818;stroke-width:0.5;" x1="1643.98" x2="1840.98" y1="526.8281" y2="526.8281"/><ellipse cx="1653.98" cy="541.1328" fill="#84BE84" rx="3" ry="3" style="stroke:#038048;stroke-width:1.0;"/><text fill="#000000" font-family="sans-serif" font-size="14" lengthAdjust="spacing" textLength="29" x="1662.98" y="545.3613">set()</text><ellipse cx="1653.98" cy="558.7422" fill="#84BE84" rx="3" ry="3" style="stroke:#038048;stroke-width:1.0;"/><text fill="#000000" font-family="sans-serif" font-size="14" lengthAdjust="spacing" textLength="72" x="1662.98" y="562.9707">operator[]()</text><ellipse cx="1653.98" cy="576.3516" fill="#84BE84" rx="3" ry="3" style="stroke:#038048;stroke-width:1.0;"/><text fill="#000000" font-family="sans-serif" font-size="14" lengthAdjust="spacing" textLength="72" x="1662.98" y="580.5801">operator=()</text><ellipse cx="1653.98" cy="593.9609" fill="#84BE84" rx="3" ry="3" style="stroke:#038048;stroke-width:1.0;"/><text fill="#000000" font-family="sans-serif" font-size="14" lengthAdjust="spacing" textLength="38" x="1662.98" y="598.1895">data()</text><ellipse cx="1653.98" cy="611.5703" fill="#84BE84" rx="3" ry="3" style="stroke:#038048;stroke-width:1.0;"/><text fill="#000000" font-family="sans-serif" font-size="14" lengthAdjust="spacing" textLength="72" x="1662.98" y="615.7988">sequence()</text><ellipse cx="1653.98" cy="629.1797" fill="#84BE84" rx="3" ry="3" style="stroke:#038048;stroke-width:1.0;"/><text fill="#000000" font-family="sans-serif" font-size="14" lengthAdjust="spacing" textLength="103" x="1662.98" y="633.4082">iterator access()</text><ellipse cx="1653.98" cy="646.7891" fill="#84BE84" rx="3" ry="3" style="stroke:#038048;stroke-width:1.0;"/><text fill="#000000" font-family="sans-serif" font-size="14" lengthAdjust="spacing" textLength="42" x="1662.98" y="651.0176">swap()</text></g><!--class basic_view--><g id="elem_basic_view"><rect codeLine="65" fill="#F1F1F1" height="224.0938" id="basic_view" rx="2.5" ry="2.5" style="stroke:#181818;stroke-width:0.5;" width="199" x="633.98" y="442.6094"/><ellipse cx="674.63" cy="458.6094" fill="#F1F1F1" rx="11" ry="11" style="stroke:#181818;stroke-width:1.0;"/><path d="M672.7394,463.1719 Q672.5206,463.4375 672.38,463.5156 Q672.2394,463.5938 672.0519,463.5938 Q671.6613,463.5938 671.4113,463.3281 Q671.1769,463.0625 671.1769,462.4688 L671.1769,461.3125 Q671.1769,460.7031 671.4113,460.4531 Q671.6613,460.1875 672.0519,460.1875 Q672.3488,460.1875 672.5519,460.3438 Q672.755,460.5 672.8644,460.875 Q672.9738,461.2344 673.0831,461.375 Q673.3331,461.625 673.9425,461.8906 Q674.5519,462.1563 675.2863,462.1563 Q676.4269,462.1563 677.1456,461.625 Q677.6144,461.2969 677.6144,460.8281 Q677.6144,460.5156 677.3956,460.2344 Q677.1769,459.9531 676.6613,459.7813 Q676.3331,459.6563 675.1769,459.4375 Q673.7863,459.1719 673.0675,458.8125 Q672.3488,458.4531 671.9269,457.7969 Q671.5206,457.125 671.5206,456.3438 Q671.5206,455.125 672.5363,454.2188 Q673.5675,453.2969 675.2081,453.2969 Q675.8644,453.2969 676.4113,453.4375 Q676.9738,453.5781 677.4425,453.875 Q677.7706,453.5625 678.0988,453.5625 Q678.4738,453.5625 678.7081,453.8281 Q678.9425,454.0781 678.9425,454.6875 L678.9425,455.9688 Q678.9425,456.5781 678.7081,456.8438 Q678.4738,457.0938 678.0988,457.0938 Q677.7863,457.0938 677.5519,456.9063 Q677.3644,456.7656 677.2706,456.3438 Q677.1925,455.9219 677.0519,455.7344 Q676.8019,455.4219 676.3175,455.2188 Q675.8488,455 675.2081,455 Q674.2863,455 673.755,455.4219 Q673.2238,455.8438 673.2238,456.3125 Q673.2238,456.625 673.4425,456.9219 Q673.6613,457.2188 674.0831,457.3906 Q674.3644,457.5 675.6613,457.7656 Q676.9738,458.0156 677.6769,458.3281 Q678.38,458.625 678.8488,459.2813 Q679.3175,459.9375 679.3175,460.8438 Q679.3175,462.1094 678.4269,462.8594 Q677.2394,463.8594 675.4113,463.8594 Q674.7081,463.8594 674.0363,463.6875 Q673.38,463.5156 672.7394,463.1719 Z " fill="#000000"/><text fill="#000000" font-family="sans-serif" font-size="14" lengthAdjust="spacing" textLength="68" x="694.33" y="464.3379">basic_view</text><rect fill="#FFFFFF" height="17.0938" style="stroke:#181818;stroke-width:1.0;stroke-dasharray:2.0,2.0;" width="40" x="795.98" y="439.6094"/><text fill="#000000" font-family="sans-serif" font-size="12" font-style="italic" lengthAdjust="spacing" textLength="38" x="796.98" y="453.0664">T, Size</text><line style="stroke:#181818;stroke-width:0.5;" x1="634.98" x2="831.98" y1="474.6094" y2="474.6094"/><ellipse cx="644.98" cy="488.9141" fill="none" rx="3" ry="3" style="stroke:#038048;stroke-width:1.0;"/><text fill="#000000" font-family="sans-serif" font-size="14" lengthAdjust="spacing" textLength="35" x="653.98" y="493.1426">union</text><ellipse cx="644.98" cy="506.5234" fill="none" rx="3" ry="3" style="stroke:#038048;stroke-width:1.0;"/><text fill="#000000" font-family="sans-serif" font-size="14" lengthAdjust="spacing" text-decoration="underline" textLength="173" x="653.98" y="510.752">offsets : std::array&lt;T, Size&gt;</text><line style="stroke:#181818;stroke-width:0.5;" x1="634.98" x2="831.98" y1="517.8281" y2="517.8281"/><ellipse cx="644.98" cy="532.1328" fill="#84BE84" rx="3" ry="3" style="stroke:#038048;stroke-width:1.0;"/><text fill="#000000" font-family="sans-serif" font-size="14" lengthAdjust="spacing" textLength="96" x="653.98" y="536.3613">basic_view(T *)</text><ellipse cx="644.98" cy="549.7422" fill="#84BE84" rx="3" ry="3" style="stroke:#038048;stroke-width:1.0;"/><text fill="#000000" font-family="sans-serif" font-size="14" lengthAdjust="spacing" textLength="29" x="653.98" y="553.9707">set()</text><ellipse cx="644.98" cy="567.3516" fill="#84BE84" rx="3" ry="3" style="stroke:#038048;stroke-width:1.0;"/><text fill="#000000" font-family="sans-serif" font-size="14" lengthAdjust="spacing" textLength="72" x="653.98" y="571.5801">operator[]()</text><ellipse cx="644.98" cy="584.9609" fill="#84BE84" rx="3" ry="3" style="stroke:#038048;stroke-width:1.0;"/><text fill="#000000" font-family="sans-serif" font-size="14" lengthAdjust="spacing" textLength="72" x="653.98" y="589.1895">operator=()</text><ellipse cx="644.98" cy="602.5703" fill="#84BE84" rx="3" ry="3" style="stroke:#038048;stroke-width:1.0;"/><text fill="#000000" font-family="sans-serif" font-size="14" lengthAdjust="spacing" textLength="38" x="653.98" y="606.7988">data()</text><ellipse cx="644.98" cy="620.1797" fill="#84BE84" rx="3" ry="3" style="stroke:#038048;stroke-width:1.0;"/><text fill="#000000" font-family="sans-serif" font-size="14" lengthAdjust="spacing" textLength="72" x="653.98" y="624.4082">sequence()</text><ellipse cx="644.98" cy="637.7891" fill="#84BE84" rx="3" ry="3" style="stroke:#038048;stroke-width:1.0;"/><text fill="#000000" font-family="sans-serif" font-size="14" lengthAdjust="spacing" textLength="103" x="653.98" y="642.0176">iterator access()</text><ellipse cx="644.98" cy="655.3984" fill="#84BE84" rx="3" ry="3" style="stroke:#038048;stroke-width:1.0;"/><text fill="#000000" font-family="sans-serif" font-size="14" lengthAdjust="spacing" textLength="42" x="653.98" y="659.627">swap()</text></g><!--class basic_vector::anonymous_union--><g id="elem_basic_vector::anonymous_union"><rect codeLine="78" fill="#F1F1F1" height="83.2188" id="basic_vector::anonymous_union" rx="2.5" ry="2.5" style="stroke:#181818;stroke-width:0.5;" width="236" x="1674.48" y="803.6094"/><ellipse cx="1689.48" cy="819.6094" fill="#E3664A" rx="11" ry="11" style="stroke:#181818;stroke-width:1.0;"/><path d="M1691.8238,817.1875 L1691.8238,816.6719 Q1691.8238,815.8438 1691.3394,815.3438 Q1690.8706,814.8438 1690.1206,814.8438 Q1689.5269,814.8438 1688.9956,815.25 Q1688.4644,815.6406 1688.1988,816.2656 Q1687.73,817.3594 1687.73,818.4688 L1687.73,820.9844 Q1687.73,822.9063 1688.5894,824.0313 Q1689.1519,824.7813 1690.1675,824.7813 Q1690.7144,824.7813 1691.1519,824.6406 Q1691.605,824.5 1691.855,824.25 Q1692.105,824 1692.3238,824 Q1692.5894,824 1692.7769,824.1875 Q1692.9644,824.375 1692.9644,824.6406 Q1692.9644,825.0625 1692.3863,825.4531 Q1691.5581,826.0156 1690.1206,826.0156 Q1689.0269,826.0156 1688.3081,825.5156 Q1687.3863,824.875 1686.9331,823.6094 Q1686.48,822.3438 1686.48,821.1094 L1686.48,818.375 Q1686.48,816.3906 1687.4644,815 Q1688.4488,813.5938 1690.0894,813.5938 Q1690.8394,813.5938 1691.48,813.9063 Q1692.1363,814.2031 1692.605,814.9688 Q1693.0738,815.7344 1693.0738,816.6719 L1693.0738,821.2031 Q1693.4331,821.375 1693.4331,821.7656 Q1693.4331,822.0469 1693.23,822.2344 Q1693.0425,822.4063 1692.5738,822.4063 L1691.8238,822.4063 L1691.8238,822.3594 Q1691.4331,822.4219 1691.2456,822.4219 Q1690.2456,822.4219 1689.4956,821.6875 Q1688.7613,820.9375 1688.7613,819.9375 Q1688.7613,818.875 1689.5738,818.0781 Q1690.4019,817.2813 1691.8238,817.1875 Z M1691.8238,818.4688 Q1690.9331,818.5625 1690.4644,818.9844 Q1690.0113,819.4063 1690.0113,819.9531 Q1690.0113,820.4375 1690.3863,820.7813 Q1690.7769,821.125 1691.4175,821.125 Q1691.5425,821.125 1691.8238,821.1094 L1691.8238,818.4688 Z " fill="#000000"/><text fill="#000000" font-family="sans-serif" font-size="14" lengthAdjust="spacing" textLength="204" x="1703.48" y="825.3379">basic_vector::anonymous_union</text><line style="stroke:#181818;stroke-width:0.5;" x1="1675.48" x2="1909.48" y1="835.6094" y2="835.6094"/><ellipse cx="1685.48" cy="849.9141" fill="none" rx="3" ry="3" style="stroke:#038048;stroke-width:1.0;"/><text fill="#000000" font-family="sans-serif" font-size="14" lengthAdjust="spacing" textLength="31" x="1694.48" y="854.1426">base</text><ellipse cx="1685.48" cy="867.5234" fill="none" rx="3" ry="3" style="stroke:#038048;stroke-width:1.0;"/><text fill="#000000" font-family="sans-serif" font-size="14" lengthAdjust="spacing" textLength="49" x="1694.48" y="871.752">swizzles</text><line style="stroke:#181818;stroke-width:0.5;" x1="1675.48" x2="1909.48" y1="878.8281" y2="878.8281"/></g><!--class basic_view::anonymous_union--><g id="elem_basic_view::anonymous_union"><rect codeLine="83" fill="#F1F1F1" height="83.2188" id="basic_view::anonymous_union" rx="2.5" ry="2.5" style="stroke:#181818;stroke-width:0.5;" width="224" x="781.48" y="803.6094"/><ellipse cx="796.48" cy="819.6094" fill="#E3664A" rx="11" ry="11" style="stroke:#181818;stroke-width:1.0;"/><path d="M798.8238,817.1875 L798.8238,816.6719 Q798.8238,815.8438 798.3394,815.3438 Q797.8706,814.8438 797.1206,814.8438 Q796.5269,814.8438 795.9956,815.25 Q795.4644,815.6406 795.1988,816.2656 Q794.73,817.3594 794.73,818.4688 L794.73,820.9844 Q794.73,822.9063 795.5894,824.0313 Q796.1519,824.7813 797.1675,824.7813 Q797.7144,824.7813 798.1519,824.6406 Q798.605,824.5 798.855,824.25 Q799.105,824 799.3238,824 Q799.5894,824 799.7769,824.1875 Q799.9644,824.375 799.9644,824.6406 Q799.9644,825.0625 799.3863,825.4531 Q798.5581,826.0156 797.1206,826.0156 Q796.0269,826.0156 795.3081,825.5156 Q794.3863,824.875 793.9331,823.6094 Q793.48,822.3438 793.48,821.1094 L793.48,818.375 Q793.48,816.3906 794.4644,815 Q795.4488,813.5938 797.0894,813.5938 Q797.8394,813.5938 798.48,813.9063 Q799.1363,814.2031 799.605,814.9688 Q800.0738,815.7344 800.0738,816.6719 L800.0738,821.2031 Q800.4331,821.375 800.4331,821.7656 Q800.4331,822.0469 800.23,822.2344 Q800.0425,822.4063 799.5738,822.4063 L798.8238,822.4063 L798.8238,822.3594 Q798.4331,822.4219 798.2456,822.4219 Q797.2456,822.4219 796.4956,821.6875 Q795.7613,820.9375 795.7613,819.9375 Q795.7613,818.875 796.5738,818.0781 Q797.4019,817.2813 798.8238,817.1875 Z M798.8238,818.4688 Q797.9331,818.5625 797.4644,818.9844 Q797.0113,819.4063 797.0113,819.9531 Q797.0113,820.4375 797.3863,820.7813 Q797.7769,821.125 798.4175,821.125 Q798.5425,821.125 798.8238,821.1094 L798.8238,818.4688 Z " fill="#000000"/><text fill="#000000" font-family="sans-serif" font-size="14" lengthAdjust="spacing" textLength="192" x="810.48" y="825.3379">basic_view::anonymous_union</text><line style="stroke:#181818;stroke-width:0.5;" x1="782.48" x2="1004.48" y1="835.6094" y2="835.6094"/><ellipse cx="792.48" cy="849.9141" fill="none" rx="3" ry="3" style="stroke:#038048;stroke-width:1.0;"/><text fill="#000000" font-family="sans-serif" font-size="14" lengthAdjust="spacing" textLength="31" x="801.48" y="854.1426">base</text><ellipse cx="792.48" cy="867.5234" fill="none" rx="3" ry="3" style="stroke:#038048;stroke-width:1.0;"/><text fill="#000000" font-family="sans-serif" font-size="14" lengthAdjust="spacing" textLength="49" x="801.48" y="871.752">swizzles</text><line style="stroke:#181818;stroke-width:0.5;" x1="782.48" x2="1004.48" y1="878.8281" y2="878.8281"/></g><!--class storage_wrapper--><g id="elem_storage_wrapper"><rect codeLine="88" fill="#F1F1F1" height="241.7031" id="storage_wrapper" rx="2.5" ry="2.5" style="stroke:#181818;stroke-width:0.5;" width="199" x="1929.98" y="977.1094"/><ellipse cx="1953.08" cy="993.1094" fill="#F1F1F1" rx="11" ry="11" style="stroke:#181818;stroke-width:1.0;"/><path d="M1951.1894,997.6719 Q1950.9706,997.9375 1950.83,998.0156 Q1950.6894,998.0938 1950.5019,998.0938 Q1950.1113,998.0938 1949.8613,997.8281 Q1949.6269,997.5625 1949.6269,996.9688 L1949.6269,995.8125 Q1949.6269,995.2031 1949.8613,994.9531 Q1950.1113,994.6875 1950.5019,994.6875 Q1950.7988,994.6875 1951.0019,994.8438 Q1951.205,995 1951.3144,995.375 Q1951.4238,995.7344 1951.5331,995.875 Q1951.7831,996.125 1952.3925,996.3906 Q1953.0019,996.6563 1953.7363,996.6563 Q1954.8769,996.6563 1955.5956,996.125 Q1956.0644,995.7969 1956.0644,995.3281 Q1956.0644,995.0156 1955.8456,994.7344 Q1955.6269,994.4531 1955.1113,994.2813 Q1954.7831,994.1563 1953.6269,993.9375 Q1952.2363,993.6719 1951.5175,993.3125 Q1950.7988,992.9531 1950.3769,992.2969 Q1949.9706,991.625 1949.9706,990.8438 Q1949.9706,989.625 1950.9863,988.7188 Q1952.0175,987.7969 1953.6581,987.7969 Q1954.3144,987.7969 1954.8613,987.9375 Q1955.4238,988.0781 1955.8925,988.375 Q1956.2206,988.0625 1956.5488,988.0625 Q1956.9238,988.0625 1957.1581,988.3281 Q1957.3925,988.5781 1957.3925,989.1875 L1957.3925,990.4688 Q1957.3925,991.0781 1957.1581,991.3438 Q1956.9238,991.5938 1956.5488,991.5938 Q1956.2363,991.5938 1956.0019,991.4063 Q1955.8144,991.2656 1955.7206,990.8438 Q1955.6425,990.4219 1955.5019,990.2344 Q1955.2519,989.9219 1954.7675,989.7188 Q1954.2988,989.5 1953.6581,989.5 Q1952.7363,989.5 1952.205,989.9219 Q1951.6738,990.3438 1951.6738,990.8125 Q1951.6738,991.125 1951.8925,991.4219 Q1952.1113,991.7188 1952.5331,991.8906 Q1952.8144,992 1954.1113,992.2656 Q1955.4238,992.5156 1956.1269,992.8281 Q1956.83,993.125 1957.2988,993.7813 Q1957.7675,994.4375 1957.7675,995.3438 Q1957.7675,996.6094 1956.8769,997.3594 Q1955.6894,998.3594 1953.8613,998.3594 Q1953.1581,998.3594 1952.4863,998.1875 Q1951.83,998.0156 1951.1894,997.6719 Z " fill="#000000"/><text fill="#000000" font-family="sans-serif" font-size="14" lengthAdjust="spacing" textLength="107" x="1968.88" y="998.8379">storage_wrapper</text><rect fill="#FFFFFF" height="17.0938" style="stroke:#181818;stroke-width:1.0;stroke-dasharray:2.0,2.0;" width="40" x="2091.98" y="974.1094"/><text fill="#000000" font-family="sans-serif" font-size="12" font-style="italic" lengthAdjust="spacing" textLength="38" x="2092.98" y="987.5664">T, Size</text><line style="stroke:#181818;stroke-width:0.5;" x1="1930.98" x2="2127.98" y1="1009.1094" y2="1009.1094"/><ellipse cx="1940.98" cy="1023.4141" fill="none" rx="3" ry="3" style="stroke:#038048;stroke-width:1.0;"/><text fill="#000000" font-family="sans-serif" font-size="14" lengthAdjust="spacing" textLength="163" x="1949.98" y="1027.6426">store : std::array&lt;T, Size&gt;</text><ellipse cx="1940.98" cy="1041.0234" fill="none" rx="3" ry="3" style="stroke:#038048;stroke-width:1.0;"/><text fill="#000000" font-family="sans-serif" font-size="14" lengthAdjust="spacing" text-decoration="underline" textLength="173" x="1949.98" y="1045.252">offsets : std::array&lt;T, Size&gt;</text><line style="stroke:#181818;stroke-width:0.5;" x1="1930.98" x2="2127.98" y1="1052.3281" y2="1052.3281"/><ellipse cx="1940.98" cy="1066.6328" fill="#84BE84" rx="3" ry="3" style="stroke:#038048;stroke-width:1.0;"/><text fill="#000000" font-family="sans-serif" font-size="14" lengthAdjust="spacing" textLength="29" x="1949.98" y="1070.8613">set()</text><ellipse cx="1940.98" cy="1084.2422" fill="#84BE84" rx="3" ry="3" style="stroke:#038048;stroke-width:1.0;"/><text fill="#000000" font-family="sans-serif" font-size="14" lengthAdjust="spacing" textLength="72" x="1949.98" y="1088.4707">operator[]()</text><ellipse cx="1940.98" cy="1101.8516" fill="#84BE84" rx="3" ry="3" style="stroke:#038048;stroke-width:1.0;"/><text fill="#000000" font-family="sans-serif" font-size="14" lengthAdjust="spacing" textLength="72" x="1949.98" y="1106.0801">operator=()</text><ellipse cx="1940.98" cy="1119.4609" fill="#84BE84" rx="3" ry="3" style="stroke:#038048;stroke-width:1.0;"/><text fill="#000000" font-family="sans-serif" font-size="14" lengthAdjust="spacing" textLength="38" x="1949.98" y="1123.6895">data()</text><ellipse cx="1940.98" cy="1137.0703" fill="#84BE84" rx="3" ry="3" style="stroke:#038048;stroke-width:1.0;"/><text fill="#000000" font-family="sans-serif" font-size="14" lengthAdjust="spacing" textLength="72" x="1949.98" y="1141.2988">sequence()</text><ellipse cx="1940.98" cy="1154.6797" fill="#84BE84" rx="3" ry="3" style="stroke:#038048;stroke-width:1.0;"/><text fill="#000000" font-family="sans-serif" font-size="14" lengthAdjust="spacing" textLength="103" x="1949.98" y="1158.9082">iterator access()</text><ellipse cx="1940.98" cy="1172.2891" fill="#84BE84" rx="3" ry="3" style="stroke:#038048;stroke-width:1.0;"/><text fill="#000000" font-family="sans-serif" font-size="14" lengthAdjust="spacing" textLength="49" x="1949.98" y="1176.5176">length()</text><ellipse cx="1940.98" cy="1189.8984" fill="#84BE84" rx="3" ry="3" style="stroke:#038048;stroke-width:1.0;"/><text fill="#000000" font-family="sans-serif" font-size="14" lengthAdjust="spacing" textLength="34" x="1949.98" y="1194.127">size()</text><ellipse cx="1940.98" cy="1207.5078" fill="#84BE84" rx="3" ry="3" style="stroke:#038048;stroke-width:1.0;"/><text fill="#000000" font-family="sans-serif" font-size="14" lengthAdjust="spacing" textLength="42" x="1949.98" y="1211.7363">swap()</text></g><!--class view_wrapper--><g id="elem_view_wrapper"><rect codeLine="102" fill="#F1F1F1" height="259.3125" id="view_wrapper" rx="2.5" ry="2.5" style="stroke:#181818;stroke-width:0.5;" width="199" x="793.98" y="968.6094"/><ellipse cx="826.53" cy="984.6094" fill="#F1F1F1" rx="11" ry="11" style="stroke:#181818;stroke-width:1.0;"/><path d="M824.6394,989.1719 Q824.4206,989.4375 824.28,989.5156 Q824.1394,989.5938 823.9519,989.5938 Q823.5613,989.5938 823.3113,989.3281 Q823.0769,989.0625 823.0769,988.4688 L823.0769,987.3125 Q823.0769,986.7031 823.3113,986.4531 Q823.5613,986.1875 823.9519,986.1875 Q824.2488,986.1875 824.4519,986.3438 Q824.655,986.5 824.7644,986.875 Q824.8738,987.2344 824.9831,987.375 Q825.2331,987.625 825.8425,987.8906 Q826.4519,988.1563 827.1863,988.1563 Q828.3269,988.1563 829.0456,987.625 Q829.5144,987.2969 829.5144,986.8281 Q829.5144,986.5156 829.2956,986.2344 Q829.0769,985.9531 828.5613,985.7813 Q828.2331,985.6563 827.0769,985.4375 Q825.6863,985.1719 824.9675,984.8125 Q824.2488,984.4531 823.8269,983.7969 Q823.4206,983.125 823.4206,982.3438 Q823.4206,981.125 824.4363,980.2188 Q825.4675,979.2969 827.1081,979.2969 Q827.7644,979.2969 828.3113,979.4375 Q828.8738,979.5781 829.3425,979.875 Q829.6706,979.5625 829.9988,979.5625 Q830.3738,979.5625 830.6081,979.8281 Q830.8425,980.0781 830.8425,980.6875 L830.8425,981.9688 Q830.8425,982.5781 830.6081,982.8438 Q830.3738,983.0938 829.9988,983.0938 Q829.6863,983.0938 829.4519,982.9063 Q829.2644,982.7656 829.1706,982.3438 Q829.0925,981.9219 828.9519,981.7344 Q828.7019,981.4219 828.2175,981.2188 Q827.7488,981 827.1081,981 Q826.1863,981 825.655,981.4219 Q825.1238,981.8438 825.1238,982.3125 Q825.1238,982.625 825.3425,982.9219 Q825.5613,983.2188 825.9831,983.3906 Q826.2644,983.5 827.5613,983.7656 Q828.8738,984.0156 829.5769,984.3281 Q830.28,984.625 830.7488,985.2813 Q831.2175,985.9375 831.2175,986.8438 Q831.2175,988.1094 830.3269,988.8594 Q829.1394,989.8594 827.3113,989.8594 Q826.6081,989.8594 825.9363,989.6875 Q825.28,989.5156 824.6394,989.1719 Z " fill="#000000"/><text fill="#000000" font-family="sans-serif" font-size="14" lengthAdjust="spacing" textLength="86" x="844.43" y="990.3379">view_wrapper</text><rect fill="#FFFFFF" height="17.0938" style="stroke:#181818;stroke-width:1.0;stroke-dasharray:2.0,2.0;" width="40" x="955.98" y="965.6094"/><text fill="#000000" font-family="sans-serif" font-size="12" font-style="italic" lengthAdjust="spacing" textLength="38" x="956.98" y="979.0664">T, Size</text><line style="stroke:#181818;stroke-width:0.5;" x1="794.98" x2="991.98" y1="1000.6094" y2="1000.6094"/><ellipse cx="804.98" cy="1014.9141" fill="none" rx="3" ry="3" style="stroke:#038048;stroke-width:1.0;"/><text fill="#000000" font-family="sans-serif" font-size="14" lengthAdjust="spacing" textLength="62" x="813.98" y="1019.1426">store : T *</text><ellipse cx="804.98" cy="1032.5234" fill="none" rx="3" ry="3" style="stroke:#038048;stroke-width:1.0;"/><text fill="#000000" font-family="sans-serif" font-size="14" lengthAdjust="spacing" text-decoration="underline" textLength="173" x="813.98" y="1036.752">offsets : std::array&lt;T, Size&gt;</text><line style="stroke:#181818;stroke-width:0.5;" x1="794.98" x2="991.98" y1="1043.8281" y2="1043.8281"/><ellipse cx="804.98" cy="1058.1328" fill="#84BE84" rx="3" ry="3" style="stroke:#038048;stroke-width:1.0;"/><text fill="#000000" font-family="sans-serif" font-size="14" lengthAdjust="spacing" textLength="114" x="813.98" y="1062.3613">view_wrapper(T *)</text><ellipse cx="804.98" cy="1075.7422" fill="#84BE84" rx="3" ry="3" style="stroke:#038048;stroke-width:1.0;"/><text fill="#000000" font-family="sans-serif" font-size="14" lengthAdjust="spacing" textLength="29" x="813.98" y="1079.9707">set()</text><ellipse cx="804.98" cy="1093.3516" fill="#84BE84" rx="3" ry="3" style="stroke:#038048;stroke-width:1.0;"/><text fill="#000000" font-family="sans-serif" font-size="14" lengthAdjust="spacing" textLength="72" x="813.98" y="1097.5801">operator[]()</text><ellipse cx="804.98" cy="1110.9609" fill="#84BE84" rx="3" ry="3" style="stroke:#038048;stroke-width:1.0;"/><text fill="#000000" font-family="sans-serif" font-size="14" lengthAdjust="spacing" textLength="72" x="813.98" y="1115.1895">operator=()</text><ellipse cx="804.98" cy="1128.5703" fill="#84BE84" rx="3" ry="3" style="stroke:#038048;stroke-width:1.0;"/><text fill="#000000" font-family="sans-serif" font-size="14" lengthAdjust="spacing" textLength="38" x="813.98" y="1132.7988">data()</text><ellipse cx="804.98" cy="1146.1797" fill="#84BE84" rx="3" ry="3" style="stroke:#038048;stroke-width:1.0;"/><text fill="#000000" font-family="sans-serif" font-size="14" lengthAdjust="spacing" textLength="72" x="813.98" y="1150.4082">sequence()</text><ellipse cx="804.98" cy="1163.7891" fill="#84BE84" rx="3" ry="3" style="stroke:#038048;stroke-width:1.0;"/><text fill="#000000" font-family="sans-serif" font-size="14" lengthAdjust="spacing" textLength="103" x="813.98" y="1168.0176">iterator access()</text><ellipse cx="804.98" cy="1181.3984" fill="#84BE84" rx="3" ry="3" style="stroke:#038048;stroke-width:1.0;"/><text fill="#000000" font-family="sans-serif" font-size="14" lengthAdjust="spacing" textLength="49" x="813.98" y="1185.627">length()</text><ellipse cx="804.98" cy="1199.0078" fill="#84BE84" rx="3" ry="3" style="stroke:#038048;stroke-width:1.0;"/><text fill="#000000" font-family="sans-serif" font-size="14" lengthAdjust="spacing" textLength="34" x="813.98" y="1203.2363">size()</text><ellipse cx="804.98" cy="1216.6172" fill="#84BE84" rx="3" ry="3" style="stroke:#038048;stroke-width:1.0;"/><text fill="#000000" font-family="sans-serif" font-size="14" lengthAdjust="spacing" textLength="42" x="813.98" y="1220.8457">swap()</text></g><!--class view_vector--><g id="elem_view_vector"><rect codeLine="117" fill="#F1F1F1" height="83.2188" id="view_vector" rx="2.5" ry="2.5" style="stroke:#181818;stroke-width:0.5;" width="148" x="590.48" y="803.6094"/><ellipse cx="605.48" cy="819.6094" fill="#F1F1F1" rx="11" ry="11" style="stroke:#181818;stroke-width:1.0;"/><path d="M603.5894,824.1719 Q603.3706,824.4375 603.23,824.5156 Q603.0894,824.5938 602.9019,824.5938 Q602.5113,824.5938 602.2613,824.3281 Q602.0269,824.0625 602.0269,823.4688 L602.0269,822.3125 Q602.0269,821.7031 602.2613,821.4531 Q602.5113,821.1875 602.9019,821.1875 Q603.1988,821.1875 603.4019,821.3438 Q603.605,821.5 603.7144,821.875 Q603.8238,822.2344 603.9331,822.375 Q604.1831,822.625 604.7925,822.8906 Q605.4019,823.1563 606.1363,823.1563 Q607.2769,823.1563 607.9956,822.625 Q608.4644,822.2969 608.4644,821.8281 Q608.4644,821.5156 608.2456,821.2344 Q608.0269,820.9531 607.5113,820.7813 Q607.1831,820.6563 606.0269,820.4375 Q604.6363,820.1719 603.9175,819.8125 Q603.1988,819.4531 602.7769,818.7969 Q602.3706,818.125 602.3706,817.3438 Q602.3706,816.125 603.3863,815.2188 Q604.4175,814.2969 606.0581,814.2969 Q606.7144,814.2969 607.2613,814.4375 Q607.8238,814.5781 608.2925,814.875 Q608.6206,814.5625 608.9488,814.5625 Q609.3238,814.5625 609.5581,814.8281 Q609.7925,815.0781 609.7925,815.6875 L609.7925,816.9688 Q609.7925,817.5781 609.5581,817.8438 Q609.3238,818.0938 608.9488,818.0938 Q608.6363,818.0938 608.4019,817.9063 Q608.2144,817.7656 608.1206,817.3438 Q608.0425,816.9219 607.9019,816.7344 Q607.6519,816.4219 607.1675,816.2188 Q606.6988,816 606.0581,816 Q605.1363,816 604.605,816.4219 Q604.0738,816.8438 604.0738,817.3125 Q604.0738,817.625 604.2925,817.9219 Q604.5113,818.2188 604.9331,818.3906 Q605.2144,818.5 606.5113,818.7656 Q607.8238,819.0156 608.5269,819.3281 Q609.23,819.625 609.6988,820.2813 Q610.1675,820.9375 610.1675,821.8438 Q610.1675,823.1094 609.2769,823.8594 Q608.0894,824.8594 606.2613,824.8594 Q605.5581,824.8594 604.8863,824.6875 Q604.23,824.5156 603.5894,824.1719 Z " fill="#000000"/><text fill="#000000" font-family="sans-serif" font-size="14" lengthAdjust="spacing" textLength="74" x="619.48" y="825.3379">view_vector</text><rect fill="#FFFFFF" height="17.0938" style="stroke:#181818;stroke-width:1.0;stroke-dasharray:2.0,2.0;" width="40" x="701.48" y="800.6094"/><text fill="#000000" font-family="sans-serif" font-size="12" font-style="italic" lengthAdjust="spacing" textLength="38" x="702.48" y="814.0664">T, Size</text><line style="stroke:#181818;stroke-width:0.5;" x1="591.48" x2="737.48" y1="835.6094" y2="835.6094"/><ellipse cx="601.48" cy="849.9141" fill="none" rx="3" ry="3" style="stroke:#038048;stroke-width:1.0;"/><text fill="#000000" font-family="sans-serif" font-size="14" lengthAdjust="spacing" textLength="87" x="610.48" y="854.1426">store : T[Size]</text><line style="stroke:#181818;stroke-width:0.5;" x1="591.48" x2="737.48" y1="861.2188" y2="861.2188"/><ellipse cx="601.48" cy="875.5234" fill="#84BE84" rx="3" ry="3" style="stroke:#038048;stroke-width:1.0;"/><text fill="#000000" font-family="sans-serif" font-size="14" lengthAdjust="spacing" textLength="72" x="610.48" y="879.752">operator=()</text></g><!--class indexed_vector--><g id="elem_indexed_vector"><rect codeLine="122" fill="#F1F1F1" height="188.875" id="indexed_vector" rx="2.5" ry="2.5" style="stroke:#181818;stroke-width:0.5;" width="234" x="1447.48" y="1003.6094"/><ellipse cx="1462.48" cy="1019.6094" fill="#F1F1F1" rx="11" ry="11" style="stroke:#181818;stroke-width:1.0;"/><path d="M1460.5894,1024.1719 Q1460.3706,1024.4375 1460.23,1024.5156 Q1460.0894,1024.5938 1459.9019,1024.5938 Q1459.5113,1024.5938 1459.2613,1024.3281 Q1459.0269,1024.0625 1459.0269,1023.4688 L1459.0269,1022.3125 Q1459.0269,1021.7031 1459.2613,1021.4531 Q1459.5113,1021.1875 1459.9019,1021.1875 Q1460.1988,1021.1875 1460.4019,1021.3438 Q1460.605,1021.5 1460.7144,1021.875 Q1460.8238,1022.2344 1460.9331,1022.375 Q1461.1831,1022.625 1461.7925,1022.8906 Q1462.4019,1023.1563 1463.1363,1023.1563 Q1464.2769,1023.1563 1464.9956,1022.625 Q1465.4644,1022.2969 1465.4644,1021.8281 Q1465.4644,1021.5156 1465.2456,1021.2344 Q1465.0269,1020.9531 1464.5113,1020.7813 Q1464.1831,1020.6563 1463.0269,1020.4375 Q1461.6363,1020.1719 1460.9175,1019.8125 Q1460.1988,1019.4531 1459.7769,1018.7969 Q1459.3706,1018.125 1459.3706,1017.3438 Q1459.3706,1016.125 1460.3863,1015.2188 Q1461.4175,1014.2969 1463.0581,1014.2969 Q1463.7144,1014.2969 1464.2613,1014.4375 Q1464.8238,1014.5781 1465.2925,1014.875 Q1465.6206,1014.5625 1465.9488,1014.5625 Q1466.3238,1014.5625 1466.5581,1014.8281 Q1466.7925,1015.0781 1466.7925,1015.6875 L1466.7925,1016.9688 Q1466.7925,1017.5781 1466.5581,1017.8438 Q1466.3238,1018.0938 1465.9488,1018.0938 Q1465.6363,1018.0938 1465.4019,1017.9063 Q1465.2144,1017.7656 1465.1206,1017.3438 Q1465.0425,1016.9219 1464.9019,1016.7344 Q1464.6519,1016.4219 1464.1675,1016.2188 Q1463.6988,1016 1463.0581,1016 Q1462.1363,1016 1461.605,1016.4219 Q1461.0738,1016.8438 1461.0738,1017.3125 Q1461.0738,1017.625 1461.2925,1017.9219 Q1461.5113,1018.2188 1461.9331,1018.3906 Q1462.2144,1018.5 1463.5113,1018.7656 Q1464.8238,1019.0156 1465.5269,1019.3281 Q1466.23,1019.625 1466.6988,1020.2813 Q1467.1675,1020.9375 1467.1675,1021.8438 Q1467.1675,1023.1094 1466.2769,1023.8594 Q1465.0894,1024.8594 1463.2613,1024.8594 Q1462.5581,1024.8594 1461.8863,1024.6875 Q1461.23,1024.5156 1460.5894,1024.1719 Z " fill="#000000"/><text fill="#000000" font-family="sans-serif" font-size="14" lengthAdjust="spacing" textLength="96" x="1476.48" y="1025.3379">indexed_vector</text><rect fill="#FFFFFF" height="17.0938" style="stroke:#181818;stroke-width:1.0;stroke-dasharray:2.0,2.0;" width="104" x="1580.48" y="1000.6094"/><text fill="#000000" font-family="sans-serif" font-size="12" font-style="italic" lengthAdjust="spacing" textLength="102" x="1581.48" y="1014.0664">T, Size, Count, ...Is</text><line style="stroke:#181818;stroke-width:0.5;" x1="1448.48" x2="1680.48" y1="1035.6094" y2="1035.6094"/><ellipse cx="1458.48" cy="1049.9141" fill="none" rx="3" ry="3" style="stroke:#038048;stroke-width:1.0;"/><text fill="#000000" font-family="sans-serif" font-size="14" lengthAdjust="spacing" textLength="162" x="1467.48" y="1054.1426">base : std::array&lt;T, Size&gt;</text><ellipse cx="1458.48" cy="1067.5234" fill="none" rx="3" ry="3" style="stroke:#038048;stroke-width:1.0;"/><text fill="#000000" font-family="sans-serif" font-size="14" lengthAdjust="spacing" text-decoration="underline" textLength="185" x="1467.48" y="1071.752">offsets : std::array&lt;T, Count&gt;</text><line style="stroke:#181818;stroke-width:0.5;" x1="1448.48" x2="1680.48" y1="1078.8281" y2="1078.8281"/><ellipse cx="1458.48" cy="1093.1328" fill="#84BE84" rx="3" ry="3" style="stroke:#038048;stroke-width:1.0;"/><text fill="#000000" font-family="sans-serif" font-size="14" lengthAdjust="spacing" textLength="29" x="1467.48" y="1097.3613">set()</text><ellipse cx="1458.48" cy="1110.7422" fill="#84BE84" rx="3" ry="3" style="stroke:#038048;stroke-width:1.0;"/><text fill="#000000" font-family="sans-serif" font-size="14" lengthAdjust="spacing" textLength="72" x="1467.48" y="1114.9707">operator[]()</text><ellipse cx="1458.48" cy="1128.3516" fill="#84BE84" rx="3" ry="3" style="stroke:#038048;stroke-width:1.0;"/><text fill="#000000" font-family="sans-serif" font-size="14" lengthAdjust="spacing" textLength="72" x="1467.48" y="1132.5801">operator=()</text><ellipse cx="1458.48" cy="1145.9609" fill="#84BE84" rx="3" ry="3" style="stroke:#038048;stroke-width:1.0;"/><text fill="#000000" font-family="sans-serif" font-size="14" lengthAdjust="spacing" textLength="38" x="1467.48" y="1150.1895">data()</text><ellipse cx="1458.48" cy="1163.5703" fill="#84BE84" rx="3" ry="3" style="stroke:#038048;stroke-width:1.0;"/><text fill="#000000" font-family="sans-serif" font-size="14" lengthAdjust="spacing" textLength="72" x="1467.48" y="1167.7988">sequence()</text><ellipse cx="1458.48" cy="1181.1797" fill="#84BE84" rx="3" ry="3" style="stroke:#038048;stroke-width:1.0;"/><text fill="#000000" font-family="sans-serif" font-size="14" lengthAdjust="spacing" textLength="103" x="1467.48" y="1185.4082">iterator access()</text></g><!--class indexed_view--><g id="elem_indexed_view"><rect codeLine="133" fill="#F1F1F1" height="206.4844" id="indexed_view" rx="2.5" ry="2.5" style="stroke:#181818;stroke-width:0.5;" width="222" x="377.48" y="995.1094"/><ellipse cx="392.48" cy="1011.1094" fill="#F1F1F1" rx="11" ry="11" style="stroke:#181818;stroke-width:1.0;"/><path d="M390.5894,1015.6719 Q390.3706,1015.9375 390.23,1016.0156 Q390.0894,1016.0938 389.9019,1016.0938 Q389.5112,1016.0938 389.2612,1015.8281 Q389.0269,1015.5625 389.0269,1014.9688 L389.0269,1013.8125 Q389.0269,1013.2031 389.2612,1012.9531 Q389.5112,1012.6875 389.9019,1012.6875 Q390.1987,1012.6875 390.4019,1012.8438 Q390.605,1013 390.7144,1013.375 Q390.8237,1013.7344 390.9331,1013.875 Q391.1831,1014.125 391.7925,1014.3906 Q392.4019,1014.6563 393.1362,1014.6563 Q394.2769,1014.6563 394.9956,1014.125 Q395.4644,1013.7969 395.4644,1013.3281 Q395.4644,1013.0156 395.2456,1012.7344 Q395.0269,1012.4531 394.5112,1012.2813 Q394.1831,1012.1563 393.0269,1011.9375 Q391.6362,1011.6719 390.9175,1011.3125 Q390.1987,1010.9531 389.7769,1010.2969 Q389.3706,1009.625 389.3706,1008.8438 Q389.3706,1007.625 390.3862,1006.7188 Q391.4175,1005.7969 393.0581,1005.7969 Q393.7144,1005.7969 394.2612,1005.9375 Q394.8237,1006.0781 395.2925,1006.375 Q395.6206,1006.0625 395.9487,1006.0625 Q396.3237,1006.0625 396.5581,1006.3281 Q396.7925,1006.5781 396.7925,1007.1875 L396.7925,1008.4688 Q396.7925,1009.0781 396.5581,1009.3438 Q396.3237,1009.5938 395.9487,1009.5938 Q395.6362,1009.5938 395.4019,1009.4063 Q395.2144,1009.2656 395.1206,1008.8438 Q395.0425,1008.4219 394.9019,1008.2344 Q394.6519,1007.9219 394.1675,1007.7188 Q393.6987,1007.5 393.0581,1007.5 Q392.1362,1007.5 391.605,1007.9219 Q391.0737,1008.3438 391.0737,1008.8125 Q391.0737,1009.125 391.2925,1009.4219 Q391.5112,1009.7188 391.9331,1009.8906 Q392.2144,1010 393.5112,1010.2656 Q394.8237,1010.5156 395.5269,1010.8281 Q396.23,1011.125 396.6987,1011.7813 Q397.1675,1012.4375 397.1675,1013.3438 Q397.1675,1014.6094 396.2769,1015.3594 Q395.0894,1016.3594 393.2612,1016.3594 Q392.5581,1016.3594 391.8862,1016.1875 Q391.23,1016.0156 390.5894,1015.6719 Z " fill="#000000"/><text fill="#000000" font-family="sans-serif" font-size="14" lengthAdjust="spacing" textLength="84" x="406.48" y="1016.8379">indexed_view</text><rect fill="#FFFFFF" height="17.0938" style="stroke:#181818;stroke-width:1.0;stroke-dasharray:2.0,2.0;" width="104" x="498.48" y="992.1094"/><text fill="#000000" font-family="sans-serif" font-size="12" font-style="italic" lengthAdjust="spacing" textLength="102" x="499.48" y="1005.5664">T, Size, Count, ...Is</text><line style="stroke:#181818;stroke-width:0.5;" x1="378.48" x2="598.48" y1="1027.1094" y2="1027.1094"/><ellipse cx="388.48" cy="1041.4141" fill="none" rx="3" ry="3" style="stroke:#038048;stroke-width:1.0;"/><text fill="#000000" font-family="sans-serif" font-size="14" lengthAdjust="spacing" textLength="61" x="397.48" y="1045.6426">base : T *</text><ellipse cx="388.48" cy="1059.0234" fill="none" rx="3" ry="3" style="stroke:#038048;stroke-width:1.0;"/><text fill="#000000" font-family="sans-serif" font-size="14" lengthAdjust="spacing" text-decoration="underline" textLength="185" x="397.48" y="1063.252">offsets : std::array&lt;T, Count&gt;</text><line style="stroke:#181818;stroke-width:0.5;" x1="378.48" x2="598.48" y1="1070.3281" y2="1070.3281"/><ellipse cx="388.48" cy="1084.6328" fill="#84BE84" rx="3" ry="3" style="stroke:#038048;stroke-width:1.0;"/><text fill="#000000" font-family="sans-serif" font-size="14" lengthAdjust="spacing" textLength="112" x="397.48" y="1088.8613">indexed_view(T *)</text><ellipse cx="388.48" cy="1102.2422" fill="#84BE84" rx="3" ry="3" style="stroke:#038048;stroke-width:1.0;"/><text fill="#000000" font-family="sans-serif" font-size="14" lengthAdjust="spacing" textLength="29" x="397.48" y="1106.4707">set()</text><ellipse cx="388.48" cy="1119.8516" fill="#84BE84" rx="3" ry="3" style="stroke:#038048;stroke-width:1.0;"/><text fill="#000000" font-family="sans-serif" font-size="14" lengthAdjust="spacing" textLength="72" x="397.48" y="1124.0801">operator[]()</text><ellipse cx="388.48" cy="1137.4609" fill="#84BE84" rx="3" ry="3" style="stroke:#038048;stroke-width:1.0;"/><text fill="#000000" font-family="sans-serif" font-size="14" lengthAdjust="spacing" textLength="72" x="397.48" y="1141.6895">operator=()</text><ellipse cx="388.48" cy="1155.0703" fill="#84BE84" rx="3" ry="3" style="stroke:#038048;stroke-width:1.0;"/><text fill="#000000" font-family="sans-serif" font-size="14" lengthAdjust="spacing" textLength="38" x="397.48" y="1159.2988">data()</text><ellipse cx="388.48" cy="1172.6797" fill="#84BE84" rx="3" ry="3" style="stroke:#038048;stroke-width:1.0;"/><text fill="#000000" font-family="sans-serif" font-size="14" lengthAdjust="spacing" textLength="72" x="397.48" y="1176.9082">sequence()</text><ellipse cx="388.48" cy="1190.2891" fill="#84BE84" rx="3" ry="3" style="stroke:#038048;stroke-width:1.0;"/><text fill="#000000" font-family="sans-serif" font-size="14" lengthAdjust="spacing" textLength="103" x="397.48" y="1194.5176">iterator access()</text></g><!--class basic_matrix--><g id="elem_basic_matrix"><rect codeLine="145" fill="#F1F1F1" height="241.7031" id="basic_matrix" rx="2.5" ry="2.5" style="stroke:#181818;stroke-width:0.5;" width="349" x="1566.98" y="84.1094"/><ellipse cx="1659.23" cy="100.1094" fill="#F1F1F1" rx="11" ry="11" style="stroke:#181818;stroke-width:1.0;"/><path d="M1657.3394,104.6719 Q1657.1206,104.9375 1656.98,105.0156 Q1656.8394,105.0938 1656.6519,105.0938 Q1656.2613,105.0938 1656.0113,104.8281 Q1655.7769,104.5625 1655.7769,103.9688 L1655.7769,102.8125 Q1655.7769,102.2031 1656.0113,101.9531 Q1656.2613,101.6875 1656.6519,101.6875 Q1656.9488,101.6875 1657.1519,101.8438 Q1657.355,102 1657.4644,102.375 Q1657.5738,102.7344 1657.6831,102.875 Q1657.9331,103.125 1658.5425,103.3906 Q1659.1519,103.6563 1659.8863,103.6563 Q1661.0269,103.6563 1661.7456,103.125 Q1662.2144,102.7969 1662.2144,102.3281 Q1662.2144,102.0156 1661.9956,101.7344 Q1661.7769,101.4531 1661.2613,101.2813 Q1660.9331,101.1563 1659.7769,100.9375 Q1658.3863,100.6719 1657.6675,100.3125 Q1656.9488,99.9531 1656.5269,99.2969 Q1656.1206,98.625 1656.1206,97.8438 Q1656.1206,96.625 1657.1363,95.7188 Q1658.1675,94.7969 1659.8081,94.7969 Q1660.4644,94.7969 1661.0113,94.9375 Q1661.5738,95.0781 1662.0425,95.375 Q1662.3706,95.0625 1662.6988,95.0625 Q1663.0738,95.0625 1663.3081,95.3281 Q1663.5425,95.5781 1663.5425,96.1875 L1663.5425,97.4688 Q1663.5425,98.0781 1663.3081,98.3438 Q1663.0738,98.5938 1662.6988,98.5938 Q1662.3863,98.5938 1662.1519,98.4063 Q1661.9644,98.2656 1661.8706,97.8438 Q1661.7925,97.4219 1661.6519,97.2344 Q1661.4019,96.9219 1660.9175,96.7188 Q1660.4488,96.5 1659.8081,96.5 Q1658.8863,96.5 1658.355,96.9219 Q1657.8238,97.3438 1657.8238,97.8125 Q1657.8238,98.125 1658.0425,98.4219 Q1658.2613,98.7188 1658.6831,98.8906 Q1658.9644,99 1660.2613,99.2656 Q1661.5738,99.5156 1662.2769,99.8281 Q1662.98,100.125 1663.4488,100.7813 Q1663.9175,101.4375 1663.9175,102.3438 Q1663.9175,103.6094 1663.0269,104.3594 Q1661.8394,105.3594 1660.0113,105.3594 Q1659.3081,105.3594 1658.6363,105.1875 Q1657.98,105.0156 1657.3394,104.6719 Z " fill="#000000"/><text fill="#000000" font-family="sans-serif" font-size="14" lengthAdjust="spacing" textLength="78" x="1679.73" y="105.8379">basic_matrix</text><rect fill="#FFFFFF" height="17.0938" style="stroke:#181818;stroke-width:1.0;stroke-dasharray:2.0,2.0;" width="76" x="1842.98" y="81.1094"/><text fill="#000000" font-family="sans-serif" font-size="12" font-style="italic" lengthAdjust="spacing" textLength="74" x="1843.98" y="94.5664">T, Cols, Rows</text><line style="stroke:#181818;stroke-width:0.5;" x1="1567.98" x2="1914.98" y1="116.1094" y2="116.1094"/><ellipse cx="1577.98" cy="130.4141" fill="none" rx="3" ry="3" style="stroke:#038048;stroke-width:1.0;"/><text fill="#000000" font-family="sans-serif" font-size="14" lengthAdjust="spacing" textLength="323" x="1586.98" y="134.6426">columns : std::array&lt;basic_vector&lt;T, Rows&gt;, Cols&gt;</text><line style="stroke:#181818;stroke-width:0.5;" x1="1567.98" x2="1914.98" y1="141.7188" y2="141.7188"/><ellipse cx="1577.98" cy="156.0234" fill="#84BE84" rx="3" ry="3" style="stroke:#038048;stroke-width:1.0;"/><text fill="#000000" font-family="sans-serif" font-size="14" lengthAdjust="spacing" textLength="32" x="1586.98" y="160.252">row()</text><ellipse cx="1577.98" cy="173.6328" fill="#84BE84" rx="3" ry="3" style="stroke:#038048;stroke-width:1.0;"/><text fill="#000000" font-family="sans-serif" font-size="14" lengthAdjust="spacing" textLength="72" x="1586.98" y="177.8613">operator[]()</text><ellipse cx="1577.98" cy="191.2422" fill="#84BE84" rx="3" ry="3" style="stroke:#038048;stroke-width:1.0;"/><text fill="#000000" font-family="sans-serif" font-size="14" lengthAdjust="spacing" textLength="72" x="1586.98" y="195.4707">operator=()</text><ellipse cx="1577.98" cy="208.8516" fill="#84BE84" rx="3" ry="3" style="stroke:#038048;stroke-width:1.0;"/><text fill="#000000" font-family="sans-serif" font-size="14" lengthAdjust="spacing" textLength="38" x="1586.98" y="213.0801">data()</text><ellipse cx="1577.98" cy="226.4609" fill="#84BE84" rx="3" ry="3" style="stroke:#038048;stroke-width:1.0;"/><text fill="#000000" font-family="sans-serif" font-size="14" lengthAdjust="spacing" textLength="103" x="1586.98" y="230.6895">iterator access()</text><ellipse cx="1577.98" cy="244.0703" fill="#84BE84" rx="3" ry="3" style="stroke:#038048;stroke-width:1.0;"/><text fill="#000000" font-family="sans-serif" font-size="14" lengthAdjust="spacing" textLength="49" x="1586.98" y="248.2988">length()</text><ellipse cx="1577.98" cy="261.6797" fill="#84BE84" rx="3" ry="3" style="stroke:#038048;stroke-width:1.0;"/><text fill="#000000" font-family="sans-serif" font-size="14" lengthAdjust="spacing" textLength="102" x="1586.98" y="265.9082">column_length()</text><ellipse cx="1577.98" cy="279.2891" fill="#84BE84" rx="3" ry="3" style="stroke:#038048;stroke-width:1.0;"/><text fill="#000000" font-family="sans-serif" font-size="14" lengthAdjust="spacing" textLength="34" x="1586.98" y="283.5176">size()</text><ellipse cx="1577.98" cy="296.8984" fill="#84BE84" rx="3" ry="3" style="stroke:#038048;stroke-width:1.0;"/><text fill="#000000" font-family="sans-serif" font-size="14" lengthAdjust="spacing" textLength="87" x="1586.98" y="301.127">column_size()</text><ellipse cx="1577.98" cy="314.5078" fill="#84BE84" rx="3" ry="3" style="stroke:#038048;stroke-width:1.0;"/><text fill="#000000" font-family="sans-serif" font-size="14" lengthAdjust="spacing" textLength="42" x="1586.98" y="318.7363">swap()</text></g><!--reverse link vector_base to basic_vector--><g id="link_vector_base_basic_vector"><path codeLine="159" d="M1340.7882,275.1222 C1427.0082,318.2522 1524.75,371.8994 1617.48,438.6094 C1623.23,442.7394 1628.99,447.1094 1634.73,451.6394 " fill="none" id="vector_base-backto-basic_vector" style="stroke:#181818;stroke-width:1.0;"/><polygon fill="none" points="1324.69,267.0694,1338.1039,280.4883,1343.4725,269.7561,1324.69,267.0694" style="stroke:#181818;stroke-width:1.0;"/><text fill="#000000" font-family="sans-serif" font-size="13" lengthAdjust="spacing" textLength="80" x="1564.48" y="405.1045">CRTP inherits</text></g><!--reverse link vector_base to basic_view--><g id="link_vector_base_basic_view"><path codeLine="160" d="M1082.0751,374.361 C1067.1051,391.721 1062.65,394.5494 1045.48,408.6094 C985.07,458.0994 904.98,494.8594 841.07,518.9894 " fill="none" id="vector_base-backto-basic_view" style="stroke:#181818;stroke-width:1.0;"/><polygon fill="none" points="1093.83,360.7294,1077.5312,370.4427,1086.6189,378.2793,1093.83,360.7294" style="stroke:#181818;stroke-width:1.0;"/><text fill="#000000" font-family="sans-serif" font-size="13" lengthAdjust="spacing" textLength="80" x="1062.48" y="405.1045">CRTP inherits</text></g><!--reverse link vector_base to indexed_vector--><g id="link_vector_base_indexed_vector"><path codeLine="161" d="M1340.6482,284.5215 C1404.2082,315.8215 1466.79,341.7594 1541.48,360.6094 C1585.02,371.5994 1913.93,357.6994 1944.48,390.6094 C2095.69,553.4894 2050.81,700.0194 1936.48,890.6094 C1881.2,982.7794 1768.59,1036.8794 1681.67,1066.4194 " fill="none" id="vector_base-backto-indexed_vector" style="stroke:#181818;stroke-width:1.0;"/><polygon fill="none" points="1324.5,276.5694,1337.9975,289.9042,1343.2989,279.1388,1324.5,276.5694" style="stroke:#181818;stroke-width:1.0;"/><text fill="#000000" font-family="sans-serif" font-size="13" lengthAdjust="spacing" textLength="80" x="2026.48" y="740.6045">CRTP inherits</text></g><!--reverse link vector_base to indexed_view--><g id="link_vector_base_indexed_view"><path codeLine="162" d="M1172.974,378.4597 C1157.184,492.6297 1134.01,633.2394 1098.48,769.6094 C1078.39,846.7394 1100.87,888.9994 1038.48,938.6094 C992.62,975.0894 833.01,953.1594 776.48,968.6094 C716.01,985.1394 652.02,1012.5894 599.75,1037.8794 " fill="none" id="vector_base-backto-indexed_view" style="stroke:#181818;stroke-width:1.0;"/><polygon fill="none" points="1175.44,360.6294,1167.0306,377.6377,1178.9175,379.2816,1175.44,360.6294" style="stroke:#181818;stroke-width:1.0;"/><text fill="#000000" font-family="sans-serif" font-size="13" lengthAdjust="spacing" textLength="80" x="1115.48" y="740.6045">CRTP inherits</text></g><!--reverse link basic_view to view_vector--><g id="link_basic_view_view_vector"><path codeLine="163" d="M689.4078,688.0033 C686.5478,698.0633 688.8,690.8294 686.48,700.6094 C678.34,734.9394 672.53,774.6394 668.93,803.5694 " fill="none" id="basic_view-backto-view_vector" style="stroke:#181818;stroke-width:1.0;"/><polygon fill="none" points="694.33,670.6894,683.6365,686.3625,695.1791,689.644,694.33,670.6894" style="stroke:#181818;stroke-width:1.0;"/></g><!--reverse link indexed_vector_const_iterator to indexed_vector_iterator--><g id="link_indexed_vector_const_iterator_indexed_vector_iterator"><path codeLine="164" d="M1382.4474,626.5631 C1371.7674,684.6931 1358.22,758.4294 1349.03,808.4594 " fill="none" id="indexed_vector_const_iterator-backto-indexed_vector_iterator" style="stroke:#181818;stroke-width:1.0;"/><polygon fill="none" points="1385.7,608.8594,1376.5461,625.4788,1388.3486,627.6473,1385.7,608.8594" style="stroke:#181818;stroke-width:1.0;"/><text fill="#000000" font-family="sans-serif" font-size="13" lengthAdjust="spacing" textLength="80" x="1368.48" y="740.6045">const_cast&lt;&gt;</text></g><!--reverse link indexed_view_const_iterator to indexed_view_iterator--><g id="link_indexed_view_const_iterator_indexed_view_iterator"><path codeLine="165" d="M341.2742,626.0253 C322.9342,684.1553 299.51,758.4294 283.73,808.4594 " fill="none" id="indexed_view_const_iterator-backto-indexed_view_iterator" style="stroke:#181818;stroke-width:1.0;"/><polygon fill="none" points="346.69,608.8594,335.5522,624.22,346.9961,627.8306,346.69,608.8594" style="stroke:#181818;stroke-width:1.0;"/><text fill="#000000" font-family="sans-serif" font-size="13" lengthAdjust="spacing" textLength="80" x="316.48" y="740.6045">const_cast&lt;&gt;</text></g><!--reverse link CRTP duck type to basic_vector--><g id="link_CRTP duck type_basic_vector"><path codeLine="166" d="M881.2342,290.6868 C884.7442,336.5268 896.31,376.5994 936.48,408.6094 C995.72,455.8094 1547.54,409.5394 1617.48,438.6094 C1623.61,441.1594 1629.63,444.1394 1635.5,447.4694 " fill="none" id="CRTP duck type-backto-basic_vector" style="stroke:#181818;stroke-width:1.0;stroke-dasharray:7.0,7.0;"/><polygon fill="none" points="879.86,272.7394,875.2518,291.1449,887.2167,290.2288,879.86,272.7394" style="stroke:#181818;stroke-width:1.0;"/><text fill="#000000" font-family="sans-serif" font-size="13" lengthAdjust="spacing" textLength="99" x="937.48" y="405.1045">duck implements</text></g><!--reverse link CRTP duck type to basic_view--><g id="link_CRTP duck type_basic_view"><path codeLine="167" d="M842.682,288.9799 C828.272,317.6299 817.41,334.3394 795.48,360.6094 C781.92,376.8594 769.02,372.2494 758.48,390.6094 C750.15,405.1394 744.32,421.5394 740.28,438.1894 " fill="none" id="CRTP duck type-backto-basic_view" style="stroke:#181818;stroke-width:1.0;stroke-dasharray:7.0,7.0;"/><polygon fill="none" points="850.77,272.8994,837.3218,286.2839,848.0422,291.6759,850.77,272.8994" style="stroke:#181818;stroke-width:1.0;"/><text fill="#000000" font-family="sans-serif" font-size="13" lengthAdjust="spacing" textLength="99" x="759.48" y="405.1045">duck implements</text></g><!--reverse link CRTP duck type to indexed_vector--><g id="link_CRTP duck type_indexed_vector"><path codeLine="168" d="M889.2989,290.6114 C903.7489,421.9214 938.62,689.1694 993.48,769.6094 C1007.06,789.5194 1152.8,878.2394 1173.48,890.6094 C1263.42,944.3794 1368.61,999.5194 1447.22,1039.2794 " fill="none" id="CRTP duck type-backto-indexed_vector" style="stroke:#181818;stroke-width:1.0;stroke-dasharray:7.0,7.0;"/><polygon fill="none" points="887.33,272.7194,883.3349,291.2677,895.2629,289.9551,887.33,272.7194" style="stroke:#181818;stroke-width:1.0;"/><text fill="#000000" font-family="sans-serif" font-size="13" lengthAdjust="spacing" textLength="99" x="994.48" y="740.6045">duck implements</text></g><!--reverse link CRTP duck type to indexed_view--><g id="link_CRTP duck type_indexed_view"><path codeLine="169" d="M852.9013,289.5083 C839.6413,321.2483 825.99,339.9794 795.48,360.6094 C555.17,523.0794 351.06,231.9694 147.48,438.6094 C6,582.2194 6.53,717.2794 109.48,890.6094 C166.98,987.4094 287.54,1041.7094 377.33,1070.0594 " fill="none" id="CRTP duck type-backto-indexed_view" style="stroke:#181818;stroke-width:1.0;stroke-dasharray:7.0,7.0;"/><polygon fill="none" points="859.84,272.8994,847.365,287.1954,858.4376,291.8211,859.84,272.8994" style="stroke:#181818;stroke-width:1.0;"/><text fill="#000000" font-family="sans-serif" font-size="13" lengthAdjust="spacing" textLength="99" x="54.48" y="740.6045">duck implements</text></g><!--reverse link basic_vector::anonymous_union to storage_wrapper--><g id="link_basic_vector::anonymous_union_storage_wrapper"><path codeLine="170" d="M1923.48,849.1094 C1985.83,849.1094 2003.27,913.7994 2017.15,977.1094 " fill="none" id="basic_vector::anonymous_union-backto-storage_wrapper" style="stroke:#181818;stroke-width:1.0;"/><polygon fill="#181818" points="1911.48,849.1094,1917.48,853.1094,1923.48,849.1094,1917.48,845.1094,1911.48,849.1094" style="stroke:#181818;stroke-width:1.0;"/><text fill="#000000" font-family="sans-serif" font-size="13" lengthAdjust="spacing" textLength="28" x="2006.48" y="935.1045">base</text><text fill="#000000" font-family="sans-serif" font-size="13" lengthAdjust="spacing" textLength="7" x="1918.5566" y="846.1251">1</text><text fill="#000000" font-family="sans-serif" font-size="13" lengthAdjust="spacing" textLength="7" x="2009.1359" y="966.3612">1</text></g><!--reverse link basic_vector::anonymous_union to indexed_vector--><g id="link_basic_vector::anonymous_union_indexed_vector"><path codeLine="171" d="M1661.48,866.1094 C1629.5,866.1094 1610.95,939.4494 1590.38,1003.4894 " fill="none" id="basic_vector::anonymous_union-backto-indexed_vector" style="stroke:#181818;stroke-width:1.0;"/><polygon fill="#181818" points="1673.48,866.1094,1667.48,862.1094,1661.48,866.1094,1667.48,870.1094,1673.48,866.1094" style="stroke:#181818;stroke-width:1.0;"/><text fill="#000000" font-family="sans-serif" font-size="13" lengthAdjust="spacing" textLength="50" x="1623.48" y="935.1045">swizzles</text><text fill="#000000" font-family="sans-serif" font-size="13" lengthAdjust="spacing" textLength="7" x="1659.398" y="864.3599">1</text><text fill="#000000" font-family="sans-serif" font-size="13" lengthAdjust="spacing" textLength="32" x="1593.7189" y="992.8259">many</text></g><!--reverse link basic_vector to basic_vector::anonymous_union--><g id="link_basic_vector_basic_vector::anonymous_union"><path codeLine="172" d="M1630.48,495.6094 C1593.59,495.6094 1634.9,625.7294 1643.48,661.6094 C1655.97,713.7994 1663.54,728.0394 1697.48,769.6094 C1706.1,780.1594 1716.46,790.1594 1727.14,799.1994 " fill="none" id="basic_vector-backto-basic_vector::anonymous_union" style="stroke:#181818;stroke-width:1.0;"/><polygon fill="#181818" points="1642.48,495.6094,1636.48,491.6094,1630.48,495.6094,1636.48,499.6094,1642.48,495.6094" style="stroke:#181818;stroke-width:1.0;"/><path d="M1702.48,705.6094 L1702.48,764.6094 L1923.48,764.6094 L1923.48,715.6094 L1913.48,705.6094 L1702.48,705.6094 " fill="#FEFFDD" style="stroke:#181818;stroke-width:0.5;"/><path d="M1913.48,705.6094 L1913.48,715.6094 L1923.48,715.6094 L1913.48,705.6094 " fill="#FEFFDD" style="stroke:#181818;stroke-width:0.5;"/><text fill="#000000" font-family="sans-serif" font-size="13" lengthAdjust="spacing" textLength="185" x="1708.48" y="724.1045">Nested anonymous union where</text><text fill="#000000" font-family="sans-serif" font-size="13" lengthAdjust="spacing" textLength="200" x="1708.48" y="740.4561">all members have a common initial</text><text fill="#000000" font-family="sans-serif" font-size="13" lengthAdjust="spacing" textLength="148" x="1708.48" y="756.8076">sequence with each other</text><text fill="#000000" font-family="sans-serif" font-size="13" lengthAdjust="spacing" textLength="7" x="1627.8792" y="488.1793">1</text><text fill="#000000" font-family="sans-serif" font-size="13" lengthAdjust="spacing" textLength="7" x="1715.0846" y="792.7404">1</text></g><!--reverse link indexed_vector_const_iterator to indexed_vector--><g id="link_indexed_vector_const_iterator_indexed_vector"><path codeLine="178" d="M1605.48,548.6094 C1632.15,548.6094 1593.47,581.9594 1592.48,608.6094 C1589.33,693.5794 1586.35,714.7194 1581.48,799.6094 C1577.57,867.7894 1573.17,944.7494 1569.83,1003.3194 " fill="none" id="indexed_vector_const_iterator-backto-indexed_vector" style="stroke:#181818;stroke-width:1.0;"/><polygon fill="#181818" points="1593.48,548.6094,1599.48,552.6094,1605.48,548.6094,1599.48,544.6094,1593.48,548.6094" style="stroke:#181818;stroke-width:1.0;"/><text fill="#000000" font-family="sans-serif" font-size="13" lengthAdjust="spacing" textLength="65" x="1582.48" y="850.6045">mapper_ptr</text><text fill="#000000" font-family="sans-serif" font-size="13" lengthAdjust="spacing" textLength="7" x="1600.1558" y="545.1034">1</text><text fill="#000000" font-family="sans-serif" font-size="13" lengthAdjust="spacing" textLength="32" x="1536.9813" y="992.6424">many</text></g><!--reverse link indexed_vector_iterator to indexed_vector--><g id="link_indexed_vector_iterator_indexed_vector"><path codeLine="179" d="M1382.0019,890.7965 C1409.9619,922.3965 1444.07,960.9694 1481.56,1003.3494 " fill="none" id="indexed_vector_iterator-backto-indexed_vector" style="stroke:#181818;stroke-width:1.0;"/><polygon fill="#181818" points="1374.05,881.8094,1375.0302,888.9535,1382.0019,890.7965,1381.0216,883.6523,1374.05,881.8094" style="stroke:#181818;stroke-width:1.0;"/><text fill="#000000" font-family="sans-serif" font-size="13" lengthAdjust="spacing" textLength="65" x="1422.48" y="935.1045">mapper_ptr</text><text fill="#000000" font-family="sans-serif" font-size="13" lengthAdjust="spacing" textLength="7" x="1369.8131" y="899.692">1</text><text fill="#000000" font-family="sans-serif" font-size="13" lengthAdjust="spacing" textLength="32" x="1441.6773" y="992.6748">many</text></g><!--reverse link indexed_view_const_iterator to indexed_view--><g id="link_indexed_view_const_iterator_indexed_view"><path codeLine="180" d="M567.48,548.6094 C594.15,548.6094 558.04,582.1794 554.48,608.6094 C542.78,695.4594 518.93,713.0094 505.48,799.6094 C495.46,864.1494 491.19,937.3894 489.43,995.0494 " fill="none" id="indexed_view_const_iterator-backto-indexed_view" style="stroke:#181818;stroke-width:1.0;"/><polygon fill="#181818" points="555.48,548.6094,561.48,552.6094,567.48,548.6094,561.48,544.6094,555.48,548.6094" style="stroke:#181818;stroke-width:1.0;"/><text fill="#000000" font-family="sans-serif" font-size="13" lengthAdjust="spacing" textLength="65" x="506.48" y="850.6045">mapper_ptr</text><text fill="#000000" font-family="sans-serif" font-size="13" lengthAdjust="spacing" textLength="7" x="561.7339" y="545.1034">1</text><text fill="#000000" font-family="sans-serif" font-size="13" lengthAdjust="spacing" textLength="32" x="456.3248" y="984.3836">many</text></g><!--reverse link indexed_view_iterator to indexed_view--><g id="link_indexed_view_iterator_indexed_view"><path codeLine="181" d="M311.028,890.9045 C336.418,920.4045 365.95,954.7194 400.48,994.8494 " fill="none" id="indexed_view_iterator-backto-indexed_view" style="stroke:#181818;stroke-width:1.0;"/><polygon fill="#181818" points="303.2,881.8094,304.0823,888.9663,311.028,890.9045,310.1457,883.7476,303.2,881.8094" style="stroke:#181818;stroke-width:1.0;"/><text fill="#000000" font-family="sans-serif" font-size="13" lengthAdjust="spacing" textLength="65" x="350.48" y="935.1045">mapper_ptr</text><text fill="#000000" font-family="sans-serif" font-size="13" lengthAdjust="spacing" textLength="7" x="298.8795" y="899.692">1</text><text fill="#000000" font-family="sans-serif" font-size="13" lengthAdjust="spacing" textLength="32" x="360.8425" y="984.169">many</text></g><!--reverse link basic_view::anonymous_union to view_wrapper--><g id="link_basic_view::anonymous_union_view_wrapper"><path codeLine="182" d="M1018.48,849.1094 C1048,849.1094 1009.91,907.9994 975.41,968.3894 " fill="none" id="basic_view::anonymous_union-backto-view_wrapper" style="stroke:#181818;stroke-width:1.0;"/><polygon fill="#181818" points="1006.48,849.1094,1012.48,853.1094,1018.48,849.1094,1012.48,845.1094,1006.48,849.1094" style="stroke:#181818;stroke-width:1.0;"/><text fill="#000000" font-family="sans-serif" font-size="13" lengthAdjust="spacing" textLength="28" x="1001.48" y="935.1045">base</text><text fill="#000000" font-family="sans-serif" font-size="13" lengthAdjust="spacing" textLength="7" x="1013.5097" y="846.1005">1</text><text fill="#000000" font-family="sans-serif" font-size="13" lengthAdjust="spacing" textLength="7" x="972.9442" y="957.9237">1</text></g><!--reverse link basic_view::anonymous_union to indexed_view--><g id="link_basic_view::anonymous_union_indexed_view"><path codeLine="183" d="M768.48,866.1094 C752.93,866.1094 767.21,880.3894 755.48,890.6094 C705.89,933.8294 648.46,978.8394 599.59,1015.7794 " fill="none" id="basic_view::anonymous_union-backto-indexed_view" style="stroke:#181818;stroke-width:1.0;"/><polygon fill="#181818" points="780.48,866.1094,774.48,862.1094,768.48,866.1094,774.48,870.1094,780.48,866.1094" style="stroke:#181818;stroke-width:1.0;"/><text fill="#000000" font-family="sans-serif" font-size="13" lengthAdjust="spacing" textLength="50" x="714.48" y="935.1045">swizzles</text><text fill="#000000" font-family="sans-serif" font-size="13" lengthAdjust="spacing" textLength="7" x="766.3808" y="864.4007">1</text><text fill="#000000" font-family="sans-serif" font-size="13" lengthAdjust="spacing" textLength="32" x="607.3358" y="1007.766">many</text></g><!--reverse link basic_view to basic_view::anonymous_union--><g id="link_basic_view_basic_view::anonymous_union"><path codeLine="184" d="M621.48,486.6094 C539.7,486.6094 593.39,599.9094 634.48,670.6094 C647.89,693.6794 668.02,681.3494 686.48,700.6094 C710.42,725.5794 697.18,746.0194 722.48,769.6094 C737.29,783.4094 755.05,794.9094 773.46,804.4194 " fill="none" id="basic_view-backto-basic_view::anonymous_union" style="stroke:#181818;stroke-width:1.0;"/><polygon fill="#181818" points="633.48,486.6094,627.48,482.6094,621.48,486.6094,627.48,490.6094,633.48,486.6094" style="stroke:#181818;stroke-width:1.0;"/><path d="M727.48,705.6094 L727.48,764.6094 L948.48,764.6094 L948.48,715.6094 L938.48,705.6094 L727.48,705.6094 " fill="#FEFFDD" style="stroke:#181818;stroke-width:0.5;"/><path d="M938.48,705.6094 L938.48,715.6094 L948.48,715.6094 L938.48,705.6094 " fill="#FEFFDD" style="stroke:#181818;stroke-width:0.5;"/><text fill="#000000" font-family="sans-serif" font-size="13" lengthAdjust="spacing" textLength="185" x="733.48" y="724.1045">Nested anonymous union where</text><text fill="#000000" font-family="sans-serif" font-size="13" lengthAdjust="spacing" textLength="200" x="733.48" y="740.4561">all members have a common initial</text><text fill="#000000" font-family="sans-serif" font-size="13" lengthAdjust="spacing" textLength="148" x="733.48" y="756.8076">sequence with each other</text><text fill="#000000" font-family="sans-serif" font-size="13" lengthAdjust="spacing" textLength="7" x="618.8792" y="478.5327">1</text><text fill="#000000" font-family="sans-serif" font-size="13" lengthAdjust="spacing" textLength="7" x="766.46" y="801.9145">1</text></g><!--reverse link CRTP duck type to vector_base--><g id="link_CRTP duck type_vector_base"><path codeLine="190" d="M954.23,204.6094 C988.12,204.6094 1024.33,204.6094 1064.17,204.6094 " fill="none" id="CRTP duck type-backto-vector_base" style="stroke:#181818;stroke-width:1.0;stroke-dasharray:7.0,7.0;"/><polygon fill="#181818" points="948.23,204.6094,957.23,208.6094,953.23,204.6094,957.23,200.6094,948.23,204.6094" style="stroke:#181818;stroke-width:1.0;"/><text fill="#000000" font-family="sans-serif" font-size="13" lengthAdjust="spacing" textLength="80" x="966.23" y="198.1045">Derived CRTP</text></g><!--reverse link basic_matrix to basic_vector--><g id="link_basic_matrix_basic_vector"><path codeLine="191" d="M1929.48,128.6094 C2018.6,128.6094 1945.54,244.8694 1916.48,329.1094 C1901.77,371.7594 1875.35,412.6094 1847.46,447.4794 " fill="none" id="basic_matrix-backto-basic_vector" style="stroke:#181818;stroke-width:1.0;"/><polygon fill="#181818" points="1917.48,128.6094,1923.48,132.6094,1929.48,128.6094,1923.48,124.6094,1917.48,128.6094" style="stroke:#181818;stroke-width:1.0;"/><text fill="#000000" font-family="sans-serif" font-size="13" lengthAdjust="spacing" textLength="49" x="1886.48" y="405.1045">columns</text><text fill="#000000" font-family="sans-serif" font-size="13" lengthAdjust="spacing" textLength="7" x="1923.9308" y="123.0794">1</text><text fill="#000000" font-family="sans-serif" font-size="13" lengthAdjust="spacing" textLength="26" x="1824.7655" y="440.8346">Cols</text></g><!--SRC=[pLXDSvim43tZNx7ZIzDyUAPN9iqblUJIwQIPwQ7JCZ8iiIP2K4d4STB-zou26Op07qsQzcIGTXzl7xkhnS4RVSSbg5pZ933S28Hh5CpmNEe5BpISmQLWMiC7pcuLooO1ap8trW2cbzStdo0fupimgmAda-1f4WGdyCJcsYWMcr-WqHozxI_c1IfcSlNrcx-NCCFyLOq_IfGn-ZlSr5Z0uXYrhWn-JGAYY20mDP2d0pI3ovp02bCo0LmIGifYF0No0eMq5bgJKYGmHyXOWfLL3WpYanE8Qzz9W3AfN4WuHmVkCIOkqPnfXFClYXis5mHySme49yqfV435xp6vS59PQgr8zjQJf-RV2jCuRKXYrmR4e2s1yjOicXlD7vqBqr5Iqt4BHI5MpJM1AtTDcP0wXd7t9kFINR47PrncpKiWJKhIXCi47p296cr8FcqYn_ISfFbCbDO2pMQpAxsM9oDAgAB2A0Z1UlRWFFyhNK5Sm77Nt_eGWZP9619OmjCqCjPYBLbQojYc_LRsU_BU6vNZykKK8R3NqwDY_a9gKBdmkFT2rywb98UwwdNLTsBg7sbA9QDT04mfjkhuLKcuhYYlcDp2- -Q-KrUzaXgk9hranI3zZlhF8z_Y7Tt0yTjN3AZJsxllX5ZANAwolDHH4z6JOueD1dzy5AX7K2YK0p4QQJKzdTrYj5GsSJrzgttS8kN_aJ9Z3TXF9LjLkuAzQOhvWE2wkA-IL0U6F5BxwuY_LilVV6PZVNf7GxBdypEoneB-tRGPxhZxnRLtWdJYw3xbxsT8ltbcp2Z-K5CI-XIkysKRLPoBCfCzzlqpmthKxdL0Ab_-0VKzihcc4urbUBCzdFCRy-7FixFDDjiCSN91KvdHuzPLEzrfkraGS803mVlcxQDhwqxPJeAj8zuGdNQp6MAYc6bpVj61yYSZd-OuJ7_cX- -psOROv65tULO8p51MCMvpgaNPpyMJ_a2taMTjFPB3qBx9wRif79DArM_ly2J8-gpTWUFEuHOhOt8rzQDg3-nDH8kpmMJ7C66_rXI_NT3dcWJ1vTqa0FY8sc02Q-jwc88bPIHM-qm8o32RezAmOFTOVPxbMKOcN7B3cQYCN2k29JSBG1Ol83U4qFrwsvgzOTYPk7Sfqffwg2-7vnV6NfXrKeqYFXDhow0ta9dTSQIVbiCGEvEofkIbf4KRJSZXkVGVfwFN6yvd6_yhXEvF1DkYNQJr2Hg6xh1SHrkTYDD-wskiVWC0]--></g></svg>