<svg xmlns="http://www.w3.org/2000/svg" xmlns:xlink="http://www.w3.org/1999/xlink" contentStyleType="text/css" height="1287px" preserveAspectRatio="none" style="width:2269px;height:1287px;background:#FFFFFF;" version="1.1" viewBox="0 0 2269 1287" width="2269px" zoomAndPan="magnify"><defs/><g><text fill="#000000" font-family="sans-serif" font-size="14" font-weight="bold" lengthAdjust="spacing" textLength="208" x="1023.92" y="24.5332">Relationships - Class Diagram</text><!--class CRTP duck type--><g id="elem_CRTP duck type"><rect codeLine="3" fill="#F1F1F1" height="136.0469" id="CRTP duck type" rx="2.5" ry="2.5" style="stroke:#181818;stroke-width:0.5;" width="135" x="966.84" y="145.6094"/><ellipse cx="981.84" cy="161.6094" fill="#E3664A" rx="11" ry="11" style="stroke:#181818;stroke-width:1.0;"/><path d="M984.1838,159.1875 L984.1838,158.6719 Q984.1838,157.8438 983.6994,157.3438 Q983.2306,156.8438 982.4806,156.8438 Q981.8869,156.8438 981.3556,157.25 Q980.8244,157.6406 980.5588,158.2656 Q980.09,159.3594 980.09,160.4688 L980.09,162.9844 Q980.09,164.9063 980.9494,166.0313 Q981.5119,166.7813 982.5275,166.7813 Q983.0744,166.7813 983.5119,166.6406 Q983.965,166.5 984.215,166.25 Q984.465,166 984.6838,166 Q984.9494,166 985.1369,166.1875 Q985.3244,166.375 985.3244,166.6406 Q985.3244,167.0625 984.7463,167.4531 Q983.9181,168.0156 982.4806,168.0156 Q981.3869,168.0156 980.6681,167.5156 Q979.7463,166.875 979.2931,165.6094 Q978.84,164.3438 978.84,163.1094 L978.84,160.375 Q978.84,158.3906 979.8244,157 Q980.8088,155.5938 982.4494,155.5938 Q983.1994,155.5938 983.84,155.9063 Q984.4963,156.2031 984.965,156.9688 Q985.4338,157.7344 985.4338,158.6719 L985.4338,163.2031 Q985.7931,163.375 985.7931,163.7656 Q985.7931,164.0469 985.59,164.2344 Q985.4025,164.4063 984.9338,164.4063 L984.1838,164.4063 L984.1838,164.3594 Q983.7931,164.4219 983.6056,164.4219 Q982.6056,164.4219 981.8556,163.6875 Q981.1213,162.9375 981.1213,161.9375 Q981.1213,160.875 981.9338,160.0781 Q982.7619,159.2813 984.1838,159.1875 Z M984.1838,160.4688 Q983.2931,160.5625 982.8244,160.9844 Q982.3713,161.4063 982.3713,161.9531 Q982.3713,162.4375 982.7463,162.7813 Q983.1369,163.125 983.7775,163.125 Q983.9025,163.125 984.1838,163.1094 L984.1838,160.4688 Z " fill="#000000"/><text fill="#000000" font-family="sans-serif" font-size="14" lengthAdjust="spacing" textLength="103" x="995.84" y="167.3379">CRTP duck type</text><line style="stroke:#181818;stroke-width:0.5;" x1="967.84" x2="1100.84" y1="177.6094" y2="177.6094"/><line style="stroke:#181818;stroke-width:0.5;" x1="967.84" x2="1100.84" y1="185.6094" y2="185.6094"/><ellipse cx="977.84" cy="199.9141" fill="#84BE84" rx="3" ry="3" style="stroke:#038048;stroke-width:1.0;"/><text fill="#000000" font-family="sans-serif" font-size="14" font-style="italic" lengthAdjust="spacing" textLength="29" x="986.84" y="204.1426">set()</text><ellipse cx="977.84" cy="217.5234" fill="#84BE84" rx="3" ry="3" style="stroke:#038048;stroke-width:1.0;"/><text fill="#000000" font-family="sans-serif" font-size="14" font-style="italic" lengthAdjust="spacing" textLength="72" x="986.84" y="221.752">operator[]()</text><ellipse cx="977.84" cy="235.1328" fill="#84BE84" rx="3" ry="3" style="stroke:#038048;stroke-width:1.0;"/><text fill="#000000" font-family="sans-serif" font-size="14" font-style="italic" lengthAdjust="spacing" textLength="38" x="986.84" y="239.3613">data()</text><ellipse cx="977.84" cy="252.7422" fill="#84BE84" rx="3" ry="3" style="stroke:#038048;stroke-width:1.0;"/><text fill="#000000" font-family="sans-serif" font-size="14" font-style="italic" lengthAdjust="spacing" textLength="72" x="986.84" y="256.9707">sequence()</text><ellipse cx="977.84" cy="270.3516" fill="#84BE84" rx="3" ry="3" style="stroke:#038048;stroke-width:1.0;"/><text fill="#000000" font-family="sans-serif" font-size="14" font-style="italic" lengthAdjust="spacing" textLength="103" x="986.84" y="274.5801">iterator access()</text></g><g id="elem_GMN3"><path d="M710.84,192.1094 L710.84,234.8125 A0,0 0 0 0 710.84,234.8125 L931.84,234.8125 A0,0 0 0 0 931.84,234.8125 L931.84,217.6094 L966.78,213.6094 L931.84,209.6094 L931.84,202.1094 L921.84,192.1094 L710.84,192.1094 A0,0 0 0 0 710.84,192.1094 " fill="#FEFFDD" style="stroke:#181818;stroke-width:0.5;"/><path d="M921.84,192.1094 L921.84,202.1094 L931.84,202.1094 L921.84,192.1094 " fill="#FEFFDD" style="stroke:#181818;stroke-width:0.5;"/><text fill="#000000" font-family="sans-serif" font-size="13" lengthAdjust="spacing" textLength="177" x="716.84" y="210.6045">Conceptual interface, not real :</text><text fill="#000000" font-family="sans-serif" font-size="13" lengthAdjust="spacing" textLength="200" x="716.84" y="226.9561">Could be made into a c++ concept</text></g><!--class vector_base--><g id="elem_vector_base"><rect codeLine="15" fill="#F1F1F1" height="329.75" id="vector_base" rx="2.5" ry="2.5" style="stroke:#181818;stroke-width:0.5;" width="260" x="1218.34" y="48.6094"/><ellipse cx="1233.34" cy="64.6094" fill="#A9DCDF" rx="11" ry="11" style="stroke:#181818;stroke-width:1.0;"/><path d="M1235.5275,66.375 L1231.3869,66.375 L1230.965,67.4063 L1231.3869,67.4063 Q1231.9963,67.4063 1232.2619,67.6406 Q1232.5275,67.875 1232.5275,68.2656 Q1232.5275,68.6406 1232.2619,68.875 Q1231.9963,69.1094 1231.3869,69.1094 L1229.09,69.1094 Q1228.4806,69.1094 1228.2306,68.875 Q1227.965,68.6406 1227.965,68.25 Q1227.965,67.875 1228.2463,67.6406 Q1228.5119,67.3906 1229.1369,67.4063 L1231.8088,60.75 L1230.6994,60.75 Q1230.09,60.75 1229.8244,60.5156 Q1229.5588,60.2813 1229.5588,59.8906 Q1229.5588,59.5156 1229.8244,59.2813 Q1230.09,59.0469 1230.6994,59.0469 L1234.3713,59.0469 L1237.7619,67.4063 Q1238.3556,67.4063 1238.5431,67.5469 Q1238.9338,67.8125 1238.9338,68.2656 Q1238.9338,68.6406 1238.6681,68.875 Q1238.4181,69.1094 1237.8088,69.1094 L1235.5119,69.1094 Q1234.9025,69.1094 1234.6369,68.875 Q1234.3713,68.6406 1234.3713,68.25 Q1234.3713,67.875 1234.6369,67.6406 Q1234.9025,67.4063 1235.5119,67.4063 L1235.9338,67.4063 L1235.5275,66.375 Z M1234.8088,64.6719 L1233.4494,61.2969 L1232.0744,64.6719 L1234.8088,64.6719 Z " fill="#000000"/><text fill="#000000" font-family="sans-serif" font-size="14" font-style="italic" lengthAdjust="spacing" textLength="77" x="1247.34" y="70.3379">vector_base</text><rect fill="#FFFFFF" height="17.0938" style="stroke:#181818;stroke-width:1.0;stroke-dasharray:2.0,2.0;" width="149" x="1332.34" y="45.6094"/><text fill="#000000" font-family="sans-serif" font-size="12" font-style="italic" lengthAdjust="spacing" textLength="147" x="1333.34" y="59.0664">Writable, T, Count, Derived</text><line style="stroke:#181818;stroke-width:0.5;" x1="1219.34" x2="1477.34" y1="80.6094" y2="80.6094"/><line style="stroke:#181818;stroke-width:0.5;" x1="1219.34" x2="1477.34" y1="88.6094" y2="88.6094"/><ellipse cx="1229.34" cy="102.9141" fill="#84BE84" rx="3" ry="3" style="stroke:#038048;stroke-width:1.0;"/><text fill="#000000" font-family="sans-serif" font-size="14" lengthAdjust="spacing" textLength="71" x="1238.34" y="107.1426">CRTP set()</text><ellipse cx="1229.34" cy="120.5234" fill="#84BE84" rx="3" ry="3" style="stroke:#038048;stroke-width:1.0;"/><text fill="#000000" font-family="sans-serif" font-size="14" lengthAdjust="spacing" textLength="114" x="1238.34" y="124.752">CRTP operator[]()</text><ellipse cx="1229.34" cy="138.1328" fill="#84BE84" rx="3" ry="3" style="stroke:#038048;stroke-width:1.0;"/><text fill="#000000" font-family="sans-serif" font-size="14" lengthAdjust="spacing" textLength="80" x="1238.34" y="142.3613">CRTP data()</text><ellipse cx="1229.34" cy="155.7422" fill="#84BE84" rx="3" ry="3" style="stroke:#038048;stroke-width:1.0;"/><text fill="#000000" font-family="sans-serif" font-size="14" lengthAdjust="spacing" textLength="114" x="1238.34" y="159.9707">CRTP sequence()</text><ellipse cx="1229.34" cy="173.3516" fill="#84BE84" rx="3" ry="3" style="stroke:#038048;stroke-width:1.0;"/><text fill="#000000" font-family="sans-serif" font-size="14" lengthAdjust="spacing" textLength="145" x="1238.34" y="177.5801">CRTP iterator access()</text><ellipse cx="1229.34" cy="190.9609" fill="#84BE84" rx="3" ry="3" style="stroke:#038048;stroke-width:1.0;"/><text fill="#000000" font-family="sans-serif" font-size="14" lengthAdjust="spacing" textLength="49" x="1238.34" y="195.1895">length()</text><ellipse cx="1229.34" cy="208.5703" fill="#84BE84" rx="3" ry="3" style="stroke:#038048;stroke-width:1.0;"/><text fill="#000000" font-family="sans-serif" font-size="14" lengthAdjust="spacing" textLength="34" x="1238.34" y="212.7988">size()</text><ellipse cx="1229.34" cy="226.1797" fill="#84BE84" rx="3" ry="3" style="stroke:#038048;stroke-width:1.0;"/><text fill="#000000" font-family="sans-serif" font-size="14" lengthAdjust="spacing" textLength="80" x="1238.34" y="230.4082">as_derived()</text><ellipse cx="1229.34" cy="243.7891" fill="#84BE84" rx="3" ry="3" style="stroke:#038048;stroke-width:1.0;"/><text fill="#000000" font-family="sans-serif" font-size="14" lengthAdjust="spacing" textLength="64" x="1238.34" y="248.0176">as_base()</text><ellipse cx="1229.34" cy="261.3984" fill="#84BE84" rx="3" ry="3" style="stroke:#038048;stroke-width:1.0;"/><text fill="#000000" font-family="sans-serif" font-size="14" lengthAdjust="spacing" textLength="44" x="1238.34" y="265.627">apply()</text><ellipse cx="1229.34" cy="279.0078" fill="#84BE84" rx="3" ry="3" style="stroke:#038048;stroke-width:1.0;"/><text fill="#000000" font-family="sans-serif" font-size="14" lengthAdjust="spacing" textLength="46" x="1238.34" y="283.2363">query()</text><ellipse cx="1229.34" cy="296.6172" fill="#84BE84" rx="3" ry="3" style="stroke:#038048;stroke-width:1.0;"/><text fill="#000000" font-family="sans-serif" font-size="14" lengthAdjust="spacing" textLength="36" x="1238.34" y="300.8457">shift()</text><ellipse cx="1229.34" cy="314.2266" fill="#84BE84" rx="3" ry="3" style="stroke:#038048;stroke-width:1.0;"/><text fill="#000000" font-family="sans-serif" font-size="14" lengthAdjust="spacing" textLength="43" x="1238.34" y="318.4551">cshift()</text><ellipse cx="1229.34" cy="331.8359" fill="#84BE84" rx="3" ry="3" style="stroke:#038048;stroke-width:1.0;"/><text fill="#000000" font-family="sans-serif" font-size="14" lengthAdjust="spacing" textLength="32" x="1238.34" y="336.0645">min()</text><ellipse cx="1229.34" cy="349.4453" fill="#84BE84" rx="3" ry="3" style="stroke:#038048;stroke-width:1.0;"/><text fill="#000000" font-family="sans-serif" font-size="14" lengthAdjust="spacing" textLength="35" x="1238.34" y="353.6738">max()</text><ellipse cx="1229.34" cy="367.0547" fill="#84BE84" rx="3" ry="3" style="stroke:#038048;stroke-width:1.0;"/><text fill="#000000" font-family="sans-serif" font-size="14" lengthAdjust="spacing" textLength="36" x="1238.34" y="371.2832">sum()</text></g><!--class indexed_vector_const_iterator--><g id="elem_indexed_vector_const_iterator"><rect codeLine="34" fill="#F1F1F1" height="100.8281" id="indexed_vector_const_iterator" rx="2.5" ry="2.5" style="stroke:#181818;stroke-width:0.5;" width="393" x="1269.84" y="540.1094"/><ellipse cx="1291.14" cy="556.1094" fill="#F1F1F1" rx="11" ry="11" style="stroke:#181818;stroke-width:1.0;"/><path d="M1289.2494,560.6719 Q1289.0306,560.9375 1288.89,561.0156 Q1288.7494,561.0938 1288.5619,561.0938 Q1288.1712,561.0938 1287.9212,560.8281 Q1287.6869,560.5625 1287.6869,559.9688 L1287.6869,558.8125 Q1287.6869,558.2031 1287.9212,557.9531 Q1288.1712,557.6875 1288.5619,557.6875 Q1288.8587,557.6875 1289.0619,557.8438 Q1289.265,558 1289.3744,558.375 Q1289.4837,558.7344 1289.5931,558.875 Q1289.8431,559.125 1290.4525,559.3906 Q1291.0619,559.6563 1291.7962,559.6563 Q1292.9369,559.6563 1293.6556,559.125 Q1294.1244,558.7969 1294.1244,558.3281 Q1294.1244,558.0156 1293.9056,557.7344 Q1293.6869,557.4531 1293.1712,557.2813 Q1292.8431,557.1563 1291.6869,556.9375 Q1290.2962,556.6719 1289.5775,556.3125 Q1288.8587,555.9531 1288.4369,555.2969 Q1288.0306,554.625 1288.0306,553.8438 Q1288.0306,552.625 1289.0462,551.7188 Q1290.0775,550.7969 1291.7181,550.7969 Q1292.3744,550.7969 1292.9212,550.9375 Q1293.4837,551.0781 1293.9525,551.375 Q1294.2806,551.0625 1294.6087,551.0625 Q1294.9837,551.0625 1295.2181,551.3281 Q1295.4525,551.5781 1295.4525,552.1875 L1295.4525,553.4688 Q1295.4525,554.0781 1295.2181,554.3438 Q1294.9837,554.5938 1294.6087,554.5938 Q1294.2962,554.5938 1294.0619,554.4063 Q1293.8744,554.2656 1293.7806,553.8438 Q1293.7025,553.4219 1293.5619,553.2344 Q1293.3119,552.9219 1292.8275,552.7188 Q1292.3587,552.5 1291.7181,552.5 Q1290.7962,552.5 1290.265,552.9219 Q1289.7337,553.3438 1289.7337,553.8125 Q1289.7337,554.125 1289.9525,554.4219 Q1290.1712,554.7188 1290.5931,554.8906 Q1290.8744,555 1292.1712,555.2656 Q1293.4837,555.5156 1294.1869,555.8281 Q1294.89,556.125 1295.3587,556.7813 Q1295.8275,557.4375 1295.8275,558.3438 Q1295.8275,559.6094 1294.9369,560.3594 Q1293.7494,561.3594 1291.9212,561.3594 Q1291.2181,561.3594 1290.5462,561.1875 Q1289.89,561.0156 1289.2494,560.6719 Z " fill="#000000"/><text fill="#000000" font-family="sans-serif" font-size="14" lengthAdjust="spacing" textLength="191" x="1306.54" y="561.8379">indexed_vector_const_iterator</text><rect fill="#FFFFFF" height="17.0938" style="stroke:#181818;stroke-width:1.0;stroke-dasharray:2.0,2.0;" width="154" x="1511.84" y="537.1094"/><text fill="#000000" font-family="sans-serif" font-size="12" font-style="italic" lengthAdjust="spacing" textLength="152" x="1512.84" y="550.5664">Mutable, T, Size, Count, ...Is</text><line style="stroke:#181818;stroke-width:0.5;" x1="1270.84" x2="1661.84" y1="572.1094" y2="572.1094"/><ellipse cx="1280.84" cy="586.4141" fill="none" rx="3" ry="3" style="stroke:#038048;stroke-width:1.0;"/><text fill="#000000" font-family="sans-serif" font-size="14" lengthAdjust="spacing" textLength="367" x="1289.84" y="590.6426">mapper_ptr : const indexed_vector&lt;T, Size, Count, Is ...&gt; *</text><ellipse cx="1280.84" cy="604.0234" fill="none" rx="3" ry="3" style="stroke:#038048;stroke-width:1.0;"/><text fill="#000000" font-family="sans-serif" font-size="14" lengthAdjust="spacing" textLength="176" x="1289.84" y="608.252">mapper_index : std::ptrdiff_t</text><line style="stroke:#181818;stroke-width:0.5;" x1="1270.84" x2="1661.84" y1="615.3281" y2="615.3281"/><ellipse cx="1280.84" cy="629.6328" fill="#84BE84" rx="3" ry="3" style="stroke:#038048;stroke-width:1.0;"/><text fill="#000000" font-family="sans-serif" font-size="14" lengthAdjust="spacing" textLength="116" x="1289.84" y="633.8613">iterator functions()</text></g><!--class indexed_vector_iterator--><g id="elem_indexed_vector_iterator"><rect codeLine="40" fill="#F1F1F1" height="65.6094" id="indexed_vector_iterator" rx="2.5" ry="2.5" style="stroke:#181818;stroke-width:0.5;" width="337" x="1262.84" y="865.6094"/><ellipse cx="1277.84" cy="881.6094" fill="#F1F1F1" rx="11" ry="11" style="stroke:#181818;stroke-width:1.0;"/><path d="M1275.9494,886.1719 Q1275.7306,886.4375 1275.59,886.5156 Q1275.4494,886.5938 1275.2619,886.5938 Q1274.8713,886.5938 1274.6213,886.3281 Q1274.3869,886.0625 1274.3869,885.4688 L1274.3869,884.3125 Q1274.3869,883.7031 1274.6213,883.4531 Q1274.8713,883.1875 1275.2619,883.1875 Q1275.5588,883.1875 1275.7619,883.3438 Q1275.965,883.5 1276.0744,883.875 Q1276.1838,884.2344 1276.2931,884.375 Q1276.5431,884.625 1277.1525,884.8906 Q1277.7619,885.1563 1278.4963,885.1563 Q1279.6369,885.1563 1280.3556,884.625 Q1280.8244,884.2969 1280.8244,883.8281 Q1280.8244,883.5156 1280.6056,883.2344 Q1280.3869,882.9531 1279.8713,882.7813 Q1279.5431,882.6563 1278.3869,882.4375 Q1276.9963,882.1719 1276.2775,881.8125 Q1275.5588,881.4531 1275.1369,880.7969 Q1274.7306,880.125 1274.7306,879.3438 Q1274.7306,878.125 1275.7463,877.2188 Q1276.7775,876.2969 1278.4181,876.2969 Q1279.0744,876.2969 1279.6213,876.4375 Q1280.1838,876.5781 1280.6525,876.875 Q1280.9806,876.5625 1281.3088,876.5625 Q1281.6838,876.5625 1281.9181,876.8281 Q1282.1525,877.0781 1282.1525,877.6875 L1282.1525,878.9688 Q1282.1525,879.5781 1281.9181,879.8438 Q1281.6838,880.0938 1281.3088,880.0938 Q1280.9963,880.0938 1280.7619,879.9063 Q1280.5744,879.7656 1280.4806,879.3438 Q1280.4025,878.9219 1280.2619,878.7344 Q1280.0119,878.4219 1279.5275,878.2188 Q1279.0588,878 1278.4181,878 Q1277.4963,878 1276.965,878.4219 Q1276.4338,878.8438 1276.4338,879.3125 Q1276.4338,879.625 1276.6525,879.9219 Q1276.8713,880.2188 1277.2931,880.3906 Q1277.5744,880.5 1278.8713,880.7656 Q1280.1838,881.0156 1280.8869,881.3281 Q1281.59,881.625 1282.0588,882.2813 Q1282.5275,882.9375 1282.5275,883.8438 Q1282.5275,885.1094 1281.6369,885.8594 Q1280.4494,886.8594 1278.6213,886.8594 Q1277.9181,886.8594 1277.2463,886.6875 Q1276.59,886.5156 1275.9494,886.1719 Z " fill="#000000"/><text fill="#000000" font-family="sans-serif" font-size="14" lengthAdjust="spacing" textLength="149" x="1291.84" y="887.3379">indexed_vector_iterator</text><rect fill="#FFFFFF" height="17.0938" style="stroke:#181818;stroke-width:1.0;stroke-dasharray:2.0,2.0;" width="154" x="1448.84" y="862.6094"/><text fill="#000000" font-family="sans-serif" font-size="12" font-style="italic" lengthAdjust="spacing" textLength="152" x="1449.84" y="876.0664">Mutable, T, Size, Count, ...Is</text><line style="stroke:#181818;stroke-width:0.5;" x1="1263.84" x2="1598.84" y1="897.6094" y2="897.6094"/><line style="stroke:#181818;stroke-width:0.5;" x1="1263.84" x2="1598.84" y1="905.6094" y2="905.6094"/><ellipse cx="1273.84" cy="919.9141" fill="#84BE84" rx="3" ry="3" style="stroke:#038048;stroke-width:1.0;"/><text fill="#000000" font-family="sans-serif" font-size="14" lengthAdjust="spacing" textLength="116" x="1282.84" y="924.1426">iterator functions()</text></g><!--class indexed_view_const_iterator--><g id="elem_indexed_view_const_iterator"><rect codeLine="44" fill="#F1F1F1" height="100.8281" id="indexed_view_const_iterator" rx="2.5" ry="2.5" style="stroke:#181818;stroke-width:0.5;" width="381" x="243.84" y="540.1094"/><ellipse cx="265.14" cy="556.1094" fill="#F1F1F1" rx="11" ry="11" style="stroke:#181818;stroke-width:1.0;"/><path d="M263.2494,560.6719 Q263.0306,560.9375 262.89,561.0156 Q262.7494,561.0938 262.5619,561.0938 Q262.1713,561.0938 261.9213,560.8281 Q261.6869,560.5625 261.6869,559.9688 L261.6869,558.8125 Q261.6869,558.2031 261.9213,557.9531 Q262.1713,557.6875 262.5619,557.6875 Q262.8588,557.6875 263.0619,557.8438 Q263.265,558 263.3744,558.375 Q263.4838,558.7344 263.5931,558.875 Q263.8431,559.125 264.4525,559.3906 Q265.0619,559.6563 265.7963,559.6563 Q266.9369,559.6563 267.6556,559.125 Q268.1244,558.7969 268.1244,558.3281 Q268.1244,558.0156 267.9056,557.7344 Q267.6869,557.4531 267.1713,557.2813 Q266.8431,557.1563 265.6869,556.9375 Q264.2963,556.6719 263.5775,556.3125 Q262.8588,555.9531 262.4369,555.2969 Q262.0306,554.625 262.0306,553.8438 Q262.0306,552.625 263.0463,551.7188 Q264.0775,550.7969 265.7181,550.7969 Q266.3744,550.7969 266.9213,550.9375 Q267.4838,551.0781 267.9525,551.375 Q268.2806,551.0625 268.6088,551.0625 Q268.9838,551.0625 269.2181,551.3281 Q269.4525,551.5781 269.4525,552.1875 L269.4525,553.4688 Q269.4525,554.0781 269.2181,554.3438 Q268.9838,554.5938 268.6088,554.5938 Q268.2963,554.5938 268.0619,554.4063 Q267.8744,554.2656 267.7806,553.8438 Q267.7025,553.4219 267.5619,553.2344 Q267.3119,552.9219 266.8275,552.7188 Q266.3588,552.5 265.7181,552.5 Q264.7963,552.5 264.265,552.9219 Q263.7338,553.3438 263.7338,553.8125 Q263.7338,554.125 263.9525,554.4219 Q264.1713,554.7188 264.5931,554.8906 Q264.8744,555 266.1713,555.2656 Q267.4838,555.5156 268.1869,555.8281 Q268.89,556.125 269.3588,556.7813 Q269.8275,557.4375 269.8275,558.3438 Q269.8275,559.6094 268.9369,560.3594 Q267.7494,561.3594 265.9213,561.3594 Q265.2181,561.3594 264.5463,561.1875 Q263.89,561.0156 263.2494,560.6719 Z " fill="#000000"/><text fill="#000000" font-family="sans-serif" font-size="14" lengthAdjust="spacing" textLength="179" x="280.54" y="561.8379">indexed_view_const_iterator</text><rect fill="#FFFFFF" height="17.0938" style="stroke:#181818;stroke-width:1.0;stroke-dasharray:2.0,2.0;" width="154" x="473.84" y="537.1094"/><text fill="#000000" font-family="sans-serif" font-size="12" font-style="italic" lengthAdjust="spacing" textLength="152" x="474.84" y="550.5664">Mutable, T, Size, Count, ...Is</text><line style="stroke:#181818;stroke-width:0.5;" x1="244.84" x2="623.84" y1="572.1094" y2="572.1094"/><ellipse cx="254.84" cy="586.4141" fill="none" rx="3" ry="3" style="stroke:#038048;stroke-width:1.0;"/><text fill="#000000" font-family="sans-serif" font-size="14" lengthAdjust="spacing" textLength="355" x="263.84" y="590.6426">mapper_ptr : const indexed_view&lt;T, Size, Count, Is ...&gt; *</text><ellipse cx="254.84" cy="604.0234" fill="none" rx="3" ry="3" style="stroke:#038048;stroke-width:1.0;"/><text fill="#000000" font-family="sans-serif" font-size="14" lengthAdjust="spacing" textLength="176" x="263.84" y="608.252">mapper_index : std::ptrdiff_t</text><line style="stroke:#181818;stroke-width:0.5;" x1="244.84" x2="623.84" y1="615.3281" y2="615.3281"/><ellipse cx="254.84" cy="629.6328" fill="#84BE84" rx="3" ry="3" style="stroke:#038048;stroke-width:1.0;"/><text fill="#000000" font-family="sans-serif" font-size="14" lengthAdjust="spacing" textLength="116" x="263.84" y="633.8613">iterator functions()</text></g><!--class indexed_view_iterator--><g id="elem_indexed_view_iterator"><rect codeLine="50" fill="#F1F1F1" height="65.6094" id="indexed_view_iterator" rx="2.5" ry="2.5" style="stroke:#181818;stroke-width:0.5;" width="325" x="148.84" y="865.6094"/><ellipse cx="163.84" cy="881.6094" fill="#F1F1F1" rx="11" ry="11" style="stroke:#181818;stroke-width:1.0;"/><path d="M161.9494,886.1719 Q161.7306,886.4375 161.59,886.5156 Q161.4494,886.5938 161.2619,886.5938 Q160.8713,886.5938 160.6213,886.3281 Q160.3869,886.0625 160.3869,885.4688 L160.3869,884.3125 Q160.3869,883.7031 160.6213,883.4531 Q160.8713,883.1875 161.2619,883.1875 Q161.5588,883.1875 161.7619,883.3438 Q161.965,883.5 162.0744,883.875 Q162.1838,884.2344 162.2931,884.375 Q162.5431,884.625 163.1525,884.8906 Q163.7619,885.1563 164.4963,885.1563 Q165.6369,885.1563 166.3556,884.625 Q166.8244,884.2969 166.8244,883.8281 Q166.8244,883.5156 166.6056,883.2344 Q166.3869,882.9531 165.8713,882.7813 Q165.5431,882.6563 164.3869,882.4375 Q162.9963,882.1719 162.2775,881.8125 Q161.5588,881.4531 161.1369,880.7969 Q160.7306,880.125 160.7306,879.3438 Q160.7306,878.125 161.7463,877.2188 Q162.7775,876.2969 164.4181,876.2969 Q165.0744,876.2969 165.6213,876.4375 Q166.1838,876.5781 166.6525,876.875 Q166.9806,876.5625 167.3088,876.5625 Q167.6838,876.5625 167.9181,876.8281 Q168.1525,877.0781 168.1525,877.6875 L168.1525,878.9688 Q168.1525,879.5781 167.9181,879.8438 Q167.6838,880.0938 167.3088,880.0938 Q166.9963,880.0938 166.7619,879.9063 Q166.5744,879.7656 166.4806,879.3438 Q166.4025,878.9219 166.2619,878.7344 Q166.0119,878.4219 165.5275,878.2188 Q165.0588,878 164.4181,878 Q163.4963,878 162.965,878.4219 Q162.4338,878.8438 162.4338,879.3125 Q162.4338,879.625 162.6525,879.9219 Q162.8713,880.2188 163.2931,880.3906 Q163.5744,880.5 164.8713,880.7656 Q166.1838,881.0156 166.8869,881.3281 Q167.59,881.625 168.0588,882.2813 Q168.5275,882.9375 168.5275,883.8438 Q168.5275,885.1094 167.6369,885.8594 Q166.4494,886.8594 164.6213,886.8594 Q163.9181,886.8594 163.2463,886.6875 Q162.59,886.5156 161.9494,886.1719 Z " fill="#000000"/><text fill="#000000" font-family="sans-serif" font-size="14" lengthAdjust="spacing" textLength="137" x="177.84" y="887.3379">indexed_view_iterator</text><rect fill="#FFFFFF" height="17.0938" style="stroke:#181818;stroke-width:1.0;stroke-dasharray:2.0,2.0;" width="154" x="322.84" y="862.6094"/><text fill="#000000" font-family="sans-serif" font-size="12" font-style="italic" lengthAdjust="spacing" textLength="152" x="323.84" y="876.0664">Mutable, T, Size, Count, ...Is</text><line style="stroke:#181818;stroke-width:0.5;" x1="149.84" x2="472.84" y1="897.6094" y2="897.6094"/><line style="stroke:#181818;stroke-width:0.5;" x1="149.84" x2="472.84" y1="905.6094" y2="905.6094"/><ellipse cx="159.84" cy="919.9141" fill="#84BE84" rx="3" ry="3" style="stroke:#038048;stroke-width:1.0;"/><text fill="#000000" font-family="sans-serif" font-size="14" lengthAdjust="spacing" textLength="116" x="168.84" y="924.1426">iterator functions()</text></g><!--class basic_vector--><g id="elem_basic_vector"><rect codeLine="54" fill="#F1F1F1" height="206.4844" id="basic_vector" rx="2.5" ry="2.5" style="stroke:#181818;stroke-width:0.5;" width="199" x="1713.84" y="487.1094"/><ellipse cx="1749.09" cy="503.1094" fill="#F1F1F1" rx="11" ry="11" style="stroke:#181818;stroke-width:1.0;"/><path d="M1747.1994,507.6719 Q1746.9806,507.9375 1746.84,508.0156 Q1746.6994,508.0938 1746.5119,508.0938 Q1746.1213,508.0938 1745.8713,507.8281 Q1745.6369,507.5625 1745.6369,506.9688 L1745.6369,505.8125 Q1745.6369,505.2031 1745.8713,504.9531 Q1746.1213,504.6875 1746.5119,504.6875 Q1746.8088,504.6875 1747.0119,504.8438 Q1747.215,505 1747.3244,505.375 Q1747.4338,505.7344 1747.5431,505.875 Q1747.7931,506.125 1748.4025,506.3906 Q1749.0119,506.6563 1749.7463,506.6563 Q1750.8869,506.6563 1751.6056,506.125 Q1752.0744,505.7969 1752.0744,505.3281 Q1752.0744,505.0156 1751.8556,504.7344 Q1751.6369,504.4531 1751.1213,504.2813 Q1750.7931,504.1563 1749.6369,503.9375 Q1748.2463,503.6719 1747.5275,503.3125 Q1746.8088,502.9531 1746.3869,502.2969 Q1745.9806,501.625 1745.9806,500.8438 Q1745.9806,499.625 1746.9963,498.7188 Q1748.0275,497.7969 1749.6681,497.7969 Q1750.3244,497.7969 1750.8713,497.9375 Q1751.4338,498.0781 1751.9025,498.375 Q1752.2306,498.0625 1752.5588,498.0625 Q1752.9338,498.0625 1753.1681,498.3281 Q1753.4025,498.5781 1753.4025,499.1875 L1753.4025,500.4688 Q1753.4025,501.0781 1753.1681,501.3438 Q1752.9338,501.5938 1752.5588,501.5938 Q1752.2463,501.5938 1752.0119,501.4063 Q1751.8244,501.2656 1751.7306,500.8438 Q1751.6525,500.4219 1751.5119,500.2344 Q1751.2619,499.9219 1750.7775,499.7188 Q1750.3088,499.5 1749.6681,499.5 Q1748.7463,499.5 1748.215,499.9219 Q1747.6838,500.3438 1747.6838,500.8125 Q1747.6838,501.125 1747.9025,501.4219 Q1748.1213,501.7188 1748.5431,501.8906 Q1748.8244,502 1750.1213,502.2656 Q1751.4338,502.5156 1752.1369,502.8281 Q1752.84,503.125 1753.3088,503.7813 Q1753.7775,504.4375 1753.7775,505.3438 Q1753.7775,506.6094 1752.8869,507.3594 Q1751.6994,508.3594 1749.8713,508.3594 Q1749.1681,508.3594 1748.4963,508.1875 Q1747.84,508.0156 1747.1994,507.6719 Z " fill="#000000"/><text fill="#000000" font-family="sans-serif" font-size="14" lengthAdjust="spacing" textLength="80" x="1767.59" y="508.8379">basic_vector</text><rect fill="#FFFFFF" height="17.0938" style="stroke:#181818;stroke-width:1.0;stroke-dasharray:2.0,2.0;" width="40" x="1875.84" y="484.1094"/><text fill="#000000" font-family="sans-serif" font-size="12" font-style="italic" lengthAdjust="spacing" textLength="38" x="1876.84" y="497.5664">T, Size</text><line style="stroke:#181818;stroke-width:0.5;" x1="1714.84" x2="1911.84" y1="519.1094" y2="519.1094"/><ellipse cx="1724.84" cy="533.4141" fill="none" rx="3" ry="3" style="stroke:#038048;stroke-width:1.0;"/><text fill="#000000" font-family="sans-serif" font-size="14" lengthAdjust="spacing" textLength="35" x="1733.84" y="537.6426">union</text><ellipse cx="1724.84" cy="551.0234" fill="none" rx="3" ry="3" style="stroke:#038048;stroke-width:1.0;"/><text fill="#000000" font-family="sans-serif" font-size="14" lengthAdjust="spacing" text-decoration="underline" textLength="173" x="1733.84" y="555.252">offsets : std::array&lt;T, Size&gt;</text><line style="stroke:#181818;stroke-width:0.5;" x1="1714.84" x2="1911.84" y1="562.3281" y2="562.3281"/><ellipse cx="1724.84" cy="576.6328" fill="#84BE84" rx="3" ry="3" style="stroke:#038048;stroke-width:1.0;"/><text fill="#000000" font-family="sans-serif" font-size="14" lengthAdjust="spacing" textLength="29" x="1733.84" y="580.8613">set()</text><ellipse cx="1724.84" cy="594.2422" fill="#84BE84" rx="3" ry="3" style="stroke:#038048;stroke-width:1.0;"/><text fill="#000000" font-family="sans-serif" font-size="14" lengthAdjust="spacing" textLength="72" x="1733.84" y="598.4707">operator[]()</text><ellipse cx="1724.84" cy="611.8516" fill="#84BE84" rx="3" ry="3" style="stroke:#038048;stroke-width:1.0;"/><text fill="#000000" font-family="sans-serif" font-size="14" lengthAdjust="spacing" textLength="72" x="1733.84" y="616.0801">operator=()</text><ellipse cx="1724.84" cy="629.4609" fill="#84BE84" rx="3" ry="3" style="stroke:#038048;stroke-width:1.0;"/><text fill="#000000" font-family="sans-serif" font-size="14" lengthAdjust="spacing" textLength="38" x="1733.84" y="633.6895">data()</text><ellipse cx="1724.84" cy="647.0703" fill="#84BE84" rx="3" ry="3" style="stroke:#038048;stroke-width:1.0;"/><text fill="#000000" font-family="sans-serif" font-size="14" lengthAdjust="spacing" textLength="72" x="1733.84" y="651.2988">sequence()</text><ellipse cx="1724.84" cy="664.6797" fill="#84BE84" rx="3" ry="3" style="stroke:#038048;stroke-width:1.0;"/><text fill="#000000" font-family="sans-serif" font-size="14" lengthAdjust="spacing" textLength="103" x="1733.84" y="668.9082">iterator access()</text><ellipse cx="1724.84" cy="682.2891" fill="#84BE84" rx="3" ry="3" style="stroke:#038048;stroke-width:1.0;"/><text fill="#000000" font-family="sans-serif" font-size="14" lengthAdjust="spacing" textLength="42" x="1733.84" y="686.5176">swap()</text></g><!--class basic_view--><g id="elem_basic_view"><rect codeLine="66" fill="#F1F1F1" height="259.3125" id="basic_view" rx="2.5" ry="2.5" style="stroke:#181818;stroke-width:0.5;" width="199" x="732.84" y="460.6094"/><ellipse cx="750.99" cy="476.6094" fill="#F1F1F1" rx="11" ry="11" style="stroke:#181818;stroke-width:1.0;"/><path d="M749.0994,481.1719 Q748.8806,481.4375 748.74,481.5156 Q748.5994,481.5938 748.4119,481.5938 Q748.0213,481.5938 747.7713,481.3281 Q747.5369,481.0625 747.5369,480.4688 L747.5369,479.3125 Q747.5369,478.7031 747.7713,478.4531 Q748.0213,478.1875 748.4119,478.1875 Q748.7088,478.1875 748.9119,478.3438 Q749.115,478.5 749.2244,478.875 Q749.3338,479.2344 749.4431,479.375 Q749.6931,479.625 750.3025,479.8906 Q750.9119,480.1563 751.6463,480.1563 Q752.7869,480.1563 753.5056,479.625 Q753.9744,479.2969 753.9744,478.8281 Q753.9744,478.5156 753.7556,478.2344 Q753.5369,477.9531 753.0213,477.7813 Q752.6931,477.6563 751.5369,477.4375 Q750.1463,477.1719 749.4275,476.8125 Q748.7088,476.4531 748.2869,475.7969 Q747.8806,475.125 747.8806,474.3438 Q747.8806,473.125 748.8963,472.2188 Q749.9275,471.2969 751.5681,471.2969 Q752.2244,471.2969 752.7713,471.4375 Q753.3338,471.5781 753.8025,471.875 Q754.1306,471.5625 754.4588,471.5625 Q754.8338,471.5625 755.0681,471.8281 Q755.3025,472.0781 755.3025,472.6875 L755.3025,473.9688 Q755.3025,474.5781 755.0681,474.8438 Q754.8338,475.0938 754.4588,475.0938 Q754.1463,475.0938 753.9119,474.9063 Q753.7244,474.7656 753.6306,474.3438 Q753.5525,473.9219 753.4119,473.7344 Q753.1619,473.4219 752.6775,473.2188 Q752.2088,473 751.5681,473 Q750.6463,473 750.115,473.4219 Q749.5838,473.8438 749.5838,474.3125 Q749.5838,474.625 749.8025,474.9219 Q750.0213,475.2188 750.4431,475.3906 Q750.7244,475.5 752.0213,475.7656 Q753.3338,476.0156 754.0369,476.3281 Q754.74,476.625 755.2088,477.2813 Q755.6775,477.9375 755.6775,478.8438 Q755.6775,480.1094 754.7869,480.8594 Q753.5994,481.8594 751.7713,481.8594 Q751.0681,481.8594 750.3963,481.6875 Q749.74,481.5156 749.0994,481.1719 Z " fill="#000000"/><text fill="#000000" font-family="sans-serif" font-size="14" lengthAdjust="spacing" textLength="68" x="765.69" y="482.3379">basic_view</text><rect fill="#FFFFFF" height="17.0938" style="stroke:#181818;stroke-width:1.0;stroke-dasharray:2.0,2.0;" width="90" x="844.84" y="457.6094"/><text fill="#000000" font-family="sans-serif" font-size="12" font-style="italic" lengthAdjust="spacing" textLength="88" x="845.84" y="471.0664">Mutable, T, Size</text><line style="stroke:#181818;stroke-width:0.5;" x1="733.84" x2="930.84" y1="492.6094" y2="492.6094"/><ellipse cx="743.84" cy="506.9141" fill="none" rx="3" ry="3" style="stroke:#038048;stroke-width:1.0;"/><text fill="#000000" font-family="sans-serif" font-size="14" lengthAdjust="spacing" textLength="35" x="752.84" y="511.1426">union</text><ellipse cx="743.84" cy="524.5234" fill="none" rx="3" ry="3" style="stroke:#038048;stroke-width:1.0;"/><text fill="#000000" font-family="sans-serif" font-size="14" lengthAdjust="spacing" text-decoration="underline" textLength="173" x="752.84" y="528.752">offsets : std::array&lt;T, Size&gt;</text><line style="stroke:#181818;stroke-width:0.5;" x1="733.84" x2="930.84" y1="535.8281" y2="535.8281"/><ellipse cx="743.84" cy="550.1328" fill="#84BE84" rx="3" ry="3" style="stroke:#038048;stroke-width:1.0;"/><text fill="#000000" font-family="sans-serif" font-size="14" lengthAdjust="spacing" textLength="96" x="752.84" y="554.3613">basic_view(T *)</text><ellipse cx="743.84" cy="567.7422" fill="#84BE84" rx="3" ry="3" style="stroke:#038048;stroke-width:1.0;"/><text fill="#000000" font-family="sans-serif" font-size="14" lengthAdjust="spacing" textLength="134" x="752.84" y="571.9707">basic_view(const T *)</text><ellipse cx="743.84" cy="585.3516" fill="#84BE84" rx="3" ry="3" style="stroke:#038048;stroke-width:1.0;"/><text fill="#000000" font-family="sans-serif" font-size="14" lengthAdjust="spacing" textLength="42" x="752.84" y="589.5801">reset()</text><ellipse cx="743.84" cy="602.9609" fill="#84BE84" rx="3" ry="3" style="stroke:#038048;stroke-width:1.0;"/><text fill="#000000" font-family="sans-serif" font-size="14" lengthAdjust="spacing" textLength="29" x="752.84" y="607.1895">set()</text><ellipse cx="743.84" cy="620.5703" fill="#84BE84" rx="3" ry="3" style="stroke:#038048;stroke-width:1.0;"/><text fill="#000000" font-family="sans-serif" font-size="14" lengthAdjust="spacing" textLength="72" x="752.84" y="624.7988">operator[]()</text><ellipse cx="743.84" cy="638.1797" fill="#84BE84" rx="3" ry="3" style="stroke:#038048;stroke-width:1.0;"/><text fill="#000000" font-family="sans-serif" font-size="14" lengthAdjust="spacing" textLength="72" x="752.84" y="642.4082">operator=()</text><ellipse cx="743.84" cy="655.7891" fill="#84BE84" rx="3" ry="3" style="stroke:#038048;stroke-width:1.0;"/><text fill="#000000" font-family="sans-serif" font-size="14" lengthAdjust="spacing" textLength="38" x="752.84" y="660.0176">data()</text><ellipse cx="743.84" cy="673.3984" fill="#84BE84" rx="3" ry="3" style="stroke:#038048;stroke-width:1.0;"/><text fill="#000000" font-family="sans-serif" font-size="14" lengthAdjust="spacing" textLength="72" x="752.84" y="677.627">sequence()</text><ellipse cx="743.84" cy="691.0078" fill="#84BE84" rx="3" ry="3" style="stroke:#038048;stroke-width:1.0;"/><text fill="#000000" font-family="sans-serif" font-size="14" lengthAdjust="spacing" textLength="103" x="752.84" y="695.2363">iterator access()</text><ellipse cx="743.84" cy="708.6172" fill="#84BE84" rx="3" ry="3" style="stroke:#038048;stroke-width:1.0;"/><text fill="#000000" font-family="sans-serif" font-size="14" lengthAdjust="spacing" textLength="42" x="752.84" y="712.8457">swap()</text></g><!--class basic_vector::anonymous_union--><g id="elem_basic_vector::anonymous_union"><rect codeLine="81" fill="#F1F1F1" height="83.2188" id="basic_vector::anonymous_union" rx="2.5" ry="2.5" style="stroke:#181818;stroke-width:0.5;" width="236" x="1788.34" y="856.6094"/><ellipse cx="1803.34" cy="872.6094" fill="#E3664A" rx="11" ry="11" style="stroke:#181818;stroke-width:1.0;"/><path d="M1805.6838,870.1875 L1805.6838,869.6719 Q1805.6838,868.8438 1805.1994,868.3438 Q1804.7306,867.8438 1803.9806,867.8438 Q1803.3869,867.8438 1802.8556,868.25 Q1802.3244,868.6406 1802.0588,869.2656 Q1801.59,870.3594 1801.59,871.4688 L1801.59,873.9844 Q1801.59,875.9063 1802.4494,877.0313 Q1803.0119,877.7813 1804.0275,877.7813 Q1804.5744,877.7813 1805.0119,877.6406 Q1805.465,877.5 1805.715,877.25 Q1805.965,877 1806.1838,877 Q1806.4494,877 1806.6369,877.1875 Q1806.8244,877.375 1806.8244,877.6406 Q1806.8244,878.0625 1806.2463,878.4531 Q1805.4181,879.0156 1803.9806,879.0156 Q1802.8869,879.0156 1802.1681,878.5156 Q1801.2463,877.875 1800.7931,876.6094 Q1800.34,875.3438 1800.34,874.1094 L1800.34,871.375 Q1800.34,869.3906 1801.3244,868 Q1802.3088,866.5938 1803.9494,866.5938 Q1804.6994,866.5938 1805.34,866.9063 Q1805.9963,867.2031 1806.465,867.9688 Q1806.9338,868.7344 1806.9338,869.6719 L1806.9338,874.2031 Q1807.2931,874.375 1807.2931,874.7656 Q1807.2931,875.0469 1807.09,875.2344 Q1806.9025,875.4063 1806.4338,875.4063 L1805.6838,875.4063 L1805.6838,875.3594 Q1805.2931,875.4219 1805.1056,875.4219 Q1804.1056,875.4219 1803.3556,874.6875 Q1802.6213,873.9375 1802.6213,872.9375 Q1802.6213,871.875 1803.4338,871.0781 Q1804.2619,870.2813 1805.6838,870.1875 Z M1805.6838,871.4688 Q1804.7931,871.5625 1804.3244,871.9844 Q1803.8713,872.4063 1803.8713,872.9531 Q1803.8713,873.4375 1804.2463,873.7813 Q1804.6369,874.125 1805.2775,874.125 Q1805.4025,874.125 1805.6838,874.1094 L1805.6838,871.4688 Z " fill="#000000"/><text fill="#000000" font-family="sans-serif" font-size="14" lengthAdjust="spacing" textLength="204" x="1817.34" y="878.3379">basic_vector::anonymous_union</text><line style="stroke:#181818;stroke-width:0.5;" x1="1789.34" x2="2023.34" y1="888.6094" y2="888.6094"/><ellipse cx="1799.34" cy="902.9141" fill="none" rx="3" ry="3" style="stroke:#038048;stroke-width:1.0;"/><text fill="#000000" font-family="sans-serif" font-size="14" lengthAdjust="spacing" textLength="31" x="1808.34" y="907.1426">base</text><ellipse cx="1799.34" cy="920.5234" fill="none" rx="3" ry="3" style="stroke:#038048;stroke-width:1.0;"/><text fill="#000000" font-family="sans-serif" font-size="14" lengthAdjust="spacing" textLength="49" x="1808.34" y="924.752">swizzles</text><line style="stroke:#181818;stroke-width:0.5;" x1="1789.34" x2="2023.34" y1="931.8281" y2="931.8281"/></g><!--class basic_view::anonymous_union--><g id="elem_basic_view::anonymous_union"><rect codeLine="86" fill="#F1F1F1" height="83.2188" id="basic_view::anonymous_union" rx="2.5" ry="2.5" style="stroke:#181818;stroke-width:0.5;" width="224" x="845.34" y="856.6094"/><ellipse cx="860.34" cy="872.6094" fill="#E3664A" rx="11" ry="11" style="stroke:#181818;stroke-width:1.0;"/><path d="M862.6838,870.1875 L862.6838,869.6719 Q862.6838,868.8438 862.1994,868.3438 Q861.7306,867.8438 860.9806,867.8438 Q860.3869,867.8438 859.8556,868.25 Q859.3244,868.6406 859.0588,869.2656 Q858.59,870.3594 858.59,871.4688 L858.59,873.9844 Q858.59,875.9063 859.4494,877.0313 Q860.0119,877.7813 861.0275,877.7813 Q861.5744,877.7813 862.0119,877.6406 Q862.465,877.5 862.715,877.25 Q862.965,877 863.1838,877 Q863.4494,877 863.6369,877.1875 Q863.8244,877.375 863.8244,877.6406 Q863.8244,878.0625 863.2463,878.4531 Q862.4181,879.0156 860.9806,879.0156 Q859.8869,879.0156 859.1681,878.5156 Q858.2463,877.875 857.7931,876.6094 Q857.34,875.3438 857.34,874.1094 L857.34,871.375 Q857.34,869.3906 858.3244,868 Q859.3088,866.5938 860.9494,866.5938 Q861.6994,866.5938 862.34,866.9063 Q862.9963,867.2031 863.465,867.9688 Q863.9338,868.7344 863.9338,869.6719 L863.9338,874.2031 Q864.2931,874.375 864.2931,874.7656 Q864.2931,875.0469 864.09,875.2344 Q863.9025,875.4063 863.4338,875.4063 L862.6838,875.4063 L862.6838,875.3594 Q862.2931,875.4219 862.1056,875.4219 Q861.1056,875.4219 860.3556,874.6875 Q859.6213,873.9375 859.6213,872.9375 Q859.6213,871.875 860.4338,871.0781 Q861.2619,870.2813 862.6838,870.1875 Z M862.6838,871.4688 Q861.7931,871.5625 861.3244,871.9844 Q860.8713,872.4063 860.8713,872.9531 Q860.8713,873.4375 861.2463,873.7813 Q861.6369,874.125 862.2775,874.125 Q862.4025,874.125 862.6838,874.1094 L862.6838,871.4688 Z " fill="#000000"/><text fill="#000000" font-family="sans-serif" font-size="14" lengthAdjust="spacing" textLength="192" x="874.34" y="878.3379">basic_view::anonymous_union</text><line style="stroke:#181818;stroke-width:0.5;" x1="846.34" x2="1068.34" y1="888.6094" y2="888.6094"/><ellipse cx="856.34" cy="902.9141" fill="none" rx="3" ry="3" style="stroke:#038048;stroke-width:1.0;"/><text fill="#000000" font-family="sans-serif" font-size="14" lengthAdjust="spacing" textLength="31" x="865.34" y="907.1426">base</text><ellipse cx="856.34" cy="920.5234" fill="none" rx="3" ry="3" style="stroke:#038048;stroke-width:1.0;"/><text fill="#000000" font-family="sans-serif" font-size="14" lengthAdjust="spacing" textLength="49" x="865.34" y="924.752">swizzles</text><line style="stroke:#181818;stroke-width:0.5;" x1="846.34" x2="1068.34" y1="931.8281" y2="931.8281"/></g><!--class storage_wrapper--><g id="elem_storage_wrapper"><rect codeLine="91" fill="#F1F1F1" height="224.0938" id="storage_wrapper" rx="2.5" ry="2.5" style="stroke:#181818;stroke-width:0.5;" width="231" x="2027.84" y="1039.1094"/><ellipse cx="2042.84" cy="1055.1094" fill="#F1F1F1" rx="11" ry="11" style="stroke:#181818;stroke-width:1.0;"/><path d="M2040.9494,1059.6719 Q2040.7306,1059.9375 2040.59,1060.0156 Q2040.4494,1060.0938 2040.2619,1060.0938 Q2039.8713,1060.0938 2039.6213,1059.8281 Q2039.3869,1059.5625 2039.3869,1058.9688 L2039.3869,1057.8125 Q2039.3869,1057.2031 2039.6213,1056.9531 Q2039.8713,1056.6875 2040.2619,1056.6875 Q2040.5588,1056.6875 2040.7619,1056.8438 Q2040.965,1057 2041.0744,1057.375 Q2041.1838,1057.7344 2041.2931,1057.875 Q2041.5431,1058.125 2042.1525,1058.3906 Q2042.7619,1058.6563 2043.4963,1058.6563 Q2044.6369,1058.6563 2045.3556,1058.125 Q2045.8244,1057.7969 2045.8244,1057.3281 Q2045.8244,1057.0156 2045.6056,1056.7344 Q2045.3869,1056.4531 2044.8713,1056.2813 Q2044.5431,1056.1563 2043.3869,1055.9375 Q2041.9963,1055.6719 2041.2775,1055.3125 Q2040.5588,1054.9531 2040.1369,1054.2969 Q2039.7306,1053.625 2039.7306,1052.8438 Q2039.7306,1051.625 2040.7463,1050.7188 Q2041.7775,1049.7969 2043.4181,1049.7969 Q2044.0744,1049.7969 2044.6213,1049.9375 Q2045.1838,1050.0781 2045.6525,1050.375 Q2045.9806,1050.0625 2046.3088,1050.0625 Q2046.6838,1050.0625 2046.9181,1050.3281 Q2047.1525,1050.5781 2047.1525,1051.1875 L2047.1525,1052.4688 Q2047.1525,1053.0781 2046.9181,1053.3438 Q2046.6838,1053.5938 2046.3088,1053.5938 Q2045.9963,1053.5938 2045.7619,1053.4063 Q2045.5744,1053.2656 2045.4806,1052.8438 Q2045.4025,1052.4219 2045.2619,1052.2344 Q2045.0119,1051.9219 2044.5275,1051.7188 Q2044.0588,1051.5 2043.4181,1051.5 Q2042.4963,1051.5 2041.965,1051.9219 Q2041.4338,1052.3438 2041.4338,1052.8125 Q2041.4338,1053.125 2041.6525,1053.4219 Q2041.8713,1053.7188 2042.2931,1053.8906 Q2042.5744,1054 2043.8713,1054.2656 Q2045.1838,1054.5156 2045.8869,1054.8281 Q2046.59,1055.125 2047.0588,1055.7813 Q2047.5275,1056.4375 2047.5275,1057.3438 Q2047.5275,1058.6094 2046.6369,1059.3594 Q2045.4494,1060.3594 2043.6213,1060.3594 Q2042.9181,1060.3594 2042.2463,1060.1875 Q2041.59,1060.0156 2040.9494,1059.6719 Z " fill="#000000"/><text fill="#000000" font-family="sans-serif" font-size="14" lengthAdjust="spacing" textLength="107" x="2056.84" y="1060.8379">storage_wrapper</text><rect fill="#FFFFFF" height="17.0938" style="stroke:#181818;stroke-width:1.0;stroke-dasharray:2.0,2.0;" width="90" x="2171.84" y="1036.1094"/><text fill="#000000" font-family="sans-serif" font-size="12" font-style="italic" lengthAdjust="spacing" textLength="88" x="2172.84" y="1049.5664">Mutable, T, Size</text><line style="stroke:#181818;stroke-width:0.5;" x1="2028.84" x2="2257.84" y1="1071.1094" y2="1071.1094"/><ellipse cx="2038.84" cy="1085.4141" fill="none" rx="3" ry="3" style="stroke:#038048;stroke-width:1.0;"/><text fill="#000000" font-family="sans-serif" font-size="14" lengthAdjust="spacing" textLength="163" x="2047.84" y="1089.6426">store : std::array&lt;T, Size&gt;</text><ellipse cx="2038.84" cy="1103.0234" fill="none" rx="3" ry="3" style="stroke:#038048;stroke-width:1.0;"/><text fill="#000000" font-family="sans-serif" font-size="14" lengthAdjust="spacing" text-decoration="underline" textLength="173" x="2047.84" y="1107.252">offsets : std::array&lt;T, Size&gt;</text><line style="stroke:#181818;stroke-width:0.5;" x1="2028.84" x2="2257.84" y1="1114.3281" y2="1114.3281"/><ellipse cx="2038.84" cy="1128.6328" fill="#84BE84" rx="3" ry="3" style="stroke:#038048;stroke-width:1.0;"/><text fill="#000000" font-family="sans-serif" font-size="14" lengthAdjust="spacing" textLength="29" x="2047.84" y="1132.8613">set()</text><ellipse cx="2038.84" cy="1146.2422" fill="#84BE84" rx="3" ry="3" style="stroke:#038048;stroke-width:1.0;"/><text fill="#000000" font-family="sans-serif" font-size="14" lengthAdjust="spacing" textLength="72" x="2047.84" y="1150.4707">operator[]()</text><ellipse cx="2038.84" cy="1163.8516" fill="#84BE84" rx="3" ry="3" style="stroke:#038048;stroke-width:1.0;"/><text fill="#000000" font-family="sans-serif" font-size="14" lengthAdjust="spacing" textLength="38" x="2047.84" y="1168.0801">data()</text><ellipse cx="2038.84" cy="1181.4609" fill="#84BE84" rx="3" ry="3" style="stroke:#038048;stroke-width:1.0;"/><text fill="#000000" font-family="sans-serif" font-size="14" lengthAdjust="spacing" textLength="72" x="2047.84" y="1185.6895">sequence()</text><ellipse cx="2038.84" cy="1199.0703" fill="#84BE84" rx="3" ry="3" style="stroke:#038048;stroke-width:1.0;"/><text fill="#000000" font-family="sans-serif" font-size="14" lengthAdjust="spacing" textLength="103" x="2047.84" y="1203.2988">iterator access()</text><ellipse cx="2038.84" cy="1216.6797" fill="#84BE84" rx="3" ry="3" style="stroke:#038048;stroke-width:1.0;"/><text fill="#000000" font-family="sans-serif" font-size="14" lengthAdjust="spacing" textLength="49" x="2047.84" y="1220.9082">length()</text><ellipse cx="2038.84" cy="1234.2891" fill="#84BE84" rx="3" ry="3" style="stroke:#038048;stroke-width:1.0;"/><text fill="#000000" font-family="sans-serif" font-size="14" lengthAdjust="spacing" textLength="34" x="2047.84" y="1238.5176">size()</text><ellipse cx="2038.84" cy="1251.8984" fill="#84BE84" rx="3" ry="3" style="stroke:#038048;stroke-width:1.0;"/><text fill="#000000" font-family="sans-serif" font-size="14" lengthAdjust="spacing" textLength="42" x="2047.84" y="1256.127">swap()</text></g><!--class view_wrapper--><g id="elem_view_wrapper"><rect codeLine="104" fill="#F1F1F1" height="259.3125" id="view_wrapper" rx="2.5" ry="2.5" style="stroke:#181818;stroke-width:0.5;" width="210" x="852.34" y="1021.6094"/><ellipse cx="867.34" cy="1037.6094" fill="#F1F1F1" rx="11" ry="11" style="stroke:#181818;stroke-width:1.0;"/><path d="M865.4494,1042.1719 Q865.2306,1042.4375 865.09,1042.5156 Q864.9494,1042.5938 864.7619,1042.5938 Q864.3713,1042.5938 864.1213,1042.3281 Q863.8869,1042.0625 863.8869,1041.4688 L863.8869,1040.3125 Q863.8869,1039.7031 864.1213,1039.4531 Q864.3713,1039.1875 864.7619,1039.1875 Q865.0588,1039.1875 865.2619,1039.3438 Q865.465,1039.5 865.5744,1039.875 Q865.6838,1040.2344 865.7931,1040.375 Q866.0431,1040.625 866.6525,1040.8906 Q867.2619,1041.1563 867.9963,1041.1563 Q869.1369,1041.1563 869.8556,1040.625 Q870.3244,1040.2969 870.3244,1039.8281 Q870.3244,1039.5156 870.1056,1039.2344 Q869.8869,1038.9531 869.3713,1038.7813 Q869.0431,1038.6563 867.8869,1038.4375 Q866.4963,1038.1719 865.7775,1037.8125 Q865.0588,1037.4531 864.6369,1036.7969 Q864.2306,1036.125 864.2306,1035.3438 Q864.2306,1034.125 865.2463,1033.2188 Q866.2775,1032.2969 867.9181,1032.2969 Q868.5744,1032.2969 869.1213,1032.4375 Q869.6838,1032.5781 870.1525,1032.875 Q870.4806,1032.5625 870.8088,1032.5625 Q871.1838,1032.5625 871.4181,1032.8281 Q871.6525,1033.0781 871.6525,1033.6875 L871.6525,1034.9688 Q871.6525,1035.5781 871.4181,1035.8438 Q871.1838,1036.0938 870.8088,1036.0938 Q870.4963,1036.0938 870.2619,1035.9063 Q870.0744,1035.7656 869.9806,1035.3438 Q869.9025,1034.9219 869.7619,1034.7344 Q869.5119,1034.4219 869.0275,1034.2188 Q868.5588,1034 867.9181,1034 Q866.9963,1034 866.465,1034.4219 Q865.9338,1034.8438 865.9338,1035.3125 Q865.9338,1035.625 866.1525,1035.9219 Q866.3713,1036.2188 866.7931,1036.3906 Q867.0744,1036.5 868.3713,1036.7656 Q869.6838,1037.0156 870.3869,1037.3281 Q871.09,1037.625 871.5588,1038.2813 Q872.0275,1038.9375 872.0275,1039.8438 Q872.0275,1041.1094 871.1369,1041.8594 Q869.9494,1042.8594 868.1213,1042.8594 Q867.4181,1042.8594 866.7463,1042.6875 Q866.09,1042.5156 865.4494,1042.1719 Z " fill="#000000"/><text fill="#000000" font-family="sans-serif" font-size="14" lengthAdjust="spacing" textLength="86" x="881.34" y="1043.3379">view_wrapper</text><rect fill="#FFFFFF" height="17.0938" style="stroke:#181818;stroke-width:1.0;stroke-dasharray:2.0,2.0;" width="90" x="975.34" y="1018.6094"/><text fill="#000000" font-family="sans-serif" font-size="12" font-style="italic" lengthAdjust="spacing" textLength="88" x="976.34" y="1032.0664">Mutable, T, Size</text><line style="stroke:#181818;stroke-width:0.5;" x1="853.34" x2="1061.34" y1="1053.6094" y2="1053.6094"/><ellipse cx="863.34" cy="1067.9141" fill="none" rx="3" ry="3" style="stroke:#038048;stroke-width:1.0;"/><text fill="#000000" font-family="sans-serif" font-size="14" lengthAdjust="spacing" textLength="100" x="872.34" y="1072.1426">store : const T *</text><ellipse cx="863.34" cy="1085.5234" fill="none" rx="3" ry="3" style="stroke:#038048;stroke-width:1.0;"/><text fill="#000000" font-family="sans-serif" font-size="14" lengthAdjust="spacing" text-decoration="underline" textLength="173" x="872.34" y="1089.752">offsets : std::array&lt;T, Size&gt;</text><line style="stroke:#181818;stroke-width:0.5;" x1="853.34" x2="1061.34" y1="1096.8281" y2="1096.8281"/><ellipse cx="863.34" cy="1111.1328" fill="#84BE84" rx="3" ry="3" style="stroke:#038048;stroke-width:1.0;"/><text fill="#000000" font-family="sans-serif" font-size="14" lengthAdjust="spacing" textLength="152" x="872.34" y="1115.3613">view_wrapper(const T *)</text><ellipse cx="863.34" cy="1128.7422" fill="#84BE84" rx="3" ry="3" style="stroke:#038048;stroke-width:1.0;"/><text fill="#000000" font-family="sans-serif" font-size="14" lengthAdjust="spacing" textLength="42" x="872.34" y="1132.9707">reset()</text><ellipse cx="863.34" cy="1146.3516" fill="#84BE84" rx="3" ry="3" style="stroke:#038048;stroke-width:1.0;"/><text fill="#000000" font-family="sans-serif" font-size="14" lengthAdjust="spacing" textLength="29" x="872.34" y="1150.5801">set()</text><ellipse cx="863.34" cy="1163.9609" fill="#84BE84" rx="3" ry="3" style="stroke:#038048;stroke-width:1.0;"/><text fill="#000000" font-family="sans-serif" font-size="14" lengthAdjust="spacing" textLength="72" x="872.34" y="1168.1895">operator[]()</text><ellipse cx="863.34" cy="1181.5703" fill="#84BE84" rx="3" ry="3" style="stroke:#038048;stroke-width:1.0;"/><text fill="#000000" font-family="sans-serif" font-size="14" lengthAdjust="spacing" textLength="38" x="872.34" y="1185.7988">data()</text><ellipse cx="863.34" cy="1199.1797" fill="#84BE84" rx="3" ry="3" style="stroke:#038048;stroke-width:1.0;"/><text fill="#000000" font-family="sans-serif" font-size="14" lengthAdjust="spacing" textLength="72" x="872.34" y="1203.4082">sequence()</text><ellipse cx="863.34" cy="1216.7891" fill="#84BE84" rx="3" ry="3" style="stroke:#038048;stroke-width:1.0;"/><text fill="#000000" font-family="sans-serif" font-size="14" lengthAdjust="spacing" textLength="103" x="872.34" y="1221.0176">iterator access()</text><ellipse cx="863.34" cy="1234.3984" fill="#84BE84" rx="3" ry="3" style="stroke:#038048;stroke-width:1.0;"/><text fill="#000000" font-family="sans-serif" font-size="14" lengthAdjust="spacing" textLength="49" x="872.34" y="1238.627">length()</text><ellipse cx="863.34" cy="1252.0078" fill="#84BE84" rx="3" ry="3" style="stroke:#038048;stroke-width:1.0;"/><text fill="#000000" font-family="sans-serif" font-size="14" lengthAdjust="spacing" textLength="34" x="872.34" y="1256.2363">size()</text><ellipse cx="863.34" cy="1269.6172" fill="#84BE84" rx="3" ry="3" style="stroke:#038048;stroke-width:1.0;"/><text fill="#000000" font-family="sans-serif" font-size="14" lengthAdjust="spacing" textLength="42" x="872.34" y="1273.8457">swap()</text></g><!--class view_vector--><g id="elem_view_vector"><rect codeLine="119" fill="#F1F1F1" height="83.2188" id="view_vector" rx="2.5" ry="2.5" style="stroke:#181818;stroke-width:0.5;" width="148" x="654.34" y="856.6094"/><ellipse cx="669.34" cy="872.6094" fill="#F1F1F1" rx="11" ry="11" style="stroke:#181818;stroke-width:1.0;"/><path d="M667.4494,877.1719 Q667.2306,877.4375 667.09,877.5156 Q666.9494,877.5938 666.7619,877.5938 Q666.3713,877.5938 666.1213,877.3281 Q665.8869,877.0625 665.8869,876.4688 L665.8869,875.3125 Q665.8869,874.7031 666.1213,874.4531 Q666.3713,874.1875 666.7619,874.1875 Q667.0588,874.1875 667.2619,874.3438 Q667.465,874.5 667.5744,874.875 Q667.6838,875.2344 667.7931,875.375 Q668.0431,875.625 668.6525,875.8906 Q669.2619,876.1563 669.9963,876.1563 Q671.1369,876.1563 671.8556,875.625 Q672.3244,875.2969 672.3244,874.8281 Q672.3244,874.5156 672.1056,874.2344 Q671.8869,873.9531 671.3713,873.7813 Q671.0431,873.6563 669.8869,873.4375 Q668.4963,873.1719 667.7775,872.8125 Q667.0588,872.4531 666.6369,871.7969 Q666.2306,871.125 666.2306,870.3438 Q666.2306,869.125 667.2463,868.2188 Q668.2775,867.2969 669.9181,867.2969 Q670.5744,867.2969 671.1213,867.4375 Q671.6838,867.5781 672.1525,867.875 Q672.4806,867.5625 672.8088,867.5625 Q673.1838,867.5625 673.4181,867.8281 Q673.6525,868.0781 673.6525,868.6875 L673.6525,869.9688 Q673.6525,870.5781 673.4181,870.8438 Q673.1838,871.0938 672.8088,871.0938 Q672.4963,871.0938 672.2619,870.9063 Q672.0744,870.7656 671.9806,870.3438 Q671.9025,869.9219 671.7619,869.7344 Q671.5119,869.4219 671.0275,869.2188 Q670.5588,869 669.9181,869 Q668.9963,869 668.465,869.4219 Q667.9338,869.8438 667.9338,870.3125 Q667.9338,870.625 668.1525,870.9219 Q668.3713,871.2188 668.7931,871.3906 Q669.0744,871.5 670.3713,871.7656 Q671.6838,872.0156 672.3869,872.3281 Q673.09,872.625 673.5588,873.2813 Q674.0275,873.9375 674.0275,874.8438 Q674.0275,876.1094 673.1369,876.8594 Q671.9494,877.8594 670.1213,877.8594 Q669.4181,877.8594 668.7463,877.6875 Q668.09,877.5156 667.4494,877.1719 Z " fill="#000000"/><text fill="#000000" font-family="sans-serif" font-size="14" lengthAdjust="spacing" textLength="74" x="683.34" y="878.3379">view_vector</text><rect fill="#FFFFFF" height="17.0938" style="stroke:#181818;stroke-width:1.0;stroke-dasharray:2.0,2.0;" width="40" x="765.34" y="853.6094"/><text fill="#000000" font-family="sans-serif" font-size="12" font-style="italic" lengthAdjust="spacing" textLength="38" x="766.34" y="867.0664">T, Size</text><line style="stroke:#181818;stroke-width:0.5;" x1="655.34" x2="801.34" y1="888.6094" y2="888.6094"/><ellipse cx="665.34" cy="902.9141" fill="none" rx="3" ry="3" style="stroke:#038048;stroke-width:1.0;"/><text fill="#000000" font-family="sans-serif" font-size="14" lengthAdjust="spacing" textLength="87" x="674.34" y="907.1426">store : T[Size]</text><line style="stroke:#181818;stroke-width:0.5;" x1="655.34" x2="801.34" y1="914.2188" y2="914.2188"/><ellipse cx="665.34" cy="928.5234" fill="#84BE84" rx="3" ry="3" style="stroke:#038048;stroke-width:1.0;"/><text fill="#000000" font-family="sans-serif" font-size="14" lengthAdjust="spacing" textLength="72" x="674.34" y="932.752">operator=()</text></g><!--class indexed_vector--><g id="elem_indexed_vector"><rect codeLine="124" fill="#F1F1F1" height="188.875" id="indexed_vector" rx="2.5" ry="2.5" style="stroke:#181818;stroke-width:0.5;" width="284" x="1536.34" y="1056.6094"/><ellipse cx="1551.34" cy="1072.6094" fill="#F1F1F1" rx="11" ry="11" style="stroke:#181818;stroke-width:1.0;"/><path d="M1549.4494,1077.1719 Q1549.2306,1077.4375 1549.09,1077.5156 Q1548.9494,1077.5938 1548.7619,1077.5938 Q1548.3713,1077.5938 1548.1213,1077.3281 Q1547.8869,1077.0625 1547.8869,1076.4688 L1547.8869,1075.3125 Q1547.8869,1074.7031 1548.1213,1074.4531 Q1548.3713,1074.1875 1548.7619,1074.1875 Q1549.0588,1074.1875 1549.2619,1074.3438 Q1549.465,1074.5 1549.5744,1074.875 Q1549.6838,1075.2344 1549.7931,1075.375 Q1550.0431,1075.625 1550.6525,1075.8906 Q1551.2619,1076.1563 1551.9963,1076.1563 Q1553.1369,1076.1563 1553.8556,1075.625 Q1554.3244,1075.2969 1554.3244,1074.8281 Q1554.3244,1074.5156 1554.1056,1074.2344 Q1553.8869,1073.9531 1553.3713,1073.7813 Q1553.0431,1073.6563 1551.8869,1073.4375 Q1550.4963,1073.1719 1549.7775,1072.8125 Q1549.0588,1072.4531 1548.6369,1071.7969 Q1548.2306,1071.125 1548.2306,1070.3438 Q1548.2306,1069.125 1549.2463,1068.2188 Q1550.2775,1067.2969 1551.9181,1067.2969 Q1552.5744,1067.2969 1553.1213,1067.4375 Q1553.6838,1067.5781 1554.1525,1067.875 Q1554.4806,1067.5625 1554.8088,1067.5625 Q1555.1838,1067.5625 1555.4181,1067.8281 Q1555.6525,1068.0781 1555.6525,1068.6875 L1555.6525,1069.9688 Q1555.6525,1070.5781 1555.4181,1070.8438 Q1555.1838,1071.0938 1554.8088,1071.0938 Q1554.4963,1071.0938 1554.2619,1070.9063 Q1554.0744,1070.7656 1553.9806,1070.3438 Q1553.9025,1069.9219 1553.7619,1069.7344 Q1553.5119,1069.4219 1553.0275,1069.2188 Q1552.5588,1069 1551.9181,1069 Q1550.9963,1069 1550.465,1069.4219 Q1549.9338,1069.8438 1549.9338,1070.3125 Q1549.9338,1070.625 1550.1525,1070.9219 Q1550.3713,1071.2188 1550.7931,1071.3906 Q1551.0744,1071.5 1552.3713,1071.7656 Q1553.6838,1072.0156 1554.3869,1072.3281 Q1555.09,1072.625 1555.5588,1073.2813 Q1556.0275,1073.9375 1556.0275,1074.8438 Q1556.0275,1076.1094 1555.1369,1076.8594 Q1553.9494,1077.8594 1552.1213,1077.8594 Q1551.4181,1077.8594 1550.7463,1077.6875 Q1550.09,1077.5156 1549.4494,1077.1719 Z " fill="#000000"/><text fill="#000000" font-family="sans-serif" font-size="14" lengthAdjust="spacing" textLength="96" x="1565.34" y="1078.3379">indexed_vector</text><rect fill="#FFFFFF" height="17.0938" style="stroke:#181818;stroke-width:1.0;stroke-dasharray:2.0,2.0;" width="154" x="1669.34" y="1053.6094"/><text fill="#000000" font-family="sans-serif" font-size="12" font-style="italic" lengthAdjust="spacing" textLength="152" x="1670.34" y="1067.0664">Mutable, T, Size, Count, ...Is</text><line style="stroke:#181818;stroke-width:0.5;" x1="1537.34" x2="1819.34" y1="1088.6094" y2="1088.6094"/><ellipse cx="1547.34" cy="1102.9141" fill="none" rx="3" ry="3" style="stroke:#038048;stroke-width:1.0;"/><text fill="#000000" font-family="sans-serif" font-size="14" lengthAdjust="spacing" textLength="162" x="1556.34" y="1107.1426">base : std::array&lt;T, Size&gt;</text><ellipse cx="1547.34" cy="1120.5234" fill="none" rx="3" ry="3" style="stroke:#038048;stroke-width:1.0;"/><text fill="#000000" font-family="sans-serif" font-size="14" lengthAdjust="spacing" text-decoration="underline" textLength="185" x="1556.34" y="1124.752">offsets : std::array&lt;T, Count&gt;</text><line style="stroke:#181818;stroke-width:0.5;" x1="1537.34" x2="1819.34" y1="1131.8281" y2="1131.8281"/><ellipse cx="1547.34" cy="1146.1328" fill="#84BE84" rx="3" ry="3" style="stroke:#038048;stroke-width:1.0;"/><text fill="#000000" font-family="sans-serif" font-size="14" lengthAdjust="spacing" textLength="29" x="1556.34" y="1150.3613">set()</text><ellipse cx="1547.34" cy="1163.7422" fill="#84BE84" rx="3" ry="3" style="stroke:#038048;stroke-width:1.0;"/><text fill="#000000" font-family="sans-serif" font-size="14" lengthAdjust="spacing" textLength="72" x="1556.34" y="1167.9707">operator[]()</text><ellipse cx="1547.34" cy="1181.3516" fill="#84BE84" rx="3" ry="3" style="stroke:#038048;stroke-width:1.0;"/><text fill="#000000" font-family="sans-serif" font-size="14" lengthAdjust="spacing" textLength="72" x="1556.34" y="1185.5801">operator=()</text><ellipse cx="1547.34" cy="1198.9609" fill="#84BE84" rx="3" ry="3" style="stroke:#038048;stroke-width:1.0;"/><text fill="#000000" font-family="sans-serif" font-size="14" lengthAdjust="spacing" textLength="38" x="1556.34" y="1203.1895">data()</text><ellipse cx="1547.34" cy="1216.5703" fill="#84BE84" rx="3" ry="3" style="stroke:#038048;stroke-width:1.0;"/><text fill="#000000" font-family="sans-serif" font-size="14" lengthAdjust="spacing" textLength="72" x="1556.34" y="1220.7988">sequence()</text><ellipse cx="1547.34" cy="1234.1797" fill="#84BE84" rx="3" ry="3" style="stroke:#038048;stroke-width:1.0;"/><text fill="#000000" font-family="sans-serif" font-size="14" lengthAdjust="spacing" textLength="103" x="1556.34" y="1238.4082">iterator access()</text></g><!--class indexed_view--><g id="elem_indexed_view"><rect codeLine="135" fill="#F1F1F1" height="224.0938" id="indexed_view" rx="2.5" ry="2.5" style="stroke:#181818;stroke-width:0.5;" width="272" x="416.34" y="1039.1094"/><ellipse cx="431.34" cy="1055.1094" fill="#F1F1F1" rx="11" ry="11" style="stroke:#181818;stroke-width:1.0;"/><path d="M429.4494,1059.6719 Q429.2306,1059.9375 429.09,1060.0156 Q428.9494,1060.0938 428.7619,1060.0938 Q428.3713,1060.0938 428.1213,1059.8281 Q427.8869,1059.5625 427.8869,1058.9688 L427.8869,1057.8125 Q427.8869,1057.2031 428.1213,1056.9531 Q428.3713,1056.6875 428.7619,1056.6875 Q429.0588,1056.6875 429.2619,1056.8438 Q429.465,1057 429.5744,1057.375 Q429.6838,1057.7344 429.7931,1057.875 Q430.0431,1058.125 430.6525,1058.3906 Q431.2619,1058.6563 431.9963,1058.6563 Q433.1369,1058.6563 433.8556,1058.125 Q434.3244,1057.7969 434.3244,1057.3281 Q434.3244,1057.0156 434.1056,1056.7344 Q433.8869,1056.4531 433.3713,1056.2813 Q433.0431,1056.1563 431.8869,1055.9375 Q430.4963,1055.6719 429.7775,1055.3125 Q429.0588,1054.9531 428.6369,1054.2969 Q428.2306,1053.625 428.2306,1052.8438 Q428.2306,1051.625 429.2463,1050.7188 Q430.2775,1049.7969 431.9181,1049.7969 Q432.5744,1049.7969 433.1213,1049.9375 Q433.6838,1050.0781 434.1525,1050.375 Q434.4806,1050.0625 434.8088,1050.0625 Q435.1838,1050.0625 435.4181,1050.3281 Q435.6525,1050.5781 435.6525,1051.1875 L435.6525,1052.4688 Q435.6525,1053.0781 435.4181,1053.3438 Q435.1838,1053.5938 434.8088,1053.5938 Q434.4963,1053.5938 434.2619,1053.4063 Q434.0744,1053.2656 433.9806,1052.8438 Q433.9025,1052.4219 433.7619,1052.2344 Q433.5119,1051.9219 433.0275,1051.7188 Q432.5588,1051.5 431.9181,1051.5 Q430.9963,1051.5 430.465,1051.9219 Q429.9338,1052.3438 429.9338,1052.8125 Q429.9338,1053.125 430.1525,1053.4219 Q430.3713,1053.7188 430.7931,1053.8906 Q431.0744,1054 432.3713,1054.2656 Q433.6838,1054.5156 434.3869,1054.8281 Q435.09,1055.125 435.5588,1055.7813 Q436.0275,1056.4375 436.0275,1057.3438 Q436.0275,1058.6094 435.1369,1059.3594 Q433.9494,1060.3594 432.1213,1060.3594 Q431.4181,1060.3594 430.7463,1060.1875 Q430.09,1060.0156 429.4494,1059.6719 Z " fill="#000000"/><text fill="#000000" font-family="sans-serif" font-size="14" lengthAdjust="spacing" textLength="84" x="445.34" y="1060.8379">indexed_view</text><rect fill="#FFFFFF" height="17.0938" style="stroke:#181818;stroke-width:1.0;stroke-dasharray:2.0,2.0;" width="154" x="537.34" y="1036.1094"/><text fill="#000000" font-family="sans-serif" font-size="12" font-style="italic" lengthAdjust="spacing" textLength="152" x="538.34" y="1049.5664">Mutable, T, Size, Count, ...Is</text><line style="stroke:#181818;stroke-width:0.5;" x1="417.34" x2="687.34" y1="1071.1094" y2="1071.1094"/><ellipse cx="427.34" cy="1085.4141" fill="none" rx="3" ry="3" style="stroke:#038048;stroke-width:1.0;"/><text fill="#000000" font-family="sans-serif" font-size="14" lengthAdjust="spacing" textLength="99" x="436.34" y="1089.6426">base : const T *</text><ellipse cx="427.34" cy="1103.0234" fill="none" rx="3" ry="3" style="stroke:#038048;stroke-width:1.0;"/><text fill="#000000" font-family="sans-serif" font-size="14" lengthAdjust="spacing" text-decoration="underline" textLength="185" x="436.34" y="1107.252">offsets : std::array&lt;T, Count&gt;</text><line style="stroke:#181818;stroke-width:0.5;" x1="417.34" x2="687.34" y1="1114.3281" y2="1114.3281"/><ellipse cx="427.34" cy="1128.6328" fill="#84BE84" rx="3" ry="3" style="stroke:#038048;stroke-width:1.0;"/><text fill="#000000" font-family="sans-serif" font-size="14" lengthAdjust="spacing" textLength="150" x="436.34" y="1132.8613">indexed_view(const T *)</text><ellipse cx="427.34" cy="1146.2422" fill="#84BE84" rx="3" ry="3" style="stroke:#038048;stroke-width:1.0;"/><text fill="#000000" font-family="sans-serif" font-size="14" lengthAdjust="spacing" textLength="42" x="436.34" y="1150.4707">reset()</text><ellipse cx="427.34" cy="1163.8516" fill="#84BE84" rx="3" ry="3" style="stroke:#038048;stroke-width:1.0;"/><text fill="#000000" font-family="sans-serif" font-size="14" lengthAdjust="spacing" textLength="29" x="436.34" y="1168.0801">set()</text><ellipse cx="427.34" cy="1181.4609" fill="#84BE84" rx="3" ry="3" style="stroke:#038048;stroke-width:1.0;"/><text fill="#000000" font-family="sans-serif" font-size="14" lengthAdjust="spacing" textLength="72" x="436.34" y="1185.6895">operator[]()</text><ellipse cx="427.34" cy="1199.0703" fill="#84BE84" rx="3" ry="3" style="stroke:#038048;stroke-width:1.0;"/><text fill="#000000" font-family="sans-serif" font-size="14" lengthAdjust="spacing" textLength="72" x="436.34" y="1203.2988">operator=()</text><ellipse cx="427.34" cy="1216.6797" fill="#84BE84" rx="3" ry="3" style="stroke:#038048;stroke-width:1.0;"/><text fill="#000000" font-family="sans-serif" font-size="14" lengthAdjust="spacing" textLength="38" x="436.34" y="1220.9082">data()</text><ellipse cx="427.34" cy="1234.2891" fill="#84BE84" rx="3" ry="3" style="stroke:#038048;stroke-width:1.0;"/><text fill="#000000" font-family="sans-serif" font-size="14" lengthAdjust="spacing" textLength="72" x="436.34" y="1238.5176">sequence()</text><ellipse cx="427.34" cy="1251.8984" fill="#84BE84" rx="3" ry="3" style="stroke:#038048;stroke-width:1.0;"/><text fill="#000000" font-family="sans-serif" font-size="14" lengthAdjust="spacing" textLength="103" x="436.34" y="1256.127">iterator access()</text></g><!--class basic_matrix--><g id="elem_basic_matrix"><rect codeLine="148" fill="#F1F1F1" height="259.3125" id="basic_matrix" rx="2.5" ry="2.5" style="stroke:#181818;stroke-width:0.5;" width="349" x="1637.84" y="84.1094"/><ellipse cx="1730.09" cy="100.1094" fill="#F1F1F1" rx="11" ry="11" style="stroke:#181818;stroke-width:1.0;"/><path d="M1728.1994,104.6719 Q1727.9806,104.9375 1727.84,105.0156 Q1727.6994,105.0938 1727.5119,105.0938 Q1727.1213,105.0938 1726.8713,104.8281 Q1726.6369,104.5625 1726.6369,103.9688 L1726.6369,102.8125 Q1726.6369,102.2031 1726.8713,101.9531 Q1727.1213,101.6875 1727.5119,101.6875 Q1727.8088,101.6875 1728.0119,101.8438 Q1728.215,102 1728.3244,102.375 Q1728.4338,102.7344 1728.5431,102.875 Q1728.7931,103.125 1729.4025,103.3906 Q1730.0119,103.6563 1730.7463,103.6563 Q1731.8869,103.6563 1732.6056,103.125 Q1733.0744,102.7969 1733.0744,102.3281 Q1733.0744,102.0156 1732.8556,101.7344 Q1732.6369,101.4531 1732.1213,101.2813 Q1731.7931,101.1563 1730.6369,100.9375 Q1729.2463,100.6719 1728.5275,100.3125 Q1727.8088,99.9531 1727.3869,99.2969 Q1726.9806,98.625 1726.9806,97.8438 Q1726.9806,96.625 1727.9963,95.7188 Q1729.0275,94.7969 1730.6681,94.7969 Q1731.3244,94.7969 1731.8713,94.9375 Q1732.4338,95.0781 1732.9025,95.375 Q1733.2306,95.0625 1733.5588,95.0625 Q1733.9338,95.0625 1734.1681,95.3281 Q1734.4025,95.5781 1734.4025,96.1875 L1734.4025,97.4688 Q1734.4025,98.0781 1734.1681,98.3438 Q1733.9338,98.5938 1733.5588,98.5938 Q1733.2463,98.5938 1733.0119,98.4063 Q1732.8244,98.2656 1732.7306,97.8438 Q1732.6525,97.4219 1732.5119,97.2344 Q1732.2619,96.9219 1731.7775,96.7188 Q1731.3088,96.5 1730.6681,96.5 Q1729.7463,96.5 1729.215,96.9219 Q1728.6838,97.3438 1728.6838,97.8125 Q1728.6838,98.125 1728.9025,98.4219 Q1729.1213,98.7188 1729.5431,98.8906 Q1729.8244,99 1731.1213,99.2656 Q1732.4338,99.5156 1733.1369,99.8281 Q1733.84,100.125 1734.3088,100.7813 Q1734.7775,101.4375 1734.7775,102.3438 Q1734.7775,103.6094 1733.8869,104.3594 Q1732.6994,105.3594 1730.8713,105.3594 Q1730.1681,105.3594 1729.4963,105.1875 Q1728.84,105.0156 1728.1994,104.6719 Z " fill="#000000"/><text fill="#000000" font-family="sans-serif" font-size="14" lengthAdjust="spacing" textLength="78" x="1750.59" y="105.8379">basic_matrix</text><rect fill="#FFFFFF" height="17.0938" style="stroke:#181818;stroke-width:1.0;stroke-dasharray:2.0,2.0;" width="76" x="1913.84" y="81.1094"/><text fill="#000000" font-family="sans-serif" font-size="12" font-style="italic" lengthAdjust="spacing" textLength="74" x="1914.84" y="94.5664">T, Cols, Rows</text><line style="stroke:#181818;stroke-width:0.5;" x1="1638.84" x2="1985.84" y1="116.1094" y2="116.1094"/><ellipse cx="1648.84" cy="130.4141" fill="none" rx="3" ry="3" style="stroke:#038048;stroke-width:1.0;"/><text fill="#000000" font-family="sans-serif" font-size="14" lengthAdjust="spacing" textLength="323" x="1657.84" y="134.6426">columns : std::array&lt;basic_vector&lt;T, Rows&gt;, Cols&gt;</text><line style="stroke:#181818;stroke-width:0.5;" x1="1638.84" x2="1985.84" y1="141.7188" y2="141.7188"/><ellipse cx="1648.84" cy="156.0234" fill="#84BE84" rx="3" ry="3" style="stroke:#038048;stroke-width:1.0;"/><text fill="#000000" font-family="sans-serif" font-size="14" lengthAdjust="spacing" textLength="32" x="1657.84" y="160.252">row()</text><ellipse cx="1648.84" cy="173.6328" fill="#84BE84" rx="3" ry="3" style="stroke:#038048;stroke-width:1.0;"/><text fill="#000000" font-family="sans-serif" font-size="14" lengthAdjust="spacing" textLength="144" x="1657.84" y="177.8613">basic_matrix(const U *)</text><ellipse cx="1648.84" cy="191.2422" fill="#84BE84" rx="3" ry="3" style="stroke:#038048;stroke-width:1.0;"/><text fill="#000000" font-family="sans-serif" font-size="14" lengthAdjust="spacing" textLength="72" x="1657.84" y="195.4707">operator[]()</text><ellipse cx="1648.84" cy="208.8516" fill="#84BE84" rx="3" ry="3" style="stroke:#038048;stroke-width:1.0;"/><text fill="#000000" font-family="sans-serif" font-size="14" lengthAdjust="spacing" textLength="72" x="1657.84" y="213.0801">operator=()</text><ellipse cx="1648.84" cy="226.4609" fill="#84BE84" rx="3" ry="3" style="stroke:#038048;stroke-width:1.0;"/><text fill="#000000" font-family="sans-serif" font-size="14" lengthAdjust="spacing" textLength="38" x="1657.84" y="230.6895">data()</text><ellipse cx="1648.84" cy="244.0703" fill="#84BE84" rx="3" ry="3" style="stroke:#038048;stroke-width:1.0;"/><text fill="#000000" font-family="sans-serif" font-size="14" lengthAdjust="spacing" textLength="103" x="1657.84" y="248.2988">iterator access()</text><ellipse cx="1648.84" cy="261.6797" fill="#84BE84" rx="3" ry="3" style="stroke:#038048;stroke-width:1.0;"/><text fill="#000000" font-family="sans-serif" font-size="14" lengthAdjust="spacing" textLength="49" x="1657.84" y="265.9082">length()</text><ellipse cx="1648.84" cy="279.2891" fill="#84BE84" rx="3" ry="3" style="stroke:#038048;stroke-width:1.0;"/><text fill="#000000" font-family="sans-serif" font-size="14" lengthAdjust="spacing" textLength="102" x="1657.84" y="283.5176">column_length()</text><ellipse cx="1648.84" cy="296.8984" fill="#84BE84" rx="3" ry="3" style="stroke:#038048;stroke-width:1.0;"/><text fill="#000000" font-family="sans-serif" font-size="14" lengthAdjust="spacing" textLength="34" x="1657.84" y="301.127">size()</text><ellipse cx="1648.84" cy="314.5078" fill="#84BE84" rx="3" ry="3" style="stroke:#038048;stroke-width:1.0;"/><text fill="#000000" font-family="sans-serif" font-size="14" lengthAdjust="spacing" textLength="87" x="1657.84" y="318.7363">column_size()</text><ellipse cx="1648.84" cy="332.1172" fill="#84BE84" rx="3" ry="3" style="stroke:#038048;stroke-width:1.0;"/><text fill="#000000" font-family="sans-serif" font-size="14" lengthAdjust="spacing" textLength="42" x="1657.84" y="336.3457">swap()</text></g><!--reverse link vector_base to basic_vector--><g id="link_vector_base_basic_vector"><path codeLine="163" d="M1493.6545,308.6818 C1558.8845,352.8518 1622.78,399.5094 1688.34,456.6094 C1697.88,464.9194 1707.49,473.8594 1716.92,483.0494 " fill="none" id="vector_base-backto-basic_vector" style="stroke:#181818;stroke-width:1.0;"/><polygon fill="none" points="1478.75,298.5894,1490.2903,313.65,1497.0186,303.7137,1478.75,298.5894" style="stroke:#181818;stroke-width:1.0;"/><text fill="#000000" font-family="sans-serif" font-size="13" lengthAdjust="spacing" textLength="80" x="1646.34" y="423.1045">CRTP inherits</text></g><!--reverse link vector_base to basic_view--><g id="link_vector_base_basic_view"><path codeLine="164" d="M1235.4205,392.5866 C1220.7305,409.9666 1216.38,412.6194 1199.34,426.6094 C1122.74,489.5094 1017.95,532.6794 939.95,558.6294 " fill="none" id="vector_base-backto-basic_view" style="stroke:#181818;stroke-width:1.0;"/><polygon fill="none" points="1247.04,378.8394,1230.8381,388.7135,1240.0029,396.4598,1247.04,378.8394" style="stroke:#181818;stroke-width:1.0;"/><text fill="#000000" font-family="sans-serif" font-size="13" lengthAdjust="spacing" textLength="80" x="1216.34" y="423.1045">CRTP inherits</text></g><!--reverse link vector_base to indexed_vector--><g id="link_vector_base_indexed_vector"><path codeLine="165" d="M1493.6992,322.2222 C1534.5392,348.1322 1565.93,363.4294 1612.34,378.6094 C1695.38,405.7694 1941.2,348.2294 2004.34,408.6094 C2176.83,573.5494 2171.41,737.9394 2050.34,943.6094 C2000.79,1027.7994 1903.15,1080.1094 1820.34,1111.0194 " fill="none" id="vector_base-backto-indexed_vector" style="stroke:#181818;stroke-width:1.0;"/><polygon fill="none" points="1478.5,312.5794,1490.485,327.2886,1496.9135,317.1558,1478.5,312.5794" style="stroke:#181818;stroke-width:1.0;"/><text fill="#000000" font-family="sans-serif" font-size="13" lengthAdjust="spacing" textLength="80" x="2130.34" y="793.6045">CRTP inherits</text></g><!--reverse link vector_base to indexed_view--><g id="link_vector_base_indexed_view"><path codeLine="166" d="M1324.8555,395.6478 C1318.4855,412.8378 1316.35,412.3394 1305.34,426.6094 C1286.89,450.5294 1262.82,432.6994 1244.34,456.6094 C1142.81,587.9994 1216.79,663.4894 1169.34,822.6094 C1146.25,900.0394 1166.55,942.5594 1102.34,991.6094 C1054.72,1027.9894 892.11,1005.6494 834.34,1021.6094 C785.21,1035.1794 733.81,1056.3094 688.56,1077.5394 " fill="none" id="vector_base-backto-indexed_view" style="stroke:#181818;stroke-width:1.0;"/><polygon fill="none" points="1331.11,378.7694,1319.2293,393.5629,1330.4816,397.7326,1331.11,378.7694" style="stroke:#181818;stroke-width:1.0;"/><text fill="#000000" font-family="sans-serif" font-size="13" lengthAdjust="spacing" textLength="80" x="1185.34" y="793.6045">CRTP inherits</text></g><!--reverse link basic_view to view_vector--><g id="link_basic_view_view_vector"><path codeLine="167" d="M757.5021,740.4908 C753.5121,750.4608 756.52,743.7594 753.34,753.6094 C742.42,787.4194 735.96,827.3394 732.35,856.4794 " fill="none" id="basic_view-backto-view_vector" style="stroke:#181818;stroke-width:1.0;"/><polygon fill="none" points="764.19,723.7794,751.9316,738.2615,763.0726,742.7201,764.19,723.7794" style="stroke:#181818;stroke-width:1.0;"/></g><!--reverse link indexed_vector_const_iterator to indexed_vector_iterator--><g id="link_indexed_vector_const_iterator_indexed_vector_iterator"><path codeLine="168" d="M1458.2043,662.2928 C1451.0743,724.6228 1441.52,808.1694 1435.4,861.5994 " fill="none" id="indexed_vector_const_iterator-backto-indexed_vector_iterator" style="stroke:#181818;stroke-width:1.0;"/><polygon fill="none" points="1460.25,644.4094,1452.2432,661.6109,1464.1654,662.9747,1460.25,644.4094" style="stroke:#181818;stroke-width:1.0;"/><text fill="#000000" font-family="sans-serif" font-size="13" lengthAdjust="spacing" textLength="80" x="1448.34" y="793.6045">const_cast&lt;&gt;</text></g><!--reverse link indexed_view_const_iterator to indexed_view_iterator--><g id="link_indexed_view_const_iterator_indexed_view_iterator"><path codeLine="169" d="M406.2054,661.1101 C381.1454,723.4401 347.09,808.1694 325.62,861.5994 " fill="none" id="indexed_view_const_iterator-backto-indexed_view_iterator" style="stroke:#181818;stroke-width:1.0;"/><polygon fill="none" points="412.92,644.4094,400.6385,658.8719,411.7723,663.3483,412.92,644.4094" style="stroke:#181818;stroke-width:1.0;"/><text fill="#000000" font-family="sans-serif" font-size="13" lengthAdjust="spacing" textLength="80" x="367.34" y="793.6045">const_cast&lt;&gt;</text></g><!--reverse link CRTP duck type to basic_vector--><g id="link_CRTP duck type_basic_vector"><path codeLine="170" d="M1033.7502,299.7393 C1036.5402,347.9393 1047.99,392.2594 1090.34,426.6094 C1142.02,468.5094 1627.94,428.7394 1688.34,456.6094 C1702.84,463.2994 1716.49,472.5094 1729.05,482.9794 " fill="none" id="CRTP duck type-backto-basic_vector" style="stroke:#181818;stroke-width:1.0;stroke-dasharray:7.0,7.0;"/><polygon fill="none" points="1032.71,281.7694,1027.7602,300.086,1039.7401,299.3926,1032.71,281.7694" style="stroke:#181818;stroke-width:1.0;"/><text fill="#000000" font-family="sans-serif" font-size="13" lengthAdjust="spacing" textLength="99" x="1091.34" y="423.1045">duck implements</text></g><!--reverse link CRTP duck type to basic_view--><g id="link_CRTP duck type_basic_view"><path codeLine="171" d="M999.5881,298.1593 C985.0981,329.4093 972.95,349.6494 949.34,378.6094 C935.97,395.0194 925.21,391.7994 912.34,408.6094 C901.2,423.1694 891.21,439.5294 882.4,456.2994 " fill="none" id="CRTP duck type-backto-basic_view" style="stroke:#181818;stroke-width:1.0;stroke-dasharray:7.0,7.0;"/><polygon fill="none" points="1007.16,281.8294,994.1448,295.6354,1005.0314,300.6833,1007.16,281.8294" style="stroke:#181818;stroke-width:1.0;"/><text fill="#000000" font-family="sans-serif" font-size="13" lengthAdjust="spacing" textLength="99" x="913.34" y="423.1045">duck implements</text></g><!--reverse link CRTP duck type to indexed_vector--><g id="link_CRTP duck type_indexed_vector"><path codeLine="172" d="M1029.4704,299.8064 C1022.4704,438.1464 1013.96,731.4394 1064.34,822.6094 C1075.69,843.1394 1217.03,931.8694 1237.34,943.6094 C1333.96,999.4594 1448.18,1052.6194 1536.18,1091.0094 " fill="none" id="CRTP duck type-backto-indexed_vector" style="stroke:#181818;stroke-width:1.0;stroke-dasharray:7.0,7.0;"/><polygon fill="none" points="1030.38,281.8294,1023.478,299.5032,1035.4627,300.1096,1030.38,281.8294" style="stroke:#181818;stroke-width:1.0;"/><text fill="#000000" font-family="sans-serif" font-size="13" lengthAdjust="spacing" textLength="99" x="1065.34" y="793.6045">duck implements</text></g><!--reverse link CRTP duck type to indexed_view--><g id="link_CRTP duck type_indexed_view"><path codeLine="173" d="M1010.0795,298.6018 C997.2095,333.2318 982.44,355.9894 949.34,378.6094 C814.46,470.7794 341.07,348.7894 218.34,456.6094 C52.67,602.1594 6,756.8994 123.34,943.6094 C187.12,1045.0894 316.28,1097.8594 416.29,1124.5394 " fill="none" id="CRTP duck type-backto-indexed_view" style="stroke:#181818;stroke-width:1.0;stroke-dasharray:7.0,7.0;"/><polygon fill="none" points="1016.35,281.7294,1004.4553,296.5117,1015.7036,300.692,1016.35,281.7294" style="stroke:#181818;stroke-width:1.0;"/><text fill="#000000" font-family="sans-serif" font-size="13" lengthAdjust="spacing" textLength="99" x="69.34" y="793.6045">duck implements</text></g><!--reverse link basic_vector::anonymous_union to storage_wrapper--><g id="link_basic_vector::anonymous_union_storage_wrapper"><path codeLine="174" d="M2037.34,902.1094 C2102.55,902.1094 2119.76,972.8794 2132.83,1038.8094 " fill="none" id="basic_vector::anonymous_union-backto-storage_wrapper" style="stroke:#181818;stroke-width:1.0;"/><polygon fill="#181818" points="2025.34,902.1094,2031.34,906.1094,2037.34,902.1094,2031.34,898.1094,2025.34,902.1094" style="stroke:#181818;stroke-width:1.0;"/><text fill="#000000" font-family="sans-serif" font-size="13" lengthAdjust="spacing" textLength="28" x="2120.34" y="988.1045">base</text><text fill="#000000" font-family="sans-serif" font-size="13" lengthAdjust="spacing" textLength="7" x="2032.4166" y="899.1251">1</text><text fill="#000000" font-family="sans-serif" font-size="13" lengthAdjust="spacing" textLength="7" x="2124.8887" y="1028.2305">1</text></g><!--reverse link basic_vector::anonymous_union to indexed_vector--><g id="link_basic_vector::anonymous_union_indexed_vector"><path codeLine="175" d="M1775.34,919.1094 C1743.36,919.1094 1724.81,992.4494 1704.24,1056.4894 " fill="none" id="basic_vector::anonymous_union-backto-indexed_vector" style="stroke:#181818;stroke-width:1.0;"/><polygon fill="#181818" points="1787.34,919.1094,1781.34,915.1094,1775.34,919.1094,1781.34,923.1094,1787.34,919.1094" style="stroke:#181818;stroke-width:1.0;"/><text fill="#000000" font-family="sans-serif" font-size="13" lengthAdjust="spacing" textLength="50" x="1737.34" y="988.1045">swizzles</text><text fill="#000000" font-family="sans-serif" font-size="13" lengthAdjust="spacing" textLength="7" x="1773.258" y="917.3599">1</text><text fill="#000000" font-family="sans-serif" font-size="13" lengthAdjust="spacing" textLength="32" x="1707.5789" y="1045.8259">many</text></g><!--reverse link basic_vector to basic_vector::anonymous_union--><g id="link_basic_vector_basic_vector::anonymous_union"><path codeLine="176" d="M1926.34,531.1094 C2000.12,531.1094 1950.99,633.6594 1913.34,697.1094 C1886.9,741.6794 1837.65,708.9594 1811.34,753.6094 C1795.77,780.0294 1797.92,795.0294 1811.34,822.6094 C1816.75,833.7294 1824.72,843.6794 1833.77,852.4094 " fill="none" id="basic_vector-backto-basic_vector::anonymous_union" style="stroke:#181818;stroke-width:1.0;"/><polygon fill="#181818" points="1914.34,531.1094,1920.34,535.1094,1926.34,531.1094,1920.34,527.1094,1914.34,531.1094" style="stroke:#181818;stroke-width:1.0;"/><path d="M1816.34,758.6094 L1816.34,817.6094 L2037.34,817.6094 L2037.34,768.6094 L2027.34,758.6094 L1816.34,758.6094 " fill="#FEFFDD" style="stroke:#181818;stroke-width:0.5;"/><path d="M2027.34,758.6094 L2027.34,768.6094 L2037.34,768.6094 L2027.34,758.6094 " fill="#FEFFDD" style="stroke:#181818;stroke-width:0.5;"/><text fill="#000000" font-family="sans-serif" font-size="13" lengthAdjust="spacing" textLength="185" x="1822.34" y="777.1045">Nested anonymous union where</text><text fill="#000000" font-family="sans-serif" font-size="13" lengthAdjust="spacing" textLength="200" x="1822.34" y="793.4561">all members have a common initial</text><text fill="#000000" font-family="sans-serif" font-size="13" lengthAdjust="spacing" textLength="148" x="1822.34" y="809.8076">sequence with each other</text><text fill="#000000" font-family="sans-serif" font-size="13" lengthAdjust="spacing" textLength="7" x="1920.708" y="524.5176">1</text><text fill="#000000" font-family="sans-serif" font-size="13" lengthAdjust="spacing" textLength="7" x="1820.9459" y="845.7982">1</text></g><!--reverse link indexed_vector_const_iterator to indexed_vector--><g id="link_indexed_vector_const_iterator_indexed_vector"><path codeLine="182" d="M1676.34,584.1094 C1699.67,584.1094 1684.1,895.4794 1680.69,1056.3294 " fill="none" id="indexed_vector_const_iterator-backto-indexed_vector" style="stroke:#181818;stroke-width:1.0;"/><polygon fill="#181818" points="1664.34,584.1094,1670.34,588.1094,1676.34,584.1094,1670.34,580.1094,1664.34,584.1094" style="stroke:#181818;stroke-width:1.0;"/><text fill="#000000" font-family="sans-serif" font-size="13" lengthAdjust="spacing" textLength="65" x="1684.34" y="903.6045">mapper_ptr</text><text fill="#000000" font-family="sans-serif" font-size="13" lengthAdjust="spacing" textLength="7" x="1671.0158" y="580.6034">1</text><text fill="#000000" font-family="sans-serif" font-size="13" lengthAdjust="spacing" textLength="32" x="1647.6023" y="1045.6532">many</text></g><!--reverse link indexed_vector_iterator to indexed_vector--><g id="link_indexed_vector_iterator_indexed_vector"><path codeLine="183" d="M1474.8873,943.3621 C1505.9873,974.9621 1544.37,1013.9694 1586.08,1056.3494 " fill="none" id="indexed_vector_iterator-backto-indexed_vector" style="stroke:#181818;stroke-width:1.0;"/><polygon fill="#181818" points="1466.47,934.8094,1467.8278,941.8915,1474.8873,943.3621,1473.5296,936.2799,1466.47,934.8094" style="stroke:#181818;stroke-width:1.0;"/><text fill="#000000" font-family="sans-serif" font-size="13" lengthAdjust="spacing" textLength="65" x="1519.34" y="988.1045">mapper_ptr</text><text fill="#000000" font-family="sans-serif" font-size="13" lengthAdjust="spacing" textLength="7" x="1462.5836" y="952.692">1</text><text fill="#000000" font-family="sans-serif" font-size="13" lengthAdjust="spacing" textLength="32" x="1545.453" y="1045.6748">many</text></g><!--reverse link indexed_view_const_iterator to indexed_view--><g id="link_indexed_view_const_iterator_indexed_view"><path codeLine="184" d="M638.34,584.1094 C665.01,584.1094 629.05,617.6994 625.34,644.1094 C612,739.1294 584.6,757.8794 569.34,852.6094 C559.49,913.7694 555.13,982.8094 553.29,1038.9694 " fill="none" id="indexed_view_const_iterator-backto-indexed_view" style="stroke:#181818;stroke-width:1.0;"/><polygon fill="#181818" points="626.34,584.1094,632.34,588.1094,638.34,584.1094,632.34,580.1094,626.34,584.1094" style="stroke:#181818;stroke-width:1.0;"/><text fill="#000000" font-family="sans-serif" font-size="13" lengthAdjust="spacing" textLength="65" x="570.34" y="903.6045">mapper_ptr</text><text fill="#000000" font-family="sans-serif" font-size="13" lengthAdjust="spacing" textLength="7" x="632.5939" y="580.6034">1</text><text fill="#000000" font-family="sans-serif" font-size="13" lengthAdjust="spacing" textLength="32" x="520.2788" y="1028.4012">many</text></g><!--reverse link indexed_view_iterator to indexed_view--><g id="link_indexed_view_iterator_indexed_view"><path codeLine="185" d="M353.931,943.4655 C380.181,970.8055 409.58,1001.4294 445.63,1038.9694 " fill="none" id="indexed_view_iterator-backto-indexed_view" style="stroke:#181818;stroke-width:1.0;"/><polygon fill="#181818" points="345.62,934.8094,346.8901,941.9077,353.931,943.4655,352.6608,936.3671,345.62,934.8094" style="stroke:#181818;stroke-width:1.0;"/><text fill="#000000" font-family="sans-serif" font-size="13" lengthAdjust="spacing" textLength="65" x="397.34" y="988.1045">mapper_ptr</text><text fill="#000000" font-family="sans-serif" font-size="13" lengthAdjust="spacing" textLength="7" x="341.6499" y="952.692">1</text><text fill="#000000" font-family="sans-serif" font-size="13" lengthAdjust="spacing" textLength="32" x="405.3854" y="1028.4012">many</text></g><!--reverse link basic_view::anonymous_union to view_wrapper--><g id="link_basic_view::anonymous_union_view_wrapper"><path codeLine="186" d="M1082.34,902.1094 C1111.85,902.1094 1073.77,960.9994 1039.27,1021.3894 " fill="none" id="basic_view::anonymous_union-backto-view_wrapper" style="stroke:#181818;stroke-width:1.0;"/><polygon fill="#181818" points="1070.34,902.1094,1076.34,906.1094,1082.34,902.1094,1076.34,898.1094,1070.34,902.1094" style="stroke:#181818;stroke-width:1.0;"/><text fill="#000000" font-family="sans-serif" font-size="13" lengthAdjust="spacing" textLength="28" x="1065.34" y="988.1045">base</text><text fill="#000000" font-family="sans-serif" font-size="13" lengthAdjust="spacing" textLength="7" x="1077.3697" y="899.1005">1</text><text fill="#000000" font-family="sans-serif" font-size="13" lengthAdjust="spacing" textLength="7" x="1036.8042" y="1010.9237">1</text></g><!--reverse link basic_view::anonymous_union to indexed_view--><g id="link_basic_view::anonymous_union_indexed_view"><path codeLine="187" d="M832.34,919.1094 C816.79,919.1094 831.07,933.3894 819.34,943.6094 C778.03,979.6094 731.28,1016.8594 688.58,1049.6394 " fill="none" id="basic_view::anonymous_union-backto-indexed_view" style="stroke:#181818;stroke-width:1.0;"/><polygon fill="#181818" points="844.34,919.1094,838.34,915.1094,832.34,919.1094,838.34,923.1094,844.34,919.1094" style="stroke:#181818;stroke-width:1.0;"/><text fill="#000000" font-family="sans-serif" font-size="13" lengthAdjust="spacing" textLength="50" x="778.34" y="988.1045">swizzles</text><text fill="#000000" font-family="sans-serif" font-size="13" lengthAdjust="spacing" textLength="7" x="830.2408" y="917.4007">1</text><text fill="#000000" font-family="sans-serif" font-size="13" lengthAdjust="spacing" textLength="32" x="696.4299" y="1041.4966">many</text></g><!--reverse link basic_view to basic_view::anonymous_union--><g id="link_basic_view_basic_view::anonymous_union"><path codeLine="188" d="M720.34,505.1094 C623.23,505.1094 700.99,632.0494 733.34,723.6094 C739.03,739.7094 748.02,739.3094 757.34,753.6094 C776.24,782.5794 768.23,798.8294 793.34,822.6094 C806.17,834.7594 821.33,845.1694 837.16,854.0294 " fill="none" id="basic_view-backto-basic_view::anonymous_union" style="stroke:#181818;stroke-width:1.0;"/><polygon fill="#181818" points="732.34,505.1094,726.34,501.1094,720.34,505.1094,726.34,509.1094,732.34,505.1094" style="stroke:#181818;stroke-width:1.0;"/><path d="M798.34,758.6094 L798.34,817.6094 L1019.34,817.6094 L1019.34,768.6094 L1009.34,758.6094 L798.34,758.6094 " fill="#FEFFDD" style="stroke:#181818;stroke-width:0.5;"/><path d="M1009.34,758.6094 L1009.34,768.6094 L1019.34,768.6094 L1009.34,758.6094 " fill="#FEFFDD" style="stroke:#181818;stroke-width:0.5;"/><text fill="#000000" font-family="sans-serif" font-size="13" lengthAdjust="spacing" textLength="185" x="804.34" y="777.1045">Nested anonymous union where</text><text fill="#000000" font-family="sans-serif" font-size="13" lengthAdjust="spacing" textLength="200" x="804.34" y="793.4561">all members have a common initial</text><text fill="#000000" font-family="sans-serif" font-size="13" lengthAdjust="spacing" textLength="148" x="804.34" y="809.8076">sequence with each other</text><text fill="#000000" font-family="sans-serif" font-size="13" lengthAdjust="spacing" textLength="7" x="717.7392" y="495.7762">1</text><text fill="#000000" font-family="sans-serif" font-size="13" lengthAdjust="spacing" textLength="7" x="830.16" y="851.5245">1</text></g><!--reverse link CRTP duck type to vector_base--><g id="link_CRTP duck type_vector_base"><path codeLine="194" d="M1108.09,213.6094 C1141.98,213.6094 1178.19,213.6094 1218.03,213.6094 " fill="none" id="CRTP duck type-backto-vector_base" style="stroke:#181818;stroke-width:1.0;stroke-dasharray:7.0,7.0;"/><polygon fill="#181818" points="1102.09,213.6094,1111.09,217.6094,1107.09,213.6094,1111.09,209.6094,1102.09,213.6094" style="stroke:#181818;stroke-width:1.0;"/><text fill="#000000" font-family="sans-serif" font-size="13" lengthAdjust="spacing" textLength="80" x="1120.09" y="207.1045">Derived CRTP</text></g><!--reverse link basic_matrix to basic_vector--><g id="link_basic_matrix_basic_vector"><path codeLine="195" d="M2000.34,128.6094 C2151.08,128.6094 1999.31,346.8894 1897.6,482.8794 " fill="none" id="basic_matrix-backto-basic_vector" style="stroke:#181818;stroke-width:1.0;"/><polygon fill="#181818" points="1988.34,128.6094,1994.34,132.6094,2000.34,128.6094,1994.34,124.6094,1988.34,128.6094" style="stroke:#181818;stroke-width:1.0;"/><text fill="#000000" font-family="sans-serif" font-size="13" lengthAdjust="spacing" textLength="49" x="1946.34" y="423.1045">columns</text><text fill="#000000" font-family="sans-serif" font-size="13" lengthAdjust="spacing" textLength="7" x="1994.7908" y="122.763">1</text><text fill="#000000" font-family="sans-serif" font-size="13" lengthAdjust="spacing" textLength="26" x="1874.1609" y="476.231">Cols</text></g><!--SRC=[nLXDSzis43rJls97bph-q4ol7DKNvv93CXtNdHuoAGSYLnR69CW2e6NPpN_l0Y18YX-IMDl9IIIm-x3lONS1AlX5FN01CbSu2pJNAS8jfappNAWDBnHSmKtAb8AFdDrBbiq29aIkhG7CRsxlVeUaZ1z0xmgSpuANMH1Sm0jRAIrPhB-3GdtseJkO5oYPpkNNR_svX6dM7rNuJuaYnluCrmuBM1oZKiRW-ooW415IN6l8rmDX1ZSvWHMwP2bmGGXh5kCba1T8fB7GcfHf0Yk4Z2Leh79W45zSGEnyPm6AnBYGS3uSUCIOOebMJ24i_v9SirLAm7UNG712Ny97bFmHasilbGsj4Sc-zkHnyJV2L4vxajYn0J5eAaLnhpVLY-BFteMfA77XD0CcSlzM5EckUgQbf7-cl5ZxUEFsIyQ5Vs9FthZCgYqXXKfIY8i4dp29AgL8JAKZ7_VoSzaezWT5MkksM2m-gLgrZ6936HLQGWWMeeExxFf_KWRY6ixR_jQ749HEmf304hvUHzfQr4gkIn7RQZX8Oog1a-4vRjz18qBzSGeP2c-j3wKfZpjxNJkNWXnSdr2cKyNKSTPhAZBbcJ0fsQxbPnArhi5U-Vc1twhtLYLsYd2u_jIM5OFXcste2l8w5WtmsHsSV-YEkJIePoGsh7yC_zRXqTv2uY9oiSloKaKLxnSVErOO_FavHJM2GkGcObGxeMXrTe_HLjg47zyEOuW7b7-RL9igxLXhxwUSBSEJMTQ9CfLRUvd_cMxlhC58q_3CxxwQuM_zn1_h_QUsD7idU4N-MD3txLN3pNiYmOcfqwBLNlHdjAfkVywOblp91PcgIxZDjmtRE4_BJ7JuT8ybw-7S7KMPRy_QNTajKP7zqvETGkk4cd2XHcDrKaqFLyxUXVRVgwlzjbtTEiM6hf5QZLkRzdpKTh-iO883mVVDcwMTTQluPy71M-XGECrabU5Hp9HUNhUW-bUrVfZZCDsF5FXxiTWJcppiBC-A53CKXkCX9oVAQIuzwIUwZQnry8WFGxkJyr_dS4ugcT_EOKoGxkm-WkFFzGOhOs8txxDgBW3xY1PdBv8ZbnFxUIdv_OQ-BmMaN3pC0e0lg3GcK5kxAnniAIFHpBCqXGop5Ke56_Q8vdiopp8ouO9hpb9ZvDiKRBdU0B9u0xacXFRdvi7i3SFMpV-O8erf3_NjyFg5SHAcIwfHn5TY7RWu3cHc-rhJJSjXYAD9wKBgfQH56qt8uNlkJqx7NczOBlR-20dzlnwsHNkcxkWBGt-GrcpDQJdljhxAwZy0]--></g></svg>