<?xml version="1.0" encoding="us-ascii" standalone="no"?><svg xmlns="http://www.w3.org/2000/svg" xmlns:xlink="http://www.w3.org/1999/xlink" contentStyleType="text/css" height="990px" preserveAspectRatio="none" style="width:786px;height:990px;background:#FFFFFF;" version="1.1" viewBox="0 0 786 990" width="786px" zoomAndPan="magnify"><defs/><g><text fill="#000000" font-family="sans-serif" font-size="14" font-weight="bold" lengthAdjust="spacing" textLength="208" x="282.25" y="24.5332">Relationships - Class Diagram</text><!--class CRTP_duck_type--><g id="elem_CRTP_duck_type"><rect codeLine="3" fill="#F1F1F1" height="136.0469" id="CRTP_duck_type" rx="2.5" ry="2.5" style="stroke:#181818;stroke-width:0.5;" width="144" x="254.5" y="128.1094"/><ellipse cx="269.5" cy="144.1094" fill="#B4A7E5" rx="11" ry="11" style="stroke:#181818;stroke-width:1.0;"/><path d="M270.4531,140.75 L270.4531,147.4063 L272.1719,147.4063 Q272.7813,147.4063 273.0469,147.6406 Q273.3125,147.875 273.3125,148.2656 Q273.3125,148.6406 273.0469,148.875 Q272.7813,149.1094 272.1719,149.1094 L267.0313,149.1094 Q266.4219,149.1094 266.1563,148.875 Q265.8906,148.6406 265.8906,148.25 Q265.8906,147.875 266.1563,147.6406 Q266.4219,147.4063 267.0313,147.4063 L268.75,147.4063 L268.75,140.75 L267.0313,140.75 Q266.4219,140.75 266.1563,140.5156 Q265.8906,140.2813 265.8906,139.8906 Q265.8906,139.5156 266.1563,139.2813 Q266.4219,139.0469 267.0313,139.0469 L272.1719,139.0469 Q272.7813,139.0469 273.0469,139.2813 Q273.3125,139.5156 273.3125,139.8906 Q273.3125,140.2813 273.0469,140.5156 Q272.7813,140.75 272.1719,140.75 L270.4531,140.75 Z " fill="#000000"/><text fill="#000000" font-family="sans-serif" font-size="14" font-style="italic" lengthAdjust="spacing" textLength="112" x="283.5" y="149.8379">CRTP_duck_type</text><line style="stroke:#181818;stroke-width:0.5;" x1="255.5" x2="397.5" y1="160.1094" y2="160.1094"/><line style="stroke:#181818;stroke-width:0.5;" x1="255.5" x2="397.5" y1="168.1094" y2="168.1094"/><ellipse cx="265.5" cy="182.4141" fill="#84BE84" rx="3" ry="3" style="stroke:#038048;stroke-width:1.0;"/><text fill="#000000" font-family="sans-serif" font-size="14" lengthAdjust="spacing" textLength="29" x="274.5" y="186.6426">set()</text><ellipse cx="265.5" cy="200.0234" fill="#84BE84" rx="3" ry="3" style="stroke:#038048;stroke-width:1.0;"/><text fill="#000000" font-family="sans-serif" font-size="14" lengthAdjust="spacing" textLength="72" x="274.5" y="204.252">operator[]()</text><ellipse cx="265.5" cy="217.6328" fill="#84BE84" rx="3" ry="3" style="stroke:#038048;stroke-width:1.0;"/><text fill="#000000" font-family="sans-serif" font-size="14" lengthAdjust="spacing" textLength="38" x="274.5" y="221.8613">data()</text><ellipse cx="265.5" cy="235.2422" fill="#84BE84" rx="3" ry="3" style="stroke:#038048;stroke-width:1.0;"/><text fill="#000000" font-family="sans-serif" font-size="14" lengthAdjust="spacing" textLength="72" x="274.5" y="239.4707">sequence()</text><ellipse cx="265.5" cy="252.8516" fill="#84BE84" rx="3" ry="3" style="stroke:#038048;stroke-width:1.0;"/><text fill="#000000" font-family="sans-serif" font-size="14" lengthAdjust="spacing" textLength="116" x="274.5" y="257.0801">iterator functions()</text></g><g id="elem_GMN3"><path d="M21.5,174.6094 L21.5,217.3125 A0,0 0 0 0 21.5,217.3125 L219.5,217.3125 A0,0 0 0 0 219.5,217.3125 L219.5,200.1094 L254.45,196.1094 L219.5,192.1094 L219.5,184.6094 L209.5,174.6094 L21.5,174.6094 A0,0 0 0 0 21.5,174.6094 " fill="#FEFFDD" style="stroke:#181818;stroke-width:0.5;"/><path d="M209.5,174.6094 L209.5,184.6094 L219.5,184.6094 L209.5,174.6094 " fill="#FEFFDD" style="stroke:#181818;stroke-width:0.5;"/><text fill="#000000" font-family="sans-serif" font-size="13" lengthAdjust="spacing" textLength="177" x="27.5" y="193.1045">Conceptual interface, not real :</text><text fill="#000000" font-family="sans-serif" font-size="13" lengthAdjust="spacing" textLength="175" x="27.5" y="209.4561">Could be made into a Concept</text></g><!--class vector_base--><g id="elem_vector_base"><rect codeLine="15" fill="#F1F1F1" height="294.5313" id="vector_base" rx="2.5" ry="2.5" style="stroke:#181818;stroke-width:0.5;" width="260" x="515.5" y="48.6094"/><ellipse cx="530.5" cy="64.6094" fill="#A9DCDF" rx="11" ry="11" style="stroke:#181818;stroke-width:1.0;"/><path d="M532.6875,66.375 L528.5469,66.375 L528.125,67.4063 L528.5469,67.4063 Q529.1563,67.4063 529.4219,67.6406 Q529.6875,67.875 529.6875,68.2656 Q529.6875,68.6406 529.4219,68.875 Q529.1563,69.1094 528.5469,69.1094 L526.25,69.1094 Q525.6406,69.1094 525.3906,68.875 Q525.125,68.6406 525.125,68.25 Q525.125,67.875 525.4063,67.6406 Q525.6719,67.3906 526.2969,67.4063 L528.9688,60.75 L527.8594,60.75 Q527.25,60.75 526.9844,60.5156 Q526.7188,60.2813 526.7188,59.8906 Q526.7188,59.5156 526.9844,59.2813 Q527.25,59.0469 527.8594,59.0469 L531.5313,59.0469 L534.9219,67.4063 Q535.5156,67.4063 535.7031,67.5469 Q536.0938,67.8125 536.0938,68.2656 Q536.0938,68.6406 535.8281,68.875 Q535.5781,69.1094 534.9688,69.1094 L532.6719,69.1094 Q532.0625,69.1094 531.7969,68.875 Q531.5313,68.6406 531.5313,68.25 Q531.5313,67.875 531.7969,67.6406 Q532.0625,67.4063 532.6719,67.4063 L533.0938,67.4063 L532.6875,66.375 Z M531.9688,64.6719 L530.6094,61.2969 L529.2344,64.6719 L531.9688,64.6719 Z " fill="#000000"/><text fill="#000000" font-family="sans-serif" font-size="14" font-style="italic" lengthAdjust="spacing" textLength="77" x="544.5" y="70.3379">vector_base</text><rect fill="#FFFFFF" height="17.0938" style="stroke:#181818;stroke-width:1.0;stroke-dasharray:2.0,2.0;" width="149" x="629.5" y="45.6094"/><text fill="#000000" font-family="sans-serif" font-size="12" font-style="italic" lengthAdjust="spacing" textLength="147" x="630.5" y="59.0664">Writable, T, Count, Derived</text><line style="stroke:#181818;stroke-width:0.5;" x1="516.5" x2="774.5" y1="80.6094" y2="80.6094"/><line style="stroke:#181818;stroke-width:0.5;" x1="516.5" x2="774.5" y1="88.6094" y2="88.6094"/><ellipse cx="526.5" cy="102.9141" fill="#84BE84" rx="3" ry="3" style="stroke:#038048;stroke-width:1.0;"/><text fill="#000000" font-family="sans-serif" font-size="14" lengthAdjust="spacing" textLength="71" x="535.5" y="107.1426">CRTP set()</text><ellipse cx="526.5" cy="120.5234" fill="#84BE84" rx="3" ry="3" style="stroke:#038048;stroke-width:1.0;"/><text fill="#000000" font-family="sans-serif" font-size="14" lengthAdjust="spacing" textLength="114" x="535.5" y="124.752">CRTP operator[]()</text><ellipse cx="526.5" cy="138.1328" fill="#84BE84" rx="3" ry="3" style="stroke:#038048;stroke-width:1.0;"/><text fill="#000000" font-family="sans-serif" font-size="14" lengthAdjust="spacing" textLength="80" x="535.5" y="142.3613">CRTP data()</text><ellipse cx="526.5" cy="155.7422" fill="#84BE84" rx="3" ry="3" style="stroke:#038048;stroke-width:1.0;"/><text fill="#000000" font-family="sans-serif" font-size="14" lengthAdjust="spacing" textLength="114" x="535.5" y="159.9707">CRTP sequence()</text><ellipse cx="526.5" cy="173.3516" fill="#84BE84" rx="3" ry="3" style="stroke:#038048;stroke-width:1.0;"/><text fill="#000000" font-family="sans-serif" font-size="14" lengthAdjust="spacing" textLength="158" x="535.5" y="177.5801">CRTP iterator functions()</text><ellipse cx="526.5" cy="190.9609" fill="#84BE84" rx="3" ry="3" style="stroke:#038048;stroke-width:1.0;"/><text fill="#000000" font-family="sans-serif" font-size="14" lengthAdjust="spacing" textLength="49" x="535.5" y="195.1895">length()</text><ellipse cx="526.5" cy="208.5703" fill="#84BE84" rx="3" ry="3" style="stroke:#038048;stroke-width:1.0;"/><text fill="#000000" font-family="sans-serif" font-size="14" lengthAdjust="spacing" textLength="34" x="535.5" y="212.7988">size()</text><ellipse cx="526.5" cy="226.1797" fill="#84BE84" rx="3" ry="3" style="stroke:#038048;stroke-width:1.0;"/><text fill="#000000" font-family="sans-serif" font-size="14" lengthAdjust="spacing" textLength="80" x="535.5" y="230.4082">as_derived()</text><ellipse cx="526.5" cy="243.7891" fill="#84BE84" rx="3" ry="3" style="stroke:#038048;stroke-width:1.0;"/><text fill="#000000" font-family="sans-serif" font-size="14" lengthAdjust="spacing" textLength="44" x="535.5" y="248.0176">apply()</text><ellipse cx="526.5" cy="261.3984" fill="#84BE84" rx="3" ry="3" style="stroke:#038048;stroke-width:1.0;"/><text fill="#000000" font-family="sans-serif" font-size="14" lengthAdjust="spacing" textLength="36" x="535.5" y="265.627">shift()</text><ellipse cx="526.5" cy="279.0078" fill="#84BE84" rx="3" ry="3" style="stroke:#038048;stroke-width:1.0;"/><text fill="#000000" font-family="sans-serif" font-size="14" lengthAdjust="spacing" textLength="43" x="535.5" y="283.2363">cshift()</text><ellipse cx="526.5" cy="296.6172" fill="#84BE84" rx="3" ry="3" style="stroke:#038048;stroke-width:1.0;"/><text fill="#000000" font-family="sans-serif" font-size="14" lengthAdjust="spacing" textLength="32" x="535.5" y="300.8457">min()</text><ellipse cx="526.5" cy="314.2266" fill="#84BE84" rx="3" ry="3" style="stroke:#038048;stroke-width:1.0;"/><text fill="#000000" font-family="sans-serif" font-size="14" lengthAdjust="spacing" textLength="35" x="535.5" y="318.4551">max()</text><ellipse cx="526.5" cy="331.8359" fill="#84BE84" rx="3" ry="3" style="stroke:#038048;stroke-width:1.0;"/><text fill="#000000" font-family="sans-serif" font-size="14" lengthAdjust="spacing" textLength="36" x="535.5" y="336.0645">sum()</text></g><!--class basic_vector--><g id="elem_basic_vector"><rect codeLine="32" fill="#F1F1F1" height="206.4844" id="basic_vector" rx="2.5" ry="2.5" style="stroke:#181818;stroke-width:0.5;" width="154" x="249.5" y="439.6094"/><ellipse cx="264.5" cy="455.6094" fill="#F1F1F1" rx="11" ry="11" style="stroke:#181818;stroke-width:1.0;"/><path d="M262.6094,460.1719 Q262.3906,460.4375 262.25,460.5156 Q262.1094,460.5938 261.9219,460.5938 Q261.5313,460.5938 261.2813,460.3281 Q261.0469,460.0625 261.0469,459.4688 L261.0469,458.3125 Q261.0469,457.7031 261.2813,457.4531 Q261.5313,457.1875 261.9219,457.1875 Q262.2188,457.1875 262.4219,457.3438 Q262.625,457.5 262.7344,457.875 Q262.8438,458.2344 262.9531,458.375 Q263.2031,458.625 263.8125,458.8906 Q264.4219,459.1563 265.1563,459.1563 Q266.2969,459.1563 267.0156,458.625 Q267.4844,458.2969 267.4844,457.8281 Q267.4844,457.5156 267.2656,457.2344 Q267.0469,456.9531 266.5313,456.7813 Q266.2031,456.6563 265.0469,456.4375 Q263.6563,456.1719 262.9375,455.8125 Q262.2188,455.4531 261.7969,454.7969 Q261.3906,454.125 261.3906,453.3438 Q261.3906,452.125 262.4063,451.2188 Q263.4375,450.2969 265.0781,450.2969 Q265.7344,450.2969 266.2813,450.4375 Q266.8438,450.5781 267.3125,450.875 Q267.6406,450.5625 267.9688,450.5625 Q268.3438,450.5625 268.5781,450.8281 Q268.8125,451.0781 268.8125,451.6875 L268.8125,452.9688 Q268.8125,453.5781 268.5781,453.8438 Q268.3438,454.0938 267.9688,454.0938 Q267.6563,454.0938 267.4219,453.9063 Q267.2344,453.7656 267.1406,453.3438 Q267.0625,452.9219 266.9219,452.7344 Q266.6719,452.4219 266.1875,452.2188 Q265.7188,452 265.0781,452 Q264.1563,452 263.625,452.4219 Q263.0938,452.8438 263.0938,453.3125 Q263.0938,453.625 263.3125,453.9219 Q263.5313,454.2188 263.9531,454.3906 Q264.2344,454.5 265.5313,454.7656 Q266.8438,455.0156 267.5469,455.3281 Q268.25,455.625 268.7188,456.2813 Q269.1875,456.9375 269.1875,457.8438 Q269.1875,459.1094 268.2969,459.8594 Q267.1094,460.8594 265.2813,460.8594 Q264.5781,460.8594 263.9063,460.6875 Q263.25,460.5156 262.6094,460.1719 Z " fill="#000000"/><text fill="#000000" font-family="sans-serif" font-size="14" lengthAdjust="spacing" textLength="80" x="278.5" y="461.3379">basic_vector</text><rect fill="#FFFFFF" height="17.0938" style="stroke:#181818;stroke-width:1.0;stroke-dasharray:2.0,2.0;" width="40" x="366.5" y="436.6094"/><text fill="#000000" font-family="sans-serif" font-size="12" font-style="italic" lengthAdjust="spacing" textLength="38" x="367.5" y="450.0664">T, Size</text><line style="stroke:#181818;stroke-width:0.5;" x1="250.5" x2="402.5" y1="471.6094" y2="471.6094"/><ellipse cx="260.5" cy="485.9141" fill="none" rx="3" ry="3" style="stroke:#038048;stroke-width:1.0;"/><text fill="#000000" font-family="sans-serif" font-size="14" lengthAdjust="spacing" textLength="120" x="269.5" y="490.1426">base_and_swizzles</text><ellipse cx="260.5" cy="503.5234" fill="none" rx="3" ry="3" style="stroke:#038048;stroke-width:1.0;"/><text fill="#000000" font-family="sans-serif" font-size="14" lengthAdjust="spacing" text-decoration="underline" textLength="42" x="269.5" y="507.752">offsets</text><line style="stroke:#181818;stroke-width:0.5;" x1="250.5" x2="402.5" y1="514.8281" y2="514.8281"/><ellipse cx="260.5" cy="529.1328" fill="#84BE84" rx="3" ry="3" style="stroke:#038048;stroke-width:1.0;"/><text fill="#000000" font-family="sans-serif" font-size="14" lengthAdjust="spacing" textLength="29" x="269.5" y="533.3613">set()</text><ellipse cx="260.5" cy="546.7422" fill="#84BE84" rx="3" ry="3" style="stroke:#038048;stroke-width:1.0;"/><text fill="#000000" font-family="sans-serif" font-size="14" lengthAdjust="spacing" textLength="72" x="269.5" y="550.9707">operator[]()</text><ellipse cx="260.5" cy="564.3516" fill="#84BE84" rx="3" ry="3" style="stroke:#038048;stroke-width:1.0;"/><text fill="#000000" font-family="sans-serif" font-size="14" lengthAdjust="spacing" textLength="72" x="269.5" y="568.5801">operator=()</text><ellipse cx="260.5" cy="581.9609" fill="#84BE84" rx="3" ry="3" style="stroke:#038048;stroke-width:1.0;"/><text fill="#000000" font-family="sans-serif" font-size="14" lengthAdjust="spacing" textLength="38" x="269.5" y="586.1895">data()</text><ellipse cx="260.5" cy="599.5703" fill="#84BE84" rx="3" ry="3" style="stroke:#038048;stroke-width:1.0;"/><text fill="#000000" font-family="sans-serif" font-size="14" lengthAdjust="spacing" textLength="72" x="269.5" y="603.7988">sequence()</text><ellipse cx="260.5" cy="617.1797" fill="#84BE84" rx="3" ry="3" style="stroke:#038048;stroke-width:1.0;"/><text fill="#000000" font-family="sans-serif" font-size="14" lengthAdjust="spacing" textLength="116" x="269.5" y="621.4082">iterator functions()</text><ellipse cx="260.5" cy="634.7891" fill="#84BE84" rx="3" ry="3" style="stroke:#038048;stroke-width:1.0;"/><text fill="#000000" font-family="sans-serif" font-size="14" lengthAdjust="spacing" textLength="42" x="269.5" y="639.0176">swap()</text></g><!--class anonymous_union--><g id="elem_anonymous_union"><rect codeLine="44" fill="#F1F1F1" height="83.2188" id="anonymous_union" rx="2.5" ry="2.5" style="stroke:#181818;stroke-width:0.5;" width="148" x="252.5" y="821.1094"/><ellipse cx="267.5" cy="837.1094" fill="#ADD1B2" rx="11" ry="11" style="stroke:#181818;stroke-width:1.0;"/><path d="M266.3594,837.9063 L266.3594,840.4063 L270.6875,840.4063 L270.6875,839.4844 Q270.6875,838.875 270.9219,838.6094 Q271.1719,838.3438 271.5469,838.3438 Q271.9219,838.3438 272.1563,838.6094 Q272.3906,838.875 272.3906,839.4844 L272.3906,842.1094 L264.3906,842.1094 Q263.7656,842.1094 263.5,841.875 Q263.25,841.6406 263.25,841.25 Q263.25,840.875 263.5156,840.6406 Q263.7813,840.4063 264.3906,840.4063 L264.6563,840.4063 L264.6563,833.75 L264.3906,833.75 Q263.7656,833.75 263.5,833.5156 Q263.25,833.2813 263.25,832.8906 Q263.25,832.5156 263.5,832.2813 Q263.7656,832.0469 264.3906,832.0469 L272.0156,832.0469 L272.0156,834.6406 Q272.0156,835.25 271.7813,835.5156 Q271.5625,835.7656 271.1719,835.7656 Q270.7969,835.7656 270.5625,835.5156 Q270.3281,835.25 270.3281,834.6406 L270.3281,833.75 L266.3594,833.75 L266.3594,836.2031 L267.8438,836.2031 Q267.8438,835.5469 267.9688,835.3594 Q268.2344,834.9531 268.7031,834.9531 Q269.0781,834.9531 269.3125,835.2188 Q269.5469,835.4688 269.5469,836.0781 L269.5469,838.0469 Q269.5469,838.5938 269.4219,838.7813 Q269.1563,839.1719 268.7031,839.1719 Q268.2344,839.1719 267.9688,838.7656 Q267.8438,838.5781 267.8438,837.9063 L266.3594,837.9063 Z " fill="#000000"/><text fill="#000000" font-family="sans-serif" font-size="14" lengthAdjust="spacing" textLength="116" x="281.5" y="842.8379">anonymous_union</text><line style="stroke:#181818;stroke-width:0.5;" x1="253.5" x2="399.5" y1="853.1094" y2="853.1094"/><ellipse cx="263.5" cy="867.4141" fill="none" rx="3" ry="3" style="stroke:#038048;stroke-width:1.0;"/><text fill="#000000" font-family="sans-serif" font-size="14" lengthAdjust="spacing" textLength="31" x="272.5" y="871.6426">base</text><ellipse cx="263.5" cy="885.0234" fill="none" rx="3" ry="3" style="stroke:#038048;stroke-width:1.0;"/><text fill="#000000" font-family="sans-serif" font-size="14" lengthAdjust="spacing" textLength="49" x="272.5" y="889.252">swizzles</text><line style="stroke:#181818;stroke-width:0.5;" x1="253.5" x2="399.5" y1="896.3281" y2="896.3281"/></g><!--class storage_wrapper--><g id="elem_storage_wrapper"><rect codeLine="49" fill="#F1F1F1" height="241.7031" id="storage_wrapper" rx="2.5" ry="2.5" style="stroke:#181818;stroke-width:0.5;" width="181" x="7" y="741.6094"/><ellipse cx="22" cy="757.6094" fill="#F1F1F1" rx="11" ry="11" style="stroke:#181818;stroke-width:1.0;"/><path d="M20.1094,762.1719 Q19.8906,762.4375 19.75,762.5156 Q19.6094,762.5938 19.4219,762.5938 Q19.0313,762.5938 18.7813,762.3281 Q18.5469,762.0625 18.5469,761.4688 L18.5469,760.3125 Q18.5469,759.7031 18.7813,759.4531 Q19.0313,759.1875 19.4219,759.1875 Q19.7188,759.1875 19.9219,759.3438 Q20.125,759.5 20.2344,759.875 Q20.3438,760.2344 20.4531,760.375 Q20.7031,760.625 21.3125,760.8906 Q21.9219,761.1563 22.6563,761.1563 Q23.7969,761.1563 24.5156,760.625 Q24.9844,760.2969 24.9844,759.8281 Q24.9844,759.5156 24.7656,759.2344 Q24.5469,758.9531 24.0313,758.7813 Q23.7031,758.6563 22.5469,758.4375 Q21.1563,758.1719 20.4375,757.8125 Q19.7188,757.4531 19.2969,756.7969 Q18.8906,756.125 18.8906,755.3438 Q18.8906,754.125 19.9063,753.2188 Q20.9375,752.2969 22.5781,752.2969 Q23.2344,752.2969 23.7813,752.4375 Q24.3438,752.5781 24.8125,752.875 Q25.1406,752.5625 25.4688,752.5625 Q25.8438,752.5625 26.0781,752.8281 Q26.3125,753.0781 26.3125,753.6875 L26.3125,754.9688 Q26.3125,755.5781 26.0781,755.8438 Q25.8438,756.0938 25.4688,756.0938 Q25.1563,756.0938 24.9219,755.9063 Q24.7344,755.7656 24.6406,755.3438 Q24.5625,754.9219 24.4219,754.7344 Q24.1719,754.4219 23.6875,754.2188 Q23.2188,754 22.5781,754 Q21.6563,754 21.125,754.4219 Q20.5938,754.8438 20.5938,755.3125 Q20.5938,755.625 20.8125,755.9219 Q21.0313,756.2188 21.4531,756.3906 Q21.7344,756.5 23.0313,756.7656 Q24.3438,757.0156 25.0469,757.3281 Q25.75,757.625 26.2188,758.2813 Q26.6875,758.9375 26.6875,759.8438 Q26.6875,761.1094 25.7969,761.8594 Q24.6094,762.8594 22.7813,762.8594 Q22.0781,762.8594 21.4063,762.6875 Q20.75,762.5156 20.1094,762.1719 Z " fill="#000000"/><text fill="#000000" font-family="sans-serif" font-size="14" lengthAdjust="spacing" textLength="107" x="36" y="763.3379">storage_wrapper</text><rect fill="#FFFFFF" height="17.0938" style="stroke:#181818;stroke-width:1.0;stroke-dasharray:2.0,2.0;" width="40" x="151" y="738.6094"/><text fill="#000000" font-family="sans-serif" font-size="12" font-style="italic" lengthAdjust="spacing" textLength="38" x="152" y="752.0664">T, Size</text><line style="stroke:#181818;stroke-width:0.5;" x1="8" x2="187" y1="773.6094" y2="773.6094"/><ellipse cx="18" cy="787.9141" fill="none" rx="3" ry="3" style="stroke:#038048;stroke-width:1.0;"/><text fill="#000000" font-family="sans-serif" font-size="14" lengthAdjust="spacing" textLength="32" x="27" y="792.1426">store</text><ellipse cx="18" cy="805.5234" fill="none" rx="3" ry="3" style="stroke:#038048;stroke-width:1.0;"/><text fill="#000000" font-family="sans-serif" font-size="14" lengthAdjust="spacing" text-decoration="underline" textLength="42" x="27" y="809.752">offsets</text><line style="stroke:#181818;stroke-width:0.5;" x1="8" x2="187" y1="816.8281" y2="816.8281"/><ellipse cx="18" cy="831.1328" fill="#84BE84" rx="3" ry="3" style="stroke:#038048;stroke-width:1.0;"/><text fill="#000000" font-family="sans-serif" font-size="14" lengthAdjust="spacing" textLength="29" x="27" y="835.3613">set()</text><ellipse cx="18" cy="848.7422" fill="#84BE84" rx="3" ry="3" style="stroke:#038048;stroke-width:1.0;"/><text fill="#000000" font-family="sans-serif" font-size="14" lengthAdjust="spacing" textLength="72" x="27" y="852.9707">operator[]()</text><ellipse cx="18" cy="866.3516" fill="#84BE84" rx="3" ry="3" style="stroke:#038048;stroke-width:1.0;"/><text fill="#000000" font-family="sans-serif" font-size="14" lengthAdjust="spacing" textLength="72" x="27" y="870.5801">operator=()</text><ellipse cx="18" cy="883.9609" fill="#84BE84" rx="3" ry="3" style="stroke:#038048;stroke-width:1.0;"/><text fill="#000000" font-family="sans-serif" font-size="14" lengthAdjust="spacing" textLength="38" x="27" y="888.1895">data()</text><ellipse cx="18" cy="901.5703" fill="#84BE84" rx="3" ry="3" style="stroke:#038048;stroke-width:1.0;"/><text fill="#000000" font-family="sans-serif" font-size="14" lengthAdjust="spacing" textLength="72" x="27" y="905.7988">sequence()</text><ellipse cx="18" cy="919.1797" fill="#84BE84" rx="3" ry="3" style="stroke:#038048;stroke-width:1.0;"/><text fill="#000000" font-family="sans-serif" font-size="14" lengthAdjust="spacing" textLength="116" x="27" y="923.4082">iterator functions()</text><ellipse cx="18" cy="936.7891" fill="#84BE84" rx="3" ry="3" style="stroke:#038048;stroke-width:1.0;"/><text fill="#000000" font-family="sans-serif" font-size="14" lengthAdjust="spacing" textLength="49" x="27" y="941.0176">length()</text><ellipse cx="18" cy="954.3984" fill="#84BE84" rx="3" ry="3" style="stroke:#038048;stroke-width:1.0;"/><text fill="#000000" font-family="sans-serif" font-size="14" lengthAdjust="spacing" textLength="34" x="27" y="958.627">size()</text><ellipse cx="18" cy="972.0078" fill="#84BE84" rx="3" ry="3" style="stroke:#038048;stroke-width:1.0;"/><text fill="#000000" font-family="sans-serif" font-size="14" lengthAdjust="spacing" textLength="42" x="27" y="976.2363">swap()</text></g><!--class indexed_vector--><g id="elem_indexed_vector"><rect codeLine="63" fill="#F1F1F1" height="188.875" id="indexed_vector" rx="2.5" ry="2.5" style="stroke:#181818;stroke-width:0.5;" width="234" x="487.5" y="768.1094"/><ellipse cx="502.5" cy="784.1094" fill="#F1F1F1" rx="11" ry="11" style="stroke:#181818;stroke-width:1.0;"/><path d="M500.6094,788.6719 Q500.3906,788.9375 500.25,789.0156 Q500.1094,789.0938 499.9219,789.0938 Q499.5313,789.0938 499.2813,788.8281 Q499.0469,788.5625 499.0469,787.9688 L499.0469,786.8125 Q499.0469,786.2031 499.2813,785.9531 Q499.5313,785.6875 499.9219,785.6875 Q500.2188,785.6875 500.4219,785.8438 Q500.625,786 500.7344,786.375 Q500.8438,786.7344 500.9531,786.875 Q501.2031,787.125 501.8125,787.3906 Q502.4219,787.6563 503.1563,787.6563 Q504.2969,787.6563 505.0156,787.125 Q505.4844,786.7969 505.4844,786.3281 Q505.4844,786.0156 505.2656,785.7344 Q505.0469,785.4531 504.5313,785.2813 Q504.2031,785.1563 503.0469,784.9375 Q501.6563,784.6719 500.9375,784.3125 Q500.2188,783.9531 499.7969,783.2969 Q499.3906,782.625 499.3906,781.8438 Q499.3906,780.625 500.4063,779.7188 Q501.4375,778.7969 503.0781,778.7969 Q503.7344,778.7969 504.2813,778.9375 Q504.8438,779.0781 505.3125,779.375 Q505.6406,779.0625 505.9688,779.0625 Q506.3438,779.0625 506.5781,779.3281 Q506.8125,779.5781 506.8125,780.1875 L506.8125,781.4688 Q506.8125,782.0781 506.5781,782.3438 Q506.3438,782.5938 505.9688,782.5938 Q505.6563,782.5938 505.4219,782.4063 Q505.2344,782.2656 505.1406,781.8438 Q505.0625,781.4219 504.9219,781.2344 Q504.6719,780.9219 504.1875,780.7188 Q503.7188,780.5 503.0781,780.5 Q502.1563,780.5 501.625,780.9219 Q501.0938,781.3438 501.0938,781.8125 Q501.0938,782.125 501.3125,782.4219 Q501.5313,782.7188 501.9531,782.8906 Q502.2344,783 503.5313,783.2656 Q504.8438,783.5156 505.5469,783.8281 Q506.25,784.125 506.7188,784.7813 Q507.1875,785.4375 507.1875,786.3438 Q507.1875,787.6094 506.2969,788.3594 Q505.1094,789.3594 503.2813,789.3594 Q502.5781,789.3594 501.9063,789.1875 Q501.25,789.0156 500.6094,788.6719 Z " fill="#000000"/><text fill="#000000" font-family="sans-serif" font-size="14" lengthAdjust="spacing" textLength="96" x="516.5" y="789.8379">indexed_vector</text><rect fill="#FFFFFF" height="17.0938" style="stroke:#181818;stroke-width:1.0;stroke-dasharray:2.0,2.0;" width="104" x="620.5" y="765.1094"/><text fill="#000000" font-family="sans-serif" font-size="12" font-style="italic" lengthAdjust="spacing" textLength="102" x="621.5" y="778.5664">T, Size, Count, ...Is</text><line style="stroke:#181818;stroke-width:0.5;" x1="488.5" x2="720.5" y1="800.1094" y2="800.1094"/><ellipse cx="498.5" cy="814.4141" fill="none" rx="3" ry="3" style="stroke:#038048;stroke-width:1.0;"/><text fill="#000000" font-family="sans-serif" font-size="14" lengthAdjust="spacing" textLength="31" x="507.5" y="818.6426">base</text><ellipse cx="498.5" cy="832.0234" fill="none" rx="3" ry="3" style="stroke:#038048;stroke-width:1.0;"/><text fill="#000000" font-family="sans-serif" font-size="14" lengthAdjust="spacing" text-decoration="underline" textLength="42" x="507.5" y="836.252">offsets</text><line style="stroke:#181818;stroke-width:0.5;" x1="488.5" x2="720.5" y1="843.3281" y2="843.3281"/><ellipse cx="498.5" cy="857.6328" fill="#84BE84" rx="3" ry="3" style="stroke:#038048;stroke-width:1.0;"/><text fill="#000000" font-family="sans-serif" font-size="14" lengthAdjust="spacing" textLength="29" x="507.5" y="861.8613">set()</text><ellipse cx="498.5" cy="875.2422" fill="#84BE84" rx="3" ry="3" style="stroke:#038048;stroke-width:1.0;"/><text fill="#000000" font-family="sans-serif" font-size="14" lengthAdjust="spacing" textLength="72" x="507.5" y="879.4707">operator[]()</text><ellipse cx="498.5" cy="892.8516" fill="#84BE84" rx="3" ry="3" style="stroke:#038048;stroke-width:1.0;"/><text fill="#000000" font-family="sans-serif" font-size="14" lengthAdjust="spacing" textLength="72" x="507.5" y="897.0801">operator=()</text><ellipse cx="498.5" cy="910.4609" fill="#84BE84" rx="3" ry="3" style="stroke:#038048;stroke-width:1.0;"/><text fill="#000000" font-family="sans-serif" font-size="14" lengthAdjust="spacing" textLength="38" x="507.5" y="914.6895">data()</text><ellipse cx="498.5" cy="928.0703" fill="#84BE84" rx="3" ry="3" style="stroke:#038048;stroke-width:1.0;"/><text fill="#000000" font-family="sans-serif" font-size="14" lengthAdjust="spacing" textLength="72" x="507.5" y="932.2988">sequence()</text><ellipse cx="498.5" cy="945.6797" fill="#84BE84" rx="3" ry="3" style="stroke:#038048;stroke-width:1.0;"/><text fill="#000000" font-family="sans-serif" font-size="14" lengthAdjust="spacing" textLength="116" x="507.5" y="949.9082">iterator functions()</text></g><!--class basic_matrix--><g id="elem_basic_matrix"><rect codeLine="74" fill="#F1F1F1" height="241.7031" id="basic_matrix" rx="2.5" ry="2.5" style="stroke:#181818;stroke-width:0.5;" width="188" x="26.5" y="421.6094"/><ellipse cx="41.5" cy="437.6094" fill="#F1F1F1" rx="11" ry="11" style="stroke:#181818;stroke-width:1.0;"/><path d="M39.6094,442.1719 Q39.3906,442.4375 39.25,442.5156 Q39.1094,442.5938 38.9219,442.5938 Q38.5313,442.5938 38.2813,442.3281 Q38.0469,442.0625 38.0469,441.4688 L38.0469,440.3125 Q38.0469,439.7031 38.2813,439.4531 Q38.5313,439.1875 38.9219,439.1875 Q39.2188,439.1875 39.4219,439.3438 Q39.625,439.5 39.7344,439.875 Q39.8438,440.2344 39.9531,440.375 Q40.2031,440.625 40.8125,440.8906 Q41.4219,441.1563 42.1563,441.1563 Q43.2969,441.1563 44.0156,440.625 Q44.4844,440.2969 44.4844,439.8281 Q44.4844,439.5156 44.2656,439.2344 Q44.0469,438.9531 43.5313,438.7813 Q43.2031,438.6563 42.0469,438.4375 Q40.6563,438.1719 39.9375,437.8125 Q39.2188,437.4531 38.7969,436.7969 Q38.3906,436.125 38.3906,435.3438 Q38.3906,434.125 39.4063,433.2188 Q40.4375,432.2969 42.0781,432.2969 Q42.7344,432.2969 43.2813,432.4375 Q43.8438,432.5781 44.3125,432.875 Q44.6406,432.5625 44.9688,432.5625 Q45.3438,432.5625 45.5781,432.8281 Q45.8125,433.0781 45.8125,433.6875 L45.8125,434.9688 Q45.8125,435.5781 45.5781,435.8438 Q45.3438,436.0938 44.9688,436.0938 Q44.6563,436.0938 44.4219,435.9063 Q44.2344,435.7656 44.1406,435.3438 Q44.0625,434.9219 43.9219,434.7344 Q43.6719,434.4219 43.1875,434.2188 Q42.7188,434 42.0781,434 Q41.1563,434 40.625,434.4219 Q40.0938,434.8438 40.0938,435.3125 Q40.0938,435.625 40.3125,435.9219 Q40.5313,436.2188 40.9531,436.3906 Q41.2344,436.5 42.5313,436.7656 Q43.8438,437.0156 44.5469,437.3281 Q45.25,437.625 45.7188,438.2813 Q46.1875,438.9375 46.1875,439.8438 Q46.1875,441.1094 45.2969,441.8594 Q44.1094,442.8594 42.2813,442.8594 Q41.5781,442.8594 40.9063,442.6875 Q40.25,442.5156 39.6094,442.1719 Z " fill="#000000"/><text fill="#000000" font-family="sans-serif" font-size="14" lengthAdjust="spacing" textLength="78" x="55.5" y="443.3379">basic_matrix</text><rect fill="#FFFFFF" height="17.0938" style="stroke:#181818;stroke-width:1.0;stroke-dasharray:2.0,2.0;" width="76" x="141.5" y="418.6094"/><text fill="#000000" font-family="sans-serif" font-size="12" font-style="italic" lengthAdjust="spacing" textLength="74" x="142.5" y="432.0664">T, Cols, Rows</text><line style="stroke:#181818;stroke-width:0.5;" x1="27.5" x2="213.5" y1="453.6094" y2="453.6094"/><ellipse cx="37.5" cy="467.9141" fill="none" rx="3" ry="3" style="stroke:#038048;stroke-width:1.0;"/><text fill="#000000" font-family="sans-serif" font-size="14" lengthAdjust="spacing" textLength="52" x="46.5" y="472.1426">columns</text><line style="stroke:#181818;stroke-width:0.5;" x1="27.5" x2="213.5" y1="479.2188" y2="479.2188"/><ellipse cx="37.5" cy="493.5234" fill="#84BE84" rx="3" ry="3" style="stroke:#038048;stroke-width:1.0;"/><text fill="#000000" font-family="sans-serif" font-size="14" lengthAdjust="spacing" textLength="32" x="46.5" y="497.752">row()</text><ellipse cx="37.5" cy="511.1328" fill="#84BE84" rx="3" ry="3" style="stroke:#038048;stroke-width:1.0;"/><text fill="#000000" font-family="sans-serif" font-size="14" lengthAdjust="spacing" textLength="72" x="46.5" y="515.3613">operator[]()</text><ellipse cx="37.5" cy="528.7422" fill="#84BE84" rx="3" ry="3" style="stroke:#038048;stroke-width:1.0;"/><text fill="#000000" font-family="sans-serif" font-size="14" lengthAdjust="spacing" textLength="72" x="46.5" y="532.9707">operator=()</text><ellipse cx="37.5" cy="546.3516" fill="#84BE84" rx="3" ry="3" style="stroke:#038048;stroke-width:1.0;"/><text fill="#000000" font-family="sans-serif" font-size="14" lengthAdjust="spacing" textLength="38" x="46.5" y="550.5801">data()</text><ellipse cx="37.5" cy="563.9609" fill="#84BE84" rx="3" ry="3" style="stroke:#038048;stroke-width:1.0;"/><text fill="#000000" font-family="sans-serif" font-size="14" lengthAdjust="spacing" textLength="116" x="46.5" y="568.1895">iterator functions()</text><ellipse cx="37.5" cy="581.5703" fill="#84BE84" rx="3" ry="3" style="stroke:#038048;stroke-width:1.0;"/><text fill="#000000" font-family="sans-serif" font-size="14" lengthAdjust="spacing" textLength="49" x="46.5" y="585.7988">length()</text><ellipse cx="37.5" cy="599.1797" fill="#84BE84" rx="3" ry="3" style="stroke:#038048;stroke-width:1.0;"/><text fill="#000000" font-family="sans-serif" font-size="14" lengthAdjust="spacing" textLength="102" x="46.5" y="603.4082">column_length()</text><ellipse cx="37.5" cy="616.7891" fill="#84BE84" rx="3" ry="3" style="stroke:#038048;stroke-width:1.0;"/><text fill="#000000" font-family="sans-serif" font-size="14" lengthAdjust="spacing" textLength="34" x="46.5" y="621.0176">size()</text><ellipse cx="37.5" cy="634.3984" fill="#84BE84" rx="3" ry="3" style="stroke:#038048;stroke-width:1.0;"/><text fill="#000000" font-family="sans-serif" font-size="14" lengthAdjust="spacing" textLength="87" x="46.5" y="638.627">column_size()</text><ellipse cx="37.5" cy="652.0078" fill="#84BE84" rx="3" ry="3" style="stroke:#038048;stroke-width:1.0;"/><text fill="#000000" font-family="sans-serif" font-size="14" lengthAdjust="spacing" textLength="42" x="46.5" y="656.2363">swap()</text></g><!--reverse link vector_base to basic_vector--><g id="link_vector_base_basic_vector"><path codeLine="88" d="M501.37,345.5394 C477.48,370.7194 453.14,396.7694 430.5,421.6094 C421.68,431.2894 412.55,441.5094 403.54,451.7294 " fill="none" id="vector_base-backto-basic_vector" style="stroke:#181818;stroke-width:1.0;"/><polygon fill="none" points="496.51,340.4894,515.36,330.8194,506.65,350.1394,496.51,340.4894" style="stroke:#181818;stroke-width:1.0;"/><text fill="#000000" font-family="sans-serif" font-size="13" lengthAdjust="spacing" textLength="80" x="471.5" y="388.1045">CRTP inherits</text></g><!--reverse link vector_base to indexed_vector--><g id="link_vector_base_indexed_vector"><path codeLine="89" d="M635.21,363.8794 C627.32,491.6994 616.73,663.3894 610.27,768.0894 " fill="none" id="vector_base-backto-indexed_vector" style="stroke:#181818;stroke-width:1.0;"/><polygon fill="none" points="628.23,363.2894,636.45,343.7594,642.21,364.1494,628.23,363.2894" style="stroke:#181818;stroke-width:1.0;"/><text fill="#000000" font-family="sans-serif" font-size="13" lengthAdjust="spacing" textLength="80" x="631.5" y="548.1045">CRTP inherits</text></g><!--reverse link CRTP_duck_type to basic_vector--><g id="link_CRTP_duck_type_basic_vector"><path codeLine="90" d="M326.5,284.4994 C326.5,331.7194 326.5,390.2794 326.5,439.5794 " fill="none" id="CRTP_duck_type-backto-basic_vector" style="stroke:#181818;stroke-width:1.0;stroke-dasharray:7.0,7.0;"/><polygon fill="none" points="319.5,284.3494,326.5,264.3494,333.5,284.3494,319.5,284.3494" style="stroke:#181818;stroke-width:1.0;"/><text fill="#000000" font-family="sans-serif" font-size="13" lengthAdjust="spacing" textLength="99" x="327.5" y="388.1045">duck implements</text></g><!--reverse link CRTP_duck_type to indexed_vector--><g id="link_CRTP_duck_type_indexed_vector"><path codeLine="91" d="M385.97,281.4694 C403.87,309.7594 422.26,342.1294 435.5,373.6094 C487.01,496.0194 462.03,538.8294 507.5,663.6094 C520.21,698.4994 537.22,735.3694 553.44,767.7194 " fill="none" id="CRTP_duck_type-backto-indexed_vector" style="stroke:#181818;stroke-width:1.0;stroke-dasharray:7.0,7.0;"/><polygon fill="none" points="379.93,285.0294,374.93,264.4294,391.68,277.4194,379.93,285.0294" style="stroke:#181818;stroke-width:1.0;"/><text fill="#000000" font-family="sans-serif" font-size="13" lengthAdjust="spacing" textLength="99" x="508.5" y="548.1045">duck implements</text></g><!--link storage_wrapper to anonymous_union--><g id="link_storage_wrapper_anonymous_union"><path codeLine="92" d="M188.01,862.6094 C204.88,862.6094 222.47,862.6094 239.24,862.6094 " fill="none" id="storage_wrapper-to-anonymous_union" style="stroke:#181818;stroke-width:1.0;"/><polygon fill="#181818" points="252.48,862.6094,246.48,858.6094,240.48,862.6094,246.48,866.6094,252.48,862.6094" style="stroke:#181818;stroke-width:1.0;"/><text fill="#000000" font-family="sans-serif" font-size="13" lengthAdjust="spacing" textLength="28" x="206.25" y="856.1045">base</text><text fill="#000000" font-family="sans-serif" font-size="13" lengthAdjust="spacing" textLength="7" x="196.089" y="859.4449">1</text><text fill="#000000" font-family="sans-serif" font-size="13" lengthAdjust="spacing" textLength="7" x="237.4858" y="859.2863">1</text></g><!--reverse link anonymous_union to indexed_vector--><g id="link_anonymous_union_indexed_vector"><path codeLine="93" d="M413.72,862.6094 C437.06,862.6094 462.67,862.6094 487.34,862.6094 " fill="none" id="anonymous_union-backto-indexed_vector" style="stroke:#181818;stroke-width:1.0;"/><polygon fill="#181818" points="400.63,862.6094,406.63,866.6094,412.63,862.6094,406.63,858.6094,400.63,862.6094" style="stroke:#181818;stroke-width:1.0;"/><text fill="#000000" font-family="sans-serif" font-size="13" lengthAdjust="spacing" textLength="50" x="419" y="856.1045">swizzles</text><text fill="#000000" font-family="sans-serif" font-size="13" lengthAdjust="spacing" textLength="7" x="408.6356" y="859.2863">1</text><text fill="#000000" font-family="sans-serif" font-size="13" lengthAdjust="spacing" textLength="32" x="447.6417" y="876.5808">many</text></g><!--reverse link basic_vector to anonymous_union--><g id="link_basic_vector_anonymous_union"><path codeLine="94" d="M326.5,659.0194 C326.5,715.5394 326.5,780.0094 326.5,820.7494 " fill="none" id="basic_vector-backto-anonymous_union" style="stroke:#181818;stroke-width:1.0;"/><polygon fill="#181818" points="326.5,645.9794,322.5,651.9794,326.5,657.9794,330.5,651.9794,326.5,645.9794" style="stroke:#181818;stroke-width:1.0;"/><text fill="#000000" font-family="sans-serif" font-size="13" lengthAdjust="spacing" textLength="74" x="327.5" y="708.1045">nested union</text><text fill="#000000" font-family="sans-serif" font-size="13" lengthAdjust="spacing" textLength="7" x="319.243" y="667.6483">1</text><text fill="#000000" font-family="sans-serif" font-size="13" lengthAdjust="spacing" textLength="7" x="318.9422" y="810.3086">1</text></g><!--reverse link CRTP_duck_type to vector_base--><g id="link_CRTP_duck_type_vector_base"><path codeLine="95" d="M404.2,196.1094 C437.64,196.1094 477.67,196.1094 515.42,196.1094 " fill="none" id="CRTP_duck_type-backto-vector_base" style="stroke:#181818;stroke-width:1.0;stroke-dasharray:7.0,7.0;"/><polygon fill="#181818" points="398.89,196.1094,407.89,200.1094,403.89,196.1094,407.89,192.1094,398.89,196.1094" style="stroke:#181818;stroke-width:1.0;"/><text fill="#000000" font-family="sans-serif" font-size="13" lengthAdjust="spacing" textLength="80" x="417" y="189.6045">Derived CRTP</text></g><!--reverse link basic_matrix to basic_vector--><g id="link_basic_matrix_basic_vector"><path codeLine="96" d="M227.86,542.6094 C234.96,542.6094 242.06,542.6094 249.17,542.6094 " fill="none" id="basic_matrix-backto-basic_vector" style="stroke:#181818;stroke-width:1.0;"/><polygon fill="#181818" points="214.65,542.6094,220.65,546.6094,226.65,542.6094,220.65,538.6094,214.65,542.6094" style="stroke:#181818;stroke-width:1.0;"/><text fill="#000000" font-family="sans-serif" font-size="13" lengthAdjust="spacing" textLength="7" x="222.4315" y="539.4928">1</text><text fill="#000000" font-family="sans-serif" font-size="13" lengthAdjust="spacing" textLength="32" x="222.2308" y="557.8561">many</text></g><!--SRC=[xLLBRzD043vxVyMe5rgQM4qB2Ao040r2b4P4ILeE2AoDFKbMsBjc7qdJql_E-DKqZqgebnw8vCDwTxwTxvl7ZlVC_18Ij3B8F2jiWj37X5kXf9cAp40JJXDk37G4dsYUCaz8YthC8uJJ_h0NnYxw5Tf5Xko6UOS6xVu1yxn3K1bgRfN-_gFQYBdbrTBWRuSomkfNsD8Knav6XMSwk6LIMOG4nnRKUDsNTwe8drd74xWZr022W4RQ2t8BbyGmGaXvZBcH0WuLZ7aeuzoQRk8ZOpMFBCmm8XBXY1k4zZSjB1ybTEUmGIWdRGCwgCKCutU5qfmGBEKMlnkQYzrxmYlGYlfYRsi8yjC4vSHEwxY9wnh5JHYNTEgDB4iMjTrKZ6jYqVsVLCXwnQzgOvSMuQOeE8e2oHTHMCQYJTe7vBDKd0Scv38EpLnSNoTe2lYDiLGjqIqbQKpXC5M27oo3UkFjuygYi9lphA2CaYfs0LmgkKYLCw6JP4Pa2wuijwoOtZAlqcVeHZx1SAufOhWcCJ_4fvBrKAhlv5OAX8pn2kEr7DrLgU_xdyqoOq-XPgsOKcwrk6eNZPIO1lJLl28OgSIbigIZrVmHTFujcgMVyA48LyVROhxoAFnfncekcoiz4bGDBAVKZdbajo9MSmOReDNd3Nxw_eeJ0kI78D8imPJAVZjamyi6QArLOA-r1y-R-IFRBDPhtK5Nb3Mq7QV5P9e3KouNUvlUb-_4YfOIM_fRlpS0YSPY36Kdhuji-uLBV-Mj3kg7kGXgxQmikgr4xxDXtdiQ1IvDs6xyxSRVRlpjnjzk_Et6t_yu_de9b_QYUqwNQvEJQVd7HySd_id-SEgWopKSlQ4lE3aAMg-XDnX2Vdp0zZ_rpi4efsaane8gNunSNea7x8pFEFIfAqMA0NpDK9vrljGRy57EX5Oopmmxk-mk3LwzQ7uG5WQeYGbSTba7nzmbbX2HYeMSKFbahUENn-oSoucZV0M0aXNzhnS1N0p-0W00]--></g></svg>