<?xml version="1.0" encoding="us-ascii" standalone="no"?><svg xmlns="http://www.w3.org/2000/svg" xmlns:xlink="http://www.w3.org/1999/xlink" contentStyleType="text/css" height="1130px" preserveAspectRatio="none" style="width:957px;height:1130px;background:#FFFFFF;" version="1.1" viewBox="0 0 957 1130" width="957px" zoomAndPan="magnify"><defs/><g><text fill="#000000" font-family="sans-serif" font-size="14" font-weight="bold" lengthAdjust="spacing" textLength="243" x="350" y="22.9951">Relationships - Class Diagram</text><!--class CRTP duck type--><g id="elem_CRTP duck type"><rect codeLine="3" fill="#F1F1F1" height="129.4844" id="CRTP duck type" rx="2.5" ry="2.5" style="stroke:#181818;stroke-width:0.5;" width="158" x="285" y="120.7969"/><ellipse cx="305.4" cy="136.7969" fill="#E3664A" rx="11" ry="11" style="stroke:#181818;stroke-width:1.0;"/><path d="M306.3219,134.0469 C304.4156,134.1875 303.1031,135.375 303.1031,136.9531 C303.1031,138.3594 304.3063,139.5781 305.7594,139.5781 C305.9156,139.5781 306.0563,139.5625 306.3219,139.5156 L306.3219,139.5781 L307.1188,139.5781 C307.7438,139.5781 308.0563,139.3594 308.0563,138.875 C308.0563,138.5938 307.9313,138.4063 307.6656,138.2813 L307.6656,133.5 C307.6656,131.6094 306.3531,130.25 304.5094,130.25 C302.3063,130.25 300.6969,132.375 300.6969,135.3125 L300.6969,138.1719 C300.6969,139.4219 300.9781,140.6406 301.4938,141.5625 C302.2125,142.8125 303.1344,143.375 304.5406,143.375 C306.15,143.375 307.5406,142.7188 307.5406,141.9219 C307.5406,141.5313 307.2438,141.2188 306.8688,141.2188 C306.6656,141.2188 306.5719,141.2656 306.3375,141.5156 C306.0094,141.8438 305.3375,142.0625 304.5875,142.0625 C303.8375,142.0625 303.3063,141.7969 302.9,141.2031 C302.3219,140.4063 302.0406,139.3594 302.0406,138.0625 L302.0406,135.4063 C302.0406,133.2344 303.1031,131.5938 304.5406,131.5938 C305.5875,131.5938 306.3219,132.375 306.3219,133.5 L306.3219,134.0469 Z M306.3219,138.1563 C306.0875,138.2031 305.9938,138.2031 305.8844,138.2031 C305.0563,138.2031 304.4469,137.6719 304.4469,136.9688 C304.4469,136.1406 305.1969,135.5313 306.3219,135.4219 L306.3219,138.1563 Z " fill="#000000"/><text fill="#000000" font-family="sans-serif" font-size="14" lengthAdjust="spacing" textLength="114" x="320.6" y="141.6436">CRTP duck type</text><line style="stroke:#181818;stroke-width:0.5;" x1="286" x2="442" y1="152.7969" y2="152.7969"/><line style="stroke:#181818;stroke-width:0.5;" x1="286" x2="442" y1="160.7969" y2="160.7969"/><ellipse cx="296" cy="174.4453" fill="#84BE84" rx="3" ry="3" style="stroke:#038048;stroke-width:1.0;"/><text fill="#000000" font-family="sans-serif" font-size="14" font-style="italic" lengthAdjust="spacing" textLength="31" x="305" y="177.792">set()</text><ellipse cx="296" cy="190.7422" fill="#84BE84" rx="3" ry="3" style="stroke:#038048;stroke-width:1.0;"/><text fill="#000000" font-family="sans-serif" font-size="14" font-style="italic" lengthAdjust="spacing" textLength="82" x="305" y="194.0889">operator[]()</text><ellipse cx="296" cy="207.0391" fill="#84BE84" rx="3" ry="3" style="stroke:#038048;stroke-width:1.0;"/><text fill="#000000" font-family="sans-serif" font-size="14" font-style="italic" lengthAdjust="spacing" textLength="42" x="305" y="210.3857">data()</text><ellipse cx="296" cy="223.3359" fill="#84BE84" rx="3" ry="3" style="stroke:#038048;stroke-width:1.0;"/><text fill="#000000" font-family="sans-serif" font-size="14" font-style="italic" lengthAdjust="spacing" textLength="79" x="305" y="226.6826">sequence()</text><ellipse cx="296" cy="239.6328" fill="#84BE84" rx="3" ry="3" style="stroke:#038048;stroke-width:1.0;"/><text fill="#000000" font-family="sans-serif" font-size="14" font-style="italic" lengthAdjust="spacing" textLength="132" x="305" y="242.9795">iterator functions()</text></g><g id="elem_GMN3"><path d="M6,165.2969 L6,205.5625 A0,0 0 0 0 6,205.5625 L250,205.5625 A0,0 0 0 0 250,205.5625 L250,189.2969 L284.838,185.2969 L250,181.2969 L250,175.2969 L240,165.2969 L6,165.2969 A0,0 0 0 0 6,165.2969 " fill="#FEFFDD" style="stroke:#181818;stroke-width:0.5;"/><path d="M240,165.2969 L240,175.2969 L250,175.2969 L240,165.2969 " fill="#FEFFDD" style="stroke:#181818;stroke-width:0.5;"/><text fill="#000000" font-family="sans-serif" font-size="13" lengthAdjust="spacing" textLength="199" x="12" y="182.3638">Conceptual interface, not real :</text><text fill="#000000" font-family="sans-serif" font-size="13" lengthAdjust="spacing" textLength="223" x="12" y="197.4966">Could be made into a c++ concept</text></g><!--class vector_base--><g id="elem_vector_base"><rect codeLine="15" fill="#F1F1F1" height="276.1563" id="vector_base" rx="2.5" ry="2.5" style="stroke:#181818;stroke-width:0.5;" width="285" x="567.5" y="47.2969"/><ellipse cx="582.5" cy="63.2969" fill="#A9DCDF" rx="11" ry="11" style="stroke:#181818;stroke-width:1.0;"/><path d="M584.5781,65.1094 L584.9688,66.0938 L584.5781,66.0938 C584.125,66.0938 584.0156,66.1094 583.8594,66.2188 C583.6094,66.375 583.4531,66.6563 583.4531,66.9531 C583.4531,67.2188 583.5938,67.4688 583.8125,67.625 C583.9531,67.75 584.1563,67.7969 584.5781,67.7969 L586.9375,67.7969 C587.2969,67.7969 587.5156,67.7656 587.6563,67.6719 C587.9063,67.5313 588.0625,67.2344 588.0625,66.9531 C588.0625,66.6719 587.9219,66.4219 587.7031,66.2656 C587.5313,66.125 587.375,66.0938 586.9063,66.0938 L583.5156,57.8906 L579.8438,57.8906 C579.3906,57.8906 579.2656,57.9063 579.1094,58 C578.8594,58.1719 578.7031,58.4531 578.7031,58.7344 C578.7031,59.0156 578.8438,59.2656 579.0625,59.4375 C579.2344,59.5469 579.4063,59.5781 579.8438,59.5781 L580.9219,59.5781 L578.2813,66.0938 C577.8594,66.0938 577.7031,66.1094 577.5469,66.2188 C577.2969,66.375 577.1406,66.6563 577.1406,66.9531 C577.1406,67.5156 577.5156,67.7969 578.2656,67.7969 L580.5313,67.7969 C580.8906,67.7969 581.1094,67.7656 581.2344,67.6719 C581.5,67.5313 581.6406,67.2344 581.6406,66.9531 C581.6406,66.6719 581.5156,66.4219 581.2969,66.25 C581.125,66.125 580.9844,66.0938 580.5313,66.0938 L580.1406,66.0938 L580.5313,65.1094 L584.5781,65.1094 Z M583.875,63.4063 L581.2031,63.4063 L582.5469,60.1406 L583.875,63.4063 Z " fill="#000000"/><text fill="#000000" font-family="sans-serif" font-size="14" font-style="italic" lengthAdjust="spacing" textLength="86" x="596.5" y="68.1436">vector_base</text><rect fill="#FFFFFF" height="15.9688" style="stroke:#181818;stroke-width:1.0;stroke-dasharray:2.0,2.0;" width="165" x="690.5" y="44.2969"/><text fill="#000000" font-family="sans-serif" font-size="12" font-style="italic" lengthAdjust="spacing" textLength="163" x="691.5" y="56.4355">Writable, T, Count, Derived</text><line style="stroke:#181818;stroke-width:0.5;" x1="568.5" x2="851.5" y1="79.2969" y2="79.2969"/><line style="stroke:#181818;stroke-width:0.5;" x1="568.5" x2="851.5" y1="87.2969" y2="87.2969"/><ellipse cx="578.5" cy="100.9453" fill="#84BE84" rx="3" ry="3" style="stroke:#038048;stroke-width:1.0;"/><text fill="#000000" font-family="sans-serif" font-size="14" lengthAdjust="spacing" textLength="75" x="587.5" y="104.292">CRTP set()</text><ellipse cx="578.5" cy="117.2422" fill="#84BE84" rx="3" ry="3" style="stroke:#038048;stroke-width:1.0;"/><text fill="#000000" font-family="sans-serif" font-size="14" lengthAdjust="spacing" textLength="126" x="587.5" y="120.5889">CRTP operator[]()</text><ellipse cx="578.5" cy="133.5391" fill="#84BE84" rx="3" ry="3" style="stroke:#038048;stroke-width:1.0;"/><text fill="#000000" font-family="sans-serif" font-size="14" lengthAdjust="spacing" textLength="84" x="587.5" y="136.8857">CRTP data()</text><ellipse cx="578.5" cy="149.8359" fill="#84BE84" rx="3" ry="3" style="stroke:#038048;stroke-width:1.0;"/><text fill="#000000" font-family="sans-serif" font-size="14" lengthAdjust="spacing" textLength="120" x="587.5" y="153.1826">CRTP sequence()</text><ellipse cx="578.5" cy="166.1328" fill="#84BE84" rx="3" ry="3" style="stroke:#038048;stroke-width:1.0;"/><text fill="#000000" font-family="sans-serif" font-size="14" lengthAdjust="spacing" textLength="179" x="587.5" y="169.4795">CRTP iterator functions()</text><ellipse cx="578.5" cy="182.4297" fill="#84BE84" rx="3" ry="3" style="stroke:#038048;stroke-width:1.0;"/><text fill="#000000" font-family="sans-serif" font-size="14" lengthAdjust="spacing" textLength="57" x="587.5" y="185.7764">length()</text><ellipse cx="578.5" cy="198.7266" fill="#84BE84" rx="3" ry="3" style="stroke:#038048;stroke-width:1.0;"/><text fill="#000000" font-family="sans-serif" font-size="14" lengthAdjust="spacing" textLength="38" x="587.5" y="202.0732">size()</text><ellipse cx="578.5" cy="215.0234" fill="#84BE84" rx="3" ry="3" style="stroke:#038048;stroke-width:1.0;"/><text fill="#000000" font-family="sans-serif" font-size="14" lengthAdjust="spacing" textLength="86" x="587.5" y="218.3701">as_derived()</text><ellipse cx="578.5" cy="231.3203" fill="#84BE84" rx="3" ry="3" style="stroke:#038048;stroke-width:1.0;"/><text fill="#000000" font-family="sans-serif" font-size="14" lengthAdjust="spacing" textLength="50" x="587.5" y="234.667">apply()</text><ellipse cx="578.5" cy="247.6172" fill="#84BE84" rx="3" ry="3" style="stroke:#038048;stroke-width:1.0;"/><text fill="#000000" font-family="sans-serif" font-size="14" lengthAdjust="spacing" textLength="43" x="587.5" y="250.9639">shift()</text><ellipse cx="578.5" cy="263.9141" fill="#84BE84" rx="3" ry="3" style="stroke:#038048;stroke-width:1.0;"/><text fill="#000000" font-family="sans-serif" font-size="14" lengthAdjust="spacing" textLength="51" x="587.5" y="267.2607">cshift()</text><ellipse cx="578.5" cy="280.2109" fill="#84BE84" rx="3" ry="3" style="stroke:#038048;stroke-width:1.0;"/><text fill="#000000" font-family="sans-serif" font-size="14" lengthAdjust="spacing" textLength="37" x="587.5" y="283.5576">min()</text><ellipse cx="578.5" cy="296.5078" fill="#84BE84" rx="3" ry="3" style="stroke:#038048;stroke-width:1.0;"/><text fill="#000000" font-family="sans-serif" font-size="14" lengthAdjust="spacing" textLength="40" x="587.5" y="299.8545">max()</text><ellipse cx="578.5" cy="312.8047" fill="#84BE84" rx="3" ry="3" style="stroke:#038048;stroke-width:1.0;"/><text fill="#000000" font-family="sans-serif" font-size="14" lengthAdjust="spacing" textLength="39" x="587.5" y="316.1514">sum()</text></g><!--class basic_vector--><g id="elem_basic_vector"><rect codeLine="32" fill="#F1F1F1" height="194.6719" id="basic_vector" rx="2.5" ry="2.5" style="stroke:#181818;stroke-width:0.5;" width="294" x="561" y="404.2969"/><ellipse cx="636.75" cy="420.2969" fill="#F1F1F1" rx="11" ry="11" style="stroke:#181818;stroke-width:1.0;"/><path d="M640.5313,416.2656 C640.5313,415.8281 640.5156,415.6875 640.4219,415.5313 C640.2813,415.2969 640,415.1406 639.7031,415.1406 C639.3594,415.1406 639.2188,415.2813 639.0469,415.7031 C638.4531,415.3281 637.7031,415.1406 636.8281,415.1406 C634.7188,415.1406 633.1406,416.4375 633.1406,418.1563 C633.1406,419.125 633.6719,420.0313 634.5313,420.5156 C635.0781,420.8281 635.625,421 636.7344,421.1875 C637.8906,421.3906 638.1563,421.4531 638.5156,421.6406 C638.8906,421.8438 639.125,422.1875 639.125,422.5469 C639.125,423.2813 638.1406,423.8281 636.8906,423.8281 C635.7656,423.8281 634.6875,423.3438 634.5156,422.7344 C634.3906,422.2656 634.3906,422.2656 634.2656,422.1563 C634.1094,422 633.8906,421.9063 633.6563,421.9063 C633.375,421.9063 633.125,422.0313 632.9531,422.25 C632.8438,422.4219 632.7969,422.6094 632.7969,423.0313 L632.7969,424.1563 C632.7969,424.9219 633.0781,425.2813 633.6719,425.2813 C633.9375,425.2813 634.0625,425.2188 634.3438,424.875 C635.1875,425.3125 636.0781,425.5313 637,425.5313 C639.3281,425.5313 640.8906,424.3438 640.8906,422.5781 C640.8906,421.6875 640.5781,421 639.8906,420.4531 C639.3594,420.0313 638.7188,419.7813 637.2344,419.5156 C635.9688,419.2813 635.875,419.25 635.5469,419.0781 C635.1719,418.8906 634.9063,418.5 634.9063,418.1406 C634.9063,417.4063 635.7656,416.8438 636.8281,416.8438 C637.8906,416.8438 638.7031,417.3125 638.8594,417.9844 C638.9688,418.5313 638.9688,418.5313 639.0938,418.6719 C639.2344,418.7969 639.4688,418.9063 639.7031,418.9063 C639.9688,418.9063 640.2188,418.7656 640.3906,418.5469 C640.5,418.375 640.5313,418.2344 640.5313,417.7656 L640.5313,416.2656 Z " fill="#000000"/><text fill="#000000" font-family="sans-serif" font-size="14" lengthAdjust="spacing" textLength="91" x="657.25" y="425.1436">basic_vector</text><rect fill="#FFFFFF" height="15.9688" style="stroke:#181818;stroke-width:1.0;stroke-dasharray:2.0,2.0;" width="41" x="817" y="401.2969"/><text fill="#000000" font-family="sans-serif" font-size="12" font-style="italic" lengthAdjust="spacing" textLength="39" x="818" y="413.4355">T, Size</text><line style="stroke:#181818;stroke-width:0.5;" x1="562" x2="854" y1="436.2969" y2="436.2969"/><ellipse cx="572" cy="449.9453" fill="none" rx="3" ry="3" style="stroke:#038048;stroke-width:1.0;"/><text fill="#000000" font-family="sans-serif" font-size="14" lengthAdjust="spacing" textLength="39" x="581" y="453.292">union</text><ellipse cx="572" cy="466.2422" fill="none" rx="3" ry="3" style="stroke:#038048;stroke-width:1.0;"/><text fill="#000000" font-family="sans-serif" font-size="14" lengthAdjust="spacing" text-decoration="underline" textLength="268" x="581" y="469.5889">offsets : std::array&lt;std::size_t, Size&gt;</text><line style="stroke:#181818;stroke-width:0.5;" x1="562" x2="854" y1="476.8906" y2="476.8906"/><ellipse cx="572" cy="490.5391" fill="#84BE84" rx="3" ry="3" style="stroke:#038048;stroke-width:1.0;"/><text fill="#000000" font-family="sans-serif" font-size="14" lengthAdjust="spacing" textLength="33" x="581" y="493.8857">set()</text><ellipse cx="572" cy="506.8359" fill="#84BE84" rx="3" ry="3" style="stroke:#038048;stroke-width:1.0;"/><text fill="#000000" font-family="sans-serif" font-size="14" lengthAdjust="spacing" textLength="84" x="581" y="510.1826">operator[]()</text><ellipse cx="572" cy="523.1328" fill="#84BE84" rx="3" ry="3" style="stroke:#038048;stroke-width:1.0;"/><text fill="#000000" font-family="sans-serif" font-size="14" lengthAdjust="spacing" textLength="85" x="581" y="526.4795">operator=()</text><ellipse cx="572" cy="539.4297" fill="#84BE84" rx="3" ry="3" style="stroke:#038048;stroke-width:1.0;"/><text fill="#000000" font-family="sans-serif" font-size="14" lengthAdjust="spacing" textLength="42" x="581" y="542.7764">data()</text><ellipse cx="572" cy="555.7266" fill="#84BE84" rx="3" ry="3" style="stroke:#038048;stroke-width:1.0;"/><text fill="#000000" font-family="sans-serif" font-size="14" lengthAdjust="spacing" textLength="78" x="581" y="559.0732">sequence()</text><ellipse cx="572" cy="572.0234" fill="#84BE84" rx="3" ry="3" style="stroke:#038048;stroke-width:1.0;"/><text fill="#000000" font-family="sans-serif" font-size="14" lengthAdjust="spacing" textLength="137" x="581" y="575.3701">iterator functions()</text><ellipse cx="572" cy="588.3203" fill="#84BE84" rx="3" ry="3" style="stroke:#038048;stroke-width:1.0;"/><text fill="#000000" font-family="sans-serif" font-size="14" lengthAdjust="spacing" textLength="46" x="581" y="591.667">swap()</text></g><!--class basic_vector::anonymous_union--><g id="elem_basic_vector::anonymous_union"><rect codeLine="44" fill="#F1F1F1" height="80.5938" id="basic_vector::anonymous_union" rx="2.5" ry="2.5" style="stroke:#181818;stroke-width:0.5;" width="260" x="234" y="731.2969"/><ellipse cx="249" cy="747.2969" fill="#E3664A" rx="11" ry="11" style="stroke:#181818;stroke-width:1.0;"/><path d="M249.9219,744.5469 C248.0156,744.6875 246.7031,745.875 246.7031,747.4531 C246.7031,748.8594 247.9063,750.0781 249.3594,750.0781 C249.5156,750.0781 249.6563,750.0625 249.9219,750.0156 L249.9219,750.0781 L250.7188,750.0781 C251.3438,750.0781 251.6563,749.8594 251.6563,749.375 C251.6563,749.0938 251.5313,748.9063 251.2656,748.7813 L251.2656,744 C251.2656,742.1094 249.9531,740.75 248.1094,740.75 C245.9063,740.75 244.2969,742.875 244.2969,745.8125 L244.2969,748.6719 C244.2969,749.9219 244.5781,751.1406 245.0938,752.0625 C245.8125,753.3125 246.7344,753.875 248.1406,753.875 C249.75,753.875 251.1406,753.2188 251.1406,752.4219 C251.1406,752.0313 250.8438,751.7188 250.4688,751.7188 C250.2656,751.7188 250.1719,751.7656 249.9375,752.0156 C249.6094,752.3438 248.9375,752.5625 248.1875,752.5625 C247.4375,752.5625 246.9063,752.2969 246.5,751.7031 C245.9219,750.9063 245.6406,749.8594 245.6406,748.5625 L245.6406,745.9063 C245.6406,743.7344 246.7031,742.0938 248.1406,742.0938 C249.1875,742.0938 249.9219,742.875 249.9219,744 L249.9219,744.5469 Z M249.9219,748.6563 C249.6875,748.7031 249.5938,748.7031 249.4844,748.7031 C248.6563,748.7031 248.0469,748.1719 248.0469,747.4688 C248.0469,746.6406 248.7969,746.0313 249.9219,745.9219 L249.9219,748.6563 Z " fill="#000000"/><text fill="#000000" font-family="sans-serif" font-size="14" lengthAdjust="spacing" textLength="228" x="263" y="752.1436">basic_vector::anonymous_union</text><line style="stroke:#181818;stroke-width:0.5;" x1="235" x2="493" y1="763.2969" y2="763.2969"/><ellipse cx="245" cy="776.9453" fill="none" rx="3" ry="3" style="stroke:#038048;stroke-width:1.0;"/><text fill="#000000" font-family="sans-serif" font-size="14" lengthAdjust="spacing" textLength="34" x="254" y="780.292">base</text><ellipse cx="245" cy="793.2422" fill="none" rx="3" ry="3" style="stroke:#038048;stroke-width:1.0;"/><text fill="#000000" font-family="sans-serif" font-size="14" lengthAdjust="spacing" textLength="58" x="254" y="796.5889">swizzles</text><line style="stroke:#181818;stroke-width:0.5;" x1="235" x2="493" y1="803.8906" y2="803.8906"/></g><!--class storage_wrapper--><g id="elem_storage_wrapper"><rect codeLine="49" fill="#F1F1F1" height="227.2656" id="storage_wrapper" rx="2.5" ry="2.5" style="stroke:#181818;stroke-width:0.5;" width="294" x="215" y="896.2969"/><ellipse cx="275.25" cy="912.2969" fill="#F1F1F1" rx="11" ry="11" style="stroke:#181818;stroke-width:1.0;"/><path d="M279.0313,908.2656 C279.0313,907.8281 279.0156,907.6875 278.9219,907.5313 C278.7813,907.2969 278.5,907.1406 278.2031,907.1406 C277.8594,907.1406 277.7188,907.2813 277.5469,907.7031 C276.9531,907.3281 276.2031,907.1406 275.3281,907.1406 C273.2188,907.1406 271.6406,908.4375 271.6406,910.1563 C271.6406,911.125 272.1719,912.0313 273.0313,912.5156 C273.5781,912.8281 274.125,913 275.2344,913.1875 C276.3906,913.3906 276.6563,913.4531 277.0156,913.6406 C277.3906,913.8438 277.625,914.1875 277.625,914.5469 C277.625,915.2813 276.6406,915.8281 275.3906,915.8281 C274.2656,915.8281 273.1875,915.3438 273.0156,914.7344 C272.8906,914.2656 272.8906,914.2656 272.7656,914.1563 C272.6094,914 272.3906,913.9063 272.1563,913.9063 C271.875,913.9063 271.625,914.0313 271.4531,914.25 C271.3438,914.4219 271.2969,914.6094 271.2969,915.0313 L271.2969,916.1563 C271.2969,916.9219 271.5781,917.2813 272.1719,917.2813 C272.4375,917.2813 272.5625,917.2188 272.8438,916.875 C273.6875,917.3125 274.5781,917.5313 275.5,917.5313 C277.8281,917.5313 279.3906,916.3438 279.3906,914.5781 C279.3906,913.6875 279.0781,913 278.3906,912.4531 C277.8594,912.0313 277.2188,911.7813 275.7344,911.5156 C274.4688,911.2813 274.375,911.25 274.0469,911.0781 C273.6719,910.8906 273.4063,910.5 273.4063,910.1406 C273.4063,909.4063 274.2656,908.8438 275.3281,908.8438 C276.3906,908.8438 277.2031,909.3125 277.3594,909.9844 C277.4688,910.5313 277.4688,910.5313 277.5938,910.6719 C277.7344,910.7969 277.9688,910.9063 278.2031,910.9063 C278.4688,910.9063 278.7188,910.7656 278.8906,910.5469 C279,910.375 279.0313,910.2344 279.0313,909.7656 L279.0313,908.2656 Z " fill="#000000"/><text fill="#000000" font-family="sans-serif" font-size="14" lengthAdjust="spacing" textLength="122" x="295.75" y="917.1436">storage_wrapper</text><rect fill="#FFFFFF" height="15.9688" style="stroke:#181818;stroke-width:1.0;stroke-dasharray:2.0,2.0;" width="41" x="471" y="893.2969"/><text fill="#000000" font-family="sans-serif" font-size="12" font-style="italic" lengthAdjust="spacing" textLength="39" x="472" y="905.4355">T, Size</text><line style="stroke:#181818;stroke-width:0.5;" x1="216" x2="508" y1="928.2969" y2="928.2969"/><ellipse cx="226" cy="941.9453" fill="none" rx="3" ry="3" style="stroke:#038048;stroke-width:1.0;"/><text fill="#000000" font-family="sans-serif" font-size="14" lengthAdjust="spacing" textLength="189" x="235" y="945.292">store : std::array&lt;T, Size&gt;</text><ellipse cx="226" cy="958.2422" fill="none" rx="3" ry="3" style="stroke:#038048;stroke-width:1.0;"/><text fill="#000000" font-family="sans-serif" font-size="14" lengthAdjust="spacing" text-decoration="underline" textLength="268" x="235" y="961.5889">offsets : std::array&lt;std::size_t, Size&gt;</text><line style="stroke:#181818;stroke-width:0.5;" x1="216" x2="508" y1="968.8906" y2="968.8906"/><ellipse cx="226" cy="982.5391" fill="#84BE84" rx="3" ry="3" style="stroke:#038048;stroke-width:1.0;"/><text fill="#000000" font-family="sans-serif" font-size="14" lengthAdjust="spacing" textLength="33" x="235" y="985.8857">set()</text><ellipse cx="226" cy="998.8359" fill="#84BE84" rx="3" ry="3" style="stroke:#038048;stroke-width:1.0;"/><text fill="#000000" font-family="sans-serif" font-size="14" lengthAdjust="spacing" textLength="84" x="235" y="1002.1826">operator[]()</text><ellipse cx="226" cy="1015.1328" fill="#84BE84" rx="3" ry="3" style="stroke:#038048;stroke-width:1.0;"/><text fill="#000000" font-family="sans-serif" font-size="14" lengthAdjust="spacing" textLength="85" x="235" y="1018.4795">operator=()</text><ellipse cx="226" cy="1031.4297" fill="#84BE84" rx="3" ry="3" style="stroke:#038048;stroke-width:1.0;"/><text fill="#000000" font-family="sans-serif" font-size="14" lengthAdjust="spacing" textLength="42" x="235" y="1034.7764">data()</text><ellipse cx="226" cy="1047.7266" fill="#84BE84" rx="3" ry="3" style="stroke:#038048;stroke-width:1.0;"/><text fill="#000000" font-family="sans-serif" font-size="14" lengthAdjust="spacing" textLength="78" x="235" y="1051.0732">sequence()</text><ellipse cx="226" cy="1064.0234" fill="#84BE84" rx="3" ry="3" style="stroke:#038048;stroke-width:1.0;"/><text fill="#000000" font-family="sans-serif" font-size="14" lengthAdjust="spacing" textLength="137" x="235" y="1067.3701">iterator functions()</text><ellipse cx="226" cy="1080.3203" fill="#84BE84" rx="3" ry="3" style="stroke:#038048;stroke-width:1.0;"/><text fill="#000000" font-family="sans-serif" font-size="14" lengthAdjust="spacing" textLength="57" x="235" y="1083.667">length()</text><ellipse cx="226" cy="1096.6172" fill="#84BE84" rx="3" ry="3" style="stroke:#038048;stroke-width:1.0;"/><text fill="#000000" font-family="sans-serif" font-size="14" lengthAdjust="spacing" textLength="38" x="235" y="1099.9639">size()</text><ellipse cx="226" cy="1112.9141" fill="#84BE84" rx="3" ry="3" style="stroke:#038048;stroke-width:1.0;"/><text fill="#000000" font-family="sans-serif" font-size="14" lengthAdjust="spacing" textLength="46" x="235" y="1116.2607">swap()</text></g><!--class indexed_vector--><g id="elem_indexed_vector"><rect codeLine="63" fill="#F1F1F1" height="178.375" id="indexed_vector" rx="2.5" ry="2.5" style="stroke:#181818;stroke-width:0.5;" width="307" x="210.5" y="412.2969"/><ellipse cx="246.65" cy="428.2969" fill="#F1F1F1" rx="11" ry="11" style="stroke:#181818;stroke-width:1.0;"/><path d="M250.4313,424.2656 C250.4313,423.8281 250.4156,423.6875 250.3219,423.5313 C250.1813,423.2969 249.9,423.1406 249.6031,423.1406 C249.2594,423.1406 249.1188,423.2813 248.9469,423.7031 C248.3531,423.3281 247.6031,423.1406 246.7281,423.1406 C244.6188,423.1406 243.0406,424.4375 243.0406,426.1563 C243.0406,427.125 243.5719,428.0313 244.4313,428.5156 C244.9781,428.8281 245.525,429 246.6344,429.1875 C247.7906,429.3906 248.0563,429.4531 248.4156,429.6406 C248.7906,429.8438 249.025,430.1875 249.025,430.5469 C249.025,431.2813 248.0406,431.8281 246.7906,431.8281 C245.6656,431.8281 244.5875,431.3438 244.4156,430.7344 C244.2906,430.2656 244.2906,430.2656 244.1656,430.1563 C244.0094,430 243.7906,429.9063 243.5563,429.9063 C243.275,429.9063 243.025,430.0313 242.8531,430.25 C242.7438,430.4219 242.6969,430.6094 242.6969,431.0313 L242.6969,432.1563 C242.6969,432.9219 242.9781,433.2813 243.5719,433.2813 C243.8375,433.2813 243.9625,433.2188 244.2438,432.875 C245.0875,433.3125 245.9781,433.5313 246.9,433.5313 C249.2281,433.5313 250.7906,432.3438 250.7906,430.5781 C250.7906,429.6875 250.4781,429 249.7906,428.4531 C249.2594,428.0313 248.6188,427.7813 247.1344,427.5156 C245.8688,427.2813 245.775,427.25 245.4469,427.0781 C245.0719,426.8906 244.8063,426.5 244.8063,426.1406 C244.8063,425.4063 245.6656,424.8438 246.7281,424.8438 C247.7906,424.8438 248.6031,425.3125 248.7594,425.9844 C248.8688,426.5313 248.8688,426.5313 248.9938,426.6719 C249.1344,426.7969 249.3688,426.9063 249.6031,426.9063 C249.8688,426.9063 250.1188,426.7656 250.2906,426.5469 C250.4,426.375 250.4313,426.2344 250.4313,425.7656 L250.4313,424.2656 Z " fill="#000000"/><text fill="#000000" font-family="sans-serif" font-size="14" lengthAdjust="spacing" textLength="111" x="265.35" y="433.1436">indexed_vector</text><rect fill="#FFFFFF" height="15.9688" style="stroke:#181818;stroke-width:1.0;stroke-dasharray:2.0,2.0;" width="115" x="405.5" y="409.2969"/><text fill="#000000" font-family="sans-serif" font-size="12" font-style="italic" lengthAdjust="spacing" textLength="113" x="406.5" y="421.4355">T, Size, Count, ...Is</text><line style="stroke:#181818;stroke-width:0.5;" x1="211.5" x2="516.5" y1="444.2969" y2="444.2969"/><ellipse cx="221.5" cy="457.9453" fill="none" rx="3" ry="3" style="stroke:#038048;stroke-width:1.0;"/><text fill="#000000" font-family="sans-serif" font-size="14" lengthAdjust="spacing" textLength="185" x="230.5" y="461.292">base : std::array&lt;T, Size&gt;</text><ellipse cx="221.5" cy="474.2422" fill="none" rx="3" ry="3" style="stroke:#038048;stroke-width:1.0;"/><text fill="#000000" font-family="sans-serif" font-size="14" lengthAdjust="spacing" text-decoration="underline" textLength="281" x="230.5" y="477.5889">offsets : std::array&lt;std::size_t, Count&gt;</text><line style="stroke:#181818;stroke-width:0.5;" x1="211.5" x2="516.5" y1="484.8906" y2="484.8906"/><ellipse cx="221.5" cy="498.5391" fill="#84BE84" rx="3" ry="3" style="stroke:#038048;stroke-width:1.0;"/><text fill="#000000" font-family="sans-serif" font-size="14" lengthAdjust="spacing" textLength="33" x="230.5" y="501.8857">set()</text><ellipse cx="221.5" cy="514.8359" fill="#84BE84" rx="3" ry="3" style="stroke:#038048;stroke-width:1.0;"/><text fill="#000000" font-family="sans-serif" font-size="14" lengthAdjust="spacing" textLength="84" x="230.5" y="518.1826">operator[]()</text><ellipse cx="221.5" cy="531.1328" fill="#84BE84" rx="3" ry="3" style="stroke:#038048;stroke-width:1.0;"/><text fill="#000000" font-family="sans-serif" font-size="14" lengthAdjust="spacing" textLength="85" x="230.5" y="534.4795">operator=()</text><ellipse cx="221.5" cy="547.4297" fill="#84BE84" rx="3" ry="3" style="stroke:#038048;stroke-width:1.0;"/><text fill="#000000" font-family="sans-serif" font-size="14" lengthAdjust="spacing" textLength="42" x="230.5" y="550.7764">data()</text><ellipse cx="221.5" cy="563.7266" fill="#84BE84" rx="3" ry="3" style="stroke:#038048;stroke-width:1.0;"/><text fill="#000000" font-family="sans-serif" font-size="14" lengthAdjust="spacing" textLength="78" x="230.5" y="567.0732">sequence()</text><ellipse cx="221.5" cy="580.0234" fill="#84BE84" rx="3" ry="3" style="stroke:#038048;stroke-width:1.0;"/><text fill="#000000" font-family="sans-serif" font-size="14" lengthAdjust="spacing" textLength="137" x="230.5" y="583.3701">iterator functions()</text></g><!--class basic_matrix--><g id="elem_basic_matrix"><rect codeLine="74" fill="#F1F1F1" height="227.2656" id="basic_matrix" rx="2.5" ry="2.5" style="stroke:#181818;stroke-width:0.5;" width="394" x="552" y="896.2969"/><ellipse cx="658.25" cy="912.2969" fill="#F1F1F1" rx="11" ry="11" style="stroke:#181818;stroke-width:1.0;"/><path d="M662.0313,908.2656 C662.0313,907.8281 662.0156,907.6875 661.9219,907.5313 C661.7813,907.2969 661.5,907.1406 661.2031,907.1406 C660.8594,907.1406 660.7188,907.2813 660.5469,907.7031 C659.9531,907.3281 659.2031,907.1406 658.3281,907.1406 C656.2188,907.1406 654.6406,908.4375 654.6406,910.1563 C654.6406,911.125 655.1719,912.0313 656.0313,912.5156 C656.5781,912.8281 657.125,913 658.2344,913.1875 C659.3906,913.3906 659.6563,913.4531 660.0156,913.6406 C660.3906,913.8438 660.625,914.1875 660.625,914.5469 C660.625,915.2813 659.6406,915.8281 658.3906,915.8281 C657.2656,915.8281 656.1875,915.3438 656.0156,914.7344 C655.8906,914.2656 655.8906,914.2656 655.7656,914.1563 C655.6094,914 655.3906,913.9063 655.1563,913.9063 C654.875,913.9063 654.625,914.0313 654.4531,914.25 C654.3438,914.4219 654.2969,914.6094 654.2969,915.0313 L654.2969,916.1563 C654.2969,916.9219 654.5781,917.2813 655.1719,917.2813 C655.4375,917.2813 655.5625,917.2188 655.8438,916.875 C656.6875,917.3125 657.5781,917.5313 658.5,917.5313 C660.8281,917.5313 662.3906,916.3438 662.3906,914.5781 C662.3906,913.6875 662.0781,913 661.3906,912.4531 C660.8594,912.0313 660.2188,911.7813 658.7344,911.5156 C657.4688,911.2813 657.375,911.25 657.0469,911.0781 C656.6719,910.8906 656.4063,910.5 656.4063,910.1406 C656.4063,909.4063 657.2656,908.8438 658.3281,908.8438 C659.3906,908.8438 660.2031,909.3125 660.3594,909.9844 C660.4688,910.5313 660.4688,910.5313 660.5938,910.6719 C660.7344,910.7969 660.9688,910.9063 661.2031,910.9063 C661.4688,910.9063 661.7188,910.7656 661.8906,910.5469 C662,910.375 662.0313,910.2344 662.0313,909.7656 L662.0313,908.2656 Z " fill="#000000"/><text fill="#000000" font-family="sans-serif" font-size="14" lengthAdjust="spacing" textLength="91" x="678.75" y="917.1436">basic_matrix</text><rect fill="#FFFFFF" height="15.9688" style="stroke:#181818;stroke-width:1.0;stroke-dasharray:2.0,2.0;" width="80" x="869" y="893.2969"/><text fill="#000000" font-family="sans-serif" font-size="12" font-style="italic" lengthAdjust="spacing" textLength="78" x="870" y="905.4355">T, Cols, Rows</text><line style="stroke:#181818;stroke-width:0.5;" x1="553" x2="945" y1="928.2969" y2="928.2969"/><ellipse cx="563" cy="941.9453" fill="none" rx="3" ry="3" style="stroke:#038048;stroke-width:1.0;"/><text fill="#000000" font-family="sans-serif" font-size="14" lengthAdjust="spacing" textLength="368" x="572" y="945.292">columns : std::array&lt;basic_vector&lt;T, Rows&gt;, Cols&gt;</text><line style="stroke:#181818;stroke-width:0.5;" x1="553" x2="945" y1="952.5938" y2="952.5938"/><ellipse cx="563" cy="966.2422" fill="#84BE84" rx="3" ry="3" style="stroke:#038048;stroke-width:1.0;"/><text fill="#000000" font-family="sans-serif" font-size="14" lengthAdjust="spacing" textLength="36" x="572" y="969.5889">row()</text><ellipse cx="563" cy="982.5391" fill="#84BE84" rx="3" ry="3" style="stroke:#038048;stroke-width:1.0;"/><text fill="#000000" font-family="sans-serif" font-size="14" lengthAdjust="spacing" textLength="84" x="572" y="985.8857">operator[]()</text><ellipse cx="563" cy="998.8359" fill="#84BE84" rx="3" ry="3" style="stroke:#038048;stroke-width:1.0;"/><text fill="#000000" font-family="sans-serif" font-size="14" lengthAdjust="spacing" textLength="85" x="572" y="1002.1826">operator=()</text><ellipse cx="563" cy="1015.1328" fill="#84BE84" rx="3" ry="3" style="stroke:#038048;stroke-width:1.0;"/><text fill="#000000" font-family="sans-serif" font-size="14" lengthAdjust="spacing" textLength="42" x="572" y="1018.4795">data()</text><ellipse cx="563" cy="1031.4297" fill="#84BE84" rx="3" ry="3" style="stroke:#038048;stroke-width:1.0;"/><text fill="#000000" font-family="sans-serif" font-size="14" lengthAdjust="spacing" textLength="137" x="572" y="1034.7764">iterator functions()</text><ellipse cx="563" cy="1047.7266" fill="#84BE84" rx="3" ry="3" style="stroke:#038048;stroke-width:1.0;"/><text fill="#000000" font-family="sans-serif" font-size="14" lengthAdjust="spacing" textLength="57" x="572" y="1051.0732">length()</text><ellipse cx="563" cy="1064.0234" fill="#84BE84" rx="3" ry="3" style="stroke:#038048;stroke-width:1.0;"/><text fill="#000000" font-family="sans-serif" font-size="14" lengthAdjust="spacing" textLength="116" x="572" y="1067.3701">column_length()</text><ellipse cx="563" cy="1080.3203" fill="#84BE84" rx="3" ry="3" style="stroke:#038048;stroke-width:1.0;"/><text fill="#000000" font-family="sans-serif" font-size="14" lengthAdjust="spacing" textLength="38" x="572" y="1083.667">size()</text><ellipse cx="563" cy="1096.6172" fill="#84BE84" rx="3" ry="3" style="stroke:#038048;stroke-width:1.0;"/><text fill="#000000" font-family="sans-serif" font-size="14" lengthAdjust="spacing" textLength="97" x="572" y="1099.9639">column_size()</text><ellipse cx="563" cy="1112.9141" fill="#84BE84" rx="3" ry="3" style="stroke:#038048;stroke-width:1.0;"/><text fill="#000000" font-family="sans-serif" font-size="14" lengthAdjust="spacing" textLength="46" x="572" y="1116.2607">swap()</text></g><!--reverse link vector_base to basic_vector--><g id="link_vector_base_basic_vector"><path codeLine="88" d="M713.305,343.7959 C713.264,352.7609 713.166,361.6439 713,370.2969 C712.813,380.0069 712.548,390.1229 712.237,400.2349 " fill="none" id="vector_base-backto-basic_vector" style="stroke:#181818;stroke-width:1.0;"/><polygon fill="none" points="706.305,343.4479,713.309,323.4499,720.305,343.4509,706.305,343.4479" style="stroke:#181818;stroke-width:1.0;"/><text fill="#000000" font-family="sans-serif" font-size="13" lengthAdjust="spacing" textLength="85" x="714" y="366.3638">CRTP inherits</text></g><!--reverse link vector_base to indexed_vector--><g id="link_vector_base_indexed_vector"><path codeLine="89" d="M550.891,282.7219 C521.13,304.1309 491.424,328.0349 466,353.2969 C448.372,370.8119 431.801,391.7359 417.347,412.2279 " fill="none" id="vector_base-backto-indexed_vector" style="stroke:#181818;stroke-width:1.0;"/><polygon fill="none" points="547.021,276.8859,567.404,271.0929,555.083,288.3319,547.021,276.8859" style="stroke:#181818;stroke-width:1.0;"/><text fill="#000000" font-family="sans-serif" font-size="13" lengthAdjust="spacing" textLength="85" x="467" y="366.3638">CRTP inherits</text></g><!--reverse link CRTP duck type to basic_vector--><g id="link_CRTP duck type_basic_vector"><path codeLine="90" d="M457.424,262.8029 C490.64,290.7059 527.973,322.8799 561,353.2969 C577.062,368.0889 593.742,384.0999 609.851,399.9269 " fill="none" id="CRTP duck type-backto-basic_vector" style="stroke:#181818;stroke-width:1.0;stroke-dasharray:7.0,7.0;"/><polygon fill="none" points="452.837,268.0919,441.986,249.8919,461.818,257.3529,452.837,268.0919" style="stroke:#181818;stroke-width:1.0;"/><text fill="#000000" font-family="sans-serif" font-size="13" lengthAdjust="spacing" textLength="110" x="578" y="366.3638">duck implements</text></g><!--reverse link CRTP duck type to indexed_vector--><g id="link_CRTP duck type_indexed_vector"><path codeLine="91" d="M328.089,269.4409 C318.539,300.8269 312.282,336.9959 318,370.2969 C320.37,384.0999 324.059,398.3839 328.34,412.2069 " fill="none" id="CRTP duck type-backto-indexed_vector" style="stroke:#181818;stroke-width:1.0;stroke-dasharray:7.0,7.0;"/><polygon fill="none" points="321.581,266.8319,334.565,250.0869,334.857,271.2749,321.581,266.8319" style="stroke:#181818;stroke-width:1.0;"/><text fill="#000000" font-family="sans-serif" font-size="13" lengthAdjust="spacing" textLength="110" x="319" y="366.3638">duck implements</text></g><!--reverse link basic_vector::anonymous_union to storage_wrapper--><g id="link_basic_vector::anonymous_union_storage_wrapper"><path codeLine="92" d="M219.959,776.4969 C178.197,785.3189 211.538,841.3389 256.372,896.1509 " fill="none" id="basic_vector::anonymous_union-backto-storage_wrapper" style="stroke:#181818;stroke-width:1.0;"/><polygon fill="#181818" points="233,775.2969,226.6587,771.8636,221.0505,776.3966,227.3918,779.8299,233,775.2969" style="stroke:#181818;stroke-width:1.0;"/><text fill="#000000" font-family="sans-serif" font-size="13" lengthAdjust="spacing" textLength="31" x="229" y="858.3638">base</text><text fill="#000000" font-family="sans-serif" font-size="13" lengthAdjust="spacing" textLength="8" x="218.0391" y="772.1714">1</text><text fill="#000000" font-family="sans-serif" font-size="13" lengthAdjust="spacing" textLength="8" x="241.0064" y="885.0738">1</text></g><!--reverse link basic_vector::anonymous_union to indexed_vector--><g id="link_basic_vector::anonymous_union_indexed_vector"><path codeLine="93" d="M507.335,786.9679 C518.672,775.7069 508.345,745.1369 494,727.2969 C457.657,682.0979 403.338,742.4999 367,697.2969 C343.347,667.8739 339.729,627.0889 343.18,590.4219 " fill="none" id="basic_vector::anonymous_union-backto-indexed_vector" style="stroke:#181818;stroke-width:1.0;"/><polygon fill="#181818" points="495,791.2969,501.986,793.0845,506.323,787.3234,499.337,785.5358,495,791.2969" style="stroke:#181818;stroke-width:1.0;"/><text fill="#000000" font-family="sans-serif" font-size="13" lengthAdjust="spacing" textLength="53" x="368" y="669.3638">swizzles</text><text fill="#000000" font-family="sans-serif" font-size="13" lengthAdjust="spacing" textLength="8" x="501.9609" y="788.9964">1</text><text fill="#000000" font-family="sans-serif" font-size="13" lengthAdjust="spacing" textLength="37" x="302.8009" y="610.7821">many</text></g><!--reverse link basic_vector to basic_vector::anonymous_union--><g id="link_basic_vector_basic_vector::anonymous_union"><path codeLine="94" d="M548.942,455.1839 C533.019,481.9619 553.348,578.8219 535,602.2969 C514.156,628.9649 490.5,610.0379 465,632.2969 C439.619,654.4519 445.637,669.9219 426,697.2969 C418.828,707.2949 410.622,717.6129 402.579,727.2299 " fill="none" id="basic_vector-backto-basic_vector::anonymous_union" style="stroke:#181818;stroke-width:1.0;"/><polygon fill="#181818" points="560,448.2969,552.7923,448.0738,549.8143,454.6412,557.0219,454.8643,560,448.2969" style="stroke:#181818;stroke-width:1.0;"/><path d="M470,637.2969 L470,692.2969 L717,692.2969 L717,647.2969 L707,637.2969 L470,637.2969 " fill="#FEFFDD" style="stroke:#181818;stroke-width:0.5;"/><path d="M707,637.2969 L707,647.2969 L717,647.2969 L707,637.2969 " fill="#FEFFDD" style="stroke:#181818;stroke-width:0.5;"/><text fill="#000000" font-family="sans-serif" font-size="13" lengthAdjust="spacing" textLength="208" x="476" y="654.3638">Nested anonymous union where</text><text fill="#000000" font-family="sans-serif" font-size="13" lengthAdjust="spacing" textLength="226" x="476" y="669.4966">all members have a common initial</text><text fill="#000000" font-family="sans-serif" font-size="13" lengthAdjust="spacing" textLength="166" x="476" y="684.6294">sequence with each other</text><text fill="#000000" font-family="sans-serif" font-size="13" lengthAdjust="spacing" textLength="8" x="545.1125" y="442.6102">1</text><text fill="#000000" font-family="sans-serif" font-size="13" lengthAdjust="spacing" textLength="8" x="397.3345" y="720.1692">1</text></g><!--reverse link CRTP duck type to vector_base--><g id="link_CRTP duck type_vector_base"><path codeLine="100" d="M448.608,185.2969 C484.394,185.2969 527.079,185.2969 567.475,185.2969 " fill="none" id="CRTP duck type-backto-vector_base" style="stroke:#181818;stroke-width:1.0;stroke-dasharray:7.0,7.0;"/><polygon fill="#181818" points="443.379,185.2969,452.379,189.2969,448.379,185.2969,452.379,181.2969,443.379,185.2969" style="stroke:#181818;stroke-width:1.0;"/><text fill="#000000" font-family="sans-serif" font-size="13" lengthAdjust="spacing" textLength="88" x="461.25" y="178.3638">Derived CRTP</text></g><!--reverse link basic_matrix to basic_vector--><g id="link_basic_matrix_basic_vector"><path codeLine="101" d="M540.089,933.5899 C537.947,923.8429 546.577,906.0919 552,892.2969 C594.499,784.1979 684.618,805.8279 726,697.2969 C737.325,667.5949 737.977,633.5769 734.24,602.3579 " fill="none" id="basic_matrix-backto-basic_vector" style="stroke:#181818;stroke-width:1.0;"/><polygon fill="#181818" points="551,940.7969,548.1985,934.1522,540.9875,934.1825,543.789,940.8272,551,940.7969" style="stroke:#181818;stroke-width:1.0;"/><text fill="#000000" font-family="sans-serif" font-size="13" lengthAdjust="spacing" textLength="54" x="711" y="775.8638">columns</text><text fill="#000000" font-family="sans-serif" font-size="13" lengthAdjust="spacing" textLength="8" x="535.7406" y="935.1122">1</text><text fill="#000000" font-family="sans-serif" font-size="13" lengthAdjust="spacing" textLength="27" x="707.7775" y="618.9933">Cols</text></g><!--link indexed_vector to basic_vector--><!--link storage_wrapper to basic_matrix--><!--SRC=[pLR9Rjim43rBNp7mfKji0RqAJYx9fPUYI0Fq4AG6BOqi8XIfabGS9ys_TqY9jXQxAOeMwCaYEVFuvir2lp7tN89M1kF8SYiGhb4movKq9QyDBE1IC6FWYhEDPbKSCIcLzGOmkxo- -Gnvazs3tTKuYwFdE8hEu9cjZTKiiozWqBvzDzvKDMfcbRwzcvxbpBBfhi7l3SeCfoVSjbXGD3Bpj9tDInmHImI1XGLL764QNIh2gst3171980NBS0xa1HffB_KcZSXXZL2n79sL0WRPsHbahMySeSoT2saN6C43PaHdjMO6OVbLSylMWe1lva1mqixX2ZL_mFmYgEMf7NJooub2BV-3DftJG1M_TrmFEXKeDxRi5eO_1IzcLddBA6pKjTW5kv8NWLZMNrHSXY_s68oRgjEUf6X82jA0PwjMa2K9y8LktOVTI2BNPjEuUigeBeg2T32GWh5vcZAjsMxfFntVbTqZkClsWasq2XldtRedsqYnasAPBQkxM7hrte-7w4abTvLgpAeBfOtB9Rx3u4zF0arV4KEUR8EhhIQLSIgAEyTX_3VzgFz3gKxLLK_2BdWkStp4V5GG-xv8akIZkUZB-7U4yF3_N8bnrLVCQlwuz6qlp1okrVOGNAP4KyaHwN6tU8_MlMMlrVOFsFzUubf6grF9x8wFftSmyNui5iC-wSQIB6d8M7F4UbWMC74OpsxubYI3AyZ5d_Ag5bYXFEaqkMdYziiEJrDFUlPX1k-9j_iTzJD1jkt_2auO3GUiYidTR4hmC4E6Y1vdmEILsUHVGyqt9Js74WINzt44y0cDnHpsrkrGXYr9Z-wS2G4LLclK1ahsWExvKrL59bnoovbmHg4zOCjj2SYo4fGbXFxhE4d7CXayb6bu5NtoGxHj3wLfQ9TzlAudPkCQwAo6Ki7YjkHvZlBE_HKO5vlhsM42as3kjKe6pVmJ]--></g></svg>