<?xml version="1.0" encoding="us-ascii" standalone="no"?><svg xmlns="http://www.w3.org/2000/svg" xmlns:xlink="http://www.w3.org/1999/xlink" contentStyleType="text/css" height="1493px" preserveAspectRatio="none" style="width:1176px;height:1493px;background:#FFFFFF;" version="1.1" viewBox="0 0 1176 1493" width="1176px" zoomAndPan="magnify"><defs/><g><text fill="#000000" font-family="sans-serif" font-size="14" font-weight="bold" lengthAdjust="spacing" textLength="243" x="459.5" y="22.9951">Relationships - Class Diagram</text><!--class CRTP duck type--><g id="elem_CRTP duck type"><rect codeLine="3" fill="#F1F1F1" height="129.4844" id="CRTP duck type" rx="2.5" ry="2.5" style="stroke:#181818;stroke-width:0.5;" width="158" x="285" y="96.2969"/><ellipse cx="305.4" cy="112.2969" fill="#E3664A" rx="11" ry="11" style="stroke:#181818;stroke-width:1.0;"/><path d="M306.3219,109.5469 C304.4156,109.6875 303.1031,110.875 303.1031,112.4531 C303.1031,113.8594 304.3063,115.0781 305.7594,115.0781 C305.9156,115.0781 306.0563,115.0625 306.3219,115.0156 L306.3219,115.0781 L307.1188,115.0781 C307.7438,115.0781 308.0563,114.8594 308.0563,114.375 C308.0563,114.0938 307.9313,113.9063 307.6656,113.7813 L307.6656,109 C307.6656,107.1094 306.3531,105.75 304.5094,105.75 C302.3063,105.75 300.6969,107.875 300.6969,110.8125 L300.6969,113.6719 C300.6969,114.9219 300.9781,116.1406 301.4938,117.0625 C302.2125,118.3125 303.1344,118.875 304.5406,118.875 C306.15,118.875 307.5406,118.2188 307.5406,117.4219 C307.5406,117.0313 307.2438,116.7188 306.8688,116.7188 C306.6656,116.7188 306.5719,116.7656 306.3375,117.0156 C306.0094,117.3438 305.3375,117.5625 304.5875,117.5625 C303.8375,117.5625 303.3063,117.2969 302.9,116.7031 C302.3219,115.9063 302.0406,114.8594 302.0406,113.5625 L302.0406,110.9063 C302.0406,108.7344 303.1031,107.0938 304.5406,107.0938 C305.5875,107.0938 306.3219,107.875 306.3219,109 L306.3219,109.5469 Z M306.3219,113.6563 C306.0875,113.7031 305.9938,113.7031 305.8844,113.7031 C305.0563,113.7031 304.4469,113.1719 304.4469,112.4688 C304.4469,111.6406 305.1969,111.0313 306.3219,110.9219 L306.3219,113.6563 Z " fill="#000000"/><text fill="#000000" font-family="sans-serif" font-size="14" lengthAdjust="spacing" textLength="114" x="320.6" y="117.1436">CRTP duck type</text><line style="stroke:#181818;stroke-width:0.5;" x1="286" x2="442" y1="128.2969" y2="128.2969"/><line style="stroke:#181818;stroke-width:0.5;" x1="286" x2="442" y1="136.2969" y2="136.2969"/><ellipse cx="296" cy="149.9453" fill="#84BE84" rx="3" ry="3" style="stroke:#038048;stroke-width:1.0;"/><text fill="#000000" font-family="sans-serif" font-size="14" font-style="italic" lengthAdjust="spacing" textLength="31" x="305" y="153.292">set()</text><ellipse cx="296" cy="166.2422" fill="#84BE84" rx="3" ry="3" style="stroke:#038048;stroke-width:1.0;"/><text fill="#000000" font-family="sans-serif" font-size="14" font-style="italic" lengthAdjust="spacing" textLength="82" x="305" y="169.5889">operator[]()</text><ellipse cx="296" cy="182.5391" fill="#84BE84" rx="3" ry="3" style="stroke:#038048;stroke-width:1.0;"/><text fill="#000000" font-family="sans-serif" font-size="14" font-style="italic" lengthAdjust="spacing" textLength="42" x="305" y="185.8857">data()</text><ellipse cx="296" cy="198.8359" fill="#84BE84" rx="3" ry="3" style="stroke:#038048;stroke-width:1.0;"/><text fill="#000000" font-family="sans-serif" font-size="14" font-style="italic" lengthAdjust="spacing" textLength="79" x="305" y="202.1826">sequence()</text><ellipse cx="296" cy="215.1328" fill="#84BE84" rx="3" ry="3" style="stroke:#038048;stroke-width:1.0;"/><text fill="#000000" font-family="sans-serif" font-size="14" font-style="italic" lengthAdjust="spacing" textLength="132" x="305" y="218.4795">iterator functions()</text></g><g id="elem_GMN3"><path d="M6,140.7969 L6,181.0625 A0,0 0 0 0 6,181.0625 L250,181.0625 A0,0 0 0 0 250,181.0625 L250,164.7969 L284.838,160.7969 L250,156.7969 L250,150.7969 L240,140.7969 L6,140.7969 A0,0 0 0 0 6,140.7969 " fill="#FEFFDD" style="stroke:#181818;stroke-width:0.5;"/><path d="M240,140.7969 L240,150.7969 L250,150.7969 L240,140.7969 " fill="#FEFFDD" style="stroke:#181818;stroke-width:0.5;"/><text fill="#000000" font-family="sans-serif" font-size="13" lengthAdjust="spacing" textLength="199" x="12" y="157.8638">Conceptual interface, not real :</text><text fill="#000000" font-family="sans-serif" font-size="13" lengthAdjust="spacing" textLength="223" x="12" y="172.9966">Could be made into a c++ concept</text></g><!--class vector_base--><g id="elem_vector_base"><rect codeLine="15" fill="#F1F1F1" height="276.1563" id="vector_base" rx="2.5" ry="2.5" style="stroke:#181818;stroke-width:0.5;" width="285" x="221.5" y="351.2969"/><ellipse cx="236.5" cy="367.2969" fill="#A9DCDF" rx="11" ry="11" style="stroke:#181818;stroke-width:1.0;"/><path d="M238.5781,369.1094 L238.9688,370.0938 L238.5781,370.0938 C238.125,370.0938 238.0156,370.1094 237.8594,370.2188 C237.6094,370.375 237.4531,370.6563 237.4531,370.9531 C237.4531,371.2188 237.5938,371.4688 237.8125,371.625 C237.9531,371.75 238.1563,371.7969 238.5781,371.7969 L240.9375,371.7969 C241.2969,371.7969 241.5156,371.7656 241.6563,371.6719 C241.9063,371.5313 242.0625,371.2344 242.0625,370.9531 C242.0625,370.6719 241.9219,370.4219 241.7031,370.2656 C241.5313,370.125 241.375,370.0938 240.9063,370.0938 L237.5156,361.8906 L233.8438,361.8906 C233.3906,361.8906 233.2656,361.9063 233.1094,362 C232.8594,362.1719 232.7031,362.4531 232.7031,362.7344 C232.7031,363.0156 232.8438,363.2656 233.0625,363.4375 C233.2344,363.5469 233.4063,363.5781 233.8438,363.5781 L234.9219,363.5781 L232.2813,370.0938 C231.8594,370.0938 231.7031,370.1094 231.5469,370.2188 C231.2969,370.375 231.1406,370.6563 231.1406,370.9531 C231.1406,371.5156 231.5156,371.7969 232.2656,371.7969 L234.5313,371.7969 C234.8906,371.7969 235.1094,371.7656 235.2344,371.6719 C235.5,371.5313 235.6406,371.2344 235.6406,370.9531 C235.6406,370.6719 235.5156,370.4219 235.2969,370.25 C235.125,370.125 234.9844,370.0938 234.5313,370.0938 L234.1406,370.0938 L234.5313,369.1094 L238.5781,369.1094 Z M237.875,367.4063 L235.2031,367.4063 L236.5469,364.1406 L237.875,367.4063 Z " fill="#000000"/><text fill="#000000" font-family="sans-serif" font-size="14" font-style="italic" lengthAdjust="spacing" textLength="86" x="250.5" y="372.1436">vector_base</text><rect fill="#FFFFFF" height="15.9688" style="stroke:#181818;stroke-width:1.0;stroke-dasharray:2.0,2.0;" width="165" x="344.5" y="348.2969"/><text fill="#000000" font-family="sans-serif" font-size="12" font-style="italic" lengthAdjust="spacing" textLength="163" x="345.5" y="360.4355">Writable, T, Count, Derived</text><line style="stroke:#181818;stroke-width:0.5;" x1="222.5" x2="505.5" y1="383.2969" y2="383.2969"/><line style="stroke:#181818;stroke-width:0.5;" x1="222.5" x2="505.5" y1="391.2969" y2="391.2969"/><ellipse cx="232.5" cy="404.9453" fill="#84BE84" rx="3" ry="3" style="stroke:#038048;stroke-width:1.0;"/><text fill="#000000" font-family="sans-serif" font-size="14" lengthAdjust="spacing" textLength="75" x="241.5" y="408.292">CRTP set()</text><ellipse cx="232.5" cy="421.2422" fill="#84BE84" rx="3" ry="3" style="stroke:#038048;stroke-width:1.0;"/><text fill="#000000" font-family="sans-serif" font-size="14" lengthAdjust="spacing" textLength="126" x="241.5" y="424.5889">CRTP operator[]()</text><ellipse cx="232.5" cy="437.5391" fill="#84BE84" rx="3" ry="3" style="stroke:#038048;stroke-width:1.0;"/><text fill="#000000" font-family="sans-serif" font-size="14" lengthAdjust="spacing" textLength="84" x="241.5" y="440.8857">CRTP data()</text><ellipse cx="232.5" cy="453.8359" fill="#84BE84" rx="3" ry="3" style="stroke:#038048;stroke-width:1.0;"/><text fill="#000000" font-family="sans-serif" font-size="14" lengthAdjust="spacing" textLength="120" x="241.5" y="457.1826">CRTP sequence()</text><ellipse cx="232.5" cy="470.1328" fill="#84BE84" rx="3" ry="3" style="stroke:#038048;stroke-width:1.0;"/><text fill="#000000" font-family="sans-serif" font-size="14" lengthAdjust="spacing" textLength="179" x="241.5" y="473.4795">CRTP iterator functions()</text><ellipse cx="232.5" cy="486.4297" fill="#84BE84" rx="3" ry="3" style="stroke:#038048;stroke-width:1.0;"/><text fill="#000000" font-family="sans-serif" font-size="14" lengthAdjust="spacing" textLength="57" x="241.5" y="489.7764">length()</text><ellipse cx="232.5" cy="502.7266" fill="#84BE84" rx="3" ry="3" style="stroke:#038048;stroke-width:1.0;"/><text fill="#000000" font-family="sans-serif" font-size="14" lengthAdjust="spacing" textLength="38" x="241.5" y="506.0732">size()</text><ellipse cx="232.5" cy="519.0234" fill="#84BE84" rx="3" ry="3" style="stroke:#038048;stroke-width:1.0;"/><text fill="#000000" font-family="sans-serif" font-size="14" lengthAdjust="spacing" textLength="86" x="241.5" y="522.3701">as_derived()</text><ellipse cx="232.5" cy="535.3203" fill="#84BE84" rx="3" ry="3" style="stroke:#038048;stroke-width:1.0;"/><text fill="#000000" font-family="sans-serif" font-size="14" lengthAdjust="spacing" textLength="50" x="241.5" y="538.667">apply()</text><ellipse cx="232.5" cy="551.6172" fill="#84BE84" rx="3" ry="3" style="stroke:#038048;stroke-width:1.0;"/><text fill="#000000" font-family="sans-serif" font-size="14" lengthAdjust="spacing" textLength="43" x="241.5" y="554.9639">shift()</text><ellipse cx="232.5" cy="567.9141" fill="#84BE84" rx="3" ry="3" style="stroke:#038048;stroke-width:1.0;"/><text fill="#000000" font-family="sans-serif" font-size="14" lengthAdjust="spacing" textLength="51" x="241.5" y="571.2607">cshift()</text><ellipse cx="232.5" cy="584.2109" fill="#84BE84" rx="3" ry="3" style="stroke:#038048;stroke-width:1.0;"/><text fill="#000000" font-family="sans-serif" font-size="14" lengthAdjust="spacing" textLength="37" x="241.5" y="587.5576">min()</text><ellipse cx="232.5" cy="600.5078" fill="#84BE84" rx="3" ry="3" style="stroke:#038048;stroke-width:1.0;"/><text fill="#000000" font-family="sans-serif" font-size="14" lengthAdjust="spacing" textLength="40" x="241.5" y="603.8545">max()</text><ellipse cx="232.5" cy="616.8047" fill="#84BE84" rx="3" ry="3" style="stroke:#038048;stroke-width:1.0;"/><text fill="#000000" font-family="sans-serif" font-size="14" lengthAdjust="spacing" textLength="39" x="241.5" y="620.1514">sum()</text></g><!--class basic_vector--><g id="elem_basic_vector"><rect codeLine="32" fill="#F1F1F1" height="194.6719" id="basic_vector" rx="2.5" ry="2.5" style="stroke:#181818;stroke-width:0.5;" width="195" x="479.5" y="704.2969"/><ellipse cx="507.55" cy="720.2969" fill="#F1F1F1" rx="11" ry="11" style="stroke:#181818;stroke-width:1.0;"/><path d="M511.3313,716.2656 C511.3313,715.8281 511.3156,715.6875 511.2219,715.5313 C511.0813,715.2969 510.8,715.1406 510.5031,715.1406 C510.1594,715.1406 510.0188,715.2813 509.8469,715.7031 C509.2531,715.3281 508.5031,715.1406 507.6281,715.1406 C505.5188,715.1406 503.9406,716.4375 503.9406,718.1563 C503.9406,719.125 504.4719,720.0313 505.3313,720.5156 C505.8781,720.8281 506.425,721 507.5344,721.1875 C508.6906,721.3906 508.9563,721.4531 509.3156,721.6406 C509.6906,721.8438 509.925,722.1875 509.925,722.5469 C509.925,723.2813 508.9406,723.8281 507.6906,723.8281 C506.5656,723.8281 505.4875,723.3438 505.3156,722.7344 C505.1906,722.2656 505.1906,722.2656 505.0656,722.1563 C504.9094,722 504.6906,721.9063 504.4563,721.9063 C504.175,721.9063 503.925,722.0313 503.7531,722.25 C503.6438,722.4219 503.5969,722.6094 503.5969,723.0313 L503.5969,724.1563 C503.5969,724.9219 503.8781,725.2813 504.4719,725.2813 C504.7375,725.2813 504.8625,725.2188 505.1438,724.875 C505.9875,725.3125 506.8781,725.5313 507.8,725.5313 C510.1281,725.5313 511.6906,724.3438 511.6906,722.5781 C511.6906,721.6875 511.3781,721 510.6906,720.4531 C510.1594,720.0313 509.5188,719.7813 508.0344,719.5156 C506.7688,719.2813 506.675,719.25 506.3469,719.0781 C505.9719,718.8906 505.7063,718.5 505.7063,718.1406 C505.7063,717.4063 506.5656,716.8438 507.6281,716.8438 C508.6906,716.8438 509.5031,717.3125 509.6594,717.9844 C509.7688,718.5313 509.7688,718.5313 509.8938,718.6719 C510.0344,718.7969 510.2688,718.9063 510.5031,718.9063 C510.7688,718.9063 511.0188,718.7656 511.1906,718.5469 C511.3,718.375 511.3313,718.2344 511.3313,717.7656 L511.3313,716.2656 Z " fill="#000000"/><text fill="#000000" font-family="sans-serif" font-size="14" lengthAdjust="spacing" textLength="91" x="524.45" y="725.1436">basic_vector</text><rect fill="#FFFFFF" height="15.9688" style="stroke:#181818;stroke-width:1.0;stroke-dasharray:2.0,2.0;" width="41" x="636.5" y="701.2969"/><text fill="#000000" font-family="sans-serif" font-size="12" font-style="italic" lengthAdjust="spacing" textLength="39" x="637.5" y="713.4355">T, Size</text><line style="stroke:#181818;stroke-width:0.5;" x1="480.5" x2="673.5" y1="736.2969" y2="736.2969"/><ellipse cx="490.5" cy="749.9453" fill="none" rx="3" ry="3" style="stroke:#038048;stroke-width:1.0;"/><text fill="#000000" font-family="sans-serif" font-size="14" lengthAdjust="spacing" textLength="169" x="499.5" y="753.292">base and swizzles union</text><ellipse cx="490.5" cy="766.2422" fill="none" rx="3" ry="3" style="stroke:#038048;stroke-width:1.0;"/><text fill="#000000" font-family="sans-serif" font-size="14" lengthAdjust="spacing" text-decoration="underline" textLength="51" x="499.5" y="769.5889">offsets</text><line style="stroke:#181818;stroke-width:0.5;" x1="480.5" x2="673.5" y1="776.8906" y2="776.8906"/><ellipse cx="490.5" cy="790.5391" fill="#84BE84" rx="3" ry="3" style="stroke:#038048;stroke-width:1.0;"/><text fill="#000000" font-family="sans-serif" font-size="14" lengthAdjust="spacing" textLength="33" x="499.5" y="793.8857">set()</text><ellipse cx="490.5" cy="806.8359" fill="#84BE84" rx="3" ry="3" style="stroke:#038048;stroke-width:1.0;"/><text fill="#000000" font-family="sans-serif" font-size="14" lengthAdjust="spacing" textLength="84" x="499.5" y="810.1826">operator[]()</text><ellipse cx="490.5" cy="823.1328" fill="#84BE84" rx="3" ry="3" style="stroke:#038048;stroke-width:1.0;"/><text fill="#000000" font-family="sans-serif" font-size="14" lengthAdjust="spacing" textLength="85" x="499.5" y="826.4795">operator=()</text><ellipse cx="490.5" cy="839.4297" fill="#84BE84" rx="3" ry="3" style="stroke:#038048;stroke-width:1.0;"/><text fill="#000000" font-family="sans-serif" font-size="14" lengthAdjust="spacing" textLength="42" x="499.5" y="842.7764">data()</text><ellipse cx="490.5" cy="855.7266" fill="#84BE84" rx="3" ry="3" style="stroke:#038048;stroke-width:1.0;"/><text fill="#000000" font-family="sans-serif" font-size="14" lengthAdjust="spacing" textLength="78" x="499.5" y="859.0732">sequence()</text><ellipse cx="490.5" cy="872.0234" fill="#84BE84" rx="3" ry="3" style="stroke:#038048;stroke-width:1.0;"/><text fill="#000000" font-family="sans-serif" font-size="14" lengthAdjust="spacing" textLength="137" x="499.5" y="875.3701">iterator functions()</text><ellipse cx="490.5" cy="888.3203" fill="#84BE84" rx="3" ry="3" style="stroke:#038048;stroke-width:1.0;"/><text fill="#000000" font-family="sans-serif" font-size="14" lengthAdjust="spacing" textLength="46" x="499.5" y="891.667">swap()</text></g><!--class basic_vector::anonymous union--><g id="elem_basic_vector::anonymous union"><rect codeLine="44" fill="#F1F1F1" height="80.5938" id="basic_vector::anonymous union" rx="2.5" ry="2.5" style="stroke:#181818;stroke-width:0.5;" width="257" x="390.5" y="976.2969"/><ellipse cx="405.5" cy="992.2969" fill="#E3664A" rx="11" ry="11" style="stroke:#181818;stroke-width:1.0;"/><path d="M406.4219,989.5469 C404.5156,989.6875 403.2031,990.875 403.2031,992.4531 C403.2031,993.8594 404.4063,995.0781 405.8594,995.0781 C406.0156,995.0781 406.1563,995.0625 406.4219,995.0156 L406.4219,995.0781 L407.2188,995.0781 C407.8438,995.0781 408.1563,994.8594 408.1563,994.375 C408.1563,994.0938 408.0313,993.9063 407.7656,993.7813 L407.7656,989 C407.7656,987.1094 406.4531,985.75 404.6094,985.75 C402.4063,985.75 400.7969,987.875 400.7969,990.8125 L400.7969,993.6719 C400.7969,994.9219 401.0781,996.1406 401.5938,997.0625 C402.3125,998.3125 403.2344,998.875 404.6406,998.875 C406.25,998.875 407.6406,998.2188 407.6406,997.4219 C407.6406,997.0313 407.3438,996.7188 406.9688,996.7188 C406.7656,996.7188 406.6719,996.7656 406.4375,997.0156 C406.1094,997.3438 405.4375,997.5625 404.6875,997.5625 C403.9375,997.5625 403.4063,997.2969 403,996.7031 C402.4219,995.9063 402.1406,994.8594 402.1406,993.5625 L402.1406,990.9063 C402.1406,988.7344 403.2031,987.0938 404.6406,987.0938 C405.6875,987.0938 406.4219,987.875 406.4219,989 L406.4219,989.5469 Z M406.4219,993.6563 C406.1875,993.7031 406.0938,993.7031 405.9844,993.7031 C405.1563,993.7031 404.5469,993.1719 404.5469,992.4688 C404.5469,991.6406 405.2969,991.0313 406.4219,990.9219 L406.4219,993.6563 Z " fill="#000000"/><text fill="#000000" font-family="sans-serif" font-size="14" lengthAdjust="spacing" textLength="225" x="419.5" y="997.1436">basic_vector::anonymous union</text><line style="stroke:#181818;stroke-width:0.5;" x1="391.5" x2="646.5" y1="1008.2969" y2="1008.2969"/><ellipse cx="401.5" cy="1021.9453" fill="none" rx="3" ry="3" style="stroke:#038048;stroke-width:1.0;"/><text fill="#000000" font-family="sans-serif" font-size="14" lengthAdjust="spacing" textLength="34" x="410.5" y="1025.292">base</text><ellipse cx="401.5" cy="1038.2422" fill="none" rx="3" ry="3" style="stroke:#038048;stroke-width:1.0;"/><text fill="#000000" font-family="sans-serif" font-size="14" lengthAdjust="spacing" textLength="58" x="410.5" y="1041.5889">swizzles</text><line style="stroke:#181818;stroke-width:0.5;" x1="391.5" x2="646.5" y1="1048.8906" y2="1048.8906"/></g><!--class storage_wrapper--><g id="elem_storage_wrapper"><rect codeLine="49" fill="#F1F1F1" height="227.2656" id="storage_wrapper" rx="2.5" ry="2.5" style="stroke:#181818;stroke-width:0.5;" width="197" x="420.5" y="1134.2969"/><ellipse cx="435.5" cy="1150.2969" fill="#F1F1F1" rx="11" ry="11" style="stroke:#181818;stroke-width:1.0;"/><path d="M439.2813,1146.2656 C439.2813,1145.8281 439.2656,1145.6875 439.1719,1145.5313 C439.0313,1145.2969 438.75,1145.1406 438.4531,1145.1406 C438.1094,1145.1406 437.9688,1145.2813 437.7969,1145.7031 C437.2031,1145.3281 436.4531,1145.1406 435.5781,1145.1406 C433.4688,1145.1406 431.8906,1146.4375 431.8906,1148.1563 C431.8906,1149.125 432.4219,1150.0313 433.2813,1150.5156 C433.8281,1150.8281 434.375,1151 435.4844,1151.1875 C436.6406,1151.3906 436.9063,1151.4531 437.2656,1151.6406 C437.6406,1151.8438 437.875,1152.1875 437.875,1152.5469 C437.875,1153.2813 436.8906,1153.8281 435.6406,1153.8281 C434.5156,1153.8281 433.4375,1153.3438 433.2656,1152.7344 C433.1406,1152.2656 433.1406,1152.2656 433.0156,1152.1563 C432.8594,1152 432.6406,1151.9063 432.4063,1151.9063 C432.125,1151.9063 431.875,1152.0313 431.7031,1152.25 C431.5938,1152.4219 431.5469,1152.6094 431.5469,1153.0313 L431.5469,1154.1563 C431.5469,1154.9219 431.8281,1155.2813 432.4219,1155.2813 C432.6875,1155.2813 432.8125,1155.2188 433.0938,1154.875 C433.9375,1155.3125 434.8281,1155.5313 435.75,1155.5313 C438.0781,1155.5313 439.6406,1154.3438 439.6406,1152.5781 C439.6406,1151.6875 439.3281,1151 438.6406,1150.4531 C438.1094,1150.0313 437.4688,1149.7813 435.9844,1149.5156 C434.7188,1149.2813 434.625,1149.25 434.2969,1149.0781 C433.9219,1148.8906 433.6563,1148.5 433.6563,1148.1406 C433.6563,1147.4063 434.5156,1146.8438 435.5781,1146.8438 C436.6406,1146.8438 437.4531,1147.3125 437.6094,1147.9844 C437.7188,1148.5313 437.7188,1148.5313 437.8438,1148.6719 C437.9844,1148.7969 438.2188,1148.9063 438.4531,1148.9063 C438.7188,1148.9063 438.9688,1148.7656 439.1406,1148.5469 C439.25,1148.375 439.2813,1148.2344 439.2813,1147.7656 L439.2813,1146.2656 Z " fill="#000000"/><text fill="#000000" font-family="sans-serif" font-size="14" lengthAdjust="spacing" textLength="122" x="449.5" y="1155.1436">storage_wrapper</text><rect fill="#FFFFFF" height="15.9688" style="stroke:#181818;stroke-width:1.0;stroke-dasharray:2.0,2.0;" width="41" x="579.5" y="1131.2969"/><text fill="#000000" font-family="sans-serif" font-size="12" font-style="italic" lengthAdjust="spacing" textLength="39" x="580.5" y="1143.4355">T, Size</text><line style="stroke:#181818;stroke-width:0.5;" x1="421.5" x2="616.5" y1="1166.2969" y2="1166.2969"/><ellipse cx="431.5" cy="1179.9453" fill="none" rx="3" ry="3" style="stroke:#038048;stroke-width:1.0;"/><text fill="#000000" font-family="sans-serif" font-size="14" lengthAdjust="spacing" textLength="38" x="440.5" y="1183.292">store</text><ellipse cx="431.5" cy="1196.2422" fill="none" rx="3" ry="3" style="stroke:#038048;stroke-width:1.0;"/><text fill="#000000" font-family="sans-serif" font-size="14" lengthAdjust="spacing" text-decoration="underline" textLength="51" x="440.5" y="1199.5889">offsets</text><line style="stroke:#181818;stroke-width:0.5;" x1="421.5" x2="616.5" y1="1206.8906" y2="1206.8906"/><ellipse cx="431.5" cy="1220.5391" fill="#84BE84" rx="3" ry="3" style="stroke:#038048;stroke-width:1.0;"/><text fill="#000000" font-family="sans-serif" font-size="14" lengthAdjust="spacing" textLength="33" x="440.5" y="1223.8857">set()</text><ellipse cx="431.5" cy="1236.8359" fill="#84BE84" rx="3" ry="3" style="stroke:#038048;stroke-width:1.0;"/><text fill="#000000" font-family="sans-serif" font-size="14" lengthAdjust="spacing" textLength="84" x="440.5" y="1240.1826">operator[]()</text><ellipse cx="431.5" cy="1253.1328" fill="#84BE84" rx="3" ry="3" style="stroke:#038048;stroke-width:1.0;"/><text fill="#000000" font-family="sans-serif" font-size="14" lengthAdjust="spacing" textLength="85" x="440.5" y="1256.4795">operator=()</text><ellipse cx="431.5" cy="1269.4297" fill="#84BE84" rx="3" ry="3" style="stroke:#038048;stroke-width:1.0;"/><text fill="#000000" font-family="sans-serif" font-size="14" lengthAdjust="spacing" textLength="42" x="440.5" y="1272.7764">data()</text><ellipse cx="431.5" cy="1285.7266" fill="#84BE84" rx="3" ry="3" style="stroke:#038048;stroke-width:1.0;"/><text fill="#000000" font-family="sans-serif" font-size="14" lengthAdjust="spacing" textLength="78" x="440.5" y="1289.0732">sequence()</text><ellipse cx="431.5" cy="1302.0234" fill="#84BE84" rx="3" ry="3" style="stroke:#038048;stroke-width:1.0;"/><text fill="#000000" font-family="sans-serif" font-size="14" lengthAdjust="spacing" textLength="137" x="440.5" y="1305.3701">iterator functions()</text><ellipse cx="431.5" cy="1318.3203" fill="#84BE84" rx="3" ry="3" style="stroke:#038048;stroke-width:1.0;"/><text fill="#000000" font-family="sans-serif" font-size="14" lengthAdjust="spacing" textLength="57" x="440.5" y="1321.667">length()</text><ellipse cx="431.5" cy="1334.6172" fill="#84BE84" rx="3" ry="3" style="stroke:#038048;stroke-width:1.0;"/><text fill="#000000" font-family="sans-serif" font-size="14" lengthAdjust="spacing" textLength="38" x="440.5" y="1337.9639">size()</text><ellipse cx="431.5" cy="1350.9141" fill="#84BE84" rx="3" ry="3" style="stroke:#038048;stroke-width:1.0;"/><text fill="#000000" font-family="sans-serif" font-size="14" lengthAdjust="spacing" textLength="46" x="440.5" y="1354.2607">swap()</text></g><!--class indexed_vector--><g id="elem_indexed_vector"><rect codeLine="63" fill="#F1F1F1" height="178.375" id="indexed_vector" rx="2.5" ry="2.5" style="stroke:#181818;stroke-width:0.5;" width="260" x="38" y="1158.7969"/><ellipse cx="53" cy="1174.7969" fill="#F1F1F1" rx="11" ry="11" style="stroke:#181818;stroke-width:1.0;"/><path d="M56.7813,1170.7656 C56.7813,1170.3281 56.7656,1170.1875 56.6719,1170.0313 C56.5313,1169.7969 56.25,1169.6406 55.9531,1169.6406 C55.6094,1169.6406 55.4688,1169.7813 55.2969,1170.2031 C54.7031,1169.8281 53.9531,1169.6406 53.0781,1169.6406 C50.9688,1169.6406 49.3906,1170.9375 49.3906,1172.6563 C49.3906,1173.625 49.9219,1174.5313 50.7813,1175.0156 C51.3281,1175.3281 51.875,1175.5 52.9844,1175.6875 C54.1406,1175.8906 54.4063,1175.9531 54.7656,1176.1406 C55.1406,1176.3438 55.375,1176.6875 55.375,1177.0469 C55.375,1177.7813 54.3906,1178.3281 53.1406,1178.3281 C52.0156,1178.3281 50.9375,1177.8438 50.7656,1177.2344 C50.6406,1176.7656 50.6406,1176.7656 50.5156,1176.6563 C50.3594,1176.5 50.1406,1176.4063 49.9063,1176.4063 C49.625,1176.4063 49.375,1176.5313 49.2031,1176.75 C49.0938,1176.9219 49.0469,1177.1094 49.0469,1177.5313 L49.0469,1178.6563 C49.0469,1179.4219 49.3281,1179.7813 49.9219,1179.7813 C50.1875,1179.7813 50.3125,1179.7188 50.5938,1179.375 C51.4375,1179.8125 52.3281,1180.0313 53.25,1180.0313 C55.5781,1180.0313 57.1406,1178.8438 57.1406,1177.0781 C57.1406,1176.1875 56.8281,1175.5 56.1406,1174.9531 C55.6094,1174.5313 54.9688,1174.2813 53.4844,1174.0156 C52.2188,1173.7813 52.125,1173.75 51.7969,1173.5781 C51.4219,1173.3906 51.1563,1173 51.1563,1172.6406 C51.1563,1171.9063 52.0156,1171.3438 53.0781,1171.3438 C54.1406,1171.3438 54.9531,1171.8125 55.1094,1172.4844 C55.2188,1173.0313 55.2188,1173.0313 55.3438,1173.1719 C55.4844,1173.2969 55.7188,1173.4063 55.9531,1173.4063 C56.2188,1173.4063 56.4688,1173.2656 56.6406,1173.0469 C56.75,1172.875 56.7813,1172.7344 56.7813,1172.2656 L56.7813,1170.7656 Z " fill="#000000"/><text fill="#000000" font-family="sans-serif" font-size="14" lengthAdjust="spacing" textLength="111" x="67" y="1179.6436">indexed_vector</text><rect fill="#FFFFFF" height="15.9688" style="stroke:#181818;stroke-width:1.0;stroke-dasharray:2.0,2.0;" width="115" x="186" y="1155.7969"/><text fill="#000000" font-family="sans-serif" font-size="12" font-style="italic" lengthAdjust="spacing" textLength="113" x="187" y="1167.9355">T, Size, Count, ...Is</text><line style="stroke:#181818;stroke-width:0.5;" x1="39" x2="297" y1="1190.7969" y2="1190.7969"/><ellipse cx="49" cy="1204.4453" fill="none" rx="3" ry="3" style="stroke:#038048;stroke-width:1.0;"/><text fill="#000000" font-family="sans-serif" font-size="14" lengthAdjust="spacing" textLength="34" x="58" y="1207.792">base</text><ellipse cx="49" cy="1220.7422" fill="none" rx="3" ry="3" style="stroke:#038048;stroke-width:1.0;"/><text fill="#000000" font-family="sans-serif" font-size="14" lengthAdjust="spacing" text-decoration="underline" textLength="51" x="58" y="1224.0889">offsets</text><line style="stroke:#181818;stroke-width:0.5;" x1="39" x2="297" y1="1231.3906" y2="1231.3906"/><ellipse cx="49" cy="1245.0391" fill="#84BE84" rx="3" ry="3" style="stroke:#038048;stroke-width:1.0;"/><text fill="#000000" font-family="sans-serif" font-size="14" lengthAdjust="spacing" textLength="33" x="58" y="1248.3857">set()</text><ellipse cx="49" cy="1261.3359" fill="#84BE84" rx="3" ry="3" style="stroke:#038048;stroke-width:1.0;"/><text fill="#000000" font-family="sans-serif" font-size="14" lengthAdjust="spacing" textLength="84" x="58" y="1264.6826">operator[]()</text><ellipse cx="49" cy="1277.6328" fill="#84BE84" rx="3" ry="3" style="stroke:#038048;stroke-width:1.0;"/><text fill="#000000" font-family="sans-serif" font-size="14" lengthAdjust="spacing" textLength="85" x="58" y="1280.9795">operator=()</text><ellipse cx="49" cy="1293.9297" fill="#84BE84" rx="3" ry="3" style="stroke:#038048;stroke-width:1.0;"/><text fill="#000000" font-family="sans-serif" font-size="14" lengthAdjust="spacing" textLength="42" x="58" y="1297.2764">data()</text><ellipse cx="49" cy="1310.2266" fill="#84BE84" rx="3" ry="3" style="stroke:#038048;stroke-width:1.0;"/><text fill="#000000" font-family="sans-serif" font-size="14" lengthAdjust="spacing" textLength="78" x="58" y="1313.5732">sequence()</text><ellipse cx="49" cy="1326.5234" fill="#84BE84" rx="3" ry="3" style="stroke:#038048;stroke-width:1.0;"/><text fill="#000000" font-family="sans-serif" font-size="14" lengthAdjust="spacing" textLength="137" x="58" y="1329.8701">iterator functions()</text></g><!--class basic_matrix--><g id="elem_basic_matrix"><rect codeLine="74" fill="#F1F1F1" height="227.2656" id="basic_matrix" rx="2.5" ry="2.5" style="stroke:#181818;stroke-width:0.5;" width="205" x="713.5" y="47.2969"/><ellipse cx="728.5" cy="63.2969" fill="#F1F1F1" rx="11" ry="11" style="stroke:#181818;stroke-width:1.0;"/><path d="M732.2813,59.2656 C732.2813,58.8281 732.2656,58.6875 732.1719,58.5313 C732.0313,58.2969 731.75,58.1406 731.4531,58.1406 C731.1094,58.1406 730.9688,58.2813 730.7969,58.7031 C730.2031,58.3281 729.4531,58.1406 728.5781,58.1406 C726.4688,58.1406 724.8906,59.4375 724.8906,61.1563 C724.8906,62.125 725.4219,63.0313 726.2813,63.5156 C726.8281,63.8281 727.375,64 728.4844,64.1875 C729.6406,64.3906 729.9063,64.4531 730.2656,64.6406 C730.6406,64.8438 730.875,65.1875 730.875,65.5469 C730.875,66.2813 729.8906,66.8281 728.6406,66.8281 C727.5156,66.8281 726.4375,66.3438 726.2656,65.7344 C726.1406,65.2656 726.1406,65.2656 726.0156,65.1563 C725.8594,65 725.6406,64.9063 725.4063,64.9063 C725.125,64.9063 724.875,65.0313 724.7031,65.25 C724.5938,65.4219 724.5469,65.6094 724.5469,66.0313 L724.5469,67.1563 C724.5469,67.9219 724.8281,68.2813 725.4219,68.2813 C725.6875,68.2813 725.8125,68.2188 726.0938,67.875 C726.9375,68.3125 727.8281,68.5313 728.75,68.5313 C731.0781,68.5313 732.6406,67.3438 732.6406,65.5781 C732.6406,64.6875 732.3281,64 731.6406,63.4531 C731.1094,63.0313 730.4688,62.7813 728.9844,62.5156 C727.7188,62.2813 727.625,62.25 727.2969,62.0781 C726.9219,61.8906 726.6563,61.5 726.6563,61.1406 C726.6563,60.4063 727.5156,59.8438 728.5781,59.8438 C729.6406,59.8438 730.4531,60.3125 730.6094,60.9844 C730.7188,61.5313 730.7188,61.5313 730.8438,61.6719 C730.9844,61.7969 731.2188,61.9063 731.4531,61.9063 C731.7188,61.9063 731.9688,61.7656 732.1406,61.5469 C732.25,61.375 732.2813,61.2344 732.2813,60.7656 L732.2813,59.2656 Z " fill="#000000"/><text fill="#000000" font-family="sans-serif" font-size="14" lengthAdjust="spacing" textLength="91" x="742.5" y="68.1436">basic_matrix</text><rect fill="#FFFFFF" height="15.9688" style="stroke:#181818;stroke-width:1.0;stroke-dasharray:2.0,2.0;" width="80" x="841.5" y="44.2969"/><text fill="#000000" font-family="sans-serif" font-size="12" font-style="italic" lengthAdjust="spacing" textLength="78" x="842.5" y="56.4355">T, Cols, Rows</text><line style="stroke:#181818;stroke-width:0.5;" x1="714.5" x2="917.5" y1="79.2969" y2="79.2969"/><ellipse cx="724.5" cy="92.9453" fill="none" rx="3" ry="3" style="stroke:#038048;stroke-width:1.0;"/><text fill="#000000" font-family="sans-serif" font-size="14" lengthAdjust="spacing" textLength="59" x="733.5" y="96.292">columns</text><line style="stroke:#181818;stroke-width:0.5;" x1="714.5" x2="917.5" y1="103.5938" y2="103.5938"/><ellipse cx="724.5" cy="117.2422" fill="#84BE84" rx="3" ry="3" style="stroke:#038048;stroke-width:1.0;"/><text fill="#000000" font-family="sans-serif" font-size="14" lengthAdjust="spacing" textLength="36" x="733.5" y="120.5889">row()</text><ellipse cx="724.5" cy="133.5391" fill="#84BE84" rx="3" ry="3" style="stroke:#038048;stroke-width:1.0;"/><text fill="#000000" font-family="sans-serif" font-size="14" lengthAdjust="spacing" textLength="84" x="733.5" y="136.8857">operator[]()</text><ellipse cx="724.5" cy="149.8359" fill="#84BE84" rx="3" ry="3" style="stroke:#038048;stroke-width:1.0;"/><text fill="#000000" font-family="sans-serif" font-size="14" lengthAdjust="spacing" textLength="85" x="733.5" y="153.1826">operator=()</text><ellipse cx="724.5" cy="166.1328" fill="#84BE84" rx="3" ry="3" style="stroke:#038048;stroke-width:1.0;"/><text fill="#000000" font-family="sans-serif" font-size="14" lengthAdjust="spacing" textLength="42" x="733.5" y="169.4795">data()</text><ellipse cx="724.5" cy="182.4297" fill="#84BE84" rx="3" ry="3" style="stroke:#038048;stroke-width:1.0;"/><text fill="#000000" font-family="sans-serif" font-size="14" lengthAdjust="spacing" textLength="137" x="733.5" y="185.7764">iterator functions()</text><ellipse cx="724.5" cy="198.7266" fill="#84BE84" rx="3" ry="3" style="stroke:#038048;stroke-width:1.0;"/><text fill="#000000" font-family="sans-serif" font-size="14" lengthAdjust="spacing" textLength="57" x="733.5" y="202.0732">length()</text><ellipse cx="724.5" cy="215.0234" fill="#84BE84" rx="3" ry="3" style="stroke:#038048;stroke-width:1.0;"/><text fill="#000000" font-family="sans-serif" font-size="14" lengthAdjust="spacing" textLength="116" x="733.5" y="218.3701">column_length()</text><ellipse cx="724.5" cy="231.3203" fill="#84BE84" rx="3" ry="3" style="stroke:#038048;stroke-width:1.0;"/><text fill="#000000" font-family="sans-serif" font-size="14" lengthAdjust="spacing" textLength="38" x="733.5" y="234.667">size()</text><ellipse cx="724.5" cy="247.6172" fill="#84BE84" rx="3" ry="3" style="stroke:#038048;stroke-width:1.0;"/><text fill="#000000" font-family="sans-serif" font-size="14" lengthAdjust="spacing" textLength="97" x="733.5" y="250.9639">column_size()</text><ellipse cx="724.5" cy="263.9141" fill="#84BE84" rx="3" ry="3" style="stroke:#038048;stroke-width:1.0;"/><text fill="#000000" font-family="sans-serif" font-size="14" lengthAdjust="spacing" textLength="46" x="733.5" y="267.2607">swap()</text></g><!--class std::array--><g id="elem_std::array"><rect codeLine="88" fill="#F1F1F1" height="48" id="std::array" rx="2.5" ry="2.5" style="stroke:#181818;stroke-width:0.5;" width="144" x="383" y="1438.2969"/><ellipse cx="398" cy="1454.2969" fill="#ADD1B2" rx="11" ry="11" style="stroke:#181818;stroke-width:1.0;"/><path d="M400.3438,1449.9688 C399.4063,1449.5313 398.8125,1449.3906 397.9375,1449.3906 C395.3125,1449.3906 393.3125,1451.4688 393.3125,1454.1875 L393.3125,1455.3125 C393.3125,1457.8906 395.4219,1459.7813 398.3125,1459.7813 C399.5313,1459.7813 400.6875,1459.4844 401.4375,1458.9375 C402.0156,1458.5313 402.3438,1458.0781 402.3438,1457.6875 C402.3438,1457.2344 401.9531,1456.8438 401.4844,1456.8438 C401.2656,1456.8438 401.0625,1456.9219 400.875,1457.1094 C400.4219,1457.5938 400.4219,1457.5938 400.2344,1457.6875 C399.8125,1457.9531 399.125,1458.0781 398.3594,1458.0781 C396.3125,1458.0781 395.0156,1456.9844 395.0156,1455.2813 L395.0156,1454.1875 C395.0156,1452.4063 396.2656,1451.0938 398,1451.0938 C398.5781,1451.0938 399.1875,1451.25 399.6563,1451.5 C400.1406,1451.7813 400.3125,1452 400.4063,1452.4063 C400.4688,1452.8125 400.5,1452.9375 400.6406,1453.0625 C400.7813,1453.2031 401.0156,1453.3125 401.2344,1453.3125 C401.5,1453.3125 401.7656,1453.1719 401.9375,1452.9531 C402.0469,1452.7969 402.0781,1452.6094 402.0781,1452.1875 L402.0781,1450.7656 C402.0781,1450.3281 402.0625,1450.2031 401.9688,1450.0469 C401.8125,1449.7813 401.5313,1449.6406 401.2344,1449.6406 C400.9375,1449.6406 400.7344,1449.7344 400.5156,1450.0469 L400.3438,1449.9688 Z " fill="#000000"/><text fill="#000000" font-family="sans-serif" font-size="14" lengthAdjust="spacing" textLength="69" x="412" y="1459.1436">std::array</text><rect fill="#FFFFFF" height="15.9688" style="stroke:#181818;stroke-width:1.0;stroke-dasharray:2.0,2.0;" width="41" x="489" y="1435.2969"/><text fill="#000000" font-family="sans-serif" font-size="12" font-style="italic" lengthAdjust="spacing" textLength="39" x="490" y="1447.4355">T, Size</text><line style="stroke:#181818;stroke-width:0.5;" x1="384" x2="526" y1="1470.2969" y2="1470.2969"/><line style="stroke:#181818;stroke-width:0.5;" x1="384" x2="526" y1="1478.2969" y2="1478.2969"/></g><ellipse cx="816" cy="489.2969" fill="#181818" rx="2" ry="2" style="stroke:#181818;stroke-width:1.0;"/><!--reverse link vector_base to basic_vector--><g id="link_vector_base_basic_vector"><path codeLine="91" d="M444.492,644.8179 C450.835,654.9549 457.363,664.8699 464,674.2969 C471.036,684.2899 478.76,694.3669 486.764,704.2389 " fill="none" id="vector_base-backto-basic_vector" style="stroke:#181818;stroke-width:1.0;"/><polygon fill="none" points="438.428,648.3179,434.005,627.5949,450.386,641.0369,438.428,648.3179" style="stroke:#181818;stroke-width:1.0;"/><text fill="#000000" font-family="sans-serif" font-size="13" lengthAdjust="spacing" textLength="85" x="465" y="670.3638">CRTP inherits</text></g><!--reverse link vector_base to indexed_vector--><g id="link_vector_base_indexed_vector"><path codeLine="92" d="M340.355,647.8559 C327.449,724.3529 309.661,817.2469 288,899.2969 C264.295,989.0869 228.772,1089.0649 202.522,1158.6449 " fill="none" id="vector_base-backto-indexed_vector" style="stroke:#181818;stroke-width:1.0;"/><polygon fill="none" points="333.511,646.3409,343.698,627.7599,347.322,648.6379,333.511,646.3409" style="stroke:#181818;stroke-width:1.0;"/><text fill="#000000" font-family="sans-serif" font-size="13" lengthAdjust="spacing" textLength="85" x="280" y="942.3638">CRTP inherits</text></g><!--reverse link CRTP duck type to basic_vector--><g id="link_CRTP duck type_basic_vector"><path codeLine="93" d="M448.483,240.6369 C477.177,272.2169 506.403,310.7269 524,351.2969 C573.485,465.3769 582.043,610.1829 581.364,704.1339 " fill="none" id="CRTP duck type-backto-basic_vector" style="stroke:#181818;stroke-width:1.0;stroke-dasharray:7.0,7.0;"/><polygon fill="none" points="443.063,245.0869,434.493,225.7069,453.278,235.5169,443.063,245.0869" style="stroke:#181818;stroke-width:1.0;"/><text fill="#000000" font-family="sans-serif" font-size="13" lengthAdjust="spacing" textLength="110" x="580" y="493.8638">duck implements</text></g><!--reverse link CRTP duck type to indexed_vector--><g id="link_CRTP duck type_indexed_vector"><path codeLine="94" d="M296.069,240.6469 C254.042,289.6869 207.438,344.6769 204,351.2969 C174.98,407.1669 168,425.3369 168,488.2969 C168,488.2969 168,488.2969 168,1017.7969 C168,1064.3129 168,1116.1429 168,1158.7139 " fill="none" id="CRTP duck type-backto-indexed_vector" style="stroke:#181818;stroke-width:1.0;stroke-dasharray:7.0,7.0;"/><polygon fill="none" points="290.867,235.9569,309.202,225.3369,301.493,245.0769,290.867,235.9569" style="stroke:#181818;stroke-width:1.0;"/><text fill="#000000" font-family="sans-serif" font-size="13" lengthAdjust="spacing" textLength="110" x="169" y="806.3638">duck implements</text></g><!--reverse link basic_vector::anonymous union to storage_wrapper--><g id="link_basic_vector::anonymous union_storage_wrapper"><path codeLine="95" d="M519,1070.6129 C519,1089.5709 519,1111.7449 519,1133.8429 " fill="none" id="basic_vector::anonymous union-backto-storage_wrapper" style="stroke:#181818;stroke-width:1.0;"/><polygon fill="#181818" points="519,1057.4239,515,1063.4239,519,1069.4239,523,1063.4239,519,1057.4239" style="stroke:#181818;stroke-width:1.0;"/><text fill="#000000" font-family="sans-serif" font-size="13" lengthAdjust="spacing" textLength="31" x="520" y="1100.3638">base</text><text fill="#000000" font-family="sans-serif" font-size="13" lengthAdjust="spacing" textLength="8" x="510.3875" y="1076.9015">1</text><text fill="#000000" font-family="sans-serif" font-size="13" lengthAdjust="spacing" textLength="8" x="510.7438" y="1123.1249">1</text></g><!--reverse link basic_vector::anonymous union to indexed_vector--><g id="link_basic_vector::anonymous union_indexed_vector"><path codeLine="96" d="M447.361,1064.5359 C404.446,1092.5339 348.591,1128.9749 298.114,1161.9079 " fill="none" id="basic_vector::anonymous union-backto-indexed_vector" style="stroke:#181818;stroke-width:1.0;"/><polygon fill="#181818" points="458.261,1057.4239,451.0502,1057.3529,448.2114,1063.9817,455.4221,1064.0527,458.261,1057.4239" style="stroke:#181818;stroke-width:1.0;"/><text fill="#000000" font-family="sans-serif" font-size="13" lengthAdjust="spacing" textLength="53" x="406" y="1100.3638">swizzles</text><text fill="#000000" font-family="sans-serif" font-size="13" lengthAdjust="spacing" textLength="8" x="440.3478" y="1076.9015">1</text><text fill="#000000" font-family="sans-serif" font-size="13" lengthAdjust="spacing" textLength="37" x="305.7769" y="1154.1532">many</text></g><!--reverse link basic_vector to basic_vector::anonymous union--><g id="link_basic_vector_basic_vector::anonymous union"><path codeLine="97" d="M528.603,912.0489 C526.871,917.8259 525.318,923.5969 524,929.2969 C520.509,944.3919 519.018,961.3429 518.483,976.2129 " fill="none" id="basic_vector-backto-basic_vector::anonymous union" style="stroke:#181818;stroke-width:1.0;"/><polygon fill="#181818" points="532.655,899.4219,527.0128,903.9125,528.9879,910.8478,534.6301,906.3572,532.655,899.4219" style="stroke:#181818;stroke-width:1.0;"/><text fill="#000000" font-family="sans-serif" font-size="13" lengthAdjust="spacing" textLength="163" x="525" y="942.3638">nested anonymous union</text><text fill="#000000" font-family="sans-serif" font-size="13" lengthAdjust="spacing" textLength="8" x="521.2557" y="918.8966">1</text><text fill="#000000" font-family="sans-serif" font-size="13" lengthAdjust="spacing" textLength="8" x="509.7349" y="965.3605">1</text></g><!--reverse link CRTP duck type to vector_base--><g id="link_CRTP duck type_vector_base"><path codeLine="98" d="M364,230.6269 C364,265.6669 364,309.5369 364,351.0969 " fill="none" id="CRTP duck type-backto-vector_base" style="stroke:#181818;stroke-width:1.0;stroke-dasharray:7.0,7.0;"/><polygon fill="#181818" points="364,225.5269,360,234.5269,364,230.5269,368,234.5269,364,225.5269" style="stroke:#181818;stroke-width:1.0;"/><text fill="#000000" font-family="sans-serif" font-size="13" lengthAdjust="spacing" textLength="88" x="365" y="317.3638">Derived CRTP</text></g><!--reverse link storage_wrapper to std::array--><g id="link_storage_wrapper_std::array"><path codeLine="100" d="M496.078,1374.2609 C492.81,1385.9049 489.13,1397.41 485,1408.2969 C481.138,1418.4794 475.527,1429.0478 470.2,1438.0433 " fill="none" id="storage_wrapper-backto-std::array" style="stroke:#181818;stroke-width:1.0;"/><polygon fill="#181818" points="499.465,1361.5939,494.0507,1366.3568,496.3648,1373.1865,501.7791,1368.4236,499.465,1361.5939" style="stroke:#181818;stroke-width:1.0;"/><text fill="#000000" font-family="sans-serif" font-size="13" lengthAdjust="spacing" textLength="166" x="491" y="1404.3638">offsets&lt;std::size_t, Size&gt;</text><text fill="#000000" font-family="sans-serif" font-size="13" lengthAdjust="spacing" textLength="8" x="489.8837" y="1381.806">1</text><text fill="#000000" font-family="sans-serif" font-size="13" lengthAdjust="spacing" textLength="8" x="464.93" y="1427.3864">1</text></g><!--reverse link storage_wrapper to std::array--><g id="link_storage_wrapper_std::array"><path codeLine="101" d="M411.619,1339.4859 C398.757,1355.3639 387.534,1372.7839 380,1391.2969 C372.279,1410.2688 386.63,1426.3214 404.78,1438.2491 " fill="none" id="storage_wrapper-backto-std::array-1" style="stroke:#181818;stroke-width:1.0;"/><polygon fill="#181818" points="420.285,1329.2799,413.3524,1331.2647,412.5182,1338.4273,419.4507,1336.4426,420.285,1329.2799" style="stroke:#181818;stroke-width:1.0;"/><text fill="#000000" font-family="sans-serif" font-size="13" lengthAdjust="spacing" textLength="95" x="381" y="1404.3638">store&lt;T, Size&gt;</text><text fill="#000000" font-family="sans-serif" font-size="13" lengthAdjust="spacing" textLength="8" x="404.4209" y="1332.006">1</text><text fill="#000000" font-family="sans-serif" font-size="13" lengthAdjust="spacing" textLength="8" x="382.8861" y="1427.2489">1</text></g><!--reverse link basic_vector to std::array--><g id="link_basic_vector_std::array"><path codeLine="102" d="M681.686,906.1489 C686.075,913.6329 689.915,921.3669 693,929.2969 C712.329,978.9759 699.995,1367.2369 666,1408.2969 C648.236,1429.7529 580.896,1444.0788 527.005,1452.3681 " fill="none" id="basic_vector-backto-std::array" style="stroke:#181818;stroke-width:1.0;"/><polygon fill="#181818" points="674.632,894.9899,674.4566,902.1988,681.0436,905.1334,681.219,897.9245,674.632,894.9899" style="stroke:#181818;stroke-width:1.0;"/><text fill="#000000" font-family="sans-serif" font-size="13" lengthAdjust="spacing" textLength="166" x="702" y="1100.3638">offsets&lt;std::size_t, Size&gt;</text><text fill="#000000" font-family="sans-serif" font-size="13" lengthAdjust="spacing" textLength="8" x="682.4132" y="898.6353">1</text><text fill="#000000" font-family="sans-serif" font-size="13" lengthAdjust="spacing" textLength="8" x="534.843" y="1447.6445">1</text></g><!--reverse link indexed_vector to std::array--><g id="link_indexed_vector_std::array"><path codeLine="103" d="M162.772,1350.0039 C166.385,1371.4859 174.149,1392.436 189,1408.2969 C214.908,1435.9673 313.438,1449.7962 382.997,1456.2494 " fill="none" id="indexed_vector-backto-std::array" style="stroke:#181818;stroke-width:1.0;"/><polygon fill="#181818" points="161.067,1336.9659,157.8788,1343.4339,162.6231,1348.8646,165.8113,1342.3965,161.067,1336.9659" style="stroke:#181818;stroke-width:1.0;"/><text fill="#000000" font-family="sans-serif" font-size="13" lengthAdjust="spacing" textLength="178" x="190" y="1404.3638">offsets&lt;std::size_t, Count&gt;</text><text fill="#000000" font-family="sans-serif" font-size="13" lengthAdjust="spacing" textLength="8" x="152.1274" y="1357.3299">1</text><text fill="#000000" font-family="sans-serif" font-size="13" lengthAdjust="spacing" textLength="8" x="367.1592" y="1451.926">1</text></g><!--reverse link indexed_vector to std::array--><g id="link_indexed_vector_std::array"><path codeLine="104" d="M71.3359,1348.3949 C61.6337,1369.2129 60.3334,1390.287 76,1408.2969 C114.972,1453.098 284.299,1461.1748 382.941,1461.9698 " fill="none" id="indexed_vector-backto-std::array-1" style="stroke:#181818;stroke-width:1.0;"/><polygon fill="#181818" points="77.536,1336.8769,71.1697,1340.2637,71.8474,1347.4428,78.2137,1344.0561,77.536,1336.8769" style="stroke:#181818;stroke-width:1.0;"/><text fill="#000000" font-family="sans-serif" font-size="13" lengthAdjust="spacing" textLength="93" x="77" y="1404.3638">base&lt;T, Size&gt;</text><text fill="#000000" font-family="sans-serif" font-size="13" lengthAdjust="spacing" textLength="8" x="61.418" y="1357.2332">1</text><text fill="#000000" font-family="sans-serif" font-size="13" lengthAdjust="spacing" textLength="8" x="367.0974" y="1474.7832">1</text></g><!--reverse link basic_matrix to apoint27--><g id="link_basic_matrix_apoint27"><path d="M816,287.7169 C816,373.6369 816,474.1369 816,486.9339 " fill="none" id="basic_matrix-backto-apoint27" style="stroke:#181818;stroke-width:1.0;"/><polygon fill="#181818" points="816,274.6169,812,280.6169,816,286.6169,820,280.6169,816,274.6169" style="stroke:#181818;stroke-width:1.0;"/><text fill="#000000" font-family="sans-serif" font-size="13" lengthAdjust="spacing" textLength="54" x="817" y="317.3638">columns</text><text fill="#000000" font-family="sans-serif" font-size="13" lengthAdjust="spacing" textLength="8" x="807.7438" y="294.4516">1</text></g><!--link apoint27 to basic_vector--><g id="link_apoint27_basic_vector"><path d="M815.314,491.1879 C806.676,502.4099 718.192,617.3659 651.546,703.9499 " fill="none" id="apoint27-basic_vector" style="stroke:#181818;stroke-width:1.0;"/><text fill="#000000" font-family="sans-serif" font-size="13" lengthAdjust="spacing" textLength="27" x="629.0291" y="693.2973">Cols</text></g><!--link apoint27 to std::array--><g id="link_apoint27_std::array"><path d="M816.575,491.3769 C824.24,505.8859 906,663.8519 906,800.7969 C906,800.7969 906,800.7969 906,1248.7969 C906,1414.1164 654.948,1451.0376 527.461,1459.1287 " fill="none" id="apoint27-std::array" style="stroke:#181818;stroke-width:1.0;stroke-dasharray:7.0,7.0;"/><text fill="#000000" font-family="sans-serif" font-size="13" lengthAdjust="spacing" textLength="261" x="907" y="1021.3638">columns&lt;basic_vector&lt;T, Rows&gt;, Cols&gt;</text></g><!--SRC=[nPLDSzem48RFvbVi-DAa0MPwPGWNSkcjGpFJGwTbXBm6JMJ9bUJmaUQ_TotPu0zeIG_j2VIngtSVlLg_iqz2WT4M1v4JJY8iK38djB8RaLiOmLmoQ-51iBLXsI1YIcddDq0yNpn-WgJWJ-3sESQ3w6KGHNVmmbRM6SRTArXqDxVTIPsZOKwRhz_wQmbph3zhyKU1YcD_HRYG2z92SI-xtFCwY4WbWiJKWKxFA8tcclBbhc0IXA8aAUCu18e2WpGtyLiAcS0A8MC9bhiqCE1tTy13x212bPGXnAvM1C_8ISvonIp2z8iHZgqa9NuS0gLJRWWFQCGp9hEQbfTsukI7FK91_ubD5TIYukVEyw1LYMhjDjN0YaCTnUmo2OhgYJoN-thVHgIrCDuSP4BL_zYktbna5Nj2KH0AOY3uCW2P4e3FTEgnR0-84J-x5OU3H0k58hdXVctfC4vEILCYOqFw8w8UdNhYlXetG7KONSHZjoolr3STtYnXCc5AgtscYqfhtAoboX9gQLAm5ChMkDmQ8ejz4EKw_g-oBxcYWQCgGwW4TvXqhlFewl5u_D7EUa3-TKbTysNC6R6R-jSdxH0MUdjIoRKiCXKq6Rtz2qtNSGtdB2-nhfRFq-U- -rgNaFkCOVksVMX3gz_y72LwgqQjbpUf6eFQq3ClR-1iHFjweHVKxQ3mVJnk7KCXVbLakSGCrSMWtadziD-_EeW_nF1-DFA_dTT5wOBthiwHCRMF-w9EBxbLPFFeFnqn0ONMOGATbJDSfiIbUIsJ-YlXhw7M4Cnyqb1QEkvUmj7KNJ9jQhMVAA9wcbC_MRfmwOuUkpg9xs8DSrwaTlNHdIjvMmxVbTwGfAJUK7_J13vi8RwbLjUEhOXFkvyxtsj2uvdz0W00]--></g></svg>