<svg xmlns="http://www.w3.org/2000/svg" xmlns:xlink="http://www.w3.org/1999/xlink" contentStyleType="text/css" height="1287px" preserveAspectRatio="none" style="width:2267px;height:1287px;background:#FFFFFF;" version="1.1" viewBox="0 0 2267 1287" width="2267px" zoomAndPan="magnify"><defs/><g><text fill="#000000" font-family="sans-serif" font-size="14" font-weight="bold" lengthAdjust="spacing" textLength="208" x="1022.71" y="24.5332">Relationships - Class Diagram</text><!--class CRTP duck type--><g id="elem_CRTP duck type"><rect codeLine="3" fill="#F1F1F1" height="136.0469" id="CRTP duck type" rx="2.5" ry="2.5" style="stroke:#181818;stroke-width:0.5;" width="135" x="964.42" y="145.6094"/><ellipse cx="979.42" cy="161.6094" fill="#E3664A" rx="11" ry="11" style="stroke:#181818;stroke-width:1.0;"/><path d="M981.7638,159.1875 L981.7638,158.6719 Q981.7638,157.8438 981.2794,157.3438 Q980.8106,156.8438 980.0606,156.8438 Q979.4669,156.8438 978.9356,157.25 Q978.4044,157.6406 978.1388,158.2656 Q977.67,159.3594 977.67,160.4688 L977.67,162.9844 Q977.67,164.9063 978.5294,166.0313 Q979.0919,166.7813 980.1075,166.7813 Q980.6544,166.7813 981.0919,166.6406 Q981.545,166.5 981.795,166.25 Q982.045,166 982.2638,166 Q982.5294,166 982.7169,166.1875 Q982.9044,166.375 982.9044,166.6406 Q982.9044,167.0625 982.3263,167.4531 Q981.4981,168.0156 980.0606,168.0156 Q978.9669,168.0156 978.2481,167.5156 Q977.3263,166.875 976.8731,165.6094 Q976.42,164.3438 976.42,163.1094 L976.42,160.375 Q976.42,158.3906 977.4044,157 Q978.3888,155.5938 980.0294,155.5938 Q980.7794,155.5938 981.42,155.9063 Q982.0763,156.2031 982.545,156.9688 Q983.0138,157.7344 983.0138,158.6719 L983.0138,163.2031 Q983.3731,163.375 983.3731,163.7656 Q983.3731,164.0469 983.17,164.2344 Q982.9825,164.4063 982.5138,164.4063 L981.7638,164.4063 L981.7638,164.3594 Q981.3731,164.4219 981.1856,164.4219 Q980.1856,164.4219 979.4356,163.6875 Q978.7013,162.9375 978.7013,161.9375 Q978.7013,160.875 979.5138,160.0781 Q980.3419,159.2813 981.7638,159.1875 Z M981.7638,160.4688 Q980.8731,160.5625 980.4044,160.9844 Q979.9513,161.4063 979.9513,161.9531 Q979.9513,162.4375 980.3263,162.7813 Q980.7169,163.125 981.3575,163.125 Q981.4825,163.125 981.7638,163.1094 L981.7638,160.4688 Z " fill="#000000"/><text fill="#000000" font-family="sans-serif" font-size="14" lengthAdjust="spacing" textLength="103" x="993.42" y="167.3379">CRTP duck type</text><line style="stroke:#181818;stroke-width:0.5;" x1="965.42" x2="1098.42" y1="177.6094" y2="177.6094"/><line style="stroke:#181818;stroke-width:0.5;" x1="965.42" x2="1098.42" y1="185.6094" y2="185.6094"/><ellipse cx="975.42" cy="199.9141" fill="#84BE84" rx="3" ry="3" style="stroke:#038048;stroke-width:1.0;"/><text fill="#000000" font-family="sans-serif" font-size="14" font-style="italic" lengthAdjust="spacing" textLength="29" x="984.42" y="204.1426">set()</text><ellipse cx="975.42" cy="217.5234" fill="#84BE84" rx="3" ry="3" style="stroke:#038048;stroke-width:1.0;"/><text fill="#000000" font-family="sans-serif" font-size="14" font-style="italic" lengthAdjust="spacing" textLength="72" x="984.42" y="221.752">operator[]()</text><ellipse cx="975.42" cy="235.1328" fill="#84BE84" rx="3" ry="3" style="stroke:#038048;stroke-width:1.0;"/><text fill="#000000" font-family="sans-serif" font-size="14" font-style="italic" lengthAdjust="spacing" textLength="38" x="984.42" y="239.3613">data()</text><ellipse cx="975.42" cy="252.7422" fill="#84BE84" rx="3" ry="3" style="stroke:#038048;stroke-width:1.0;"/><text fill="#000000" font-family="sans-serif" font-size="14" font-style="italic" lengthAdjust="spacing" textLength="72" x="984.42" y="256.9707">sequence()</text><ellipse cx="975.42" cy="270.3516" fill="#84BE84" rx="3" ry="3" style="stroke:#038048;stroke-width:1.0;"/><text fill="#000000" font-family="sans-serif" font-size="14" font-style="italic" lengthAdjust="spacing" textLength="103" x="984.42" y="274.5801">iterator access()</text></g><g id="elem_GMN3"><path d="M708.42,192.1094 L708.42,234.8125 A0,0 0 0 0 708.42,234.8125 L929.42,234.8125 A0,0 0 0 0 929.42,234.8125 L929.42,217.6094 L964.36,213.6094 L929.42,209.6094 L929.42,202.1094 L919.42,192.1094 L708.42,192.1094 A0,0 0 0 0 708.42,192.1094 " fill="#FEFFDD" style="stroke:#181818;stroke-width:0.5;"/><path d="M919.42,192.1094 L919.42,202.1094 L929.42,202.1094 L919.42,192.1094 " fill="#FEFFDD" style="stroke:#181818;stroke-width:0.5;"/><text fill="#000000" font-family="sans-serif" font-size="13" lengthAdjust="spacing" textLength="177" x="714.42" y="210.6045">Conceptual interface, not real :</text><text fill="#000000" font-family="sans-serif" font-size="13" lengthAdjust="spacing" textLength="200" x="714.42" y="226.9561">Could be made into a c++ concept</text></g><!--class vector_base--><g id="elem_vector_base"><rect codeLine="15" fill="#F1F1F1" height="329.75" id="vector_base" rx="2.5" ry="2.5" style="stroke:#181818;stroke-width:0.5;" width="260" x="1215.92" y="48.6094"/><ellipse cx="1230.92" cy="64.6094" fill="#A9DCDF" rx="11" ry="11" style="stroke:#181818;stroke-width:1.0;"/><path d="M1233.1075,66.375 L1228.9669,66.375 L1228.545,67.4063 L1228.9669,67.4063 Q1229.5763,67.4063 1229.8419,67.6406 Q1230.1075,67.875 1230.1075,68.2656 Q1230.1075,68.6406 1229.8419,68.875 Q1229.5763,69.1094 1228.9669,69.1094 L1226.67,69.1094 Q1226.0606,69.1094 1225.8106,68.875 Q1225.545,68.6406 1225.545,68.25 Q1225.545,67.875 1225.8263,67.6406 Q1226.0919,67.3906 1226.7169,67.4063 L1229.3888,60.75 L1228.2794,60.75 Q1227.67,60.75 1227.4044,60.5156 Q1227.1388,60.2813 1227.1388,59.8906 Q1227.1388,59.5156 1227.4044,59.2813 Q1227.67,59.0469 1228.2794,59.0469 L1231.9513,59.0469 L1235.3419,67.4063 Q1235.9356,67.4063 1236.1231,67.5469 Q1236.5138,67.8125 1236.5138,68.2656 Q1236.5138,68.6406 1236.2481,68.875 Q1235.9981,69.1094 1235.3888,69.1094 L1233.0919,69.1094 Q1232.4825,69.1094 1232.2169,68.875 Q1231.9513,68.6406 1231.9513,68.25 Q1231.9513,67.875 1232.2169,67.6406 Q1232.4825,67.4063 1233.0919,67.4063 L1233.5138,67.4063 L1233.1075,66.375 Z M1232.3888,64.6719 L1231.0294,61.2969 L1229.6544,64.6719 L1232.3888,64.6719 Z " fill="#000000"/><text fill="#000000" font-family="sans-serif" font-size="14" font-style="italic" lengthAdjust="spacing" textLength="77" x="1244.92" y="70.3379">vector_base</text><rect fill="#FFFFFF" height="17.0938" style="stroke:#181818;stroke-width:1.0;stroke-dasharray:2.0,2.0;" width="149" x="1329.92" y="45.6094"/><text fill="#000000" font-family="sans-serif" font-size="12" font-style="italic" lengthAdjust="spacing" textLength="147" x="1330.92" y="59.0664">Writable, T, Count, Derived</text><line style="stroke:#181818;stroke-width:0.5;" x1="1216.92" x2="1474.92" y1="80.6094" y2="80.6094"/><line style="stroke:#181818;stroke-width:0.5;" x1="1216.92" x2="1474.92" y1="88.6094" y2="88.6094"/><ellipse cx="1226.92" cy="102.9141" fill="#84BE84" rx="3" ry="3" style="stroke:#038048;stroke-width:1.0;"/><text fill="#000000" font-family="sans-serif" font-size="14" lengthAdjust="spacing" textLength="71" x="1235.92" y="107.1426">CRTP set()</text><ellipse cx="1226.92" cy="120.5234" fill="#84BE84" rx="3" ry="3" style="stroke:#038048;stroke-width:1.0;"/><text fill="#000000" font-family="sans-serif" font-size="14" lengthAdjust="spacing" textLength="114" x="1235.92" y="124.752">CRTP operator[]()</text><ellipse cx="1226.92" cy="138.1328" fill="#84BE84" rx="3" ry="3" style="stroke:#038048;stroke-width:1.0;"/><text fill="#000000" font-family="sans-serif" font-size="14" lengthAdjust="spacing" textLength="80" x="1235.92" y="142.3613">CRTP data()</text><ellipse cx="1226.92" cy="155.7422" fill="#84BE84" rx="3" ry="3" style="stroke:#038048;stroke-width:1.0;"/><text fill="#000000" font-family="sans-serif" font-size="14" lengthAdjust="spacing" textLength="114" x="1235.92" y="159.9707">CRTP sequence()</text><ellipse cx="1226.92" cy="173.3516" fill="#84BE84" rx="3" ry="3" style="stroke:#038048;stroke-width:1.0;"/><text fill="#000000" font-family="sans-serif" font-size="14" lengthAdjust="spacing" textLength="145" x="1235.92" y="177.5801">CRTP iterator access()</text><ellipse cx="1226.92" cy="190.9609" fill="#84BE84" rx="3" ry="3" style="stroke:#038048;stroke-width:1.0;"/><text fill="#000000" font-family="sans-serif" font-size="14" lengthAdjust="spacing" textLength="49" x="1235.92" y="195.1895">length()</text><ellipse cx="1226.92" cy="208.5703" fill="#84BE84" rx="3" ry="3" style="stroke:#038048;stroke-width:1.0;"/><text fill="#000000" font-family="sans-serif" font-size="14" lengthAdjust="spacing" textLength="34" x="1235.92" y="212.7988">size()</text><ellipse cx="1226.92" cy="226.1797" fill="#84BE84" rx="3" ry="3" style="stroke:#038048;stroke-width:1.0;"/><text fill="#000000" font-family="sans-serif" font-size="14" lengthAdjust="spacing" textLength="80" x="1235.92" y="230.4082">as_derived()</text><ellipse cx="1226.92" cy="243.7891" fill="#84BE84" rx="3" ry="3" style="stroke:#038048;stroke-width:1.0;"/><text fill="#000000" font-family="sans-serif" font-size="14" lengthAdjust="spacing" textLength="64" x="1235.92" y="248.0176">as_base()</text><ellipse cx="1226.92" cy="261.3984" fill="#84BE84" rx="3" ry="3" style="stroke:#038048;stroke-width:1.0;"/><text fill="#000000" font-family="sans-serif" font-size="14" lengthAdjust="spacing" textLength="44" x="1235.92" y="265.627">apply()</text><ellipse cx="1226.92" cy="279.0078" fill="#84BE84" rx="3" ry="3" style="stroke:#038048;stroke-width:1.0;"/><text fill="#000000" font-family="sans-serif" font-size="14" lengthAdjust="spacing" textLength="46" x="1235.92" y="283.2363">query()</text><ellipse cx="1226.92" cy="296.6172" fill="#84BE84" rx="3" ry="3" style="stroke:#038048;stroke-width:1.0;"/><text fill="#000000" font-family="sans-serif" font-size="14" lengthAdjust="spacing" textLength="36" x="1235.92" y="300.8457">shift()</text><ellipse cx="1226.92" cy="314.2266" fill="#84BE84" rx="3" ry="3" style="stroke:#038048;stroke-width:1.0;"/><text fill="#000000" font-family="sans-serif" font-size="14" lengthAdjust="spacing" textLength="43" x="1235.92" y="318.4551">cshift()</text><ellipse cx="1226.92" cy="331.8359" fill="#84BE84" rx="3" ry="3" style="stroke:#038048;stroke-width:1.0;"/><text fill="#000000" font-family="sans-serif" font-size="14" lengthAdjust="spacing" textLength="32" x="1235.92" y="336.0645">min()</text><ellipse cx="1226.92" cy="349.4453" fill="#84BE84" rx="3" ry="3" style="stroke:#038048;stroke-width:1.0;"/><text fill="#000000" font-family="sans-serif" font-size="14" lengthAdjust="spacing" textLength="35" x="1235.92" y="353.6738">max()</text><ellipse cx="1226.92" cy="367.0547" fill="#84BE84" rx="3" ry="3" style="stroke:#038048;stroke-width:1.0;"/><text fill="#000000" font-family="sans-serif" font-size="14" lengthAdjust="spacing" textLength="36" x="1235.92" y="371.2832">sum()</text></g><!--class indexed_vector_const_iterator--><g id="elem_indexed_vector_const_iterator"><rect codeLine="34" fill="#F1F1F1" height="100.8281" id="indexed_vector_const_iterator" rx="2.5" ry="2.5" style="stroke:#181818;stroke-width:0.5;" width="393" x="1267.42" y="540.1094"/><ellipse cx="1288.72" cy="556.1094" fill="#F1F1F1" rx="11" ry="11" style="stroke:#181818;stroke-width:1.0;"/><path d="M1286.8294,560.6719 Q1286.6106,560.9375 1286.47,561.0156 Q1286.3294,561.0938 1286.1419,561.0938 Q1285.7513,561.0938 1285.5013,560.8281 Q1285.2669,560.5625 1285.2669,559.9688 L1285.2669,558.8125 Q1285.2669,558.2031 1285.5013,557.9531 Q1285.7513,557.6875 1286.1419,557.6875 Q1286.4388,557.6875 1286.6419,557.8438 Q1286.845,558 1286.9544,558.375 Q1287.0638,558.7344 1287.1731,558.875 Q1287.4231,559.125 1288.0325,559.3906 Q1288.6419,559.6563 1289.3763,559.6563 Q1290.5169,559.6563 1291.2356,559.125 Q1291.7044,558.7969 1291.7044,558.3281 Q1291.7044,558.0156 1291.4856,557.7344 Q1291.2669,557.4531 1290.7513,557.2813 Q1290.4231,557.1563 1289.2669,556.9375 Q1287.8763,556.6719 1287.1575,556.3125 Q1286.4388,555.9531 1286.0169,555.2969 Q1285.6106,554.625 1285.6106,553.8438 Q1285.6106,552.625 1286.6263,551.7188 Q1287.6575,550.7969 1289.2981,550.7969 Q1289.9544,550.7969 1290.5013,550.9375 Q1291.0638,551.0781 1291.5325,551.375 Q1291.8606,551.0625 1292.1888,551.0625 Q1292.5638,551.0625 1292.7981,551.3281 Q1293.0325,551.5781 1293.0325,552.1875 L1293.0325,553.4688 Q1293.0325,554.0781 1292.7981,554.3438 Q1292.5638,554.5938 1292.1888,554.5938 Q1291.8763,554.5938 1291.6419,554.4063 Q1291.4544,554.2656 1291.3606,553.8438 Q1291.2825,553.4219 1291.1419,553.2344 Q1290.8919,552.9219 1290.4075,552.7188 Q1289.9388,552.5 1289.2981,552.5 Q1288.3763,552.5 1287.845,552.9219 Q1287.3138,553.3438 1287.3138,553.8125 Q1287.3138,554.125 1287.5325,554.4219 Q1287.7513,554.7188 1288.1731,554.8906 Q1288.4544,555 1289.7513,555.2656 Q1291.0638,555.5156 1291.7669,555.8281 Q1292.47,556.125 1292.9388,556.7813 Q1293.4075,557.4375 1293.4075,558.3438 Q1293.4075,559.6094 1292.5169,560.3594 Q1291.3294,561.3594 1289.5013,561.3594 Q1288.7981,561.3594 1288.1263,561.1875 Q1287.47,561.0156 1286.8294,560.6719 Z " fill="#000000"/><text fill="#000000" font-family="sans-serif" font-size="14" lengthAdjust="spacing" textLength="191" x="1304.12" y="561.8379">indexed_vector_const_iterator</text><rect fill="#FFFFFF" height="17.0938" style="stroke:#181818;stroke-width:1.0;stroke-dasharray:2.0,2.0;" width="154" x="1509.42" y="537.1094"/><text fill="#000000" font-family="sans-serif" font-size="12" font-style="italic" lengthAdjust="spacing" textLength="152" x="1510.42" y="550.5664">Mutable, T, Size, Count, ...Is</text><line style="stroke:#181818;stroke-width:0.5;" x1="1268.42" x2="1659.42" y1="572.1094" y2="572.1094"/><ellipse cx="1278.42" cy="586.4141" fill="none" rx="3" ry="3" style="stroke:#038048;stroke-width:1.0;"/><text fill="#000000" font-family="sans-serif" font-size="14" lengthAdjust="spacing" textLength="367" x="1287.42" y="590.6426">mapper_ptr : const indexed_vector&lt;T, Size, Count, Is ...&gt; *</text><ellipse cx="1278.42" cy="604.0234" fill="none" rx="3" ry="3" style="stroke:#038048;stroke-width:1.0;"/><text fill="#000000" font-family="sans-serif" font-size="14" lengthAdjust="spacing" textLength="176" x="1287.42" y="608.252">mapper_index : std::ptrdiff_t</text><line style="stroke:#181818;stroke-width:0.5;" x1="1268.42" x2="1659.42" y1="615.3281" y2="615.3281"/><ellipse cx="1278.42" cy="629.6328" fill="#84BE84" rx="3" ry="3" style="stroke:#038048;stroke-width:1.0;"/><text fill="#000000" font-family="sans-serif" font-size="14" lengthAdjust="spacing" textLength="116" x="1287.42" y="633.8613">iterator functions()</text></g><!--class indexed_vector_iterator--><g id="elem_indexed_vector_iterator"><rect codeLine="40" fill="#F1F1F1" height="65.6094" id="indexed_vector_iterator" rx="2.5" ry="2.5" style="stroke:#181818;stroke-width:0.5;" width="337" x="1260.42" y="865.6094"/><ellipse cx="1275.42" cy="881.6094" fill="#F1F1F1" rx="11" ry="11" style="stroke:#181818;stroke-width:1.0;"/><path d="M1273.5294,886.1719 Q1273.3106,886.4375 1273.17,886.5156 Q1273.0294,886.5938 1272.8419,886.5938 Q1272.4513,886.5938 1272.2013,886.3281 Q1271.9669,886.0625 1271.9669,885.4688 L1271.9669,884.3125 Q1271.9669,883.7031 1272.2013,883.4531 Q1272.4513,883.1875 1272.8419,883.1875 Q1273.1388,883.1875 1273.3419,883.3438 Q1273.545,883.5 1273.6544,883.875 Q1273.7638,884.2344 1273.8731,884.375 Q1274.1231,884.625 1274.7325,884.8906 Q1275.3419,885.1563 1276.0763,885.1563 Q1277.2169,885.1563 1277.9356,884.625 Q1278.4044,884.2969 1278.4044,883.8281 Q1278.4044,883.5156 1278.1856,883.2344 Q1277.9669,882.9531 1277.4513,882.7813 Q1277.1231,882.6563 1275.9669,882.4375 Q1274.5763,882.1719 1273.8575,881.8125 Q1273.1388,881.4531 1272.7169,880.7969 Q1272.3106,880.125 1272.3106,879.3438 Q1272.3106,878.125 1273.3263,877.2188 Q1274.3575,876.2969 1275.9981,876.2969 Q1276.6544,876.2969 1277.2013,876.4375 Q1277.7638,876.5781 1278.2325,876.875 Q1278.5606,876.5625 1278.8888,876.5625 Q1279.2638,876.5625 1279.4981,876.8281 Q1279.7325,877.0781 1279.7325,877.6875 L1279.7325,878.9688 Q1279.7325,879.5781 1279.4981,879.8438 Q1279.2638,880.0938 1278.8888,880.0938 Q1278.5763,880.0938 1278.3419,879.9063 Q1278.1544,879.7656 1278.0606,879.3438 Q1277.9825,878.9219 1277.8419,878.7344 Q1277.5919,878.4219 1277.1075,878.2188 Q1276.6388,878 1275.9981,878 Q1275.0763,878 1274.545,878.4219 Q1274.0138,878.8438 1274.0138,879.3125 Q1274.0138,879.625 1274.2325,879.9219 Q1274.4513,880.2188 1274.8731,880.3906 Q1275.1544,880.5 1276.4513,880.7656 Q1277.7638,881.0156 1278.4669,881.3281 Q1279.17,881.625 1279.6388,882.2813 Q1280.1075,882.9375 1280.1075,883.8438 Q1280.1075,885.1094 1279.2169,885.8594 Q1278.0294,886.8594 1276.2013,886.8594 Q1275.4981,886.8594 1274.8263,886.6875 Q1274.17,886.5156 1273.5294,886.1719 Z " fill="#000000"/><text fill="#000000" font-family="sans-serif" font-size="14" lengthAdjust="spacing" textLength="149" x="1289.42" y="887.3379">indexed_vector_iterator</text><rect fill="#FFFFFF" height="17.0938" style="stroke:#181818;stroke-width:1.0;stroke-dasharray:2.0,2.0;" width="154" x="1446.42" y="862.6094"/><text fill="#000000" font-family="sans-serif" font-size="12" font-style="italic" lengthAdjust="spacing" textLength="152" x="1447.42" y="876.0664">Mutable, T, Size, Count, ...Is</text><line style="stroke:#181818;stroke-width:0.5;" x1="1261.42" x2="1596.42" y1="897.6094" y2="897.6094"/><line style="stroke:#181818;stroke-width:0.5;" x1="1261.42" x2="1596.42" y1="905.6094" y2="905.6094"/><ellipse cx="1271.42" cy="919.9141" fill="#84BE84" rx="3" ry="3" style="stroke:#038048;stroke-width:1.0;"/><text fill="#000000" font-family="sans-serif" font-size="14" lengthAdjust="spacing" textLength="116" x="1280.42" y="924.1426">iterator functions()</text></g><!--class indexed_view_const_iterator--><g id="elem_indexed_view_const_iterator"><rect codeLine="44" fill="#F1F1F1" height="100.8281" id="indexed_view_const_iterator" rx="2.5" ry="2.5" style="stroke:#181818;stroke-width:0.5;" width="381" x="241.42" y="540.1094"/><ellipse cx="262.72" cy="556.1094" fill="#F1F1F1" rx="11" ry="11" style="stroke:#181818;stroke-width:1.0;"/><path d="M260.8294,560.6719 Q260.6106,560.9375 260.47,561.0156 Q260.3294,561.0938 260.1419,561.0938 Q259.7513,561.0938 259.5013,560.8281 Q259.2669,560.5625 259.2669,559.9688 L259.2669,558.8125 Q259.2669,558.2031 259.5013,557.9531 Q259.7513,557.6875 260.1419,557.6875 Q260.4388,557.6875 260.6419,557.8438 Q260.845,558 260.9544,558.375 Q261.0638,558.7344 261.1731,558.875 Q261.4231,559.125 262.0325,559.3906 Q262.6419,559.6563 263.3763,559.6563 Q264.5169,559.6563 265.2356,559.125 Q265.7044,558.7969 265.7044,558.3281 Q265.7044,558.0156 265.4856,557.7344 Q265.2669,557.4531 264.7513,557.2813 Q264.4231,557.1563 263.2669,556.9375 Q261.8763,556.6719 261.1575,556.3125 Q260.4388,555.9531 260.0169,555.2969 Q259.6106,554.625 259.6106,553.8438 Q259.6106,552.625 260.6263,551.7188 Q261.6575,550.7969 263.2981,550.7969 Q263.9544,550.7969 264.5013,550.9375 Q265.0638,551.0781 265.5325,551.375 Q265.8606,551.0625 266.1888,551.0625 Q266.5638,551.0625 266.7981,551.3281 Q267.0325,551.5781 267.0325,552.1875 L267.0325,553.4688 Q267.0325,554.0781 266.7981,554.3438 Q266.5638,554.5938 266.1888,554.5938 Q265.8763,554.5938 265.6419,554.4063 Q265.4544,554.2656 265.3606,553.8438 Q265.2825,553.4219 265.1419,553.2344 Q264.8919,552.9219 264.4075,552.7188 Q263.9388,552.5 263.2981,552.5 Q262.3763,552.5 261.845,552.9219 Q261.3138,553.3438 261.3138,553.8125 Q261.3138,554.125 261.5325,554.4219 Q261.7513,554.7188 262.1731,554.8906 Q262.4544,555 263.7513,555.2656 Q265.0638,555.5156 265.7669,555.8281 Q266.47,556.125 266.9388,556.7813 Q267.4075,557.4375 267.4075,558.3438 Q267.4075,559.6094 266.5169,560.3594 Q265.3294,561.3594 263.5013,561.3594 Q262.7981,561.3594 262.1263,561.1875 Q261.47,561.0156 260.8294,560.6719 Z " fill="#000000"/><text fill="#000000" font-family="sans-serif" font-size="14" lengthAdjust="spacing" textLength="179" x="278.12" y="561.8379">indexed_view_const_iterator</text><rect fill="#FFFFFF" height="17.0938" style="stroke:#181818;stroke-width:1.0;stroke-dasharray:2.0,2.0;" width="154" x="471.42" y="537.1094"/><text fill="#000000" font-family="sans-serif" font-size="12" font-style="italic" lengthAdjust="spacing" textLength="152" x="472.42" y="550.5664">Mutable, T, Size, Count, ...Is</text><line style="stroke:#181818;stroke-width:0.5;" x1="242.42" x2="621.42" y1="572.1094" y2="572.1094"/><ellipse cx="252.42" cy="586.4141" fill="none" rx="3" ry="3" style="stroke:#038048;stroke-width:1.0;"/><text fill="#000000" font-family="sans-serif" font-size="14" lengthAdjust="spacing" textLength="355" x="261.42" y="590.6426">mapper_ptr : const indexed_view&lt;T, Size, Count, Is ...&gt; *</text><ellipse cx="252.42" cy="604.0234" fill="none" rx="3" ry="3" style="stroke:#038048;stroke-width:1.0;"/><text fill="#000000" font-family="sans-serif" font-size="14" lengthAdjust="spacing" textLength="176" x="261.42" y="608.252">mapper_index : std::ptrdiff_t</text><line style="stroke:#181818;stroke-width:0.5;" x1="242.42" x2="621.42" y1="615.3281" y2="615.3281"/><ellipse cx="252.42" cy="629.6328" fill="#84BE84" rx="3" ry="3" style="stroke:#038048;stroke-width:1.0;"/><text fill="#000000" font-family="sans-serif" font-size="14" lengthAdjust="spacing" textLength="116" x="261.42" y="633.8613">iterator functions()</text></g><!--class indexed_view_iterator--><g id="elem_indexed_view_iterator"><rect codeLine="50" fill="#F1F1F1" height="65.6094" id="indexed_view_iterator" rx="2.5" ry="2.5" style="stroke:#181818;stroke-width:0.5;" width="325" x="146.42" y="865.6094"/><ellipse cx="161.42" cy="881.6094" fill="#F1F1F1" rx="11" ry="11" style="stroke:#181818;stroke-width:1.0;"/><path d="M159.5294,886.1719 Q159.3106,886.4375 159.17,886.5156 Q159.0294,886.5938 158.8419,886.5938 Q158.4513,886.5938 158.2013,886.3281 Q157.9669,886.0625 157.9669,885.4688 L157.9669,884.3125 Q157.9669,883.7031 158.2013,883.4531 Q158.4513,883.1875 158.8419,883.1875 Q159.1388,883.1875 159.3419,883.3438 Q159.545,883.5 159.6544,883.875 Q159.7638,884.2344 159.8731,884.375 Q160.1231,884.625 160.7325,884.8906 Q161.3419,885.1563 162.0763,885.1563 Q163.2169,885.1563 163.9356,884.625 Q164.4044,884.2969 164.4044,883.8281 Q164.4044,883.5156 164.1856,883.2344 Q163.9669,882.9531 163.4513,882.7813 Q163.1231,882.6563 161.9669,882.4375 Q160.5763,882.1719 159.8575,881.8125 Q159.1388,881.4531 158.7169,880.7969 Q158.3106,880.125 158.3106,879.3438 Q158.3106,878.125 159.3263,877.2188 Q160.3575,876.2969 161.9981,876.2969 Q162.6544,876.2969 163.2013,876.4375 Q163.7638,876.5781 164.2325,876.875 Q164.5606,876.5625 164.8888,876.5625 Q165.2638,876.5625 165.4981,876.8281 Q165.7325,877.0781 165.7325,877.6875 L165.7325,878.9688 Q165.7325,879.5781 165.4981,879.8438 Q165.2638,880.0938 164.8888,880.0938 Q164.5763,880.0938 164.3419,879.9063 Q164.1544,879.7656 164.0606,879.3438 Q163.9825,878.9219 163.8419,878.7344 Q163.5919,878.4219 163.1075,878.2188 Q162.6388,878 161.9981,878 Q161.0763,878 160.545,878.4219 Q160.0138,878.8438 160.0138,879.3125 Q160.0138,879.625 160.2325,879.9219 Q160.4513,880.2188 160.8731,880.3906 Q161.1544,880.5 162.4513,880.7656 Q163.7638,881.0156 164.4669,881.3281 Q165.17,881.625 165.6388,882.2813 Q166.1075,882.9375 166.1075,883.8438 Q166.1075,885.1094 165.2169,885.8594 Q164.0294,886.8594 162.2013,886.8594 Q161.4981,886.8594 160.8263,886.6875 Q160.17,886.5156 159.5294,886.1719 Z " fill="#000000"/><text fill="#000000" font-family="sans-serif" font-size="14" lengthAdjust="spacing" textLength="137" x="175.42" y="887.3379">indexed_view_iterator</text><rect fill="#FFFFFF" height="17.0938" style="stroke:#181818;stroke-width:1.0;stroke-dasharray:2.0,2.0;" width="154" x="320.42" y="862.6094"/><text fill="#000000" font-family="sans-serif" font-size="12" font-style="italic" lengthAdjust="spacing" textLength="152" x="321.42" y="876.0664">Mutable, T, Size, Count, ...Is</text><line style="stroke:#181818;stroke-width:0.5;" x1="147.42" x2="470.42" y1="897.6094" y2="897.6094"/><line style="stroke:#181818;stroke-width:0.5;" x1="147.42" x2="470.42" y1="905.6094" y2="905.6094"/><ellipse cx="157.42" cy="919.9141" fill="#84BE84" rx="3" ry="3" style="stroke:#038048;stroke-width:1.0;"/><text fill="#000000" font-family="sans-serif" font-size="14" lengthAdjust="spacing" textLength="116" x="166.42" y="924.1426">iterator functions()</text></g><!--class basic_vector--><g id="elem_basic_vector"><rect codeLine="54" fill="#F1F1F1" height="206.4844" id="basic_vector" rx="2.5" ry="2.5" style="stroke:#181818;stroke-width:0.5;" width="199" x="1711.42" y="487.1094"/><ellipse cx="1746.67" cy="503.1094" fill="#F1F1F1" rx="11" ry="11" style="stroke:#181818;stroke-width:1.0;"/><path d="M1744.7794,507.6719 Q1744.5606,507.9375 1744.42,508.0156 Q1744.2794,508.0938 1744.0919,508.0938 Q1743.7013,508.0938 1743.4513,507.8281 Q1743.2169,507.5625 1743.2169,506.9688 L1743.2169,505.8125 Q1743.2169,505.2031 1743.4513,504.9531 Q1743.7013,504.6875 1744.0919,504.6875 Q1744.3888,504.6875 1744.5919,504.8438 Q1744.795,505 1744.9044,505.375 Q1745.0138,505.7344 1745.1231,505.875 Q1745.3731,506.125 1745.9825,506.3906 Q1746.5919,506.6563 1747.3263,506.6563 Q1748.4669,506.6563 1749.1856,506.125 Q1749.6544,505.7969 1749.6544,505.3281 Q1749.6544,505.0156 1749.4356,504.7344 Q1749.2169,504.4531 1748.7013,504.2813 Q1748.3731,504.1563 1747.2169,503.9375 Q1745.8263,503.6719 1745.1075,503.3125 Q1744.3888,502.9531 1743.9669,502.2969 Q1743.5606,501.625 1743.5606,500.8438 Q1743.5606,499.625 1744.5763,498.7188 Q1745.6075,497.7969 1747.2481,497.7969 Q1747.9044,497.7969 1748.4513,497.9375 Q1749.0138,498.0781 1749.4825,498.375 Q1749.8106,498.0625 1750.1388,498.0625 Q1750.5138,498.0625 1750.7481,498.3281 Q1750.9825,498.5781 1750.9825,499.1875 L1750.9825,500.4688 Q1750.9825,501.0781 1750.7481,501.3438 Q1750.5138,501.5938 1750.1388,501.5938 Q1749.8263,501.5938 1749.5919,501.4063 Q1749.4044,501.2656 1749.3106,500.8438 Q1749.2325,500.4219 1749.0919,500.2344 Q1748.8419,499.9219 1748.3575,499.7188 Q1747.8888,499.5 1747.2481,499.5 Q1746.3263,499.5 1745.795,499.9219 Q1745.2638,500.3438 1745.2638,500.8125 Q1745.2638,501.125 1745.4825,501.4219 Q1745.7013,501.7188 1746.1231,501.8906 Q1746.4044,502 1747.7013,502.2656 Q1749.0138,502.5156 1749.7169,502.8281 Q1750.42,503.125 1750.8888,503.7813 Q1751.3575,504.4375 1751.3575,505.3438 Q1751.3575,506.6094 1750.4669,507.3594 Q1749.2794,508.3594 1747.4513,508.3594 Q1746.7481,508.3594 1746.0763,508.1875 Q1745.42,508.0156 1744.7794,507.6719 Z " fill="#000000"/><text fill="#000000" font-family="sans-serif" font-size="14" lengthAdjust="spacing" textLength="80" x="1765.17" y="508.8379">basic_vector</text><rect fill="#FFFFFF" height="17.0938" style="stroke:#181818;stroke-width:1.0;stroke-dasharray:2.0,2.0;" width="40" x="1873.42" y="484.1094"/><text fill="#000000" font-family="sans-serif" font-size="12" font-style="italic" lengthAdjust="spacing" textLength="38" x="1874.42" y="497.5664">T, Size</text><line style="stroke:#181818;stroke-width:0.5;" x1="1712.42" x2="1909.42" y1="519.1094" y2="519.1094"/><ellipse cx="1722.42" cy="533.4141" fill="none" rx="3" ry="3" style="stroke:#038048;stroke-width:1.0;"/><text fill="#000000" font-family="sans-serif" font-size="14" lengthAdjust="spacing" textLength="35" x="1731.42" y="537.6426">union</text><ellipse cx="1722.42" cy="551.0234" fill="none" rx="3" ry="3" style="stroke:#038048;stroke-width:1.0;"/><text fill="#000000" font-family="sans-serif" font-size="14" lengthAdjust="spacing" text-decoration="underline" textLength="173" x="1731.42" y="555.252">offsets : std::array&lt;T, Size&gt;</text><line style="stroke:#181818;stroke-width:0.5;" x1="1712.42" x2="1909.42" y1="562.3281" y2="562.3281"/><ellipse cx="1722.42" cy="576.6328" fill="#84BE84" rx="3" ry="3" style="stroke:#038048;stroke-width:1.0;"/><text fill="#000000" font-family="sans-serif" font-size="14" lengthAdjust="spacing" textLength="29" x="1731.42" y="580.8613">set()</text><ellipse cx="1722.42" cy="594.2422" fill="#84BE84" rx="3" ry="3" style="stroke:#038048;stroke-width:1.0;"/><text fill="#000000" font-family="sans-serif" font-size="14" lengthAdjust="spacing" textLength="72" x="1731.42" y="598.4707">operator[]()</text><ellipse cx="1722.42" cy="611.8516" fill="#84BE84" rx="3" ry="3" style="stroke:#038048;stroke-width:1.0;"/><text fill="#000000" font-family="sans-serif" font-size="14" lengthAdjust="spacing" textLength="72" x="1731.42" y="616.0801">operator=()</text><ellipse cx="1722.42" cy="629.4609" fill="#84BE84" rx="3" ry="3" style="stroke:#038048;stroke-width:1.0;"/><text fill="#000000" font-family="sans-serif" font-size="14" lengthAdjust="spacing" textLength="38" x="1731.42" y="633.6895">data()</text><ellipse cx="1722.42" cy="647.0703" fill="#84BE84" rx="3" ry="3" style="stroke:#038048;stroke-width:1.0;"/><text fill="#000000" font-family="sans-serif" font-size="14" lengthAdjust="spacing" textLength="72" x="1731.42" y="651.2988">sequence()</text><ellipse cx="1722.42" cy="664.6797" fill="#84BE84" rx="3" ry="3" style="stroke:#038048;stroke-width:1.0;"/><text fill="#000000" font-family="sans-serif" font-size="14" lengthAdjust="spacing" textLength="103" x="1731.42" y="668.9082">iterator access()</text><ellipse cx="1722.42" cy="682.2891" fill="#84BE84" rx="3" ry="3" style="stroke:#038048;stroke-width:1.0;"/><text fill="#000000" font-family="sans-serif" font-size="14" lengthAdjust="spacing" textLength="42" x="1731.42" y="686.5176">swap()</text></g><!--class basic_view--><g id="elem_basic_view"><rect codeLine="66" fill="#F1F1F1" height="259.3125" id="basic_view" rx="2.5" ry="2.5" style="stroke:#181818;stroke-width:0.5;" width="199" x="730.42" y="460.6094"/><ellipse cx="748.57" cy="476.6094" fill="#F1F1F1" rx="11" ry="11" style="stroke:#181818;stroke-width:1.0;"/><path d="M746.6794,481.1719 Q746.4606,481.4375 746.32,481.5156 Q746.1794,481.5938 745.9919,481.5938 Q745.6012,481.5938 745.3512,481.3281 Q745.1169,481.0625 745.1169,480.4688 L745.1169,479.3125 Q745.1169,478.7031 745.3512,478.4531 Q745.6012,478.1875 745.9919,478.1875 Q746.2887,478.1875 746.4919,478.3438 Q746.695,478.5 746.8044,478.875 Q746.9137,479.2344 747.0231,479.375 Q747.2731,479.625 747.8825,479.8906 Q748.4919,480.1563 749.2262,480.1563 Q750.3669,480.1563 751.0856,479.625 Q751.5544,479.2969 751.5544,478.8281 Q751.5544,478.5156 751.3356,478.2344 Q751.1169,477.9531 750.6012,477.7813 Q750.2731,477.6563 749.1169,477.4375 Q747.7262,477.1719 747.0075,476.8125 Q746.2887,476.4531 745.8669,475.7969 Q745.4606,475.125 745.4606,474.3438 Q745.4606,473.125 746.4762,472.2188 Q747.5075,471.2969 749.1481,471.2969 Q749.8044,471.2969 750.3512,471.4375 Q750.9137,471.5781 751.3825,471.875 Q751.7106,471.5625 752.0387,471.5625 Q752.4137,471.5625 752.6481,471.8281 Q752.8825,472.0781 752.8825,472.6875 L752.8825,473.9688 Q752.8825,474.5781 752.6481,474.8438 Q752.4137,475.0938 752.0387,475.0938 Q751.7262,475.0938 751.4919,474.9063 Q751.3044,474.7656 751.2106,474.3438 Q751.1325,473.9219 750.9919,473.7344 Q750.7419,473.4219 750.2575,473.2188 Q749.7887,473 749.1481,473 Q748.2262,473 747.695,473.4219 Q747.1637,473.8438 747.1637,474.3125 Q747.1637,474.625 747.3825,474.9219 Q747.6012,475.2188 748.0231,475.3906 Q748.3044,475.5 749.6012,475.7656 Q750.9137,476.0156 751.6169,476.3281 Q752.32,476.625 752.7887,477.2813 Q753.2575,477.9375 753.2575,478.8438 Q753.2575,480.1094 752.3669,480.8594 Q751.1794,481.8594 749.3512,481.8594 Q748.6481,481.8594 747.9762,481.6875 Q747.32,481.5156 746.6794,481.1719 Z " fill="#000000"/><text fill="#000000" font-family="sans-serif" font-size="14" lengthAdjust="spacing" textLength="68" x="763.27" y="482.3379">basic_view</text><rect fill="#FFFFFF" height="17.0938" style="stroke:#181818;stroke-width:1.0;stroke-dasharray:2.0,2.0;" width="90" x="842.42" y="457.6094"/><text fill="#000000" font-family="sans-serif" font-size="12" font-style="italic" lengthAdjust="spacing" textLength="88" x="843.42" y="471.0664">Mutable, T, Size</text><line style="stroke:#181818;stroke-width:0.5;" x1="731.42" x2="928.42" y1="492.6094" y2="492.6094"/><ellipse cx="741.42" cy="506.9141" fill="none" rx="3" ry="3" style="stroke:#038048;stroke-width:1.0;"/><text fill="#000000" font-family="sans-serif" font-size="14" lengthAdjust="spacing" textLength="35" x="750.42" y="511.1426">union</text><ellipse cx="741.42" cy="524.5234" fill="none" rx="3" ry="3" style="stroke:#038048;stroke-width:1.0;"/><text fill="#000000" font-family="sans-serif" font-size="14" lengthAdjust="spacing" text-decoration="underline" textLength="173" x="750.42" y="528.752">offsets : std::array&lt;T, Size&gt;</text><line style="stroke:#181818;stroke-width:0.5;" x1="731.42" x2="928.42" y1="535.8281" y2="535.8281"/><ellipse cx="741.42" cy="550.1328" fill="#84BE84" rx="3" ry="3" style="stroke:#038048;stroke-width:1.0;"/><text fill="#000000" font-family="sans-serif" font-size="14" lengthAdjust="spacing" textLength="96" x="750.42" y="554.3613">basic_view(T *)</text><ellipse cx="741.42" cy="567.7422" fill="#84BE84" rx="3" ry="3" style="stroke:#038048;stroke-width:1.0;"/><text fill="#000000" font-family="sans-serif" font-size="14" lengthAdjust="spacing" textLength="134" x="750.42" y="571.9707">basic_view(const T *)</text><ellipse cx="741.42" cy="585.3516" fill="#84BE84" rx="3" ry="3" style="stroke:#038048;stroke-width:1.0;"/><text fill="#000000" font-family="sans-serif" font-size="14" lengthAdjust="spacing" textLength="42" x="750.42" y="589.5801">reset()</text><ellipse cx="741.42" cy="602.9609" fill="#84BE84" rx="3" ry="3" style="stroke:#038048;stroke-width:1.0;"/><text fill="#000000" font-family="sans-serif" font-size="14" lengthAdjust="spacing" textLength="29" x="750.42" y="607.1895">set()</text><ellipse cx="741.42" cy="620.5703" fill="#84BE84" rx="3" ry="3" style="stroke:#038048;stroke-width:1.0;"/><text fill="#000000" font-family="sans-serif" font-size="14" lengthAdjust="spacing" textLength="72" x="750.42" y="624.7988">operator[]()</text><ellipse cx="741.42" cy="638.1797" fill="#84BE84" rx="3" ry="3" style="stroke:#038048;stroke-width:1.0;"/><text fill="#000000" font-family="sans-serif" font-size="14" lengthAdjust="spacing" textLength="72" x="750.42" y="642.4082">operator=()</text><ellipse cx="741.42" cy="655.7891" fill="#84BE84" rx="3" ry="3" style="stroke:#038048;stroke-width:1.0;"/><text fill="#000000" font-family="sans-serif" font-size="14" lengthAdjust="spacing" textLength="38" x="750.42" y="660.0176">data()</text><ellipse cx="741.42" cy="673.3984" fill="#84BE84" rx="3" ry="3" style="stroke:#038048;stroke-width:1.0;"/><text fill="#000000" font-family="sans-serif" font-size="14" lengthAdjust="spacing" textLength="72" x="750.42" y="677.627">sequence()</text><ellipse cx="741.42" cy="691.0078" fill="#84BE84" rx="3" ry="3" style="stroke:#038048;stroke-width:1.0;"/><text fill="#000000" font-family="sans-serif" font-size="14" lengthAdjust="spacing" textLength="103" x="750.42" y="695.2363">iterator access()</text><ellipse cx="741.42" cy="708.6172" fill="#84BE84" rx="3" ry="3" style="stroke:#038048;stroke-width:1.0;"/><text fill="#000000" font-family="sans-serif" font-size="14" lengthAdjust="spacing" textLength="42" x="750.42" y="712.8457">swap()</text></g><!--class basic_vector::anonymous_union--><g id="elem_basic_vector::anonymous_union"><rect codeLine="81" fill="#F1F1F1" height="83.2188" id="basic_vector::anonymous_union" rx="2.5" ry="2.5" style="stroke:#181818;stroke-width:0.5;" width="236" x="1785.92" y="856.6094"/><ellipse cx="1800.92" cy="872.6094" fill="#E3664A" rx="11" ry="11" style="stroke:#181818;stroke-width:1.0;"/><path d="M1803.2638,870.1875 L1803.2638,869.6719 Q1803.2638,868.8438 1802.7794,868.3438 Q1802.3106,867.8438 1801.5606,867.8438 Q1800.9669,867.8438 1800.4356,868.25 Q1799.9044,868.6406 1799.6388,869.2656 Q1799.17,870.3594 1799.17,871.4688 L1799.17,873.9844 Q1799.17,875.9063 1800.0294,877.0313 Q1800.5919,877.7813 1801.6075,877.7813 Q1802.1544,877.7813 1802.5919,877.6406 Q1803.045,877.5 1803.295,877.25 Q1803.545,877 1803.7638,877 Q1804.0294,877 1804.2169,877.1875 Q1804.4044,877.375 1804.4044,877.6406 Q1804.4044,878.0625 1803.8263,878.4531 Q1802.9981,879.0156 1801.5606,879.0156 Q1800.4669,879.0156 1799.7481,878.5156 Q1798.8263,877.875 1798.3731,876.6094 Q1797.92,875.3438 1797.92,874.1094 L1797.92,871.375 Q1797.92,869.3906 1798.9044,868 Q1799.8888,866.5938 1801.5294,866.5938 Q1802.2794,866.5938 1802.92,866.9063 Q1803.5763,867.2031 1804.045,867.9688 Q1804.5138,868.7344 1804.5138,869.6719 L1804.5138,874.2031 Q1804.8731,874.375 1804.8731,874.7656 Q1804.8731,875.0469 1804.67,875.2344 Q1804.4825,875.4063 1804.0138,875.4063 L1803.2638,875.4063 L1803.2638,875.3594 Q1802.8731,875.4219 1802.6856,875.4219 Q1801.6856,875.4219 1800.9356,874.6875 Q1800.2013,873.9375 1800.2013,872.9375 Q1800.2013,871.875 1801.0138,871.0781 Q1801.8419,870.2813 1803.2638,870.1875 Z M1803.2638,871.4688 Q1802.3731,871.5625 1801.9044,871.9844 Q1801.4513,872.4063 1801.4513,872.9531 Q1801.4513,873.4375 1801.8263,873.7813 Q1802.2169,874.125 1802.8575,874.125 Q1802.9825,874.125 1803.2638,874.1094 L1803.2638,871.4688 Z " fill="#000000"/><text fill="#000000" font-family="sans-serif" font-size="14" lengthAdjust="spacing" textLength="204" x="1814.92" y="878.3379">basic_vector::anonymous_union</text><line style="stroke:#181818;stroke-width:0.5;" x1="1786.92" x2="2020.92" y1="888.6094" y2="888.6094"/><ellipse cx="1796.92" cy="902.9141" fill="none" rx="3" ry="3" style="stroke:#038048;stroke-width:1.0;"/><text fill="#000000" font-family="sans-serif" font-size="14" lengthAdjust="spacing" textLength="31" x="1805.92" y="907.1426">base</text><ellipse cx="1796.92" cy="920.5234" fill="none" rx="3" ry="3" style="stroke:#038048;stroke-width:1.0;"/><text fill="#000000" font-family="sans-serif" font-size="14" lengthAdjust="spacing" textLength="49" x="1805.92" y="924.752">swizzles</text><line style="stroke:#181818;stroke-width:0.5;" x1="1786.92" x2="2020.92" y1="931.8281" y2="931.8281"/></g><!--class basic_view::anonymous_union--><g id="elem_basic_view::anonymous_union"><rect codeLine="86" fill="#F1F1F1" height="83.2188" id="basic_view::anonymous_union" rx="2.5" ry="2.5" style="stroke:#181818;stroke-width:0.5;" width="224" x="659.92" y="856.6094"/><ellipse cx="674.92" cy="872.6094" fill="#E3664A" rx="11" ry="11" style="stroke:#181818;stroke-width:1.0;"/><path d="M677.2638,870.1875 L677.2638,869.6719 Q677.2638,868.8438 676.7794,868.3438 Q676.3106,867.8438 675.5606,867.8438 Q674.9669,867.8438 674.4356,868.25 Q673.9044,868.6406 673.6388,869.2656 Q673.17,870.3594 673.17,871.4688 L673.17,873.9844 Q673.17,875.9063 674.0294,877.0313 Q674.5919,877.7813 675.6075,877.7813 Q676.1544,877.7813 676.5919,877.6406 Q677.045,877.5 677.295,877.25 Q677.545,877 677.7638,877 Q678.0294,877 678.2169,877.1875 Q678.4044,877.375 678.4044,877.6406 Q678.4044,878.0625 677.8263,878.4531 Q676.9981,879.0156 675.5606,879.0156 Q674.4669,879.0156 673.7481,878.5156 Q672.8263,877.875 672.3731,876.6094 Q671.92,875.3438 671.92,874.1094 L671.92,871.375 Q671.92,869.3906 672.9044,868 Q673.8888,866.5938 675.5294,866.5938 Q676.2794,866.5938 676.92,866.9063 Q677.5763,867.2031 678.045,867.9688 Q678.5138,868.7344 678.5138,869.6719 L678.5138,874.2031 Q678.8731,874.375 678.8731,874.7656 Q678.8731,875.0469 678.67,875.2344 Q678.4825,875.4063 678.0138,875.4063 L677.2638,875.4063 L677.2638,875.3594 Q676.8731,875.4219 676.6856,875.4219 Q675.6856,875.4219 674.9356,874.6875 Q674.2013,873.9375 674.2013,872.9375 Q674.2013,871.875 675.0138,871.0781 Q675.8419,870.2813 677.2638,870.1875 Z M677.2638,871.4688 Q676.3731,871.5625 675.9044,871.9844 Q675.4513,872.4063 675.4513,872.9531 Q675.4513,873.4375 675.8263,873.7813 Q676.2169,874.125 676.8575,874.125 Q676.9825,874.125 677.2638,874.1094 L677.2638,871.4688 Z " fill="#000000"/><text fill="#000000" font-family="sans-serif" font-size="14" lengthAdjust="spacing" textLength="192" x="688.92" y="878.3379">basic_view::anonymous_union</text><line style="stroke:#181818;stroke-width:0.5;" x1="660.92" x2="882.92" y1="888.6094" y2="888.6094"/><ellipse cx="670.92" cy="902.9141" fill="none" rx="3" ry="3" style="stroke:#038048;stroke-width:1.0;"/><text fill="#000000" font-family="sans-serif" font-size="14" lengthAdjust="spacing" textLength="31" x="679.92" y="907.1426">base</text><ellipse cx="670.92" cy="920.5234" fill="none" rx="3" ry="3" style="stroke:#038048;stroke-width:1.0;"/><text fill="#000000" font-family="sans-serif" font-size="14" lengthAdjust="spacing" textLength="49" x="679.92" y="924.752">swizzles</text><line style="stroke:#181818;stroke-width:0.5;" x1="660.92" x2="882.92" y1="931.8281" y2="931.8281"/></g><!--class storage_wrapper--><g id="elem_storage_wrapper"><rect codeLine="91" fill="#F1F1F1" height="224.0938" id="storage_wrapper" rx="2.5" ry="2.5" style="stroke:#181818;stroke-width:0.5;" width="231" x="2025.42" y="1039.1094"/><ellipse cx="2040.42" cy="1055.1094" fill="#F1F1F1" rx="11" ry="11" style="stroke:#181818;stroke-width:1.0;"/><path d="M2038.5294,1059.6719 Q2038.3106,1059.9375 2038.17,1060.0156 Q2038.0294,1060.0938 2037.8419,1060.0938 Q2037.4513,1060.0938 2037.2013,1059.8281 Q2036.9669,1059.5625 2036.9669,1058.9688 L2036.9669,1057.8125 Q2036.9669,1057.2031 2037.2013,1056.9531 Q2037.4513,1056.6875 2037.8419,1056.6875 Q2038.1388,1056.6875 2038.3419,1056.8438 Q2038.545,1057 2038.6544,1057.375 Q2038.7638,1057.7344 2038.8731,1057.875 Q2039.1231,1058.125 2039.7325,1058.3906 Q2040.3419,1058.6563 2041.0763,1058.6563 Q2042.2169,1058.6563 2042.9356,1058.125 Q2043.4044,1057.7969 2043.4044,1057.3281 Q2043.4044,1057.0156 2043.1856,1056.7344 Q2042.9669,1056.4531 2042.4513,1056.2813 Q2042.1231,1056.1563 2040.9669,1055.9375 Q2039.5763,1055.6719 2038.8575,1055.3125 Q2038.1388,1054.9531 2037.7169,1054.2969 Q2037.3106,1053.625 2037.3106,1052.8438 Q2037.3106,1051.625 2038.3263,1050.7188 Q2039.3575,1049.7969 2040.9981,1049.7969 Q2041.6544,1049.7969 2042.2013,1049.9375 Q2042.7638,1050.0781 2043.2325,1050.375 Q2043.5606,1050.0625 2043.8888,1050.0625 Q2044.2638,1050.0625 2044.4981,1050.3281 Q2044.7325,1050.5781 2044.7325,1051.1875 L2044.7325,1052.4688 Q2044.7325,1053.0781 2044.4981,1053.3438 Q2044.2638,1053.5938 2043.8888,1053.5938 Q2043.5763,1053.5938 2043.3419,1053.4063 Q2043.1544,1053.2656 2043.0606,1052.8438 Q2042.9825,1052.4219 2042.8419,1052.2344 Q2042.5919,1051.9219 2042.1075,1051.7188 Q2041.6388,1051.5 2040.9981,1051.5 Q2040.0763,1051.5 2039.545,1051.9219 Q2039.0138,1052.3438 2039.0138,1052.8125 Q2039.0138,1053.125 2039.2325,1053.4219 Q2039.4513,1053.7188 2039.8731,1053.8906 Q2040.1544,1054 2041.4513,1054.2656 Q2042.7638,1054.5156 2043.4669,1054.8281 Q2044.17,1055.125 2044.6388,1055.7813 Q2045.1075,1056.4375 2045.1075,1057.3438 Q2045.1075,1058.6094 2044.2169,1059.3594 Q2043.0294,1060.3594 2041.2013,1060.3594 Q2040.4981,1060.3594 2039.8263,1060.1875 Q2039.17,1060.0156 2038.5294,1059.6719 Z " fill="#000000"/><text fill="#000000" font-family="sans-serif" font-size="14" lengthAdjust="spacing" textLength="107" x="2054.42" y="1060.8379">storage_wrapper</text><rect fill="#FFFFFF" height="17.0938" style="stroke:#181818;stroke-width:1.0;stroke-dasharray:2.0,2.0;" width="90" x="2169.42" y="1036.1094"/><text fill="#000000" font-family="sans-serif" font-size="12" font-style="italic" lengthAdjust="spacing" textLength="88" x="2170.42" y="1049.5664">Mutable, T, Size</text><line style="stroke:#181818;stroke-width:0.5;" x1="2026.42" x2="2255.42" y1="1071.1094" y2="1071.1094"/><ellipse cx="2036.42" cy="1085.4141" fill="none" rx="3" ry="3" style="stroke:#038048;stroke-width:1.0;"/><text fill="#000000" font-family="sans-serif" font-size="14" lengthAdjust="spacing" textLength="163" x="2045.42" y="1089.6426">store : std::array&lt;T, Size&gt;</text><ellipse cx="2036.42" cy="1103.0234" fill="none" rx="3" ry="3" style="stroke:#038048;stroke-width:1.0;"/><text fill="#000000" font-family="sans-serif" font-size="14" lengthAdjust="spacing" text-decoration="underline" textLength="173" x="2045.42" y="1107.252">offsets : std::array&lt;T, Size&gt;</text><line style="stroke:#181818;stroke-width:0.5;" x1="2026.42" x2="2255.42" y1="1114.3281" y2="1114.3281"/><ellipse cx="2036.42" cy="1128.6328" fill="#84BE84" rx="3" ry="3" style="stroke:#038048;stroke-width:1.0;"/><text fill="#000000" font-family="sans-serif" font-size="14" lengthAdjust="spacing" textLength="29" x="2045.42" y="1132.8613">set()</text><ellipse cx="2036.42" cy="1146.2422" fill="#84BE84" rx="3" ry="3" style="stroke:#038048;stroke-width:1.0;"/><text fill="#000000" font-family="sans-serif" font-size="14" lengthAdjust="spacing" textLength="72" x="2045.42" y="1150.4707">operator[]()</text><ellipse cx="2036.42" cy="1163.8516" fill="#84BE84" rx="3" ry="3" style="stroke:#038048;stroke-width:1.0;"/><text fill="#000000" font-family="sans-serif" font-size="14" lengthAdjust="spacing" textLength="38" x="2045.42" y="1168.0801">data()</text><ellipse cx="2036.42" cy="1181.4609" fill="#84BE84" rx="3" ry="3" style="stroke:#038048;stroke-width:1.0;"/><text fill="#000000" font-family="sans-serif" font-size="14" lengthAdjust="spacing" textLength="72" x="2045.42" y="1185.6895">sequence()</text><ellipse cx="2036.42" cy="1199.0703" fill="#84BE84" rx="3" ry="3" style="stroke:#038048;stroke-width:1.0;"/><text fill="#000000" font-family="sans-serif" font-size="14" lengthAdjust="spacing" textLength="103" x="2045.42" y="1203.2988">iterator access()</text><ellipse cx="2036.42" cy="1216.6797" fill="#84BE84" rx="3" ry="3" style="stroke:#038048;stroke-width:1.0;"/><text fill="#000000" font-family="sans-serif" font-size="14" lengthAdjust="spacing" textLength="49" x="2045.42" y="1220.9082">length()</text><ellipse cx="2036.42" cy="1234.2891" fill="#84BE84" rx="3" ry="3" style="stroke:#038048;stroke-width:1.0;"/><text fill="#000000" font-family="sans-serif" font-size="14" lengthAdjust="spacing" textLength="34" x="2045.42" y="1238.5176">size()</text><ellipse cx="2036.42" cy="1251.8984" fill="#84BE84" rx="3" ry="3" style="stroke:#038048;stroke-width:1.0;"/><text fill="#000000" font-family="sans-serif" font-size="14" lengthAdjust="spacing" textLength="42" x="2045.42" y="1256.127">swap()</text></g><!--class view_wrapper--><g id="elem_view_wrapper"><rect codeLine="104" fill="#F1F1F1" height="259.3125" id="view_wrapper" rx="2.5" ry="2.5" style="stroke:#181818;stroke-width:0.5;" width="210" x="693.92" y="1021.6094"/><ellipse cx="708.92" cy="1037.6094" fill="#F1F1F1" rx="11" ry="11" style="stroke:#181818;stroke-width:1.0;"/><path d="M707.0294,1042.1719 Q706.8106,1042.4375 706.67,1042.5156 Q706.5294,1042.5938 706.3419,1042.5938 Q705.9513,1042.5938 705.7013,1042.3281 Q705.4669,1042.0625 705.4669,1041.4688 L705.4669,1040.3125 Q705.4669,1039.7031 705.7013,1039.4531 Q705.9513,1039.1875 706.3419,1039.1875 Q706.6388,1039.1875 706.8419,1039.3438 Q707.045,1039.5 707.1544,1039.875 Q707.2638,1040.2344 707.3731,1040.375 Q707.6231,1040.625 708.2325,1040.8906 Q708.8419,1041.1563 709.5763,1041.1563 Q710.7169,1041.1563 711.4356,1040.625 Q711.9044,1040.2969 711.9044,1039.8281 Q711.9044,1039.5156 711.6856,1039.2344 Q711.4669,1038.9531 710.9513,1038.7813 Q710.6231,1038.6563 709.4669,1038.4375 Q708.0763,1038.1719 707.3575,1037.8125 Q706.6388,1037.4531 706.2169,1036.7969 Q705.8106,1036.125 705.8106,1035.3438 Q705.8106,1034.125 706.8263,1033.2188 Q707.8575,1032.2969 709.4981,1032.2969 Q710.1544,1032.2969 710.7013,1032.4375 Q711.2638,1032.5781 711.7325,1032.875 Q712.0606,1032.5625 712.3888,1032.5625 Q712.7638,1032.5625 712.9981,1032.8281 Q713.2325,1033.0781 713.2325,1033.6875 L713.2325,1034.9688 Q713.2325,1035.5781 712.9981,1035.8438 Q712.7638,1036.0938 712.3888,1036.0938 Q712.0763,1036.0938 711.8419,1035.9063 Q711.6544,1035.7656 711.5606,1035.3438 Q711.4825,1034.9219 711.3419,1034.7344 Q711.0919,1034.4219 710.6075,1034.2188 Q710.1388,1034 709.4981,1034 Q708.5763,1034 708.045,1034.4219 Q707.5138,1034.8438 707.5138,1035.3125 Q707.5138,1035.625 707.7325,1035.9219 Q707.9513,1036.2188 708.3731,1036.3906 Q708.6544,1036.5 709.9513,1036.7656 Q711.2638,1037.0156 711.9669,1037.3281 Q712.67,1037.625 713.1388,1038.2813 Q713.6075,1038.9375 713.6075,1039.8438 Q713.6075,1041.1094 712.7169,1041.8594 Q711.5294,1042.8594 709.7013,1042.8594 Q708.9981,1042.8594 708.3263,1042.6875 Q707.67,1042.5156 707.0294,1042.1719 Z " fill="#000000"/><text fill="#000000" font-family="sans-serif" font-size="14" lengthAdjust="spacing" textLength="86" x="722.92" y="1043.3379">view_wrapper</text><rect fill="#FFFFFF" height="17.0938" style="stroke:#181818;stroke-width:1.0;stroke-dasharray:2.0,2.0;" width="90" x="816.92" y="1018.6094"/><text fill="#000000" font-family="sans-serif" font-size="12" font-style="italic" lengthAdjust="spacing" textLength="88" x="817.92" y="1032.0664">Mutable, T, Size</text><line style="stroke:#181818;stroke-width:0.5;" x1="694.92" x2="902.92" y1="1053.6094" y2="1053.6094"/><ellipse cx="704.92" cy="1067.9141" fill="none" rx="3" ry="3" style="stroke:#038048;stroke-width:1.0;"/><text fill="#000000" font-family="sans-serif" font-size="14" lengthAdjust="spacing" textLength="100" x="713.92" y="1072.1426">store : const T *</text><ellipse cx="704.92" cy="1085.5234" fill="none" rx="3" ry="3" style="stroke:#038048;stroke-width:1.0;"/><text fill="#000000" font-family="sans-serif" font-size="14" lengthAdjust="spacing" text-decoration="underline" textLength="173" x="713.92" y="1089.752">offsets : std::array&lt;T, Size&gt;</text><line style="stroke:#181818;stroke-width:0.5;" x1="694.92" x2="902.92" y1="1096.8281" y2="1096.8281"/><ellipse cx="704.92" cy="1111.1328" fill="#84BE84" rx="3" ry="3" style="stroke:#038048;stroke-width:1.0;"/><text fill="#000000" font-family="sans-serif" font-size="14" lengthAdjust="spacing" textLength="152" x="713.92" y="1115.3613">view_wrapper(const T *)</text><ellipse cx="704.92" cy="1128.7422" fill="#84BE84" rx="3" ry="3" style="stroke:#038048;stroke-width:1.0;"/><text fill="#000000" font-family="sans-serif" font-size="14" lengthAdjust="spacing" textLength="42" x="713.92" y="1132.9707">reset()</text><ellipse cx="704.92" cy="1146.3516" fill="#84BE84" rx="3" ry="3" style="stroke:#038048;stroke-width:1.0;"/><text fill="#000000" font-family="sans-serif" font-size="14" lengthAdjust="spacing" textLength="29" x="713.92" y="1150.5801">set()</text><ellipse cx="704.92" cy="1163.9609" fill="#84BE84" rx="3" ry="3" style="stroke:#038048;stroke-width:1.0;"/><text fill="#000000" font-family="sans-serif" font-size="14" lengthAdjust="spacing" textLength="72" x="713.92" y="1168.1895">operator[]()</text><ellipse cx="704.92" cy="1181.5703" fill="#84BE84" rx="3" ry="3" style="stroke:#038048;stroke-width:1.0;"/><text fill="#000000" font-family="sans-serif" font-size="14" lengthAdjust="spacing" textLength="38" x="713.92" y="1185.7988">data()</text><ellipse cx="704.92" cy="1199.1797" fill="#84BE84" rx="3" ry="3" style="stroke:#038048;stroke-width:1.0;"/><text fill="#000000" font-family="sans-serif" font-size="14" lengthAdjust="spacing" textLength="72" x="713.92" y="1203.4082">sequence()</text><ellipse cx="704.92" cy="1216.7891" fill="#84BE84" rx="3" ry="3" style="stroke:#038048;stroke-width:1.0;"/><text fill="#000000" font-family="sans-serif" font-size="14" lengthAdjust="spacing" textLength="103" x="713.92" y="1221.0176">iterator access()</text><ellipse cx="704.92" cy="1234.3984" fill="#84BE84" rx="3" ry="3" style="stroke:#038048;stroke-width:1.0;"/><text fill="#000000" font-family="sans-serif" font-size="14" lengthAdjust="spacing" textLength="49" x="713.92" y="1238.627">length()</text><ellipse cx="704.92" cy="1252.0078" fill="#84BE84" rx="3" ry="3" style="stroke:#038048;stroke-width:1.0;"/><text fill="#000000" font-family="sans-serif" font-size="14" lengthAdjust="spacing" textLength="34" x="713.92" y="1256.2363">size()</text><ellipse cx="704.92" cy="1269.6172" fill="#84BE84" rx="3" ry="3" style="stroke:#038048;stroke-width:1.0;"/><text fill="#000000" font-family="sans-serif" font-size="14" lengthAdjust="spacing" textLength="42" x="713.92" y="1273.8457">swap()</text></g><!--class view_vector--><g id="elem_view_vector"><rect codeLine="119" fill="#F1F1F1" height="83.2188" id="view_vector" rx="2.5" ry="2.5" style="stroke:#181818;stroke-width:0.5;" width="148" x="926.92" y="856.6094"/><ellipse cx="941.92" cy="872.6094" fill="#F1F1F1" rx="11" ry="11" style="stroke:#181818;stroke-width:1.0;"/><path d="M940.0294,877.1719 Q939.8106,877.4375 939.67,877.5156 Q939.5294,877.5938 939.3419,877.5938 Q938.9513,877.5938 938.7013,877.3281 Q938.4669,877.0625 938.4669,876.4688 L938.4669,875.3125 Q938.4669,874.7031 938.7013,874.4531 Q938.9513,874.1875 939.3419,874.1875 Q939.6388,874.1875 939.8419,874.3438 Q940.045,874.5 940.1544,874.875 Q940.2638,875.2344 940.3731,875.375 Q940.6231,875.625 941.2325,875.8906 Q941.8419,876.1563 942.5763,876.1563 Q943.7169,876.1563 944.4356,875.625 Q944.9044,875.2969 944.9044,874.8281 Q944.9044,874.5156 944.6856,874.2344 Q944.4669,873.9531 943.9513,873.7813 Q943.6231,873.6563 942.4669,873.4375 Q941.0763,873.1719 940.3575,872.8125 Q939.6388,872.4531 939.2169,871.7969 Q938.8106,871.125 938.8106,870.3438 Q938.8106,869.125 939.8263,868.2188 Q940.8575,867.2969 942.4981,867.2969 Q943.1544,867.2969 943.7013,867.4375 Q944.2638,867.5781 944.7325,867.875 Q945.0606,867.5625 945.3888,867.5625 Q945.7638,867.5625 945.9981,867.8281 Q946.2325,868.0781 946.2325,868.6875 L946.2325,869.9688 Q946.2325,870.5781 945.9981,870.8438 Q945.7638,871.0938 945.3888,871.0938 Q945.0763,871.0938 944.8419,870.9063 Q944.6544,870.7656 944.5606,870.3438 Q944.4825,869.9219 944.3419,869.7344 Q944.0919,869.4219 943.6075,869.2188 Q943.1388,869 942.4981,869 Q941.5763,869 941.045,869.4219 Q940.5138,869.8438 940.5138,870.3125 Q940.5138,870.625 940.7325,870.9219 Q940.9513,871.2188 941.3731,871.3906 Q941.6544,871.5 942.9513,871.7656 Q944.2638,872.0156 944.9669,872.3281 Q945.67,872.625 946.1388,873.2813 Q946.6075,873.9375 946.6075,874.8438 Q946.6075,876.1094 945.7169,876.8594 Q944.5294,877.8594 942.7013,877.8594 Q941.9981,877.8594 941.3263,877.6875 Q940.67,877.5156 940.0294,877.1719 Z " fill="#000000"/><text fill="#000000" font-family="sans-serif" font-size="14" lengthAdjust="spacing" textLength="74" x="955.92" y="878.3379">view_vector</text><rect fill="#FFFFFF" height="17.0938" style="stroke:#181818;stroke-width:1.0;stroke-dasharray:2.0,2.0;" width="40" x="1037.92" y="853.6094"/><text fill="#000000" font-family="sans-serif" font-size="12" font-style="italic" lengthAdjust="spacing" textLength="38" x="1038.92" y="867.0664">T, Size</text><line style="stroke:#181818;stroke-width:0.5;" x1="927.92" x2="1073.92" y1="888.6094" y2="888.6094"/><ellipse cx="937.92" cy="902.9141" fill="none" rx="3" ry="3" style="stroke:#038048;stroke-width:1.0;"/><text fill="#000000" font-family="sans-serif" font-size="14" lengthAdjust="spacing" textLength="87" x="946.92" y="907.1426">store : T[Size]</text><line style="stroke:#181818;stroke-width:0.5;" x1="927.92" x2="1073.92" y1="914.2188" y2="914.2188"/><ellipse cx="937.92" cy="928.5234" fill="#84BE84" rx="3" ry="3" style="stroke:#038048;stroke-width:1.0;"/><text fill="#000000" font-family="sans-serif" font-size="14" lengthAdjust="spacing" textLength="72" x="946.92" y="932.752">operator=()</text></g><!--class indexed_vector--><g id="elem_indexed_vector"><rect codeLine="124" fill="#F1F1F1" height="188.875" id="indexed_vector" rx="2.5" ry="2.5" style="stroke:#181818;stroke-width:0.5;" width="284" x="1533.92" y="1056.6094"/><ellipse cx="1548.92" cy="1072.6094" fill="#F1F1F1" rx="11" ry="11" style="stroke:#181818;stroke-width:1.0;"/><path d="M1547.0294,1077.1719 Q1546.8106,1077.4375 1546.67,1077.5156 Q1546.5294,1077.5938 1546.3419,1077.5938 Q1545.9513,1077.5938 1545.7013,1077.3281 Q1545.4669,1077.0625 1545.4669,1076.4688 L1545.4669,1075.3125 Q1545.4669,1074.7031 1545.7013,1074.4531 Q1545.9513,1074.1875 1546.3419,1074.1875 Q1546.6388,1074.1875 1546.8419,1074.3438 Q1547.045,1074.5 1547.1544,1074.875 Q1547.2638,1075.2344 1547.3731,1075.375 Q1547.6231,1075.625 1548.2325,1075.8906 Q1548.8419,1076.1563 1549.5763,1076.1563 Q1550.7169,1076.1563 1551.4356,1075.625 Q1551.9044,1075.2969 1551.9044,1074.8281 Q1551.9044,1074.5156 1551.6856,1074.2344 Q1551.4669,1073.9531 1550.9513,1073.7813 Q1550.6231,1073.6563 1549.4669,1073.4375 Q1548.0763,1073.1719 1547.3575,1072.8125 Q1546.6388,1072.4531 1546.2169,1071.7969 Q1545.8106,1071.125 1545.8106,1070.3438 Q1545.8106,1069.125 1546.8263,1068.2188 Q1547.8575,1067.2969 1549.4981,1067.2969 Q1550.1544,1067.2969 1550.7013,1067.4375 Q1551.2638,1067.5781 1551.7325,1067.875 Q1552.0606,1067.5625 1552.3888,1067.5625 Q1552.7638,1067.5625 1552.9981,1067.8281 Q1553.2325,1068.0781 1553.2325,1068.6875 L1553.2325,1069.9688 Q1553.2325,1070.5781 1552.9981,1070.8438 Q1552.7638,1071.0938 1552.3888,1071.0938 Q1552.0763,1071.0938 1551.8419,1070.9063 Q1551.6544,1070.7656 1551.5606,1070.3438 Q1551.4825,1069.9219 1551.3419,1069.7344 Q1551.0919,1069.4219 1550.6075,1069.2188 Q1550.1388,1069 1549.4981,1069 Q1548.5763,1069 1548.045,1069.4219 Q1547.5138,1069.8438 1547.5138,1070.3125 Q1547.5138,1070.625 1547.7325,1070.9219 Q1547.9513,1071.2188 1548.3731,1071.3906 Q1548.6544,1071.5 1549.9513,1071.7656 Q1551.2638,1072.0156 1551.9669,1072.3281 Q1552.67,1072.625 1553.1388,1073.2813 Q1553.6075,1073.9375 1553.6075,1074.8438 Q1553.6075,1076.1094 1552.7169,1076.8594 Q1551.5294,1077.8594 1549.7013,1077.8594 Q1548.9981,1077.8594 1548.3263,1077.6875 Q1547.67,1077.5156 1547.0294,1077.1719 Z " fill="#000000"/><text fill="#000000" font-family="sans-serif" font-size="14" lengthAdjust="spacing" textLength="96" x="1562.92" y="1078.3379">indexed_vector</text><rect fill="#FFFFFF" height="17.0938" style="stroke:#181818;stroke-width:1.0;stroke-dasharray:2.0,2.0;" width="154" x="1666.92" y="1053.6094"/><text fill="#000000" font-family="sans-serif" font-size="12" font-style="italic" lengthAdjust="spacing" textLength="152" x="1667.92" y="1067.0664">Mutable, T, Size, Count, ...Is</text><line style="stroke:#181818;stroke-width:0.5;" x1="1534.92" x2="1816.92" y1="1088.6094" y2="1088.6094"/><ellipse cx="1544.92" cy="1102.9141" fill="none" rx="3" ry="3" style="stroke:#038048;stroke-width:1.0;"/><text fill="#000000" font-family="sans-serif" font-size="14" lengthAdjust="spacing" textLength="162" x="1553.92" y="1107.1426">base : std::array&lt;T, Size&gt;</text><ellipse cx="1544.92" cy="1120.5234" fill="none" rx="3" ry="3" style="stroke:#038048;stroke-width:1.0;"/><text fill="#000000" font-family="sans-serif" font-size="14" lengthAdjust="spacing" text-decoration="underline" textLength="185" x="1553.92" y="1124.752">offsets : std::array&lt;T, Count&gt;</text><line style="stroke:#181818;stroke-width:0.5;" x1="1534.92" x2="1816.92" y1="1131.8281" y2="1131.8281"/><ellipse cx="1544.92" cy="1146.1328" fill="#84BE84" rx="3" ry="3" style="stroke:#038048;stroke-width:1.0;"/><text fill="#000000" font-family="sans-serif" font-size="14" lengthAdjust="spacing" textLength="29" x="1553.92" y="1150.3613">set()</text><ellipse cx="1544.92" cy="1163.7422" fill="#84BE84" rx="3" ry="3" style="stroke:#038048;stroke-width:1.0;"/><text fill="#000000" font-family="sans-serif" font-size="14" lengthAdjust="spacing" textLength="72" x="1553.92" y="1167.9707">operator[]()</text><ellipse cx="1544.92" cy="1181.3516" fill="#84BE84" rx="3" ry="3" style="stroke:#038048;stroke-width:1.0;"/><text fill="#000000" font-family="sans-serif" font-size="14" lengthAdjust="spacing" textLength="72" x="1553.92" y="1185.5801">operator=()</text><ellipse cx="1544.92" cy="1198.9609" fill="#84BE84" rx="3" ry="3" style="stroke:#038048;stroke-width:1.0;"/><text fill="#000000" font-family="sans-serif" font-size="14" lengthAdjust="spacing" textLength="38" x="1553.92" y="1203.1895">data()</text><ellipse cx="1544.92" cy="1216.5703" fill="#84BE84" rx="3" ry="3" style="stroke:#038048;stroke-width:1.0;"/><text fill="#000000" font-family="sans-serif" font-size="14" lengthAdjust="spacing" textLength="72" x="1553.92" y="1220.7988">sequence()</text><ellipse cx="1544.92" cy="1234.1797" fill="#84BE84" rx="3" ry="3" style="stroke:#038048;stroke-width:1.0;"/><text fill="#000000" font-family="sans-serif" font-size="14" lengthAdjust="spacing" textLength="103" x="1553.92" y="1238.4082">iterator access()</text></g><!--class indexed_view--><g id="elem_indexed_view"><rect codeLine="135" fill="#F1F1F1" height="224.0938" id="indexed_view" rx="2.5" ry="2.5" style="stroke:#181818;stroke-width:0.5;" width="272" x="386.92" y="1039.1094"/><ellipse cx="401.92" cy="1055.1094" fill="#F1F1F1" rx="11" ry="11" style="stroke:#181818;stroke-width:1.0;"/><path d="M400.0294,1059.6719 Q399.8106,1059.9375 399.67,1060.0156 Q399.5294,1060.0938 399.3419,1060.0938 Q398.9513,1060.0938 398.7013,1059.8281 Q398.4669,1059.5625 398.4669,1058.9688 L398.4669,1057.8125 Q398.4669,1057.2031 398.7013,1056.9531 Q398.9513,1056.6875 399.3419,1056.6875 Q399.6388,1056.6875 399.8419,1056.8438 Q400.045,1057 400.1544,1057.375 Q400.2638,1057.7344 400.3731,1057.875 Q400.6231,1058.125 401.2325,1058.3906 Q401.8419,1058.6563 402.5763,1058.6563 Q403.7169,1058.6563 404.4356,1058.125 Q404.9044,1057.7969 404.9044,1057.3281 Q404.9044,1057.0156 404.6856,1056.7344 Q404.4669,1056.4531 403.9513,1056.2813 Q403.6231,1056.1563 402.4669,1055.9375 Q401.0763,1055.6719 400.3575,1055.3125 Q399.6388,1054.9531 399.2169,1054.2969 Q398.8106,1053.625 398.8106,1052.8438 Q398.8106,1051.625 399.8263,1050.7188 Q400.8575,1049.7969 402.4981,1049.7969 Q403.1544,1049.7969 403.7013,1049.9375 Q404.2638,1050.0781 404.7325,1050.375 Q405.0606,1050.0625 405.3888,1050.0625 Q405.7638,1050.0625 405.9981,1050.3281 Q406.2325,1050.5781 406.2325,1051.1875 L406.2325,1052.4688 Q406.2325,1053.0781 405.9981,1053.3438 Q405.7638,1053.5938 405.3888,1053.5938 Q405.0763,1053.5938 404.8419,1053.4063 Q404.6544,1053.2656 404.5606,1052.8438 Q404.4825,1052.4219 404.3419,1052.2344 Q404.0919,1051.9219 403.6075,1051.7188 Q403.1388,1051.5 402.4981,1051.5 Q401.5763,1051.5 401.045,1051.9219 Q400.5138,1052.3438 400.5138,1052.8125 Q400.5138,1053.125 400.7325,1053.4219 Q400.9513,1053.7188 401.3731,1053.8906 Q401.6544,1054 402.9513,1054.2656 Q404.2638,1054.5156 404.9669,1054.8281 Q405.67,1055.125 406.1388,1055.7813 Q406.6075,1056.4375 406.6075,1057.3438 Q406.6075,1058.6094 405.7169,1059.3594 Q404.5294,1060.3594 402.7013,1060.3594 Q401.9981,1060.3594 401.3263,1060.1875 Q400.67,1060.0156 400.0294,1059.6719 Z " fill="#000000"/><text fill="#000000" font-family="sans-serif" font-size="14" lengthAdjust="spacing" textLength="84" x="415.92" y="1060.8379">indexed_view</text><rect fill="#FFFFFF" height="17.0938" style="stroke:#181818;stroke-width:1.0;stroke-dasharray:2.0,2.0;" width="154" x="507.92" y="1036.1094"/><text fill="#000000" font-family="sans-serif" font-size="12" font-style="italic" lengthAdjust="spacing" textLength="152" x="508.92" y="1049.5664">Mutable, T, Size, Count, ...Is</text><line style="stroke:#181818;stroke-width:0.5;" x1="387.92" x2="657.92" y1="1071.1094" y2="1071.1094"/><ellipse cx="397.92" cy="1085.4141" fill="none" rx="3" ry="3" style="stroke:#038048;stroke-width:1.0;"/><text fill="#000000" font-family="sans-serif" font-size="14" lengthAdjust="spacing" textLength="99" x="406.92" y="1089.6426">base : const T *</text><ellipse cx="397.92" cy="1103.0234" fill="none" rx="3" ry="3" style="stroke:#038048;stroke-width:1.0;"/><text fill="#000000" font-family="sans-serif" font-size="14" lengthAdjust="spacing" text-decoration="underline" textLength="185" x="406.92" y="1107.252">offsets : std::array&lt;T, Count&gt;</text><line style="stroke:#181818;stroke-width:0.5;" x1="387.92" x2="657.92" y1="1114.3281" y2="1114.3281"/><ellipse cx="397.92" cy="1128.6328" fill="#84BE84" rx="3" ry="3" style="stroke:#038048;stroke-width:1.0;"/><text fill="#000000" font-family="sans-serif" font-size="14" lengthAdjust="spacing" textLength="150" x="406.92" y="1132.8613">indexed_view(const T *)</text><ellipse cx="397.92" cy="1146.2422" fill="#84BE84" rx="3" ry="3" style="stroke:#038048;stroke-width:1.0;"/><text fill="#000000" font-family="sans-serif" font-size="14" lengthAdjust="spacing" textLength="42" x="406.92" y="1150.4707">reset()</text><ellipse cx="397.92" cy="1163.8516" fill="#84BE84" rx="3" ry="3" style="stroke:#038048;stroke-width:1.0;"/><text fill="#000000" font-family="sans-serif" font-size="14" lengthAdjust="spacing" textLength="29" x="406.92" y="1168.0801">set()</text><ellipse cx="397.92" cy="1181.4609" fill="#84BE84" rx="3" ry="3" style="stroke:#038048;stroke-width:1.0;"/><text fill="#000000" font-family="sans-serif" font-size="14" lengthAdjust="spacing" textLength="72" x="406.92" y="1185.6895">operator[]()</text><ellipse cx="397.92" cy="1199.0703" fill="#84BE84" rx="3" ry="3" style="stroke:#038048;stroke-width:1.0;"/><text fill="#000000" font-family="sans-serif" font-size="14" lengthAdjust="spacing" textLength="72" x="406.92" y="1203.2988">operator=()</text><ellipse cx="397.92" cy="1216.6797" fill="#84BE84" rx="3" ry="3" style="stroke:#038048;stroke-width:1.0;"/><text fill="#000000" font-family="sans-serif" font-size="14" lengthAdjust="spacing" textLength="38" x="406.92" y="1220.9082">data()</text><ellipse cx="397.92" cy="1234.2891" fill="#84BE84" rx="3" ry="3" style="stroke:#038048;stroke-width:1.0;"/><text fill="#000000" font-family="sans-serif" font-size="14" lengthAdjust="spacing" textLength="72" x="406.92" y="1238.5176">sequence()</text><ellipse cx="397.92" cy="1251.8984" fill="#84BE84" rx="3" ry="3" style="stroke:#038048;stroke-width:1.0;"/><text fill="#000000" font-family="sans-serif" font-size="14" lengthAdjust="spacing" textLength="103" x="406.92" y="1256.127">iterator access()</text></g><!--class basic_matrix--><g id="elem_basic_matrix"><rect codeLine="148" fill="#F1F1F1" height="259.3125" id="basic_matrix" rx="2.5" ry="2.5" style="stroke:#181818;stroke-width:0.5;" width="349" x="1635.42" y="84.1094"/><ellipse cx="1727.67" cy="100.1094" fill="#F1F1F1" rx="11" ry="11" style="stroke:#181818;stroke-width:1.0;"/><path d="M1725.7794,104.6719 Q1725.5606,104.9375 1725.42,105.0156 Q1725.2794,105.0938 1725.0919,105.0938 Q1724.7013,105.0938 1724.4513,104.8281 Q1724.2169,104.5625 1724.2169,103.9688 L1724.2169,102.8125 Q1724.2169,102.2031 1724.4513,101.9531 Q1724.7013,101.6875 1725.0919,101.6875 Q1725.3888,101.6875 1725.5919,101.8438 Q1725.795,102 1725.9044,102.375 Q1726.0138,102.7344 1726.1231,102.875 Q1726.3731,103.125 1726.9825,103.3906 Q1727.5919,103.6563 1728.3263,103.6563 Q1729.4669,103.6563 1730.1856,103.125 Q1730.6544,102.7969 1730.6544,102.3281 Q1730.6544,102.0156 1730.4356,101.7344 Q1730.2169,101.4531 1729.7013,101.2813 Q1729.3731,101.1563 1728.2169,100.9375 Q1726.8263,100.6719 1726.1075,100.3125 Q1725.3888,99.9531 1724.9669,99.2969 Q1724.5606,98.625 1724.5606,97.8438 Q1724.5606,96.625 1725.5763,95.7188 Q1726.6075,94.7969 1728.2481,94.7969 Q1728.9044,94.7969 1729.4513,94.9375 Q1730.0138,95.0781 1730.4825,95.375 Q1730.8106,95.0625 1731.1388,95.0625 Q1731.5138,95.0625 1731.7481,95.3281 Q1731.9825,95.5781 1731.9825,96.1875 L1731.9825,97.4688 Q1731.9825,98.0781 1731.7481,98.3438 Q1731.5138,98.5938 1731.1388,98.5938 Q1730.8263,98.5938 1730.5919,98.4063 Q1730.4044,98.2656 1730.3106,97.8438 Q1730.2325,97.4219 1730.0919,97.2344 Q1729.8419,96.9219 1729.3575,96.7188 Q1728.8888,96.5 1728.2481,96.5 Q1727.3263,96.5 1726.795,96.9219 Q1726.2638,97.3438 1726.2638,97.8125 Q1726.2638,98.125 1726.4825,98.4219 Q1726.7013,98.7188 1727.1231,98.8906 Q1727.4044,99 1728.7013,99.2656 Q1730.0138,99.5156 1730.7169,99.8281 Q1731.42,100.125 1731.8888,100.7813 Q1732.3575,101.4375 1732.3575,102.3438 Q1732.3575,103.6094 1731.4669,104.3594 Q1730.2794,105.3594 1728.4513,105.3594 Q1727.7481,105.3594 1727.0763,105.1875 Q1726.42,105.0156 1725.7794,104.6719 Z " fill="#000000"/><text fill="#000000" font-family="sans-serif" font-size="14" lengthAdjust="spacing" textLength="78" x="1748.17" y="105.8379">basic_matrix</text><rect fill="#FFFFFF" height="17.0938" style="stroke:#181818;stroke-width:1.0;stroke-dasharray:2.0,2.0;" width="76" x="1911.42" y="81.1094"/><text fill="#000000" font-family="sans-serif" font-size="12" font-style="italic" lengthAdjust="spacing" textLength="74" x="1912.42" y="94.5664">T, Cols, Rows</text><line style="stroke:#181818;stroke-width:0.5;" x1="1636.42" x2="1983.42" y1="116.1094" y2="116.1094"/><ellipse cx="1646.42" cy="130.4141" fill="none" rx="3" ry="3" style="stroke:#038048;stroke-width:1.0;"/><text fill="#000000" font-family="sans-serif" font-size="14" lengthAdjust="spacing" textLength="323" x="1655.42" y="134.6426">columns : std::array&lt;basic_vector&lt;T, Rows&gt;, Cols&gt;</text><line style="stroke:#181818;stroke-width:0.5;" x1="1636.42" x2="1983.42" y1="141.7188" y2="141.7188"/><ellipse cx="1646.42" cy="156.0234" fill="#84BE84" rx="3" ry="3" style="stroke:#038048;stroke-width:1.0;"/><text fill="#000000" font-family="sans-serif" font-size="14" lengthAdjust="spacing" textLength="32" x="1655.42" y="160.252">row()</text><ellipse cx="1646.42" cy="173.6328" fill="#84BE84" rx="3" ry="3" style="stroke:#038048;stroke-width:1.0;"/><text fill="#000000" font-family="sans-serif" font-size="14" lengthAdjust="spacing" textLength="144" x="1655.42" y="177.8613">basic_matrix(const U *)</text><ellipse cx="1646.42" cy="191.2422" fill="#84BE84" rx="3" ry="3" style="stroke:#038048;stroke-width:1.0;"/><text fill="#000000" font-family="sans-serif" font-size="14" lengthAdjust="spacing" textLength="72" x="1655.42" y="195.4707">operator[]()</text><ellipse cx="1646.42" cy="208.8516" fill="#84BE84" rx="3" ry="3" style="stroke:#038048;stroke-width:1.0;"/><text fill="#000000" font-family="sans-serif" font-size="14" lengthAdjust="spacing" textLength="72" x="1655.42" y="213.0801">operator=()</text><ellipse cx="1646.42" cy="226.4609" fill="#84BE84" rx="3" ry="3" style="stroke:#038048;stroke-width:1.0;"/><text fill="#000000" font-family="sans-serif" font-size="14" lengthAdjust="spacing" textLength="38" x="1655.42" y="230.6895">data()</text><ellipse cx="1646.42" cy="244.0703" fill="#84BE84" rx="3" ry="3" style="stroke:#038048;stroke-width:1.0;"/><text fill="#000000" font-family="sans-serif" font-size="14" lengthAdjust="spacing" textLength="103" x="1655.42" y="248.2988">iterator access()</text><ellipse cx="1646.42" cy="261.6797" fill="#84BE84" rx="3" ry="3" style="stroke:#038048;stroke-width:1.0;"/><text fill="#000000" font-family="sans-serif" font-size="14" lengthAdjust="spacing" textLength="49" x="1655.42" y="265.9082">length()</text><ellipse cx="1646.42" cy="279.2891" fill="#84BE84" rx="3" ry="3" style="stroke:#038048;stroke-width:1.0;"/><text fill="#000000" font-family="sans-serif" font-size="14" lengthAdjust="spacing" textLength="102" x="1655.42" y="283.5176">column_length()</text><ellipse cx="1646.42" cy="296.8984" fill="#84BE84" rx="3" ry="3" style="stroke:#038048;stroke-width:1.0;"/><text fill="#000000" font-family="sans-serif" font-size="14" lengthAdjust="spacing" textLength="34" x="1655.42" y="301.127">size()</text><ellipse cx="1646.42" cy="314.5078" fill="#84BE84" rx="3" ry="3" style="stroke:#038048;stroke-width:1.0;"/><text fill="#000000" font-family="sans-serif" font-size="14" lengthAdjust="spacing" textLength="87" x="1655.42" y="318.7363">column_size()</text><ellipse cx="1646.42" cy="332.1172" fill="#84BE84" rx="3" ry="3" style="stroke:#038048;stroke-width:1.0;"/><text fill="#000000" font-family="sans-serif" font-size="14" lengthAdjust="spacing" textLength="42" x="1655.42" y="336.3457">swap()</text></g><!--reverse link vector_base to basic_vector--><g id="link_vector_base_basic_vector"><path codeLine="163" d="M1491.2245,308.6818 C1556.4545,352.8518 1620.35,399.5094 1685.92,456.6094 C1695.46,464.9194 1705.07,473.8594 1714.49,483.0494 " fill="none" id="vector_base-backto-basic_vector" style="stroke:#181818;stroke-width:1.0;"/><polygon fill="none" points="1476.32,298.5894,1487.8603,313.65,1494.5886,303.7137,1476.32,298.5894" style="stroke:#181818;stroke-width:1.0;"/><text fill="#000000" font-family="sans-serif" font-size="13" lengthAdjust="spacing" textLength="80" x="1643.92" y="423.1045">CRTP inherits</text></g><!--reverse link vector_base to basic_view--><g id="link_vector_base_basic_view"><path codeLine="164" d="M1233.0005,392.5866 C1218.3105,409.9666 1213.95,412.6194 1196.92,426.6094 C1120.31,489.5094 1015.52,532.6794 937.53,558.6294 " fill="none" id="vector_base-backto-basic_view" style="stroke:#181818;stroke-width:1.0;"/><polygon fill="none" points="1244.62,378.8394,1228.4181,388.7135,1237.5829,396.4598,1244.62,378.8394" style="stroke:#181818;stroke-width:1.0;"/><text fill="#000000" font-family="sans-serif" font-size="13" lengthAdjust="spacing" textLength="80" x="1213.92" y="423.1045">CRTP inherits</text></g><!--reverse link vector_base to indexed_vector--><g id="link_vector_base_indexed_vector"><path codeLine="165" d="M1491.2703,322.2205 C1532.1203,348.1305 1563.51,363.4294 1609.92,378.6094 C1692.95,405.7694 1938.77,348.2294 2001.92,408.6094 C2174.41,573.5494 2168.98,737.9394 2047.92,943.6094 C1998.36,1027.7994 1900.73,1080.1094 1817.92,1111.0194 " fill="none" id="vector_base-backto-indexed_vector" style="stroke:#181818;stroke-width:1.0;"/><polygon fill="none" points="1476.07,312.5794,1488.0566,327.2873,1494.484,317.1537,1476.07,312.5794" style="stroke:#181818;stroke-width:1.0;"/><text fill="#000000" font-family="sans-serif" font-size="13" lengthAdjust="spacing" textLength="80" x="2127.92" y="793.6045">CRTP inherits</text></g><!--reverse link vector_base to indexed_view--><g id="link_vector_base_indexed_view"><path codeLine="166" d="M1322.4355,395.6478 C1316.0655,412.8378 1313.93,412.3394 1302.92,426.6094 C1284.47,450.5294 1260.39,432.6994 1241.92,456.6094 C1140.38,587.9994 1228.28,668.3194 1166.92,822.6094 C1143.54,881.3994 1142.4,905.4694 1091.92,943.6094 C941.84,1057.0194 848.48,946.7194 675.92,1021.6094 C664.78,1026.4394 653.83,1032.3594 643.22,1038.9694 " fill="none" id="vector_base-backto-indexed_view" style="stroke:#181818;stroke-width:1.0;"/><polygon fill="none" points="1328.69,378.7694,1316.8093,393.5629,1328.0616,397.7326,1328.69,378.7694" style="stroke:#181818;stroke-width:1.0;"/><text fill="#000000" font-family="sans-serif" font-size="13" lengthAdjust="spacing" textLength="80" x="1186.92" y="793.6045">CRTP inherits</text></g><!--reverse link basic_view to view_vector--><g id="link_basic_view_view_vector"><path codeLine="167" d="M741.2357,741.0071 C730.0457,775.8471 734.75,794.3894 757.92,822.6094 C801.33,875.4994 844.04,830.8694 908.92,852.6094 C914.8,854.5794 920.8,856.8494 926.77,859.2894 " fill="none" id="basic_view-backto-view_vector" style="stroke:#181818;stroke-width:1.0;"/><polygon fill="none" points="746.74,723.8694,735.5231,739.1723,746.9482,742.8419,746.74,723.8694" style="stroke:#181818;stroke-width:1.0;"/></g><!--reverse link indexed_vector_const_iterator to indexed_vector_iterator--><g id="link_indexed_vector_const_iterator_indexed_vector_iterator"><path codeLine="168" d="M1455.7743,662.2928 C1448.6443,724.6228 1439.09,808.1694 1432.98,861.5994 " fill="none" id="indexed_vector_const_iterator-backto-indexed_vector_iterator" style="stroke:#181818;stroke-width:1.0;"/><polygon fill="none" points="1457.82,644.4094,1449.8132,661.6109,1461.7354,662.9747,1457.82,644.4094" style="stroke:#181818;stroke-width:1.0;"/><text fill="#000000" font-family="sans-serif" font-size="13" lengthAdjust="spacing" textLength="80" x="1445.92" y="793.6045">const_cast&lt;&gt;</text></g><!--reverse link indexed_view_const_iterator to indexed_view_iterator--><g id="link_indexed_view_const_iterator_indexed_view_iterator"><path codeLine="169" d="M403.7777,661.111 C378.7277,723.441 344.67,808.1694 323.19,861.5994 " fill="none" id="indexed_view_const_iterator-backto-indexed_view_iterator" style="stroke:#181818;stroke-width:1.0;"/><polygon fill="none" points="410.49,644.4094,398.2105,658.8736,409.3449,663.3485,410.49,644.4094" style="stroke:#181818;stroke-width:1.0;"/><text fill="#000000" font-family="sans-serif" font-size="13" lengthAdjust="spacing" textLength="80" x="364.92" y="793.6045">const_cast&lt;&gt;</text></g><!--reverse link CRTP duck type to basic_vector--><g id="link_CRTP duck type_basic_vector"><path codeLine="170" d="M1031.3265,299.7395 C1034.1065,347.9395 1045.56,392.2594 1087.92,426.6094 C1139.59,468.5094 1625.51,428.7394 1685.92,456.6094 C1700.42,463.2994 1714.06,472.5094 1726.62,482.9794 " fill="none" id="CRTP duck type-backto-basic_vector" style="stroke:#181818;stroke-width:1.0;stroke-dasharray:7.0,7.0;"/><polygon fill="none" points="1030.29,281.7694,1025.3364,300.085,1037.3165,299.394,1030.29,281.7694" style="stroke:#181818;stroke-width:1.0;"/><text fill="#000000" font-family="sans-serif" font-size="13" lengthAdjust="spacing" textLength="99" x="1088.92" y="423.1045">duck implements</text></g><!--reverse link CRTP duck type to basic_view--><g id="link_CRTP duck type_basic_view"><path codeLine="171" d="M997.1581,298.1593 C982.6681,329.4093 970.52,349.6494 946.92,378.6094 C933.54,395.0194 922.79,391.7994 909.92,408.6094 C898.77,423.1694 888.79,439.5294 879.97,456.2994 " fill="none" id="CRTP duck type-backto-basic_view" style="stroke:#181818;stroke-width:1.0;stroke-dasharray:7.0,7.0;"/><polygon fill="none" points="1004.73,281.8294,991.7148,295.6354,1002.6014,300.6833,1004.73,281.8294" style="stroke:#181818;stroke-width:1.0;"/><text fill="#000000" font-family="sans-serif" font-size="13" lengthAdjust="spacing" textLength="99" x="910.92" y="423.1045">duck implements</text></g><!--reverse link CRTP duck type to indexed_vector--><g id="link_CRTP duck type_indexed_vector"><path codeLine="172" d="M1027.0404,299.8064 C1020.0404,438.1464 1011.53,731.4394 1061.92,822.6094 C1073.26,843.1394 1214.61,931.8694 1234.92,943.6094 C1331.53,999.4594 1445.76,1052.6194 1533.75,1091.0094 " fill="none" id="CRTP duck type-backto-indexed_vector" style="stroke:#181818;stroke-width:1.0;stroke-dasharray:7.0,7.0;"/><polygon fill="none" points="1027.95,281.8294,1021.048,299.5032,1033.0327,300.1096,1027.95,281.8294" style="stroke:#181818;stroke-width:1.0;"/><text fill="#000000" font-family="sans-serif" font-size="13" lengthAdjust="spacing" textLength="99" x="1062.92" y="793.6045">duck implements</text></g><!--reverse link CRTP duck type to indexed_view--><g id="link_CRTP duck type_indexed_view"><path codeLine="173" d="M1007.6537,298.6034 C994.7937,333.2334 980.01,355.9894 946.92,378.6094 C812.03,470.7794 338.65,348.7894 215.92,456.6094 C50.25,602.1594 6,755.3894 120.92,943.6094 C178.46,1037.8694 294.25,1090.8994 386.84,1119.5494 " fill="none" id="CRTP duck type-backto-indexed_view" style="stroke:#181818;stroke-width:1.0;stroke-dasharray:7.0,7.0;"/><polygon fill="none" points="1013.92,281.7294,1002.0291,296.5147,1013.2784,300.6922,1013.92,281.7294" style="stroke:#181818;stroke-width:1.0;"/><text fill="#000000" font-family="sans-serif" font-size="13" lengthAdjust="spacing" textLength="99" x="68.92" y="793.6045">duck implements</text></g><!--reverse link basic_vector::anonymous_union to storage_wrapper--><g id="link_basic_vector::anonymous_union_storage_wrapper"><path codeLine="174" d="M2034.92,902.1094 C2100.12,902.1094 2117.33,972.8794 2130.4,1038.8094 " fill="none" id="basic_vector::anonymous_union-backto-storage_wrapper" style="stroke:#181818;stroke-width:1.0;"/><polygon fill="#181818" points="2022.92,902.1094,2028.92,906.1094,2034.92,902.1094,2028.92,898.1094,2022.92,902.1094" style="stroke:#181818;stroke-width:1.0;"/><text fill="#000000" font-family="sans-serif" font-size="13" lengthAdjust="spacing" textLength="28" x="2117.92" y="988.1045">base</text><text fill="#000000" font-family="sans-serif" font-size="13" lengthAdjust="spacing" textLength="7" x="2029.9966" y="899.1251">1</text><text fill="#000000" font-family="sans-serif" font-size="13" lengthAdjust="spacing" textLength="7" x="2122.458" y="1028.2305">1</text></g><!--reverse link basic_vector::anonymous_union to indexed_vector--><g id="link_basic_vector::anonymous_union_indexed_vector"><path codeLine="175" d="M1772.92,919.1094 C1740.93,919.1094 1722.39,992.4494 1701.81,1056.4894 " fill="none" id="basic_vector::anonymous_union-backto-indexed_vector" style="stroke:#181818;stroke-width:1.0;"/><polygon fill="#181818" points="1784.92,919.1094,1778.92,915.1094,1772.92,919.1094,1778.92,923.1094,1784.92,919.1094" style="stroke:#181818;stroke-width:1.0;"/><text fill="#000000" font-family="sans-serif" font-size="13" lengthAdjust="spacing" textLength="50" x="1734.92" y="988.1045">swizzles</text><text fill="#000000" font-family="sans-serif" font-size="13" lengthAdjust="spacing" textLength="7" x="1770.838" y="917.3599">1</text><text fill="#000000" font-family="sans-serif" font-size="13" lengthAdjust="spacing" textLength="32" x="1705.1481" y="1045.8259">many</text></g><!--reverse link basic_vector to basic_vector::anonymous_union--><g id="link_basic_vector_basic_vector::anonymous_union"><path codeLine="176" d="M1923.92,531.1094 C1997.7,531.1094 1948.56,633.6594 1910.92,697.1094 C1884.47,741.6794 1835.23,708.9594 1808.92,753.6094 C1793.35,780.0294 1795.5,795.0294 1808.92,822.6094 C1814.33,833.7294 1822.29,843.6794 1831.34,852.4094 " fill="none" id="basic_vector-backto-basic_vector::anonymous_union" style="stroke:#181818;stroke-width:1.0;"/><polygon fill="#181818" points="1911.92,531.1094,1917.92,535.1094,1923.92,531.1094,1917.92,527.1094,1911.92,531.1094" style="stroke:#181818;stroke-width:1.0;"/><path d="M1813.92,758.6094 L1813.92,817.6094 L2034.92,817.6094 L2034.92,768.6094 L2024.92,758.6094 L1813.92,758.6094 " fill="#FEFFDD" style="stroke:#181818;stroke-width:0.5;"/><path d="M2024.92,758.6094 L2024.92,768.6094 L2034.92,768.6094 L2024.92,758.6094 " fill="#FEFFDD" style="stroke:#181818;stroke-width:0.5;"/><text fill="#000000" font-family="sans-serif" font-size="13" lengthAdjust="spacing" textLength="185" x="1819.92" y="777.1045">Nested anonymous union where</text><text fill="#000000" font-family="sans-serif" font-size="13" lengthAdjust="spacing" textLength="200" x="1819.92" y="793.4561">all members have a common initial</text><text fill="#000000" font-family="sans-serif" font-size="13" lengthAdjust="spacing" textLength="148" x="1819.92" y="809.8076">sequence with each other</text><text fill="#000000" font-family="sans-serif" font-size="13" lengthAdjust="spacing" textLength="7" x="1918.288" y="524.5176">1</text><text fill="#000000" font-family="sans-serif" font-size="13" lengthAdjust="spacing" textLength="7" x="1818.5151" y="845.7982">1</text></g><!--reverse link indexed_vector_const_iterator to indexed_vector--><g id="link_indexed_vector_const_iterator_indexed_vector"><path codeLine="182" d="M1673.92,584.1094 C1697.25,584.1094 1681.67,895.4794 1678.27,1056.3294 " fill="none" id="indexed_vector_const_iterator-backto-indexed_vector" style="stroke:#181818;stroke-width:1.0;"/><polygon fill="#181818" points="1661.92,584.1094,1667.92,588.1094,1673.92,584.1094,1667.92,580.1094,1661.92,584.1094" style="stroke:#181818;stroke-width:1.0;"/><text fill="#000000" font-family="sans-serif" font-size="13" lengthAdjust="spacing" textLength="65" x="1681.92" y="903.6045">mapper_ptr</text><text fill="#000000" font-family="sans-serif" font-size="13" lengthAdjust="spacing" textLength="7" x="1668.5958" y="580.6034">1</text><text fill="#000000" font-family="sans-serif" font-size="13" lengthAdjust="spacing" textLength="32" x="1645.1823" y="1045.6532">many</text></g><!--reverse link indexed_vector_iterator to indexed_vector--><g id="link_indexed_vector_iterator_indexed_vector"><path codeLine="183" d="M1472.4573,943.3621 C1503.5573,974.9621 1541.94,1013.9694 1583.65,1056.3494 " fill="none" id="indexed_vector_iterator-backto-indexed_vector" style="stroke:#181818;stroke-width:1.0;"/><polygon fill="#181818" points="1464.04,934.8094,1465.3978,941.8915,1472.4573,943.3621,1471.0996,936.2799,1464.04,934.8094" style="stroke:#181818;stroke-width:1.0;"/><text fill="#000000" font-family="sans-serif" font-size="13" lengthAdjust="spacing" textLength="65" x="1516.92" y="988.1045">mapper_ptr</text><text fill="#000000" font-family="sans-serif" font-size="13" lengthAdjust="spacing" textLength="7" x="1460.1526" y="952.692">1</text><text fill="#000000" font-family="sans-serif" font-size="13" lengthAdjust="spacing" textLength="32" x="1543.0222" y="1045.6748">many</text></g><!--reverse link indexed_view_const_iterator to indexed_view--><g id="link_indexed_view_const_iterator_indexed_view"><path codeLine="184" d="M635.92,584.1094 C662.59,584.1094 626.63,617.6994 622.92,644.1094 C609.57,739.1294 586.41,758.6594 566.92,852.6094 C554.21,913.8294 543.77,982.8694 536.25,1039.0194 " fill="none" id="indexed_view_const_iterator-backto-indexed_view" style="stroke:#181818;stroke-width:1.0;"/><polygon fill="#181818" points="623.92,584.1094,629.92,588.1094,635.92,584.1094,629.92,580.1094,623.92,584.1094" style="stroke:#181818;stroke-width:1.0;"/><text fill="#000000" font-family="sans-serif" font-size="13" lengthAdjust="spacing" textLength="65" x="567.92" y="903.6045">mapper_ptr</text><text fill="#000000" font-family="sans-serif" font-size="13" lengthAdjust="spacing" textLength="7" x="630.1739" y="580.6034">1</text><text fill="#000000" font-family="sans-serif" font-size="13" lengthAdjust="spacing" textLength="32" x="504.0623" y="1028.0797">many</text></g><!--reverse link indexed_view_iterator to indexed_view--><g id="link_indexed_view_iterator_indexed_view"><path codeLine="185" d="M347.1355,943.9409 C370.4455,971.2809 396.15,1001.4294 428.16,1038.9694 " fill="none" id="indexed_view_iterator-backto-indexed_view" style="stroke:#181818;stroke-width:1.0;"/><polygon fill="#181818" points="339.35,934.8094,340.1989,941.9703,347.1355,943.9409,346.2866,936.78,339.35,934.8094" style="stroke:#181818;stroke-width:1.0;"/><text fill="#000000" font-family="sans-serif" font-size="13" lengthAdjust="spacing" textLength="65" x="385.92" y="988.1045">mapper_ptr</text><text fill="#000000" font-family="sans-serif" font-size="13" lengthAdjust="spacing" textLength="7" x="335.0009" y="952.692">1</text><text fill="#000000" font-family="sans-serif" font-size="13" lengthAdjust="spacing" textLength="32" x="388.7183" y="1028.4012">many</text></g><!--reverse link basic_view::anonymous_union to view_wrapper--><g id="link_basic_view::anonymous_union_view_wrapper"><path codeLine="186" d="M896.92,902.1094 C925.34,902.1094 893.64,960.9994 865.97,1021.3894 " fill="none" id="basic_view::anonymous_union-backto-view_wrapper" style="stroke:#181818;stroke-width:1.0;"/><polygon fill="#181818" points="884.92,902.1094,890.92,906.1094,896.92,902.1094,890.92,898.1094,884.92,902.1094" style="stroke:#181818;stroke-width:1.0;"/><text fill="#000000" font-family="sans-serif" font-size="13" lengthAdjust="spacing" textLength="28" x="886.92" y="988.1045">base</text><text fill="#000000" font-family="sans-serif" font-size="13" lengthAdjust="spacing" textLength="7" x="891.9497" y="899.1005">1</text><text fill="#000000" font-family="sans-serif" font-size="13" lengthAdjust="spacing" textLength="7" x="862.644" y="1010.9237">1</text></g><!--reverse link basic_view::anonymous_union to indexed_view--><g id="link_basic_view::anonymous_union_indexed_view"><path codeLine="187" d="M646.92,919.1094 C631.65,919.1094 608.29,979.8294 577.45,1039.0094 " fill="none" id="basic_view::anonymous_union-backto-indexed_view" style="stroke:#181818;stroke-width:1.0;"/><polygon fill="#181818" points="658.92,919.1094,652.92,915.1094,646.92,919.1094,652.92,923.1094,658.92,919.1094" style="stroke:#181818;stroke-width:1.0;"/><text fill="#000000" font-family="sans-serif" font-size="13" lengthAdjust="spacing" textLength="50" x="613.92" y="988.1045">swizzles</text><text fill="#000000" font-family="sans-serif" font-size="13" lengthAdjust="spacing" textLength="7" x="644.8208" y="917.4007">1</text><text fill="#000000" font-family="sans-serif" font-size="13" lengthAdjust="spacing" textLength="32" x="548.1591" y="1028.069">many</text></g><!--reverse link basic_view to basic_view::anonymous_union--><g id="link_basic_view_basic_view::anonymous_union"><path codeLine="188" d="M717.92,505.1094 C579.49,505.1094 698,749.7794 748.83,852.5194 " fill="none" id="basic_view-backto-basic_view::anonymous_union" style="stroke:#181818;stroke-width:1.0;"/><polygon fill="#181818" points="729.92,505.1094,723.92,501.1094,717.92,505.1094,723.92,509.1094,729.92,505.1094" style="stroke:#181818;stroke-width:1.0;"/><path d="M739.92,758.6094 L739.92,817.6094 L960.92,817.6094 L960.92,768.6094 L950.92,758.6094 L739.92,758.6094 " fill="#FEFFDD" style="stroke:#181818;stroke-width:0.5;"/><path d="M950.92,758.6094 L950.92,768.6094 L960.92,768.6094 L950.92,758.6094 " fill="#FEFFDD" style="stroke:#181818;stroke-width:0.5;"/><text fill="#000000" font-family="sans-serif" font-size="13" lengthAdjust="spacing" textLength="185" x="745.92" y="777.1045">Nested anonymous union where</text><text fill="#000000" font-family="sans-serif" font-size="13" lengthAdjust="spacing" textLength="200" x="745.92" y="793.4561">all members have a common initial</text><text fill="#000000" font-family="sans-serif" font-size="13" lengthAdjust="spacing" textLength="148" x="745.92" y="809.8076">sequence with each other</text><text fill="#000000" font-family="sans-serif" font-size="13" lengthAdjust="spacing" textLength="7" x="715.3192" y="495.7762">1</text><text fill="#000000" font-family="sans-serif" font-size="13" lengthAdjust="spacing" textLength="7" x="739.7111" y="845.7493">1</text></g><!--reverse link CRTP duck type to vector_base--><g id="link_CRTP duck type_vector_base"><path codeLine="194" d="M1105.66,213.6094 C1139.56,213.6094 1175.76,213.6094 1215.6,213.6094 " fill="none" id="CRTP duck type-backto-vector_base" style="stroke:#181818;stroke-width:1.0;stroke-dasharray:7.0,7.0;"/><polygon fill="#181818" points="1099.66,213.6094,1108.66,217.6094,1104.66,213.6094,1108.66,209.6094,1099.66,213.6094" style="stroke:#181818;stroke-width:1.0;"/><text fill="#000000" font-family="sans-serif" font-size="13" lengthAdjust="spacing" textLength="80" x="1117.67" y="207.1045">Derived CRTP</text></g><!--reverse link basic_matrix to basic_vector--><g id="link_basic_matrix_basic_vector"><path codeLine="195" d="M1997.92,128.6094 C2148.66,128.6094 1996.88,346.8894 1895.17,482.8794 " fill="none" id="basic_matrix-backto-basic_vector" style="stroke:#181818;stroke-width:1.0;"/><polygon fill="#181818" points="1985.92,128.6094,1991.92,132.6094,1997.92,128.6094,1991.92,124.6094,1985.92,128.6094" style="stroke:#181818;stroke-width:1.0;"/><text fill="#000000" font-family="sans-serif" font-size="13" lengthAdjust="spacing" textLength="49" x="1943.92" y="423.1045">columns</text><text fill="#000000" font-family="sans-serif" font-size="13" lengthAdjust="spacing" textLength="7" x="1992.3708" y="122.763">1</text><text fill="#000000" font-family="sans-serif" font-size="13" lengthAdjust="spacing" textLength="26" x="1871.7305" y="476.231">Cols</text></g><!--link basic_view::anonymous_union to view_vector--><!--SRC=[nLXDRziu43tBlsBWowRvCD2huCqblVJGOf5DqKEG5MXf51EHA2r9nN7I_lSTKg8awyEsDabxiaJEFCvxd1bIzlvG3ro0p1JEFCrrWd2D2TCy4shDSmKNS9KmfU0JP_UIfJEF2P5fQm3pg-kRlo0gmWVGsnpdC-zbvdbdyC9MIaiMwf-WK9zyw0vcEKgcCtbxrv-Bc6RzKON_5YX2xCzmNM812qDKoXZyd7aK8aA2iOOi7WZJkye8BDS5Iu0BGeXPYET0NY2HndnhKYGHh11I5g6noe11U7O6OUaxyr14neM4S-708uOKIx1Y2c7vNNBDLWa1tvm3mGbz3fzGyaUCBfrKDhH69FlQawUCln6cSjgHn8uDY45J2OfxlQvU57zsBam5KHbECs0YTszvdcohPrfAkcVAYzZ56xPVKYxS4tjonaLQRGafL912N4JuX55GAKLYAXsuk9TVYaQnlodIMhV5Ol5PrQgb51lA8DSIVB0G7Tnbr_-pCX2NSDhsjpw4e7Ja-mGMyJWEjBMebOmB4Tfgs4jZAe6ZuJbkta4ZGlrr2XaARwqFfIaFEtjTEnU27Ce-eKod2gdZn34LcN9Cc9His_8pYLhNOA_ytC2VrNkh4Zj5E5n_QiFomV3DDdG5UHsB1lZa1au_TCVADAXd93QiVmt_rk7HtaBY8ZAnJRD21HNl5nSxLXZy-Jb1DO92v2PYL3kXQ7LsZy56seGVtmvZY7kKVvjKcohjM6llfvmjmwDPreaobLjxcV-PRk-imKZJSCnlRitmNJ_nnth_iItDtWbUaJyMz7rxrN3pdaXmOkgqQBKN_HsjgjkVKwObVog3JDGvN6URXcsO9KKgEdownvBrADrBYZBRdBIxShb4HVQR8pk5rX4rKOOQZDL9DJrSEJiNsXyN5xjjkxfrYZLT8xKQjpRj-Q3jRbd110U2xvitIvVMhUAVUNjleKFXD9DLXWSXKtfvsOBgNzNwOOx3T3zIu9_5OaTiyh2pFCqJJ54OZlkSIb6ES-b9Fz5jPAszHxplsvsSVvp3AQbaVZk7CK6MP_S177UkDrWf4zjvdrLp0TX5j3WxaHoudDZFIydlr_HzAI3Xuc7c0Nn5fJ62shgymi66CXBDF4iII35TeLImPezelYUpD2KJBhZcB356hat1Xkir80lNa6b2Q7zkxirUts_T_0yfqfZsKDyEhryOHs6MIJMA-4giFHV7WSniNskwQJaCSJ0fov1wAMdHHXDo-9xxczEnrnkMYvq_GdpthuTjqOvfUVJvlZj8QxRcj9ntMrzbjLTqkBXTyoX2SNVPxlR_0G00]--></g></svg>