<?xml version="1.0" encoding="us-ascii" standalone="no"?><svg xmlns="http://www.w3.org/2000/svg" xmlns:xlink="http://www.w3.org/1999/xlink" contentStyleType="text/css" height="1414px" preserveAspectRatio="none" style="width:1188px;height:1414px;background:#FFFFFF;" version="1.1" viewBox="0 0 1188 1414" width="1188px" zoomAndPan="magnify"><defs/><g><text fill="#000000" font-family="sans-serif" font-size="14" font-weight="bold" lengthAdjust="spacing" textLength="243" x="465.6677" y="22.9951">Relationships - Class Diagram</text><!--class CRTP duck type--><g id="elem_CRTP duck type"><rect codeLine="3" fill="#F1F1F1" height="129.4844" id="CRTP duck type" rx="2.5" ry="2.5" style="stroke:#181818;stroke-width:0.5;" width="158" x="380.1624" y="44.2969"/><ellipse cx="400.5624" cy="60.2969" fill="#E3664A" rx="11" ry="11" style="stroke:#181818;stroke-width:1.0;"/><path d="M401.4843,57.5469 C399.578,57.6875 398.2655,58.875 398.2655,60.4531 C398.2655,61.8594 399.4686,63.0781 400.9218,63.0781 C401.078,63.0781 401.2186,63.0625 401.4843,63.0156 L401.4843,63.0781 L402.2811,63.0781 C402.9061,63.0781 403.2186,62.8594 403.2186,62.375 C403.2186,62.0938 403.0936,61.9063 402.828,61.7813 L402.828,57 C402.828,55.1094 401.5155,53.75 399.6718,53.75 C397.4686,53.75 395.8593,55.875 395.8593,58.8125 L395.8593,61.6719 C395.8593,62.9219 396.1405,64.1406 396.6561,65.0625 C397.3749,66.3125 398.2968,66.875 399.703,66.875 C401.3124,66.875 402.703,66.2188 402.703,65.4219 C402.703,65.0313 402.4061,64.7188 402.0311,64.7188 C401.828,64.7188 401.7343,64.7656 401.4999,65.0156 C401.1718,65.3438 400.4999,65.5625 399.7499,65.5625 C398.9999,65.5625 398.4686,65.2969 398.0624,64.7031 C397.4843,63.9063 397.203,62.8594 397.203,61.5625 L397.203,58.9063 C397.203,56.7344 398.2655,55.0938 399.703,55.0938 C400.7499,55.0938 401.4843,55.875 401.4843,57 L401.4843,57.5469 Z M401.4843,61.6563 C401.2499,61.7031 401.1561,61.7031 401.0468,61.7031 C400.2186,61.7031 399.6093,61.1719 399.6093,60.4688 C399.6093,59.6406 400.3593,59.0313 401.4843,58.9219 L401.4843,61.6563 Z " fill="#000000"/><text fill="#000000" font-family="sans-serif" font-size="14" lengthAdjust="spacing" textLength="114" x="415.7624" y="65.1436">CRTP duck type</text><line style="stroke:#181818;stroke-width:0.5;" x1="381.1624" x2="537.1624" y1="76.2969" y2="76.2969"/><line style="stroke:#181818;stroke-width:0.5;" x1="381.1624" x2="537.1624" y1="84.2969" y2="84.2969"/><ellipse cx="391.1624" cy="97.9453" fill="#84BE84" rx="3" ry="3" style="stroke:#038048;stroke-width:1.0;"/><text fill="#000000" font-family="sans-serif" font-size="14" font-style="italic" lengthAdjust="spacing" textLength="31" x="400.1624" y="101.292">set()</text><ellipse cx="391.1624" cy="114.2422" fill="#84BE84" rx="3" ry="3" style="stroke:#038048;stroke-width:1.0;"/><text fill="#000000" font-family="sans-serif" font-size="14" font-style="italic" lengthAdjust="spacing" textLength="82" x="400.1624" y="117.5889">operator[]()</text><ellipse cx="391.1624" cy="130.5391" fill="#84BE84" rx="3" ry="3" style="stroke:#038048;stroke-width:1.0;"/><text fill="#000000" font-family="sans-serif" font-size="14" font-style="italic" lengthAdjust="spacing" textLength="42" x="400.1624" y="133.8857">data()</text><ellipse cx="391.1624" cy="146.8359" fill="#84BE84" rx="3" ry="3" style="stroke:#038048;stroke-width:1.0;"/><text fill="#000000" font-family="sans-serif" font-size="14" font-style="italic" lengthAdjust="spacing" textLength="79" x="400.1624" y="150.1826">sequence()</text><ellipse cx="391.1624" cy="163.1328" fill="#84BE84" rx="3" ry="3" style="stroke:#038048;stroke-width:1.0;"/><text fill="#000000" font-family="sans-serif" font-size="14" font-style="italic" lengthAdjust="spacing" textLength="132" x="400.1624" y="166.4795">iterator functions()</text></g><g id="elem_GMN3"><path d="M573.1624,88.7969 L573.1624,104.7969 L538.4434,108.7969 L573.1624,112.7969 L573.1624,129.0625 A0,0 0 0 0 573.1624,129.0625 L817.1624,129.0625 A0,0 0 0 0 817.1624,129.0625 L817.1624,98.7969 L807.1624,88.7969 L573.1624,88.7969 A0,0 0 0 0 573.1624,88.7969 " fill="#FEFFDD" style="stroke:#181818;stroke-width:0.5;"/><path d="M807.1624,88.7969 L807.1624,98.7969 L817.1624,98.7969 L807.1624,88.7969 " fill="#FEFFDD" style="stroke:#181818;stroke-width:0.5;"/><text fill="#000000" font-family="sans-serif" font-size="13" lengthAdjust="spacing" textLength="199" x="579.1624" y="105.8638">Conceptual interface, not real :</text><text fill="#000000" font-family="sans-serif" font-size="13" lengthAdjust="spacing" textLength="223" x="579.1624" y="120.9966">Could be made into a c++ concept</text></g><!--class vector_base--><g id="elem_vector_base"><rect codeLine="15" fill="#F1F1F1" height="276.1563" id="vector_base" rx="2.5" ry="2.5" style="stroke:#181818;stroke-width:0.5;" width="285" x="316.6624" y="250.2969"/><ellipse cx="331.6624" cy="266.2969" fill="#A9DCDF" rx="11" ry="11" style="stroke:#181818;stroke-width:1.0;"/><path d="M333.7405,268.1094 L334.1312,269.0938 L333.7405,269.0938 C333.2874,269.0938 333.178,269.1094 333.0218,269.2188 C332.7718,269.375 332.6155,269.6563 332.6155,269.9531 C332.6155,270.2188 332.7562,270.4688 332.9749,270.625 C333.1155,270.75 333.3187,270.7969 333.7405,270.7969 L336.0999,270.7969 C336.4593,270.7969 336.678,270.7656 336.8187,270.6719 C337.0687,270.5313 337.2249,270.2344 337.2249,269.9531 C337.2249,269.6719 337.0843,269.4219 336.8655,269.2656 C336.6937,269.125 336.5374,269.0938 336.0687,269.0938 L332.678,260.8906 L329.0062,260.8906 C328.553,260.8906 328.428,260.9063 328.2718,261 C328.0218,261.1719 327.8655,261.4531 327.8655,261.7344 C327.8655,262.0156 328.0062,262.2656 328.2249,262.4375 C328.3968,262.5469 328.5687,262.5781 329.0062,262.5781 L330.0843,262.5781 L327.4437,269.0938 C327.0218,269.0938 326.8655,269.1094 326.7093,269.2188 C326.4593,269.375 326.303,269.6563 326.303,269.9531 C326.303,270.5156 326.678,270.7969 327.428,270.7969 L329.6937,270.7969 C330.053,270.7969 330.2718,270.7656 330.3968,270.6719 C330.6624,270.5313 330.803,270.2344 330.803,269.9531 C330.803,269.6719 330.678,269.4219 330.4593,269.25 C330.2874,269.125 330.1468,269.0938 329.6937,269.0938 L329.303,269.0938 L329.6937,268.1094 L333.7405,268.1094 Z M333.0374,266.4063 L330.3655,266.4063 L331.7093,263.1406 L333.0374,266.4063 Z " fill="#000000"/><text fill="#000000" font-family="sans-serif" font-size="14" font-style="italic" lengthAdjust="spacing" textLength="86" x="345.6624" y="271.1436">vector_base</text><rect fill="#FFFFFF" height="15.9688" style="stroke:#181818;stroke-width:1.0;stroke-dasharray:2.0,2.0;" width="165" x="439.6624" y="247.2969"/><text fill="#000000" font-family="sans-serif" font-size="12" font-style="italic" lengthAdjust="spacing" textLength="163" x="440.6624" y="259.4355">Writable, T, Count, Derived</text><line style="stroke:#181818;stroke-width:0.5;" x1="317.6624" x2="600.6624" y1="282.2969" y2="282.2969"/><line style="stroke:#181818;stroke-width:0.5;" x1="317.6624" x2="600.6624" y1="290.2969" y2="290.2969"/><ellipse cx="327.6624" cy="303.9453" fill="#84BE84" rx="3" ry="3" style="stroke:#038048;stroke-width:1.0;"/><text fill="#000000" font-family="sans-serif" font-size="14" lengthAdjust="spacing" textLength="75" x="336.6624" y="307.292">CRTP set()</text><ellipse cx="327.6624" cy="320.2422" fill="#84BE84" rx="3" ry="3" style="stroke:#038048;stroke-width:1.0;"/><text fill="#000000" font-family="sans-serif" font-size="14" lengthAdjust="spacing" textLength="126" x="336.6624" y="323.5889">CRTP operator[]()</text><ellipse cx="327.6624" cy="336.5391" fill="#84BE84" rx="3" ry="3" style="stroke:#038048;stroke-width:1.0;"/><text fill="#000000" font-family="sans-serif" font-size="14" lengthAdjust="spacing" textLength="84" x="336.6624" y="339.8857">CRTP data()</text><ellipse cx="327.6624" cy="352.8359" fill="#84BE84" rx="3" ry="3" style="stroke:#038048;stroke-width:1.0;"/><text fill="#000000" font-family="sans-serif" font-size="14" lengthAdjust="spacing" textLength="120" x="336.6624" y="356.1826">CRTP sequence()</text><ellipse cx="327.6624" cy="369.1328" fill="#84BE84" rx="3" ry="3" style="stroke:#038048;stroke-width:1.0;"/><text fill="#000000" font-family="sans-serif" font-size="14" lengthAdjust="spacing" textLength="179" x="336.6624" y="372.4795">CRTP iterator functions()</text><ellipse cx="327.6624" cy="385.4297" fill="#84BE84" rx="3" ry="3" style="stroke:#038048;stroke-width:1.0;"/><text fill="#000000" font-family="sans-serif" font-size="14" lengthAdjust="spacing" textLength="57" x="336.6624" y="388.7764">length()</text><ellipse cx="327.6624" cy="401.7266" fill="#84BE84" rx="3" ry="3" style="stroke:#038048;stroke-width:1.0;"/><text fill="#000000" font-family="sans-serif" font-size="14" lengthAdjust="spacing" textLength="38" x="336.6624" y="405.0732">size()</text><ellipse cx="327.6624" cy="418.0234" fill="#84BE84" rx="3" ry="3" style="stroke:#038048;stroke-width:1.0;"/><text fill="#000000" font-family="sans-serif" font-size="14" lengthAdjust="spacing" textLength="86" x="336.6624" y="421.3701">as_derived()</text><ellipse cx="327.6624" cy="434.3203" fill="#84BE84" rx="3" ry="3" style="stroke:#038048;stroke-width:1.0;"/><text fill="#000000" font-family="sans-serif" font-size="14" lengthAdjust="spacing" textLength="50" x="336.6624" y="437.667">apply()</text><ellipse cx="327.6624" cy="450.6172" fill="#84BE84" rx="3" ry="3" style="stroke:#038048;stroke-width:1.0;"/><text fill="#000000" font-family="sans-serif" font-size="14" lengthAdjust="spacing" textLength="43" x="336.6624" y="453.9639">shift()</text><ellipse cx="327.6624" cy="466.9141" fill="#84BE84" rx="3" ry="3" style="stroke:#038048;stroke-width:1.0;"/><text fill="#000000" font-family="sans-serif" font-size="14" lengthAdjust="spacing" textLength="51" x="336.6624" y="470.2607">cshift()</text><ellipse cx="327.6624" cy="483.2109" fill="#84BE84" rx="3" ry="3" style="stroke:#038048;stroke-width:1.0;"/><text fill="#000000" font-family="sans-serif" font-size="14" lengthAdjust="spacing" textLength="37" x="336.6624" y="486.5576">min()</text><ellipse cx="327.6624" cy="499.5078" fill="#84BE84" rx="3" ry="3" style="stroke:#038048;stroke-width:1.0;"/><text fill="#000000" font-family="sans-serif" font-size="14" lengthAdjust="spacing" textLength="40" x="336.6624" y="502.8545">max()</text><ellipse cx="327.6624" cy="515.8047" fill="#84BE84" rx="3" ry="3" style="stroke:#038048;stroke-width:1.0;"/><text fill="#000000" font-family="sans-serif" font-size="14" lengthAdjust="spacing" textLength="39" x="336.6624" y="519.1514">sum()</text></g><!--class basic_vector--><g id="elem_basic_vector"><rect codeLine="32" fill="#F1F1F1" height="194.6719" id="basic_vector" rx="2.5" ry="2.5" style="stroke:#181818;stroke-width:0.5;" width="166" x="280.1624" y="607.2969"/><ellipse cx="295.1624" cy="623.2969" fill="#F1F1F1" rx="11" ry="11" style="stroke:#181818;stroke-width:1.0;"/><path d="M298.9437,619.2656 C298.9437,618.8281 298.928,618.6875 298.8343,618.5313 C298.6937,618.2969 298.4124,618.1406 298.1155,618.1406 C297.7718,618.1406 297.6312,618.2813 297.4593,618.7031 C296.8655,618.3281 296.1155,618.1406 295.2405,618.1406 C293.1312,618.1406 291.553,619.4375 291.553,621.1563 C291.553,622.125 292.0843,623.0313 292.9437,623.5156 C293.4905,623.8281 294.0374,624 295.1468,624.1875 C296.303,624.3906 296.5687,624.4531 296.928,624.6406 C297.303,624.8438 297.5374,625.1875 297.5374,625.5469 C297.5374,626.2813 296.553,626.8281 295.303,626.8281 C294.178,626.8281 293.0999,626.3438 292.928,625.7344 C292.803,625.2656 292.803,625.2656 292.678,625.1563 C292.5218,625 292.303,624.9063 292.0687,624.9063 C291.7874,624.9063 291.5374,625.0313 291.3655,625.25 C291.2562,625.4219 291.2093,625.6094 291.2093,626.0313 L291.2093,627.1563 C291.2093,627.9219 291.4905,628.2813 292.0843,628.2813 C292.3499,628.2813 292.4749,628.2188 292.7562,627.875 C293.5999,628.3125 294.4905,628.5313 295.4124,628.5313 C297.7405,628.5313 299.303,627.3438 299.303,625.5781 C299.303,624.6875 298.9905,624 298.303,623.4531 C297.7718,623.0313 297.1312,622.7813 295.6468,622.5156 C294.3812,622.2813 294.2874,622.25 293.9593,622.0781 C293.5843,621.8906 293.3187,621.5 293.3187,621.1406 C293.3187,620.4063 294.178,619.8438 295.2405,619.8438 C296.303,619.8438 297.1155,620.3125 297.2718,620.9844 C297.3812,621.5313 297.3812,621.5313 297.5062,621.6719 C297.6468,621.7969 297.8812,621.9063 298.1155,621.9063 C298.3812,621.9063 298.6312,621.7656 298.803,621.5469 C298.9124,621.375 298.9437,621.2344 298.9437,620.7656 L298.9437,619.2656 Z " fill="#000000"/><text fill="#000000" font-family="sans-serif" font-size="14" lengthAdjust="spacing" textLength="91" x="309.1624" y="628.1436">basic_vector</text><rect fill="#FFFFFF" height="15.9688" style="stroke:#181818;stroke-width:1.0;stroke-dasharray:2.0,2.0;" width="41" x="408.1624" y="604.2969"/><text fill="#000000" font-family="sans-serif" font-size="12" font-style="italic" lengthAdjust="spacing" textLength="39" x="409.1624" y="616.4355">T, Size</text><line style="stroke:#181818;stroke-width:0.5;" x1="281.1624" x2="445.1624" y1="639.2969" y2="639.2969"/><ellipse cx="291.1624" cy="652.9453" fill="none" rx="3" ry="3" style="stroke:#038048;stroke-width:1.0;"/><text fill="#000000" font-family="sans-serif" font-size="14" lengthAdjust="spacing" textLength="39" x="300.1624" y="656.292">union</text><ellipse cx="291.1624" cy="669.2422" fill="none" rx="3" ry="3" style="stroke:#038048;stroke-width:1.0;"/><text fill="#000000" font-family="sans-serif" font-size="14" lengthAdjust="spacing" text-decoration="underline" textLength="51" x="300.1624" y="672.5889">offsets</text><line style="stroke:#181818;stroke-width:0.5;" x1="281.1624" x2="445.1624" y1="679.8906" y2="679.8906"/><ellipse cx="291.1624" cy="693.5391" fill="#84BE84" rx="3" ry="3" style="stroke:#038048;stroke-width:1.0;"/><text fill="#000000" font-family="sans-serif" font-size="14" lengthAdjust="spacing" textLength="33" x="300.1624" y="696.8857">set()</text><ellipse cx="291.1624" cy="709.8359" fill="#84BE84" rx="3" ry="3" style="stroke:#038048;stroke-width:1.0;"/><text fill="#000000" font-family="sans-serif" font-size="14" lengthAdjust="spacing" textLength="84" x="300.1624" y="713.1826">operator[]()</text><ellipse cx="291.1624" cy="726.1328" fill="#84BE84" rx="3" ry="3" style="stroke:#038048;stroke-width:1.0;"/><text fill="#000000" font-family="sans-serif" font-size="14" lengthAdjust="spacing" textLength="85" x="300.1624" y="729.4795">operator=()</text><ellipse cx="291.1624" cy="742.4297" fill="#84BE84" rx="3" ry="3" style="stroke:#038048;stroke-width:1.0;"/><text fill="#000000" font-family="sans-serif" font-size="14" lengthAdjust="spacing" textLength="42" x="300.1624" y="745.7764">data()</text><ellipse cx="291.1624" cy="758.7266" fill="#84BE84" rx="3" ry="3" style="stroke:#038048;stroke-width:1.0;"/><text fill="#000000" font-family="sans-serif" font-size="14" lengthAdjust="spacing" textLength="78" x="300.1624" y="762.0732">sequence()</text><ellipse cx="291.1624" cy="775.0234" fill="#84BE84" rx="3" ry="3" style="stroke:#038048;stroke-width:1.0;"/><text fill="#000000" font-family="sans-serif" font-size="14" lengthAdjust="spacing" textLength="137" x="300.1624" y="778.3701">iterator functions()</text><ellipse cx="291.1624" cy="791.3203" fill="#84BE84" rx="3" ry="3" style="stroke:#038048;stroke-width:1.0;"/><text fill="#000000" font-family="sans-serif" font-size="14" lengthAdjust="spacing" textLength="46" x="300.1624" y="794.667">swap()</text></g><!--class basic_vector::anonymous_union--><g id="elem_basic_vector::anonymous_union"><rect codeLine="44" fill="#F1F1F1" height="80.5938" id="basic_vector::anonymous_union" rx="2.5" ry="2.5" style="stroke:#181818;stroke-width:0.5;" width="260" x="217.1624" y="886.2969"/><ellipse cx="232.1624" cy="902.2969" fill="#E3664A" rx="11" ry="11" style="stroke:#181818;stroke-width:1.0;"/><path d="M233.0843,899.5469 C231.178,899.6875 229.8655,900.875 229.8655,902.4531 C229.8655,903.8594 231.0687,905.0781 232.5218,905.0781 C232.678,905.0781 232.8187,905.0625 233.0843,905.0156 L233.0843,905.0781 L233.8812,905.0781 C234.5062,905.0781 234.8187,904.8594 234.8187,904.375 C234.8187,904.0938 234.6937,903.9063 234.428,903.7813 L234.428,899 C234.428,897.1094 233.1155,895.75 231.2718,895.75 C229.0687,895.75 227.4593,897.875 227.4593,900.8125 L227.4593,903.6719 C227.4593,904.9219 227.7405,906.1406 228.2562,907.0625 C228.9749,908.3125 229.8968,908.875 231.303,908.875 C232.9124,908.875 234.303,908.2188 234.303,907.4219 C234.303,907.0313 234.0062,906.7188 233.6312,906.7188 C233.428,906.7188 233.3343,906.7656 233.0999,907.0156 C232.7718,907.3438 232.0999,907.5625 231.3499,907.5625 C230.5999,907.5625 230.0687,907.2969 229.6624,906.7031 C229.0843,905.9063 228.803,904.8594 228.803,903.5625 L228.803,900.9063 C228.803,898.7344 229.8655,897.0938 231.303,897.0938 C232.3499,897.0938 233.0843,897.875 233.0843,899 L233.0843,899.5469 Z M233.0843,903.6563 C232.8499,903.7031 232.7562,903.7031 232.6468,903.7031 C231.8187,903.7031 231.2093,903.1719 231.2093,902.4688 C231.2093,901.6406 231.9593,901.0313 233.0843,900.9219 L233.0843,903.6563 Z " fill="#000000"/><text fill="#000000" font-family="sans-serif" font-size="14" lengthAdjust="spacing" textLength="228" x="246.1624" y="907.1436">basic_vector::anonymous_union</text><line style="stroke:#181818;stroke-width:0.5;" x1="218.1624" x2="476.1624" y1="918.2969" y2="918.2969"/><ellipse cx="228.1624" cy="931.9453" fill="none" rx="3" ry="3" style="stroke:#038048;stroke-width:1.0;"/><text fill="#000000" font-family="sans-serif" font-size="14" lengthAdjust="spacing" textLength="34" x="237.1624" y="935.292">base</text><ellipse cx="228.1624" cy="948.2422" fill="none" rx="3" ry="3" style="stroke:#038048;stroke-width:1.0;"/><text fill="#000000" font-family="sans-serif" font-size="14" lengthAdjust="spacing" textLength="58" x="237.1624" y="951.5889">swizzles</text><line style="stroke:#181818;stroke-width:0.5;" x1="218.1624" x2="476.1624" y1="958.8906" y2="958.8906"/></g><!--class storage_wrapper--><g id="elem_storage_wrapper"><rect codeLine="49" fill="#F1F1F1" height="227.2656" id="storage_wrapper" rx="2.5" ry="2.5" style="stroke:#181818;stroke-width:0.5;" width="197" x="225.6624" y="1051.2969"/><ellipse cx="240.6624" cy="1067.2969" fill="#F1F1F1" rx="11" ry="11" style="stroke:#181818;stroke-width:1.0;"/><path d="M244.4437,1063.2656 C244.4437,1062.8281 244.428,1062.6875 244.3343,1062.5313 C244.1937,1062.2969 243.9124,1062.1406 243.6155,1062.1406 C243.2718,1062.1406 243.1312,1062.2813 242.9593,1062.7031 C242.3655,1062.3281 241.6155,1062.1406 240.7405,1062.1406 C238.6312,1062.1406 237.053,1063.4375 237.053,1065.1563 C237.053,1066.125 237.5843,1067.0313 238.4437,1067.5156 C238.9905,1067.8281 239.5374,1068 240.6468,1068.1875 C241.803,1068.3906 242.0687,1068.4531 242.428,1068.6406 C242.803,1068.8438 243.0374,1069.1875 243.0374,1069.5469 C243.0374,1070.2813 242.053,1070.8281 240.803,1070.8281 C239.678,1070.8281 238.5999,1070.3438 238.428,1069.7344 C238.303,1069.2656 238.303,1069.2656 238.178,1069.1563 C238.0218,1069 237.803,1068.9063 237.5687,1068.9063 C237.2874,1068.9063 237.0374,1069.0313 236.8655,1069.25 C236.7562,1069.4219 236.7093,1069.6094 236.7093,1070.0313 L236.7093,1071.1563 C236.7093,1071.9219 236.9905,1072.2813 237.5843,1072.2813 C237.8499,1072.2813 237.9749,1072.2188 238.2562,1071.875 C239.0999,1072.3125 239.9905,1072.5313 240.9124,1072.5313 C243.2405,1072.5313 244.803,1071.3438 244.803,1069.5781 C244.803,1068.6875 244.4905,1068 243.803,1067.4531 C243.2718,1067.0313 242.6312,1066.7813 241.1468,1066.5156 C239.8812,1066.2813 239.7874,1066.25 239.4593,1066.0781 C239.0843,1065.8906 238.8187,1065.5 238.8187,1065.1406 C238.8187,1064.4063 239.678,1063.8438 240.7405,1063.8438 C241.803,1063.8438 242.6155,1064.3125 242.7718,1064.9844 C242.8812,1065.5313 242.8812,1065.5313 243.0062,1065.6719 C243.1468,1065.7969 243.3812,1065.9063 243.6155,1065.9063 C243.8812,1065.9063 244.1312,1065.7656 244.303,1065.5469 C244.4124,1065.375 244.4437,1065.2344 244.4437,1064.7656 L244.4437,1063.2656 Z " fill="#000000"/><text fill="#000000" font-family="sans-serif" font-size="14" lengthAdjust="spacing" textLength="122" x="254.6624" y="1072.1436">storage_wrapper</text><rect fill="#FFFFFF" height="15.9688" style="stroke:#181818;stroke-width:1.0;stroke-dasharray:2.0,2.0;" width="41" x="384.6624" y="1048.2969"/><text fill="#000000" font-family="sans-serif" font-size="12" font-style="italic" lengthAdjust="spacing" textLength="39" x="385.6624" y="1060.4355">T, Size</text><line style="stroke:#181818;stroke-width:0.5;" x1="226.6624" x2="421.6624" y1="1083.2969" y2="1083.2969"/><ellipse cx="236.6624" cy="1096.9453" fill="none" rx="3" ry="3" style="stroke:#038048;stroke-width:1.0;"/><text fill="#000000" font-family="sans-serif" font-size="14" lengthAdjust="spacing" textLength="38" x="245.6624" y="1100.292">store</text><ellipse cx="236.6624" cy="1113.2422" fill="none" rx="3" ry="3" style="stroke:#038048;stroke-width:1.0;"/><text fill="#000000" font-family="sans-serif" font-size="14" lengthAdjust="spacing" text-decoration="underline" textLength="51" x="245.6624" y="1116.5889">offsets</text><line style="stroke:#181818;stroke-width:0.5;" x1="226.6624" x2="421.6624" y1="1123.8906" y2="1123.8906"/><ellipse cx="236.6624" cy="1137.5391" fill="#84BE84" rx="3" ry="3" style="stroke:#038048;stroke-width:1.0;"/><text fill="#000000" font-family="sans-serif" font-size="14" lengthAdjust="spacing" textLength="33" x="245.6624" y="1140.8857">set()</text><ellipse cx="236.6624" cy="1153.8359" fill="#84BE84" rx="3" ry="3" style="stroke:#038048;stroke-width:1.0;"/><text fill="#000000" font-family="sans-serif" font-size="14" lengthAdjust="spacing" textLength="84" x="245.6624" y="1157.1826">operator[]()</text><ellipse cx="236.6624" cy="1170.1328" fill="#84BE84" rx="3" ry="3" style="stroke:#038048;stroke-width:1.0;"/><text fill="#000000" font-family="sans-serif" font-size="14" lengthAdjust="spacing" textLength="85" x="245.6624" y="1173.4795">operator=()</text><ellipse cx="236.6624" cy="1186.4297" fill="#84BE84" rx="3" ry="3" style="stroke:#038048;stroke-width:1.0;"/><text fill="#000000" font-family="sans-serif" font-size="14" lengthAdjust="spacing" textLength="42" x="245.6624" y="1189.7764">data()</text><ellipse cx="236.6624" cy="1202.7266" fill="#84BE84" rx="3" ry="3" style="stroke:#038048;stroke-width:1.0;"/><text fill="#000000" font-family="sans-serif" font-size="14" lengthAdjust="spacing" textLength="78" x="245.6624" y="1206.0732">sequence()</text><ellipse cx="236.6624" cy="1219.0234" fill="#84BE84" rx="3" ry="3" style="stroke:#038048;stroke-width:1.0;"/><text fill="#000000" font-family="sans-serif" font-size="14" lengthAdjust="spacing" textLength="137" x="245.6624" y="1222.3701">iterator functions()</text><ellipse cx="236.6624" cy="1235.3203" fill="#84BE84" rx="3" ry="3" style="stroke:#038048;stroke-width:1.0;"/><text fill="#000000" font-family="sans-serif" font-size="14" lengthAdjust="spacing" textLength="57" x="245.6624" y="1238.667">length()</text><ellipse cx="236.6624" cy="1251.6172" fill="#84BE84" rx="3" ry="3" style="stroke:#038048;stroke-width:1.0;"/><text fill="#000000" font-family="sans-serif" font-size="14" lengthAdjust="spacing" textLength="38" x="245.6624" y="1254.9639">size()</text><ellipse cx="236.6624" cy="1267.9141" fill="#84BE84" rx="3" ry="3" style="stroke:#038048;stroke-width:1.0;"/><text fill="#000000" font-family="sans-serif" font-size="14" lengthAdjust="spacing" textLength="46" x="245.6624" y="1271.2607">swap()</text></g><!--class indexed_vector--><g id="elem_indexed_vector"><rect codeLine="63" fill="#F1F1F1" height="178.375" id="indexed_vector" rx="2.5" ry="2.5" style="stroke:#181818;stroke-width:0.5;" width="260" x="474.1624" y="1075.7969"/><ellipse cx="489.1624" cy="1091.7969" fill="#F1F1F1" rx="11" ry="11" style="stroke:#181818;stroke-width:1.0;"/><path d="M492.9437,1087.7656 C492.9437,1087.3281 492.928,1087.1875 492.8343,1087.0313 C492.6937,1086.7969 492.4124,1086.6406 492.1155,1086.6406 C491.7718,1086.6406 491.6312,1086.7813 491.4593,1087.2031 C490.8655,1086.8281 490.1155,1086.6406 489.2405,1086.6406 C487.1312,1086.6406 485.553,1087.9375 485.553,1089.6563 C485.553,1090.625 486.0843,1091.5313 486.9437,1092.0156 C487.4905,1092.3281 488.0374,1092.5 489.1468,1092.6875 C490.303,1092.8906 490.5687,1092.9531 490.928,1093.1406 C491.303,1093.3438 491.5374,1093.6875 491.5374,1094.0469 C491.5374,1094.7813 490.553,1095.3281 489.303,1095.3281 C488.178,1095.3281 487.0999,1094.8438 486.928,1094.2344 C486.803,1093.7656 486.803,1093.7656 486.678,1093.6563 C486.5218,1093.5 486.303,1093.4063 486.0687,1093.4063 C485.7874,1093.4063 485.5374,1093.5313 485.3655,1093.75 C485.2562,1093.9219 485.2093,1094.1094 485.2093,1094.5313 L485.2093,1095.6563 C485.2093,1096.4219 485.4905,1096.7813 486.0843,1096.7813 C486.3499,1096.7813 486.4749,1096.7188 486.7562,1096.375 C487.5999,1096.8125 488.4905,1097.0313 489.4124,1097.0313 C491.7405,1097.0313 493.303,1095.8438 493.303,1094.0781 C493.303,1093.1875 492.9905,1092.5 492.303,1091.9531 C491.7718,1091.5313 491.1312,1091.2813 489.6468,1091.0156 C488.3812,1090.7813 488.2874,1090.75 487.9593,1090.5781 C487.5843,1090.3906 487.3187,1090 487.3187,1089.6406 C487.3187,1088.9063 488.178,1088.3438 489.2405,1088.3438 C490.303,1088.3438 491.1155,1088.8125 491.2718,1089.4844 C491.3812,1090.0313 491.3812,1090.0313 491.5062,1090.1719 C491.6468,1090.2969 491.8812,1090.4063 492.1155,1090.4063 C492.3812,1090.4063 492.6312,1090.2656 492.803,1090.0469 C492.9124,1089.875 492.9437,1089.7344 492.9437,1089.2656 L492.9437,1087.7656 Z " fill="#000000"/><text fill="#000000" font-family="sans-serif" font-size="14" lengthAdjust="spacing" textLength="111" x="503.1624" y="1096.6436">indexed_vector</text><rect fill="#FFFFFF" height="15.9688" style="stroke:#181818;stroke-width:1.0;stroke-dasharray:2.0,2.0;" width="115" x="622.1624" y="1072.7969"/><text fill="#000000" font-family="sans-serif" font-size="12" font-style="italic" lengthAdjust="spacing" textLength="113" x="623.1624" y="1084.9355">T, Size, Count, ...Is</text><line style="stroke:#181818;stroke-width:0.5;" x1="475.1624" x2="733.1624" y1="1107.7969" y2="1107.7969"/><ellipse cx="485.1624" cy="1121.4453" fill="none" rx="3" ry="3" style="stroke:#038048;stroke-width:1.0;"/><text fill="#000000" font-family="sans-serif" font-size="14" lengthAdjust="spacing" textLength="34" x="494.1624" y="1124.792">base</text><ellipse cx="485.1624" cy="1137.7422" fill="none" rx="3" ry="3" style="stroke:#038048;stroke-width:1.0;"/><text fill="#000000" font-family="sans-serif" font-size="14" lengthAdjust="spacing" text-decoration="underline" textLength="51" x="494.1624" y="1141.0889">offsets</text><line style="stroke:#181818;stroke-width:0.5;" x1="475.1624" x2="733.1624" y1="1148.3906" y2="1148.3906"/><ellipse cx="485.1624" cy="1162.0391" fill="#84BE84" rx="3" ry="3" style="stroke:#038048;stroke-width:1.0;"/><text fill="#000000" font-family="sans-serif" font-size="14" lengthAdjust="spacing" textLength="33" x="494.1624" y="1165.3857">set()</text><ellipse cx="485.1624" cy="1178.3359" fill="#84BE84" rx="3" ry="3" style="stroke:#038048;stroke-width:1.0;"/><text fill="#000000" font-family="sans-serif" font-size="14" lengthAdjust="spacing" textLength="84" x="494.1624" y="1181.6826">operator[]()</text><ellipse cx="485.1624" cy="1194.6328" fill="#84BE84" rx="3" ry="3" style="stroke:#038048;stroke-width:1.0;"/><text fill="#000000" font-family="sans-serif" font-size="14" lengthAdjust="spacing" textLength="85" x="494.1624" y="1197.9795">operator=()</text><ellipse cx="485.1624" cy="1210.9297" fill="#84BE84" rx="3" ry="3" style="stroke:#038048;stroke-width:1.0;"/><text fill="#000000" font-family="sans-serif" font-size="14" lengthAdjust="spacing" textLength="42" x="494.1624" y="1214.2764">data()</text><ellipse cx="485.1624" cy="1227.2266" fill="#84BE84" rx="3" ry="3" style="stroke:#038048;stroke-width:1.0;"/><text fill="#000000" font-family="sans-serif" font-size="14" lengthAdjust="spacing" textLength="78" x="494.1624" y="1230.5732">sequence()</text><ellipse cx="485.1624" cy="1243.5234" fill="#84BE84" rx="3" ry="3" style="stroke:#038048;stroke-width:1.0;"/><text fill="#000000" font-family="sans-serif" font-size="14" lengthAdjust="spacing" textLength="137" x="494.1624" y="1246.8701">iterator functions()</text></g><!--class basic_matrix--><g id="elem_basic_matrix"><rect codeLine="74" fill="#F1F1F1" height="227.2656" id="basic_matrix" rx="2.5" ry="2.5" style="stroke:#181818;stroke-width:0.5;" width="205" x="835.6624" y="274.7969"/><ellipse cx="850.6624" cy="290.7969" fill="#F1F1F1" rx="11" ry="11" style="stroke:#181818;stroke-width:1.0;"/><path d="M854.4437,286.7656 C854.4437,286.3281 854.428,286.1875 854.3343,286.0313 C854.1937,285.7969 853.9124,285.6406 853.6155,285.6406 C853.2718,285.6406 853.1312,285.7813 852.9593,286.2031 C852.3655,285.8281 851.6155,285.6406 850.7405,285.6406 C848.6312,285.6406 847.053,286.9375 847.053,288.6563 C847.053,289.625 847.5843,290.5313 848.4437,291.0156 C848.9905,291.3281 849.5374,291.5 850.6468,291.6875 C851.803,291.8906 852.0687,291.9531 852.428,292.1406 C852.803,292.3438 853.0374,292.6875 853.0374,293.0469 C853.0374,293.7813 852.053,294.3281 850.803,294.3281 C849.678,294.3281 848.5999,293.8438 848.428,293.2344 C848.303,292.7656 848.303,292.7656 848.178,292.6563 C848.0218,292.5 847.803,292.4063 847.5687,292.4063 C847.2874,292.4063 847.0374,292.5313 846.8655,292.75 C846.7562,292.9219 846.7093,293.1094 846.7093,293.5313 L846.7093,294.6563 C846.7093,295.4219 846.9905,295.7813 847.5843,295.7813 C847.8499,295.7813 847.9749,295.7188 848.2562,295.375 C849.0999,295.8125 849.9905,296.0313 850.9124,296.0313 C853.2405,296.0313 854.803,294.8438 854.803,293.0781 C854.803,292.1875 854.4905,291.5 853.803,290.9531 C853.2718,290.5313 852.6312,290.2813 851.1468,290.0156 C849.8812,289.7813 849.7874,289.75 849.4593,289.5781 C849.0843,289.3906 848.8187,289 848.8187,288.6406 C848.8187,287.9063 849.678,287.3438 850.7405,287.3438 C851.803,287.3438 852.6155,287.8125 852.7718,288.4844 C852.8812,289.0313 852.8812,289.0313 853.0062,289.1719 C853.1468,289.2969 853.3812,289.4063 853.6155,289.4063 C853.8812,289.4063 854.1312,289.2656 854.303,289.0469 C854.4124,288.875 854.4437,288.7344 854.4437,288.2656 L854.4437,286.7656 Z " fill="#000000"/><text fill="#000000" font-family="sans-serif" font-size="14" lengthAdjust="spacing" textLength="91" x="864.6624" y="295.6436">basic_matrix</text><rect fill="#FFFFFF" height="15.9688" style="stroke:#181818;stroke-width:1.0;stroke-dasharray:2.0,2.0;" width="80" x="963.6624" y="271.7969"/><text fill="#000000" font-family="sans-serif" font-size="12" font-style="italic" lengthAdjust="spacing" textLength="78" x="964.6624" y="283.9355">T, Cols, Rows</text><line style="stroke:#181818;stroke-width:0.5;" x1="836.6624" x2="1039.6624" y1="306.7969" y2="306.7969"/><ellipse cx="846.6624" cy="320.4453" fill="none" rx="3" ry="3" style="stroke:#038048;stroke-width:1.0;"/><text fill="#000000" font-family="sans-serif" font-size="14" lengthAdjust="spacing" textLength="59" x="855.6624" y="323.792">columns</text><line style="stroke:#181818;stroke-width:0.5;" x1="836.6624" x2="1039.6624" y1="331.0938" y2="331.0938"/><ellipse cx="846.6624" cy="344.7422" fill="#84BE84" rx="3" ry="3" style="stroke:#038048;stroke-width:1.0;"/><text fill="#000000" font-family="sans-serif" font-size="14" lengthAdjust="spacing" textLength="36" x="855.6624" y="348.0889">row()</text><ellipse cx="846.6624" cy="361.0391" fill="#84BE84" rx="3" ry="3" style="stroke:#038048;stroke-width:1.0;"/><text fill="#000000" font-family="sans-serif" font-size="14" lengthAdjust="spacing" textLength="84" x="855.6624" y="364.3857">operator[]()</text><ellipse cx="846.6624" cy="377.3359" fill="#84BE84" rx="3" ry="3" style="stroke:#038048;stroke-width:1.0;"/><text fill="#000000" font-family="sans-serif" font-size="14" lengthAdjust="spacing" textLength="85" x="855.6624" y="380.6826">operator=()</text><ellipse cx="846.6624" cy="393.6328" fill="#84BE84" rx="3" ry="3" style="stroke:#038048;stroke-width:1.0;"/><text fill="#000000" font-family="sans-serif" font-size="14" lengthAdjust="spacing" textLength="42" x="855.6624" y="396.9795">data()</text><ellipse cx="846.6624" cy="409.9297" fill="#84BE84" rx="3" ry="3" style="stroke:#038048;stroke-width:1.0;"/><text fill="#000000" font-family="sans-serif" font-size="14" lengthAdjust="spacing" textLength="137" x="855.6624" y="413.2764">iterator functions()</text><ellipse cx="846.6624" cy="426.2266" fill="#84BE84" rx="3" ry="3" style="stroke:#038048;stroke-width:1.0;"/><text fill="#000000" font-family="sans-serif" font-size="14" lengthAdjust="spacing" textLength="57" x="855.6624" y="429.5732">length()</text><ellipse cx="846.6624" cy="442.5234" fill="#84BE84" rx="3" ry="3" style="stroke:#038048;stroke-width:1.0;"/><text fill="#000000" font-family="sans-serif" font-size="14" lengthAdjust="spacing" textLength="116" x="855.6624" y="445.8701">column_length()</text><ellipse cx="846.6624" cy="458.8203" fill="#84BE84" rx="3" ry="3" style="stroke:#038048;stroke-width:1.0;"/><text fill="#000000" font-family="sans-serif" font-size="14" lengthAdjust="spacing" textLength="38" x="855.6624" y="462.167">size()</text><ellipse cx="846.6624" cy="475.1172" fill="#84BE84" rx="3" ry="3" style="stroke:#038048;stroke-width:1.0;"/><text fill="#000000" font-family="sans-serif" font-size="14" lengthAdjust="spacing" textLength="97" x="855.6624" y="478.4639">column_size()</text><ellipse cx="846.6624" cy="491.4141" fill="#84BE84" rx="3" ry="3" style="stroke:#038048;stroke-width:1.0;"/><text fill="#000000" font-family="sans-serif" font-size="14" lengthAdjust="spacing" textLength="46" x="855.6624" y="494.7607">swap()</text></g><!--class std::array--><g id="elem_std::array"><rect codeLine="88" fill="#F1F1F1" height="48" id="std::array" rx="2.5" ry="2.5" style="stroke:#181818;stroke-width:0.5;" width="144" x="392.1624" y="1359.2969"/><ellipse cx="407.1624" cy="1375.2969" fill="#ADD1B2" rx="11" ry="11" style="stroke:#181818;stroke-width:1.0;"/><path d="M409.5062,1370.9688 C408.5687,1370.5313 407.9749,1370.3906 407.0999,1370.3906 C404.4749,1370.3906 402.4749,1372.4688 402.4749,1375.1875 L402.4749,1376.3125 C402.4749,1378.8906 404.5843,1380.7813 407.4749,1380.7813 C408.6937,1380.7813 409.8499,1380.4844 410.5999,1379.9375 C411.178,1379.5313 411.5062,1379.0781 411.5062,1378.6875 C411.5062,1378.2344 411.1155,1377.8438 410.6468,1377.8438 C410.428,1377.8438 410.2249,1377.9219 410.0374,1378.1094 C409.5843,1378.5938 409.5843,1378.5938 409.3968,1378.6875 C408.9749,1378.9531 408.2874,1379.0781 407.5218,1379.0781 C405.4749,1379.0781 404.178,1377.9844 404.178,1376.2813 L404.178,1375.1875 C404.178,1373.4063 405.428,1372.0938 407.1624,1372.0938 C407.7405,1372.0938 408.3499,1372.25 408.8187,1372.5 C409.303,1372.7813 409.4749,1373 409.5687,1373.4063 C409.6312,1373.8125 409.6624,1373.9375 409.803,1374.0625 C409.9437,1374.2031 410.178,1374.3125 410.3968,1374.3125 C410.6624,1374.3125 410.928,1374.1719 411.0999,1373.9531 C411.2093,1373.7969 411.2405,1373.6094 411.2405,1373.1875 L411.2405,1371.7656 C411.2405,1371.3281 411.2249,1371.2031 411.1312,1371.0469 C410.9749,1370.7813 410.6937,1370.6406 410.3968,1370.6406 C410.0999,1370.6406 409.8968,1370.7344 409.678,1371.0469 L409.5062,1370.9688 Z " fill="#000000"/><text fill="#000000" font-family="sans-serif" font-size="14" lengthAdjust="spacing" textLength="69" x="421.1624" y="1380.1436">std::array</text><rect fill="#FFFFFF" height="15.9688" style="stroke:#181818;stroke-width:1.0;stroke-dasharray:2.0,2.0;" width="41" x="498.1624" y="1356.2969"/><text fill="#000000" font-family="sans-serif" font-size="12" font-style="italic" lengthAdjust="spacing" textLength="39" x="499.1624" y="1368.4355">T, Size</text><line style="stroke:#181818;stroke-width:0.5;" x1="393.1624" x2="535.1624" y1="1391.2969" y2="1391.2969"/><line style="stroke:#181818;stroke-width:0.5;" x1="393.1624" x2="535.1624" y1="1399.2969" y2="1399.2969"/></g><!--class class1--><g id="elem_class1"><rect codeLine="91" fill="#F1F1F1" height="48" id="class1" rx="2.5" ry="2.5" style="stroke:#181818;stroke-width:0.5;" width="278" x="800.1624" y="680.2969"/><ellipse cx="815.1624" cy="696.2969" fill="#ADD1B2" rx="11" ry="11" style="stroke:#181818;stroke-width:1.0;"/><path d="M817.5062,691.9688 C816.5687,691.5313 815.9749,691.3906 815.0999,691.3906 C812.4749,691.3906 810.4749,693.4688 810.4749,696.1875 L810.4749,697.3125 C810.4749,699.8906 812.5843,701.7813 815.4749,701.7813 C816.6937,701.7813 817.8499,701.4844 818.5999,700.9375 C819.178,700.5313 819.5062,700.0781 819.5062,699.6875 C819.5062,699.2344 819.1155,698.8438 818.6468,698.8438 C818.428,698.8438 818.2249,698.9219 818.0374,699.1094 C817.5843,699.5938 817.5843,699.5938 817.3968,699.6875 C816.9749,699.9531 816.2874,700.0781 815.5218,700.0781 C813.4749,700.0781 812.178,698.9844 812.178,697.2813 L812.178,696.1875 C812.178,694.4063 813.428,693.0938 815.1624,693.0938 C815.7405,693.0938 816.3499,693.25 816.8187,693.5 C817.303,693.7813 817.4749,694 817.5687,694.4063 C817.6312,694.8125 817.6624,694.9375 817.803,695.0625 C817.9437,695.2031 818.178,695.3125 818.3968,695.3125 C818.6624,695.3125 818.928,695.1719 819.0999,694.9531 C819.2093,694.7969 819.2405,694.6094 819.2405,694.1875 L819.2405,692.7656 C819.2405,692.3281 819.2249,692.2031 819.1312,692.0469 C818.9749,691.7813 818.6937,691.6406 818.3968,691.6406 C818.0999,691.6406 817.8968,691.7344 817.678,692.0469 L817.5062,691.9688 Z " fill="#000000"/><text fill="#000000" font-family="sans-serif" font-size="14" lengthAdjust="spacing" textLength="69" x="829.1624" y="701.1436">std::array</text><rect fill="#FFFFFF" height="15.9688" style="stroke:#181818;stroke-width:1.0;stroke-dasharray:2.0,2.0;" width="175" x="906.1624" y="677.2969"/><text fill="#000000" font-family="sans-serif" font-size="12" font-style="italic" lengthAdjust="spacing" textLength="173" x="907.1624" y="689.4355">basic_vector&lt;T, Rows&gt;, Cols</text><line style="stroke:#181818;stroke-width:0.5;" x1="801.1624" x2="1077.1624" y1="712.2969" y2="712.2969"/><line style="stroke:#181818;stroke-width:0.5;" x1="801.1624" x2="1077.1624" y1="720.2969" y2="720.2969"/></g><!--reverse link vector_base to basic_vector--><g id="link_vector_base_basic_vector"><path codeLine="92" d="M411.2644,545.9639 C405.3194,565.4089 399.3724,584.8609 393.7884,603.1259 " fill="none" id="vector_base-backto-basic_vector" style="stroke:#181818;stroke-width:1.0;"/><polygon fill="none" points="404.6534,543.6449,417.1954,526.5649,418.0414,547.7379,404.6534,543.6449" style="stroke:#181818;stroke-width:1.0;"/><text fill="#000000" font-family="sans-serif" font-size="13" lengthAdjust="spacing" textLength="85" x="407.1624" y="569.3638">CRTP inherits</text></g><!--reverse link vector_base to indexed_vector--><g id="link_vector_base_indexed_vector"><path codeLine="93" d="M499.1794,546.2149 C499.8644,549.6019 500.5264,552.9659 501.1624,556.2969 C526.0524,686.6339 518.1294,721.4469 540.1624,852.2969 C552.6534,926.4759 569.9774,1009.9319 583.4514,1071.7779 " fill="none" id="vector_base-backto-indexed_vector" style="stroke:#181818;stroke-width:1.0;"/><polygon fill="none" points="492.3264,547.6429,495.0364,526.6279,506.0234,544.7459,492.3264,547.6429" style="stroke:#181818;stroke-width:1.0;"/><text fill="#000000" font-family="sans-serif" font-size="13" lengthAdjust="spacing" textLength="85" x="541.1624" y="848.3638">CRTP inherits</text></g><!--reverse link CRTP duck type to basic_vector--><g id="link_CRTP duck type_basic_vector"><path codeLine="94" d="M360.4114,132.8569 C298.9594,152.8669 224.7054,188.6469 187.1625,250.2969 C123.3602,355.0669 140.3806,412.9009 187.1625,526.2969 C204.9294,569.3609 238.8094,607.4689 272.1374,637.1899 " fill="none" id="CRTP duck type-backto-basic_vector" style="stroke:#181818;stroke-width:1.0;stroke-dasharray:7.0,7.0;"/><polygon fill="none" points="358.6774,126.0669,379.8504,126.9069,362.7784,139.4569,358.6774,126.0669" style="stroke:#181818;stroke-width:1.0;"/><text fill="#000000" font-family="sans-serif" font-size="13" lengthAdjust="spacing" textLength="110" x="188.1625" y="392.8638">duck implements</text></g><!--reverse link CRTP duck type to indexed_vector--><g id="link_CRTP duck type_indexed_vector"><path codeLine="95" d="M554.1734,182.5669 C583.8384,207.4569 610.9814,233.2769 619.1624,250.2969 C687.7774,393.0869 640.1834,869.2079 615.9554,1071.5489 " fill="none" id="CRTP duck type-backto-indexed_vector" style="stroke:#181818;stroke-width:1.0;stroke-dasharray:7.0,7.0;"/><polygon fill="none" points="549.5204,187.8069,538.5184,169.6969,558.4124,176.9969,549.5204,187.8069" style="stroke:#181818;stroke-width:1.0;"/><text fill="#000000" font-family="sans-serif" font-size="13" lengthAdjust="spacing" textLength="110" x="655.1624" y="708.8638">duck implements</text></g><!--reverse link basic_vector::anonymous_union to storage_wrapper--><g id="link_basic_vector::anonymous_union_storage_wrapper"><path codeLine="96" d="M206.0704,938.7469 C205.0054,947.4369 210.8504,960.9799 217.1624,970.2969 C236.1474,998.3199 265.5074,974.2829 287.1624,1000.2969 C298.4274,1013.8289 306.4344,1030.0969 312.0944,1047.0509 " fill="none" id="basic_vector::anonymous_union-backto-storage_wrapper" style="stroke:#181818;stroke-width:1.0;"/><polygon fill="#181818" points="216.1624,930.2969,208.9942,931.0819,206.9618,938.0007,214.1301,937.2157,216.1624,930.2969" style="stroke:#181818;stroke-width:1.0;"/><text fill="#000000" font-family="sans-serif" font-size="13" lengthAdjust="spacing" textLength="31" x="299.1624" y="1013.3638">base</text><text fill="#000000" font-family="sans-serif" font-size="13" lengthAdjust="spacing" textLength="8" x="201.2015" y="927.1714">1</text><text fill="#000000" font-family="sans-serif" font-size="13" lengthAdjust="spacing" textLength="8" x="303.6174" y="1040.3976">1</text></g><!--reverse link basic_vector::anonymous_union to indexed_vector--><g id="link_basic_vector::anonymous_union_indexed_vector"><path codeLine="97" d="M481.3874,959.2309 C480.0334,962.8809 478.2984,966.8079 477.1624,970.2969 C470.1334,991.8829 448.4574,996.3309 457.1624,1017.2969 C465.2454,1036.7639 477.3104,1054.9829 491.1154,1071.5099 " fill="none" id="basic_vector::anonymous_union-backto-indexed_vector" style="stroke:#181818;stroke-width:1.0;"/><polygon fill="#181818" points="478.1624,946.2969,475.7332,953.0865,481.0663,957.9402,483.4955,951.1506,478.1624,946.2969" style="stroke:#181818;stroke-width:1.0;"/><text fill="#000000" font-family="sans-serif" font-size="13" lengthAdjust="spacing" textLength="53" x="458.1624" y="1013.3638">swizzles</text><text fill="#000000" font-family="sans-serif" font-size="13" lengthAdjust="spacing" textLength="8" x="485.1233" y="943.9964">1</text><text fill="#000000" font-family="sans-serif" font-size="13" lengthAdjust="spacing" textLength="37" x="448.9768" y="1064.635">many</text></g><!--reverse link basic_vector to basic_vector::anonymous_union--><g id="link_basic_vector_basic_vector::anonymous_union"><path codeLine="98" d="M266.2014,652.4559 C193.7154,666.7119 272.6044,808.9389 318.7034,882.1829 " fill="none" id="basic_vector-backto-basic_vector::anonymous_union" style="stroke:#181818;stroke-width:1.0;"/><polygon fill="#181818" points="279.1624,651.2969,272.8298,647.8475,267.2101,652.3663,273.5427,655.8157,279.1624,651.2969" style="stroke:#181818;stroke-width:1.0;"/><text fill="#000000" font-family="sans-serif" font-size="13" lengthAdjust="spacing" textLength="163" x="302.1624" y="848.3638">nested anonymous union</text><text fill="#000000" font-family="sans-serif" font-size="13" lengthAdjust="spacing" textLength="8" x="264.1499" y="643.5212">1</text><text fill="#000000" font-family="sans-serif" font-size="13" lengthAdjust="spacing" textLength="8" x="308.2183" y="875.2804">1</text></g><!--reverse link CRTP duck type to vector_base--><g id="link_CRTP duck type_vector_base"><path codeLine="99" d="M459.1624,178.6369 C459.1624,200.4169 459.1624,225.2969 459.1624,250.1169 " fill="none" id="CRTP duck type-backto-vector_base" style="stroke:#181818;stroke-width:1.0;stroke-dasharray:7.0,7.0;"/><polygon fill="#181818" points="459.1624,173.4569,455.1624,182.4569,459.1624,178.4569,463.1624,182.4569,459.1624,173.4569" style="stroke:#181818;stroke-width:1.0;"/><text fill="#000000" font-family="sans-serif" font-size="13" lengthAdjust="spacing" textLength="88" x="460.1624" y="216.3638">Derived CRTP</text></g><!--reverse link storage_wrapper to std::array--><g id="link_storage_wrapper_std::array"><path codeLine="100" d="M435.7204,1117.7469 C456.7924,1144.4209 438.5824,1252.9479 423.1624,1282.2969 C412.3244,1302.9259 390.9404,1291.6359 380.1624,1312.2969 C376.6684,1318.9958 376.5144,1322.6807 380.1624,1329.2969 C386.9904,1341.6787 398.0624,1351.5662 409.9594,1359.2869 " fill="none" id="storage_wrapper-backto-std::array" style="stroke:#181818;stroke-width:1.0;"/><polygon fill="#181818" points="424.1624,1111.7969,427.6663,1118.0995,434.8318,1117.2891,431.3278,1110.9866,424.1624,1111.7969" style="stroke:#181818;stroke-width:1.0;"/><text fill="#000000" font-family="sans-serif" font-size="13" lengthAdjust="spacing" textLength="121" x="381.1624" y="1325.3638">&lt;std::size_t, Size&gt;</text><text fill="#000000" font-family="sans-serif" font-size="13" lengthAdjust="spacing" textLength="8" x="430.4999" y="1105.173">1</text><text fill="#000000" font-family="sans-serif" font-size="13" lengthAdjust="spacing" textLength="8" x="387.0449" y="1348.2963">1</text></g><!--reverse link storage_wrapper to std::array--><g id="link_storage_wrapper_std::array"><path codeLine="101" d="M213.0924,1101.5739 C188.8032,1129.5159 207.9034,1250.5899 226.1624,1282.2969 C259.5444,1340.2639 334.8984,1364.6303 391.9374,1374.872 " fill="none" id="storage_wrapper-backto-std::array-1" style="stroke:#181818;stroke-width:1.0;"/><polygon fill="#181818" points="225.1624,1095.7969,218.0236,1094.7785,214.3378,1100.9764,221.4766,1101.9949,225.1624,1095.7969" style="stroke:#181818;stroke-width:1.0;"/><text fill="#000000" font-family="sans-serif" font-size="13" lengthAdjust="spacing" textLength="62" x="269.1624" y="1325.3638">&lt;T, Size&gt;</text><text fill="#000000" font-family="sans-serif" font-size="13" lengthAdjust="spacing" textLength="8" x="209.5983" y="1087.2409">1</text><text fill="#000000" font-family="sans-serif" font-size="13" lengthAdjust="spacing" textLength="8" x="376.0767" y="1370.3035">1</text></g><!--reverse link basic_vector to std::array--><g id="link_basic_vector_std::array"><path codeLine="102" d="M266.1124,667.5819 C6,679.1209 80.158,1039.1609 200.1624,1282.2969 C234.3274,1351.5173 326.3814,1373.4155 392.1614,1380.0191 " fill="none" id="basic_vector-backto-std::array" style="stroke:#181818;stroke-width:1.0;"/><polygon fill="#181818" points="279.1624,667.2969,273.0768,663.4284,267.1652,667.558,273.2509,671.4265,279.1624,667.2969" style="stroke:#181818;stroke-width:1.0;"/><text fill="#000000" font-family="sans-serif" font-size="13" lengthAdjust="spacing" textLength="121" x="107.1625" y="1013.3638">&lt;std::size_t, Size&gt;</text><text fill="#000000" font-family="sans-serif" font-size="13" lengthAdjust="spacing" textLength="8" x="264.1499" y="660.7962">1</text><text fill="#000000" font-family="sans-serif" font-size="13" lengthAdjust="spacing" textLength="8" x="376.3238" y="1392.5282">1</text></g><!--reverse link indexed_vector to std::array--><g id="link_indexed_vector_std::array"><path codeLine="103" d="M748.3134,1137.6919 C784.1454,1149.6319 758.8444,1215.3049 734.1624,1257.7969 C693.5884,1327.6508 601.7174,1358.6258 536.4314,1372.1515 " fill="none" id="indexed_vector-backto-std::array" style="stroke:#181818;stroke-width:1.0;"/><polygon fill="#181818" points="735.1624,1135.7969,740.5305,1140.6118,747.0397,1137.5085,741.6716,1132.6936,735.1624,1135.7969" style="stroke:#181818;stroke-width:1.0;"/><text fill="#000000" font-family="sans-serif" font-size="13" lengthAdjust="spacing" textLength="133" x="682.1624" y="1325.3638">&lt;std::size_t, Count&gt;</text><text fill="#000000" font-family="sans-serif" font-size="13" lengthAdjust="spacing" textLength="8" x="742.1233" y="1130.9755">1</text><text fill="#000000" font-family="sans-serif" font-size="13" lengthAdjust="spacing" textLength="8" x="544.2966" y="1367.3024">1</text></g><!--reverse link indexed_vector to std::array--><g id="link_indexed_vector_std::array"><path codeLine="104" d="M462.2984,1127.3749 C449.5794,1152.5219 467.1474,1233.0149 474.1624,1257.7969 C481.8754,1285.0429 499.5484,1285.0229 507.1624,1312.2969 C511.9174,1329.3312 501.9774,1346.2868 490.4624,1359.2435 " fill="none" id="indexed_vector-backto-std::array-1" style="stroke:#181818;stroke-width:1.0;"/><polygon fill="#181818" points="473.1624,1119.7969,465.9529,1119.949,463.3204,1126.6624,470.5299,1126.5103,473.1624,1119.7969" style="stroke:#181818;stroke-width:1.0;"/><text fill="#000000" font-family="sans-serif" font-size="13" lengthAdjust="spacing" textLength="62" x="510.1624" y="1325.3638">&lt;T, Size&gt;</text><text fill="#000000" font-family="sans-serif" font-size="13" lengthAdjust="spacing" textLength="8" x="458.2015" y="1114.1505">1</text><text fill="#000000" font-family="sans-serif" font-size="13" lengthAdjust="spacing" textLength="8" x="488.1768" y="1348.2418">1</text></g><!--link basic_vector to class1--><g id="link_basic_vector_class1"><path codeLine="105" d="M454.2894,630.9059 C485.5364,610.0189 521.9284,590.0369 558.6624,579.2969 C650.7364,552.3779 683.2924,569.7459 773.1624,603.2969 C823.5714,622.1159 875.6054,656.6919 907.6704,680.0839 " fill="none" id="basic_vector-class1" style="stroke:#181818;stroke-width:1.0;"/><text fill="#000000" font-family="sans-serif" font-size="13" lengthAdjust="spacing" textLength="71" x="559.6624" y="569.3638">&lt;T, Rows&gt;</text><text fill="#000000" font-family="sans-serif" font-size="13" lengthAdjust="spacing" textLength="27" x="454.2894" y="627.9728">Cols</text></g><!--link class1 to std::array--><g id="link_class1_std::array"><path codeLine="106" d="M943.2774,728.5509 C958.0584,820.3649 998.7894,1160.8599 824.1624,1329.2969 C784.9484,1367.1216 635.1424,1378.0361 541.5784,1381.1319 " fill="none" id="class1-to-std::array" style="stroke:#181818;stroke-width:1.0;"/><polygon fill="#181818" points="536.3334,1381.2993,545.4568,1385.0092,541.3308,1381.1393,545.2008,1377.0133,536.3334,1381.2993" style="stroke:#181818;stroke-width:1.0;"/><text fill="#000000" font-family="sans-serif" font-size="13" lengthAdjust="spacing" textLength="69" x="955.1624" y="1013.3638">specializes</text></g><!--reverse link basic_matrix to class1--><g id="link_basic_matrix_class1"><path codeLine="107" d="M1055.2994,320.0969 C1181.3354,336.4669 1010.7704,599.7139 955.4394,680.1409 " fill="none" id="basic_matrix-backto-class1" style="stroke:#181818;stroke-width:1.0;"/><polygon fill="#181818" points="1042.1624,319.2969,1047.9081,323.6542,1054.1402,320.0264,1048.3945,315.669,1042.1624,319.2969" style="stroke:#181818;stroke-width:1.0;"/><text fill="#000000" font-family="sans-serif" font-size="13" lengthAdjust="spacing" textLength="8" x="1048.7437" y="311.698">1</text><text fill="#000000" font-family="sans-serif" font-size="13" lengthAdjust="spacing" textLength="8" x="950.5854" y="669.1129">1</text></g><!--SRC=[nLKzRzim49tbNt7Gqe_O1h8AhfTawLQa0JeKhK5J9vi8HQaa5ST9yzzx8lLDEsqpj8jjadUFxnxVdT-OEw505mPdaHLM8joWP5OKokn5QM01Lv8P0zU2xJJBPn5Jgh0k0EAhczjFa5Ry3konn7WMFSsYw0AUsDPOpRXz1eFsxRlfPb6YPhRGNx-5PocpBDmr-AD2nJ4y4TPZGLOfxcZNCS-pY5WYQB7RMoYo4rIZgu80Irin2K8HIiOupe7IG2Fj9IwaaYbi4NAMOXrL00D-SG7SvyuYL6cTGkArbE0UEV7PR9b1M7tHmhAj9E3REH2SidEuHYtkCLstSZbglL1k6KZa-VVYD4aZMTpUQK7eLABQsNspCEAnpM9catf6xKPPocCRjnTPIumF5xbGxI_sq0PNUIC-IL6H5AI1u1ilo8e4-4otTcLNYiZvvpIreJWP8yj81-F1Ea42BTgD3yrw8Cj4aRDYc0Ch6wu3Gm_v9WbJXJhcHMKs3LNFktxO1aCyFaeqmueDPR8TRWwQLCImwFeS_rVHvnmm4ACfGwWK7p2TF5tduELo-T6i0q7-TKbJe-NCQl6mSfqcpHnkYaFFaXUoofNdf8l3ApZzcQx-diqvhPlZq-fpDsgDJSbyMhFZs3vTWFkyfCQ5U10xRJPNlPTYJVDkD9P-BXPZipUpG-rf4jGF5qIF7G51mdJ0mlVbSdG5fRXJaPSISrHdauARWhGNspH97EduCeRtnBl-dZGbGNhB_WQdxUyUAsVg68S4-q4mHdGu8oOltaX82et55Bg3TaW6Ggr8gE4R9Us_YdkNkYz69IT9qv8JNLhpKFxAhMfVRcpdkW36pQyNG7h3ZajztVLZfVyQnKsh4p0d37AwXgRH5X8pIv5rAyLJKtUjreSlrcD4Ko8NJ19cPn4_gfAacKeZDXxc5m00]--></g></svg>