<?xml version="1.0" encoding="us-ascii" standalone="no"?><svg xmlns="http://www.w3.org/2000/svg" xmlns:xlink="http://www.w3.org/1999/xlink" contentStyleType="text/css" height="1414px" preserveAspectRatio="none" style="width:1003px;height:1414px;background:#FFFFFF;" version="1.1" viewBox="0 0 1003 1414" width="1003px" zoomAndPan="magnify"><defs/><g><text fill="#000000" font-family="sans-serif" font-size="14" font-weight="bold" lengthAdjust="spacing" textLength="243" x="373.0026" y="22.9951">Relationships - Class Diagram</text><!--class CRTP duck type--><g id="elem_CRTP duck type"><rect codeLine="3" fill="#F1F1F1" height="129.4844" id="CRTP duck type" rx="2.5" ry="2.5" style="stroke:#181818;stroke-width:0.5;" width="158" x="211.0052" y="44.2969"/><ellipse cx="231.4052" cy="60.2969" fill="#E3664A" rx="11" ry="11" style="stroke:#181818;stroke-width:1.0;"/><path d="M232.3271,57.5469 C230.4208,57.6875 229.1083,58.875 229.1083,60.4531 C229.1083,61.8594 230.3115,63.0781 231.7646,63.0781 C231.9208,63.0781 232.0615,63.0625 232.3271,63.0156 L232.3271,63.0781 L233.124,63.0781 C233.749,63.0781 234.0615,62.8594 234.0615,62.375 C234.0615,62.0938 233.9365,61.9063 233.6708,61.7813 L233.6708,57 C233.6708,55.1094 232.3583,53.75 230.5146,53.75 C228.3115,53.75 226.7021,55.875 226.7021,58.8125 L226.7021,61.6719 C226.7021,62.9219 226.9833,64.1406 227.499,65.0625 C228.2177,66.3125 229.1396,66.875 230.5458,66.875 C232.1552,66.875 233.5458,66.2188 233.5458,65.4219 C233.5458,65.0313 233.249,64.7188 232.874,64.7188 C232.6708,64.7188 232.5771,64.7656 232.3427,65.0156 C232.0146,65.3438 231.3427,65.5625 230.5927,65.5625 C229.8427,65.5625 229.3115,65.2969 228.9052,64.7031 C228.3271,63.9063 228.0458,62.8594 228.0458,61.5625 L228.0458,58.9063 C228.0458,56.7344 229.1083,55.0938 230.5458,55.0938 C231.5927,55.0938 232.3271,55.875 232.3271,57 L232.3271,57.5469 Z M232.3271,61.6563 C232.0927,61.7031 231.999,61.7031 231.8896,61.7031 C231.0615,61.7031 230.4521,61.1719 230.4521,60.4688 C230.4521,59.6406 231.2021,59.0313 232.3271,58.9219 L232.3271,61.6563 Z " fill="#000000"/><text fill="#000000" font-family="sans-serif" font-size="14" lengthAdjust="spacing" textLength="114" x="246.6052" y="65.1436">CRTP duck type</text><line style="stroke:#181818;stroke-width:0.5;" x1="212.0052" x2="368.0052" y1="76.2969" y2="76.2969"/><line style="stroke:#181818;stroke-width:0.5;" x1="212.0052" x2="368.0052" y1="84.2969" y2="84.2969"/><ellipse cx="222.0052" cy="97.9453" fill="#84BE84" rx="3" ry="3" style="stroke:#038048;stroke-width:1.0;"/><text fill="#000000" font-family="sans-serif" font-size="14" font-style="italic" lengthAdjust="spacing" textLength="31" x="231.0052" y="101.292">set()</text><ellipse cx="222.0052" cy="114.2422" fill="#84BE84" rx="3" ry="3" style="stroke:#038048;stroke-width:1.0;"/><text fill="#000000" font-family="sans-serif" font-size="14" font-style="italic" lengthAdjust="spacing" textLength="82" x="231.0052" y="117.5889">operator[]()</text><ellipse cx="222.0052" cy="130.5391" fill="#84BE84" rx="3" ry="3" style="stroke:#038048;stroke-width:1.0;"/><text fill="#000000" font-family="sans-serif" font-size="14" font-style="italic" lengthAdjust="spacing" textLength="42" x="231.0052" y="133.8857">data()</text><ellipse cx="222.0052" cy="146.8359" fill="#84BE84" rx="3" ry="3" style="stroke:#038048;stroke-width:1.0;"/><text fill="#000000" font-family="sans-serif" font-size="14" font-style="italic" lengthAdjust="spacing" textLength="79" x="231.0052" y="150.1826">sequence()</text><ellipse cx="222.0052" cy="163.1328" fill="#84BE84" rx="3" ry="3" style="stroke:#038048;stroke-width:1.0;"/><text fill="#000000" font-family="sans-serif" font-size="14" font-style="italic" lengthAdjust="spacing" textLength="132" x="231.0052" y="166.4795">iterator functions()</text></g><g id="elem_GMN3"><path d="M404.0052,88.7969 L404.0052,104.7969 L369.2862,108.7969 L404.0052,112.7969 L404.0052,129.0625 A0,0 0 0 0 404.0052,129.0625 L648.0052,129.0625 A0,0 0 0 0 648.0052,129.0625 L648.0052,98.7969 L638.0052,88.7969 L404.0052,88.7969 A0,0 0 0 0 404.0052,88.7969 " fill="#FEFFDD" style="stroke:#181818;stroke-width:0.5;"/><path d="M638.0052,88.7969 L638.0052,98.7969 L648.0052,98.7969 L638.0052,88.7969 " fill="#FEFFDD" style="stroke:#181818;stroke-width:0.5;"/><text fill="#000000" font-family="sans-serif" font-size="13" lengthAdjust="spacing" textLength="199" x="410.0052" y="105.8638">Conceptual interface, not real :</text><text fill="#000000" font-family="sans-serif" font-size="13" lengthAdjust="spacing" textLength="223" x="410.0052" y="120.9966">Could be made into a c++ concept</text></g><!--class vector_base--><g id="elem_vector_base"><rect codeLine="15" fill="#F1F1F1" height="276.1563" id="vector_base" rx="2.5" ry="2.5" style="stroke:#181818;stroke-width:0.5;" width="285" x="147.5052" y="250.2969"/><ellipse cx="162.5052" cy="266.2969" fill="#A9DCDF" rx="11" ry="11" style="stroke:#181818;stroke-width:1.0;"/><path d="M164.5833,268.1094 L164.974,269.0938 L164.5833,269.0938 C164.1302,269.0938 164.0208,269.1094 163.8646,269.2188 C163.6146,269.375 163.4583,269.6563 163.4583,269.9531 C163.4583,270.2188 163.599,270.4688 163.8177,270.625 C163.9583,270.75 164.1615,270.7969 164.5833,270.7969 L166.9427,270.7969 C167.3021,270.7969 167.5208,270.7656 167.6615,270.6719 C167.9115,270.5313 168.0677,270.2344 168.0677,269.9531 C168.0677,269.6719 167.9271,269.4219 167.7083,269.2656 C167.5365,269.125 167.3802,269.0938 166.9115,269.0938 L163.5208,260.8906 L159.849,260.8906 C159.3958,260.8906 159.2708,260.9063 159.1146,261 C158.8646,261.1719 158.7083,261.4531 158.7083,261.7344 C158.7083,262.0156 158.849,262.2656 159.0677,262.4375 C159.2396,262.5469 159.4115,262.5781 159.849,262.5781 L160.9271,262.5781 L158.2865,269.0938 C157.8646,269.0938 157.7083,269.1094 157.5521,269.2188 C157.3021,269.375 157.1458,269.6563 157.1458,269.9531 C157.1458,270.5156 157.5208,270.7969 158.2708,270.7969 L160.5365,270.7969 C160.8958,270.7969 161.1146,270.7656 161.2396,270.6719 C161.5052,270.5313 161.6458,270.2344 161.6458,269.9531 C161.6458,269.6719 161.5208,269.4219 161.3021,269.25 C161.1302,269.125 160.9896,269.0938 160.5365,269.0938 L160.1458,269.0938 L160.5365,268.1094 L164.5833,268.1094 Z M163.8802,266.4063 L161.2083,266.4063 L162.5521,263.1406 L163.8802,266.4063 Z " fill="#000000"/><text fill="#000000" font-family="sans-serif" font-size="14" font-style="italic" lengthAdjust="spacing" textLength="86" x="176.5052" y="271.1436">vector_base</text><rect fill="#FFFFFF" height="15.9688" style="stroke:#181818;stroke-width:1.0;stroke-dasharray:2.0,2.0;" width="165" x="270.5052" y="247.2969"/><text fill="#000000" font-family="sans-serif" font-size="12" font-style="italic" lengthAdjust="spacing" textLength="163" x="271.5052" y="259.4355">Writable, T, Count, Derived</text><line style="stroke:#181818;stroke-width:0.5;" x1="148.5052" x2="431.5052" y1="282.2969" y2="282.2969"/><line style="stroke:#181818;stroke-width:0.5;" x1="148.5052" x2="431.5052" y1="290.2969" y2="290.2969"/><ellipse cx="158.5052" cy="303.9453" fill="#84BE84" rx="3" ry="3" style="stroke:#038048;stroke-width:1.0;"/><text fill="#000000" font-family="sans-serif" font-size="14" lengthAdjust="spacing" textLength="75" x="167.5052" y="307.292">CRTP set()</text><ellipse cx="158.5052" cy="320.2422" fill="#84BE84" rx="3" ry="3" style="stroke:#038048;stroke-width:1.0;"/><text fill="#000000" font-family="sans-serif" font-size="14" lengthAdjust="spacing" textLength="126" x="167.5052" y="323.5889">CRTP operator[]()</text><ellipse cx="158.5052" cy="336.5391" fill="#84BE84" rx="3" ry="3" style="stroke:#038048;stroke-width:1.0;"/><text fill="#000000" font-family="sans-serif" font-size="14" lengthAdjust="spacing" textLength="84" x="167.5052" y="339.8857">CRTP data()</text><ellipse cx="158.5052" cy="352.8359" fill="#84BE84" rx="3" ry="3" style="stroke:#038048;stroke-width:1.0;"/><text fill="#000000" font-family="sans-serif" font-size="14" lengthAdjust="spacing" textLength="120" x="167.5052" y="356.1826">CRTP sequence()</text><ellipse cx="158.5052" cy="369.1328" fill="#84BE84" rx="3" ry="3" style="stroke:#038048;stroke-width:1.0;"/><text fill="#000000" font-family="sans-serif" font-size="14" lengthAdjust="spacing" textLength="179" x="167.5052" y="372.4795">CRTP iterator functions()</text><ellipse cx="158.5052" cy="385.4297" fill="#84BE84" rx="3" ry="3" style="stroke:#038048;stroke-width:1.0;"/><text fill="#000000" font-family="sans-serif" font-size="14" lengthAdjust="spacing" textLength="57" x="167.5052" y="388.7764">length()</text><ellipse cx="158.5052" cy="401.7266" fill="#84BE84" rx="3" ry="3" style="stroke:#038048;stroke-width:1.0;"/><text fill="#000000" font-family="sans-serif" font-size="14" lengthAdjust="spacing" textLength="38" x="167.5052" y="405.0732">size()</text><ellipse cx="158.5052" cy="418.0234" fill="#84BE84" rx="3" ry="3" style="stroke:#038048;stroke-width:1.0;"/><text fill="#000000" font-family="sans-serif" font-size="14" lengthAdjust="spacing" textLength="86" x="167.5052" y="421.3701">as_derived()</text><ellipse cx="158.5052" cy="434.3203" fill="#84BE84" rx="3" ry="3" style="stroke:#038048;stroke-width:1.0;"/><text fill="#000000" font-family="sans-serif" font-size="14" lengthAdjust="spacing" textLength="50" x="167.5052" y="437.667">apply()</text><ellipse cx="158.5052" cy="450.6172" fill="#84BE84" rx="3" ry="3" style="stroke:#038048;stroke-width:1.0;"/><text fill="#000000" font-family="sans-serif" font-size="14" lengthAdjust="spacing" textLength="43" x="167.5052" y="453.9639">shift()</text><ellipse cx="158.5052" cy="466.9141" fill="#84BE84" rx="3" ry="3" style="stroke:#038048;stroke-width:1.0;"/><text fill="#000000" font-family="sans-serif" font-size="14" lengthAdjust="spacing" textLength="51" x="167.5052" y="470.2607">cshift()</text><ellipse cx="158.5052" cy="483.2109" fill="#84BE84" rx="3" ry="3" style="stroke:#038048;stroke-width:1.0;"/><text fill="#000000" font-family="sans-serif" font-size="14" lengthAdjust="spacing" textLength="37" x="167.5052" y="486.5576">min()</text><ellipse cx="158.5052" cy="499.5078" fill="#84BE84" rx="3" ry="3" style="stroke:#038048;stroke-width:1.0;"/><text fill="#000000" font-family="sans-serif" font-size="14" lengthAdjust="spacing" textLength="40" x="167.5052" y="502.8545">max()</text><ellipse cx="158.5052" cy="515.8047" fill="#84BE84" rx="3" ry="3" style="stroke:#038048;stroke-width:1.0;"/><text fill="#000000" font-family="sans-serif" font-size="14" lengthAdjust="spacing" textLength="39" x="167.5052" y="519.1514">sum()</text></g><!--class basic_vector--><g id="elem_basic_vector"><rect codeLine="32" fill="#F1F1F1" height="194.6719" id="basic_vector" rx="2.5" ry="2.5" style="stroke:#181818;stroke-width:0.5;" width="166" x="420.0052" y="607.2969"/><ellipse cx="435.0052" cy="623.2969" fill="#F1F1F1" rx="11" ry="11" style="stroke:#181818;stroke-width:1.0;"/><path d="M438.7865,619.2656 C438.7865,618.8281 438.7708,618.6875 438.6771,618.5313 C438.5365,618.2969 438.2552,618.1406 437.9583,618.1406 C437.6146,618.1406 437.474,618.2813 437.3021,618.7031 C436.7083,618.3281 435.9583,618.1406 435.0833,618.1406 C432.974,618.1406 431.3958,619.4375 431.3958,621.1563 C431.3958,622.125 431.9271,623.0313 432.7865,623.5156 C433.3333,623.8281 433.8802,624 434.9896,624.1875 C436.1458,624.3906 436.4115,624.4531 436.7708,624.6406 C437.1458,624.8438 437.3802,625.1875 437.3802,625.5469 C437.3802,626.2813 436.3958,626.8281 435.1458,626.8281 C434.0208,626.8281 432.9427,626.3438 432.7708,625.7344 C432.6458,625.2656 432.6458,625.2656 432.5208,625.1563 C432.3646,625 432.1458,624.9063 431.9115,624.9063 C431.6302,624.9063 431.3802,625.0313 431.2083,625.25 C431.099,625.4219 431.0521,625.6094 431.0521,626.0313 L431.0521,627.1563 C431.0521,627.9219 431.3333,628.2813 431.9271,628.2813 C432.1927,628.2813 432.3177,628.2188 432.599,627.875 C433.4427,628.3125 434.3333,628.5313 435.2552,628.5313 C437.5833,628.5313 439.1458,627.3438 439.1458,625.5781 C439.1458,624.6875 438.8333,624 438.1458,623.4531 C437.6146,623.0313 436.974,622.7813 435.4896,622.5156 C434.224,622.2813 434.1302,622.25 433.8021,622.0781 C433.4271,621.8906 433.1615,621.5 433.1615,621.1406 C433.1615,620.4063 434.0208,619.8438 435.0833,619.8438 C436.1458,619.8438 436.9583,620.3125 437.1146,620.9844 C437.224,621.5313 437.224,621.5313 437.349,621.6719 C437.4896,621.7969 437.724,621.9063 437.9583,621.9063 C438.224,621.9063 438.474,621.7656 438.6458,621.5469 C438.7552,621.375 438.7865,621.2344 438.7865,620.7656 L438.7865,619.2656 Z " fill="#000000"/><text fill="#000000" font-family="sans-serif" font-size="14" lengthAdjust="spacing" textLength="91" x="449.0052" y="628.1436">basic_vector</text><rect fill="#FFFFFF" height="15.9688" style="stroke:#181818;stroke-width:1.0;stroke-dasharray:2.0,2.0;" width="41" x="548.0052" y="604.2969"/><text fill="#000000" font-family="sans-serif" font-size="12" font-style="italic" lengthAdjust="spacing" textLength="39" x="549.0052" y="616.4355">T, Size</text><line style="stroke:#181818;stroke-width:0.5;" x1="421.0052" x2="585.0052" y1="639.2969" y2="639.2969"/><ellipse cx="431.0052" cy="652.9453" fill="none" rx="3" ry="3" style="stroke:#038048;stroke-width:1.0;"/><text fill="#000000" font-family="sans-serif" font-size="14" lengthAdjust="spacing" textLength="39" x="440.0052" y="656.292">union</text><ellipse cx="431.0052" cy="669.2422" fill="none" rx="3" ry="3" style="stroke:#038048;stroke-width:1.0;"/><text fill="#000000" font-family="sans-serif" font-size="14" lengthAdjust="spacing" text-decoration="underline" textLength="51" x="440.0052" y="672.5889">offsets</text><line style="stroke:#181818;stroke-width:0.5;" x1="421.0052" x2="585.0052" y1="679.8906" y2="679.8906"/><ellipse cx="431.0052" cy="693.5391" fill="#84BE84" rx="3" ry="3" style="stroke:#038048;stroke-width:1.0;"/><text fill="#000000" font-family="sans-serif" font-size="14" lengthAdjust="spacing" textLength="33" x="440.0052" y="696.8857">set()</text><ellipse cx="431.0052" cy="709.8359" fill="#84BE84" rx="3" ry="3" style="stroke:#038048;stroke-width:1.0;"/><text fill="#000000" font-family="sans-serif" font-size="14" lengthAdjust="spacing" textLength="84" x="440.0052" y="713.1826">operator[]()</text><ellipse cx="431.0052" cy="726.1328" fill="#84BE84" rx="3" ry="3" style="stroke:#038048;stroke-width:1.0;"/><text fill="#000000" font-family="sans-serif" font-size="14" lengthAdjust="spacing" textLength="85" x="440.0052" y="729.4795">operator=()</text><ellipse cx="431.0052" cy="742.4297" fill="#84BE84" rx="3" ry="3" style="stroke:#038048;stroke-width:1.0;"/><text fill="#000000" font-family="sans-serif" font-size="14" lengthAdjust="spacing" textLength="42" x="440.0052" y="745.7764">data()</text><ellipse cx="431.0052" cy="758.7266" fill="#84BE84" rx="3" ry="3" style="stroke:#038048;stroke-width:1.0;"/><text fill="#000000" font-family="sans-serif" font-size="14" lengthAdjust="spacing" textLength="78" x="440.0052" y="762.0732">sequence()</text><ellipse cx="431.0052" cy="775.0234" fill="#84BE84" rx="3" ry="3" style="stroke:#038048;stroke-width:1.0;"/><text fill="#000000" font-family="sans-serif" font-size="14" lengthAdjust="spacing" textLength="137" x="440.0052" y="778.3701">iterator functions()</text><ellipse cx="431.0052" cy="791.3203" fill="#84BE84" rx="3" ry="3" style="stroke:#038048;stroke-width:1.0;"/><text fill="#000000" font-family="sans-serif" font-size="14" lengthAdjust="spacing" textLength="46" x="440.0052" y="794.667">swap()</text></g><!--class basic_vector::anonymous_union--><g id="elem_basic_vector::anonymous_union"><rect codeLine="44" fill="#F1F1F1" height="80.5938" id="basic_vector::anonymous_union" rx="2.5" ry="2.5" style="stroke:#181818;stroke-width:0.5;" width="260" x="320.0052" y="886.2969"/><ellipse cx="335.0052" cy="902.2969" fill="#E3664A" rx="11" ry="11" style="stroke:#181818;stroke-width:1.0;"/><path d="M335.9271,899.5469 C334.0208,899.6875 332.7083,900.875 332.7083,902.4531 C332.7083,903.8594 333.9115,905.0781 335.3646,905.0781 C335.5208,905.0781 335.6615,905.0625 335.9271,905.0156 L335.9271,905.0781 L336.724,905.0781 C337.349,905.0781 337.6615,904.8594 337.6615,904.375 C337.6615,904.0938 337.5365,903.9063 337.2708,903.7813 L337.2708,899 C337.2708,897.1094 335.9583,895.75 334.1146,895.75 C331.9115,895.75 330.3021,897.875 330.3021,900.8125 L330.3021,903.6719 C330.3021,904.9219 330.5833,906.1406 331.099,907.0625 C331.8177,908.3125 332.7396,908.875 334.1458,908.875 C335.7552,908.875 337.1458,908.2188 337.1458,907.4219 C337.1458,907.0313 336.849,906.7188 336.474,906.7188 C336.2708,906.7188 336.1771,906.7656 335.9427,907.0156 C335.6146,907.3438 334.9427,907.5625 334.1927,907.5625 C333.4427,907.5625 332.9115,907.2969 332.5052,906.7031 C331.9271,905.9063 331.6458,904.8594 331.6458,903.5625 L331.6458,900.9063 C331.6458,898.7344 332.7083,897.0938 334.1458,897.0938 C335.1927,897.0938 335.9271,897.875 335.9271,899 L335.9271,899.5469 Z M335.9271,903.6563 C335.6927,903.7031 335.599,903.7031 335.4896,903.7031 C334.6615,903.7031 334.0521,903.1719 334.0521,902.4688 C334.0521,901.6406 334.8021,901.0313 335.9271,900.9219 L335.9271,903.6563 Z " fill="#000000"/><text fill="#000000" font-family="sans-serif" font-size="14" lengthAdjust="spacing" textLength="228" x="349.0052" y="907.1436">basic_vector::anonymous_union</text><line style="stroke:#181818;stroke-width:0.5;" x1="321.0052" x2="579.0052" y1="918.2969" y2="918.2969"/><ellipse cx="331.0052" cy="931.9453" fill="none" rx="3" ry="3" style="stroke:#038048;stroke-width:1.0;"/><text fill="#000000" font-family="sans-serif" font-size="14" lengthAdjust="spacing" textLength="34" x="340.0052" y="935.292">base</text><ellipse cx="331.0052" cy="948.2422" fill="none" rx="3" ry="3" style="stroke:#038048;stroke-width:1.0;"/><text fill="#000000" font-family="sans-serif" font-size="14" lengthAdjust="spacing" textLength="58" x="340.0052" y="951.5889">swizzles</text><line style="stroke:#181818;stroke-width:0.5;" x1="321.0052" x2="579.0052" y1="958.8906" y2="958.8906"/></g><!--class storage_wrapper--><g id="elem_storage_wrapper"><rect codeLine="49" fill="#F1F1F1" height="227.2656" id="storage_wrapper" rx="2.5" ry="2.5" style="stroke:#181818;stroke-width:0.5;" width="197" x="374.5052" y="1051.2969"/><ellipse cx="389.5052" cy="1067.2969" fill="#F1F1F1" rx="11" ry="11" style="stroke:#181818;stroke-width:1.0;"/><path d="M393.2865,1063.2656 C393.2865,1062.8281 393.2708,1062.6875 393.1771,1062.5313 C393.0365,1062.2969 392.7552,1062.1406 392.4583,1062.1406 C392.1146,1062.1406 391.974,1062.2813 391.8021,1062.7031 C391.2083,1062.3281 390.4583,1062.1406 389.5833,1062.1406 C387.474,1062.1406 385.8958,1063.4375 385.8958,1065.1563 C385.8958,1066.125 386.4271,1067.0313 387.2865,1067.5156 C387.8333,1067.8281 388.3802,1068 389.4896,1068.1875 C390.6458,1068.3906 390.9115,1068.4531 391.2708,1068.6406 C391.6458,1068.8438 391.8802,1069.1875 391.8802,1069.5469 C391.8802,1070.2813 390.8958,1070.8281 389.6458,1070.8281 C388.5208,1070.8281 387.4427,1070.3438 387.2708,1069.7344 C387.1458,1069.2656 387.1458,1069.2656 387.0208,1069.1563 C386.8646,1069 386.6458,1068.9063 386.4115,1068.9063 C386.1302,1068.9063 385.8802,1069.0313 385.7083,1069.25 C385.599,1069.4219 385.5521,1069.6094 385.5521,1070.0313 L385.5521,1071.1563 C385.5521,1071.9219 385.8333,1072.2813 386.4271,1072.2813 C386.6927,1072.2813 386.8177,1072.2188 387.099,1071.875 C387.9427,1072.3125 388.8333,1072.5313 389.7552,1072.5313 C392.0833,1072.5313 393.6458,1071.3438 393.6458,1069.5781 C393.6458,1068.6875 393.3333,1068 392.6458,1067.4531 C392.1146,1067.0313 391.474,1066.7813 389.9896,1066.5156 C388.724,1066.2813 388.6302,1066.25 388.3021,1066.0781 C387.9271,1065.8906 387.6615,1065.5 387.6615,1065.1406 C387.6615,1064.4063 388.5208,1063.8438 389.5833,1063.8438 C390.6458,1063.8438 391.4583,1064.3125 391.6146,1064.9844 C391.724,1065.5313 391.724,1065.5313 391.849,1065.6719 C391.9896,1065.7969 392.224,1065.9063 392.4583,1065.9063 C392.724,1065.9063 392.974,1065.7656 393.1458,1065.5469 C393.2552,1065.375 393.2865,1065.2344 393.2865,1064.7656 L393.2865,1063.2656 Z " fill="#000000"/><text fill="#000000" font-family="sans-serif" font-size="14" lengthAdjust="spacing" textLength="122" x="403.5052" y="1072.1436">storage_wrapper</text><rect fill="#FFFFFF" height="15.9688" style="stroke:#181818;stroke-width:1.0;stroke-dasharray:2.0,2.0;" width="41" x="533.5052" y="1048.2969"/><text fill="#000000" font-family="sans-serif" font-size="12" font-style="italic" lengthAdjust="spacing" textLength="39" x="534.5052" y="1060.4355">T, Size</text><line style="stroke:#181818;stroke-width:0.5;" x1="375.5052" x2="570.5052" y1="1083.2969" y2="1083.2969"/><ellipse cx="385.5052" cy="1096.9453" fill="none" rx="3" ry="3" style="stroke:#038048;stroke-width:1.0;"/><text fill="#000000" font-family="sans-serif" font-size="14" lengthAdjust="spacing" textLength="38" x="394.5052" y="1100.292">store</text><ellipse cx="385.5052" cy="1113.2422" fill="none" rx="3" ry="3" style="stroke:#038048;stroke-width:1.0;"/><text fill="#000000" font-family="sans-serif" font-size="14" lengthAdjust="spacing" text-decoration="underline" textLength="51" x="394.5052" y="1116.5889">offsets</text><line style="stroke:#181818;stroke-width:0.5;" x1="375.5052" x2="570.5052" y1="1123.8906" y2="1123.8906"/><ellipse cx="385.5052" cy="1137.5391" fill="#84BE84" rx="3" ry="3" style="stroke:#038048;stroke-width:1.0;"/><text fill="#000000" font-family="sans-serif" font-size="14" lengthAdjust="spacing" textLength="33" x="394.5052" y="1140.8857">set()</text><ellipse cx="385.5052" cy="1153.8359" fill="#84BE84" rx="3" ry="3" style="stroke:#038048;stroke-width:1.0;"/><text fill="#000000" font-family="sans-serif" font-size="14" lengthAdjust="spacing" textLength="84" x="394.5052" y="1157.1826">operator[]()</text><ellipse cx="385.5052" cy="1170.1328" fill="#84BE84" rx="3" ry="3" style="stroke:#038048;stroke-width:1.0;"/><text fill="#000000" font-family="sans-serif" font-size="14" lengthAdjust="spacing" textLength="85" x="394.5052" y="1173.4795">operator=()</text><ellipse cx="385.5052" cy="1186.4297" fill="#84BE84" rx="3" ry="3" style="stroke:#038048;stroke-width:1.0;"/><text fill="#000000" font-family="sans-serif" font-size="14" lengthAdjust="spacing" textLength="42" x="394.5052" y="1189.7764">data()</text><ellipse cx="385.5052" cy="1202.7266" fill="#84BE84" rx="3" ry="3" style="stroke:#038048;stroke-width:1.0;"/><text fill="#000000" font-family="sans-serif" font-size="14" lengthAdjust="spacing" textLength="78" x="394.5052" y="1206.0732">sequence()</text><ellipse cx="385.5052" cy="1219.0234" fill="#84BE84" rx="3" ry="3" style="stroke:#038048;stroke-width:1.0;"/><text fill="#000000" font-family="sans-serif" font-size="14" lengthAdjust="spacing" textLength="137" x="394.5052" y="1222.3701">iterator functions()</text><ellipse cx="385.5052" cy="1235.3203" fill="#84BE84" rx="3" ry="3" style="stroke:#038048;stroke-width:1.0;"/><text fill="#000000" font-family="sans-serif" font-size="14" lengthAdjust="spacing" textLength="57" x="394.5052" y="1238.667">length()</text><ellipse cx="385.5052" cy="1251.6172" fill="#84BE84" rx="3" ry="3" style="stroke:#038048;stroke-width:1.0;"/><text fill="#000000" font-family="sans-serif" font-size="14" lengthAdjust="spacing" textLength="38" x="394.5052" y="1254.9639">size()</text><ellipse cx="385.5052" cy="1267.9141" fill="#84BE84" rx="3" ry="3" style="stroke:#038048;stroke-width:1.0;"/><text fill="#000000" font-family="sans-serif" font-size="14" lengthAdjust="spacing" textLength="46" x="394.5052" y="1271.2607">swap()</text></g><!--class indexed_vector--><g id="elem_indexed_vector"><rect codeLine="63" fill="#F1F1F1" height="178.375" id="indexed_vector" rx="2.5" ry="2.5" style="stroke:#181818;stroke-width:0.5;" width="260" x="63.0051" y="1075.7969"/><ellipse cx="78.0051" cy="1091.7969" fill="#F1F1F1" rx="11" ry="11" style="stroke:#181818;stroke-width:1.0;"/><path d="M81.7864,1087.7656 C81.7864,1087.3281 81.7707,1087.1875 81.677,1087.0313 C81.5364,1086.7969 81.2551,1086.6406 80.9582,1086.6406 C80.6145,1086.6406 80.4739,1086.7813 80.302,1087.2031 C79.7082,1086.8281 78.9582,1086.6406 78.0832,1086.6406 C75.9739,1086.6406 74.3957,1087.9375 74.3957,1089.6563 C74.3957,1090.625 74.927,1091.5313 75.7864,1092.0156 C76.3332,1092.3281 76.8801,1092.5 77.9895,1092.6875 C79.1457,1092.8906 79.4114,1092.9531 79.7707,1093.1406 C80.1457,1093.3438 80.3801,1093.6875 80.3801,1094.0469 C80.3801,1094.7813 79.3957,1095.3281 78.1457,1095.3281 C77.0207,1095.3281 75.9426,1094.8438 75.7707,1094.2344 C75.6457,1093.7656 75.6457,1093.7656 75.5207,1093.6563 C75.3645,1093.5 75.1457,1093.4063 74.9114,1093.4063 C74.6301,1093.4063 74.3801,1093.5313 74.2082,1093.75 C74.0989,1093.9219 74.052,1094.1094 74.052,1094.5313 L74.052,1095.6563 C74.052,1096.4219 74.3332,1096.7813 74.927,1096.7813 C75.1926,1096.7813 75.3176,1096.7188 75.5989,1096.375 C76.4426,1096.8125 77.3332,1097.0313 78.2551,1097.0313 C80.5832,1097.0313 82.1457,1095.8438 82.1457,1094.0781 C82.1457,1093.1875 81.8332,1092.5 81.1457,1091.9531 C80.6145,1091.5313 79.9739,1091.2813 78.4895,1091.0156 C77.2239,1090.7813 77.1301,1090.75 76.802,1090.5781 C76.427,1090.3906 76.1614,1090 76.1614,1089.6406 C76.1614,1088.9063 77.0207,1088.3438 78.0832,1088.3438 C79.1457,1088.3438 79.9582,1088.8125 80.1145,1089.4844 C80.2239,1090.0313 80.2239,1090.0313 80.3489,1090.1719 C80.4895,1090.2969 80.7239,1090.4063 80.9582,1090.4063 C81.2239,1090.4063 81.4739,1090.2656 81.6457,1090.0469 C81.7551,1089.875 81.7864,1089.7344 81.7864,1089.2656 L81.7864,1087.7656 Z " fill="#000000"/><text fill="#000000" font-family="sans-serif" font-size="14" lengthAdjust="spacing" textLength="111" x="92.0051" y="1096.6436">indexed_vector</text><rect fill="#FFFFFF" height="15.9688" style="stroke:#181818;stroke-width:1.0;stroke-dasharray:2.0,2.0;" width="115" x="211.0051" y="1072.7969"/><text fill="#000000" font-family="sans-serif" font-size="12" font-style="italic" lengthAdjust="spacing" textLength="113" x="212.0051" y="1084.9355">T, Size, Count, ...Is</text><line style="stroke:#181818;stroke-width:0.5;" x1="64.0051" x2="322.0051" y1="1107.7969" y2="1107.7969"/><ellipse cx="74.0051" cy="1121.4453" fill="none" rx="3" ry="3" style="stroke:#038048;stroke-width:1.0;"/><text fill="#000000" font-family="sans-serif" font-size="14" lengthAdjust="spacing" textLength="34" x="83.0051" y="1124.792">base</text><ellipse cx="74.0051" cy="1137.7422" fill="none" rx="3" ry="3" style="stroke:#038048;stroke-width:1.0;"/><text fill="#000000" font-family="sans-serif" font-size="14" lengthAdjust="spacing" text-decoration="underline" textLength="51" x="83.0051" y="1141.0889">offsets</text><line style="stroke:#181818;stroke-width:0.5;" x1="64.0051" x2="322.0051" y1="1148.3906" y2="1148.3906"/><ellipse cx="74.0051" cy="1162.0391" fill="#84BE84" rx="3" ry="3" style="stroke:#038048;stroke-width:1.0;"/><text fill="#000000" font-family="sans-serif" font-size="14" lengthAdjust="spacing" textLength="33" x="83.0051" y="1165.3857">set()</text><ellipse cx="74.0051" cy="1178.3359" fill="#84BE84" rx="3" ry="3" style="stroke:#038048;stroke-width:1.0;"/><text fill="#000000" font-family="sans-serif" font-size="14" lengthAdjust="spacing" textLength="84" x="83.0051" y="1181.6826">operator[]()</text><ellipse cx="74.0051" cy="1194.6328" fill="#84BE84" rx="3" ry="3" style="stroke:#038048;stroke-width:1.0;"/><text fill="#000000" font-family="sans-serif" font-size="14" lengthAdjust="spacing" textLength="85" x="83.0051" y="1197.9795">operator=()</text><ellipse cx="74.0051" cy="1210.9297" fill="#84BE84" rx="3" ry="3" style="stroke:#038048;stroke-width:1.0;"/><text fill="#000000" font-family="sans-serif" font-size="14" lengthAdjust="spacing" textLength="42" x="83.0051" y="1214.2764">data()</text><ellipse cx="74.0051" cy="1227.2266" fill="#84BE84" rx="3" ry="3" style="stroke:#038048;stroke-width:1.0;"/><text fill="#000000" font-family="sans-serif" font-size="14" lengthAdjust="spacing" textLength="78" x="83.0051" y="1230.5732">sequence()</text><ellipse cx="74.0051" cy="1243.5234" fill="#84BE84" rx="3" ry="3" style="stroke:#038048;stroke-width:1.0;"/><text fill="#000000" font-family="sans-serif" font-size="14" lengthAdjust="spacing" textLength="137" x="83.0051" y="1246.8701">iterator functions()</text></g><!--class basic_matrix--><g id="elem_basic_matrix"><rect codeLine="74" fill="#F1F1F1" height="227.2656" id="basic_matrix" rx="2.5" ry="2.5" style="stroke:#181818;stroke-width:0.5;" width="205" x="671.5052" y="274.7969"/><ellipse cx="686.5052" cy="290.7969" fill="#F1F1F1" rx="11" ry="11" style="stroke:#181818;stroke-width:1.0;"/><path d="M690.2865,286.7656 C690.2865,286.3281 690.2708,286.1875 690.1771,286.0313 C690.0365,285.7969 689.7552,285.6406 689.4583,285.6406 C689.1146,285.6406 688.974,285.7813 688.8021,286.2031 C688.2083,285.8281 687.4583,285.6406 686.5833,285.6406 C684.474,285.6406 682.8958,286.9375 682.8958,288.6563 C682.8958,289.625 683.4271,290.5313 684.2865,291.0156 C684.8333,291.3281 685.3802,291.5 686.4896,291.6875 C687.6458,291.8906 687.9115,291.9531 688.2708,292.1406 C688.6458,292.3438 688.8802,292.6875 688.8802,293.0469 C688.8802,293.7813 687.8958,294.3281 686.6458,294.3281 C685.5208,294.3281 684.4427,293.8438 684.2708,293.2344 C684.1458,292.7656 684.1458,292.7656 684.0208,292.6563 C683.8646,292.5 683.6458,292.4063 683.4115,292.4063 C683.1302,292.4063 682.8802,292.5313 682.7083,292.75 C682.599,292.9219 682.5521,293.1094 682.5521,293.5313 L682.5521,294.6563 C682.5521,295.4219 682.8333,295.7813 683.4271,295.7813 C683.6927,295.7813 683.8177,295.7188 684.099,295.375 C684.9427,295.8125 685.8333,296.0313 686.7552,296.0313 C689.0833,296.0313 690.6458,294.8438 690.6458,293.0781 C690.6458,292.1875 690.3333,291.5 689.6458,290.9531 C689.1146,290.5313 688.474,290.2813 686.9896,290.0156 C685.724,289.7813 685.6302,289.75 685.3021,289.5781 C684.9271,289.3906 684.6615,289 684.6615,288.6406 C684.6615,287.9063 685.5208,287.3438 686.5833,287.3438 C687.6458,287.3438 688.4583,287.8125 688.6146,288.4844 C688.724,289.0313 688.724,289.0313 688.849,289.1719 C688.9896,289.2969 689.224,289.4063 689.4583,289.4063 C689.724,289.4063 689.974,289.2656 690.1458,289.0469 C690.2552,288.875 690.2865,288.7344 690.2865,288.2656 L690.2865,286.7656 Z " fill="#000000"/><text fill="#000000" font-family="sans-serif" font-size="14" lengthAdjust="spacing" textLength="91" x="700.5052" y="295.6436">basic_matrix</text><rect fill="#FFFFFF" height="15.9688" style="stroke:#181818;stroke-width:1.0;stroke-dasharray:2.0,2.0;" width="80" x="799.5052" y="271.7969"/><text fill="#000000" font-family="sans-serif" font-size="12" font-style="italic" lengthAdjust="spacing" textLength="78" x="800.5052" y="283.9355">T, Cols, Rows</text><line style="stroke:#181818;stroke-width:0.5;" x1="672.5052" x2="875.5052" y1="306.7969" y2="306.7969"/><ellipse cx="682.5052" cy="320.4453" fill="none" rx="3" ry="3" style="stroke:#038048;stroke-width:1.0;"/><text fill="#000000" font-family="sans-serif" font-size="14" lengthAdjust="spacing" textLength="59" x="691.5052" y="323.792">columns</text><line style="stroke:#181818;stroke-width:0.5;" x1="672.5052" x2="875.5052" y1="331.0938" y2="331.0938"/><ellipse cx="682.5052" cy="344.7422" fill="#84BE84" rx="3" ry="3" style="stroke:#038048;stroke-width:1.0;"/><text fill="#000000" font-family="sans-serif" font-size="14" lengthAdjust="spacing" textLength="36" x="691.5052" y="348.0889">row()</text><ellipse cx="682.5052" cy="361.0391" fill="#84BE84" rx="3" ry="3" style="stroke:#038048;stroke-width:1.0;"/><text fill="#000000" font-family="sans-serif" font-size="14" lengthAdjust="spacing" textLength="84" x="691.5052" y="364.3857">operator[]()</text><ellipse cx="682.5052" cy="377.3359" fill="#84BE84" rx="3" ry="3" style="stroke:#038048;stroke-width:1.0;"/><text fill="#000000" font-family="sans-serif" font-size="14" lengthAdjust="spacing" textLength="85" x="691.5052" y="380.6826">operator=()</text><ellipse cx="682.5052" cy="393.6328" fill="#84BE84" rx="3" ry="3" style="stroke:#038048;stroke-width:1.0;"/><text fill="#000000" font-family="sans-serif" font-size="14" lengthAdjust="spacing" textLength="42" x="691.5052" y="396.9795">data()</text><ellipse cx="682.5052" cy="409.9297" fill="#84BE84" rx="3" ry="3" style="stroke:#038048;stroke-width:1.0;"/><text fill="#000000" font-family="sans-serif" font-size="14" lengthAdjust="spacing" textLength="137" x="691.5052" y="413.2764">iterator functions()</text><ellipse cx="682.5052" cy="426.2266" fill="#84BE84" rx="3" ry="3" style="stroke:#038048;stroke-width:1.0;"/><text fill="#000000" font-family="sans-serif" font-size="14" lengthAdjust="spacing" textLength="57" x="691.5052" y="429.5732">length()</text><ellipse cx="682.5052" cy="442.5234" fill="#84BE84" rx="3" ry="3" style="stroke:#038048;stroke-width:1.0;"/><text fill="#000000" font-family="sans-serif" font-size="14" lengthAdjust="spacing" textLength="116" x="691.5052" y="445.8701">column_length()</text><ellipse cx="682.5052" cy="458.8203" fill="#84BE84" rx="3" ry="3" style="stroke:#038048;stroke-width:1.0;"/><text fill="#000000" font-family="sans-serif" font-size="14" lengthAdjust="spacing" textLength="38" x="691.5052" y="462.167">size()</text><ellipse cx="682.5052" cy="475.1172" fill="#84BE84" rx="3" ry="3" style="stroke:#038048;stroke-width:1.0;"/><text fill="#000000" font-family="sans-serif" font-size="14" lengthAdjust="spacing" textLength="97" x="691.5052" y="478.4639">column_size()</text><ellipse cx="682.5052" cy="491.4141" fill="#84BE84" rx="3" ry="3" style="stroke:#038048;stroke-width:1.0;"/><text fill="#000000" font-family="sans-serif" font-size="14" lengthAdjust="spacing" textLength="46" x="691.5052" y="494.7607">swap()</text></g><!--class std::array--><g id="elem_std::array"><rect codeLine="88" fill="#F1F1F1" height="48" id="std::array" rx="2.5" ry="2.5" style="stroke:#181818;stroke-width:0.5;" width="144" x="371.0052" y="1359.2969"/><ellipse cx="386.0052" cy="1375.2969" fill="#ADD1B2" rx="11" ry="11" style="stroke:#181818;stroke-width:1.0;"/><path d="M388.349,1370.9688 C387.4115,1370.5313 386.8177,1370.3906 385.9427,1370.3906 C383.3177,1370.3906 381.3177,1372.4688 381.3177,1375.1875 L381.3177,1376.3125 C381.3177,1378.8906 383.4271,1380.7813 386.3177,1380.7813 C387.5365,1380.7813 388.6927,1380.4844 389.4427,1379.9375 C390.0208,1379.5313 390.349,1379.0781 390.349,1378.6875 C390.349,1378.2344 389.9583,1377.8438 389.4896,1377.8438 C389.2708,1377.8438 389.0677,1377.9219 388.8802,1378.1094 C388.4271,1378.5938 388.4271,1378.5938 388.2396,1378.6875 C387.8177,1378.9531 387.1302,1379.0781 386.3646,1379.0781 C384.3177,1379.0781 383.0208,1377.9844 383.0208,1376.2813 L383.0208,1375.1875 C383.0208,1373.4063 384.2708,1372.0938 386.0052,1372.0938 C386.5833,1372.0938 387.1927,1372.25 387.6615,1372.5 C388.1458,1372.7813 388.3177,1373 388.4115,1373.4063 C388.474,1373.8125 388.5052,1373.9375 388.6458,1374.0625 C388.7865,1374.2031 389.0208,1374.3125 389.2396,1374.3125 C389.5052,1374.3125 389.7708,1374.1719 389.9427,1373.9531 C390.0521,1373.7969 390.0833,1373.6094 390.0833,1373.1875 L390.0833,1371.7656 C390.0833,1371.3281 390.0677,1371.2031 389.974,1371.0469 C389.8177,1370.7813 389.5365,1370.6406 389.2396,1370.6406 C388.9427,1370.6406 388.7396,1370.7344 388.5208,1371.0469 L388.349,1370.9688 Z " fill="#000000"/><text fill="#000000" font-family="sans-serif" font-size="14" lengthAdjust="spacing" textLength="69" x="400.0052" y="1380.1436">std::array</text><rect fill="#FFFFFF" height="15.9688" style="stroke:#181818;stroke-width:1.0;stroke-dasharray:2.0,2.0;" width="41" x="477.0052" y="1356.2969"/><text fill="#000000" font-family="sans-serif" font-size="12" font-style="italic" lengthAdjust="spacing" textLength="39" x="478.0052" y="1368.4355">T, Size</text><line style="stroke:#181818;stroke-width:0.5;" x1="372.0052" x2="514.0052" y1="1391.2969" y2="1391.2969"/><line style="stroke:#181818;stroke-width:0.5;" x1="372.0052" x2="514.0052" y1="1399.2969" y2="1399.2969"/></g><!--reverse link vector_base to basic_vector--><g id="link_vector_base_basic_vector"><path codeLine="91" d="M370.6452,543.7149 C376.9522,553.8769 383.4312,563.8249 390.0052,573.2969 C396.9102,583.2469 404.4592,593.3019 412.2742,603.1799 " fill="none" id="vector_base-backto-basic_vector" style="stroke:#181818;stroke-width:1.0;"/><polygon fill="none" points="364.5682,547.1939,360.2052,526.4589,376.5472,539.9469,364.5682,547.1939" style="stroke:#181818;stroke-width:1.0;"/><text fill="#000000" font-family="sans-serif" font-size="13" lengthAdjust="spacing" textLength="85" x="391.0052" y="569.3638">CRTP inherits</text></g><!--reverse link vector_base to indexed_vector--><g id="link_vector_base_indexed_vector"><path codeLine="92" d="M270.2912,546.7019 C250.5252,704.5289 220.7612,942.1749 204.5432,1071.6709 " fill="none" id="vector_base-backto-indexed_vector" style="stroke:#181818;stroke-width:1.0;"/><polygon fill="none" points="263.4002,545.3989,272.8312,526.4239,277.2912,547.1389,263.4002,545.3989" style="stroke:#181818;stroke-width:1.0;"/><text fill="#000000" font-family="sans-serif" font-size="13" lengthAdjust="spacing" textLength="85" x="235.0052" y="848.3638">CRTP inherits</text></g><!--reverse link CRTP duck type to basic_vector--><g id="link_CRTP duck type_basic_vector"><path codeLine="93" d="M384.8572,173.0569 C410.0332,194.5769 434.4972,220.7469 450.0052,250.2969 C508.0552,360.8969 514.6882,507.2039 511.2282,603.2129 " fill="none" id="CRTP duck type-backto-basic_vector" style="stroke:#181818;stroke-width:1.0;stroke-dasharray:7.0,7.0;"/><polygon fill="none" points="380.2522,178.3369,369.1632,160.2769,389.0922,167.4769,380.2522,178.3369" style="stroke:#181818;stroke-width:1.0;"/><text fill="#000000" font-family="sans-serif" font-size="13" lengthAdjust="spacing" textLength="110" x="513.0052" y="392.8638">duck implements</text></g><!--reverse link CRTP duck type to indexed_vector--><g id="link_CRTP duck type_indexed_vector"><path codeLine="94" d="M195.2952,176.6069 C171.0102,197.7369 146.9852,222.8269 130.0052,250.2969 C96.9067,303.8469 94.0051,324.3369 94.0051,387.2969 C94.0051,387.2969 94.0051,387.2969 94.0051,927.2969 C94.0051,977.4829 113.2089,1029.3389 134.7012,1071.6569 " fill="none" id="CRTP duck type-backto-indexed_vector" style="stroke:#181818;stroke-width:1.0;stroke-dasharray:7.0,7.0;"/><polygon fill="none" points="190.9672,171.1069,210.8022,163.6469,199.9462,181.8469,190.9672,171.1069" style="stroke:#181818;stroke-width:1.0;"/><text fill="#000000" font-family="sans-serif" font-size="13" lengthAdjust="spacing" textLength="110" x="95.0051" y="708.8638">duck implements</text></g><!--reverse link basic_vector::anonymous_union to storage_wrapper--><g id="link_basic_vector::anonymous_union_storage_wrapper"><path codeLine="95" d="M589.5822,940.3499 C588.5552,948.5559 582.6982,960.3749 580.0052,970.2969 C578.6762,975.1939 560.1862,1009.0639 538.9402,1047.1349 " fill="none" id="basic_vector::anonymous_union-backto-storage_wrapper" style="stroke:#181818;stroke-width:1.0;"/><polygon fill="#181818" points="581.0052,930.2969,581.8562,937.4576,588.7934,939.4262,587.9424,932.2655,581.0052,930.2969" style="stroke:#181818;stroke-width:1.0;"/><text fill="#000000" font-family="sans-serif" font-size="13" lengthAdjust="spacing" textLength="31" x="565.0052" y="1013.3638">base</text><text fill="#000000" font-family="sans-serif" font-size="13" lengthAdjust="spacing" textLength="8" x="587.9661" y="927.1714">1</text><text fill="#000000" font-family="sans-serif" font-size="13" lengthAdjust="spacing" textLength="8" x="532.9724" y="1040.0927">1</text></g><!--reverse link basic_vector::anonymous_union to indexed_vector--><g id="link_basic_vector::anonymous_union_indexed_vector"><path codeLine="96" d="M306.1422,949.0619 C288.7552,958.6719 299.2532,991.4429 285.0052,1017.2969 C275.1482,1035.1829 264.0362,1053.9039 253.0322,1071.7539 " fill="none" id="basic_vector::anonymous_union-backto-indexed_vector" style="stroke:#181818;stroke-width:1.0;"/><polygon fill="#181818" points="319.0052,946.2969,312.2986,943.647,307.2731,948.8184,313.9797,951.4683,319.0052,946.2969" style="stroke:#181818;stroke-width:1.0;"/><text fill="#000000" font-family="sans-serif" font-size="13" lengthAdjust="spacing" textLength="53" x="292.0052" y="1013.3638">swizzles</text><text fill="#000000" font-family="sans-serif" font-size="13" lengthAdjust="spacing" textLength="8" x="304.0443" y="943.9964">1</text><text fill="#000000" font-family="sans-serif" font-size="13" lengthAdjust="spacing" textLength="37" x="217.7841" y="1064.574">many</text></g><!--reverse link basic_vector to basic_vector::anonymous_union--><g id="link_basic_vector_basic_vector::anonymous_union"><path codeLine="97" d="M405.7482,652.5459 C333.7932,667.2969 392.2952,809.0899 427.7802,882.1829 " fill="none" id="basic_vector-backto-basic_vector::anonymous_union" style="stroke:#181818;stroke-width:1.0;"/><polygon fill="#181818" points="419.0052,651.2969,412.6563,647.8776,407.0582,652.423,413.4071,655.8423,419.0052,651.2969" style="stroke:#181818;stroke-width:1.0;"/><text fill="#000000" font-family="sans-serif" font-size="13" lengthAdjust="spacing" textLength="163" x="415.0052" y="848.3638">nested anonymous union</text><text fill="#000000" font-family="sans-serif" font-size="13" lengthAdjust="spacing" textLength="8" x="403.9927" y="643.5212">1</text><text fill="#000000" font-family="sans-serif" font-size="13" lengthAdjust="spacing" textLength="8" x="417.7723" y="875.2804">1</text></g><!--reverse link CRTP duck type to vector_base--><g id="link_CRTP duck type_vector_base"><path codeLine="98" d="M290.0052,178.6369 C290.0052,200.4169 290.0052,225.2969 290.0052,250.1169 " fill="none" id="CRTP duck type-backto-vector_base" style="stroke:#181818;stroke-width:1.0;stroke-dasharray:7.0,7.0;"/><polygon fill="#181818" points="290.0052,173.4569,286.0052,182.4569,290.0052,178.4569,294.0052,182.4569,290.0052,173.4569" style="stroke:#181818;stroke-width:1.0;"/><text fill="#000000" font-family="sans-serif" font-size="13" lengthAdjust="spacing" textLength="88" x="291.0052" y="216.3638">Derived CRTP</text></g><!--reverse link storage_wrapper to std::array--><g id="link_storage_wrapper_std::array"><path codeLine="99" d="M584.7292,1117.8479 C606.5212,1144.9589 590.9692,1255.1029 572.0052,1282.2969 C550.2842,1313.4446 522.0172,1289.0319 492.0052,1312.2969 C475.9432,1324.748 463.0392,1343.92 454.5132,1359.0535 " fill="none" id="storage_wrapper-backto-std::array" style="stroke:#181818;stroke-width:1.0;"/><polygon fill="#181818" points="573.0052,1111.7969,576.5023,1118.1032,583.6686,1117.3007,580.1715,1110.9943,573.0052,1111.7969" style="stroke:#181818;stroke-width:1.0;"/><text fill="#000000" font-family="sans-serif" font-size="13" lengthAdjust="spacing" textLength="121" x="493.0052" y="1325.3638">&lt;std::size_t, Size&gt;</text><text fill="#000000" font-family="sans-serif" font-size="13" lengthAdjust="spacing" textLength="8" x="579.6677" y="1104.9837">1</text><text fill="#000000" font-family="sans-serif" font-size="13" lengthAdjust="spacing" textLength="8" x="448.3433" y="1348.3991">1</text></g><!--reverse link storage_wrapper to std::array--><g id="link_storage_wrapper_std::array"><path codeLine="100" d="M362.2722,1101.4309 C339.5632,1128.7029 364.9252,1247.1249 375.0052,1282.2969 C383.4492,1311.7631 404.3792,1340.145 420.8072,1359.0954 " fill="none" id="storage_wrapper-backto-std::array-1" style="stroke:#181818;stroke-width:1.0;"/><polygon fill="#181818" points="374.0052,1095.7969,366.8649,1094.789,363.1882,1100.9924,370.3286,1102.0003,374.0052,1095.7969" style="stroke:#181818;stroke-width:1.0;"/><text fill="#000000" font-family="sans-serif" font-size="13" lengthAdjust="spacing" textLength="62" x="398.0052" y="1325.3638">&lt;T, Size&gt;</text><text fill="#000000" font-family="sans-serif" font-size="13" lengthAdjust="spacing" textLength="8" x="358.4411" y="1087.2409">1</text><text fill="#000000" font-family="sans-serif" font-size="13" lengthAdjust="spacing" textLength="8" x="406.094" y="1348.0558">1</text></g><!--reverse link basic_vector to std::array--><g id="link_basic_vector_std::array"><path codeLine="101" d="M594.2292,678.3029 C622.8162,760.3369 659.5562,1274.7359 619.0052,1329.2969 C595.2112,1361.3117 552.6912,1374.6982 515.4062,1380.0152 " fill="none" id="basic_vector-backto-std::array" style="stroke:#181818;stroke-width:1.0;"/><polygon fill="#181818" points="587.0052,667.2969,586.9538,674.5078,593.5902,677.3287,593.6417,670.1178,587.0052,667.2969" style="stroke:#181818;stroke-width:1.0;"/><text fill="#000000" font-family="sans-serif" font-size="13" lengthAdjust="spacing" textLength="121" x="634.0052" y="1013.3638">&lt;std::size_t, Size&gt;</text><text fill="#000000" font-family="sans-serif" font-size="13" lengthAdjust="spacing" textLength="8" x="594.0177" y="660.7962">1</text><text fill="#000000" font-family="sans-serif" font-size="13" lengthAdjust="spacing" textLength="8" x="522.9269" y="1376.0273">1</text></g><!--reverse link indexed_vector to std::array--><g id="link_indexed_vector_std::array"><path codeLine="102" d="M334.4402,1143.6089 C345.8792,1167.3009 333.4642,1237.9299 323.0052,1257.7969 C301.0982,1299.4109 216.3712,1291.9909 245.0052,1329.2969 C260.5512,1349.5511 320.8822,1363.7517 370.9062,1372.3213 " fill="none" id="indexed_vector-backto-std::array" style="stroke:#181818;stroke-width:1.0;"/><polygon fill="#181818" points="324.0052,1135.7969,326.4106,1142.595,333.6109,1142.9893,331.2055,1136.1912,324.0052,1135.7969" style="stroke:#181818;stroke-width:1.0;"/><text fill="#000000" font-family="sans-serif" font-size="13" lengthAdjust="spacing" textLength="133" x="246.0052" y="1325.3638">&lt;std::size_t, Count&gt;</text><text fill="#000000" font-family="sans-serif" font-size="13" lengthAdjust="spacing" textLength="8" x="330.9661" y="1130.9755">1</text><text fill="#000000" font-family="sans-serif" font-size="13" lengthAdjust="spacing" textLength="8" x="355.0585" y="1367.4897">1</text></g><!--reverse link indexed_vector to std::array--><g id="link_indexed_vector_std::array"><path codeLine="103" d="M49.0429,1121.3519 C6,1133.0409 36.4454,1208.0159 63.0051,1257.7969 C89.5814,1307.6096 115.8744,1307.6174 168.0052,1329.2969 C233.6632,1356.6019 314.0532,1370.0065 370.9152,1376.4814 " fill="none" id="indexed_vector-backto-std::array-1" style="stroke:#181818;stroke-width:1.0;"/><polygon fill="#181818" points="62.0051,1119.7969,55.5712,1116.5403,50.0906,1121.2267,56.5245,1124.4833,62.0051,1119.7969" style="stroke:#181818;stroke-width:1.0;"/><text fill="#000000" font-family="sans-serif" font-size="13" lengthAdjust="spacing" textLength="62" x="169.0052" y="1325.3638">&lt;T, Size&gt;</text><text fill="#000000" font-family="sans-serif" font-size="13" lengthAdjust="spacing" textLength="8" x="47.0442" y="1114.1505">1</text><text fill="#000000" font-family="sans-serif" font-size="13" lengthAdjust="spacing" textLength="8" x="355.0684" y="1388.6257">1</text></g><!--reverse link basic_matrix to basic_vector--><g id="link_basic_matrix_basic_vector"><path codeLine="104" d="M657.9602,320.2069 C584.8052,331.4469 658.8882,444.1469 623.0052,526.2969 C611.5622,552.4939 596.1472,578.9439 580.1832,603.1269 " fill="none" id="basic_matrix-backto-basic_vector" style="stroke:#181818;stroke-width:1.0;stroke-dasharray:7.0,7.0;"/><polygon fill="#181818" points="671.0052,319.2969,664.7408,315.7252,659.0344,320.134,665.2989,323.7057,671.0052,319.2969" style="stroke:#181818;stroke-width:1.0;"/><text fill="#000000" font-family="sans-serif" font-size="13" lengthAdjust="spacing" textLength="71" x="610.0052" y="569.3638">&lt;T, Rows&gt;</text><text fill="#000000" font-family="sans-serif" font-size="13" lengthAdjust="spacing" textLength="8" x="655.4818" y="310.9802">1</text><text fill="#000000" font-family="sans-serif" font-size="13" lengthAdjust="spacing" textLength="27" x="555.4716" y="596.2788">Cols</text></g><!--reverse link basic_matrix to std::array--><g id="link_basic_matrix_std::array"><path codeLine="105" d="M891.0812,320.3569 C953.3162,331.5769 893.7652,429.5849 877.0052,505.7969 C856.2862,600.0079 787.0052,606.8349 787.0052,703.2969 C787.0052,703.2969 787.0052,703.2969 787.0052,1165.7969 C787.0052,1260.8879 729.5312,1278.7219 649.0052,1329.2969 C608.6642,1354.6337 556.6712,1367.8936 515.0132,1374.8143 " fill="none" id="basic_matrix-backto-std::array" style="stroke:#181818;stroke-width:1.0;"/><polygon fill="#181818" points="878.0052,319.2969,883.662,323.7691,889.9659,320.2674,884.3091,315.7953,878.0052,319.2969" style="stroke:#181818;stroke-width:1.0;"/><text fill="#000000" font-family="sans-serif" font-size="13" lengthAdjust="spacing" textLength="207" x="788.0052" y="930.8638">&lt;basic_vector&lt;T, Rows&gt;, Cols&gt;</text><text fill="#000000" font-family="sans-serif" font-size="13" lengthAdjust="spacing" textLength="8" x="884.5864" y="311.698">1</text><text fill="#000000" font-family="sans-serif" font-size="13" lengthAdjust="spacing" textLength="8" x="522.8515" y="1386.7867">1</text></g><!--SRC=[nLNBRjim43pBNx7GfO_O1deLd5oIIs-56w27eXLeQcqJaKYLf68xQVwzArAqzRBRvj2UR3vcE3iShjwO1o51AuEJo0gR8omnPrOeQRQYD323svmP0tU2RJGh9X6JKbct0UBRvVqdo2h-0FPGOZo9dYTHT0NFR6MiPjo-W47xzbr_KfMecLNwwxVXMiOi6yuQ_56Xv3XS4TPpmRgItCckzxnC8bA9eCLcQq6jHwH6jue8Irkn78GabZNZE0M2WKQQIzoMAizWXL2m3EjT2XZmgolW7Zk9K6OrXCmBak0HEUb9LymWBBveOTag9-BxAH2Tj5EuGoqUCRi9TZbf9wFSS62Hrtyofm5rR75puuRGQevoOxVDm8YdW68cpRoYC56M-I7isufr4CRRWqB8y8_jm-QgQCmdAogoWZmGFFM6BCY0ptJgiUnAaZX_dQOE5ATWhDVaW_5aHqC6NeI9wsRSigNdo5app8wLZTPMeDjwauH99G-5gapQIFMwwujjECJJKuwcNR4X9DjWkjFa8WwBhjVnVnLzBW4jCveoXCnmZrdlweu9di_d7ytDm91_NL8_Q0MpMkmNxgNbPWfBjJkfv2gl2karQRLxXQO_yzMVavxpkbaUTv-xLcjiHk7JcXswyQ4DdTxoSvQfdPnrKziq0Rcb9rtVm2YYUxqm0FMx9NoVppl74CIjYgBCiK1v5ZGuQG2x-EQIn0cFFyJmVZPplxqNHfG-Vx_X2O_rn5KmUOY70a-lkileU3fABfv8J1ADnGoE2w7Z3OnQa57jUqh29yBTIntoJib9qholdYyXDOHVk54TijGU8pIWSSte0iafVTrINtTyr-c_Pd6jPuHc922NQl0z8acQTk2Hv7zSjuou7_8QtdIH2_3HW_lVFaVZEzFDBm00]--></g></svg>