<?xml version="1.0" encoding="us-ascii" standalone="no"?><svg xmlns="http://www.w3.org/2000/svg" xmlns:xlink="http://www.w3.org/1999/xlink" contentStyleType="text/css" height="944px" preserveAspectRatio="none" style="width:1214px;height:944px;background:#FFFFFF;" version="1.1" viewBox="0 0 1214 944" width="1214px" zoomAndPan="magnify"><defs><filter height="300%" id="f1fc8t67s00y9y" width="300%" x="-1" y="-1"><feGaussianBlur result="blurOut" stdDeviation="2.0"/><feColorMatrix in="blurOut" result="blurOut2" type="matrix" values="0 0 0 0 0 0 0 0 0 0 0 0 0 0 0 0 0 0 .4 0"/><feOffset dx="4.0" dy="4.0" in="blurOut2" result="blurOut3"/><feBlend in="SourceGraphic" in2="blurOut3" mode="normal"/></filter></defs><g><text fill="#000000" font-family="sans-serif" font-size="14" font-weight="bold" lengthAdjust="spacing" textLength="243" x="478.75" y="22.9951">Relationships - Class Diagram</text><!--class CRTP_duck_type--><g id="elem_CRTP_duck_type"><rect codeLine="3" fill="#FEFECE" filter="url(#f1fc8t67s00y9y)" height="129.4844" id="CRTP_duck_type" style="stroke:#A80036;stroke-width:1.0;" width="163" x="960.5" y="217.7969"/><ellipse cx="982.25" cy="233.7969" fill="#B4A7E5" rx="11" ry="11" style="stroke:#A80036;stroke-width:1.0;"/><path d="M983.2031,230.5781 L984.9219,230.5781 C985.3125,230.5781 985.5,230.5469 985.625,230.4688 C985.8906,230.3125 986.0313,230.0313 986.0313,229.7344 C986.0313,229.4688 985.9219,229.2031 985.6875,229.0313 C985.5156,228.9219 985.375,228.8906 984.9219,228.8906 L979.7813,228.8906 C979.3438,228.8906 979.2188,228.9063 979.0625,229 C978.8125,229.1563 978.6563,229.4531 978.6563,229.7344 C978.6563,230.0156 978.7969,230.2656 979.0156,230.4375 C979.1719,230.5469 979.3594,230.5781 979.7813,230.5781 L981.5,230.5781 L981.5,237.0938 L979.7813,237.0938 C979.3438,237.0938 979.2188,237.1094 979.0625,237.2188 C978.8125,237.375 978.6563,237.6563 978.6563,237.9531 C978.6563,238.2031 978.7969,238.4688 979.0156,238.625 C979.1719,238.75 979.375,238.7969 979.7813,238.7969 L984.9219,238.7969 C985.6719,238.7969 986.0313,238.5156 986.0313,237.9531 C986.0313,237.6719 985.9219,237.4219 985.6875,237.25 C985.5156,237.125 985.375,237.0938 984.9219,237.0938 L983.2031,237.0938 L983.2031,230.5781 Z " fill="#000000"/><text fill="#000000" font-family="sans-serif" font-size="14" font-style="italic" lengthAdjust="spacing" textLength="116" x="997.75" y="238.6436">CRTP_duck_type</text><line style="stroke:#A80036;stroke-width:1.0;" x1="961.5" x2="1122.5" y1="249.7969" y2="249.7969"/><line style="stroke:#A80036;stroke-width:1.0;" x1="961.5" x2="1122.5" y1="257.7969" y2="257.7969"/><ellipse cx="971.5" cy="271.4453" fill="#84BE84" rx="3" ry="3" style="stroke:#038048;stroke-width:1.0;"/><text fill="#000000" font-family="sans-serif" font-size="14" lengthAdjust="spacing" textLength="33" x="980.5" y="274.792">set()</text><ellipse cx="971.5" cy="287.7422" fill="#84BE84" rx="3" ry="3" style="stroke:#038048;stroke-width:1.0;"/><text fill="#000000" font-family="sans-serif" font-size="14" lengthAdjust="spacing" textLength="84" x="980.5" y="291.0889">operator[]()</text><ellipse cx="971.5" cy="304.0391" fill="#84BE84" rx="3" ry="3" style="stroke:#038048;stroke-width:1.0;"/><text fill="#000000" font-family="sans-serif" font-size="14" lengthAdjust="spacing" textLength="42" x="980.5" y="307.3857">data()</text><ellipse cx="971.5" cy="320.3359" fill="#84BE84" rx="3" ry="3" style="stroke:#038048;stroke-width:1.0;"/><text fill="#000000" font-family="sans-serif" font-size="14" lengthAdjust="spacing" textLength="78" x="980.5" y="323.6826">sequence()</text><ellipse cx="971.5" cy="336.6328" fill="#84BE84" rx="3" ry="3" style="stroke:#038048;stroke-width:1.0;"/><text fill="#000000" font-family="sans-serif" font-size="14" lengthAdjust="spacing" textLength="137" x="980.5" y="339.9795">iterator functions()</text></g><g id="elem_GMN3"><path d="M934,43.2969 L934,83.5625 A0,0 0 0 0 934,83.5625 L1038,83.5625 L1042,217.5439 L1046,83.5625 L1150,83.5625 A0,0 0 0 0 1150,83.5625 L1150,53.2969 L1140,43.2969 L934,43.2969 A0,0 0 0 0 934,43.2969 " fill="#FBFB77" filter="url(#f1fc8t67s00y9y)" style="stroke:#A80036;stroke-width:1.0;"/><path d="M1140,43.2969 L1140,53.2969 L1150,53.2969 L1140,43.2969 " fill="#FBFB77" style="stroke:#A80036;stroke-width:1.0;"/><text fill="#000000" font-family="sans-serif" font-size="13" lengthAdjust="spacing" textLength="195" x="940" y="60.3638">Conceptual interface, not real:</text><text fill="#000000" font-family="sans-serif" font-size="13" lengthAdjust="spacing" textLength="194" x="940" y="75.4966">Could be made into a Concept</text></g><!--class vector_base--><g id="elem_vector_base"><rect codeLine="15" fill="#FEFECE" filter="url(#f1fc8t67s00y9y)" height="276.1563" id="vector_base" style="stroke:#A80036;stroke-width:1.0;" width="560" x="223" y="144.2969"/><ellipse cx="238" cy="160.2969" fill="#A9DCDF" rx="11" ry="11" style="stroke:#A80036;stroke-width:1.0;"/><path d="M240.0781,162.1094 L240.4688,163.0938 L240.0781,163.0938 C239.625,163.0938 239.5156,163.1094 239.3594,163.2188 C239.1094,163.375 238.9531,163.6563 238.9531,163.9531 C238.9531,164.2188 239.0938,164.4688 239.3125,164.625 C239.4531,164.75 239.6563,164.7969 240.0781,164.7969 L242.4375,164.7969 C242.7969,164.7969 243.0156,164.7656 243.1563,164.6719 C243.4063,164.5313 243.5625,164.2344 243.5625,163.9531 C243.5625,163.6719 243.4219,163.4219 243.2031,163.2656 C243.0313,163.125 242.875,163.0938 242.4063,163.0938 L239.0156,154.8906 L235.3438,154.8906 C234.8906,154.8906 234.7656,154.9063 234.6094,155 C234.3594,155.1719 234.2031,155.4531 234.2031,155.7344 C234.2031,156.0156 234.3438,156.2656 234.5625,156.4375 C234.7344,156.5469 234.9063,156.5781 235.3438,156.5781 L236.4219,156.5781 L233.7813,163.0938 C233.3594,163.0938 233.2031,163.1094 233.0469,163.2188 C232.7969,163.375 232.6406,163.6563 232.6406,163.9531 C232.6406,164.5156 233.0156,164.7969 233.7656,164.7969 L236.0313,164.7969 C236.3906,164.7969 236.6094,164.7656 236.7344,164.6719 C237,164.5313 237.1406,164.2344 237.1406,163.9531 C237.1406,163.6719 237.0156,163.4219 236.7969,163.25 C236.625,163.125 236.4844,163.0938 236.0313,163.0938 L235.6406,163.0938 L236.0313,162.1094 L240.0781,162.1094 Z M239.375,160.4063 L236.7031,160.4063 L238.0469,157.1406 L239.375,160.4063 Z " fill="#000000"/><text fill="#000000" font-family="sans-serif" font-size="14" font-style="italic" lengthAdjust="spacing" textLength="86" x="252" y="165.1436">vector_base</text><rect fill="#FFFFFF" height="15.9688" style="stroke:#A80036;stroke-width:1.0;stroke-dasharray:2.0,2.0;" width="440" x="346" y="141.2969"/><text fill="#000000" font-family="sans-serif" font-size="12" font-style="italic" lengthAdjust="spacing" textLength="438" x="347" y="153.4355">bool Writable, dimensional_scalar T, std::size_t Count, typename Derived</text><line style="stroke:#A80036;stroke-width:1.0;" x1="224" x2="782" y1="176.2969" y2="176.2969"/><line style="stroke:#A80036;stroke-width:1.0;" x1="224" x2="782" y1="184.2969" y2="184.2969"/><ellipse cx="234" cy="197.9453" fill="#84BE84" rx="3" ry="3" style="stroke:#038048;stroke-width:1.0;"/><text fill="#000000" font-family="sans-serif" font-size="14" lengthAdjust="spacing" textLength="75" x="243" y="201.292">CRTP set()</text><ellipse cx="234" cy="214.2422" fill="#84BE84" rx="3" ry="3" style="stroke:#038048;stroke-width:1.0;"/><text fill="#000000" font-family="sans-serif" font-size="14" lengthAdjust="spacing" textLength="126" x="243" y="217.5889">CRTP operator[]()</text><ellipse cx="234" cy="230.5391" fill="#84BE84" rx="3" ry="3" style="stroke:#038048;stroke-width:1.0;"/><text fill="#000000" font-family="sans-serif" font-size="14" lengthAdjust="spacing" textLength="84" x="243" y="233.8857">CRTP data()</text><ellipse cx="234" cy="246.8359" fill="#84BE84" rx="3" ry="3" style="stroke:#038048;stroke-width:1.0;"/><text fill="#000000" font-family="sans-serif" font-size="14" lengthAdjust="spacing" textLength="120" x="243" y="250.1826">CRTP sequence()</text><ellipse cx="234" cy="263.1328" fill="#84BE84" rx="3" ry="3" style="stroke:#038048;stroke-width:1.0;"/><text fill="#000000" font-family="sans-serif" font-size="14" lengthAdjust="spacing" textLength="179" x="243" y="266.4795">CRTP iterator functions()</text><ellipse cx="234" cy="279.4297" fill="#84BE84" rx="3" ry="3" style="stroke:#038048;stroke-width:1.0;"/><text fill="#000000" font-family="sans-serif" font-size="14" lengthAdjust="spacing" textLength="57" x="243" y="282.7764">length()</text><ellipse cx="234" cy="295.7266" fill="#84BE84" rx="3" ry="3" style="stroke:#038048;stroke-width:1.0;"/><text fill="#000000" font-family="sans-serif" font-size="14" lengthAdjust="spacing" textLength="38" x="243" y="299.0732">size()</text><ellipse cx="234" cy="312.0234" fill="#84BE84" rx="3" ry="3" style="stroke:#038048;stroke-width:1.0;"/><text fill="#000000" font-family="sans-serif" font-size="14" lengthAdjust="spacing" textLength="86" x="243" y="315.3701">as_derived()</text><ellipse cx="234" cy="328.3203" fill="#84BE84" rx="3" ry="3" style="stroke:#038048;stroke-width:1.0;"/><text fill="#000000" font-family="sans-serif" font-size="14" lengthAdjust="spacing" textLength="50" x="243" y="331.667">apply()</text><ellipse cx="234" cy="344.6172" fill="#84BE84" rx="3" ry="3" style="stroke:#038048;stroke-width:1.0;"/><text fill="#000000" font-family="sans-serif" font-size="14" lengthAdjust="spacing" textLength="43" x="243" y="347.9639">shift()</text><ellipse cx="234" cy="360.9141" fill="#84BE84" rx="3" ry="3" style="stroke:#038048;stroke-width:1.0;"/><text fill="#000000" font-family="sans-serif" font-size="14" lengthAdjust="spacing" textLength="51" x="243" y="364.2607">cshift()</text><ellipse cx="234" cy="377.2109" fill="#84BE84" rx="3" ry="3" style="stroke:#038048;stroke-width:1.0;"/><text fill="#000000" font-family="sans-serif" font-size="14" lengthAdjust="spacing" textLength="37" x="243" y="380.5576">min()</text><ellipse cx="234" cy="393.5078" fill="#84BE84" rx="3" ry="3" style="stroke:#038048;stroke-width:1.0;"/><text fill="#000000" font-family="sans-serif" font-size="14" lengthAdjust="spacing" textLength="40" x="243" y="396.8545">max()</text><ellipse cx="234" cy="409.8047" fill="#84BE84" rx="3" ry="3" style="stroke:#038048;stroke-width:1.0;"/><text fill="#000000" font-family="sans-serif" font-size="14" lengthAdjust="spacing" textLength="39" x="243" y="413.1514">sum()</text></g><!--class basic_vector--><g id="elem_basic_vector"><rect codeLine="32" fill="#FEFECE" filter="url(#f1fc8t67s00y9y)" height="162.0781" id="basic_vector" style="stroke:#A80036;stroke-width:1.0;" width="347" x="241.5" y="497.2969"/><ellipse cx="256.5" cy="513.2969" fill="#FEFECE" rx="11" ry="11" style="stroke:#A80036;stroke-width:1.0;"/><path d="M260.2813,509.2656 C260.2813,508.8281 260.2656,508.6875 260.1719,508.5313 C260.0313,508.2969 259.75,508.1406 259.4531,508.1406 C259.1094,508.1406 258.9688,508.2813 258.7969,508.7031 C258.2031,508.3281 257.4531,508.1406 256.5781,508.1406 C254.4688,508.1406 252.8906,509.4375 252.8906,511.1563 C252.8906,512.125 253.4219,513.0313 254.2813,513.5156 C254.8281,513.8281 255.375,514 256.4844,514.1875 C257.6406,514.3906 257.9063,514.4531 258.2656,514.6406 C258.6406,514.8438 258.875,515.1875 258.875,515.5469 C258.875,516.2813 257.8906,516.8281 256.6406,516.8281 C255.5156,516.8281 254.4375,516.3438 254.2656,515.7344 C254.1406,515.2656 254.1406,515.2656 254.0156,515.1563 C253.8594,515 253.6406,514.9063 253.4063,514.9063 C253.125,514.9063 252.875,515.0313 252.7031,515.25 C252.5938,515.4219 252.5469,515.6094 252.5469,516.0313 L252.5469,517.1563 C252.5469,517.9219 252.8281,518.2813 253.4219,518.2813 C253.6875,518.2813 253.8125,518.2188 254.0938,517.875 C254.9375,518.3125 255.8281,518.5313 256.75,518.5313 C259.0781,518.5313 260.6406,517.3438 260.6406,515.5781 C260.6406,514.6875 260.3281,514 259.6406,513.4531 C259.1094,513.0313 258.4688,512.7813 256.9844,512.5156 C255.7188,512.2813 255.625,512.25 255.2969,512.0781 C254.9219,511.8906 254.6563,511.5 254.6563,511.1406 C254.6563,510.4063 255.5156,509.8438 256.5781,509.8438 C257.6406,509.8438 258.4531,510.3125 258.6094,510.9844 C258.7188,511.5313 258.7188,511.5313 258.8438,511.6719 C258.9844,511.7969 259.2188,511.9063 259.4531,511.9063 C259.7188,511.9063 259.9688,511.7656 260.1406,511.5469 C260.25,511.375 260.2813,511.2344 260.2813,510.7656 L260.2813,509.2656 Z " fill="#000000"/><text fill="#000000" font-family="sans-serif" font-size="14" lengthAdjust="spacing" textLength="91" x="270.5" y="518.1436">basic_vector</text><rect fill="#FFFFFF" height="15.9688" style="stroke:#A80036;stroke-width:1.0;stroke-dasharray:2.0,2.0;" width="222" x="369.5" y="494.2969"/><text fill="#000000" font-family="sans-serif" font-size="12" font-style="italic" lengthAdjust="spacing" textLength="220" x="370.5" y="506.4355">dimensional_scalar T, std::size_t Size</text><line style="stroke:#A80036;stroke-width:1.0;" x1="242.5" x2="587.5" y1="529.2969" y2="529.2969"/><ellipse cx="252.5" cy="542.9453" fill="none" rx="3" ry="3" style="stroke:#038048;stroke-width:1.0;"/><text fill="#000000" font-family="sans-serif" font-size="14" lengthAdjust="spacing" textLength="132" x="261.5" y="546.292">base_and_swizzles</text><line style="stroke:#A80036;stroke-width:1.0;" x1="242.5" x2="587.5" y1="553.5938" y2="553.5938"/><ellipse cx="252.5" cy="567.2422" fill="#84BE84" rx="3" ry="3" style="stroke:#038048;stroke-width:1.0;"/><text fill="#000000" font-family="sans-serif" font-size="14" lengthAdjust="spacing" textLength="33" x="261.5" y="570.5889">set()</text><ellipse cx="252.5" cy="583.5391" fill="#84BE84" rx="3" ry="3" style="stroke:#038048;stroke-width:1.0;"/><text fill="#000000" font-family="sans-serif" font-size="14" lengthAdjust="spacing" textLength="84" x="261.5" y="586.8857">operator[]()</text><ellipse cx="252.5" cy="599.8359" fill="#84BE84" rx="3" ry="3" style="stroke:#038048;stroke-width:1.0;"/><text fill="#000000" font-family="sans-serif" font-size="14" lengthAdjust="spacing" textLength="42" x="261.5" y="603.1826">data()</text><ellipse cx="252.5" cy="616.1328" fill="#84BE84" rx="3" ry="3" style="stroke:#038048;stroke-width:1.0;"/><text fill="#000000" font-family="sans-serif" font-size="14" lengthAdjust="spacing" textLength="78" x="261.5" y="619.4795">sequence()</text><ellipse cx="252.5" cy="632.4297" fill="#84BE84" rx="3" ry="3" style="stroke:#038048;stroke-width:1.0;"/><text fill="#000000" font-family="sans-serif" font-size="14" lengthAdjust="spacing" textLength="137" x="261.5" y="635.7764">iterator functions()</text><ellipse cx="252.5" cy="648.7266" fill="#84BE84" rx="3" ry="3" style="stroke:#038048;stroke-width:1.0;"/><text fill="#000000" font-family="sans-serif" font-size="14" lengthAdjust="spacing" textLength="46" x="261.5" y="652.0732">swap()</text></g><path d="M6,553.2969 L6,593.5625 A0,0 0 0 0 6,593.5625 L206,593.5625 A0,0 0 0 0 206,593.5625 L206,577.4297 L245.5,541.4453 L206,569.4297 L206,563.2969 L196,553.2969 L6,553.2969 A0,0 0 0 0 6,553.2969 " fill="#FBFB77" filter="url(#f1fc8t67s00y9y)" style="stroke:#A80036;stroke-width:1.0;"/><path d="M196,553.2969 L196,563.2969 L206,563.2969 L196,553.2969 " fill="#FBFB77" style="stroke:#A80036;stroke-width:1.0;"/><text fill="#000000" font-family="sans-serif" font-size="13" lengthAdjust="spacing" textLength="179" x="12" y="570.3638">The base in the anonymous</text><text fill="#000000" font-family="sans-serif" font-size="13" lengthAdjust="spacing" textLength="174" x="12" y="585.4966">union is a storage_wrapper</text><path d="M624,553.2969 L624,569.4297 L393.5,541.4453 L624,577.4297 L624,593.5625 A0,0 0 0 0 624,593.5625 L846,593.5625 A0,0 0 0 0 846,593.5625 L846,563.2969 L836,553.2969 L624,553.2969 A0,0 0 0 0 624,553.2969 " fill="#FBFB77" filter="url(#f1fc8t67s00y9y)" style="stroke:#A80036;stroke-width:1.0;"/><path d="M836,553.2969 L836,563.2969 L846,563.2969 L836,553.2969 " fill="#FBFB77" style="stroke:#A80036;stroke-width:1.0;"/><text fill="#000000" font-family="sans-serif" font-size="13" lengthAdjust="spacing" textLength="201" x="630" y="570.3638">The swizzles in the anonymous</text><text fill="#000000" font-family="sans-serif" font-size="13" lengthAdjust="spacing" textLength="181" x="630" y="585.4966">union are all indexed_vector</text><!--class storage_wrapper--><g id="elem_storage_wrapper"><rect codeLine="50" fill="#FEFECE" filter="url(#f1fc8t67s00y9y)" height="194.6719" id="storage_wrapper" style="stroke:#A80036;stroke-width:1.0;" width="163" x="333.5" y="736.2969"/><ellipse cx="352.55" cy="752.2969" fill="#FEFECE" rx="11" ry="11" style="stroke:#A80036;stroke-width:1.0;"/><path d="M356.3313,748.2656 C356.3313,747.8281 356.3156,747.6875 356.2219,747.5313 C356.0813,747.2969 355.8,747.1406 355.5031,747.1406 C355.1594,747.1406 355.0188,747.2813 354.8469,747.7031 C354.2531,747.3281 353.5031,747.1406 352.6281,747.1406 C350.5188,747.1406 348.9406,748.4375 348.9406,750.1563 C348.9406,751.125 349.4719,752.0313 350.3313,752.5156 C350.8781,752.8281 351.425,753 352.5344,753.1875 C353.6906,753.3906 353.9563,753.4531 354.3156,753.6406 C354.6906,753.8438 354.925,754.1875 354.925,754.5469 C354.925,755.2813 353.9406,755.8281 352.6906,755.8281 C351.5656,755.8281 350.4875,755.3438 350.3156,754.7344 C350.1906,754.2656 350.1906,754.2656 350.0656,754.1563 C349.9094,754 349.6906,753.9063 349.4563,753.9063 C349.175,753.9063 348.925,754.0313 348.7531,754.25 C348.6438,754.4219 348.5969,754.6094 348.5969,755.0313 L348.5969,756.1563 C348.5969,756.9219 348.8781,757.2813 349.4719,757.2813 C349.7375,757.2813 349.8625,757.2188 350.1438,756.875 C350.9875,757.3125 351.8781,757.5313 352.8,757.5313 C355.1281,757.5313 356.6906,756.3438 356.6906,754.5781 C356.6906,753.6875 356.3781,753 355.6906,752.4531 C355.1594,752.0313 354.5188,751.7813 353.0344,751.5156 C351.7688,751.2813 351.675,751.25 351.3469,751.0781 C350.9719,750.8906 350.7063,750.5 350.7063,750.1406 C350.7063,749.4063 351.5656,748.8438 352.6281,748.8438 C353.6906,748.8438 354.5031,749.3125 354.6594,749.9844 C354.7688,750.5313 354.7688,750.5313 354.8938,750.6719 C355.0344,750.7969 355.2688,750.9063 355.5031,750.9063 C355.7688,750.9063 356.0188,750.7656 356.1906,750.5469 C356.3,750.375 356.3313,750.2344 356.3313,749.7656 L356.3313,748.2656 Z " fill="#000000"/><text fill="#000000" font-family="sans-serif" font-size="14" lengthAdjust="spacing" textLength="122" x="367.45" y="757.1436">storage_wrapper</text><line style="stroke:#A80036;stroke-width:1.0;" x1="334.5" x2="495.5" y1="768.2969" y2="768.2969"/><ellipse cx="344.5" cy="781.9453" fill="none" rx="3" ry="3" style="stroke:#038048;stroke-width:1.0;"/><text fill="#000000" font-family="sans-serif" font-size="14" lengthAdjust="spacing" textLength="38" x="353.5" y="785.292">store</text><line style="stroke:#A80036;stroke-width:1.0;" x1="334.5" x2="495.5" y1="792.5938" y2="792.5938"/><ellipse cx="344.5" cy="806.2422" fill="#84BE84" rx="3" ry="3" style="stroke:#038048;stroke-width:1.0;"/><text fill="#000000" font-family="sans-serif" font-size="14" lengthAdjust="spacing" textLength="33" x="353.5" y="809.5889">set()</text><ellipse cx="344.5" cy="822.5391" fill="#84BE84" rx="3" ry="3" style="stroke:#038048;stroke-width:1.0;"/><text fill="#000000" font-family="sans-serif" font-size="14" lengthAdjust="spacing" textLength="84" x="353.5" y="825.8857">operator[]()</text><ellipse cx="344.5" cy="838.8359" fill="#84BE84" rx="3" ry="3" style="stroke:#038048;stroke-width:1.0;"/><text fill="#000000" font-family="sans-serif" font-size="14" lengthAdjust="spacing" textLength="42" x="353.5" y="842.1826">data()</text><ellipse cx="344.5" cy="855.1328" fill="#84BE84" rx="3" ry="3" style="stroke:#038048;stroke-width:1.0;"/><text fill="#000000" font-family="sans-serif" font-size="14" lengthAdjust="spacing" textLength="78" x="353.5" y="858.4795">sequence()</text><ellipse cx="344.5" cy="871.4297" fill="#84BE84" rx="3" ry="3" style="stroke:#038048;stroke-width:1.0;"/><text fill="#000000" font-family="sans-serif" font-size="14" lengthAdjust="spacing" textLength="137" x="353.5" y="874.7764">iterator functions()</text><ellipse cx="344.5" cy="887.7266" fill="#84BE84" rx="3" ry="3" style="stroke:#038048;stroke-width:1.0;"/><text fill="#000000" font-family="sans-serif" font-size="14" lengthAdjust="spacing" textLength="57" x="353.5" y="891.0732">length()</text><ellipse cx="344.5" cy="904.0234" fill="#84BE84" rx="3" ry="3" style="stroke:#038048;stroke-width:1.0;"/><text fill="#000000" font-family="sans-serif" font-size="14" lengthAdjust="spacing" textLength="38" x="353.5" y="907.3701">size()</text><ellipse cx="344.5" cy="920.3203" fill="#84BE84" rx="3" ry="3" style="stroke:#038048;stroke-width:1.0;"/><text fill="#000000" font-family="sans-serif" font-size="14" lengthAdjust="spacing" textLength="46" x="353.5" y="923.667">swap()</text></g><!--class indexed_vector--><g id="elem_indexed_vector"><rect codeLine="62" fill="#FEFECE" filter="url(#f1fc8t67s00y9y)" height="145.7813" id="indexed_vector" style="stroke:#A80036;stroke-width:1.0;" width="569" x="631.5" y="760.7969"/><ellipse cx="646.5" cy="776.7969" fill="#FEFECE" rx="11" ry="11" style="stroke:#A80036;stroke-width:1.0;"/><path d="M650.2813,772.7656 C650.2813,772.3281 650.2656,772.1875 650.1719,772.0313 C650.0313,771.7969 649.75,771.6406 649.4531,771.6406 C649.1094,771.6406 648.9688,771.7813 648.7969,772.2031 C648.2031,771.8281 647.4531,771.6406 646.5781,771.6406 C644.4688,771.6406 642.8906,772.9375 642.8906,774.6563 C642.8906,775.625 643.4219,776.5313 644.2813,777.0156 C644.8281,777.3281 645.375,777.5 646.4844,777.6875 C647.6406,777.8906 647.9063,777.9531 648.2656,778.1406 C648.6406,778.3438 648.875,778.6875 648.875,779.0469 C648.875,779.7813 647.8906,780.3281 646.6406,780.3281 C645.5156,780.3281 644.4375,779.8438 644.2656,779.2344 C644.1406,778.7656 644.1406,778.7656 644.0156,778.6563 C643.8594,778.5 643.6406,778.4063 643.4063,778.4063 C643.125,778.4063 642.875,778.5313 642.7031,778.75 C642.5938,778.9219 642.5469,779.1094 642.5469,779.5313 L642.5469,780.6563 C642.5469,781.4219 642.8281,781.7813 643.4219,781.7813 C643.6875,781.7813 643.8125,781.7188 644.0938,781.375 C644.9375,781.8125 645.8281,782.0313 646.75,782.0313 C649.0781,782.0313 650.6406,780.8438 650.6406,779.0781 C650.6406,778.1875 650.3281,777.5 649.6406,776.9531 C649.1094,776.5313 648.4688,776.2813 646.9844,776.0156 C645.7188,775.7813 645.625,775.75 645.2969,775.5781 C644.9219,775.3906 644.6563,775 644.6563,774.6406 C644.6563,773.9063 645.5156,773.3438 646.5781,773.3438 C647.6406,773.3438 648.4531,773.8125 648.6094,774.4844 C648.7188,775.0313 648.7188,775.0313 648.8438,775.1719 C648.9844,775.2969 649.2188,775.4063 649.4531,775.4063 C649.7188,775.4063 649.9688,775.2656 650.1406,775.0469 C650.25,774.875 650.2813,774.7344 650.2813,774.2656 L650.2813,772.7656 Z " fill="#000000"/><text fill="#000000" font-family="sans-serif" font-size="14" lengthAdjust="spacing" textLength="111" x="660.5" y="781.6436">indexed_vector</text><rect fill="#FFFFFF" height="15.9688" style="stroke:#A80036;stroke-width:1.0;stroke-dasharray:2.0,2.0;" width="424" x="779.5" y="757.7969"/><text fill="#000000" font-family="sans-serif" font-size="12" font-style="italic" lengthAdjust="spacing" textLength="422" x="780.5" y="769.9355">dimensional_scalar T, std::size_t Size, std::size_t Count, std::size_t ...Is</text><line style="stroke:#A80036;stroke-width:1.0;" x1="632.5" x2="1199.5" y1="792.7969" y2="792.7969"/><ellipse cx="642.5" cy="806.4453" fill="none" rx="3" ry="3" style="stroke:#038048;stroke-width:1.0;"/><text fill="#000000" font-family="sans-serif" font-size="14" lengthAdjust="spacing" textLength="34" x="651.5" y="809.792">base</text><line style="stroke:#A80036;stroke-width:1.0;" x1="632.5" x2="1199.5" y1="817.0938" y2="817.0938"/><ellipse cx="642.5" cy="830.7422" fill="#84BE84" rx="3" ry="3" style="stroke:#038048;stroke-width:1.0;"/><text fill="#000000" font-family="sans-serif" font-size="14" lengthAdjust="spacing" textLength="33" x="651.5" y="834.0889">set()</text><ellipse cx="642.5" cy="847.0391" fill="#84BE84" rx="3" ry="3" style="stroke:#038048;stroke-width:1.0;"/><text fill="#000000" font-family="sans-serif" font-size="14" lengthAdjust="spacing" textLength="84" x="651.5" y="850.3857">operator[]()</text><ellipse cx="642.5" cy="863.3359" fill="#84BE84" rx="3" ry="3" style="stroke:#038048;stroke-width:1.0;"/><text fill="#000000" font-family="sans-serif" font-size="14" lengthAdjust="spacing" textLength="42" x="651.5" y="866.6826">data()</text><ellipse cx="642.5" cy="879.6328" fill="#84BE84" rx="3" ry="3" style="stroke:#038048;stroke-width:1.0;"/><text fill="#000000" font-family="sans-serif" font-size="14" lengthAdjust="spacing" textLength="78" x="651.5" y="882.9795">sequence()</text><ellipse cx="642.5" cy="895.9297" fill="#84BE84" rx="3" ry="3" style="stroke:#038048;stroke-width:1.0;"/><text fill="#000000" font-family="sans-serif" font-size="14" lengthAdjust="spacing" textLength="137" x="651.5" y="899.2764">iterator functions()</text></g><!--reverse link vector_base to basic_vector--><g id="link_vector_base_basic_vector"><path codeLine="71" d="M456.166,439.7659 C450.253,459.5199 444.409,479.0449 439.063,496.9059 " fill="none" id="vector_base-backto-basic_vector" style="stroke:#A80036;stroke-width:1.0;"/><polygon fill="none" points="449.522,437.5509,461.963,420.3979,462.934,441.5659,449.522,437.5509" style="stroke:#A80036;stroke-width:1.0;"/><text fill="#000000" font-family="sans-serif" font-size="13" lengthAdjust="spacing" textLength="85" x="453" y="463.3638">CRTP inherits</text></g><!--reverse link vector_base to indexed_vector--><g id="link_vector_base_indexed_vector"><path codeLine="72" d="M798.712,426.7719 C823.173,447.6759 845.267,471.1279 863,497.2969 C891.325,539.0959 905.471,675.1039 911.733,760.5759 " fill="none" id="vector_base-backto-indexed_vector" style="stroke:#A80036;stroke-width:1.0;"/><polygon fill="none" points="794.247,432.1629,783.194,414.0839,803.108,421.3239,794.247,432.1629" style="stroke:#A80036;stroke-width:1.0;"/><text fill="#000000" font-family="sans-serif" font-size="13" lengthAdjust="spacing" textLength="85" x="902" y="582.8638">CRTP inherits</text></g><!--reverse link CRTP_duck_type to basic_vector--><g id="link_CRTP_duck_type_basic_vector"><path codeLine="73" d="M942.998,343.4179 C899.806,368.5749 848.129,397.2569 800,420.2969 C716.328,460.3529 691.897,462.2649 606,497.2969 C600.258,499.6389 594.422,502.0279 588.532,504.4489 " fill="none" id="CRTP_duck_type-backto-basic_vector" style="stroke:#A80036;stroke-width:1.0;stroke-dasharray:7.0,7.0;"/><polygon fill="none" points="939.544,337.3289,960.336,333.2449,946.629,349.4039,939.544,337.3289" style="stroke:#A80036;stroke-width:1.0;"/><text fill="#000000" font-family="sans-serif" font-size="13" lengthAdjust="spacing" textLength="110" x="732" y="463.3638">duck implements</text></g><!--reverse link CRTP_duck_type to indexed_vector--><g id="link_CRTP_duck_type_indexed_vector"><path codeLine="74" d="M1044.96,367.2349 C1045.4,444.6779 1040.19,562.0369 1011,659.2969 C1000.436,694.4909 982.106,730.5749 964.348,760.6569 " fill="none" id="CRTP_duck_type-backto-indexed_vector" style="stroke:#A80036;stroke-width:1.0;stroke-dasharray:7.0,7.0;"/><polygon fill="none" points="1037.96,367.0709,1044.71,346.9869,1051.96,366.8989,1037.96,367.0709" style="stroke:#A80036;stroke-width:1.0;"/><text fill="#000000" font-family="sans-serif" font-size="13" lengthAdjust="spacing" textLength="110" x="1040" y="582.8638">duck implements</text></g><!--reverse link basic_vector to storage_wrapper--><g id="link_basic_vector_storage_wrapper"><path codeLine="75" d="M415,672.5799 C415,693.3269 415,715.3609 415,736.2359 " fill="none" id="basic_vector-backto-storage_wrapper" style="stroke:#A80036;stroke-width:1.0;"/><polygon fill="#A80036" points="415,659.5059,411,665.5059,415,671.5059,419,665.5059,415,659.5059" style="stroke:#A80036;stroke-width:1.0;"/><text fill="#000000" font-family="sans-serif" font-size="13" lengthAdjust="spacing" textLength="51" x="416" y="702.3638">unioned</text><text fill="#000000" font-family="sans-serif" font-size="13" lengthAdjust="spacing" textLength="8" x="406.6438" y="679.4759">1</text><text fill="#000000" font-family="sans-serif" font-size="13" lengthAdjust="spacing" textLength="8" x="406.6938" y="725.2767">1</text></g><!--reverse link basic_vector to indexed_vector--><g id="link_basic_vector_indexed_vector"><path codeLine="76" d="M584.942,665.2849 C646.285,696.3239 714.841,731.0129 773.585,760.7369 " fill="none" id="basic_vector-backto-indexed_vector" style="stroke:#A80036;stroke-width:1.0;"/><polygon fill="#A80036" points="573.176,659.3319,576.7235,665.61,583.8832,664.7501,580.3356,658.4719,573.176,659.3319" style="stroke:#A80036;stroke-width:1.0;"/><text fill="#000000" font-family="sans-serif" font-size="13" lengthAdjust="spacing" textLength="51" x="667" y="702.3638">unioned</text><text fill="#000000" font-family="sans-serif" font-size="13" lengthAdjust="spacing" textLength="8" x="579.3891" y="679.5631">1</text><text fill="#000000" font-family="sans-serif" font-size="13" lengthAdjust="spacing" textLength="37" x="719.9906" y="749.5141">many</text></g><!--link vector_base to CRTP_duck_type--><g id="link_vector_base_CRTP_duck_type"><path codeLine="77" d="M783.156,282.2969 C845.787,282.2969 907.649,282.2969 955.184,282.2969 " fill="none" id="vector_base-to-CRTP_duck_type" style="stroke:#A80036;stroke-width:1.0;stroke-dasharray:7.0,7.0;"/><polygon fill="#A80036" points="960.323,282.2969,951.323,278.2969,955.323,282.2969,951.323,286.2969,960.323,282.2969" style="stroke:#A80036;stroke-width:1.0;"/><text fill="#000000" font-family="sans-serif" font-size="13" lengthAdjust="spacing" textLength="141" x="801.25" y="275.3638">requires from Derived</text></g><!--SRC=[jLHDZzCm43stlsBK4x1j9AvHnQLxuOQMIXmGHDDuqbZhs5dRsMuB_7V6sIJ4JSk7n9uo6VlDF3-_iRkN6gnnD9_DlFIAu8uKUccqAsNjO0KRXSx1hSIznMe-azgJBJ0dsDnjFsIYoUypVwmP_urBt3ZohrvpCBi1KvD5R-pdBtr6eCS-TlJGaCwf_vV-UJSKZSxR_c7bntocZIVmfWPJdBS4s1WkKVi65Gp4bi0Gi8GgRNSqIi2Ee491OPC1x66yJ5g4xKmVTyvRp3qyKiuyiXqwWlNE60MVhFIuKrnPo8gqOtQeCfUZGWlR9JWlqjJ94sK-zDD-2O6VnehWbgny9F6kqoUS04OYjVzJfThqMAuE5slM9YyB5vOLwRql1y6PNn-ZoyGpho5Jr-euR2rbCJ3CexzAwY74fm7GLDrjiOODQyZYoJnxLdBzPz4-ygTNAEYUeHQPEyZJIP7h_V9VZTNkF60zDfcYmWUNZScdwPGFmBOaQFt1m-CvHctqiJ9DM6iqzm3fs6QE2-2UieDbUSb6TcixMhal_w5b_tkzBLhEgZ0CWfv8T1MZnjqDdNFhnfUpz6A2NpVaw2ewVl49_j935qTnd4gIvBqRE-r5pigdY1wHxojX3deLtt8tlRhaGVJ1v1SXiGmmHSLF8dnD4eZwC2IiWgngHQpXLT2aqnGMrLsyNS2RZcM8pmp51LfBalWji49zN4nx_uAUKLqdOKgJw95E-R5_QAJbmIYigVedzoS0]--></g></svg>