<?xml version="1.0" encoding="us-ascii" standalone="no"?><svg xmlns="http://www.w3.org/2000/svg" xmlns:xlink="http://www.w3.org/1999/xlink" contentStyleType="text/css" height="780px" preserveAspectRatio="none" style="width:473px;height:780px;background:#FFFFFF;" version="1.1" viewBox="0 0 473 780" width="473px" zoomAndPan="magnify"><defs><filter height="300%" id="f55sasxp0om6w" width="300%" x="-1" y="-1"><feGaussianBlur result="blurOut" stdDeviation="2.0"/><feColorMatrix in="blurOut" result="blurOut2" type="matrix" values="0 0 0 0 0 0 0 0 0 0 0 0 0 0 0 0 0 0 .4 0"/><feOffset dx="4.0" dy="4.0" in="blurOut2" result="blurOut3"/><feBlend in="SourceGraphic" in2="blurOut3" mode="normal"/></filter></defs><g><text fill="#000000" font-family="sans-serif" font-size="14" font-weight="bold" lengthAdjust="spacing" textLength="243" x="108" y="22.9951">Relationships - Class Diagram</text><!--class vector_duck_type--><g id="elem_vector_duck_type"><rect codeLine="7" fill="#FEFECE" filter="url(#f55sasxp0om6w)" height="129.4844" id="vector_duck_type" style="stroke:#A80036;stroke-width:1.0;" width="156" x="303" y="117.7969"/><ellipse cx="318" cy="133.7969" fill="#B4A7E5" rx="11" ry="11" style="stroke:#A80036;stroke-width:1.0;"/><path d="M318.9531,130.5781 L320.6719,130.5781 C321.0625,130.5781 321.25,130.5469 321.375,130.4688 C321.6406,130.3125 321.7813,130.0313 321.7813,129.7344 C321.7813,129.4688 321.6719,129.2031 321.4375,129.0313 C321.2656,128.9219 321.125,128.8906 320.6719,128.8906 L315.5313,128.8906 C315.0938,128.8906 314.9688,128.9063 314.8125,129 C314.5625,129.1563 314.4063,129.4531 314.4063,129.7344 C314.4063,130.0156 314.5469,130.2656 314.7656,130.4375 C314.9219,130.5469 315.1094,130.5781 315.5313,130.5781 L317.25,130.5781 L317.25,137.0938 L315.5313,137.0938 C315.0938,137.0938 314.9688,137.1094 314.8125,137.2188 C314.5625,137.375 314.4063,137.6563 314.4063,137.9531 C314.4063,138.2031 314.5469,138.4688 314.7656,138.625 C314.9219,138.75 315.125,138.7969 315.5313,138.7969 L320.6719,138.7969 C321.4219,138.7969 321.7813,138.5156 321.7813,137.9531 C321.7813,137.6719 321.6719,137.4219 321.4375,137.25 C321.2656,137.125 321.125,137.0938 320.6719,137.0938 L318.9531,137.0938 L318.9531,130.5781 Z " fill="#000000"/><text fill="#000000" font-family="sans-serif" font-size="14" font-style="italic" lengthAdjust="spacing" textLength="124" x="332" y="138.6436">vector_duck_type</text><line style="stroke:#A80036;stroke-width:1.0;" x1="304" x2="458" y1="149.7969" y2="149.7969"/><line style="stroke:#A80036;stroke-width:1.0;" x1="304" x2="458" y1="157.7969" y2="157.7969"/><ellipse cx="314" cy="171.4453" fill="#84BE84" rx="3" ry="3" style="stroke:#038048;stroke-width:1.0;"/><text fill="#000000" font-family="sans-serif" font-size="14" lengthAdjust="spacing" textLength="33" x="323" y="174.792">set()</text><ellipse cx="314" cy="187.7422" fill="#84BE84" rx="3" ry="3" style="stroke:#038048;stroke-width:1.0;"/><text fill="#000000" font-family="sans-serif" font-size="14" lengthAdjust="spacing" textLength="84" x="323" y="191.0889">operator[]()</text><ellipse cx="314" cy="204.0391" fill="#84BE84" rx="3" ry="3" style="stroke:#038048;stroke-width:1.0;"/><text fill="#000000" font-family="sans-serif" font-size="14" lengthAdjust="spacing" textLength="42" x="323" y="207.3857">data()</text><ellipse cx="314" cy="220.3359" fill="#84BE84" rx="3" ry="3" style="stroke:#038048;stroke-width:1.0;"/><text fill="#000000" font-family="sans-serif" font-size="14" lengthAdjust="spacing" textLength="78" x="323" y="223.6826">sequence()</text><ellipse cx="314" cy="236.6328" fill="#84BE84" rx="3" ry="3" style="stroke:#038048;stroke-width:1.0;"/><text fill="#000000" font-family="sans-serif" font-size="14" lengthAdjust="spacing" textLength="73" x="323" y="239.9795">iterators()</text></g><!--class vector_base--><g id="elem_vector_base"><rect codeLine="15" fill="#FEFECE" filter="url(#f55sasxp0om6w)" height="276.1563" id="vector_base" style="stroke:#A80036;stroke-width:1.0;" width="118" x="130" y="44.2969"/><ellipse cx="145" cy="60.2969" fill="#B4A7E5" rx="11" ry="11" style="stroke:#A80036;stroke-width:1.0;"/><path d="M145.9531,57.0781 L147.6719,57.0781 C148.0625,57.0781 148.25,57.0469 148.375,56.9688 C148.6406,56.8125 148.7813,56.5313 148.7813,56.2344 C148.7813,55.9688 148.6719,55.7031 148.4375,55.5313 C148.2656,55.4219 148.125,55.3906 147.6719,55.3906 L142.5313,55.3906 C142.0938,55.3906 141.9688,55.4063 141.8125,55.5 C141.5625,55.6563 141.4063,55.9531 141.4063,56.2344 C141.4063,56.5156 141.5469,56.7656 141.7656,56.9375 C141.9219,57.0469 142.1094,57.0781 142.5313,57.0781 L144.25,57.0781 L144.25,63.5938 L142.5313,63.5938 C142.0938,63.5938 141.9688,63.6094 141.8125,63.7188 C141.5625,63.875 141.4063,64.1563 141.4063,64.4531 C141.4063,64.7031 141.5469,64.9688 141.7656,65.125 C141.9219,65.25 142.125,65.2969 142.5313,65.2969 L147.6719,65.2969 C148.4219,65.2969 148.7813,65.0156 148.7813,64.4531 C148.7813,64.1719 148.6719,63.9219 148.4375,63.75 C148.2656,63.625 148.125,63.5938 147.6719,63.5938 L145.9531,63.5938 L145.9531,57.0781 Z " fill="#000000"/><text fill="#000000" font-family="sans-serif" font-size="14" font-style="italic" lengthAdjust="spacing" textLength="86" x="159" y="65.1436">vector_base</text><line style="stroke:#A80036;stroke-width:1.0;" x1="131" x2="247" y1="76.2969" y2="76.2969"/><line style="stroke:#A80036;stroke-width:1.0;" x1="131" x2="247" y1="84.2969" y2="84.2969"/><ellipse cx="141" cy="97.9453" fill="#84BE84" rx="3" ry="3" style="stroke:#038048;stroke-width:1.0;"/><text fill="#000000" font-family="sans-serif" font-size="14" lengthAdjust="spacing" textLength="33" x="150" y="101.292">set()</text><ellipse cx="141" cy="114.2422" fill="#84BE84" rx="3" ry="3" style="stroke:#038048;stroke-width:1.0;"/><text fill="#000000" font-family="sans-serif" font-size="14" lengthAdjust="spacing" textLength="84" x="150" y="117.5889">operator[]()</text><ellipse cx="141" cy="130.5391" fill="#84BE84" rx="3" ry="3" style="stroke:#038048;stroke-width:1.0;"/><text fill="#000000" font-family="sans-serif" font-size="14" lengthAdjust="spacing" textLength="42" x="150" y="133.8857">data()</text><ellipse cx="141" cy="146.8359" fill="#84BE84" rx="3" ry="3" style="stroke:#038048;stroke-width:1.0;"/><text fill="#000000" font-family="sans-serif" font-size="14" lengthAdjust="spacing" textLength="78" x="150" y="150.1826">sequence()</text><ellipse cx="141" cy="163.1328" fill="#84BE84" rx="3" ry="3" style="stroke:#038048;stroke-width:1.0;"/><text fill="#000000" font-family="sans-serif" font-size="14" lengthAdjust="spacing" textLength="57" x="150" y="166.4795">length()</text><ellipse cx="141" cy="179.4297" fill="#84BE84" rx="3" ry="3" style="stroke:#038048;stroke-width:1.0;"/><text fill="#000000" font-family="sans-serif" font-size="14" lengthAdjust="spacing" textLength="38" x="150" y="182.7764">size()</text><ellipse cx="141" cy="195.7266" fill="#84BE84" rx="3" ry="3" style="stroke:#038048;stroke-width:1.0;"/><text fill="#000000" font-family="sans-serif" font-size="14" lengthAdjust="spacing" textLength="86" x="150" y="199.0732">as_derived()</text><ellipse cx="141" cy="212.0234" fill="#84BE84" rx="3" ry="3" style="stroke:#038048;stroke-width:1.0;"/><text fill="#000000" font-family="sans-serif" font-size="14" lengthAdjust="spacing" textLength="73" x="150" y="215.3701">iterators()</text><ellipse cx="141" cy="228.3203" fill="#84BE84" rx="3" ry="3" style="stroke:#038048;stroke-width:1.0;"/><text fill="#000000" font-family="sans-serif" font-size="14" lengthAdjust="spacing" textLength="50" x="150" y="231.667">apply()</text><ellipse cx="141" cy="244.6172" fill="#84BE84" rx="3" ry="3" style="stroke:#038048;stroke-width:1.0;"/><text fill="#000000" font-family="sans-serif" font-size="14" lengthAdjust="spacing" textLength="43" x="150" y="247.9639">shift()</text><ellipse cx="141" cy="260.9141" fill="#84BE84" rx="3" ry="3" style="stroke:#038048;stroke-width:1.0;"/><text fill="#000000" font-family="sans-serif" font-size="14" lengthAdjust="spacing" textLength="51" x="150" y="264.2607">cshift()</text><ellipse cx="141" cy="277.2109" fill="#84BE84" rx="3" ry="3" style="stroke:#038048;stroke-width:1.0;"/><text fill="#000000" font-family="sans-serif" font-size="14" lengthAdjust="spacing" textLength="37" x="150" y="280.5576">min()</text><ellipse cx="141" cy="293.5078" fill="#84BE84" rx="3" ry="3" style="stroke:#038048;stroke-width:1.0;"/><text fill="#000000" font-family="sans-serif" font-size="14" lengthAdjust="spacing" textLength="40" x="150" y="296.8545">max()</text><ellipse cx="141" cy="309.8047" fill="#84BE84" rx="3" ry="3" style="stroke:#038048;stroke-width:1.0;"/><text fill="#000000" font-family="sans-serif" font-size="14" lengthAdjust="spacing" textLength="39" x="150" y="313.1514">sum()</text></g><!--class basic_vector--><g id="elem_basic_vector"><rect codeLine="32" fill="#FEFECE" filter="url(#f55sasxp0om6w)" height="145.7813" id="basic_vector" style="stroke:#A80036;stroke-width:1.0;" width="123" x="48.5" y="397.2969"/><ellipse cx="63.5" cy="413.2969" fill="#ADD1B2" rx="11" ry="11" style="stroke:#A80036;stroke-width:1.0;"/><path d="M65.8438,408.9688 C64.9063,408.5313 64.3125,408.3906 63.4375,408.3906 C60.8125,408.3906 58.8125,410.4688 58.8125,413.1875 L58.8125,414.3125 C58.8125,416.8906 60.9219,418.7813 63.8125,418.7813 C65.0313,418.7813 66.1875,418.4844 66.9375,417.9375 C67.5156,417.5313 67.8438,417.0781 67.8438,416.6875 C67.8438,416.2344 67.4531,415.8438 66.9844,415.8438 C66.7656,415.8438 66.5625,415.9219 66.375,416.1094 C65.9219,416.5938 65.9219,416.5938 65.7344,416.6875 C65.3125,416.9531 64.625,417.0781 63.8594,417.0781 C61.8125,417.0781 60.5156,415.9844 60.5156,414.2813 L60.5156,413.1875 C60.5156,411.4063 61.7656,410.0938 63.5,410.0938 C64.0781,410.0938 64.6875,410.25 65.1563,410.5 C65.6406,410.7813 65.8125,411 65.9063,411.4063 C65.9688,411.8125 66,411.9375 66.1406,412.0625 C66.2813,412.2031 66.5156,412.3125 66.7344,412.3125 C67,412.3125 67.2656,412.1719 67.4375,411.9531 C67.5469,411.7969 67.5781,411.6094 67.5781,411.1875 L67.5781,409.7656 C67.5781,409.3281 67.5625,409.2031 67.4688,409.0469 C67.3125,408.7813 67.0313,408.6406 66.7344,408.6406 C66.4375,408.6406 66.2344,408.7344 66.0156,409.0469 L65.8438,408.9688 Z " fill="#000000"/><text fill="#000000" font-family="sans-serif" font-size="14" lengthAdjust="spacing" textLength="91" x="77.5" y="418.1436">basic_vector</text><line style="stroke:#A80036;stroke-width:1.0;" x1="49.5" x2="170.5" y1="429.2969" y2="429.2969"/><ellipse cx="59.5" cy="442.9453" fill="none" rx="3" ry="3" style="stroke:#038048;stroke-width:1.0;"/><text fill="#000000" font-family="sans-serif" font-size="14" lengthAdjust="spacing" textLength="58" x="68.5" y="446.292">swizzles</text><line style="stroke:#A80036;stroke-width:1.0;" x1="49.5" x2="170.5" y1="453.5938" y2="453.5938"/><ellipse cx="59.5" cy="467.2422" fill="#84BE84" rx="3" ry="3" style="stroke:#038048;stroke-width:1.0;"/><text fill="#000000" font-family="sans-serif" font-size="14" lengthAdjust="spacing" textLength="33" x="68.5" y="470.5889">set()</text><ellipse cx="59.5" cy="483.5391" fill="#84BE84" rx="3" ry="3" style="stroke:#038048;stroke-width:1.0;"/><text fill="#000000" font-family="sans-serif" font-size="14" lengthAdjust="spacing" textLength="84" x="68.5" y="486.8857">operator[]()</text><ellipse cx="59.5" cy="499.8359" fill="#84BE84" rx="3" ry="3" style="stroke:#038048;stroke-width:1.0;"/><text fill="#000000" font-family="sans-serif" font-size="14" lengthAdjust="spacing" textLength="42" x="68.5" y="503.1826">data()</text><ellipse cx="59.5" cy="516.1328" fill="#84BE84" rx="3" ry="3" style="stroke:#038048;stroke-width:1.0;"/><text fill="#000000" font-family="sans-serif" font-size="14" lengthAdjust="spacing" textLength="78" x="68.5" y="519.4795">sequence()</text><ellipse cx="59.5" cy="532.4297" fill="#84BE84" rx="3" ry="3" style="stroke:#038048;stroke-width:1.0;"/><text fill="#000000" font-family="sans-serif" font-size="14" lengthAdjust="spacing" textLength="73" x="68.5" y="535.7764">iterators()</text></g><!--class storage_wrapper--><g id="elem_storage_wrapper"><rect codeLine="41" fill="#FEFECE" filter="url(#f55sasxp0om6w)" height="64.2969" id="storage_wrapper" style="stroke:#A80036;stroke-width:1.0;" width="154" x="7" y="661.2969"/><ellipse cx="22" cy="677.2969" fill="#ADD1B2" rx="11" ry="11" style="stroke:#A80036;stroke-width:1.0;"/><path d="M24.3438,672.9688 C23.4063,672.5313 22.8125,672.3906 21.9375,672.3906 C19.3125,672.3906 17.3125,674.4688 17.3125,677.1875 L17.3125,678.3125 C17.3125,680.8906 19.4219,682.7813 22.3125,682.7813 C23.5313,682.7813 24.6875,682.4844 25.4375,681.9375 C26.0156,681.5313 26.3438,681.0781 26.3438,680.6875 C26.3438,680.2344 25.9531,679.8438 25.4844,679.8438 C25.2656,679.8438 25.0625,679.9219 24.875,680.1094 C24.4219,680.5938 24.4219,680.5938 24.2344,680.6875 C23.8125,680.9531 23.125,681.0781 22.3594,681.0781 C20.3125,681.0781 19.0156,679.9844 19.0156,678.2813 L19.0156,677.1875 C19.0156,675.4063 20.2656,674.0938 22,674.0938 C22.5781,674.0938 23.1875,674.25 23.6563,674.5 C24.1406,674.7813 24.3125,675 24.4063,675.4063 C24.4688,675.8125 24.5,675.9375 24.6406,676.0625 C24.7813,676.2031 25.0156,676.3125 25.2344,676.3125 C25.5,676.3125 25.7656,676.1719 25.9375,675.9531 C26.0469,675.7969 26.0781,675.6094 26.0781,675.1875 L26.0781,673.7656 C26.0781,673.3281 26.0625,673.2031 25.9688,673.0469 C25.8125,672.7813 25.5313,672.6406 25.2344,672.6406 C24.9375,672.6406 24.7344,672.7344 24.5156,673.0469 L24.3438,672.9688 Z " fill="#000000"/><text fill="#000000" font-family="sans-serif" font-size="14" lengthAdjust="spacing" textLength="122" x="36" y="682.1436">storage_wrapper</text><line style="stroke:#A80036;stroke-width:1.0;" x1="8" x2="160" y1="693.2969" y2="693.2969"/><ellipse cx="18" cy="706.9453" fill="none" rx="3" ry="3" style="stroke:#038048;stroke-width:1.0;"/><text fill="#000000" font-family="sans-serif" font-size="14" lengthAdjust="spacing" textLength="38" x="27" y="710.292">store</text><line style="stroke:#A80036;stroke-width:1.0;" x1="8" x2="160" y1="717.5938" y2="717.5938"/></g><!--class indexed_vector--><g id="elem_indexed_vector"><rect codeLine="45" fill="#FEFECE" filter="url(#f55sasxp0om6w)" height="145.7813" id="indexed_vector" style="stroke:#A80036;stroke-width:1.0;" width="143" x="196.5" y="620.2969"/><ellipse cx="211.5" cy="636.2969" fill="#ADD1B2" rx="11" ry="11" style="stroke:#A80036;stroke-width:1.0;"/><path d="M213.8438,631.9688 C212.9063,631.5313 212.3125,631.3906 211.4375,631.3906 C208.8125,631.3906 206.8125,633.4688 206.8125,636.1875 L206.8125,637.3125 C206.8125,639.8906 208.9219,641.7813 211.8125,641.7813 C213.0313,641.7813 214.1875,641.4844 214.9375,640.9375 C215.5156,640.5313 215.8438,640.0781 215.8438,639.6875 C215.8438,639.2344 215.4531,638.8438 214.9844,638.8438 C214.7656,638.8438 214.5625,638.9219 214.375,639.1094 C213.9219,639.5938 213.9219,639.5938 213.7344,639.6875 C213.3125,639.9531 212.625,640.0781 211.8594,640.0781 C209.8125,640.0781 208.5156,638.9844 208.5156,637.2813 L208.5156,636.1875 C208.5156,634.4063 209.7656,633.0938 211.5,633.0938 C212.0781,633.0938 212.6875,633.25 213.1563,633.5 C213.6406,633.7813 213.8125,634 213.9063,634.4063 C213.9688,634.8125 214,634.9375 214.1406,635.0625 C214.2813,635.2031 214.5156,635.3125 214.7344,635.3125 C215,635.3125 215.2656,635.1719 215.4375,634.9531 C215.5469,634.7969 215.5781,634.6094 215.5781,634.1875 L215.5781,632.7656 C215.5781,632.3281 215.5625,632.2031 215.4688,632.0469 C215.3125,631.7813 215.0313,631.6406 214.7344,631.6406 C214.4375,631.6406 214.2344,631.7344 214.0156,632.0469 L213.8438,631.9688 Z " fill="#000000"/><text fill="#000000" font-family="sans-serif" font-size="14" lengthAdjust="spacing" textLength="111" x="225.5" y="641.1436">indexed_vector</text><line style="stroke:#A80036;stroke-width:1.0;" x1="197.5" x2="338.5" y1="652.2969" y2="652.2969"/><ellipse cx="207.5" cy="665.9453" fill="none" rx="3" ry="3" style="stroke:#038048;stroke-width:1.0;"/><text fill="#000000" font-family="sans-serif" font-size="14" lengthAdjust="spacing" textLength="34" x="216.5" y="669.292">base</text><line style="stroke:#A80036;stroke-width:1.0;" x1="197.5" x2="338.5" y1="676.5938" y2="676.5938"/><ellipse cx="207.5" cy="690.2422" fill="#84BE84" rx="3" ry="3" style="stroke:#038048;stroke-width:1.0;"/><text fill="#000000" font-family="sans-serif" font-size="14" lengthAdjust="spacing" textLength="33" x="216.5" y="693.5889">set()</text><ellipse cx="207.5" cy="706.5391" fill="#84BE84" rx="3" ry="3" style="stroke:#038048;stroke-width:1.0;"/><text fill="#000000" font-family="sans-serif" font-size="14" lengthAdjust="spacing" textLength="84" x="216.5" y="709.8857">operator[]()</text><ellipse cx="207.5" cy="722.8359" fill="#84BE84" rx="3" ry="3" style="stroke:#038048;stroke-width:1.0;"/><text fill="#000000" font-family="sans-serif" font-size="14" lengthAdjust="spacing" textLength="42" x="216.5" y="726.1826">data()</text><ellipse cx="207.5" cy="739.1328" fill="#84BE84" rx="3" ry="3" style="stroke:#038048;stroke-width:1.0;"/><text fill="#000000" font-family="sans-serif" font-size="14" lengthAdjust="spacing" textLength="78" x="216.5" y="742.4795">sequence()</text><ellipse cx="207.5" cy="755.4297" fill="#84BE84" rx="3" ry="3" style="stroke:#038048;stroke-width:1.0;"/><text fill="#000000" font-family="sans-serif" font-size="14" lengthAdjust="spacing" textLength="73" x="216.5" y="758.7764">iterators()</text></g><!--reverse link vector_base to basic_vector--><g id="link_vector_base_basic_vector"><path codeLine="55" d="M145.713,340.0079 C140.208,359.9359 134.803,379.5049 129.929,397.1489 " fill="none" id="vector_base-backto-basic_vector" style="stroke:#A80036;stroke-width:1.0;"/><polygon fill="none" points="139.047,337.8469,151.12,320.4329,152.542,341.5749,139.047,337.8469" style="stroke:#A80036;stroke-width:1.0;"/><text fill="#000000" font-family="sans-serif" font-size="13" lengthAdjust="spacing" textLength="47" x="144" y="363.3638">inherits</text></g><!--reverse link vector_base to indexed_vector--><g id="link_vector_base_indexed_vector"><path codeLine="56" d="M213.362,340.2629 C227.855,433.6419 245.552,547.6619 256.8,620.1379 " fill="none" id="vector_base-backto-indexed_vector" style="stroke:#A80036;stroke-width:1.0;"/><polygon fill="none" points="206.425,341.2059,210.274,320.3689,220.259,339.0589,206.425,341.2059" style="stroke:#A80036;stroke-width:1.0;"/><text fill="#000000" font-family="sans-serif" font-size="13" lengthAdjust="spacing" textLength="47" x="245" y="474.8638">inherits</text></g><!--reverse link vector_duck_type to basic_vector--><g id="link_vector_duck_type_basic_vector"><path codeLine="57" d="M316.395,262.4039 C300.005,281.6829 282.167,302.0109 265,320.2969 C235.364,351.8639 200.76,385.4169 171.776,412.6739 " fill="none" id="vector_duck_type-backto-basic_vector" style="stroke:#A80036;stroke-width:1.0;stroke-dasharray:7.0,7.0;"/><polygon fill="none" points="311.239,257.6589,329.48,246.8759,321.945,266.6809,311.239,257.6589" style="stroke:#A80036;stroke-width:1.0;"/><text fill="#000000" font-family="sans-serif" font-size="13" lengthAdjust="spacing" textLength="76" x="234" y="363.3638">implements</text></g><!--reverse link vector_duck_type to indexed_vector--><g id="link_vector_duck_type_indexed_vector"><path codeLine="58" d="M362.494,266.6539 C340.675,364.9359 304.769,526.6739 284.069,619.9169 " fill="none" id="vector_duck_type-backto-indexed_vector" style="stroke:#A80036;stroke-width:1.0;stroke-dasharray:7.0,7.0;"/><polygon fill="none" points="355.692,264.9969,366.86,246.9899,369.359,268.0309,355.692,264.9969" style="stroke:#A80036;stroke-width:1.0;"/><text fill="#000000" font-family="sans-serif" font-size="13" lengthAdjust="spacing" textLength="76" x="334" y="474.8638">implements</text></g><!--reverse link basic_vector to storage_wrapper--><g id="link_basic_vector_storage_wrapper"><path codeLine="59" d="M99.9577,556.6559 C95.6436,593.3259 90.8706,633.8959 87.6788,661.0269 " fill="none" id="basic_vector-backto-storage_wrapper" style="stroke:#A80036;stroke-width:1.0;"/><polygon fill="#A80036" points="101.5226,543.3549,96.8491,548.8465,100.1208,555.2727,104.7943,549.7811,101.5226,543.3549" style="stroke:#A80036;stroke-width:1.0;"/><text fill="#000000" font-family="sans-serif" font-size="13" lengthAdjust="spacing" textLength="23" x="99" y="586.3638">has</text><text fill="#000000" font-family="sans-serif" font-size="13" lengthAdjust="spacing" textLength="37" x="61.9513" y="563.1167">many</text><text fill="#000000" font-family="sans-serif" font-size="13" lengthAdjust="spacing" textLength="8" x="79.6156" y="650.2479">1</text></g><!--reverse link basic_vector to indexed_vector--><g id="link_basic_vector_indexed_vector"><path codeLine="60" d="M165.844,554.4599 C174.182,566.5489 182.748,578.7909 191,590.2969 C197.982,600.0329 205.445,610.2009 212.875,620.1839 " fill="none" id="basic_vector-backto-indexed_vector" style="stroke:#A80036;stroke-width:1.0;"/><polygon fill="#A80036" points="158.266,543.4279,158.3658,550.6383,165.0599,553.3194,164.9601,546.109,158.266,543.4279" style="stroke:#A80036;stroke-width:1.0;"/><text fill="#000000" font-family="sans-serif" font-size="13" lengthAdjust="spacing" textLength="23" x="192" y="586.3638">has</text><text fill="#000000" font-family="sans-serif" font-size="13" lengthAdjust="spacing" textLength="37" x="124.1031" y="563.1967">many</text><text fill="#000000" font-family="sans-serif" font-size="13" lengthAdjust="spacing" textLength="7" x="200.1041" y="609.3327">*</text></g><!--SRC=[hPB1JiCm38RlUGgh9nZg9AuJDtW2hWWgatYhjJGjSRfkWxqxsHf6jo8XmMw_ay_-_xYL9JlmjP1IAd2m18zaCN3jfEH688TxYoBmmBZmM4MANI0_Hqsm8XrgNvXMBukmQKYzAu0ReN1rlHTrGnuZyFJSrmO3zahehIMdgQyuz9p4SZSU_uhorycMt2AKwOQtwHIbCEHvHMRilxzk6hj9FINFawKUw8fT4hXEO5iTn4xfmxPYPjP5_u2KlUFjrf9SO4EzXSGQ5rHqFWQcBvTuI4U4dQ4rcPCSXst-FuCQV1ou-yXDtRdyvDcpQ5_6DGSPiaVqDDiOFlvKy3ATdW-k6aiLkH_eFJmQ_OqFvq1MeTjaC4c9ijliVAapAF6Nfaasyeizdm00]--></g></svg>