<?xml version="1.0" encoding="us-ascii" standalone="no"?><svg xmlns="http://www.w3.org/2000/svg" xmlns:xlink="http://www.w3.org/1999/xlink" contentStyleType="text/css" height="945px" preserveAspectRatio="none" style="width:848px;height:945px;background:#FFFFFF;" version="1.1" viewBox="0 0 848 945" width="848px" zoomAndPan="magnify"><defs><filter height="300%" id="f1hk7mlwr6bupf" width="300%" x="-1" y="-1"><feGaussianBlur result="blurOut" stdDeviation="2.0"/><feColorMatrix in="blurOut" result="blurOut2" type="matrix" values="0 0 0 0 0 0 0 0 0 0 0 0 0 0 0 0 0 0 .4 0"/><feOffset dx="4.0" dy="4.0" in="blurOut2" result="blurOut3"/><feBlend in="SourceGraphic" in2="blurOut3" mode="normal"/></filter></defs><g><text fill="#000000" font-family="sans-serif" font-size="14" font-weight="bold" lengthAdjust="spacing" textLength="243" x="295.75" y="22.9951">Relationships - Class Diagram</text><!--class CRTP_duck_type--><g id="elem_CRTP_duck_type"><rect codeLine="3" fill="#FEFECE" filter="url(#f1hk7mlwr6bupf)" height="129.4844" id="CRTP_duck_type" style="stroke:#A80036;stroke-width:1.0;" width="163" x="261.5" y="120.7969"/><ellipse cx="283.25" cy="136.7969" fill="#B4A7E5" rx="11" ry="11" style="stroke:#A80036;stroke-width:1.0;"/><path d="M284.2031,133.5781 L285.9219,133.5781 C286.3125,133.5781 286.5,133.5469 286.625,133.4688 C286.8906,133.3125 287.0313,133.0313 287.0313,132.7344 C287.0313,132.4688 286.9219,132.2031 286.6875,132.0313 C286.5156,131.9219 286.375,131.8906 285.9219,131.8906 L280.7813,131.8906 C280.3438,131.8906 280.2188,131.9063 280.0625,132 C279.8125,132.1563 279.6563,132.4531 279.6563,132.7344 C279.6563,133.0156 279.7969,133.2656 280.0156,133.4375 C280.1719,133.5469 280.3594,133.5781 280.7813,133.5781 L282.5,133.5781 L282.5,140.0938 L280.7813,140.0938 C280.3438,140.0938 280.2188,140.1094 280.0625,140.2188 C279.8125,140.375 279.6563,140.6563 279.6563,140.9531 C279.6563,141.2031 279.7969,141.4688 280.0156,141.625 C280.1719,141.75 280.375,141.7969 280.7813,141.7969 L285.9219,141.7969 C286.6719,141.7969 287.0313,141.5156 287.0313,140.9531 C287.0313,140.6719 286.9219,140.4219 286.6875,140.25 C286.5156,140.125 286.375,140.0938 285.9219,140.0938 L284.2031,140.0938 L284.2031,133.5781 Z " fill="#000000"/><text fill="#000000" font-family="sans-serif" font-size="14" font-style="italic" lengthAdjust="spacing" textLength="116" x="298.75" y="141.6436">CRTP_duck_type</text><line style="stroke:#A80036;stroke-width:1.0;" x1="262.5" x2="423.5" y1="152.7969" y2="152.7969"/><line style="stroke:#A80036;stroke-width:1.0;" x1="262.5" x2="423.5" y1="160.7969" y2="160.7969"/><ellipse cx="272.5" cy="174.4453" fill="#84BE84" rx="3" ry="3" style="stroke:#038048;stroke-width:1.0;"/><text fill="#000000" font-family="sans-serif" font-size="14" lengthAdjust="spacing" textLength="33" x="281.5" y="177.792">set()</text><ellipse cx="272.5" cy="190.7422" fill="#84BE84" rx="3" ry="3" style="stroke:#038048;stroke-width:1.0;"/><text fill="#000000" font-family="sans-serif" font-size="14" lengthAdjust="spacing" textLength="84" x="281.5" y="194.0889">operator[]()</text><ellipse cx="272.5" cy="207.0391" fill="#84BE84" rx="3" ry="3" style="stroke:#038048;stroke-width:1.0;"/><text fill="#000000" font-family="sans-serif" font-size="14" lengthAdjust="spacing" textLength="42" x="281.5" y="210.3857">data()</text><ellipse cx="272.5" cy="223.3359" fill="#84BE84" rx="3" ry="3" style="stroke:#038048;stroke-width:1.0;"/><text fill="#000000" font-family="sans-serif" font-size="14" lengthAdjust="spacing" textLength="78" x="281.5" y="226.6826">sequence()</text><ellipse cx="272.5" cy="239.6328" fill="#84BE84" rx="3" ry="3" style="stroke:#038048;stroke-width:1.0;"/><text fill="#000000" font-family="sans-serif" font-size="14" lengthAdjust="spacing" textLength="137" x="281.5" y="242.9795">iterator functions()</text></g><g id="elem_GMN3"><path d="M6,165.2969 L6,205.5625 A0,0 0 0 0 6,205.5625 L226,205.5625 A0,0 0 0 0 226,205.5625 L226,189.2969 L261.469,185.2969 L226,181.2969 L226,175.2969 L216,165.2969 L6,165.2969 A0,0 0 0 0 6,165.2969 " fill="#FBFB77" filter="url(#f1hk7mlwr6bupf)" style="stroke:#A80036;stroke-width:1.0;"/><path d="M216,165.2969 L216,175.2969 L226,175.2969 L216,165.2969 " fill="#FBFB77" style="stroke:#A80036;stroke-width:1.0;"/><text fill="#000000" font-family="sans-serif" font-size="13" lengthAdjust="spacing" textLength="199" x="12" y="182.3638">Conceptual interface, not real :</text><text fill="#000000" font-family="sans-serif" font-size="13" lengthAdjust="spacing" textLength="194" x="12" y="197.4966">Could be made into a Concept</text></g><!--class vector_base--><g id="elem_vector_base"><rect codeLine="15" fill="#FEFECE" filter="url(#f1hk7mlwr6bupf)" height="276.1563" id="vector_base" style="stroke:#A80036;stroke-width:1.0;" width="285" x="549.5" y="47.2969"/><ellipse cx="564.5" cy="63.2969" fill="#A9DCDF" rx="11" ry="11" style="stroke:#A80036;stroke-width:1.0;"/><path d="M566.5781,65.1094 L566.9688,66.0938 L566.5781,66.0938 C566.125,66.0938 566.0156,66.1094 565.8594,66.2188 C565.6094,66.375 565.4531,66.6563 565.4531,66.9531 C565.4531,67.2188 565.5938,67.4688 565.8125,67.625 C565.9531,67.75 566.1563,67.7969 566.5781,67.7969 L568.9375,67.7969 C569.2969,67.7969 569.5156,67.7656 569.6563,67.6719 C569.9063,67.5313 570.0625,67.2344 570.0625,66.9531 C570.0625,66.6719 569.9219,66.4219 569.7031,66.2656 C569.5313,66.125 569.375,66.0938 568.9063,66.0938 L565.5156,57.8906 L561.8438,57.8906 C561.3906,57.8906 561.2656,57.9063 561.1094,58 C560.8594,58.1719 560.7031,58.4531 560.7031,58.7344 C560.7031,59.0156 560.8438,59.2656 561.0625,59.4375 C561.2344,59.5469 561.4063,59.5781 561.8438,59.5781 L562.9219,59.5781 L560.2813,66.0938 C559.8594,66.0938 559.7031,66.1094 559.5469,66.2188 C559.2969,66.375 559.1406,66.6563 559.1406,66.9531 C559.1406,67.5156 559.5156,67.7969 560.2656,67.7969 L562.5313,67.7969 C562.8906,67.7969 563.1094,67.7656 563.2344,67.6719 C563.5,67.5313 563.6406,67.2344 563.6406,66.9531 C563.6406,66.6719 563.5156,66.4219 563.2969,66.25 C563.125,66.125 562.9844,66.0938 562.5313,66.0938 L562.1406,66.0938 L562.5313,65.1094 L566.5781,65.1094 Z M565.875,63.4063 L563.2031,63.4063 L564.5469,60.1406 L565.875,63.4063 Z " fill="#000000"/><text fill="#000000" font-family="sans-serif" font-size="14" font-style="italic" lengthAdjust="spacing" textLength="86" x="578.5" y="68.1436">vector_base</text><rect fill="#FFFFFF" height="15.9688" style="stroke:#A80036;stroke-width:1.0;stroke-dasharray:2.0,2.0;" width="165" x="672.5" y="44.2969"/><text fill="#000000" font-family="sans-serif" font-size="12" font-style="italic" lengthAdjust="spacing" textLength="163" x="673.5" y="56.4355">Writable, T, Count, Derived</text><line style="stroke:#A80036;stroke-width:1.0;" x1="550.5" x2="833.5" y1="79.2969" y2="79.2969"/><line style="stroke:#A80036;stroke-width:1.0;" x1="550.5" x2="833.5" y1="87.2969" y2="87.2969"/><ellipse cx="560.5" cy="100.9453" fill="#84BE84" rx="3" ry="3" style="stroke:#038048;stroke-width:1.0;"/><text fill="#000000" font-family="sans-serif" font-size="14" lengthAdjust="spacing" textLength="75" x="569.5" y="104.292">CRTP set()</text><ellipse cx="560.5" cy="117.2422" fill="#84BE84" rx="3" ry="3" style="stroke:#038048;stroke-width:1.0;"/><text fill="#000000" font-family="sans-serif" font-size="14" lengthAdjust="spacing" textLength="126" x="569.5" y="120.5889">CRTP operator[]()</text><ellipse cx="560.5" cy="133.5391" fill="#84BE84" rx="3" ry="3" style="stroke:#038048;stroke-width:1.0;"/><text fill="#000000" font-family="sans-serif" font-size="14" lengthAdjust="spacing" textLength="84" x="569.5" y="136.8857">CRTP data()</text><ellipse cx="560.5" cy="149.8359" fill="#84BE84" rx="3" ry="3" style="stroke:#038048;stroke-width:1.0;"/><text fill="#000000" font-family="sans-serif" font-size="14" lengthAdjust="spacing" textLength="120" x="569.5" y="153.1826">CRTP sequence()</text><ellipse cx="560.5" cy="166.1328" fill="#84BE84" rx="3" ry="3" style="stroke:#038048;stroke-width:1.0;"/><text fill="#000000" font-family="sans-serif" font-size="14" lengthAdjust="spacing" textLength="179" x="569.5" y="169.4795">CRTP iterator functions()</text><ellipse cx="560.5" cy="182.4297" fill="#84BE84" rx="3" ry="3" style="stroke:#038048;stroke-width:1.0;"/><text fill="#000000" font-family="sans-serif" font-size="14" lengthAdjust="spacing" textLength="57" x="569.5" y="185.7764">length()</text><ellipse cx="560.5" cy="198.7266" fill="#84BE84" rx="3" ry="3" style="stroke:#038048;stroke-width:1.0;"/><text fill="#000000" font-family="sans-serif" font-size="14" lengthAdjust="spacing" textLength="38" x="569.5" y="202.0732">size()</text><ellipse cx="560.5" cy="215.0234" fill="#84BE84" rx="3" ry="3" style="stroke:#038048;stroke-width:1.0;"/><text fill="#000000" font-family="sans-serif" font-size="14" lengthAdjust="spacing" textLength="86" x="569.5" y="218.3701">as_derived()</text><ellipse cx="560.5" cy="231.3203" fill="#84BE84" rx="3" ry="3" style="stroke:#038048;stroke-width:1.0;"/><text fill="#000000" font-family="sans-serif" font-size="14" lengthAdjust="spacing" textLength="50" x="569.5" y="234.667">apply()</text><ellipse cx="560.5" cy="247.6172" fill="#84BE84" rx="3" ry="3" style="stroke:#038048;stroke-width:1.0;"/><text fill="#000000" font-family="sans-serif" font-size="14" lengthAdjust="spacing" textLength="43" x="569.5" y="250.9639">shift()</text><ellipse cx="560.5" cy="263.9141" fill="#84BE84" rx="3" ry="3" style="stroke:#038048;stroke-width:1.0;"/><text fill="#000000" font-family="sans-serif" font-size="14" lengthAdjust="spacing" textLength="51" x="569.5" y="267.2607">cshift()</text><ellipse cx="560.5" cy="280.2109" fill="#84BE84" rx="3" ry="3" style="stroke:#038048;stroke-width:1.0;"/><text fill="#000000" font-family="sans-serif" font-size="14" lengthAdjust="spacing" textLength="37" x="569.5" y="283.5576">min()</text><ellipse cx="560.5" cy="296.5078" fill="#84BE84" rx="3" ry="3" style="stroke:#038048;stroke-width:1.0;"/><text fill="#000000" font-family="sans-serif" font-size="14" lengthAdjust="spacing" textLength="40" x="569.5" y="299.8545">max()</text><ellipse cx="560.5" cy="312.8047" fill="#84BE84" rx="3" ry="3" style="stroke:#038048;stroke-width:1.0;"/><text fill="#000000" font-family="sans-serif" font-size="14" lengthAdjust="spacing" textLength="39" x="569.5" y="316.1514">sum()</text></g><!--class basic_vector--><g id="elem_basic_vector"><rect codeLine="32" fill="#FEFECE" filter="url(#f1hk7mlwr6bupf)" height="194.6719" id="basic_vector" style="stroke:#A80036;stroke-width:1.0;" width="166" x="270" y="416.2969"/><ellipse cx="285" cy="432.2969" fill="#FEFECE" rx="11" ry="11" style="stroke:#A80036;stroke-width:1.0;"/><path d="M288.7813,428.2656 C288.7813,427.8281 288.7656,427.6875 288.6719,427.5313 C288.5313,427.2969 288.25,427.1406 287.9531,427.1406 C287.6094,427.1406 287.4688,427.2813 287.2969,427.7031 C286.7031,427.3281 285.9531,427.1406 285.0781,427.1406 C282.9688,427.1406 281.3906,428.4375 281.3906,430.1563 C281.3906,431.125 281.9219,432.0313 282.7813,432.5156 C283.3281,432.8281 283.875,433 284.9844,433.1875 C286.1406,433.3906 286.4063,433.4531 286.7656,433.6406 C287.1406,433.8438 287.375,434.1875 287.375,434.5469 C287.375,435.2813 286.3906,435.8281 285.1406,435.8281 C284.0156,435.8281 282.9375,435.3438 282.7656,434.7344 C282.6406,434.2656 282.6406,434.2656 282.5156,434.1563 C282.3594,434 282.1406,433.9063 281.9063,433.9063 C281.625,433.9063 281.375,434.0313 281.2031,434.25 C281.0938,434.4219 281.0469,434.6094 281.0469,435.0313 L281.0469,436.1563 C281.0469,436.9219 281.3281,437.2813 281.9219,437.2813 C282.1875,437.2813 282.3125,437.2188 282.5938,436.875 C283.4375,437.3125 284.3281,437.5313 285.25,437.5313 C287.5781,437.5313 289.1406,436.3438 289.1406,434.5781 C289.1406,433.6875 288.8281,433 288.1406,432.4531 C287.6094,432.0313 286.9688,431.7813 285.4844,431.5156 C284.2188,431.2813 284.125,431.25 283.7969,431.0781 C283.4219,430.8906 283.1563,430.5 283.1563,430.1406 C283.1563,429.4063 284.0156,428.8438 285.0781,428.8438 C286.1406,428.8438 286.9531,429.3125 287.1094,429.9844 C287.2188,430.5313 287.2188,430.5313 287.3438,430.6719 C287.4844,430.7969 287.7188,430.9063 287.9531,430.9063 C288.2188,430.9063 288.4688,430.7656 288.6406,430.5469 C288.75,430.375 288.7813,430.2344 288.7813,429.7656 L288.7813,428.2656 Z " fill="#000000"/><text fill="#000000" font-family="sans-serif" font-size="14" lengthAdjust="spacing" textLength="91" x="299" y="437.1436">basic_vector</text><rect fill="#FFFFFF" height="15.9688" style="stroke:#A80036;stroke-width:1.0;stroke-dasharray:2.0,2.0;" width="41" x="398" y="413.2969"/><text fill="#000000" font-family="sans-serif" font-size="12" font-style="italic" lengthAdjust="spacing" textLength="39" x="399" y="425.4355">T, Size</text><line style="stroke:#A80036;stroke-width:1.0;" x1="271" x2="435" y1="448.2969" y2="448.2969"/><ellipse cx="281" cy="461.9453" fill="none" rx="3" ry="3" style="stroke:#038048;stroke-width:1.0;"/><text fill="#000000" font-family="sans-serif" font-size="14" lengthAdjust="spacing" textLength="132" x="290" y="465.292">base_and_swizzles</text><ellipse cx="281" cy="478.2422" fill="none" rx="3" ry="3" style="stroke:#038048;stroke-width:1.0;"/><text fill="#000000" font-family="sans-serif" font-size="14" lengthAdjust="spacing" text-decoration="underline" textLength="51" x="290" y="481.5889">offsets</text><line style="stroke:#A80036;stroke-width:1.0;" x1="271" x2="435" y1="488.8906" y2="488.8906"/><ellipse cx="281" cy="502.5391" fill="#84BE84" rx="3" ry="3" style="stroke:#038048;stroke-width:1.0;"/><text fill="#000000" font-family="sans-serif" font-size="14" lengthAdjust="spacing" textLength="33" x="290" y="505.8857">set()</text><ellipse cx="281" cy="518.8359" fill="#84BE84" rx="3" ry="3" style="stroke:#038048;stroke-width:1.0;"/><text fill="#000000" font-family="sans-serif" font-size="14" lengthAdjust="spacing" textLength="84" x="290" y="522.1826">operator[]()</text><ellipse cx="281" cy="535.1328" fill="#84BE84" rx="3" ry="3" style="stroke:#038048;stroke-width:1.0;"/><text fill="#000000" font-family="sans-serif" font-size="14" lengthAdjust="spacing" textLength="85" x="290" y="538.4795">operator=()</text><ellipse cx="281" cy="551.4297" fill="#84BE84" rx="3" ry="3" style="stroke:#038048;stroke-width:1.0;"/><text fill="#000000" font-family="sans-serif" font-size="14" lengthAdjust="spacing" textLength="42" x="290" y="554.7764">data()</text><ellipse cx="281" cy="567.7266" fill="#84BE84" rx="3" ry="3" style="stroke:#038048;stroke-width:1.0;"/><text fill="#000000" font-family="sans-serif" font-size="14" lengthAdjust="spacing" textLength="78" x="290" y="571.0732">sequence()</text><ellipse cx="281" cy="584.0234" fill="#84BE84" rx="3" ry="3" style="stroke:#038048;stroke-width:1.0;"/><text fill="#000000" font-family="sans-serif" font-size="14" lengthAdjust="spacing" textLength="137" x="290" y="587.3701">iterator functions()</text><ellipse cx="281" cy="600.3203" fill="#84BE84" rx="3" ry="3" style="stroke:#038048;stroke-width:1.0;"/><text fill="#000000" font-family="sans-serif" font-size="14" lengthAdjust="spacing" textLength="46" x="290" y="603.667">swap()</text></g><!--class anonymous_union--><g id="elem_anonymous_union"><rect codeLine="44" fill="#FEFECE" filter="url(#f1hk7mlwr6bupf)" height="80.5938" id="anonymous_union" style="stroke:#A80036;stroke-width:1.0;" width="159" x="273.5" y="777.2969"/><ellipse cx="288.5" cy="793.2969" fill="#ADD1B2" rx="11" ry="11" style="stroke:#A80036;stroke-width:1.0;"/><path d="M287.2969,794.1719 L288.75,794.1719 L288.75,794.2813 C288.75,794.6875 288.7813,794.8438 288.8594,795 C289.0156,795.25 289.2969,795.4063 289.5938,795.4063 C289.8438,795.4063 290.1094,795.2656 290.2656,795.0469 C290.3906,794.8906 290.4219,794.7344 290.4219,794.2813 L290.4219,792.3594 C290.4219,792.2031 290.4219,792.1563 290.4063,792 C290.3438,791.5313 290.0313,791.2188 289.5781,791.2188 C289.3281,791.2188 289.0625,791.3594 288.8906,791.5781 C288.7813,791.75 288.75,791.9063 288.75,792.3594 L288.75,792.4844 L287.2969,792.4844 L287.2969,790.0781 L291.2813,790.0781 L291.2813,790.9375 C291.2813,791.3438 291.3125,791.5156 291.3906,791.6719 C291.5625,791.9219 291.8438,792.0781 292.125,792.0781 C292.3906,792.0781 292.6563,791.9375 292.8281,791.7188 C292.9375,791.5469 292.9688,791.4063 292.9688,790.9375 L292.9688,788.3906 L285.3438,788.3906 C284.9063,788.3906 284.7813,788.4063 284.625,788.5 C284.375,788.6563 284.2188,788.9531 284.2188,789.2344 C284.2188,789.5156 284.3594,789.7656 284.5781,789.9375 C284.7344,790.0469 284.9219,790.0781 285.3438,790.0781 L285.5938,790.0781 L285.5938,796.5938 L285.3438,796.5938 C284.9375,796.5938 284.7813,796.6094 284.625,796.7188 C284.375,796.8906 284.2188,797.1563 284.2188,797.4531 C284.2188,797.7188 284.3594,797.9688 284.5781,798.125 C284.7188,798.25 284.9531,798.2969 285.3438,798.2969 L293.3438,798.2969 L293.3438,795.7188 C293.3438,795.2813 293.3125,795.1406 293.2344,794.9844 C293.0625,794.7344 292.7813,794.5781 292.5,794.5781 C292.2344,794.5781 291.9688,794.6875 291.7969,794.9375 C291.6875,795.0938 291.6563,795.2344 291.6563,795.7188 L291.6563,796.5938 L287.2969,796.5938 L287.2969,794.1719 Z " fill="#000000"/><text fill="#000000" font-family="sans-serif" font-size="14" lengthAdjust="spacing" textLength="127" x="302.5" y="798.1436">anonymous_union</text><line style="stroke:#A80036;stroke-width:1.0;" x1="274.5" x2="431.5" y1="809.2969" y2="809.2969"/><ellipse cx="284.5" cy="822.9453" fill="none" rx="3" ry="3" style="stroke:#038048;stroke-width:1.0;"/><text fill="#000000" font-family="sans-serif" font-size="14" lengthAdjust="spacing" textLength="34" x="293.5" y="826.292">base</text><ellipse cx="284.5" cy="839.2422" fill="none" rx="3" ry="3" style="stroke:#038048;stroke-width:1.0;"/><text fill="#000000" font-family="sans-serif" font-size="14" lengthAdjust="spacing" textLength="58" x="293.5" y="842.5889">swizzles</text><line style="stroke:#A80036;stroke-width:1.0;" x1="274.5" x2="431.5" y1="849.8906" y2="849.8906"/></g><!--class storage_wrapper--><g id="elem_storage_wrapper"><rect codeLine="49" fill="#FEFECE" filter="url(#f1hk7mlwr6bupf)" height="227.2656" id="storage_wrapper" style="stroke:#A80036;stroke-width:1.0;" width="197" x="8.5" y="704.2969"/><ellipse cx="23.5" cy="720.2969" fill="#FEFECE" rx="11" ry="11" style="stroke:#A80036;stroke-width:1.0;"/><path d="M27.2813,716.2656 C27.2813,715.8281 27.2656,715.6875 27.1719,715.5313 C27.0313,715.2969 26.75,715.1406 26.4531,715.1406 C26.1094,715.1406 25.9688,715.2813 25.7969,715.7031 C25.2031,715.3281 24.4531,715.1406 23.5781,715.1406 C21.4688,715.1406 19.8906,716.4375 19.8906,718.1563 C19.8906,719.125 20.4219,720.0313 21.2813,720.5156 C21.8281,720.8281 22.375,721 23.4844,721.1875 C24.6406,721.3906 24.9063,721.4531 25.2656,721.6406 C25.6406,721.8438 25.875,722.1875 25.875,722.5469 C25.875,723.2813 24.8906,723.8281 23.6406,723.8281 C22.5156,723.8281 21.4375,723.3438 21.2656,722.7344 C21.1406,722.2656 21.1406,722.2656 21.0156,722.1563 C20.8594,722 20.6406,721.9063 20.4063,721.9063 C20.125,721.9063 19.875,722.0313 19.7031,722.25 C19.5938,722.4219 19.5469,722.6094 19.5469,723.0313 L19.5469,724.1563 C19.5469,724.9219 19.8281,725.2813 20.4219,725.2813 C20.6875,725.2813 20.8125,725.2188 21.0938,724.875 C21.9375,725.3125 22.8281,725.5313 23.75,725.5313 C26.0781,725.5313 27.6406,724.3438 27.6406,722.5781 C27.6406,721.6875 27.3281,721 26.6406,720.4531 C26.1094,720.0313 25.4688,719.7813 23.9844,719.5156 C22.7188,719.2813 22.625,719.25 22.2969,719.0781 C21.9219,718.8906 21.6563,718.5 21.6563,718.1406 C21.6563,717.4063 22.5156,716.8438 23.5781,716.8438 C24.6406,716.8438 25.4531,717.3125 25.6094,717.9844 C25.7188,718.5313 25.7188,718.5313 25.8438,718.6719 C25.9844,718.7969 26.2188,718.9063 26.4531,718.9063 C26.7188,718.9063 26.9688,718.7656 27.1406,718.5469 C27.25,718.375 27.2813,718.2344 27.2813,717.7656 L27.2813,716.2656 Z " fill="#000000"/><text fill="#000000" font-family="sans-serif" font-size="14" lengthAdjust="spacing" textLength="122" x="37.5" y="725.1436">storage_wrapper</text><rect fill="#FFFFFF" height="15.9688" style="stroke:#A80036;stroke-width:1.0;stroke-dasharray:2.0,2.0;" width="41" x="167.5" y="701.2969"/><text fill="#000000" font-family="sans-serif" font-size="12" font-style="italic" lengthAdjust="spacing" textLength="39" x="168.5" y="713.4355">T, Size</text><line style="stroke:#A80036;stroke-width:1.0;" x1="9.5" x2="204.5" y1="736.2969" y2="736.2969"/><ellipse cx="19.5" cy="749.9453" fill="none" rx="3" ry="3" style="stroke:#038048;stroke-width:1.0;"/><text fill="#000000" font-family="sans-serif" font-size="14" lengthAdjust="spacing" textLength="38" x="28.5" y="753.292">store</text><ellipse cx="19.5" cy="766.2422" fill="none" rx="3" ry="3" style="stroke:#038048;stroke-width:1.0;"/><text fill="#000000" font-family="sans-serif" font-size="14" lengthAdjust="spacing" text-decoration="underline" textLength="51" x="28.5" y="769.5889">offsets</text><line style="stroke:#A80036;stroke-width:1.0;" x1="9.5" x2="204.5" y1="776.8906" y2="776.8906"/><ellipse cx="19.5" cy="790.5391" fill="#84BE84" rx="3" ry="3" style="stroke:#038048;stroke-width:1.0;"/><text fill="#000000" font-family="sans-serif" font-size="14" lengthAdjust="spacing" textLength="33" x="28.5" y="793.8857">set()</text><ellipse cx="19.5" cy="806.8359" fill="#84BE84" rx="3" ry="3" style="stroke:#038048;stroke-width:1.0;"/><text fill="#000000" font-family="sans-serif" font-size="14" lengthAdjust="spacing" textLength="84" x="28.5" y="810.1826">operator[]()</text><ellipse cx="19.5" cy="823.1328" fill="#84BE84" rx="3" ry="3" style="stroke:#038048;stroke-width:1.0;"/><text fill="#000000" font-family="sans-serif" font-size="14" lengthAdjust="spacing" textLength="85" x="28.5" y="826.4795">operator=()</text><ellipse cx="19.5" cy="839.4297" fill="#84BE84" rx="3" ry="3" style="stroke:#038048;stroke-width:1.0;"/><text fill="#000000" font-family="sans-serif" font-size="14" lengthAdjust="spacing" textLength="42" x="28.5" y="842.7764">data()</text><ellipse cx="19.5" cy="855.7266" fill="#84BE84" rx="3" ry="3" style="stroke:#038048;stroke-width:1.0;"/><text fill="#000000" font-family="sans-serif" font-size="14" lengthAdjust="spacing" textLength="78" x="28.5" y="859.0732">sequence()</text><ellipse cx="19.5" cy="872.0234" fill="#84BE84" rx="3" ry="3" style="stroke:#038048;stroke-width:1.0;"/><text fill="#000000" font-family="sans-serif" font-size="14" lengthAdjust="spacing" textLength="137" x="28.5" y="875.3701">iterator functions()</text><ellipse cx="19.5" cy="888.3203" fill="#84BE84" rx="3" ry="3" style="stroke:#038048;stroke-width:1.0;"/><text fill="#000000" font-family="sans-serif" font-size="14" lengthAdjust="spacing" textLength="57" x="28.5" y="891.667">length()</text><ellipse cx="19.5" cy="904.6172" fill="#84BE84" rx="3" ry="3" style="stroke:#038048;stroke-width:1.0;"/><text fill="#000000" font-family="sans-serif" font-size="14" lengthAdjust="spacing" textLength="38" x="28.5" y="907.9639">size()</text><ellipse cx="19.5" cy="920.9141" fill="#84BE84" rx="3" ry="3" style="stroke:#038048;stroke-width:1.0;"/><text fill="#000000" font-family="sans-serif" font-size="14" lengthAdjust="spacing" textLength="46" x="28.5" y="924.2607">swap()</text></g><!--class indexed_vector--><g id="elem_indexed_vector"><rect codeLine="63" fill="#FEFECE" filter="url(#f1hk7mlwr6bupf)" height="178.375" id="indexed_vector" style="stroke:#A80036;stroke-width:1.0;" width="260" x="522" y="728.7969"/><ellipse cx="537" cy="744.7969" fill="#FEFECE" rx="11" ry="11" style="stroke:#A80036;stroke-width:1.0;"/><path d="M540.7813,740.7656 C540.7813,740.3281 540.7656,740.1875 540.6719,740.0313 C540.5313,739.7969 540.25,739.6406 539.9531,739.6406 C539.6094,739.6406 539.4688,739.7813 539.2969,740.2031 C538.7031,739.8281 537.9531,739.6406 537.0781,739.6406 C534.9688,739.6406 533.3906,740.9375 533.3906,742.6563 C533.3906,743.625 533.9219,744.5313 534.7813,745.0156 C535.3281,745.3281 535.875,745.5 536.9844,745.6875 C538.1406,745.8906 538.4063,745.9531 538.7656,746.1406 C539.1406,746.3438 539.375,746.6875 539.375,747.0469 C539.375,747.7813 538.3906,748.3281 537.1406,748.3281 C536.0156,748.3281 534.9375,747.8438 534.7656,747.2344 C534.6406,746.7656 534.6406,746.7656 534.5156,746.6563 C534.3594,746.5 534.1406,746.4063 533.9063,746.4063 C533.625,746.4063 533.375,746.5313 533.2031,746.75 C533.0938,746.9219 533.0469,747.1094 533.0469,747.5313 L533.0469,748.6563 C533.0469,749.4219 533.3281,749.7813 533.9219,749.7813 C534.1875,749.7813 534.3125,749.7188 534.5938,749.375 C535.4375,749.8125 536.3281,750.0313 537.25,750.0313 C539.5781,750.0313 541.1406,748.8438 541.1406,747.0781 C541.1406,746.1875 540.8281,745.5 540.1406,744.9531 C539.6094,744.5313 538.9688,744.2813 537.4844,744.0156 C536.2188,743.7813 536.125,743.75 535.7969,743.5781 C535.4219,743.3906 535.1563,743 535.1563,742.6406 C535.1563,741.9063 536.0156,741.3438 537.0781,741.3438 C538.1406,741.3438 538.9531,741.8125 539.1094,742.4844 C539.2188,743.0313 539.2188,743.0313 539.3438,743.1719 C539.4844,743.2969 539.7188,743.4063 539.9531,743.4063 C540.2188,743.4063 540.4688,743.2656 540.6406,743.0469 C540.75,742.875 540.7813,742.7344 540.7813,742.2656 L540.7813,740.7656 Z " fill="#000000"/><text fill="#000000" font-family="sans-serif" font-size="14" lengthAdjust="spacing" textLength="111" x="551" y="749.6436">indexed_vector</text><rect fill="#FFFFFF" height="15.9688" style="stroke:#A80036;stroke-width:1.0;stroke-dasharray:2.0,2.0;" width="115" x="670" y="725.7969"/><text fill="#000000" font-family="sans-serif" font-size="12" font-style="italic" lengthAdjust="spacing" textLength="113" x="671" y="737.9355">T, Size, Count, ...Is</text><line style="stroke:#A80036;stroke-width:1.0;" x1="523" x2="781" y1="760.7969" y2="760.7969"/><ellipse cx="533" cy="774.4453" fill="none" rx="3" ry="3" style="stroke:#038048;stroke-width:1.0;"/><text fill="#000000" font-family="sans-serif" font-size="14" lengthAdjust="spacing" textLength="34" x="542" y="777.792">base</text><ellipse cx="533" cy="790.7422" fill="none" rx="3" ry="3" style="stroke:#038048;stroke-width:1.0;"/><text fill="#000000" font-family="sans-serif" font-size="14" lengthAdjust="spacing" text-decoration="underline" textLength="51" x="542" y="794.0889">offsets</text><line style="stroke:#A80036;stroke-width:1.0;" x1="523" x2="781" y1="801.3906" y2="801.3906"/><ellipse cx="533" cy="815.0391" fill="#84BE84" rx="3" ry="3" style="stroke:#038048;stroke-width:1.0;"/><text fill="#000000" font-family="sans-serif" font-size="14" lengthAdjust="spacing" textLength="33" x="542" y="818.3857">set()</text><ellipse cx="533" cy="831.3359" fill="#84BE84" rx="3" ry="3" style="stroke:#038048;stroke-width:1.0;"/><text fill="#000000" font-family="sans-serif" font-size="14" lengthAdjust="spacing" textLength="84" x="542" y="834.6826">operator[]()</text><ellipse cx="533" cy="847.6328" fill="#84BE84" rx="3" ry="3" style="stroke:#038048;stroke-width:1.0;"/><text fill="#000000" font-family="sans-serif" font-size="14" lengthAdjust="spacing" textLength="85" x="542" y="850.9795">operator=()</text><ellipse cx="533" cy="863.9297" fill="#84BE84" rx="3" ry="3" style="stroke:#038048;stroke-width:1.0;"/><text fill="#000000" font-family="sans-serif" font-size="14" lengthAdjust="spacing" textLength="42" x="542" y="867.2764">data()</text><ellipse cx="533" cy="880.2266" fill="#84BE84" rx="3" ry="3" style="stroke:#038048;stroke-width:1.0;"/><text fill="#000000" font-family="sans-serif" font-size="14" lengthAdjust="spacing" textLength="78" x="542" y="883.5732">sequence()</text><ellipse cx="533" cy="896.5234" fill="#84BE84" rx="3" ry="3" style="stroke:#038048;stroke-width:1.0;"/><text fill="#000000" font-family="sans-serif" font-size="14" lengthAdjust="spacing" textLength="137" x="542" y="899.8701">iterator functions()</text></g><!--class basic_matrix--><g id="elem_basic_matrix"><rect codeLine="74" fill="#FEFECE" filter="url(#f1hk7mlwr6bupf)" height="227.2656" id="basic_matrix" style="stroke:#A80036;stroke-width:1.0;" width="205" x="29.5" y="400.2969"/><ellipse cx="44.5" cy="416.2969" fill="#FEFECE" rx="11" ry="11" style="stroke:#A80036;stroke-width:1.0;"/><path d="M48.2813,412.2656 C48.2813,411.8281 48.2656,411.6875 48.1719,411.5313 C48.0313,411.2969 47.75,411.1406 47.4531,411.1406 C47.1094,411.1406 46.9688,411.2813 46.7969,411.7031 C46.2031,411.3281 45.4531,411.1406 44.5781,411.1406 C42.4688,411.1406 40.8906,412.4375 40.8906,414.1563 C40.8906,415.125 41.4219,416.0313 42.2813,416.5156 C42.8281,416.8281 43.375,417 44.4844,417.1875 C45.6406,417.3906 45.9063,417.4531 46.2656,417.6406 C46.6406,417.8438 46.875,418.1875 46.875,418.5469 C46.875,419.2813 45.8906,419.8281 44.6406,419.8281 C43.5156,419.8281 42.4375,419.3438 42.2656,418.7344 C42.1406,418.2656 42.1406,418.2656 42.0156,418.1563 C41.8594,418 41.6406,417.9063 41.4063,417.9063 C41.125,417.9063 40.875,418.0313 40.7031,418.25 C40.5938,418.4219 40.5469,418.6094 40.5469,419.0313 L40.5469,420.1563 C40.5469,420.9219 40.8281,421.2813 41.4219,421.2813 C41.6875,421.2813 41.8125,421.2188 42.0938,420.875 C42.9375,421.3125 43.8281,421.5313 44.75,421.5313 C47.0781,421.5313 48.6406,420.3438 48.6406,418.5781 C48.6406,417.6875 48.3281,417 47.6406,416.4531 C47.1094,416.0313 46.4688,415.7813 44.9844,415.5156 C43.7188,415.2813 43.625,415.25 43.2969,415.0781 C42.9219,414.8906 42.6563,414.5 42.6563,414.1406 C42.6563,413.4063 43.5156,412.8438 44.5781,412.8438 C45.6406,412.8438 46.4531,413.3125 46.6094,413.9844 C46.7188,414.5313 46.7188,414.5313 46.8438,414.6719 C46.9844,414.7969 47.2188,414.9063 47.4531,414.9063 C47.7188,414.9063 47.9688,414.7656 48.1406,414.5469 C48.25,414.375 48.2813,414.2344 48.2813,413.7656 L48.2813,412.2656 Z " fill="#000000"/><text fill="#000000" font-family="sans-serif" font-size="14" lengthAdjust="spacing" textLength="91" x="58.5" y="421.1436">basic_matrix</text><rect fill="#FFFFFF" height="15.9688" style="stroke:#A80036;stroke-width:1.0;stroke-dasharray:2.0,2.0;" width="80" x="157.5" y="397.2969"/><text fill="#000000" font-family="sans-serif" font-size="12" font-style="italic" lengthAdjust="spacing" textLength="78" x="158.5" y="409.4355">T, Cols, Rows</text><line style="stroke:#A80036;stroke-width:1.0;" x1="30.5" x2="233.5" y1="432.2969" y2="432.2969"/><ellipse cx="40.5" cy="445.9453" fill="none" rx="3" ry="3" style="stroke:#038048;stroke-width:1.0;"/><text fill="#000000" font-family="sans-serif" font-size="14" lengthAdjust="spacing" textLength="59" x="49.5" y="449.292">columns</text><line style="stroke:#A80036;stroke-width:1.0;" x1="30.5" x2="233.5" y1="456.5938" y2="456.5938"/><ellipse cx="40.5" cy="470.2422" fill="#84BE84" rx="3" ry="3" style="stroke:#038048;stroke-width:1.0;"/><text fill="#000000" font-family="sans-serif" font-size="14" lengthAdjust="spacing" textLength="36" x="49.5" y="473.5889">row()</text><ellipse cx="40.5" cy="486.5391" fill="#84BE84" rx="3" ry="3" style="stroke:#038048;stroke-width:1.0;"/><text fill="#000000" font-family="sans-serif" font-size="14" lengthAdjust="spacing" textLength="84" x="49.5" y="489.8857">operator[]()</text><ellipse cx="40.5" cy="502.8359" fill="#84BE84" rx="3" ry="3" style="stroke:#038048;stroke-width:1.0;"/><text fill="#000000" font-family="sans-serif" font-size="14" lengthAdjust="spacing" textLength="85" x="49.5" y="506.1826">operator=()</text><ellipse cx="40.5" cy="519.1328" fill="#84BE84" rx="3" ry="3" style="stroke:#038048;stroke-width:1.0;"/><text fill="#000000" font-family="sans-serif" font-size="14" lengthAdjust="spacing" textLength="42" x="49.5" y="522.4795">data()</text><ellipse cx="40.5" cy="535.4297" fill="#84BE84" rx="3" ry="3" style="stroke:#038048;stroke-width:1.0;"/><text fill="#000000" font-family="sans-serif" font-size="14" lengthAdjust="spacing" textLength="137" x="49.5" y="538.7764">iterator functions()</text><ellipse cx="40.5" cy="551.7266" fill="#84BE84" rx="3" ry="3" style="stroke:#038048;stroke-width:1.0;"/><text fill="#000000" font-family="sans-serif" font-size="14" lengthAdjust="spacing" textLength="57" x="49.5" y="555.0732">length()</text><ellipse cx="40.5" cy="568.0234" fill="#84BE84" rx="3" ry="3" style="stroke:#038048;stroke-width:1.0;"/><text fill="#000000" font-family="sans-serif" font-size="14" lengthAdjust="spacing" textLength="116" x="49.5" y="571.3701">column_length()</text><ellipse cx="40.5" cy="584.3203" fill="#84BE84" rx="3" ry="3" style="stroke:#038048;stroke-width:1.0;"/><text fill="#000000" font-family="sans-serif" font-size="14" lengthAdjust="spacing" textLength="38" x="49.5" y="587.667">size()</text><ellipse cx="40.5" cy="600.6172" fill="#84BE84" rx="3" ry="3" style="stroke:#038048;stroke-width:1.0;"/><text fill="#000000" font-family="sans-serif" font-size="14" lengthAdjust="spacing" textLength="97" x="49.5" y="603.9639">column_size()</text><ellipse cx="40.5" cy="616.9141" fill="#84BE84" rx="3" ry="3" style="stroke:#038048;stroke-width:1.0;"/><text fill="#000000" font-family="sans-serif" font-size="14" lengthAdjust="spacing" textLength="46" x="49.5" y="620.2607">swap()</text></g><!--reverse link vector_base to basic_vector--><g id="link_vector_base_basic_vector"><path codeLine="88" d="M534.788,333.2799 C511.28,355.6119 487.421,378.4789 465,400.2969 C455.618,409.4269 445.862,419.0419 436.193,428.6469 " fill="none" id="vector_base-backto-basic_vector" style="stroke:#A80036;stroke-width:1.0;"/><polygon fill="none" points="530.034,328.1409,549.363,319.4579,539.668,338.2999,530.034,328.1409" style="stroke:#A80036;stroke-width:1.0;"/><text fill="#000000" font-family="sans-serif" font-size="13" lengthAdjust="spacing" textLength="85" x="508" y="366.3638">CRTP inherits</text></g><!--reverse link vector_base to indexed_vector--><g id="link_vector_base_indexed_vector"><path codeLine="89" d="M682.01,343.7579 C674.302,465.2649 663.92,628.9119 657.607,728.4239 " fill="none" id="vector_base-backto-indexed_vector" style="stroke:#A80036;stroke-width:1.0;"/><polygon fill="none" points="675.044,343.0109,683.296,323.4949,689.016,343.8979,675.044,343.0109" style="stroke:#A80036;stroke-width:1.0;"/><text fill="#000000" font-family="sans-serif" font-size="13" lengthAdjust="spacing" textLength="85" x="678" y="518.3638">CRTP inherits</text></g><!--reverse link CRTP_duck_type to basic_vector--><g id="link_CRTP_duck_type_basic_vector"><path codeLine="90" d="M345.564,270.0269 C346.93,314.6189 348.617,369.6859 350.038,416.0949 " fill="none" id="CRTP_duck_type-backto-basic_vector" style="stroke:#A80036;stroke-width:1.0;stroke-dasharray:7.0,7.0;"/><polygon fill="none" points="338.567,270.2299,344.952,250.0249,352.561,269.8009,338.567,270.2299" style="stroke:#A80036;stroke-width:1.0;"/><text fill="#000000" font-family="sans-serif" font-size="13" lengthAdjust="spacing" textLength="110" x="349" y="366.3638">duck implements</text></g><!--reverse link CRTP_duck_type to indexed_vector--><g id="link_CRTP_duck_type_indexed_vector"><path codeLine="91" d="M412.061,265.9329 C432.339,292.3839 453.059,322.8789 468,353.2969 C523.714,466.7289 495.453,510.6179 544,627.2969 C558.256,661.5589 577.424,697.3599 595.654,728.4999 " fill="none" id="CRTP_duck_type-backto-indexed_vector" style="stroke:#A80036;stroke-width:1.0;stroke-dasharray:7.0,7.0;"/><polygon fill="none" points="406.41,270.0709,399.548,250.0239,417.414,261.4159,406.41,270.0709" style="stroke:#A80036;stroke-width:1.0;"/><text fill="#000000" font-family="sans-serif" font-size="13" lengthAdjust="spacing" textLength="110" x="545" y="518.3638">duck implements</text></g><!--link storage_wrapper to anonymous_union--><g id="link_storage_wrapper_anonymous_union"><path codeLine="92" d="M205.64,817.7969 C223.623,817.7969 242.329,817.7969 260.138,817.7969 " fill="none" id="storage_wrapper-to-anonymous_union" style="stroke:#A80036;stroke-width:1.0;"/><polygon fill="#A80036" points="273.237,817.7969,267.237,813.7969,261.237,817.7969,267.237,821.7969,273.237,817.7969" style="stroke:#A80036;stroke-width:1.0;"/><text fill="#000000" font-family="sans-serif" font-size="13" lengthAdjust="spacing" textLength="31" x="224" y="810.8638">base</text><text fill="#000000" font-family="sans-serif" font-size="13" lengthAdjust="spacing" textLength="8" x="213.4984" y="814.2845">1</text><text fill="#000000" font-family="sans-serif" font-size="13" lengthAdjust="spacing" textLength="8" x="257.5151" y="814.1972">1</text></g><!--reverse link anonymous_union to indexed_vector--><g id="link_anonymous_union_indexed_vector"><path codeLine="93" d="M445.863,817.7969 C469.957,817.7969 496.355,817.7969 521.976,817.7969 " fill="none" id="anonymous_union-backto-indexed_vector" style="stroke:#A80036;stroke-width:1.0;"/><polygon fill="#A80036" points="432.734,817.7969,438.734,821.7969,444.734,817.7969,438.734,813.7969,432.734,817.7969" style="stroke:#A80036;stroke-width:1.0;"/><text fill="#000000" font-family="sans-serif" font-size="13" lengthAdjust="spacing" textLength="53" x="450.75" y="810.8638">swizzles</text><text fill="#000000" font-family="sans-serif" font-size="13" lengthAdjust="spacing" textLength="8" x="440.4532" y="814.1972">1</text><text fill="#000000" font-family="sans-serif" font-size="13" lengthAdjust="spacing" textLength="37" x="476.8536" y="830.2673">many</text></g><!--reverse link basic_vector to anonymous_union--><g id="link_basic_vector_anonymous_union"><path codeLine="94" d="M353,624.9319 C353,678.0699 353,738.5079 353,777.1129 " fill="none" id="basic_vector-backto-anonymous_union" style="stroke:#A80036;stroke-width:1.0;"/><polygon fill="#A80036" points="353,611.5979,349,617.5979,353,623.5979,357,617.5979,353,611.5979" style="stroke:#A80036;stroke-width:1.0;"/><text fill="#000000" font-family="sans-serif" font-size="13" lengthAdjust="spacing" textLength="83" x="354" y="670.3638">nested union</text><text fill="#000000" font-family="sans-serif" font-size="13" lengthAdjust="spacing" textLength="8" x="344.7188" y="631.085">1</text><text fill="#000000" font-family="sans-serif" font-size="13" lengthAdjust="spacing" textLength="8" x="344.3375" y="766.2439">1</text></g><!--reverse link CRTP_duck_type to vector_base--><g id="link_CRTP_duck_type_vector_base"><path codeLine="95" d="M430.089,185.2969 C466.103,185.2969 508.813,185.2969 549.183,185.2969 " fill="none" id="CRTP_duck_type-backto-vector_base" style="stroke:#A80036;stroke-width:1.0;stroke-dasharray:7.0,7.0;"/><polygon fill="#A80036" points="424.825,185.2969,433.825,189.2969,429.825,185.2969,433.825,181.2969,424.825,185.2969" style="stroke:#A80036;stroke-width:1.0;"/><text fill="#000000" font-family="sans-serif" font-size="13" lengthAdjust="spacing" textLength="88" x="443" y="178.3638">Derived CRTP</text></g><!--reverse link basic_matrix to basic_vector--><g id="link_basic_matrix_basic_vector"><path codeLine="96" d="M247.897,513.7969 C255.212,513.7969 262.527,513.7969 269.842,513.7969 " fill="none" id="basic_matrix-backto-basic_vector" style="stroke:#A80036;stroke-width:1.0;"/><polygon fill="#A80036" points="234.73,513.7969,240.73,517.7969,246.73,513.7969,240.73,509.7969,234.73,513.7969" style="stroke:#A80036;stroke-width:1.0;"/><text fill="#000000" font-family="sans-serif" font-size="13" lengthAdjust="spacing" textLength="8" x="242.568" y="510.3081">1</text><text fill="#000000" font-family="sans-serif" font-size="13" lengthAdjust="spacing" textLength="37" x="242.8385" y="527.7347">many</text></g><!--SRC=[nLHDRzim33sdluB8QLiJ0xi6sIxfPRSXAx33i1cAHIT2PSdJHvsawtyVBTkgFv9XwAKtIUGZ7nz9sGUXm6YBDxEP4quYR54o9xIo1r5QMC96CclXJh2zOGLv2UNGv2n3s6pllwRSPm-fEvKKu8cijnRTk_TqcDs2Bj4mfysFdzqBPuvrPuk_FQeCkxjmZJVaNcM1G6rvlfafxH0avWvqFiavssYAKJhF94Hc2o0C6AItLN3naiCEeM0SQoyD35eScL7nshyEndRM6POvUCICgAGxPX7MturmR2SfxFs2S5wv1ToX4O_8FxTLrxIWLtguJ-iFptqHMjnGYV1uMOxQB57jtI7AACuHo6pA6rxnfIpbAReUH1uPPeDR8LGyicC4-ABj0SdYIHRIGsHf8ywQnFX6oJi9QgrIfdXgAt4-IxHDZ2VhQ9ooPsfUJWBPhld_c9BkvTFhnoPuLgniwQEYsJu1KrgT2krjwXLvabja7aRtXJXXkfej1MTxJ2j3OkAaxDgCRrtgzP7eYT3M8nJ78_9H5-DW9qdonVPx-fQrZIUlOCw8upgieRGBsEegSisqz8LgYHbTlPBO_uhSf4klAzywN6d6u8Fvi-IwKil1UgtQRq0TQAE3tXSXmsx253NyCE5NalIp4A2sWIXAYGMjoMN89CiKDDejc7-SmuTb_MqlmtcqHXIZ7QxBG2FsXnfPC7MQJwlihUgWd0RSP1m7Ne52wv13j_oZEjT9I9hqTLvr7ttGDMPhvl0YrJwTlm00]--></g></svg>